<?xml version="1.0" encoding="utf-8"?>
<!-- Generator: Adobe Illustrator 23.0.1, SVG Export Plug-In . SVG Version: 6.00 Build 0)  -->
<svg version="1.1" id="Layer_1" xmlns="http://www.w3.org/2000/svg" xmlns:xlink="http://www.w3.org/1999/xlink" x="0px" y="0px"
	 viewBox="0 0 323 96" style="enable-background:new 0 0 323 96;" xml:space="preserve">
<style type="text/css">
	.st0{fill:#F40808;}
</style>
<g>
	<path class="st0" d="M1.5,80.3V15.2h47.1v7.7H10.1v20h36v7.6h-36v22.2h40v7.7H1.5z"/>
	<path class="st0" d="M62.1,80.3V15.2H91c5.8,0,10.2,0.6,13.2,1.8c3,1.2,5.4,3.2,7.2,6.2c1.8,3,2.7,6.2,2.7,9.8
		c0,4.6-1.5,8.5-4.5,11.7c-3,3.2-7.6,5.2-13.9,6c2.3,1.1,4,2.2,5.2,3.2c2.5,2.3,4.9,5.2,7.2,8.7l11.3,17.7h-10.8l-8.6-13.6
		c-2.5-3.9-4.6-6.9-6.2-9c-1.6-2.1-3.1-3.5-4.4-4.4c-1.3-0.8-2.6-1.4-3.9-1.7c-1-0.2-2.6-0.3-4.8-0.3h-10v28.9H62.1z M70.8,43.9
		h18.5c3.9,0,7-0.4,9.2-1.2s3.9-2.1,5.1-3.9c1.2-1.8,1.7-3.7,1.7-5.8c0-3.1-1.1-5.6-3.4-7.6c-2.2-2-5.8-3-10.6-3H70.8V43.9z"/>
	<path class="st0" d="M127.9,80.3V15.2h28.9c5.8,0,10.2,0.6,13.2,1.8c3,1.2,5.4,3.2,7.2,6.2c1.8,3,2.7,6.2,2.7,9.8
		c0,4.6-1.5,8.5-4.5,11.7c-3,3.2-7.6,5.2-13.9,6c2.3,1.1,4,2.2,5.2,3.2c2.5,2.3,4.9,5.2,7.2,8.7l11.3,17.7h-10.8l-8.6-13.6
		c-2.5-3.9-4.6-6.9-6.2-9c-1.6-2.1-3.1-3.5-4.4-4.4c-1.3-0.8-2.6-1.4-3.9-1.7c-1-0.2-2.6-0.3-4.8-0.3h-10v28.9H127.9z M136.5,43.9
		H155c3.9,0,7-0.4,9.2-1.2s3.9-2.1,5.1-3.9c1.2-1.8,1.7-3.7,1.7-5.8c0-3.1-1.1-5.6-3.4-7.6c-2.2-2-5.8-3-10.6-3h-20.6V43.9z"/>
	<path class="st0" d="M190.9,48.6c0-10.8,2.9-19.3,8.7-25.4c5.8-6.1,13.3-9.2,22.5-9.2c6,0,11.4,1.4,16.3,4.3c4.8,2.9,8.5,6.9,11,12
		c2.5,5.1,3.8,11,3.8,17.5c0,6.6-1.3,12.5-4,17.7s-6.4,9.2-11.3,11.8c-4.9,2.7-10.2,4-15.8,4c-6.1,0-11.6-1.5-16.4-4.4
		c-4.8-3-8.5-7-11-12.1C192.1,59.8,190.9,54.3,190.9,48.6z M199.8,48.7c0,7.9,2.1,14,6.3,18.6c4.2,4.5,9.5,6.8,15.9,6.8
		c6.5,0,11.8-2.3,16-6.8c4.2-4.6,6.3-11,6.3-19.4c0-5.3-0.9-9.9-2.7-13.9c-1.8-4-4.4-7-7.9-9.2c-3.5-2.2-7.3-3.3-11.6-3.3
		c-6.1,0-11.4,2.1-15.8,6.3C202,31.9,199.8,38.9,199.8,48.7z"/>
	<path class="st0" d="M264.4,80.3V15.2h28.9c5.8,0,10.2,0.6,13.2,1.8c3,1.2,5.4,3.2,7.2,6.2c1.8,3,2.7,6.2,2.7,9.8
		c0,4.6-1.5,8.5-4.5,11.7c-3,3.2-7.6,5.2-13.9,6c2.3,1.1,4,2.2,5.2,3.2c2.5,2.3,4.9,5.2,7.2,8.7l11.3,17.7H311l-8.6-13.6
		c-2.5-3.9-4.6-6.9-6.2-9c-1.6-2.1-3.1-3.5-4.4-4.4c-1.3-0.8-2.6-1.4-3.9-1.7c-1-0.2-2.6-0.3-4.8-0.3h-10v28.9H264.4z M273,43.9
		h18.5c3.9,0,7-0.4,9.2-1.2s3.9-2.1,5.1-3.9c1.2-1.8,1.7-3.7,1.7-5.8c0-3.1-1.1-5.6-3.4-7.6c-2.2-2-5.8-3-10.6-3H273V43.9z"/>
</g>
</svg>
