<svg width="22" height="22" viewBox="0 0 22 22" fill="none" xmlns="http://www.w3.org/2000/svg">
<path fill-rule="evenodd" clip-rule="evenodd" d="M1 0C0.447715 0 0 0.447716 0 1V9C0 9.55229 0.447716 10 1 10H9C9.55229 10 10 9.55228 10 9V1C10 0.447715 9.55228 0 9 0H1ZM2 14V20H8V14H2ZM1 12C0.447715 12 0 12.4477 0 13V21C0 21.5523 0.447716 22 1 22H9C9.55229 22 10 21.5523 10 21V13C10 12.4477 9.55228 12 9 12H1ZM14 20V14H20V20H14ZM12 13C12 12.4477 12.4477 12 13 12H21C21.5523 12 22 12.4477 22 13V21C22 21.5523 21.5523 22 21 22H13C12.4477 22 12 21.5523 12 21V13Z" fill="#1A1A1A"/>
</svg>
