<svg width="24" height="24" viewBox="0 0 24 24" fill="none" xmlns="http://www.w3.org/2000/svg">
<path fill-rule="evenodd" clip-rule="evenodd" d="M1 0C0.447715 0 0 0.447715 0 1V23C0 23.5523 0.447715 24 1 24H23C23.5523 24 24 23.5523 24 23V17.6667C24 17.1144 23.5523 16.6667 23 16.6667C22.4477 16.6667 22 17.1144 22 17.6667V22H2V2H6.33333C6.88562 2 7.33333 1.55228 7.33333 1C7.33333 0.447715 6.88562 0 6.33333 0H1ZM12 1.00039C12 0.44811 12.4477 0.000394973 13 0.000395253L23 0.000395C23.5523 0.000395179 24 0.448111 24 1.0004V10.9999C24 11.5522 23.5523 11.9999 23 11.9999C22.4477 11.9999 22 11.5522 22 10.9999V2.97067L6.70726 18.2634C6.31673 18.6539 5.68357 18.6539 5.29305 18.2634C4.90252 17.8729 4.90252 17.2397 5.29305 16.8492L20.1418 2.0004H13C12.4477 2.0004 12 1.55268 12 1.00039Z" fill="#1A1A1A"/>
</svg>
