<?xml version="1.0" encoding="utf-8"?>
<!-- Generator: Adobe Illustrator 23.0.1, SVG Export Plug-In . SVG Version: 6.00 Build 0)  -->
<svg version="1.1" id="Layer_1" xmlns="http://www.w3.org/2000/svg" xmlns:xlink="http://www.w3.org/1999/xlink" x="0px" y="0px"
	 viewBox="0 0 30 30" style="enable-background:new 0 0 30 30;" xml:space="preserve">
<style type="text/css">
	.st0{fill-rule:evenodd;clip-rule:evenodd;fill:#802F34;}
</style>
<path class="st0" d="M15,30C6.7,30,0,23.3,0,15C0,6.7,6.7,0,15,0c8.3,0,15,6.7,15,15C30,23.3,23.3,30,15,30z M15,29
	c7.7,0,14-6.3,14-14c0-7.7-6.3-14-14-14C7.3,1,1,7.3,1,15C1,22.7,7.3,29,15,29z M17.5,9.1H19V6.5c0,0-1.5-0.5-3-0.5
	c-2.7,0-3.5,1.7-3.5,4.1V12H11v3h1.5v8H16v-8h2.5l0.5-3h-3v-1.9C16,9.3,16.4,9.1,17.5,9.1z"/>
</svg>
