<?xml version="1.0" encoding="utf-8"?>
<!-- Generator: Adobe Illustrator 23.0.1, SVG Export Plug-In . SVG Version: 6.00 Build 0)  -->
<svg version="1.1" id="Layer_1" xmlns="http://www.w3.org/2000/svg" xmlns:xlink="http://www.w3.org/1999/xlink" x="0px" y="0px"
	 viewBox="0 0 576 577" style="enable-background:new 0 0 576 577;" xml:space="preserve">
<style type="text/css">
	.st0{fill:#FFFFFF;}
	.st1{fill:#DA1E16;}
	.st2{fill:#005D28;}
	.st3{fill:#E11F17;}
	.st4{fill:#005B27;}
	.st5{fill:#5E0C08;}
</style>
<path class="st0" d="M371.6,288.5c0,0.1,0,0.3,0,0.5H576c0-90.1-41.3-170.5-106-223.3L343,225.8C360.5,241,371.6,263.5,371.6,288.5z
	"/>
<path class="st1" d="M561.1,289H576c0-90.1-41.3-170.5-106-223.3l-9.3,11.7C521.9,127.5,561.1,203.7,561.1,289z"/>
<g>
	<path class="st0" d="M288.5,205.4c20.8,0,39.9,7.7,54.5,20.4l126.9-160C420.3,25.3,357,1,288,1c-21.3,0-42,2.3-62,6.7l48.7,198.9
		C279.1,205.8,283.8,205.4,288.5,205.4z"/>
	<path class="st2" d="M288,15.9c65.5,0,125.6,23.1,172.7,61.5l9.3-11.7C420.3,25.3,357,1,288,1c-21.3,0-42,2.3-62,6.7l3.5,14.5
		C248.4,18.1,267.9,15.9,288,15.9z"/>
	<path class="st2" d="M352.4,85.2h-36.2c-1,0-1.8,0.8-1.8,1.8v47c0,1,0.8,1.8,1.8,1.8h36.2c1,0,1.8-0.8,1.8-1.8V87
		C354.2,86,353.4,85.2,352.4,85.2z M318.4,89.3H350V101h-31.6V89.3L318.4,89.3z M350.1,116.4h-31.6v-11.7h31.6V116.4z M350.1,131.8
		h-31.6V120h31.6V131.8L350.1,131.8z M322.5,95.2c0,0.6,0.2,1.2,0.6,1.6s1,0.6,1.6,0.6s1.2-0.2,1.6-0.6s0.6-1,0.6-1.6
		s-0.2-1.2-0.6-1.6s-1-0.6-1.6-0.6s-1.2,0.2-1.6,0.6S322.5,94.6,322.5,95.2z M322.5,110.5c0,0.6,0.2,1.2,0.6,1.6s1,0.6,1.6,0.6
		s1.2-0.2,1.6-0.6s0.6-1,0.6-1.6s-0.2-1.2-0.6-1.6s-1-0.6-1.6-0.6s-1.2,0.2-1.6,0.6S322.5,109.9,322.5,110.5z M322.5,125.9
		c0,0.6,0.2,1.2,0.6,1.6s1,0.6,1.6,0.6s1.2-0.2,1.6-0.6s0.6-1,0.6-1.6s-0.2-1.2-0.6-1.6s-1-0.6-1.6-0.6s-1.2,0.2-1.6,0.6
		C322.7,124.7,322.5,125.3,322.5,125.9L322.5,125.9z"/>
</g>
<path class="st0" d="M288.5,371.6c-5.6,0-11.1-0.5-16.4-1.6l-44.7,200.7c19.5,4.2,39.8,6.4,60.6,6.4c68.7,0,131.9-24.1,181.4-64.3
	L341.5,352.5C327.1,364.4,308.6,371.6,288.5,371.6z"/>
<path class="st1" d="M288,562.1c-19.6,0-38.8-2.1-57.4-6l-3.2,14.6c19.5,4.2,39.8,6.4,60.6,6.4c68.7,0,131.9-24.1,181.4-64.3
	l-9.3-11.7C413.1,539.2,353.2,562.1,288,562.1z"/>
<path class="st1" d="M353.9,448.2h-39.6c-0.9,0-1.7,0.7-1.7,1.7v39.6c0,0.9,0.7,1.7,1.7,1.7h39.6c0.9,0,1.7-0.7,1.7-1.7V450
	C355.7,449,354.9,448.2,353.9,448.2L353.9,448.2z M316.5,452.1h7.3v35.3h-7.3V452.1z M351.8,487.4h-24.5v-24.5h24.5V487.4
	L351.8,487.4z M327.2,459.4v-7.3h24.5v7.3H327.2L327.2,459.4z"/>
<g>
	<path class="st0" d="M274.7,206.6L226,7.7c-86,18.9-157.6,76.2-195.9,153l185.3,88.2C227.4,226.9,249.1,210.9,274.7,206.6z"/>
	<path class="st3" d="M229.5,22.2L226,7.7c-86,18.9-157.6,76.2-195.9,153l13.5,6.4C80,94.3,147.9,40,229.5,22.2z"/>
	<path class="st3" d="M168.9,137.7c3.6-3.6,3.6-9.4,0-12.9c-3.6-3.6-9.4-3.6-12.9,0c-3.6,3.6-3.6,9.4,0,12.9
		C159.5,141.2,165.3,141.2,168.9,137.7z M172.1,121.6c4.8,4.8,5.3,12.3,1.5,17.6l3.4,3.4l-3.2,3.2l-3.4-3.4
		c-5.3,3.8-12.8,3.3-17.6-1.5c-5.3-5.3-5.3-14,0-19.3C158.1,116.2,166.7,116.2,172.1,121.6z M186.6,158.6l-9.7-9.7l3.2-3.2l9.7,9.7
		L186.6,158.6z M172.1,150.6c-0.9-0.9-0.9-2.3,0-3.2l6.5-6.5c0.9-0.9,2.3-0.9,3.2,0l12.9,12.9c0.9,0.9,0.9,2.3,0,3.2l-6.5,6.5
		c-0.9,0.9-2.3,0.9-3.2,0L172.1,150.6z"/>
</g>
<g>
	<path class="st0" d="M213.9,325l-185,89.9c38.2,78.4,111,136.9,198.5,155.7L272.1,370C246.5,364.8,225.1,347.9,213.9,325z"/>
</g>
<path class="st4" d="M42.3,408.4l-13.4,6.5c38.2,78.4,111,136.9,198.5,155.7l3.2-14.6C147.6,538.3,78.6,482.8,42.3,408.4z"/>
<path class="st4" d="M176.4,404.9h-13.7c-2.2,0-3.9,1.7-3.9,3.9v13.7c0,2.2,1.7,3.9,3.9,3.9h13.7c2.2,0,3.9-1.7,3.9-3.9v-13.7
	C180.4,406.6,178.6,404.9,176.4,404.9z M175.9,422h-12.6v-12.6h12.6V422z"/>
<path class="st4" d="M202.5,404.9h-13.7c-2.2,0-3.9,1.7-3.9,3.9v13.7c0,2.2,1.7,3.9,3.9,3.9h13.7c2.2,0,3.9-1.7,3.9-3.9v-13.7
	C206.4,406.6,204.7,404.9,202.5,404.9z M202,422h-12.6v-12.6H202V422z"/>
<path class="st4" d="M176.4,429.6h-13.7c-2.2,0-3.9,1.7-3.9,3.9v13.7c0,2.2,1.7,3.9,3.9,3.9h13.7c2.2,0,3.9-1.7,3.9-3.9v-13.7
	C180.4,431.4,178.6,429.6,176.4,429.6z M175.9,446.7h-12.6v-12.6h12.6V446.7z"/>
<path class="st4" d="M202.5,429.6h-13.7c-2.2,0-3.9,1.7-3.9,3.9v13.7c0,2.2,1.7,3.9,3.9,3.9h13.7c2.2,0,3.9-1.7,3.9-3.9v-13.7
	C206.4,431.4,204.7,429.6,202.5,429.6z M202,446.7h-12.6v-12.6H202V446.7z"/>
<g>
	<path class="st1" d="M484.4,192.5v38.8h-38.8v-38.8H484.4 M485.1,187.5h-40.2c-2.3,0-4.2,1.9-4.2,4.2V232c0,2.3,1.9,4.2,4.2,4.2
		h40.2c2.3,0,4.2-1.9,4.2-4.2v-40.2C489.4,189.4,487.5,187.5,485.1,187.5L485.1,187.5z"/>
	<path class="st1" d="M452.4,220.5l4.8-7.2c0.2-0.3,0.7-0.5,1.1-0.3l7.3,4l7.5-11.6c0.2-0.3,0.7-0.5,1.1-0.2l2.2,1.3
		c0.4,0.2,0.5,0.7,0.2,1.1l-9.2,14.5c-0.2,0.4-0.7,0.5-1.2,0.3l-7.2-3.9l-3.2,4.5c-0.2,0.3-0.6,0.4-1,0.2l-2.2-1.3
		C452.3,221.5,452.1,220.9,452.4,220.5z"/>
</g>
<path class="st0" d="M205.4,288.5c0-14.3,3.6-27.8,10-39.6L30.1,160.7C10.8,199.3,0,242.9,0,289c0,45.2,10.4,87.9,28.9,125.9
	l185-89.9C208.5,314,205.4,301.6,205.4,288.5z"/>
<path class="st5" d="M14.9,289c0-43.8,10.3-85.2,28.7-121.9l-13.5-6.4C10.8,199.3,0,242.9,0,289c0,45.2,10.4,87.9,28.9,125.9
	l13.4-6.5C24.8,372.3,14.9,331.8,14.9,289z"/>
<path class="st5" d="M116.1,265.1H103v5h12.4v38.8H76.6v-13.4h-5v14.2c0,2.3,1.9,4.2,4.2,4.2H116c2.3,0,4.2-1.9,4.2-4.2v-40.2
	C120.4,267,118.5,265.1,116.1,265.1z"/>
<path class="st5" d="M84.6,265.1c-7.2,0-12.9,5.8-12.9,12.9c0,7.2,5.8,12.9,12.9,12.9s12.9-5.8,12.9-12.9S91.7,265.1,84.6,265.1z
	 M84.4,286.1c-0.3,0.3-0.8,0.3-1.1,0l-5.6-5c-0.3-0.3-0.3-0.7-0.1-1.1l2-2.5c0.3-0.3,0.8-0.4,1.2,0l2.5,2.5c0.3,0.3,0.8,0.3,1.1,0
	l6.4-7.1c0.3-0.3,0.8-0.3,1.1,0l1.9,1.9c0.3,0.3,0.3,0.8,0,1.1L84.4,286.1z"/>
<g>
	<path class="st0" d="M371.6,289c-0.1,25.5-11.8,48.3-30,63.5l127.9,160.3C534.4,459.9,576,379.3,576,289H371.6z"/>
</g>
<path class="st4" d="M561.1,289c0,85.6-39.4,162-101,212l9.3,11.7C534.4,459.9,576,379.3,576,289H561.1L561.1,289z"/>
<path class="st4" d="M472.1,353.3l-10.7-10.7c-0.3-0.3-0.7-0.4-1.1-0.4H439c-0.9,0-1.6,0.7-1.6,1.6v41.5c0,0.9,0.7,1.6,1.6,1.6h32
	c0.9,0,1.6-0.7,1.6-1.6v-30.8C472.5,354,472.4,353.6,472.1,353.3L472.1,353.3z M468.9,355.2h-9.4v-9.4
	C459.5,345.8,468.9,355.2,468.9,355.2z M469,383.2h-28v-37.5h15.1v10.8c0,0.5,0.2,1.1,0.6,1.5s0.9,0.6,1.5,0.6H469V383.2L469,383.2z
	 M454.6,369.7h-9.2c-0.2,0-0.4,0.2-0.4,0.4v2.4c0,0.2,0.2,0.4,0.4,0.4h9.2c0.2,0,0.4-0.2,0.4-0.4v-2.4
	C455,369.9,454.8,369.7,454.6,369.7z M445,363.4v2.4c0,0.2,0.2,0.4,0.4,0.4h19.2c0.2,0,0.4-0.2,0.4-0.4v-2.4c0-0.2-0.2-0.4-0.4-0.4
	h-19.2C445.2,363,445,363.1,445,363.4z"/>
</svg>
