<svg xmlns="http://www.w3.org/2000/svg" width="280" height="399" fill="none" viewBox="0 0 280 399">
    <g clip-path="url(#clip0)">
        <path fill="#005D28" d="M0 0h280v399H0V0z"/>
        <path fill="#fff" fill-opacity=".2" fill-rule="evenodd" d="M214.421 96.056v48.027c26.451 0 47.894-21.502 47.894-48.027" clip-rule="evenodd"/>
        <path stroke="#fff" d="M214.421 96.056v48.027c26.451 0 47.894-21.502 47.894-48.027h-47.894z"/>
        <path fill-rule="evenodd" stroke="#fff" d="M214.421 350.726V399c-26.451 0-47.895-21.613-47.895-48.274M214.421 302.452v48.274c-26.451 0-47.895-21.613-47.895-48.274" clip-rule="evenodd"/>
        <path fill="#1A1A1A" fill-opacity=".2" fill-rule="evenodd" d="M214.421 302.452v-48.274c26.451 0 47.894 21.613 47.894 48.274" clip-rule="evenodd"/>
        <path stroke="#fff" d="M214.421 302.452v-48.274c26.451 0 47.894 21.613 47.894 48.274h-47.894z"/>
        <path fill="#fff" fill-opacity=".2" fill-rule="evenodd" stroke="#fff" d="M214.421 254.178h-47.895v48.274l47.895-48.274zM214.421 302.452h47.894v48.274l-47.894-48.274zM214.421 350.726h47.894V399l-47.894-48.274z" clip-rule="evenodd"/>
        <path fill-rule="evenodd" stroke="#fff" d="M262.316 206.15h-47.895v48.028l47.895-48.028v0zM262.316 96.056h47.895V48.028l-47.895 48.028v0z" clip-rule="evenodd"/>
        <path fill-rule="evenodd" stroke="#fff" d="M214.421 254.178c0-13.263-10.722-24.014-23.947-24.014-13.226 0-23.948 10.751-23.948 24.014h47.895zM262.316 48.028c0-13.263-10.722-24.014-23.948-24.014-13.225 0-23.947 10.751-23.947 24.014h47.895zM262.316 0c0 13.262-10.722 24.014-23.948 24.014-13.225 0-23.947-10.752-23.947-24.014h47.895zM310.21 302.206c0-13.263-10.721-24.014-23.947-24.014-13.226 0-23.948 10.751-23.948 24.014h47.895zM310.21 254.178c0 13.262-10.721 24.014-23.947 24.014-13.226 0-23.948-10.752-23.948-24.014h47.895zM262.316 144.083c0 13.263-10.722 24.014-23.948 24.014-13.225 0-23.947-10.751-23.947-24.014h47.895z" clip-rule="evenodd"/>
        <path fill="#fff" fill-opacity=".2" fill-rule="evenodd" stroke="#fff" d="M214.421 205.781c0-13.263-10.722-24.014-23.947-24.014-13.226 0-23.948 10.751-23.948 24.014 0 13.262 10.722 24.013 23.948 24.013 13.225 0 23.947-10.751 23.947-24.013z" clip-rule="evenodd"/>
        <path fill-rule="evenodd" stroke="#fff" d="M214.421 144.083h-47.895V96.056l47.895 48.027v0z" clip-rule="evenodd"/>
        <path fill="#1A1A1A" fill-opacity=".2" stroke="#fff" d="M214.421 96.056H262.316V144.084H214.421z" transform="rotate(180 214.421 96.056)"/>
        <path fill="#1A1A1A" fill-opacity=".2" stroke="#fff" d="M310.211 254.178H358.106V302.206H310.211z" transform="rotate(180 310.211 254.178)"/>
        <path fill="#1A1A1A" fill-opacity=".2" fill-rule="evenodd" stroke="#fff" d="M214.421 0h-47.895v48.028L214.421 0z" clip-rule="evenodd"/>
        <path fill="#fff" fill-opacity=".2" fill-rule="evenodd" stroke="#fff" d="M262.435 96.056c0 26.525 20.097 48.027 44.888 48.027 24.791 0 44.888-21.502 44.888-48.027h-89.776z" clip-rule="evenodd"/>
        <path fill="#1A1A1A" fill-opacity=".2" fill-rule="evenodd" stroke="#fff" d="M262.316 0c0 26.525 21.443 48.028 47.895 48.028 26.451 0 47.894-21.503 47.894-48.028h-95.789z" clip-rule="evenodd"/>
        <path fill="#fff" d="M23.631 53.644c-.046-.465-.243-.827-.593-1.085-.349-.258-.823-.387-1.421-.387-.407 0-.75.058-1.03.174-.28.111-.496.267-.645.467-.146.2-.22.427-.22.681-.007.212.037.397.133.554.1.158.236.295.409.41.173.112.372.21.599.295.226.08.468.15.725.207l1.06.254c.513.116.985.27 1.415.462.43.193.802.43 1.117.71.315.281.558.612.731.993.177.381.267.818.27 1.31-.003.724-.187 1.351-.552 1.882-.36.528-.883.937-1.566 1.23-.68.289-1.498.433-2.458.433-.952 0-1.78-.146-2.487-.439-.702-.292-1.25-.725-1.646-1.299-.392-.577-.597-1.29-.616-2.141h2.412c.027.396.14.727.34.993.203.261.474.46.811.594.342.131.728.196 1.157.196.422 0 .789-.061 1.1-.184.315-.123.558-.295.731-.514.173-.22.259-.471.259-.756 0-.266-.079-.489-.236-.67-.154-.18-.38-.335-.68-.462-.295-.127-.657-.242-1.087-.346l-1.284-.323c-.994-.243-1.779-.622-2.354-1.138-.576-.515-.862-1.21-.858-2.083-.004-.716.186-1.342.57-1.877.387-.534.919-.952 1.594-1.252.676-.3 1.443-.45 2.303-.45.875 0 1.639.15 2.291.45.656.3 1.167.718 1.531 1.252.365.535.553 1.155.564 1.86h-2.389zM30.034 59.515l.006-2.95h.357l2.832-3.365h2.815l-3.805 4.456h-.581l-1.624 1.859zm-2.222 2.551V50.245h2.453v11.822h-2.453zm5.527 0l-2.602-3.861 1.634-1.738 3.84 5.6h-2.872zM37.247 62.066V53.2H39.7v8.866h-2.453zm1.238-10.01c-.365 0-.678-.12-.938-.363-.261-.246-.392-.54-.392-.883 0-.339.13-.63.392-.872.26-.246.571-.37.932-.37.369 0 .681.124.938.37.261.243.392.533.392.872 0 .343-.13.637-.392.883-.257.243-.568.364-.932.364zM44.116 50.244v11.822h-2.452V50.245h2.452zM48.533 50.244v11.822h-2.452V50.245h2.452zM57.854 55.728l-2.245.139c-.038-.193-.12-.366-.247-.52-.127-.158-.294-.283-.501-.375-.203-.096-.447-.144-.731-.144-.38 0-.7.08-.962.242-.26.158-.391.37-.391.635 0 .212.084.39.253.537.17.146.459.264.87.352l1.6.323c.86.177 1.5.462 1.923.855.422.392.633.908.633 1.547 0 .58-.171 1.09-.512 1.53-.338.438-.803.78-1.394 1.027-.587.242-1.264.364-2.032.364-1.17 0-2.103-.245-2.797-.733-.691-.493-1.096-1.163-1.215-2.01l2.412-.126c.073.358.25.63.53.82.28.184.639.276 1.076.276.43 0 .775-.082 1.036-.248.265-.17.4-.386.403-.652-.004-.223-.098-.406-.282-.548-.184-.147-.468-.258-.852-.335l-1.531-.306c-.864-.173-1.506-.474-1.929-.9-.418-.428-.627-.972-.627-1.634 0-.57.154-1.06.46-1.472.311-.412.747-.73 1.307-.953.564-.223 1.224-.335 1.98-.335 1.117 0 1.996.237 2.637.71.645.474 1.02 1.118 1.128 1.934zM69.793 53.644c-.046-.465-.243-.827-.592-1.085-.35-.258-.824-.387-1.422-.387-.407 0-.75.058-1.03.174-.28.111-.496.267-.645.467-.146.2-.22.427-.22.681-.007.212.037.397.133.554.1.158.236.295.409.41.173.112.372.21.599.295.226.08.468.15.725.207l1.06.254c.513.116.985.27 1.415.462.43.193.802.43 1.117.71.315.281.558.612.731.993.177.381.267.818.27 1.31-.003.724-.187 1.351-.552 1.882-.36.528-.883.937-1.566 1.23-.68.289-1.498.433-2.458.433-.952 0-1.78-.146-2.487-.439-.702-.292-1.25-.725-1.646-1.299-.392-.577-.597-1.29-.616-2.141h2.412c.027.396.14.727.34.993.203.261.474.46.811.594.342.131.728.196 1.157.196.422 0 .789-.061 1.1-.184.315-.123.558-.295.731-.514.173-.22.259-.471.259-.756 0-.266-.079-.489-.236-.67-.153-.18-.38-.335-.68-.462-.295-.127-.657-.242-1.087-.346l-1.284-.323c-.994-.243-1.779-.622-2.354-1.138-.576-.515-.862-1.21-.858-2.083-.004-.716.186-1.342.57-1.877.387-.534.919-.952 1.594-1.252.676-.3 1.443-.45 2.303-.45.875 0 1.639.15 2.291.45.656.3 1.167.718 1.531 1.252.365.535.553 1.155.565 1.86h-2.39zM79.644 58.291V53.2h2.453v8.866h-2.355v-1.61h-.092c-.2.52-.531.937-.996 1.253-.46.315-1.022.473-1.686.473-.591 0-1.111-.135-1.56-.404-.45-.27-.8-.652-1.054-1.149-.25-.496-.376-1.09-.38-1.784V53.2h2.453v5.207c.003.523.143.937.42 1.24.276.305.646.457 1.11.457.296 0 .573-.068.83-.202.257-.139.464-.343.621-.612.162-.27.24-.602.236-.999zM84.058 65.391V53.2h2.418v1.49h.11c.107-.24.262-.482.466-.728.207-.25.476-.458.806-.624.334-.169.748-.254 1.243-.254.645 0 1.24.17 1.785.508.544.335.98.841 1.306 1.519.327.673.49 1.518.49 2.534 0 .989-.16 1.824-.478 2.505-.315.677-.745 1.191-1.29 1.541-.54.347-1.147.52-1.819.52-.476 0-.88-.08-1.214-.237-.33-.158-.601-.356-.812-.594-.211-.243-.372-.487-.484-.734h-.074v4.745h-2.453zm2.4-7.758c0 .527.074.987.22 1.38.145.392.356.698.633.918.276.215.612.323 1.007.323.4 0 .737-.11 1.013-.33.277-.222.486-.53.628-.923.146-.396.218-.852.218-1.368 0-.512-.07-.962-.213-1.35-.141-.39-.35-.693-.627-.913-.276-.22-.616-.329-1.019-.329-.399 0-.737.106-1.013.318-.273.211-.482.512-.628.9-.145.389-.218.847-.218 1.374zM94.317 65.391V53.2h2.417v1.49h.11c.107-.24.263-.482.466-.728.207-.25.476-.458.806-.624.334-.169.748-.254 1.243-.254.645 0 1.24.17 1.785.508.545.335.98.841 1.307 1.519.326.673.489 1.518.489 2.534 0 .989-.159 1.824-.478 2.505-.315.677-.744 1.191-1.289 1.541-.542.347-1.148.52-1.82.52-.475 0-.88-.08-1.214-.237-.33-.158-.6-.356-.812-.594-.21-.243-.372-.487-.483-.734h-.075v4.745h-2.453zm2.4-7.758c0 .527.073.987.219 1.38.146.392.357.698.633.918.276.215.612.323 1.007.323.4 0 .737-.11 1.014-.33.276-.222.485-.53.627-.923.146-.396.219-.852.219-1.368 0-.512-.071-.962-.213-1.35-.142-.39-.351-.693-.628-.913-.276-.22-.616-.329-1.019-.329-.399 0-.736.106-1.013.318-.272.211-.481.512-.627.9-.146.389-.219.847-.219 1.374zM107.027 50.244v11.822h-2.452V50.245h2.452zM110.505 65.374c-.31 0-.602-.025-.875-.075-.268-.046-.491-.104-.667-.173l.552-1.842c.434.135.799.17 1.094.104.299-.061.535-.292.708-.692l.144-.375-3.172-9.121h2.579l1.831 6.511h.092l1.848-6.511 2.596.011-3.437 9.814c-.165.473-.389.885-.673 1.235-.28.354-.635.627-1.065.82-.43.196-.948.294-1.555.294zM19.711 79.967c-.564 0-1.067-.098-1.508-.294-.441-.2-.79-.495-1.048-.883-.253-.393-.38-.882-.38-1.467 0-.492.09-.906.27-1.24.181-.335.427-.605.738-.809.31-.204.664-.358 1.059-.462.4-.104.817-.177 1.255-.22.514-.053.929-.103 1.243-.15.315-.05.543-.122.685-.218.142-.097.213-.24.213-.428v-.034c0-.366-.115-.649-.345-.849-.226-.2-.549-.3-.967-.3-.441 0-.793.098-1.054.294-.26.193-.433.435-.518.728l-2.268-.185c.115-.539.342-1.005.68-1.397.337-.396.773-.7 1.306-.912.538-.216 1.16-.323 1.865-.323.492 0 .962.057 1.41.173.454.115.855.294 1.204.537.353.242.631.554.835.935.203.377.305.83.305 1.356v5.98h-2.326V78.57h-.07c-.141.277-.331.522-.569.733-.238.208-.524.372-.858.491-.334.115-.72.173-1.157.173zm.703-1.697c.36 0 .679-.071.955-.213.276-.147.493-.343.65-.59.158-.246.237-.525.237-.836v-.941c-.077.05-.183.096-.317.138-.13.039-.278.075-.443.11-.165.03-.33.06-.495.087l-.45.063c-.287.042-.538.11-.753.202-.215.092-.382.217-.501.375-.12.154-.179.347-.179.578 0 .334.121.59.363.767.246.173.556.26.932.26zM29.046 74.674V79.8h-2.453v-8.867h2.337v1.564h.104c.196-.515.524-.923.984-1.223.46-.304 1.02-.456 1.676-.456.614 0 1.149.134 1.606.404.456.27.811.654 1.065 1.154.253.497.38 1.09.38 1.778V79.8h-2.453v-5.207c.004-.543-.134-.966-.414-1.27-.28-.308-.666-.462-1.157-.462-.33 0-.622.071-.875.214-.25.142-.445.35-.587.623-.139.27-.21.595-.213.976zM39.935 79.944c-.671 0-1.28-.173-1.824-.52-.541-.35-.971-.863-1.29-1.54-.314-.682-.472-1.517-.472-2.506 0-1.016.163-1.86.49-2.534.326-.677.76-1.183 1.3-1.518.545-.339 1.142-.508 1.79-.508.496 0 .908.084 1.238.254.334.165.603.373.806.623.208.246.365.489.472.728h.075v-4.445h2.447V79.8h-2.418v-1.42h-.104c-.115.246-.278.49-.489.733-.207.239-.478.437-.812.594-.33.158-.733.237-1.209.237zm.778-1.957c.395 0 .729-.108 1.001-.323.277-.22.488-.525.634-.918.15-.392.224-.852.224-1.38 0-.527-.073-.985-.219-1.373-.145-.39-.357-.69-.633-.9-.276-.213-.612-.318-1.007-.318-.403 0-.743.11-1.02.329-.276.219-.485.523-.627.912-.142.388-.213.839-.213 1.35 0 .516.071.972.213 1.369.146.392.355.7.628.923.276.22.616.33 1.019.33zM54.96 79.8h-4.18V67.978h4.215c1.186 0 2.206.236 3.062.71.856.47 1.514 1.144 1.975 2.026.464.881.696 1.936.696 3.163 0 1.232-.232 2.29-.696 3.175-.46.885-1.123 1.564-1.986 2.038-.86.473-1.888.71-3.086.71zm-1.687-2.142h1.584c.736 0 1.356-.13 1.859-.392.506-.266.886-.676 1.14-1.23.257-.558.386-1.278.386-2.159 0-.873-.13-1.587-.386-2.141-.254-.555-.632-.963-1.134-1.224-.503-.262-1.123-.393-1.86-.393h-1.589v7.54zM66.558 79.973c-.91 0-1.692-.185-2.348-.554-.653-.373-1.156-.9-1.509-1.582-.353-.685-.53-1.495-.53-2.43 0-.912.177-1.713.53-2.401.353-.69.85-1.226 1.491-1.611.645-.385 1.401-.577 2.268-.577.584 0 1.127.094 1.63.282.506.185.947.464 1.323.838.38.373.676.842.887 1.408.211.562.317 1.22.317 1.974v.676H63.15v-1.524h5.158c0-.354-.077-.668-.23-.941-.154-.274-.367-.487-.639-.641-.269-.158-.581-.237-.938-.237-.373 0-.703.087-.99.26-.284.17-.507.398-.668.687-.161.285-.244.602-.248.953V76c0 .44.08.818.242 1.138.165.32.397.565.697.739.299.173.654.26 1.065.26.272 0 .522-.04.748-.116.226-.077.42-.193.581-.347.162-.153.284-.342.369-.565l2.268.15c-.115.546-.351 1.023-.708 1.431-.353.404-.81.72-1.37.947-.557.223-1.2.335-1.929.335zM72.217 79.8v-8.867h2.337v1.564h.104c.184-.519.491-.929.92-1.23.43-.3.945-.45 1.544-.45.606 0 1.122.153 1.548.457.426.3.71.708.852 1.224h.092c.18-.508.507-.915.979-1.219.476-.307 1.038-.461 1.686-.461.826 0 1.495.263 2.01.79.518.524.777 1.267.777 2.229V79.8h-2.447v-5.478c0-.493-.13-.862-.391-1.109-.261-.246-.587-.37-.979-.37-.445 0-.792.143-1.042.428-.25.281-.374.652-.374 1.114V79.8h-2.377v-5.53c0-.435-.125-.781-.375-1.04-.245-.257-.57-.386-.973-.386-.272 0-.518.07-.736.208-.215.134-.386.325-.513.571-.126.243-.19.527-.19.855V79.8h-2.452zM89.524 79.967c-.564 0-1.067-.098-1.508-.294-.441-.2-.79-.495-1.048-.883-.253-.393-.38-.882-.38-1.467 0-.492.09-.906.27-1.24.181-.335.427-.605.738-.809.31-.204.664-.358 1.059-.462.399-.104.817-.177 1.255-.22.514-.053.929-.103 1.243-.15.315-.05.543-.122.685-.218.142-.097.213-.24.213-.428v-.034c0-.366-.115-.649-.345-.849-.227-.2-.549-.3-.967-.3-.442 0-.793.098-1.054.294-.26.193-.433.435-.518.728L86.9 73.45c.115-.539.342-1.005.68-1.397.337-.396.773-.7 1.306-.912.537-.216 1.16-.323 1.865-.323.492 0 .962.057 1.41.173.454.115.855.294 1.204.537.353.242.631.554.834.935.204.377.306.83.306 1.356v5.98h-2.326V78.57h-.07c-.141.277-.331.522-.569.733-.238.208-.524.372-.858.491-.334.115-.72.173-1.157.173zm.703-1.697c.36 0 .679-.071.955-.213.276-.147.493-.343.65-.59.158-.246.237-.525.237-.836v-.941c-.077.05-.183.096-.317.138-.13.039-.278.075-.443.11-.165.03-.33.06-.495.087l-.45.063c-.287.042-.539.11-.754.202-.214.092-.381.217-.5.375-.12.154-.179.347-.179.578 0 .334.121.59.363.767.246.173.556.26.933.26zM98.858 74.674V79.8h-2.452v-8.867h2.337v1.564h.104c.196-.515.524-.923.984-1.223.461-.304 1.019-.456 1.675-.456.615 0 1.15.134 1.607.404.456.27.811.654 1.065 1.154.253.497.379 1.09.379 1.778V79.8h-2.452v-5.207c.004-.543-.134-.966-.414-1.27-.28-.308-.666-.462-1.157-.462-.33 0-.622.071-.875.214-.25.142-.446.35-.588.623-.138.27-.209.595-.213.976zM109.748 79.944c-.671 0-1.279-.173-1.824-.52-.542-.35-.971-.863-1.29-1.54-.315-.682-.472-1.517-.472-2.506 0-1.016.163-1.86.489-2.534.327-.677.76-1.183 1.301-1.518.545-.339 1.142-.508 1.791-.508.495 0 .907.084 1.237.254.334.165.603.373.806.623.208.246.365.489.472.728h.075v-4.445h2.447V79.8h-2.418v-1.42h-.104c-.115.246-.278.49-.489.733-.207.239-.478.437-.812.594-.33.158-.733.237-1.209.237zm.778-1.957c.395 0 .729-.108 1.001-.323.277-.22.488-.525.633-.918.15-.392.225-.852.225-1.38 0-.527-.073-.985-.219-1.373-.146-.39-.357-.69-.633-.9-.276-.213-.612-.318-1.007-.318-.403 0-.743.11-1.019.329-.277.219-.486.523-.628.912-.142.388-.213.839-.213 1.35 0 .516.071.972.213 1.369.146.392.355.7.628.923.276.22.616.33 1.019.33zM120.548 79.8v-8.867H123V79.8h-2.452zm1.237-10.01c-.364 0-.677-.121-.938-.364-.261-.246-.391-.54-.391-.883 0-.338.13-.629.391-.871.261-.247.572-.37.933-.37.368 0 .681.123.938.37.261.242.391.533.391.871 0 .343-.13.637-.391.883-.257.243-.568.364-.933.364zM127.417 74.674V79.8h-2.452v-8.867h2.337v1.564h.103c.196-.515.524-.923.985-1.223.46-.304 1.019-.456 1.675-.456.614 0 1.149.134 1.606.404.457.27.812.654 1.065 1.154.253.497.38 1.09.38 1.778V79.8h-2.452v-5.207c.003-.543-.135-.966-.415-1.27-.28-.308-.666-.462-1.157-.462-.33 0-.622.071-.875.214-.249.142-.445.35-.587.623-.138.27-.209.595-.213.976zM23.631 89.111c-.046-.466-.243-.827-.593-1.085-.349-.258-.823-.387-1.421-.387-.407 0-.75.058-1.03.173-.28.112-.496.268-.645.468-.146.2-.22.427-.22.68-.007.213.037.397.133.555.1.158.236.294.409.41.173.112.372.21.599.294.226.081.468.15.725.208l1.06.254c.513.115.985.27 1.415.462.43.192.802.429 1.117.71.315.28.558.612.731.993.177.38.267.818.27 1.31-.003.724-.187 1.351-.552 1.882-.36.527-.883.937-1.566 1.23-.68.288-1.498.433-2.458.433-.952 0-1.78-.147-2.487-.44-.702-.292-1.25-.725-1.646-1.298-.392-.577-.597-1.291-.616-2.142h2.412c.027.397.14.728.34.993.203.262.474.46.811.595.342.13.728.196 1.157.196.422 0 .789-.062 1.1-.185.315-.123.558-.294.731-.513.173-.22.259-.472.259-.757 0-.265-.079-.488-.236-.67-.154-.18-.38-.334-.68-.461-.295-.127-.657-.243-1.087-.346l-1.284-.324c-.994-.242-1.779-.621-2.354-1.137-.576-.516-.862-1.21-.858-2.084-.004-.716.186-1.34.57-1.876.387-.535.919-.952 1.594-1.252.676-.3 1.443-.45 2.303-.45.875 0 1.639.15 2.291.45.656.3 1.167.717 1.531 1.252.365.535.553 1.155.564 1.859h-2.389zM31.807 97.706c-.894 0-1.667-.19-2.32-.571-.648-.385-1.149-.92-1.502-1.605-.353-.689-.53-1.487-.53-2.396 0-.915.177-1.716.53-2.401.353-.689.854-1.224 1.502-1.605.653-.385 1.426-.577 2.32-.577.894 0 1.666.192 2.314.577.653.381 1.156.916 1.509 1.605.353.685.53 1.486.53 2.401 0 .909-.177 1.707-.53 2.396-.353.685-.856 1.22-1.509 1.605-.648.38-1.42.571-2.314.571zm.012-1.905c.407 0 .746-.115 1.019-.346.272-.235.477-.554.616-.958.142-.404.213-.864.213-1.38 0-.516-.071-.976-.213-1.38-.139-.404-.344-.723-.616-.958-.273-.234-.612-.352-1.02-.352-.41 0-.755.117-1.035.352-.277.235-.486.554-.628.959-.138.403-.207.863-.207 1.38 0 .515.069.975.207 1.379.142.404.351.723.628.958.28.23.625.346 1.036.346zM43.424 93.758v-5.091h2.452v8.866h-2.354v-1.61h-.092c-.2.52-.532.937-.996 1.252-.46.316-1.023.474-1.687.474-.59 0-1.11-.135-1.56-.404-.449-.27-.8-.653-1.053-1.15-.25-.496-.376-1.09-.38-1.783v-5.645h2.452v5.206c.004.524.144.937.42 1.241.277.304.647.456 1.111.456.296 0 .572-.067.83-.202.256-.138.464-.342.621-.611.161-.27.24-.603.236-1zM52.541 88.666v1.848h-5.325v-1.847h5.325zm-4.116-2.124h2.452v8.266c0 .227.035.405.104.532.07.123.165.21.288.26.127.05.272.074.437.074.115 0 .23-.01.346-.029l.264-.051.386 1.83c-.123.038-.295.082-.518.132-.222.054-.493.087-.812.098-.59.023-1.109-.055-1.554-.236-.441-.181-.785-.462-1.03-.843-.246-.381-.367-.862-.363-1.443v-8.59zM56.78 92.407v5.126h-2.452V85.711h2.384v4.52h.103c.2-.524.522-.933.967-1.23.446-.3 1.004-.45 1.676-.45.614 0 1.149.135 1.606.404.46.266.817.648 1.07 1.149.258.496.384 1.09.38 1.784v5.645h-2.452v-5.207c.004-.546-.134-.971-.414-1.275-.277-.305-.664-.457-1.163-.457-.334 0-.63.072-.887.214-.253.142-.453.35-.599.623-.142.27-.214.595-.218.976zM70.274 97.533h-2.67l4.069-11.822h3.212l4.064 11.822h-2.67l-2.954-9.12h-.092l-2.959 9.12zm-.167-4.647h6.31v1.951h-6.31v-1.95zM84.903 88.666v1.848h-5.457v-1.847h5.457zm-4.208 8.867v-9.507c0-.643.125-1.176.374-1.6.254-.423.599-.74 1.036-.952.438-.211.935-.317 1.491-.317.376 0 .72.029 1.03.086.315.058.55.11.703.156l-.438 1.847c-.095-.03-.214-.06-.356-.086-.138-.027-.28-.04-.426-.04-.361 0-.612.084-.754.253-.142.166-.214.399-.214.699v9.461h-2.446zM86.401 97.533v-8.867h2.378v1.547h.092c.161-.55.431-.965.812-1.246.38-.285.817-.427 1.312-.427.123 0 .255.007.397.023.142.015.267.036.374.063v2.182c-.115-.035-.274-.065-.478-.092-.203-.027-.389-.04-.558-.04-.36 0-.683.078-.967.236-.28.154-.503.37-.668.646-.16.278-.242.597-.242.959v5.016h-2.452zM93.034 97.533v-8.867h2.453v8.867h-2.453zm1.238-10.01c-.365 0-.678-.12-.938-.363-.261-.246-.392-.54-.392-.883 0-.339.13-.63.392-.872.26-.246.571-.37.932-.37.369 0 .681.124.938.37.261.242.392.533.392.872 0 .342-.13.636-.392.883-.257.242-.567.364-.932.364zM101.446 97.706c-.906 0-1.685-.192-2.337-.577-.649-.389-1.148-.927-1.497-1.616-.345-.69-.518-1.482-.518-2.379 0-.908.175-1.704.524-2.39.353-.688.854-1.225 1.502-1.61.649-.389 1.42-.583 2.315-.583.771 0 1.446.14 2.026.421.579.281 1.038.676 1.376 1.184.337.508.523 1.104.558 1.79h-2.314c-.065-.443-.238-.8-.518-1.069-.277-.273-.639-.41-1.088-.41-.38 0-.712.104-.996.312-.28.204-.499.502-.656.895-.158.392-.236.868-.236 1.426 0 .566.076 1.047.23 1.443.157.396.378.698.662.906.284.208.616.312.996.312.28 0 .531-.058.754-.173.226-.116.412-.283.558-.502.15-.224.248-.491.294-.803h2.314c-.038.677-.223 1.274-.553 1.79-.326.512-.777.912-1.352 1.2-.576.289-1.257.433-2.044.433zM109.487 97.7c-.565 0-1.067-.098-1.509-.294-.441-.2-.79-.494-1.047-.883-.254-.393-.38-.881-.38-1.466 0-.493.09-.907.27-1.241.181-.335.426-.605.737-.809.311-.204.664-.358 1.059-.461.399-.104.818-.177 1.255-.22.514-.054.929-.104 1.244-.15.314-.05.543-.123.685-.22.142-.095.213-.238.213-.426v-.035c0-.366-.115-.648-.346-.849-.226-.2-.549-.3-.967-.3-.441 0-.792.098-1.053.295-.261.192-.434.434-.518.727l-2.268-.185c.115-.539.341-1.004.679-1.397.338-.396.773-.7 1.307-.912.537-.215 1.159-.323 1.865-.323.491 0 .961.058 1.41.173.453.116.854.295 1.203.537.353.243.631.554.835.935.203.377.305.83.305 1.357v5.98h-2.326v-1.23h-.069c-.142.278-.332.522-.57.734-.238.207-.524.371-.857.49-.334.116-.72.174-1.157.174zm.702-1.697c.361 0 .679-.07.955-.213.277-.146.494-.343.651-.589.157-.246.236-.525.236-.837v-.94c-.077.05-.182.095-.317.138-.13.038-.278.075-.443.11-.165.03-.33.059-.495.086l-.449.063c-.288.043-.539.11-.754.202-.215.093-.382.218-.501.376-.119.154-.178.346-.178.577 0 .335.12.59.362.768.246.173.557.26.933.26z"/>
        <path fill="#fff" fill-rule="evenodd" d="M57.474 0H16.211v28.078h41.263V0zM22.757 20.2v1.228h5.73v-1.393h-3.375v-.055l1.174-1.154c.552-.503.98-.935 1.283-1.295.304-.362.515-.691.632-.987.12-.297.18-.597.18-.902 0-.464-.118-.876-.356-1.236s-.572-.64-1.001-.842c-.427-.205-.928-.307-1.504-.307-.56 0-1.054.106-1.483.319-.43.212-.763.513-1.001.901-.238.389-.357.846-.357 1.374h1.613c0-.257.05-.48.15-.665.099-.187.24-.33.423-.43.183-.1.398-.149.644-.149.235 0 .446.047.632.142.185.092.332.224.44.397.107.17.16.374.16.61 0 .213-.043.411-.13.595-.086.18-.213.366-.38.555-.165.189-.37.401-.612.637L22.757 20.2zm8.371.905c.487.33 1.068.497 1.743.5.675 0 1.255-.165 1.739-.496.484-.33.855-.81 1.114-1.437.262-.627.393-1.382.393-2.267.002-.879-.127-1.626-.389-2.243-.261-.62-.636-1.092-1.122-1.417-.484-.325-1.063-.488-1.735-.488-.673 0-1.252.163-1.739.488-.484.323-.857.794-1.119 1.413-.259.62-.388 1.368-.388 2.247-.003.882.126 1.636.385 2.264.261.627.634 1.105 1.118 1.436zm2.846-1.61c-.275.465-.643.697-1.103.697-.306 0-.573-.102-.8-.307-.228-.207-.405-.517-.53-.929-.124-.414-.185-.931-.185-1.55.002-.916.141-1.604.416-2.063.275-.46.641-.689 1.099-.689.306 0 .572.103.797.307.227.205.403.51.526.917.125.407.188.916.188 1.527.003.93-.133 1.626-.408 2.09zm3.355 1.933V20.2l2.86-2.657c.244-.236.448-.448.613-.637.168-.19.295-.374.38-.555.087-.184.13-.382.13-.595 0-.236-.053-.44-.16-.61-.108-.173-.254-.305-.44-.397-.186-.095-.397-.142-.632-.142-.246 0-.46.05-.644.15-.183.1-.324.242-.423.429-.1.186-.15.408-.15.665H37.25c0-.528.12-.986.357-1.374.238-.388.572-.689 1.001-.901.43-.213.924-.319 1.484-.319.575 0 1.077.102 1.503.307.43.202.763.483 1 .842.239.36.358.772.358 1.236 0 .305-.06.605-.18.902-.118.296-.329.625-.632.987-.304.36-.732.792-1.284 1.295l-1.173 1.154v.055h3.375v1.393h-5.73zm8.37-.323c.487.33 1.068.497 1.743.5.675 0 1.255-.165 1.739-.496.484-.33.856-.81 1.115-1.437.261-.627.392-1.382.392-2.267.003-.879-.127-1.626-.388-2.243-.262-.62-.636-1.092-1.123-1.417-.484-.325-1.062-.488-1.735-.488-.672 0-1.252.163-1.739.488-.484.323-.857.794-1.118 1.413-.26.62-.389 1.368-.389 2.247-.002.882.126 1.636.385 2.264.262.627.634 1.105 1.119 1.436zm2.846-1.61c-.275.465-.642.697-1.103.697-.306 0-.573-.102-.8-.307-.228-.207-.405-.517-.53-.929-.123-.414-.185-.931-.185-1.55.003-.916.142-1.604.416-2.063.275-.46.641-.689 1.1-.689.305 0 .571.103.796.307.228.205.403.51.526.917.126.407.188.916.188 1.527.003.93-.133 1.626-.408 2.09z" clip-rule="evenodd"/>
        <path fill="#fff" d="M16.845 125.611v-6.448h1.165v5.469h2.832v.979h-3.997zM23.633 125.709c-.306 0-.581-.055-.826-.164-.243-.111-.435-.275-.578-.491-.14-.216-.21-.483-.21-.8 0-.273.05-.499.15-.677.1-.178.238-.321.412-.428.174-.107.37-.188.587-.243.22-.056.447-.097.681-.122.283-.03.512-.056.688-.079.176-.025.303-.063.383-.113.082-.053.122-.134.122-.243v-.019c0-.237-.07-.421-.21-.551-.14-.13-.342-.195-.606-.195-.278 0-.5.061-.662.183-.162.121-.27.265-.327.431l-1.061-.151c.084-.294.222-.54.414-.737.193-.199.428-.348.707-.447.278-.101.586-.151.923-.151.232 0 .463.027.694.082.23.054.44.144.63.27.191.124.344.293.46.507.117.214.175.482.175.803v3.237h-1.092v-.664h-.038c-.07.134-.167.26-.292.378-.124.115-.28.208-.468.28-.186.069-.405.104-.656.104zm.295-.838c.228 0 .426-.045.593-.135.168-.093.296-.214.386-.365.093-.152.139-.316.139-.495v-.57c-.036.03-.097.057-.183.082-.083.025-.177.047-.282.066-.105.019-.208.036-.31.051l-.268.037c-.17.023-.321.061-.455.114-.134.052-.24.126-.317.22-.078.093-.116.212-.116.359 0 .21.076.369.229.476.153.107.347.16.584.16zM27.814 125.611v-6.448h1.137v2.411h.047c.059-.117.142-.242.248-.374.107-.135.252-.249.434-.343.182-.097.414-.145.697-.145.372 0 .708.095 1.008.286.301.189.54.469.715.841.178.369.267.823.267 1.36 0 .531-.086.983-.26 1.354-.174.372-.41.655-.71.85-.3.195-.638.293-1.017.293-.276 0-.506-.046-.688-.138-.182-.093-.329-.204-.44-.334-.108-.132-.193-.257-.254-.375h-.066v.762h-1.117zm1.115-2.418c0 .313.044.587.132.822.09.235.219.418.386.551.17.13.375.195.616.195.25 0 .461-.067.63-.202.17-.136.298-.322.384-.557.088-.237.132-.507.132-.809 0-.3-.043-.567-.129-.8-.086-.233-.213-.415-.383-.548-.17-.132-.381-.198-.634-.198-.243 0-.45.064-.619.192-.17.128-.298.307-.386.538-.086.231-.129.503-.129.816zM35.88 125.706c-.471 0-.88-.104-1.225-.312-.345-.208-.613-.499-.804-.872-.188-.374-.282-.811-.282-1.31 0-.5.094-.937.282-1.313.19-.376.459-.668.804-.876.345-.207.754-.311 1.225-.311.47 0 .879.104 1.224.311.346.208.613.5.8.876.191.376.287.813.287 1.313 0 .499-.096.936-.286 1.31-.188.373-.455.664-.8.872-.346.208-.754.312-1.225.312zm.006-.914c.255 0 .469-.07.64-.211.172-.142.3-.333.383-.573.086-.239.13-.505.13-.799 0-.296-.044-.564-.13-.803-.083-.242-.21-.434-.383-.576-.171-.143-.385-.215-.64-.215-.262 0-.48.072-.653.215-.172.142-.3.334-.386.576-.084.239-.126.507-.126.803 0 .294.042.56.126.799.085.24.214.431.386.573.174.141.391.211.653.211zM42.672 123.577v-2.802h1.136v4.836h-1.102v-.86h-.05c-.11.271-.288.493-.537.665-.247.172-.552.258-.914.258-.316 0-.595-.07-.838-.211-.241-.143-.43-.349-.566-.62-.136-.273-.204-.603-.204-.989v-3.079h1.137v2.903c0 .306.084.55.251.73.168.181.388.271.66.271.167 0 .33-.041.486-.123.157-.082.286-.203.387-.365.102-.164.154-.368.154-.614zM45.42 125.611v-4.836h1.101v.806h.05c.088-.279.24-.495.453-.646.215-.153.461-.23.737-.23.063 0 .133.004.21.01.08.004.146.011.199.022v1.048c-.049-.016-.125-.031-.23-.044-.102-.014-.201-.022-.298-.022-.207 0-.393.045-.559.136-.163.088-.292.211-.386.368-.094.158-.141.339-.141.545v2.843h-1.137zM52.053 119.163h1.425l1.91 4.672h.075l1.909-4.672h1.425v6.448H57.68v-4.43h-.06l-1.776 4.411h-.836l-1.777-4.421h-.06v4.44h-1.117v-6.448zM61.845 125.709c-.305 0-.58-.055-.825-.164-.243-.111-.436-.275-.578-.491-.14-.216-.21-.483-.21-.8 0-.273.05-.499.15-.677.1-.178.238-.321.412-.428.173-.107.369-.188.587-.243.22-.056.447-.097.681-.122.283-.03.512-.056.688-.079.176-.025.303-.063.383-.113.081-.053.122-.134.122-.243v-.019c0-.237-.07-.421-.21-.551-.14-.13-.342-.195-.606-.195-.279 0-.5.061-.663.183-.16.121-.27.265-.326.431l-1.062-.151c.084-.294.222-.54.415-.737.193-.199.428-.348.706-.447.279-.101.587-.151.924-.151.232 0 .463.027.694.082.23.054.44.144.63.27.191.124.344.293.46.507.116.214.175.482.175.803v3.237h-1.093v-.664h-.038c-.069.134-.166.26-.292.378-.123.115-.279.208-.467.28-.187.069-.405.104-.657.104zm.296-.838c.228 0 .426-.045.593-.135.167-.093.296-.214.386-.365.092-.152.138-.316.138-.495v-.57c-.035.03-.096.057-.182.082-.084.025-.178.047-.282.066-.105.019-.209.036-.311.051l-.267.037c-.17.023-.321.061-.455.114-.134.052-.24.126-.318.22-.077.093-.116.212-.116.359 0 .21.077.369.23.476.152.107.347.16.584.16zM65.977 125.611v-4.836h1.102v.806h.05c.088-.279.239-.495.453-.646.215-.153.461-.23.737-.23.063 0 .133.004.21.01.08.004.146.011.199.022v1.048c-.049-.016-.125-.031-.23-.044-.102-.014-.202-.022-.298-.022-.207 0-.394.045-.559.136-.163.088-.292.211-.386.368-.094.158-.141.339-.141.545v2.843h-1.137zM70.961 124.093l-.003-1.376h.182l1.733-1.942h1.328l-2.132 2.38h-.235l-.873.938zm-1.036 1.518v-6.448h1.136v6.448h-1.136zm3.027 0l-1.57-2.201.766-.803 2.163 3.004h-1.36zM77.338 125.706c-.484 0-.901-.101-1.253-.303-.35-.203-.619-.491-.807-.862-.189-.374-.283-.814-.283-1.32 0-.497.094-.934.283-1.31.19-.377.456-.671.797-.881.342-.212.742-.318 1.203-.318.297 0 .578.048.841.145.266.094.5.241.704.44.205.2.366.454.483.762.118.307.176.672.176 1.096v.35H75.53v-.769h2.864c-.002-.218-.05-.412-.142-.582-.092-.172-.22-.308-.386-.406-.163-.099-.354-.148-.571-.148-.233 0-.437.056-.613.17-.175.111-.313.258-.411.441-.096.18-.145.378-.147.595v.67c0 .282.05.523.153.724.103.2.246.353.43.46.185.105.4.158.647.158.166 0 .315-.023.45-.07.133-.048.25-.118.348-.211.098-.092.173-.206.223-.343l1.061.12c-.067.281-.195.527-.383.737-.186.207-.425.369-.716.485-.29.113-.624.17-.998.17zM83.294 120.775v.881h-2.772v-.881h2.772zm-2.088-1.159h1.137v4.54c0 .154.023.271.069.353.048.08.11.134.188.164.078.029.164.044.258.044.071 0 .136-.005.194-.016.061-.01.107-.02.139-.028l.191.891c-.06.021-.147.044-.26.069-.111.025-.247.04-.409.044-.284.009-.54-.034-.769-.129-.228-.096-.41-.245-.543-.447-.132-.202-.197-.453-.195-.756v-4.729zM18.01 132.463v6.448h-1.165v-6.448h1.165zM20.8 136.077v2.834h-1.137v-4.836h1.086v.822h.057c.11-.271.288-.486.53-.646.245-.159.548-.239.908-.239.333 0 .623.071.87.214.249.143.441.349.578.62.138.271.206.599.204.986v3.079h-1.137v-2.903c0-.323-.084-.576-.251-.759-.166-.182-.395-.274-.688-.274-.199 0-.376.044-.53.132-.153.087-.274.211-.362.375-.085.164-.128.362-.128.595zM27.902 134.075v.881h-2.773v-.881h2.773zm-2.088-1.159h1.136v4.54c0 .154.023.271.07.353.047.08.11.134.188.164.077.029.163.044.257.044.071 0 .136-.005.195-.016.06-.01.107-.02.138-.028l.192.891c-.061.021-.148.044-.261.069-.111.025-.247.04-.408.044-.285.009-.541-.034-.77-.129-.228-.096-.409-.245-.543-.447-.132-.202-.197-.453-.194-.756v-4.729zM31.378 139.006c-.484 0-.901-.101-1.253-.303-.35-.203-.619-.491-.807-.862-.189-.374-.283-.814-.283-1.32 0-.497.095-.934.283-1.31.19-.377.456-.671.797-.881.342-.212.743-.318 1.203-.318.297 0 .578.048.841.145.266.094.5.241.704.44.205.2.366.454.483.762.118.307.176.672.176 1.096v.35H29.57v-.769h2.864c-.002-.218-.05-.412-.142-.582-.092-.172-.22-.308-.386-.406-.163-.099-.354-.148-.571-.148-.233 0-.437.056-.613.17-.175.111-.313.258-.41.441-.097.18-.146.378-.148.595v.67c0 .282.05.523.153.724.103.2.246.353.43.46.185.105.4.158.647.158.166 0 .315-.023.45-.07.133-.048.25-.118.348-.211.098-.092.173-.206.223-.343l1.061.12c-.067.281-.194.527-.383.737-.186.207-.425.369-.716.485-.29.113-.624.17-.998.17zM36.063 132.463v6.448h-1.137v-6.448h1.137zM38.81 132.463v6.448h-1.136v-6.448h1.136zM40.421 138.911v-4.836h1.137v4.836H40.42zm.572-5.523c-.182 0-.338-.06-.468-.179-.128-.122-.192-.268-.192-.438 0-.172.065-.318.195-.437.13-.122.285-.183.465-.183.18 0 .334.061.461.183.13.119.195.265.195.437 0 .17-.065.316-.195.438-.127.119-.281.179-.461.179zM45.266 140.807c-.408 0-.758-.055-1.052-.164-.293-.109-.528-.255-.706-.438-.178-.182-.302-.383-.37-.601l1.023-.249c.046.086.113.174.201.265.088.092.206.169.355.229.15.063.34.095.568.095.323 0 .59-.078.8-.233.212-.155.318-.406.318-.753v-.916h-.056c-.06.118-.145.238-.258.362-.111.124-.258.228-.443.312-.182.084-.411.126-.687.126-.37 0-.707-.087-1.008-.262-.3-.176-.538-.438-.716-.787-.176-.35-.264-.789-.264-1.316 0-.531.088-.979.264-1.344.178-.368.417-.646.719-.835.301-.191.637-.286 1.008-.286.282 0 .515.048.697.145.184.094.33.208.44.343.108.132.19.257.248.374h.062v-.799h1.121v4.915c0 .405-.098.742-.295 1.011-.197.27-.466.472-.807.604-.341.134-.728.202-1.162.202zm.01-2.859c.24 0 .446-.059.615-.177.17-.117.299-.286.386-.507.088-.22.132-.485.132-.793 0-.305-.044-.571-.132-.8-.085-.229-.213-.406-.383-.532-.167-.128-.373-.192-.618-.192-.254 0-.465.066-.635.198-.17.133-.297.314-.383.545-.085.229-.128.489-.128.781 0 .296.043.555.128.778.088.22.217.392.387.516.171.122.382.183.63.183zM51.272 139.006c-.483 0-.9-.101-1.252-.303-.35-.203-.619-.491-.807-.862-.189-.374-.283-.814-.283-1.32 0-.497.094-.934.283-1.31.19-.377.456-.671.797-.881.341-.212.742-.318 1.203-.318.297 0 .578.048.841.145.266.094.5.241.704.44.205.2.366.454.483.762.117.307.176.672.176 1.096v.35h-3.953v-.769h2.863c-.002-.218-.049-.412-.14-.582-.093-.172-.222-.308-.387-.406-.163-.099-.354-.148-.572-.148-.232 0-.436.056-.612.17-.176.111-.313.258-.411.441-.096.18-.146.378-.148.595v.67c0 .282.051.523.154.724.103.2.246.353.43.46.184.105.4.158.647.158.166 0 .315-.023.45-.07.133-.048.25-.118.348-.211.098-.092.172-.206.223-.343l1.06.12c-.066.281-.194.527-.382.737-.187.207-.425.369-.716.485-.291.113-.624.17-.999.17zM55.957 136.077v2.834h-1.136v-4.836h1.086v.822h.057c.11-.271.288-.486.53-.646.245-.159.548-.239.908-.239.333 0 .623.071.87.214.249.143.441.349.577.62.138.271.207.599.204.986v3.079h-1.136v-2.903c0-.323-.084-.576-.252-.759-.165-.182-.394-.274-.687-.274-.199 0-.376.044-.53.132-.154.087-.274.211-.362.375-.086.164-.129.362-.129.595zM62.755 139.006c-.482 0-.895-.106-1.24-.318-.344-.212-.609-.505-.795-.879-.184-.376-.276-.808-.276-1.297 0-.491.094-.925.282-1.301.189-.377.455-.671.798-.881.345-.212.754-.318 1.224-.318.392 0 .738.072 1.04.217.303.143.545.345.725.608.18.26.283.564.308.913h-1.087c-.044-.233-.148-.427-.314-.583-.163-.157-.382-.236-.656-.236-.232 0-.436.063-.612.189-.176.124-.313.302-.412.535-.096.233-.144.513-.144.838 0 .329.048.613.145.85.096.235.23.417.405.545.175.126.382.189.618.189.168 0 .317-.032.45-.095.133-.065.245-.158.335-.28.09-.122.152-.27.185-.444h1.087c-.027.342-.128.646-.302.91-.173.262-.41.468-.71.617-.299.147-.65.221-1.054.221zM68.332 139.006c-.484 0-.902-.101-1.253-.303-.35-.203-.619-.491-.807-.862-.189-.374-.283-.814-.283-1.32 0-.497.094-.934.283-1.31.19-.377.456-.671.797-.881.341-.212.742-.318 1.203-.318.297 0 .578.048.841.145.266.094.5.241.704.44.205.2.366.454.483.762.117.307.176.672.176 1.096v.35h-3.953v-.769h2.864c-.003-.218-.05-.412-.142-.582-.092-.172-.22-.308-.386-.406-.163-.099-.354-.148-.572-.148-.232 0-.436.056-.612.17-.176.111-.313.258-.411.441-.096.18-.146.378-.148.595v.67c0 .282.052.523.154.724.103.2.246.353.43.46.184.105.4.158.647.158.166 0 .315-.023.45-.07.133-.048.25-.118.348-.211.098-.092.172-.206.223-.343l1.06.12c-.066.281-.194.527-.382.737-.186.207-.425.369-.716.485-.291.113-.624.17-.998.17zM74.565 138.911v-6.448h2.412c.494 0 .908.092 1.243.277.337.184.592.438.763.762.174.321.26.686.26 1.095 0 .414-.086.781-.26 1.102-.174.322-.43.575-.769.759-.34.183-.757.274-1.253.274h-1.598v-.96h1.441c.289 0 .526-.051.71-.151.184-.101.32-.24.408-.416.09-.176.135-.379.135-.608 0-.228-.045-.43-.135-.604-.088-.174-.225-.31-.411-.406-.185-.099-.422-.148-.713-.148H75.73v5.472h-1.165zM80.648 138.911v-4.836h1.102v.806h.05c.088-.279.239-.495.452-.646.216-.153.462-.23.738-.23.063 0 .133.004.21.01.08.004.146.011.198.022v1.048c-.048-.016-.124-.031-.229-.044-.103-.014-.202-.022-.298-.022-.207 0-.394.045-.56.136-.163.088-.291.211-.385.368-.095.158-.142.339-.142.545v2.843h-1.136zM86.5 139.006c-.47 0-.879-.104-1.224-.312-.345-.208-.613-.499-.804-.872-.188-.374-.282-.811-.282-1.31 0-.5.094-.937.282-1.313.19-.376.459-.668.804-.876.345-.207.754-.311 1.225-.311.47 0 .879.104 1.224.311.346.208.613.5.8.876.191.376.287.813.287 1.313 0 .499-.096.936-.286 1.31-.188.373-.455.664-.8.872-.346.208-.754.312-1.225.312zm.007-.914c.255 0 .469-.07.64-.211.172-.142.3-.333.383-.573.086-.239.13-.505.13-.799 0-.296-.044-.564-.13-.803-.083-.242-.21-.434-.383-.576-.171-.143-.385-.215-.64-.215-.262 0-.48.072-.653.215-.172.142-.3.334-.386.576-.084.239-.126.507-.126.803 0 .294.042.56.126.799.085.24.214.431.386.573.174.141.391.211.653.211zM92.316 140.807c-.408 0-.759-.055-1.052-.164-.293-.109-.528-.255-.706-.438-.178-.182-.302-.383-.37-.601l1.023-.249c.046.086.113.174.2.265.089.092.207.169.355.229.151.063.34.095.569.095.322 0 .59-.078.8-.233.212-.155.318-.406.318-.753v-.916h-.057c-.058.118-.144.238-.257.362-.111.124-.259.228-.443.312-.182.084-.411.126-.688.126-.37 0-.706-.087-1.008-.262-.299-.176-.538-.438-.716-.787-.175-.35-.263-.789-.263-1.316 0-.531.088-.979.263-1.344.178-.368.418-.646.72-.835.3-.191.637-.286 1.007-.286.283 0 .515.048.698.145.184.094.33.208.44.343.108.132.19.257.247.374h.063v-.799h1.12v4.915c0 .405-.097.742-.294 1.011-.197.27-.466.472-.807.604-.341.134-.729.202-1.162.202zm.01-2.859c.24 0 .445-.059.615-.177.17-.117.298-.286.386-.507.088-.22.132-.485.132-.793 0-.305-.044-.571-.132-.8-.086-.229-.213-.406-.383-.532-.168-.128-.374-.192-.619-.192-.253 0-.464.066-.634.198-.17.133-.297.314-.383.545-.086.229-.129.489-.129.781 0 .296.043.555.13.778.087.22.216.392.385.516.172.122.382.183.631.183zM96.187 138.911v-4.836h1.102v.806h.05c.088-.279.239-.495.452-.646.216-.153.462-.23.738-.23.063 0 .133.004.21.01.08.004.146.011.198.022v1.048c-.048-.016-.124-.031-.229-.044-.102-.014-.202-.022-.298-.022-.207 0-.394.045-.559.136-.163.088-.292.211-.386.368-.094.158-.141.339-.141.545v2.843h-1.137zM101.428 139.009c-.306 0-.581-.055-.826-.164-.243-.111-.436-.275-.578-.491-.14-.216-.21-.483-.21-.8 0-.273.05-.499.15-.677.101-.178.238-.321.412-.428.174-.107.369-.188.587-.243.22-.056.447-.097.681-.122.283-.03.512-.056.688-.079.176-.025.303-.063.383-.113.082-.053.122-.134.122-.243v-.019c0-.237-.07-.421-.21-.551-.14-.13-.342-.195-.606-.195-.278 0-.499.061-.662.183-.162.121-.27.265-.327.431l-1.061-.151c.083-.294.222-.54.414-.737.193-.199.428-.348.707-.447.278-.101.586-.151.923-.151.232 0 .463.027.694.082.23.054.44.144.631.27.19.124.343.293.458.507.118.214.176.482.176.803v3.237h-1.093v-.664h-.037c-.069.134-.167.26-.292.378-.124.115-.28.208-.468.28-.186.069-.405.104-.656.104zm.295-.838c.228 0 .426-.045.593-.135.168-.093.296-.214.386-.365.093-.152.139-.316.139-.495v-.57c-.036.03-.097.057-.182.082-.084.025-.178.047-.283.066-.105.019-.208.036-.311.051l-.267.037c-.169.023-.321.061-.455.114-.134.052-.24.126-.317.22-.078.093-.116.212-.116.359 0 .21.076.369.229.476.153.107.347.16.584.16zM105.559 138.911v-4.836h1.087v.822h.056c.101-.278.267-.494.499-.649.233-.158.51-.236.832-.236.327 0 .602.08.826.239.226.157.385.373.478.646h.05c.107-.269.287-.483.54-.643.255-.161.558-.242.907-.242.444 0 .806.14 1.087.422.28.281.42.691.42 1.231v3.246h-1.139v-3.07c0-.3-.08-.519-.239-.658-.159-.141-.354-.211-.584-.211-.274 0-.489.086-.644.258-.152.17-.229.392-.229.665v3.016h-1.115v-3.117c0-.25-.075-.449-.226-.598-.148-.149-.343-.224-.584-.224-.163 0-.312.042-.446.126-.134.082-.24.198-.32.35-.079.149-.119.323-.119.522v2.941h-1.137zM113.937 138.911v-4.836h1.086v.822h.057c.1-.278.267-.494.499-.649.232-.158.51-.236.832-.236.327 0 .602.08.826.239.226.157.385.373.477.646h.05c.107-.269.287-.483.54-.643.256-.161.558-.242.908-.242.444 0 .806.14 1.086.422.281.281.421.691.421 1.231v3.246h-1.14v-3.07c0-.3-.079-.519-.238-.658-.159-.141-.354-.211-.584-.211-.275 0-.489.086-.644.258-.153.17-.229.392-.229.665v3.016h-1.115v-3.117c0-.25-.075-.449-.226-.598-.149-.149-.343-.224-.584-.224-.163 0-.312.042-.446.126-.134.082-.241.198-.32.35-.08.149-.12.323-.12.522v2.941h-1.136zM124.449 139.006c-.483 0-.901-.101-1.252-.303-.35-.203-.619-.491-.807-.862-.189-.374-.283-.814-.283-1.32 0-.497.094-.934.283-1.31.19-.377.456-.671.797-.881.341-.212.742-.318 1.203-.318.297 0 .578.048.841.145.266.094.501.241.704.44.205.2.366.454.483.762.117.307.176.672.176 1.096v.35h-3.953v-.769h2.863c-.002-.218-.049-.412-.141-.582-.092-.172-.221-.308-.386-.406-.163-.099-.354-.148-.571-.148-.233 0-.437.056-.613.17-.176.111-.313.258-.411.441-.096.18-.146.378-.148.595v.67c0 .282.052.523.154.724.103.2.246.353.43.46.185.105.4.158.647.158.166 0 .315-.023.449-.07.134-.048.25-.118.349-.211.098-.092.172-.206.223-.343l1.061.12c-.067.281-.195.527-.383.737-.186.207-.425.369-.716.485-.291.113-.624.17-.999.17zM16.211 108.617H75.158V109.35600000000001H16.211z"/>
    </g>
    <defs>
        <clipPath id="clip0">
            <path fill="#fff" d="M0 0h280v399H0V0z"/>
        </clipPath>
    </defs>
</svg>
