<?xml version="1.0" encoding="utf-8"?>
<!-- Generator: Adobe Illustrator 23.0.1, SVG Export Plug-In . SVG Version: 6.00 Build 0)  -->
<svg version="1.1" id="Layer_1" xmlns="http://www.w3.org/2000/svg" xmlns:xlink="http://www.w3.org/1999/xlink" x="0px" y="0px"
	 viewBox="0 0 1158 1160" style="enable-background:new 0 0 1158 1160;" xml:space="preserve">
<style type="text/css">
	.st0{fill:#005D28;}
	.st1{fill:#F4F4F4;}
	.st2{opacity:0.5;fill:#005B27;enable-background:new    ;}
	.st3{opacity:0.5;fill:#DA1E16;enable-background:new    ;}
	.st4{opacity:0.5;fill-rule:evenodd;clip-rule:evenodd;fill:#DA1E16;enable-background:new    ;}
	.st5{opacity:0.5;}
	.st6{fill:#DA1E16;}
	.st7{fill:#005B27;}
	.st8{fill:#FFFFFF;}
	.st9{fill:#5E0C08;}
</style>
<a xlink:href="3" >
	<path class="st0" d="M948.9,692v88h-64.8v-88H948.9 M958,683h-83v106h83V683L958,683z"/>
</a>
<a xlink:href="3" >
	<path class="st1" d="M747,581c-0.3,51.3-23.7,97.2-60.4,127.6l257.1,322.2C1074.4,924.6,1158,762.6,1158,581H747z"/>
</a>
<a xlink:href="3" >
	<path class="st2" d="M1128,581c0,172.1-79.2,325.7-203.1,426.3l18.7,23.5C1074.4,924.6,1158,762.6,1158,581H1128z"/>
</a>
<a xlink:href="3" >
	<path class="st1" d="M552.2,415.3L454.3,15.5C281.4,53.4,137.5,168.6,60.5,323l372.6,177.4C457.2,456.1,500.7,423.9,552.2,415.3z"
		/>
</a>
<a xlink:href="3" >
	<path class="st3" d="M461.4,44.6l-7.1-29.2C281.4,53.4,137.5,168.6,60.5,323l27.1,12.9C160.8,189.5,297.4,80.4,461.4,44.6z"/>
</a>
<a xlink:href="3" >
	<path class="st4" d="M339.5,276.8c7.2-7.2,7.2-18.8,0-25.9c-7.2-7.2-18.8-7.2-25.9,0c-7.2,7.2-7.2,18.8,0,25.9
		C320.7,283.9,332.3,283.9,339.5,276.8z M346,244.4c9.6,9.6,10.6,24.7,3,35.4l6.8,6.8l-6.5,6.5l-6.8-6.8c-10.7,7.7-25.8,6.7-35.4-3
		c-10.7-10.7-10.7-28.2,0-38.9C317.8,233.6,335.2,233.6,346,244.4z M375.1,318.9l-19.5-19.5l6.5-6.5l19.5,19.5L375.1,318.9z
		 M346,302.7c-1.8-1.8-1.8-4.7,0-6.5l13-13c1.8-1.8,4.7-1.8,6.5,0l25.9,25.9c1.8,1.8,1.8,4.7,0,6.5l-13,13c-1.8,1.8-4.7,1.8-6.5,0
		L346,302.7z"/>
</a>
<a xlink:href="3" >
	<path class="st2" d="M949.1,710.3l-21.6-21.6c-0.6-0.6-1.4-0.9-2.3-0.9h-42.6c-1.8,0-3.2,1.4-3.2,3.2v83.5c0,1.8,1.4,3.2,3.2,3.2
		h64.2c1.8,0,3.2-1.4,3.2-3.2v-61.9C950,711.7,949.7,710.9,949.1,710.3L949.1,710.3z M942.6,714h-18.9v-18.9
		C923.7,695.2,942.6,714,942.6,714z M942.8,770.4h-56.2V695h30.3v21.7c0,1.1,0.4,2.2,1.2,3s1.9,1.2,3,1.2h21.7V770.4L942.8,770.4z
		 M913.9,743.3h-18.5c-0.4,0-0.8,0.4-0.8,0.8v4.8c0,0.4,0.4,0.8,0.8,0.8h18.5c0.4,0,0.8-0.4,0.8-0.8v-4.8
		C914.7,743.7,914.3,743.3,913.9,743.3z M894.6,730.5v4.8c0,0.4,0.4,0.8,0.8,0.8h38.5c0.4,0,0.8-0.4,0.8-0.8v-4.8
		c0-0.4-0.4-0.8-0.8-0.8h-38.5C895,729.7,894.6,730,894.6,730.5z"/>
</a>
<a xlink:href="3" >
	<path class="st1" d="M581.3,413.2c41.9,0,80.2,15.4,109.5,41L946,132.4C846.3,51,719,2.2,580.3,2.2c-42.8,0-84.5,4.7-124.7,13.5
		l97.9,399.8C562.5,414,571.8,413.2,581.3,413.2z"/>
</a>
<a xlink:href="3" >
	<path class="st2" d="M579,32c131.7,0,252.5,46.4,347.1,123.6l18.6-23.5C845,50.8,717.7,2,579,2c-42.8,0-84.5,4.7-124.7,13.5
		l7.1,29.2C499.3,36.4,538.6,32,579,32z"/>
</a>
<a xlink:href="3" >
	<path class="st2" d="M708.4,171.3h-72.7c-2,0-3.6,1.6-3.6,3.6v94.5c0,2,1.6,3.6,3.6,3.6h72.7c2,0,3.6-1.6,3.6-3.6v-94.5
		C712,172.9,710.4,171.3,708.4,171.3z M640.2,179.5h63.6v23.6h-63.6V179.5L640.2,179.5z M703.8,234h-63.6v-23.6h63.6V234z
		 M703.8,264.9h-63.6v-23.6h63.6V264.9L703.8,264.9z M648.4,191.3c0,1.2,0.5,2.4,1.3,3.2s2,1.3,3.2,1.3s2.4-0.5,3.2-1.3
		c0.9-0.9,1.3-2,1.3-3.2s-0.5-2.4-1.3-3.2c-0.9-0.9-2-1.3-3.2-1.3s-2.4,0.5-3.2,1.3C648.8,188.9,648.4,190.1,648.4,191.3z
		 M648.4,222.2c0,1.2,0.5,2.4,1.3,3.2c0.9,0.9,2,1.3,3.2,1.3s2.4-0.5,3.2-1.3s1.3-2,1.3-3.2s-0.5-2.4-1.3-3.2
		c-0.9-0.9-2-1.3-3.2-1.3s-2.4,0.5-3.2,1.3C648.8,219.8,648.4,221,648.4,222.2z M648.4,253.1c0,1.2,0.5,2.4,1.3,3.2s2,1.3,3.2,1.3
		s2.4-0.5,3.2-1.3c0.9-0.9,1.3-2,1.3-3.2s-0.5-2.4-1.3-3.2c-0.9-0.9-2-1.3-3.2-1.3s-2.4,0.5-3.2,1.3
		C648.8,250.7,648.4,251.9,648.4,253.1L648.4,253.1z"/>
</a>
<a xlink:href="3" >
	<path class="st1" d="M747,580c0,0.3,0,0.7,0,1h411c0-181.1-83.1-342.7-213.2-448.9L689.5,454C724.7,484.6,747,529.7,747,580z"/>
</a>
<a xlink:href="3" >
	<path class="st3" d="M1128,581h30c0-181.1-83.1-342.7-213.2-448.9l-18.6,23.5C1049.3,256.3,1128,409.5,1128,581z"/>
</a>
<a xlink:href="3" >
	<g class="st5">
		<path class="st6" d="M973.8,387v78h-78v-78H973.8 M975.2,377h-80.9c-4.7,0-8.5,3.8-8.5,8.5v80.9c0,4.7,3.8,8.5,8.5,8.5h80.9
			c4.7,0,8.5-3.8,8.5-8.5v-80.9C983.8,380.8,980,377,975.2,377L975.2,377z"/>
		<path class="st6" d="M909.6,443.2l9.7-14.5c0.5-0.7,1.5-1,2.2-0.6l14.6,8l15.1-23.4c0.5-0.7,1.5-1,2.2-0.5l4.5,2.7
			c0.8,0.5,1,1.5,0.5,2.2L940,446.3c-0.5,0.8-1.5,1.1-2.4,0.6l-14.5-7.9l-6.5,9c-0.5,0.6-1.3,0.8-2,0.4l-4.4-2.6
			C909.3,445.3,909,444.1,909.6,443.2z"/>
	</g>
</a>
<a xlink:href="3" >
	<path class="st1" d="M580,747c-11.3,0-22.3-1.1-32.9-3.3l-89.9,403.4c39.3,8.4,80,12.8,121.8,12.8c138.2,0,265.1-48.4,364.6-129.2
		l-257-322.1C657.6,732.6,620.5,747,580,747z"/>
</a>
<a xlink:href="3" >
	<path class="st3" d="M579,1130c-39.5,0-78.1-4.2-115.3-12.1l-6.5,29.3c39.3,8.4,80,12.8,121.8,12.8c138.2,0,265.1-48.4,364.6-129.2
		l-18.7-23.5C830.5,1084,710.1,1130,579,1130z"/>
</a>
<a xlink:href="3" >
	<path class="st3" d="M711.5,901.1h-79.6c-1.9,0-3.5,1.5-3.5,3.5v79.6c0,1.9,1.5,3.5,3.5,3.5h79.6c1.9,0,3.5-1.5,3.5-3.5v-79.6
		C715,902.6,713.5,901.1,711.5,901.1L711.5,901.1z M636.3,908.9H651v71h-14.7C636.3,979.8,636.3,908.9,636.3,908.9z M707.2,979.8
		h-49.3v-49.3h49.3V979.8L707.2,979.8z M657.9,923.6v-14.7h49.3v14.7H657.9z"/>
</a>
<a xlink:href="3" >
	<path class="st1" d="M430,653.4L58.1,834.2c76.8,157.7,223.1,275.3,399.1,313l89.9-403.4C495.5,733.4,452.5,699.4,430,653.4z"/>
</a>
<a xlink:href="3" >
	<path class="st2" d="M85.1,821l-27,13.1c76.8,157.7,223.1,275.3,399.1,313l6.5-29.3C296.8,1082.2,158,970.6,85.1,821z"/>
</a>
<a xlink:href="3" >
	<g class="st5">
		<path class="st7" d="M354.7,814h-27.6c-4.4,0-7.9,3.5-7.9,7.9v27.6c0,4.4,3.5,7.9,7.9,7.9h27.6c4.4,0,7.9-3.5,7.9-7.9v-27.6
			C362.6,817.5,359.1,814,354.7,814z M353.6,848.3h-25.3V823h25.3V848.3z"/>
		<path class="st7" d="M407.1,814h-27.6c-4.4,0-7.9,3.5-7.9,7.9v27.6c0,4.4,3.5,7.9,7.9,7.9h27.6c4.4,0,7.9-3.5,7.9-7.9v-27.6
			C415,817.5,411.5,814,407.1,814z M406,848.3h-25.3V823H406V848.3z"/>
		<path class="st7" d="M354.7,863.7h-27.6c-4.4,0-7.9,3.5-7.9,7.9v27.6c0,4.4,3.5,7.9,7.9,7.9h27.6c4.4,0,7.9-3.5,7.9-7.9v-27.6
			C362.6,867.2,359.1,863.7,354.7,863.7z M353.6,898h-25.3v-25.3h25.3V898z"/>
		<path class="st7" d="M407.1,863.7h-27.6c-4.4,0-7.9,3.5-7.9,7.9v27.6c0,4.4,3.5,7.9,7.9,7.9h27.6c4.4,0,7.9-3.5,7.9-7.9v-27.6
			C415,867.2,411.5,863.7,407.1,863.7z M406,898h-25.3v-25.3H406V898z"/>
	</g>
</a>
<a xlink:href="3" >
	<g>
		
			<image style="overflow:visible;opacity:0.11;enable-background:new    ;" width="464" height="542" xlink:href="665A677B.png"  transform="matrix(1 0 0 1 -13 296)">
		</image>
		<g>
			<path class="st8" d="M413,580c0-28.8,7.3-55.9,20.2-79.6L60.5,323C21.8,400.7,0,488.3,0,581c0,90.8,20.9,176.7,58.1,253.2
				L430,653.4C419.1,631.3,413,606.3,413,580z"/>
		</g>
	</g>
</a>
<a xlink:href="3" >
	<path class="st9" d="M30,581c0-88.1,20.8-171.3,57.6-245.1L60.5,323C21.8,400.7,0,488.3,0,581c0,90.8,20.9,176.7,58.1,253.2
		l27-13.1C49.8,748.5,30,667.1,30,581z"/>
</a>
<a xlink:href="3" >
	<g>
		<path class="st9" d="M233.5,533H207v10h25v78h-78v-27h-10v28.5c0,4.7,3.8,8.5,8.5,8.5h80.9c4.7,0,8.5-3.8,8.5-8.5v-80.9
			C242,536.8,238.2,533,233.5,533z"/>
		<path class="st9" d="M170,533c-14.4,0-26,11.6-26,26s11.6,26,26,26s26-11.6,26-26S184.4,533,170,533z M169.6,575.2
			c-0.6,0.6-1.6,0.7-2.2,0.1l-11.3-10.1c-0.6-0.6-0.7-1.5-0.2-2.2l4-5c0.6-0.7,1.7-0.8,2.4-0.1l5.1,5.1c0.6,0.6,1.7,0.6,2.3-0.1
			l12.9-14.2c0.6-0.7,1.7-0.7,2.3-0.1l3.8,3.8c0.6,0.6,0.6,1.6,0,2.2L169.6,575.2z"/>
	</g>
</a>
</svg>
