<?xml version="1.0" encoding="utf-8"?>
<!-- Generator: Adobe Illustrator 23.0.1, SVG Export Plug-In . SVG Version: 6.00 Build 0)  -->
<svg version="1.1" id="Layer_1" xmlns="http://www.w3.org/2000/svg" xmlns:xlink="http://www.w3.org/1999/xlink" x="0px" y="0px"
	 viewBox="0 0 60 60" style="enable-background:new 0 0 60 60;" xml:space="preserve">
<style type="text/css">
	.st0{fill:#005B27;}
</style>
<path class="st0" d="M48.8,3.8H11.3c-1,0-1.9,0.8-1.9,1.9v48.8c0,1,0.8,1.9,1.9,1.9h37.5c1,0,1.9-0.8,1.9-1.9V5.6
	C50.6,4.6,49.8,3.8,48.8,3.8z M13.6,8h32.8v12.2H13.6V8L13.6,8z M46.4,36.1H13.6V23.9h32.8V36.1z M46.4,52H13.6V39.8h32.8V52
	L46.4,52z M17.8,14.1c0,0.6,0.2,1.2,0.7,1.7c0.4,0.4,1,0.7,1.7,0.7c0.6,0,1.2-0.2,1.7-0.7c0.4-0.4,0.7-1,0.7-1.7
	c0-0.6-0.2-1.2-0.7-1.7c-0.4-0.4-1-0.7-1.7-0.7c-0.6,0-1.2,0.2-1.7,0.7C18.1,12.8,17.8,13.4,17.8,14.1z M17.8,30
	c0,0.6,0.2,1.2,0.7,1.7c0.4,0.4,1,0.7,1.7,0.7c0.6,0,1.2-0.2,1.7-0.7c0.4-0.4,0.7-1,0.7-1.7s-0.2-1.2-0.7-1.7
	c-0.4-0.4-1-0.7-1.7-0.7c-0.6,0-1.2,0.2-1.7,0.7S17.8,29.4,17.8,30z M17.8,45.9c0,0.6,0.2,1.2,0.7,1.7c0.4,0.4,1,0.7,1.7,0.7
	c0.6,0,1.2-0.2,1.7-0.7c0.4-0.4,0.7-1,0.7-1.7c0-0.6-0.2-1.2-0.7-1.7c-0.4-0.4-1-0.7-1.7-0.7c-0.6,0-1.2,0.2-1.7,0.7
	C18.1,44.7,17.8,45.3,17.8,45.9L17.8,45.9z"/>
</svg>
