<?xml version="1.0" encoding="utf-8"?>
<!-- Generator: Adobe Illustrator 23.0.1, SVG Export Plug-In . SVG Version: 6.00 Build 0)  -->
<svg version="1.1" id="Layer_1" xmlns="http://www.w3.org/2000/svg" xmlns:xlink="http://www.w3.org/1999/xlink" x="0px" y="0px"
	 viewBox="0 0 40 40" style="enable-background:new 0 0 40 40;" xml:space="preserve">
<style type="text/css">
	.st0{fill:#E11F17;stroke:#FAFAFA;stroke-width:2;stroke-linejoin:round;}
</style>
<path class="st0" d="M7.3,29.2C7.3,29.2,7.3,29.2,7.3,29.2c1.2,1.2,2.7,1.8,4.4,1.8c1.6,0,3.1-0.6,4.1-1.8l0,0
	c1.1-1.2,1.6-2.8,1.6-4.6c0-1.1-0.2-2.2-0.7-3l-0.9,0.5l0.9-0.5c-0.4-0.7-1-1.4-1.8-2l0,0l0,0c-0.4-0.3-0.6-0.6-0.8-0.8
	C14,18.7,14,18.5,14,18.4c0-0.3,0.2-1,0.7-1.9c0.5-0.9,1.3-1.9,2.2-3c0.3-0.4,0.3-1,0-1.3L15.9,11c-0.3-0.4-0.9-0.4-1.3-0.1
	c-2.6,1.9-4.8,4.1-6.4,6.7l0,0l0,0c-1.6,2.5-2.4,4.8-2.4,7.1C5.7,26.4,6.2,28,7.3,29.2z M24.2,29.2C24.2,29.2,24.2,29.2,24.2,29.2
	c1.2,1.2,2.7,1.8,4.4,1.8c1.6,0,3-0.6,4.1-1.8l0,0c1.1-1.2,1.6-2.8,1.6-4.6c0-1.1-0.2-2.2-0.7-3c-0.4-0.7-1-1.4-1.8-2l0,0
	c-0.4-0.3-0.6-0.6-0.8-0.8c-0.1-0.1-0.1-0.3-0.1-0.4c0-0.3,0.2-1,0.7-1.9c0.5-0.9,1.3-1.9,2.2-3c0.3-0.4,0.3-1,0-1.3L32.8,11
	c-0.3-0.4-0.9-0.4-1.3-0.1c-2.6,1.9-4.8,4.1-6.4,6.7l0,0c-1.6,2.5-2.4,4.8-2.4,7.1C22.6,26.4,23.1,28,24.2,29.2L24.2,29.2z"/>
</svg>
