<?xml version="1.0" encoding="utf-8"?>
<!-- Generator: Adobe Illustrator 23.0.1, SVG Export Plug-In . SVG Version: 6.00 Build 0)  -->
<svg version="1.1" id="Layer_1" xmlns="http://www.w3.org/2000/svg" xmlns:xlink="http://www.w3.org/1999/xlink" x="0px" y="0px"
	 viewBox="0 0 60 60" style="enable-background:new 0 0 60 60;" xml:space="preserve">
<style type="text/css">
	.st0{fill:#DA1E16;}
</style>
<path class="st0" d="M51.6,6.6H8.4c-1,0-1.9,0.8-1.9,1.9v43.1c0,1,0.8,1.9,1.9,1.9h43.1c1,0,1.9-0.8,1.9-1.9V8.4
	C53.4,7.4,52.6,6.6,51.6,6.6L51.6,6.6z M10.8,10.8h8v38.4h-8C10.8,49.2,10.8,10.8,10.8,10.8z M49.2,49.2H22.5V22.5h26.7L49.2,49.2
	L49.2,49.2z M22.5,18.8v-8h26.7v8H22.5z"/>
</svg>
