<svg xmlns="http://www.w3.org/2000/svg" width="21" height="20" fill="none" viewBox="0 0 21 20">
    <path fill="#fff" d="M18.266 16.69l-5.073-5.073c.787-1.017 1.213-2.262 1.213-3.57 0-1.567-.611-3.035-1.716-4.143-1.106-1.107-2.579-1.716-4.143-1.716-1.565 0-3.037.61-4.143 1.716C3.297 5.01 2.688 6.48 2.688 8.047c0 1.564.61 3.037 1.716 4.143 1.106 1.107 2.576 1.716 4.143 1.716 1.308 0 2.55-.426 3.568-1.21l5.072 5.07c.015.015.033.026.052.034.02.008.04.013.062.013.02 0 .042-.005.061-.013.02-.008.037-.02.052-.034l.852-.85c.015-.015.026-.032.034-.052.008-.02.013-.04.013-.061 0-.021-.005-.042-.013-.062-.008-.019-.02-.037-.034-.052zm-6.625-5.55c-.829.827-1.926 1.282-3.094 1.282s-2.266-.455-3.094-1.281c-.826-.829-1.281-1.926-1.281-3.094s.455-2.268 1.281-3.094c.828-.826 1.926-1.281 3.094-1.281s2.268.453 3.094 1.281c.826.828 1.28 1.926 1.28 3.094s-.454 2.268-1.28 3.094z"/>
</svg>
