<?xml version="1.0" encoding="utf-8"?>
<!-- Generator: Adobe Illustrator 23.0.1, SVG Export Plug-In . SVG Version: 6.00 Build 0)  -->
<svg version="1.1" id="Layer_1" xmlns="http://www.w3.org/2000/svg" xmlns:xlink="http://www.w3.org/1999/xlink" x="0px" y="0px"
	 viewBox="0 0 60 60" style="enable-background:new 0 0 60 60;" xml:space="preserve">
<style type="text/css">
	.st0{fill:#005B27;}
</style>
<path class="st0" d="M50.1,16.9L37.5,4.3c-0.3-0.3-0.8-0.5-1.3-0.5H11.3c-1,0-1.9,0.8-1.9,1.9v48.8c0,1,0.8,1.9,1.9,1.9h37.5
	c1,0,1.9-0.8,1.9-1.9V18.2C50.6,17.7,50.4,17.3,50.1,16.9L50.1,16.9z M46.3,19.1h-11v-11C35.3,8.1,46.3,19.1,46.3,19.1z M46.4,52
	H13.6V8h17.7v12.7c0,0.7,0.3,1.3,0.7,1.7c0.5,0.5,1.1,0.7,1.7,0.7h12.7L46.4,52L46.4,52z M29.5,36.2H18.8c-0.3,0-0.5,0.2-0.5,0.5
	v2.8c0,0.3,0.2,0.5,0.5,0.5h10.8c0.3,0,0.5-0.2,0.5-0.5v-2.8C30,36.4,29.8,36.2,29.5,36.2z M18.3,28.7v2.8c0,0.3,0.2,0.5,0.5,0.5
	h22.5c0.3,0,0.5-0.2,0.5-0.5v-2.8c0-0.3-0.2-0.5-0.5-0.5H18.8C18.5,28.2,18.3,28.5,18.3,28.7z"/>
</svg>
