<svg xmlns="http://www.w3.org/2000/svg" width="16" height="16" fill="none" viewBox="0 0 16 16">
    <path fill="#000" d="M14.213 13.352l-4.058-4.058c.63-.814.97-1.81.97-2.857 0-1.253-.49-2.428-1.373-3.314-.885-.886-2.063-1.373-3.315-1.373-1.251 0-2.43.49-3.314 1.373-.886.885-1.373 2.061-1.373 3.314 0 1.252.49 2.43 1.373 3.315.885.885 2.061 1.373 3.314 1.373 1.047 0 2.041-.34 2.855-.969l4.058 4.056c.012.012.026.022.042.028.015.007.032.01.049.01.016 0 .033-.003.049-.01.015-.006.03-.016.041-.027l.681-.68c.012-.012.022-.026.028-.042.007-.015.01-.032.01-.049s-.003-.033-.01-.049c-.006-.015-.016-.03-.027-.041zm-5.3-4.44c-.663.661-1.541 1.025-2.476 1.025-.934 0-1.812-.364-2.475-1.024-.66-.663-1.025-1.541-1.025-2.476 0-.934.365-1.814 1.026-2.475.662-.66 1.54-1.025 2.474-1.025.935 0 1.815.363 2.475 1.026.661.662 1.025 1.54 1.025 2.474 0 .935-.364 1.815-1.024 2.475z"/>
</svg>
