<svg xmlns="http://www.w3.org/2000/svg" width="60" height="60" fill="none" viewBox="0 0 60 60">
    <path fill="#FBAC17" fill-rule="evenodd" d="M9.818 22.91V9.817H22.91V22.91H9.82zM5.455 7.635c0-1.205.976-2.181 2.181-2.181h17.455c1.205 0 2.182.976 2.182 2.181v17.455c0 1.205-.977 2.182-2.182 2.182H7.636c-1.205 0-2.181-.977-2.181-2.182V7.636zm4.363 42.546V37.09H22.91v13.09H9.82zM5.455 34.909c0-1.205.976-2.182 2.181-2.182h17.455c1.205 0 2.182.977 2.182 2.182v17.455c0 1.205-.977 2.181-2.182 2.181H7.636c-1.205 0-2.181-.976-2.181-2.181V34.909zM37.09 9.82v13.09h13.09V9.82h-13.09zm-2.182-4.364c-1.205 0-2.182.976-2.182 2.181v17.455c0 1.205.977 2.182 2.182 2.182h17.455c1.205 0 2.181-.977 2.181-2.182V7.636c0-1.205-.976-2.181-2.181-2.181H34.909zm2.182 44.727V37.09h13.09v13.09h-13.09zm-4.364-15.273c0-1.205.977-2.182 2.182-2.182h17.455c1.205 0 2.181.977 2.181 2.182v17.455c0 1.205-.976 2.181-2.181 2.181H34.909c-1.205 0-2.182-.976-2.182-2.181V34.909z" clip-rule="evenodd" opacity=".4"/>
</svg>
