<svg xmlns="http://www.w3.org/2000/svg" width="60" height="60" fill="none" viewBox="0 0 60 60">
    <path fill="#005D28" fill-rule="evenodd" d="M26.667 26.667c3.682-3.682 3.682-9.652 0-13.334-3.682-3.682-9.652-3.682-13.334 0-3.682 3.682-3.682 9.652 0 13.334 3.682 3.682 9.652 3.682 13.334 0zM30 10c4.955 4.955 5.465 12.672 1.529 18.195L35 31.667 31.667 35l-3.472-3.472C22.672 35.465 14.955 34.955 10 30c-5.523-5.523-5.523-14.477 0-20s14.477-5.523 20 0zm15 38.333l-10-10L38.334 35l10 10L45 48.333zM30 40c-.92-.92-.92-2.413 0-3.334L36.667 30c.92-.92 2.413-.92 3.333 0l13.334 13.333c.92.92.92 2.413 0 3.334l-6.667 6.666c-.92.92-2.413.92-3.333 0L30 40z" clip-rule="evenodd"/>
</svg>
