<svg xmlns="http://www.w3.org/2000/svg" width="24" height="24" fill="none" viewBox="0 0 24 24">
    <path fill="#fff" fill-rule="evenodd" d="M10.667 10.667c1.472-1.473 1.472-3.86 0-5.334-1.473-1.472-3.86-1.472-5.334 0-1.472 1.473-1.472 3.86 0 5.334 1.473 1.472 3.86 1.472 5.334 0zM12 4c1.982 1.982 2.186 5.069.611 7.278L14 12.667l.667-.667c.368-.368.965-.368 1.333 0l5.333 5.333c.369.369.369.966 0 1.334l-2.666 2.666c-.369.369-.966.369-1.334 0L12 16c-.368-.368-.368-.965 0-1.333l.667-.667-1.389-1.389C9.068 14.186 5.982 13.982 4 12 1.79 9.79 1.79 6.21 4 4s5.79-2.21 8 0zm6 15.333l-4-4L15.333 14l4 4L18 19.333z" clip-rule="evenodd"/>
</svg>
