<svg xmlns="http://www.w3.org/2000/svg" width="61" height="61" fill="none" viewBox="0 0 61 61">
    <path fill="#F9681B" fill-rule="evenodd" d="M49.911 5.734H39.477v5.217H49.91v39.13h-39.13V37.039H5.564v13.044c0 2.881 2.336 5.217 5.217 5.217h39.13c2.882 0 5.218-2.336 5.218-5.217v-39.13c0-2.882-2.336-5.218-5.218-5.218zM34.26 20.082c0 7.924-6.423 14.347-14.348 14.347-7.924 0-14.347-6.423-14.347-14.347 0-7.924 6.424-14.348 14.348-14.348s14.347 6.424 14.347 14.348zm-6.521-3.66l-8.445 9.487c-.824.926-2.16.926-2.985 0l-4.223-4.743 2.549-2.863L17.8 21.86l7.39-8.3 2.548 2.863z" clip-rule="evenodd" opacity=".4"/>
</svg>
