<svg xmlns="http://www.w3.org/2000/svg" width="60" height="60" fill="none" viewBox="0 0 60 60">
    <path fill="#F9681B" fill-rule="evenodd" d="M10 50V10h40v40H10zM5 7.5C5 6.12 6.12 5 7.5 5h45C53.88 5 55 6.12 55 7.5v45c0 1.38-1.12 2.5-2.5 2.5h-45C6.12 55 5 53.88 5 52.5v-45zm39.58 18.887c.766-1.149.456-2.701-.693-3.467s-2.701-.455-3.467.693l-7.694 11.541-6.966-4.063c-1.143-.667-2.606-.328-3.34.772l-4.5 6.75c-.766 1.15-.455 2.702.693 3.467 1.15.766 2.701.456 3.467-.693l3.194-4.79 6.967 4.063c1.142.666 2.606.328 3.34-.773l9-13.5z" clip-rule="evenodd" opacity=".4"/>
</svg>
