<svg width="30" height="30" viewBox="0 0 30 30" fill="none" xmlns="http://www.w3.org/2000/svg">
<path fill-rule="evenodd" clip-rule="evenodd" d="M7 5H23C24.1046 5 25 5.89543 25 7V23C25 24.1046 24.1046 25 23 25H7C5.89543 25 5 24.1046 5 23V7C5 5.89543 5.89543 5 7 5ZM7 20.5477L11.0488 15.4167C11.4181 14.9487 12.1121 14.9057 12.5364 15.3244L14.545 17.3071L19.8746 10.3182C20.2514 9.8241 20.9828 9.78961 21.4044 10.246L23 11.9735V7H7V20.5477ZM23 14.9211L20.743 12.4776L15.4463 19.4234C15.0808 19.9027 14.3776 19.9521 13.9486 19.5287L11.9267 17.5328L7.61257 23H23V14.9211ZM12 14C10.3431 14 9 12.6569 9 11C9 9.34315 10.3431 8 12 8C13.6569 8 15 9.34315 15 11C15 12.6569 13.6569 14 12 14ZM13 11C13 11.5523 12.5523 12 12 12C11.4477 12 11 11.5523 11 11C11 10.4477 11.4477 10 12 10C12.5523 10 13 10.4477 13 11Z" fill="#1A1A1A"/>
<mask id="mask0" mask-type="alpha" maskUnits="userSpaceOnUse" x="5" y="5" width="20" height="20">
<path fill-rule="evenodd" clip-rule="evenodd" d="M7 5H23C24.1046 5 25 5.89543 25 7V23C25 24.1046 24.1046 25 23 25H7C5.89543 25 5 24.1046 5 23V7C5 5.89543 5.89543 5 7 5ZM7 20.5477L11.0488 15.4167C11.4181 14.9487 12.1121 14.9057 12.5364 15.3244L14.545 17.3071L19.8746 10.3182C20.2514 9.8241 20.9828 9.78961 21.4044 10.246L23 11.9735V7H7V20.5477ZM23 14.9211L20.743 12.4776L15.4463 19.4234C15.0808 19.9027 14.3776 19.9521 13.9486 19.5287L11.9267 17.5328L7.61257 23H23V14.9211ZM12 14C10.3431 14 9 12.6569 9 11C9 9.34315 10.3431 8 12 8C13.6569 8 15 9.34315 15 11C15 12.6569 13.6569 14 12 14ZM13 11C13 11.5523 12.5523 12 12 12C11.4477 12 11 11.5523 11 11C11 10.4477 11.4477 10 12 10C12.5523 10 13 10.4477 13 11Z" fill="white"/>
</mask>
<g mask="url(#mask0)">
<rect width="30" height="30" fill="#1A1A1A"/>
</g>
</svg>
