<svg xmlns="http://www.w3.org/2000/svg" width="260" height="368" fill="none" viewBox="0 0 260 368">
    <g clip-path="url(#clip0)">
        <path fill="#F9681B" d="M0 0h260v368H0V0z"/>
        <path fill="#fff" fill-opacity=".2" fill-rule="evenodd" d="M199.105 88.592v44.297c24.562 0 44.474-19.832 44.474-44.297" clip-rule="evenodd"/>
        <path stroke="#fff" d="M199.105 88.592v44.297c24.562 0 44.474-19.832 44.474-44.297h-44.474z"/>
        <path fill="#fff" fill-opacity=".4" fill-rule="evenodd" d="M199.105 323.477V368c-24.562 0-44.473-19.934-44.473-44.523" clip-rule="evenodd"/>
        <path stroke="#fff" d="M199.105 323.477V368c-24.562 0-44.473-19.934-44.473-44.523h44.473z"/>
        <path fill="#fff" fill-opacity=".4" fill-rule="evenodd" d="M199.105 278.953v44.524c-24.562 0-44.473-19.934-44.473-44.524" clip-rule="evenodd"/>
        <path stroke="#fff" d="M199.105 278.953v44.524c-24.562 0-44.473-19.934-44.473-44.524h44.473z"/>
        <path fill="#1A1A1A" fill-opacity=".2" fill-rule="evenodd" d="M199.105 278.953V234.43c24.562 0 44.474 19.934 44.474 44.523" clip-rule="evenodd"/>
        <path stroke="#fff" d="M199.105 278.953V234.43c24.562 0 44.474 19.934 44.474 44.523h-44.474z"/>
        <path fill="#fff" fill-opacity=".2" fill-rule="evenodd" stroke="#fff" d="M199.105 234.43h-44.473v44.523l44.473-44.523zM199.105 278.953h44.474v44.524l-44.474-44.524zM199.105 323.477h44.474V368l-44.474-44.523z" clip-rule="evenodd"/>
        <path fill="#fff" fill-opacity=".4" fill-rule="evenodd" stroke="#fff" d="M243.579 190.133h-44.474v44.297l44.474-44.297zM243.579 88.593h44.474V44.296l-44.474 44.297zM199.105 234.43c0-12.232-9.956-22.148-22.237-22.148-12.281 0-22.236 9.916-22.236 22.148h44.473zM243.579 44.296c0-12.232-9.956-22.148-22.237-22.148-12.281 0-22.237 9.916-22.237 22.148h44.474zM243.579 0c0 12.232-9.956 22.148-22.237 22.148-12.281 0-22.237-9.916-22.237-22.148h44.474zM288.053 278.726c0-12.232-9.956-22.148-22.237-22.148-12.281 0-22.237 9.916-22.237 22.148h44.474z" clip-rule="evenodd"/>
        <path fill="#fff" fill-opacity=".4" fill-rule="evenodd" stroke="#fff" d="M288.053 234.43c0 12.232-9.956 22.148-22.237 22.148-12.281 0-22.237-9.916-22.237-22.148h44.474zM243.579 132.889c0 12.232-9.956 22.148-22.237 22.148-12.281 0-22.237-9.916-22.237-22.148h44.474z" clip-rule="evenodd"/>
        <path fill="#fff" fill-opacity=".2" fill-rule="evenodd" stroke="#fff" d="M199.105 189.793c0-12.232-9.956-22.148-22.237-22.148-12.281 0-22.236 9.916-22.236 22.148s9.955 22.148 22.236 22.148 22.237-9.916 22.237-22.148z" clip-rule="evenodd"/>
        <path fill="#fff" fill-opacity=".4" fill-rule="evenodd" stroke="#fff" d="M199.105 132.889h-44.473V88.592l44.473 44.297z" clip-rule="evenodd"/>
        <path fill="#1A1A1A" fill-opacity=".2" stroke="#fff" d="M199.105 88.593H243.57899999999998V132.889H199.105z" transform="rotate(180 199.105 88.593)"/>
        <path fill="#1A1A1A" fill-opacity=".2" stroke="#fff" d="M288.053 234.43H332.527V278.726H288.053z" transform="rotate(180 288.053 234.43)"/>
        <path fill="#1A1A1A" fill-opacity=".2" fill-rule="evenodd" stroke="#fff" d="M199.105 0h-44.473v44.296L199.105 0z" clip-rule="evenodd"/>
        <path fill="#fff" fill-opacity=".2" fill-rule="evenodd" stroke="#fff" d="M243.69 88.593c0 24.464 18.661 44.296 41.681 44.296 23.02 0 41.682-19.832 41.682-44.296H243.69z" clip-rule="evenodd"/>
        <path fill="#1A1A1A" fill-opacity=".2" fill-rule="evenodd" stroke="#fff" d="M243.579 0c0 24.464 19.911 44.296 44.474 44.296 24.562 0 44.473-19.832 44.473-44.296h-88.947z" clip-rule="evenodd"/>
        <path fill="#fff" d="M21.943 49.477c-.043-.43-.226-.763-.55-1.001-.325-.238-.765-.357-1.321-.357-.378 0-.697.053-.957.16-.26.103-.46.246-.599.43-.135.185-.203.395-.203.63-.007.194.034.365.123.51.093.146.22.272.38.378.16.103.346.194.556.272.21.074.434.138.673.191l.984.235c.477.106.916.248 1.315.426.399.177.744.395 1.037.654.292.26.518.565.679.916.164.352.247.755.25 1.209-.003.667-.174 1.246-.512 1.735-.335.487-.82.865-1.454 1.134-.631.267-1.392.4-2.283.4-.884 0-1.653-.135-2.309-.405-.652-.27-1.162-.669-1.529-1.198-.363-.532-.554-1.19-.572-1.975h2.24c.025.366.13.67.315.916.19.241.44.424.754.548.317.12.675.181 1.075.181.392 0 .732-.057 1.02-.17.293-.114.519-.272.68-.474.16-.202.24-.435.24-.698 0-.244-.073-.45-.22-.617-.142-.167-.352-.309-.63-.426-.274-.117-.611-.224-1.01-.32l-1.192-.298c-.923-.223-1.652-.573-2.187-1.049-.534-.475-.8-1.116-.796-1.922-.004-.66.173-1.236.53-1.73.36-.493.853-.878 1.48-1.155s1.34-.415 2.138-.415c.813 0 1.522.138 2.127.415.61.277 1.084.662 1.422 1.155.339.494.514 1.065.524 1.715h-2.218zM27.888 54.891l.006-2.72h.331l2.63-3.104h2.614l-3.534 4.11h-.54l-1.507 1.714zm-2.063 2.353V46.341h2.277v10.903h-2.277zm5.131 0l-2.416-3.561 1.518-1.603 3.566 5.164h-2.668zM34.586 57.244v-8.177h2.277v8.177h-2.277zm1.15-9.232c-.34 0-.63-.111-.872-.335-.242-.227-.363-.499-.363-.815 0-.312.12-.58.363-.803.242-.228.531-.341.866-.341.342 0 .633.113.871.34.243.224.364.492.364.804 0 .316-.121.588-.364.815-.239.224-.527.335-.866.335zM40.964 46.34v10.904h-2.277V46.341h2.277zM45.066 46.34v10.904h-2.278V46.341h2.278zM53.721 51.399l-2.084.127c-.036-.177-.113-.337-.23-.479-.118-.145-.273-.26-.465-.346-.19-.089-.416-.133-.68-.133-.352 0-.65.075-.892.224-.242.145-.363.34-.363.585 0 .195.078.36.235.495.157.135.426.243.807.325l1.486.298c.798.164 1.393.426 1.785.788.392.362.588.838.588 1.427 0 .536-.158 1.006-.475 1.411-.314.405-.745.72-1.294.948-.545.223-1.174.335-1.887.335-1.087 0-1.953-.225-2.598-.676-.641-.454-1.017-1.072-1.128-1.853l2.24-.117c.068.33.232.582.492.756.26.17.593.256 1 .256.398 0 .72-.077.962-.23.245-.155.37-.356.374-.6-.004-.207-.091-.375-.262-.507-.171-.135-.435-.237-.791-.309l-1.422-.282c-.802-.16-1.399-.436-1.79-.83-.39-.394-.584-.897-.584-1.507 0-.525.143-.978.428-1.358.289-.38.693-.672 1.213-.878.524-.206 1.137-.309 1.84-.309 1.036 0 1.852.218 2.447.655.6.437.948 1.031 1.048 1.784zM64.808 49.477c-.043-.43-.227-.763-.551-1.001-.324-.238-.764-.357-1.32-.357-.378 0-.697.053-.957.16-.26.103-.46.246-.599.43-.135.185-.203.395-.203.63-.007.194.034.365.123.51.093.146.22.272.38.378.16.103.345.194.555.272.21.074.435.138.674.191l.984.235c.477.106.915.248 1.315.426.399.177.744.395 1.037.654.292.26.518.565.678.916.164.352.248.755.252 1.209-.004.667-.175 1.246-.514 1.735-.335.487-.82.865-1.454 1.134-.63.267-1.391.4-2.282.4-.884 0-1.654-.135-2.31-.405-.651-.27-1.161-.669-1.528-1.198-.364-.532-.554-1.19-.572-1.975h2.24c.025.366.13.67.315.916.189.241.44.424.754.548.317.12.675.181 1.074.181.392 0 .733-.057 1.021-.17.292-.114.519-.272.68-.474.16-.202.24-.435.24-.698 0-.244-.073-.45-.22-.617-.142-.167-.352-.309-.63-.426-.275-.117-.611-.224-1.01-.32l-1.193-.298c-.923-.223-1.651-.573-2.186-1.049-.534-.475-.8-1.116-.796-1.922-.004-.66.172-1.236.529-1.73.36-.493.853-.878 1.48-1.155.628-.277 1.34-.415 2.139-.415.812 0 1.521.138 2.127.415.61.277 1.084.662 1.422 1.155.339.494.513 1.065.524 1.715h-2.218zM73.955 53.763v-4.696h2.277v8.177h-2.186V55.76h-.086c-.185.48-.493.864-.924 1.155-.428.291-.95.437-1.567.437-.548 0-1.031-.124-1.448-.373-.417-.248-.743-.601-.978-1.06-.232-.457-.35-1.005-.353-1.644v-5.207h2.277v4.802c.003.483.133.864.39 1.145.257.28.6.42 1.032.42.274 0 .53-.062.77-.186.238-.128.43-.316.577-.564.15-.249.222-.556.219-.921zM78.053 60.311V49.067H80.3v1.373h.101c.1-.22.244-.443.433-.67.192-.231.442-.423.748-.576.31-.156.695-.234 1.155-.234.599 0 1.151.156 1.657.469.506.308.91.775 1.213 1.4.303.621.455 1.4.455 2.337 0 .912-.148 1.683-.444 2.31-.292.626-.691 1.1-1.197 1.422-.503.32-1.066.48-1.69.48-.441 0-.817-.073-1.127-.219-.307-.145-.558-.328-.754-.548-.196-.224-.346-.45-.449-.676h-.07v4.376h-2.276zm2.23-7.155c0 .486.067.91.203 1.272.135.362.331.644.588.847.256.198.568.298.935.298.37 0 .684-.102.94-.304.257-.206.452-.49.584-.852.135-.365.203-.786.203-1.261 0-.473-.066-.888-.198-1.246-.132-.359-.326-.64-.583-.841-.256-.203-.572-.304-.946-.304-.37 0-.684.098-.94.293-.254.195-.448.472-.583.83-.136.359-.204.781-.204 1.268zM87.579 60.311V49.067h2.245v1.373h.102c.1-.22.244-.443.433-.67.192-.231.441-.423.748-.576.31-.156.695-.234 1.154-.234.6 0 1.152.156 1.658.469.506.308.91.775 1.213 1.4.303.621.454 1.4.454 2.337 0 .912-.147 1.683-.443 2.31-.293.626-.692 1.1-1.198 1.422-.502.32-1.065.48-1.689.48-.442 0-.818-.073-1.128-.219-.306-.145-.557-.328-.753-.548-.196-.224-.346-.45-.45-.676h-.069v4.376H87.58zm2.229-7.155c0 .486.068.91.203 1.272.136.362.332.644.588.847.257.198.569.298.935.298.371 0 .685-.102.941-.304.257-.206.451-.49.583-.852.135-.365.203-.786.203-1.261 0-.473-.066-.888-.198-1.246-.132-.359-.326-.64-.582-.841-.257-.203-.572-.304-.947-.304-.37 0-.684.098-.94.293-.253.195-.447.472-.583.83-.135.359-.203.781-.203 1.268zM99.382 46.34v10.904h-2.278V46.341h2.278zM102.612 60.295c-.289 0-.56-.023-.813-.07-.249-.042-.456-.095-.62-.159l.513-1.698c.403.124.741.156 1.016.096.278-.057.497-.27.657-.64l.134-.345-2.945-8.412h2.394l1.7 6.005h.086l1.716-6.005 2.41.01-3.191 9.051c-.153.437-.362.816-.625 1.14-.26.326-.59.578-.989.756-.399.18-.88.271-1.443.271zM18.303 73.754c-.524 0-.991-.09-1.4-.271-.41-.185-.735-.456-.974-.815-.235-.362-.353-.813-.353-1.352 0-.454.084-.836.252-1.145.167-.309.395-.557.684-.745.289-.188.616-.33.983-.426.371-.096.76-.163 1.166-.202.477-.05.862-.096 1.154-.139.293-.046.505-.113.636-.202.132-.089.198-.22.198-.394v-.032c0-.337-.107-.598-.32-.783-.21-.184-.51-.276-.899-.276-.41 0-.735.09-.978.271-.242.178-.402.401-.48.67l-2.107-.17c.107-.496.317-.926.63-1.288.314-.365.719-.646 1.214-.841.5-.199 1.076-.298 1.732-.298.456 0 .893.053 1.31.16.42.106.793.27 1.117.495.328.223.586.51.775.862.189.348.283.765.283 1.251V73.6h-2.16v-1.134h-.063c-.132.256-.308.48-.53.676-.22.192-.486.343-.796.453-.31.106-.668.16-1.074.16zm.652-1.565c.335 0 .63-.066.887-.197.257-.135.458-.316.604-.543.146-.227.22-.484.22-.772v-.868c-.072.046-.17.089-.295.128-.12.035-.258.07-.411.101-.154.029-.307.055-.46.08-.153.021-.292.04-.417.059-.267.039-.5.1-.7.186-.2.085-.355.2-.465.346-.11.142-.166.32-.166.532 0 .31.112.545.337.709.228.16.517.24.866.24zM26.97 68.872V73.6h-2.277v-8.178h2.17v1.443h.096c.182-.476.487-.852.915-1.129.427-.28.946-.42 1.555-.42.57 0 1.067.124 1.491.372.424.249.754.604.99 1.065.235.458.352 1.005.352 1.64V73.6h-2.277v-4.802c.004-.5-.125-.891-.385-1.172-.26-.284-.618-.426-1.074-.426-.307 0-.578.066-.813.197-.231.132-.413.323-.545.575-.128.249-.194.549-.198.9zM37.082 73.733c-.623 0-1.188-.16-1.694-.48-.503-.322-.902-.796-1.197-1.42-.293-.629-.439-1.4-.439-2.311 0-.937.152-1.716.454-2.338.303-.624.706-1.091 1.209-1.4.506-.312 1.06-.468 1.662-.468.46 0 .843.078 1.15.234.31.153.559.344.748.575.192.227.338.45.438.67h.07v-4.099h2.271V73.6H39.51v-1.31h-.096c-.107.227-.258.453-.454.676-.193.22-.444.403-.754.549-.307.145-.68.218-1.123.218zm.722-1.805c.367 0 .677-.1.93-.298.257-.202.453-.484.588-.846.139-.363.209-.787.209-1.273 0-.486-.068-.909-.204-1.267-.135-.359-.331-.635-.588-.83-.256-.196-.568-.293-.935-.293-.374 0-.69.1-.946.303-.257.202-.451.483-.583.841-.132.359-.198.774-.198 1.246 0 .476.066.896.198 1.262.136.362.33.646.583.852.256.202.572.303.946.303zM51.034 73.6h-3.88V62.696h3.912c1.101 0 2.049.218 2.844.655.794.433 1.406 1.056 1.833 1.869.431.813.647 1.785.647 2.918 0 1.135-.216 2.111-.647 2.928-.428.816-1.042 1.442-1.844 1.88-.798.436-1.753.654-2.865.654zm-1.566-1.975h1.47c.684 0 1.26-.121 1.726-.362.47-.245.823-.623 1.058-1.134.24-.515.359-1.179.359-1.992 0-.805-.12-1.464-.359-1.975-.235-.51-.586-.887-1.053-1.129-.466-.24-1.042-.362-1.726-.362h-1.475v6.954zM61.803 73.76c-.844 0-1.571-.17-2.18-.511-.606-.345-1.073-.831-1.401-1.46-.328-.631-.492-1.378-.492-2.24 0-.842.164-1.58.492-2.216.328-.635.79-1.13 1.384-1.485.6-.355 1.301-.532 2.107-.532.541 0 1.045.087 1.512.26.47.17.88.428 1.23.773.353.344.627.777.823 1.299.196.518.294 1.125.294 1.82v.623h-6.933v-1.405h4.79c0-.327-.072-.616-.214-.868-.143-.252-.34-.449-.594-.591-.25-.145-.54-.218-.871-.218-.346 0-.652.08-.92.24-.263.156-.47.367-.62.633-.15.263-.226.555-.23.878v1.337c0 .404.076.754.225 1.049.153.294.369.521.647.681.278.16.608.24.989.24.253 0 .484-.036.695-.107.21-.07.39-.177.54-.32.15-.141.263-.315.342-.521l2.106.138c-.107.504-.326.944-.658 1.32-.328.373-.752.665-1.272.874-.517.206-1.114.309-1.79.309zM67.058 73.6v-8.178h2.17v1.443h.096c.172-.48.457-.857.856-1.134.399-.277.876-.415 1.432-.415.563 0 1.043.14 1.438.42.396.277.66.653.791 1.129h.086c.167-.468.47-.843.908-1.123.442-.284.965-.426 1.567-.426.766 0 1.388.243 1.865.73.481.482.722 1.167.722 2.054v5.5h-2.272v-5.053c0-.454-.121-.795-.363-1.022-.243-.227-.546-.34-.91-.34-.413 0-.735.13-.967.393-.231.26-.347.602-.347 1.028V73.6h-2.208v-5.1c0-.402-.115-.721-.347-.959-.228-.238-.53-.357-.904-.357-.253 0-.48.064-.684.192-.2.124-.358.3-.475.527-.118.224-.177.486-.177.788V73.6h-2.277zM83.129 73.754c-.524 0-.99-.09-1.4-.271-.41-.185-.735-.456-.974-.815-.235-.362-.352-.813-.352-1.352 0-.454.084-.836.251-1.145.168-.309.395-.557.684-.745.289-.188.617-.33.984-.426.37-.096.759-.163 1.165-.202.478-.05.862-.096 1.155-.139.292-.046.504-.113.636-.202.132-.089.197-.22.197-.394v-.032c0-.337-.106-.598-.32-.783-.21-.184-.51-.276-.898-.276-.41 0-.736.09-.978.271-.243.178-.403.401-.481.67l-2.107-.17c.107-.496.318-.926.631-1.288.314-.365.718-.646 1.214-.841.498-.199 1.076-.298 1.731-.298.457 0 .893.053 1.31.16.42.106.793.27 1.117.495.328.223.587.51.775.862.19.348.284.765.284 1.251V73.6h-2.16v-1.134h-.064c-.132.256-.308.48-.53.676-.22.192-.486.343-.796.453-.31.106-.668.16-1.074.16zm.652-1.565c.335 0 .63-.066.887-.197.257-.135.458-.316.604-.543.146-.227.22-.484.22-.772v-.868c-.072.046-.17.089-.294.128-.122.035-.259.07-.412.101-.153.029-.306.055-.46.08-.153.021-.292.04-.417.059-.267.039-.5.1-.7.186-.2.085-.355.2-.465.346-.11.142-.166.32-.166.532 0 .31.113.545.337.709.228.16.517.24.866.24zM91.796 68.872V73.6H89.52v-8.178h2.17v1.443h.097c.181-.476.486-.852.914-1.129.427-.28.946-.42 1.555-.42.57 0 1.068.124 1.492.372.424.249.753.604.989 1.065.235.458.352 1.005.352 1.64V73.6h-2.277v-4.802c.004-.5-.125-.891-.385-1.172-.26-.284-.618-.426-1.074-.426-.306 0-.577.066-.813.197-.231.132-.413.323-.545.575-.128.249-.194.549-.198.9zM101.909 73.733c-.624 0-1.189-.16-1.695-.48-.502-.322-.901-.796-1.197-1.42-.292-.629-.439-1.4-.439-2.311 0-.937.152-1.716.455-2.338.303-.624.705-1.091 1.208-1.4.506-.312 1.06-.468 1.662-.468.46 0 .843.078 1.15.234.31.153.559.344.748.575.192.227.338.45.438.67h.07v-4.099h2.271V73.6h-2.245v-1.31h-.096c-.107.227-.258.453-.454.676-.193.22-.444.403-.754.549-.306.145-.68.218-1.122.218zm.721-1.805c.367 0 .677-.1.93-.298.257-.202.453-.484.588-.846.139-.363.209-.787.209-1.273 0-.486-.068-.909-.203-1.267-.136-.359-.332-.635-.588-.83-.257-.196-.569-.293-.936-.293-.374 0-.689.1-.946.303-.256.202-.451.483-.583.841-.131.359-.197.774-.197 1.246 0 .476.066.896.197 1.262.136.362.33.646.583.852.257.202.572.303.946.303zM111.937 73.6v-8.178h2.277V73.6h-2.277zm1.149-9.232c-.339 0-.629-.112-.871-.335-.243-.228-.364-.5-.364-.815 0-.312.121-.58.364-.804.242-.227.531-.34.865-.34.343 0 .633.113.872.34.242.224.363.492.363.804 0 .316-.121.587-.363.815-.239.223-.528.335-.866.335zM118.315 68.872V73.6h-2.277v-8.178h2.17v1.443h.096c.182-.476.487-.852.914-1.129.428-.28.946-.42 1.556-.42.57 0 1.067.124 1.491.372.424.249.754.604.989 1.065.235.458.353 1.005.353 1.64V73.6h-2.277v-4.802c.003-.5-.125-.891-.385-1.172-.26-.284-.618-.426-1.075-.426-.306 0-.577.066-.812.197-.232.132-.413.323-.545.575-.129.249-.194.549-.198.9zM21.943 82.188c-.043-.43-.226-.763-.55-1.001-.325-.238-.765-.357-1.321-.357-.378 0-.697.053-.957.16-.26.103-.46.247-.599.431-.135.185-.203.394-.203.628-.007.195.034.366.123.511.093.146.22.272.38.378.16.103.346.194.556.272.21.074.434.138.673.192l.984.234c.477.106.916.248 1.315.426.399.177.744.395 1.037.655.292.259.518.564.679.915.164.352.247.755.25 1.209-.003.667-.174 1.246-.512 1.736-.335.486-.82.864-1.454 1.134-.631.266-1.392.399-2.283.399-.884 0-1.653-.135-2.309-.405-.652-.27-1.162-.669-1.529-1.198-.363-.532-.554-1.19-.572-1.975h2.24c.025.366.13.671.315.916.19.241.44.424.754.548.317.12.675.181 1.075.181.392 0 .732-.056 1.02-.17.293-.114.519-.272.68-.474.16-.202.24-.435.24-.697 0-.245-.073-.451-.22-.618-.142-.167-.352-.309-.63-.426-.274-.117-.611-.224-1.01-.32l-1.192-.297c-.923-.224-1.652-.574-2.187-1.05-.534-.475-.8-1.116-.796-1.921-.004-.66.173-1.237.53-1.73.36-.494.853-.88 1.48-1.156.627-.277 1.34-.415 2.138-.415.813 0 1.522.138 2.127.415.61.277 1.084.662 1.422 1.155.339.494.514 1.065.524 1.715h-2.218zM29.535 90.115c-.83 0-1.549-.175-2.155-.527-.602-.355-1.067-.848-1.395-1.48-.328-.635-.491-1.372-.491-2.21 0-.844.163-1.582.491-2.214.328-.636.793-1.129 1.395-1.48.606-.355 1.324-.533 2.155-.533.83 0 1.546.178 2.148.533.606.351 1.073.844 1.401 1.48.328.632.492 1.37.492 2.215 0 .837-.164 1.574-.492 2.21-.328.63-.795 1.124-1.4 1.48-.603.35-1.319.526-2.15.526zm.01-1.757c.378 0 .693-.106.946-.32.253-.216.444-.51.572-.883.132-.373.198-.797.198-1.272 0-.476-.066-.9-.198-1.273-.128-.373-.319-.667-.572-.884-.253-.216-.568-.324-.946-.324-.381 0-.702.108-.962.324-.256.217-.45.511-.582.884-.129.373-.193.797-.193 1.273 0 .475.064.9.192 1.272.132.373.327.667.583.884.26.213.581.32.962.32zM40.322 86.474v-4.696h2.277v8.177h-2.186V88.47h-.086c-.185.48-.494.864-.925 1.155-.427.291-.95.437-1.566.437-.549 0-1.032-.124-1.449-.373-.416-.248-.743-.601-.978-1.06-.231-.457-.349-1.005-.353-1.644v-5.207h2.278v4.802c.003.483.133.864.39 1.145.256.28.6.42 1.031.42.275 0 .531-.062.77-.186.239-.128.431-.316.578-.564.15-.249.222-.556.219-.921zM48.787 81.778v1.703h-4.944v-1.703h4.944zm-3.822-1.96h2.278v7.624c0 .21.032.373.096.49.064.114.153.194.267.24.118.046.253.07.406.07.107 0 .214-.01.321-.028l.246-.047.358 1.687c-.114.036-.274.077-.481.123-.207.05-.458.08-.754.09-.548.022-1.03-.051-1.443-.218-.41-.167-.729-.426-.957-.777-.228-.352-.34-.795-.337-1.331v-7.922zM52.724 85.228v4.728h-2.277V79.052h2.213v4.169h.096c.186-.483.485-.861.898-1.135.414-.276.932-.415 1.556-.415.57 0 1.067.124 1.491.373.428.245.76.598.995 1.06.238.457.356 1.006.352 1.645v5.207h-2.277v-4.803c.004-.504-.125-.896-.385-1.176-.256-.28-.616-.421-1.08-.421-.31 0-.584.066-.823.197-.235.131-.42.323-.556.575-.131.248-.2.548-.203.9zM65.254 89.956h-2.48l3.779-10.904h2.983l3.773 10.903h-2.48l-2.742-8.412h-.086l-2.747 8.412zm-.155-4.286h5.858v1.8H65.1v-1.8zM78.838 81.778v1.703H73.77v-1.703h5.067zm-3.908 8.177v-8.768c0-.593.116-1.085.348-1.475.235-.39.556-.683.962-.879.406-.195.868-.292 1.385-.292.349 0 .668.026.956.08.293.053.51.1.652.143l-.406 1.704c-.089-.028-.2-.055-.331-.08-.128-.025-.26-.037-.396-.037-.335 0-.568.078-.7.234-.132.153-.198.368-.198.644v8.727H74.93zM80.229 89.956v-8.178h2.208v1.427h.085c.15-.508.401-.891.754-1.15.353-.263.759-.394 1.219-.394.114 0 .237.007.368.02.132.015.248.035.348.06v2.012c-.107-.032-.255-.06-.444-.085-.189-.025-.361-.038-.518-.038-.335 0-.635.073-.898.219-.26.142-.467.34-.62.596-.15.256-.225.55-.225.884v4.627H80.23zM86.388 89.956v-8.178h2.277v8.177h-2.277zm1.15-9.232c-.339 0-.63-.112-.872-.336-.242-.227-.363-.499-.363-.814 0-.313.12-.58.363-.804.243-.227.531-.341.866-.341.342 0 .633.114.871.34.243.224.364.492.364.805 0 .316-.121.587-.364.814-.238.224-.527.336-.866.336zM94.2 90.115c-.842 0-1.565-.177-2.171-.532-.602-.359-1.066-.856-1.39-1.49-.32-.636-.48-1.367-.48-2.194 0-.838.161-1.573.485-2.205.328-.635.793-1.13 1.396-1.485.602-.359 1.318-.538 2.148-.538.717 0 1.344.13 1.882.389.538.259.964.623 1.278 1.091.313.469.486 1.019.518 1.65h-2.149c-.06-.407-.22-.736-.48-.984-.257-.252-.594-.378-1.011-.378-.353 0-.661.096-.925.287-.26.189-.463.463-.61.826-.145.362-.218.8-.218 1.315 0 .521.07.965.213 1.33.147.366.351.645.615.837.264.191.572.287.925.287.26 0 .493-.053.7-.16.21-.106.383-.26.519-.463.139-.206.23-.452.272-.74h2.15c-.037.625-.208 1.175-.514 1.65-.303.473-.722.842-1.256 1.108-.535.266-1.167.4-1.898.4zM101.665 90.11c-.523 0-.99-.09-1.4-.272-.41-.184-.734-.456-.973-.814-.235-.362-.353-.813-.353-1.353 0-.454.084-.835.252-1.144.167-.309.395-.557.684-.746.288-.188.616-.33.983-.425.371-.096.759-.164 1.166-.203.477-.05.862-.096 1.154-.138.292-.046.504-.114.636-.203.132-.088.198-.22.198-.394v-.032c0-.337-.107-.597-.321-.782-.21-.185-.509-.277-.898-.277-.41 0-.736.09-.978.272-.242.177-.403.4-.481.67l-2.106-.17c.107-.497.317-.926.63-1.288.314-.366.719-.646 1.214-.842.499-.198 1.076-.298 1.732-.298.456 0 .893.053 1.31.16.42.106.792.272 1.117.495.328.224.586.511.775.863.189.347.283.765.283 1.25v5.517h-2.159V88.82h-.065c-.131.256-.308.481-.529.677-.221.191-.486.342-.796.452-.31.107-.668.16-1.075.16zm.653-1.565c.335 0 .63-.066.887-.197.256-.135.458-.316.604-.543.146-.228.219-.485.219-.772v-.868c-.071.046-.169.088-.294.127-.121.036-.258.07-.412.102-.153.028-.306.055-.459.08-.153.02-.292.04-.417.058-.267.04-.501.101-.7.187-.2.085-.355.2-.465.346-.111.142-.166.319-.166.532 0 .309.112.545.337.708.228.16.516.24.866.24z"/>
        <path fill="#fff" fill-rule="evenodd" d="M53.368 0H15.053v25.896h38.315V0zM21.131 18.63v1.133h5.322v-1.285h-3.135v-.05l1.09-1.064c.512-.465.91-.863 1.192-1.195.281-.334.477-.637.586-.91.112-.274.168-.551.168-.832 0-.428-.11-.808-.332-1.14-.22-.332-.53-.59-.929-.777-.396-.188-.861-.283-1.396-.283-.52 0-.979.098-1.377.294-.399.196-.709.473-.93.831-.221.358-.332.78-.332 1.267h1.498c0-.237.047-.441.139-.613.092-.172.224-.304.393-.396.17-.092.37-.138.598-.138.219 0 .415.044.587.13.172.086.309.208.408.367.1.158.15.345.15.563 0 .196-.04.379-.12.548-.08.167-.199.338-.354.512-.153.174-.343.37-.569.588l-2.657 2.45zm7.773.835c.452.305.992.459 1.619.461.626 0 1.165-.152 1.614-.457.45-.305.795-.747 1.035-1.325.243-.578.365-1.275.365-2.09.002-.812-.118-1.501-.361-2.07-.243-.571-.59-1.007-1.043-1.307-.449-.3-.986-.45-1.61-.45-.625 0-1.163.15-1.615.45-.45.298-.796.732-1.039 1.303-.24.572-.36 1.262-.36 2.073-.003.813.116 1.509.357 2.087.243.579.589 1.02 1.038 1.325zm2.643-1.484c-.255.428-.597.642-1.024.642-.285 0-.532-.094-.744-.283-.211-.191-.375-.477-.492-.857-.114-.382-.171-.859-.171-1.43.002-.844.131-1.479.386-1.902.255-.424.595-.635 1.02-.635.285 0 .532.094.74.283.212.189.375.47.489.846.116.375.175.844.175 1.408.002.857-.124 1.5-.38 1.928zm3.115 1.782V18.63l2.657-2.45c.226-.218.415-.414.568-.588.156-.174.274-.345.354-.512.08-.17.12-.352.12-.548 0-.218-.05-.405-.15-.563-.099-.16-.235-.281-.407-.366-.173-.087-.369-.13-.587-.13-.229 0-.428.045-.598.137-.17.092-.301.224-.394.396-.092.172-.138.376-.138.613h-1.498c0-.486.11-.909.332-1.267.22-.358.53-.635.93-.83.398-.197.857-.295 1.377-.295.534 0 1 .095 1.396.283.398.187.708.446.929.777.221.332.332.711.332 1.14 0 .28-.056.558-.168.831-.11.274-.305.577-.587.911-.282.332-.679.73-1.192 1.195l-1.09 1.063v.051h3.135v1.285h-5.321zm7.773-.298c.452.305.991.459 1.618.461.627 0 1.165-.152 1.615-.457.45-.305.794-.747 1.035-1.325.243-.578.364-1.275.364-2.09.003-.812-.118-1.501-.36-2.07-.244-.571-.591-1.007-1.043-1.307-.45-.3-.986-.45-1.61-.45-.625 0-1.163.15-1.615.45-.45.298-.796.732-1.04 1.303-.24.572-.36 1.262-.36 2.073-.002.813.117 1.509.357 2.087.243.579.59 1.02 1.039 1.325zm2.642-1.484c-.255.428-.596.642-1.024.642-.284 0-.532-.094-.743-.283-.212-.191-.376-.477-.492-.857-.115-.382-.172-.859-.172-1.43.003-.844.132-1.479.387-1.902.255-.424.595-.635 1.02-.635.284 0 .531.094.74.283.211.189.374.47.488.846.117.375.175.844.175 1.408.003.857-.124 1.5-.379 1.928z" clip-rule="evenodd"/>
        <path fill="#fff" d="M15.642 115.852v-5.948h1.081v5.045h2.63v.903h-3.712zM21.945 115.942c-.284 0-.54-.051-.767-.151-.226-.103-.405-.254-.537-.453-.13-.2-.195-.446-.195-.738 0-.252.047-.46.14-.624.093-.165.22-.296.382-.395.161-.099.343-.173.545-.224.204-.052.415-.09.633-.113.262-.027.475-.051.638-.073.164-.023.282-.058.356-.104.076-.049.114-.123.114-.224v-.017c0-.219-.065-.388-.196-.508-.13-.12-.317-.18-.562-.18-.259 0-.464.056-.615.168-.15.112-.251.245-.304.398l-.985-.14c.078-.271.206-.497.385-.679.178-.184.397-.322.656-.413.258-.092.544-.139.857-.139.216 0 .43.025.644.076.214.05.41.133.586.249.177.115.32.27.426.468.109.197.163.444.163.74v2.986h-1.014v-.613h-.035c-.065.124-.155.24-.272.349-.114.106-.259.192-.434.258-.173.064-.376.096-.61.096zm.274-.773c.212 0 .395-.041.55-.125.156-.085.276-.197.36-.336.085-.14.128-.292.128-.456v-.526c-.033.027-.09.052-.17.076-.077.023-.165.043-.262.061-.097.017-.193.032-.288.046l-.248.035c-.158.021-.299.056-.423.104-.125.049-.223.117-.295.204-.072.085-.107.195-.107.331 0 .193.07.339.212.438.142.099.323.148.543.148zM25.828 115.852v-5.948h1.055v2.225h.044c.054-.109.131-.224.23-.346.1-.124.233-.229.403-.316.169-.089.385-.134.647-.134.346 0 .658.088.936.264.28.175.501.433.665.776.165.34.247.759.247 1.254 0 .49-.08.906-.242 1.249-.16.343-.38.604-.659.784-.277.18-.592.27-.944.27-.257 0-.47-.042-.639-.128-.169-.085-.305-.187-.408-.307-.101-.122-.18-.238-.236-.346h-.061v.703h-1.038zm1.035-2.231c0 .289.04.542.122.758.084.217.203.387.359.509.157.12.348.18.571.18.234 0 .429-.062.586-.186.158-.126.276-.297.356-.514.082-.219.123-.468.123-.747 0-.276-.04-.522-.12-.737-.08-.215-.198-.383-.356-.505-.157-.122-.354-.183-.589-.183-.225 0-.417.059-.574.177-.158.118-.277.283-.359.496-.08.213-.12.464-.12.752zM33.317 115.939c-.438 0-.817-.096-1.137-.288-.321-.191-.57-.459-.747-.804-.175-.345-.262-.747-.262-1.208 0-.461.087-.865.262-1.211.177-.347.426-.616.747-.807.32-.192.7-.288 1.137-.288.437 0 .816.096 1.137.288.32.191.568.46.743.807.177.346.266.75.266 1.211 0 .461-.089.863-.266 1.208-.175.345-.422.613-.743.804-.32.192-.7.288-1.137.288zm.006-.842c.237 0 .435-.065.594-.195.16-.131.278-.308.356-.528.08-.221.12-.467.12-.738 0-.273-.04-.52-.12-.741-.078-.222-.196-.399-.356-.531-.159-.132-.357-.197-.594-.197-.243 0-.446.065-.607.197-.16.132-.279.309-.358.531-.078.221-.117.468-.117.741 0 .271.039.517.117.738.08.22.199.397.358.528.161.13.364.195.607.195zM39.623 113.976v-2.585h1.056v4.461h-1.023v-.793h-.047c-.101.25-.267.454-.499.613-.229.158-.512.238-.848.238-.294 0-.553-.065-.779-.195-.223-.131-.398-.322-.524-.572-.127-.251-.19-.555-.19-.912v-2.84h1.056v2.678c0 .282.077.507.233.673.155.167.36.25.612.25.156 0 .306-.038.452-.113.146-.076.265-.188.359-.337.095-.151.142-.34.142-.566zM42.175 115.852v-4.461h1.023v.744h.047c.082-.258.222-.456.42-.596.2-.141.428-.212.685-.212.058 0 .123.003.195.009.074.004.135.011.184.02v.967c-.045-.015-.116-.029-.213-.04-.095-.014-.187-.021-.277-.021-.192 0-.365.042-.519.125-.151.082-.271.195-.358.34-.088.145-.132.313-.132.502v2.623h-1.055zM48.334 109.904h1.324l1.773 4.31h.07l1.773-4.31h1.323v5.948H53.56v-4.086h-.055l-1.65 4.068h-.776l-1.65-4.077h-.055v4.095h-1.038v-5.948zM57.428 115.942c-.284 0-.54-.051-.767-.151-.225-.103-.404-.254-.536-.453-.13-.2-.196-.446-.196-.738 0-.252.047-.46.14-.624.093-.165.22-.296.382-.395.161-.099.343-.173.545-.224.204-.052.415-.09.633-.113.263-.027.475-.051.639-.073.163-.023.282-.058.355-.104.076-.049.114-.123.114-.224v-.017c0-.219-.065-.388-.195-.508s-.318-.18-.563-.18c-.259 0-.464.056-.615.168-.15.112-.251.245-.303.398l-.986-.14c.078-.271.206-.497.385-.679.179-.184.397-.322.656-.413.258-.092.544-.139.857-.139.216 0 .43.025.645.076.213.05.409.133.585.249.177.115.32.27.426.468.11.197.163.444.163.74v2.986h-1.014v-.613h-.035c-.064.124-.155.24-.271.349-.115.106-.26.192-.435.258-.173.064-.376.096-.61.096zm.274-.773c.212 0 .395-.041.551-.125.155-.085.275-.197.359-.336.085-.14.128-.292.128-.456v-.526c-.033.027-.09.052-.17.076-.077.023-.164.043-.262.061-.097.017-.193.032-.288.046l-.248.035c-.157.021-.298.056-.423.104-.124.049-.222.117-.294.204-.072.085-.108.195-.108.331 0 .193.07.339.213.438.142.099.322.148.542.148zM61.264 115.852v-4.461h1.024v.744h.046c.082-.258.222-.456.42-.596.2-.141.429-.212.685-.212.059 0 .124.003.196.009.074.004.135.011.184.02v.967c-.045-.015-.116-.029-.213-.04-.096-.014-.188-.021-.277-.021-.193 0-.366.042-.52.125-.151.082-.27.195-.358.34-.087.145-.131.313-.131.502v2.623h-1.056zM65.892 114.452l-.002-1.269h.169l1.609-1.792h1.233l-1.98 2.196h-.218l-.81.865zm-.962 1.4v-5.948h1.056v5.948H64.93zm2.81 0l-1.457-2.03.712-.741 2.008 2.771h-1.262zM71.814 115.939c-.45 0-.837-.093-1.164-.279-.324-.188-.574-.453-.75-.796-.174-.344-.262-.75-.262-1.216 0-.459.088-.862.263-1.208.177-.349.424-.62.74-.814.317-.195.69-.293 1.117-.293.276 0 .537.045.782.134.246.087.464.222.653.406.19.184.34.418.449.703.109.283.163.62.163 1.011v.322h-3.67v-.709h2.658c-.002-.201-.046-.38-.131-.537-.086-.159-.205-.283-.359-.374-.151-.091-.328-.137-.53-.137-.216 0-.406.052-.569.157-.163.102-.29.238-.382.406-.09.167-.135.35-.137.549v.619c0 .259.048.482.143.668.095.184.228.325.4.424.17.097.37.145.6.145.154 0 .293-.021.417-.064.124-.044.232-.109.324-.195.091-.085.16-.19.207-.316l.985.11c-.062.26-.18.486-.355.68-.174.192-.395.341-.665.447-.27.105-.58.157-.927.157zM77.345 111.391v.813H74.77v-.813h2.575zm-1.94-1.069h1.056v4.188c0 .141.022.25.064.325.045.074.103.124.175.151.072.027.152.041.24.041.066 0 .126-.005.18-.014.057-.01.1-.019.129-.027l.177.822c-.056.02-.137.041-.242.064-.103.023-.229.037-.379.041-.264.008-.502-.032-.714-.119-.212-.089-.38-.227-.504-.413-.123-.186-.183-.418-.181-.697v-4.362zM16.723 122.171v5.947h-1.081v-5.947h1.081zM19.314 125.505v2.613h-1.055v-4.46h1.008v.758h.053c.103-.25.267-.448.493-.596.227-.147.508-.22.842-.22.31 0 .578.066.808.197.231.132.41.323.536.572.129.25.192.553.19.909v2.84h-1.056v-2.677c0-.298-.077-.532-.233-.7-.153-.168-.366-.253-.638-.253-.185 0-.35.041-.493.122-.142.08-.254.195-.335.346-.08.151-.12.334-.12.549zM25.909 123.658v.813h-2.575v-.813h2.575zm-1.94-1.069h1.056v4.188c0 .141.022.25.064.325.045.074.103.124.175.151.072.027.152.041.24.041.065 0 .126-.005.18-.015.056-.01.1-.018.128-.026l.178.822c-.056.019-.137.041-.242.064-.103.023-.23.037-.379.04-.264.008-.502-.032-.714-.119-.212-.089-.38-.226-.505-.412-.122-.186-.182-.418-.18-.697v-4.362zM29.136 128.206c-.449 0-.836-.093-1.163-.279-.325-.188-.574-.453-.75-.796-.174-.345-.262-.75-.262-1.217 0-.459.088-.861.263-1.208.177-.348.424-.619.74-.813.317-.195.69-.293 1.117-.293.276 0 .537.044.781.133.247.087.465.223.654.407.19.184.34.418.449.703.108.282.163.619.163 1.01v.323h-3.671v-.709h2.66c-.003-.201-.047-.38-.132-.537-.086-.159-.205-.284-.359-.375-.151-.091-.328-.136-.53-.136-.216 0-.406.052-.569.157-.163.102-.29.238-.382.406-.09.167-.135.35-.137.549v.618c0 .26.048.483.143.668.095.184.228.326.4.424.17.097.37.146.6.146.154 0 .293-.022.417-.064.124-.045.232-.11.324-.195.09-.085.16-.191.207-.316l.985.11c-.062.259-.18.486-.356.68-.173.191-.394.34-.664.447-.27.104-.58.157-.928.157zM33.487 122.171v5.947H32.43v-5.947h1.056zM36.038 122.171v5.947h-1.055v-5.947h1.055zM37.534 128.118v-4.46h1.056v4.46h-1.056zm.53-5.093c-.169 0-.313-.055-.434-.166-.118-.112-.178-.247-.178-.403 0-.159.06-.294.181-.404.12-.112.264-.169.432-.169.167 0 .31.057.428.169.12.11.181.245.181.404 0 .156-.06.291-.18.403-.12.111-.262.166-.43.166zM42.033 129.867c-.379 0-.705-.051-.977-.151-.272-.101-.49-.236-.656-.404-.165-.168-.28-.353-.344-.555l.95-.229c.044.079.106.161.187.244.082.085.192.156.33.212.14.058.316.087.527.087.3 0 .548-.072.744-.215.196-.143.295-.375.295-.694v-.845h-.053c-.054.108-.134.22-.24.334-.102.114-.24.21-.41.287-.17.078-.382.117-.639.117-.344 0-.656-.081-.936-.241-.278-.163-.5-.405-.664-.726-.164-.324-.245-.728-.245-1.214 0-.49.081-.904.245-1.24.165-.339.387-.596.667-.77.28-.176.592-.264.936-.264.263 0 .478.044.648.133.17.087.307.193.408.317.1.122.178.237.23.345h.058v-.737h1.041v4.533c0 .374-.091.684-.274.932-.183.25-.432.436-.75.558-.316.124-.676.186-1.078.186zm.009-2.637c.223 0 .414-.054.571-.163.158-.108.277-.264.359-.467.081-.204.122-.448.122-.732 0-.281-.04-.527-.122-.738-.08-.211-.198-.374-.356-.491-.155-.118-.347-.177-.574-.177-.235 0-.432.061-.59.183-.157.122-.275.29-.355.503-.08.211-.12.451-.12.72 0 .273.04.512.12.717.082.203.201.362.359.476.16.113.354.169.586.169zM47.61 128.206c-.449 0-.837-.093-1.163-.279-.325-.188-.575-.453-.75-.796-.175-.345-.262-.75-.262-1.217 0-.459.087-.861.262-1.208.177-.348.424-.619.741-.813.317-.195.69-.293 1.117-.293.276 0 .536.044.781.133.247.087.465.223.653.407.19.184.34.418.45.703.108.282.163.619.163 1.01v.323H45.93v-.709h2.659c-.002-.201-.046-.38-.131-.537-.086-.159-.206-.284-.36-.375-.15-.091-.328-.136-.53-.136-.216 0-.405.052-.568.157-.163.102-.29.238-.382.406-.09.167-.135.35-.137.549v.618c0 .26.047.483.143.668.095.184.228.326.4.424.17.097.37.146.6.146.153 0 .292-.022.417-.064.124-.045.232-.11.323-.195.092-.085.16-.191.207-.316l.986.11c-.062.259-.181.486-.356.68-.173.191-.395.34-.665.447-.27.104-.579.157-.927.157zM51.96 125.505v2.613h-1.055v-4.46h1.009v.758h.052c.103-.25.267-.448.493-.596.227-.147.508-.22.843-.22.309 0 .578.066.807.197.232.132.41.323.537.572.128.25.191.553.19.909v2.84H53.78v-2.677c0-.298-.078-.532-.233-.7-.154-.168-.367-.253-.639-.253-.185 0-.349.041-.493.122-.142.08-.253.195-.335.346-.08.151-.12.334-.12.549zM58.272 128.206c-.447 0-.83-.098-1.151-.294-.32-.195-.565-.465-.738-.81-.171-.347-.257-.745-.257-1.196 0-.453.088-.853.263-1.2.175-.348.422-.619.74-.813.321-.195.7-.293 1.137-.293.364 0 .686.067.965.2.282.132.507.319.674.561.167.24.262.52.286.842h-1.009c-.04-.215-.138-.394-.292-.537-.151-.146-.354-.218-.609-.218-.216 0-.405.058-.569.174-.163.114-.29.279-.382.494-.089.215-.134.472-.134.772 0 .304.045.565.135.784.089.217.214.385.376.503.163.116.354.174.574.174.156 0 .294-.029.417-.087.124-.06.228-.146.312-.259.084-.112.14-.248.172-.409h1.009c-.026.315-.119.595-.28.839-.162.242-.381.432-.66.569-.277.136-.604.204-.979.204zM63.45 128.206c-.448 0-.836-.093-1.163-.279-.324-.188-.574-.453-.749-.796-.175-.345-.262-.75-.262-1.217 0-.459.087-.861.262-1.208.177-.348.424-.619.74-.813.317-.195.69-.293 1.117-.293.276 0 .537.044.782.133.246.087.464.223.653.407.19.184.34.418.449.703.109.282.163.619.163 1.01v.323h-3.67v-.709h2.658c-.002-.201-.045-.38-.13-.537-.086-.159-.206-.284-.36-.375-.151-.091-.328-.136-.53-.136-.216 0-.405.052-.569.157-.163.102-.29.238-.382.406-.09.167-.135.35-.137.549v.618c0 .26.048.483.143.668.095.184.229.326.4.424.17.097.37.146.6.146.154 0 .293-.022.417-.064.125-.045.233-.11.324-.195s.16-.191.207-.316l.985.11c-.062.259-.18.486-.355.68-.173.191-.395.34-.665.447-.27.104-.58.157-.927.157zM69.24 128.118v-5.947h2.239c.458 0 .843.085 1.154.256.313.17.55.404.709.702.161.297.242.633.242 1.011 0 .381-.081.72-.242 1.016-.162.297-.4.53-.715.7-.315.169-.702.253-1.163.253H69.98v-.886h1.338c.268 0 .488-.046.66-.139.17-.093.297-.221.378-.384.084-.162.126-.349.126-.56 0-.211-.042-.397-.126-.558-.081-.16-.209-.285-.382-.374-.17-.091-.392-.137-.662-.137h-.991v5.047h-1.082zM74.887 128.118v-4.46h1.023v.743h.047c.082-.257.222-.456.42-.595.2-.141.429-.212.685-.212.059 0 .124.003.195.009.074.004.136.01.184.02v.967c-.044-.015-.115-.029-.213-.041-.095-.013-.187-.02-.277-.02-.192 0-.365.042-.519.125-.151.081-.27.194-.358.34-.088.145-.131.312-.131.502v2.622h-1.056zM80.322 128.206c-.437 0-.816-.096-1.137-.288-.32-.192-.57-.46-.746-.804-.175-.345-.263-.748-.263-1.208 0-.461.088-.865.263-1.211.176-.347.425-.616.746-.808.32-.191.7-.287 1.137-.287.437 0 .816.096 1.137.287.32.192.569.461.744.808.176.346.265.75.265 1.211 0 .46-.089.863-.265 1.208-.175.344-.423.612-.744.804-.32.192-.7.288-1.137.288zm.006-.843c.237 0 .435-.064.595-.194.16-.132.278-.308.355-.529.08-.22.12-.466.12-.737 0-.273-.04-.52-.12-.741-.077-.223-.196-.4-.355-.531-.16-.132-.358-.198-.595-.198-.243 0-.445.066-.607.198-.159.131-.279.308-.358.531-.078.221-.117.468-.117.741 0 .271.039.517.117.737.08.221.199.397.358.529.162.13.364.194.607.194zM85.722 129.867c-.379 0-.705-.051-.977-.151-.272-.101-.49-.236-.656-.404-.165-.168-.28-.353-.344-.555l.95-.229c.043.079.106.161.187.244.082.085.192.156.33.212.14.058.316.087.528.087.299 0 .547-.072.743-.215.196-.143.294-.375.294-.694v-.845h-.052c-.054.108-.134.22-.24.334-.102.114-.24.21-.41.287-.17.078-.382.117-.639.117-.344 0-.656-.081-.936-.241-.278-.163-.5-.405-.664-.726-.164-.324-.245-.728-.245-1.214 0-.49.081-.904.245-1.24.165-.339.387-.596.667-.77.28-.176.592-.264.936-.264.263 0 .478.044.648.133.17.087.307.193.408.317.1.122.177.237.23.345h.058v-.737h1.041v4.533c0 .374-.091.684-.274.932-.183.25-.432.436-.75.558-.316.124-.676.186-1.078.186zm.009-2.637c.223 0 .414-.054.571-.163.158-.108.277-.264.359-.467.082-.204.122-.448.122-.732 0-.281-.04-.527-.122-.738-.08-.211-.198-.374-.356-.491-.155-.118-.347-.177-.574-.177-.235 0-.432.061-.59.183-.157.122-.275.29-.355.503-.08.211-.12.451-.12.72 0 .273.04.512.12.717.082.203.201.362.359.476.16.113.354.169.586.169zM89.316 128.118v-4.46h1.024v.743h.046c.082-.257.222-.456.42-.595.2-.141.429-.212.686-.212.058 0 .123.003.195.009.074.004.135.01.184.02v.967c-.045-.015-.116-.029-.213-.041-.096-.013-.188-.02-.277-.02-.193 0-.366.042-.52.125-.15.081-.27.194-.358.34-.087.145-.131.312-.131.502v2.622h-1.056zM94.183 128.208c-.284 0-.54-.05-.767-.151-.225-.102-.404-.253-.537-.453-.13-.199-.195-.445-.195-.737 0-.252.047-.46.14-.625.093-.164.22-.296.382-.395.161-.098.343-.173.545-.223.204-.052.415-.09.633-.113.262-.027.475-.052.639-.073.163-.023.281-.058.355-.105.076-.048.114-.122.114-.223v-.018c0-.218-.065-.388-.195-.508s-.318-.18-.563-.18c-.259 0-.464.056-.615.169-.15.112-.251.245-.303.397l-.986-.139c.078-.271.206-.497.385-.679.179-.184.397-.322.656-.413.258-.093.544-.139.857-.139.216 0 .43.025.644.075.214.051.41.134.587.25.176.114.318.27.425.468.109.197.163.444.163.74v2.985h-1.014v-.612h-.035c-.064.124-.155.24-.271.348-.115.107-.26.193-.435.259-.173.064-.376.095-.61.095zm.274-.772c.212 0 .396-.042.551-.125.156-.085.275-.197.359-.337.085-.139.128-.291.128-.456v-.525c-.033.027-.09.052-.17.075-.077.023-.164.044-.262.061-.097.018-.193.033-.288.047l-.248.034c-.158.022-.299.057-.423.105-.124.048-.222.116-.294.203-.072.085-.108.196-.108.331 0 .194.07.34.213.439.141.099.322.148.542.148zM98.02 128.118v-4.46h1.008v.758h.053c.093-.256.247-.455.463-.598.216-.146.473-.218.773-.218.303 0 .559.073.767.22.21.146.357.344.443.596h.046c.1-.248.267-.446.502-.593.237-.149.518-.223.843-.223.412 0 .748.129 1.008.389.261.259.391.638.391 1.135v2.994h-1.058v-2.831c0-.277-.074-.479-.222-.607-.148-.13-.328-.195-.542-.195-.255 0-.454.08-.598.239-.142.156-.213.361-.213.612v2.782h-1.035v-2.875c0-.23-.07-.414-.21-.551-.138-.138-.318-.207-.542-.207-.152 0-.29.039-.414.117-.124.075-.224.183-.297.322-.074.137-.111.298-.111.482v2.712h-1.056zM105.798 128.118v-4.46h1.009v.758h.053c.093-.256.248-.455.463-.598.216-.146.474-.218.773-.218.303 0 .559.073.767.22.21.146.357.344.443.596h.047c.099-.248.266-.446.501-.593.237-.149.518-.223.843-.223.412 0 .748.129 1.009.389.26.259.39.638.39 1.135v2.994h-1.058v-2.831c0-.277-.074-.479-.222-.607-.147-.13-.328-.195-.542-.195-.255 0-.454.08-.598.239-.142.156-.213.361-.213.612v2.782h-1.035v-2.875c0-.23-.07-.414-.21-.551-.138-.138-.318-.207-.542-.207-.152 0-.29.039-.414.117-.124.075-.223.183-.297.322-.074.137-.111.298-.111.482v2.712h-1.056zM115.56 128.206c-.449 0-.837-.093-1.163-.279-.325-.188-.574-.453-.749-.796-.175-.345-.263-.75-.263-1.217 0-.459.088-.861.263-1.208.176-.348.423-.619.74-.813.317-.195.689-.293 1.117-.293.276 0 .536.044.781.133.247.087.465.223.653.407.191.184.341.418.449.703.109.282.164.619.164 1.01v.323h-3.671v-.709h2.659c-.002-.201-.046-.38-.131-.537-.086-.159-.205-.284-.359-.375-.152-.091-.328-.136-.531-.136-.215 0-.405.052-.568.157-.163.102-.291.238-.382.406-.09.167-.135.35-.137.549v.618c0 .26.047.483.143.668.095.184.228.326.399.424.171.097.371.146.601.146.153 0 .292-.022.417-.064.124-.045.232-.11.323-.195.092-.085.161-.191.207-.316l.986.11c-.062.259-.181.486-.356.68-.173.191-.394.34-.665.447-.27.104-.579.157-.927.157zM15.053 100.178H69.79V100.859H15.053z"/>
    </g>
    <defs>
        <clipPath id="clip0">
            <path fill="#fff" d="M0 0h260v368H0V0z"/>
        </clipPath>
    </defs>
</svg>
