<?xml version="1.0" encoding="utf-8"?>
<!-- Generator: Adobe Illustrator 16.0.0, SVG Export Plug-In . SVG Version: 6.00 Build 0)  -->
<!DOCTYPE svg PUBLIC "-//W3C//DTD SVG 1.1//EN" "http://www.w3.org/Graphics/SVG/1.1/DTD/svg11.dtd">
<svg version="1.1" id="Layer_1" xmlns="http://www.w3.org/2000/svg" xmlns:xlink="http://www.w3.org/1999/xlink" x="0px" y="0px"
	 width="260px" height="368px" viewBox="10 15.5 260 368" enable-background="new 10 15.5 260 368" xml:space="preserve">
<g>
	<defs>
		<rect id="SVGID_1_" x="10" y="15.5" width="260" height="368"/>
	</defs>
	<clipPath id="SVGID_2_">
		<use xlink:href="#SVGID_1_"  overflow="visible"/>
	</clipPath>
	<g clip-path="url(#SVGID_2_)">
		<path fill="#DF5534" d="M10,15.5h260v368H10V15.5z"/>
		<path fill="#FFFFFF" fill-opacity="0.2" d="M209.107,104.094v44.29c24.558,0,44.474-19.824,44.474-44.29"/>
		<path fill="none" stroke="#FFFFFF" stroke-width="0.9254" d="M209.107,104.094v44.29c24.558,0,44.474-19.824,44.474-44.29H209.107
			z"/>
		<path fill="none" stroke="#FFFFFF" stroke-width="0.9254" d="M209.107,338.98v44.52c-24.558,0-44.477-19.942-44.477-44.52
			 M209.107,294.459v44.521c-24.558,0-44.477-19.945-44.477-44.521"/>
		<path fill="#1A1A1A" fill-opacity="0.2" d="M209.107,294.459v-44.522c24.558,0,44.474,19.922,44.474,44.522"/>
		<path fill="none" stroke="#FFFFFF" stroke-width="0.9254" d="M209.107,294.459v-44.522c24.558,0,44.474,19.922,44.474,44.522
			H209.107z"/>
		<path fill="#FFFFFF" fill-opacity="0.2" stroke="#FFFFFF" stroke-width="0.9254" d="M209.107,249.937h-44.477v44.522
			L209.107,249.937z M209.107,294.459h44.474v44.521L209.107,294.459z M209.107,338.98h44.474v44.52L209.107,338.98z"/>
		<path fill="none" stroke="#FFFFFF" stroke-width="0.9254" d="M253.583,205.636h-44.476v44.301L253.583,205.636L253.583,205.636z
			 M253.583,104.094h44.479V59.792L253.583,104.094L253.583,104.094z"/>
		<path fill="none" stroke="#FFFFFF" stroke-width="0.9254" d="M209.107,249.937c0-12.233-9.959-22.161-22.243-22.161
			c-12.273,0-22.233,9.928-22.233,22.161H209.107L209.107,249.937z M253.583,59.792c0-12.223-9.958-22.141-22.243-22.141
			c-12.274,0-22.232,9.918-22.232,22.141H253.583z M253.583,15.5c0,12.233-9.958,22.151-22.243,22.151
			c-12.274,0-22.232-9.918-22.232-22.151H253.583z M298.059,294.217c0-12.233-9.96-22.141-22.244-22.141
			c-12.281,0-22.233,9.907-22.233,22.141H298.059z M298.059,249.937c0,12.232-9.96,22.14-22.244,22.14
			c-12.281,0-22.233-9.907-22.233-22.14H298.059L298.059,249.937z M253.583,148.383c0,12.234-9.958,22.151-22.243,22.151
			c-12.274,0-22.232-9.917-22.232-22.151H253.583L253.583,148.383z"/>
		<path fill="#FFFFFF" fill-opacity="0.2" stroke="#FFFFFF" stroke-width="0.9254" d="M209.107,205.297
			c0-12.234-9.959-22.152-22.243-22.152c-12.273,0-22.233,9.918-22.233,22.152c0,12.232,9.96,22.139,22.233,22.139
			C199.148,227.436,209.107,217.529,209.107,205.297z"/>
		<path fill="none" stroke="#FFFFFF" stroke-width="0.9254" d="M209.107,148.383h-44.477v-44.29L209.107,148.383L209.107,148.383z"
			/>
		<path fill="#1A1A1A" fill-opacity="0.2" stroke="#FFFFFF" stroke-width="0.9254" d="M209.107,104.094h-44.477V59.792h44.477
			V104.094z"/>
		<path fill="#1A1A1A" fill-opacity="0.2" stroke="#FFFFFF" stroke-width="0.9254" d="M298.063,249.937h-44.479v-44.301h44.479
			V249.937z"/>
		<path fill="#1A1A1A" fill-opacity="0.2" stroke="#FFFFFF" stroke-width="0.9254" d="M209.107,15.5h-44.477v44.292L209.107,15.5z"
			/>
		<path opacity="0.2" fill="#FFFFFF" stroke="#FFFFFF" stroke-width="0.9254" enable-background="new    " d="M253.687,104.094
			c0,24.466,18.667,44.29,41.684,44.29s41.685-19.824,41.685-44.29H253.687z"/>
		<path opacity="0.2" fill="#1A1A1A" stroke="#FFFFFF" stroke-width="0.9254" enable-background="new    " d="M253.583,15.5
			c0,24.466,19.905,44.292,44.479,44.292c24.556,0,44.46-19.826,44.46-44.292H253.583z"/>
		<path fill="#FFFFFF" d="M31.941,64.98c-0.041-0.433-0.223-0.765-0.548-1.007c-0.325-0.23-0.762-0.357-1.319-0.357
			c-0.378,0-0.7,0.058-0.96,0.16c-0.259,0.108-0.458,0.25-0.598,0.435c-0.136,0.185-0.202,0.396-0.202,0.622
			c-0.006,0.197,0.032,0.367,0.124,0.521c0.091,0.144,0.217,0.266,0.38,0.369c0.161,0.109,0.343,0.193,0.552,0.277
			c0.214,0.079,0.438,0.135,0.675,0.192l0.983,0.237c0.481,0.103,0.915,0.242,1.316,0.418c0.401,0.178,0.744,0.399,1.039,0.663
			c0.296,0.252,0.518,0.555,0.677,0.907c0.164,0.359,0.252,0.755,0.254,1.215c-0.002,0.665-0.175,1.246-0.51,1.731
			c-0.341,0.484-0.825,0.863-1.459,1.139c-0.631,0.261-1.391,0.402-2.282,0.402c-0.884,0-1.653-0.143-2.311-0.408
			c-0.652-0.275-1.161-0.667-1.529-1.204c-0.363-0.534-0.55-1.188-0.569-1.976h2.238c0.027,0.365,0.13,0.678,0.319,0.917
			c0.185,0.244,0.437,0.428,0.752,0.548c0.314,0.128,0.672,0.181,1.071,0.181c0.392,0,0.731-0.049,1.021-0.169
			c0.295-0.109,0.519-0.267,0.682-0.47c0.164-0.205,0.24-0.439,0.24-0.696c0-0.25-0.076-0.457-0.218-0.624
			c-0.144-0.166-0.358-0.305-0.631-0.419c-0.275-0.125-0.615-0.226-1.008-0.328l-1.195-0.294c-0.925-0.226-1.652-0.576-2.188-1.047
			c-0.536-0.477-0.801-1.119-0.798-1.918c-0.002-0.669,0.175-1.249,0.531-1.739c0.358-0.489,0.858-0.877,1.484-1.148
			c0.627-0.283,1.337-0.418,2.137-0.418c0.809,0,1.522,0.135,2.126,0.418c0.608,0.271,1.082,0.659,1.423,1.148
			c0.336,0.49,0.514,1.065,0.524,1.722L31.941,64.98L31.941,64.98z M37.887,70.392l0.006-2.718h0.334l2.628-3.106h2.611
			l-3.532,4.108h-0.541L37.887,70.392z M35.828,72.739V61.84h2.277v10.9L35.828,72.739L35.828,72.739z M40.956,72.739L38.54,69.18
			l1.517-1.602l3.566,5.162L40.956,72.739L40.956,72.739z M44.589,72.739v-8.171h2.277v8.171H44.589z M45.737,63.514
			c-0.341,0-0.633-0.118-0.875-0.334c-0.241-0.229-0.363-0.507-0.363-0.82c0-0.309,0.121-0.583,0.363-0.798
			c0.242-0.229,0.531-0.34,0.871-0.34c0.341,0,0.632,0.11,0.87,0.34c0.243,0.216,0.364,0.489,0.364,0.798
			c0,0.313-0.12,0.591-0.364,0.82C46.366,63.396,46.075,63.515,45.737,63.514L45.737,63.514z M50.963,61.839v10.9h-2.276V61.84
			L50.963,61.839L50.963,61.839z M55.066,61.839v10.9H52.79V61.84L55.066,61.839L55.066,61.839z M63.723,66.899l-2.087,0.125
			c-0.029-0.178-0.112-0.336-0.229-0.475c-0.117-0.145-0.274-0.267-0.463-0.345c-0.191-0.094-0.416-0.13-0.681-0.13
			c-0.351,0-0.65,0.067-0.894,0.214c-0.24,0.151-0.362,0.34-0.362,0.588c0,0.197,0.076,0.36,0.233,0.493
			c0.161,0.143,0.429,0.247,0.811,0.329l1.484,0.299c0.801,0.162,1.393,0.42,1.786,0.781c0.393,0.361,0.586,0.845,0.586,1.436
			c0,0.537-0.155,1.003-0.475,1.411c-0.31,0.396-0.744,0.719-1.295,0.939c-0.541,0.226-1.169,0.344-1.886,0.344
			c-1.084,0-1.949-0.227-2.594-0.683c-0.642-0.449-1.018-1.072-1.127-1.846l2.238-0.123c0.064,0.328,0.23,0.583,0.491,0.758
			c0.261,0.169,0.592,0.259,0.998,0.259c0.401,0,0.718-0.081,0.969-0.231c0.243-0.155,0.368-0.355,0.371-0.605
			c-0.004-0.208-0.095-0.375-0.263-0.504c-0.172-0.132-0.437-0.242-0.792-0.305l-1.424-0.289c-0.804-0.159-1.398-0.431-1.792-0.826
			c-0.388-0.397-0.579-0.896-0.579-1.512c0-0.524,0.144-0.971,0.423-1.352c0.29-0.382,0.697-0.671,1.218-0.878
			c0.523-0.208,1.136-0.307,1.835-0.307c1.038,0,1.857,0.211,2.45,0.652C63.271,65.546,63.624,66.144,63.723,66.899L63.723,66.899z
			 M74.811,64.98c-0.044-0.433-0.23-0.765-0.552-1.007c-0.329-0.23-0.765-0.357-1.323-0.357c-0.378,0-0.694,0.058-0.953,0.16
			c-0.261,0.108-0.465,0.25-0.599,0.435s-0.207,0.396-0.207,0.622C71.17,65.03,71.213,65.2,71.3,65.354
			c0.092,0.144,0.218,0.266,0.379,0.369c0.164,0.109,0.344,0.193,0.559,0.277c0.208,0.079,0.432,0.135,0.669,0.192l0.988,0.237
			c0.476,0.103,0.915,0.242,1.311,0.418c0.399,0.178,0.747,0.399,1.038,0.663c0.295,0.252,0.519,0.555,0.682,0.907
			c0.166,0.359,0.248,0.755,0.25,1.215c-0.003,0.665-0.176,1.246-0.513,1.731c-0.33,0.484-0.823,0.863-1.457,1.139
			c-0.631,0.261-1.391,0.402-2.282,0.402c-0.884,0-1.653-0.143-2.303-0.408c-0.655-0.275-1.164-0.667-1.531-1.204
			c-0.369-0.534-0.556-1.188-0.575-1.976h2.238c0.026,0.365,0.13,0.678,0.319,0.917c0.185,0.244,0.439,0.428,0.752,0.548
			c0.32,0.128,0.678,0.181,1.079,0.181c0.385,0,0.729-0.049,1.019-0.169c0.289-0.109,0.514-0.267,0.675-0.47
			c0.164-0.205,0.241-0.439,0.241-0.696c0-0.25-0.071-0.457-0.218-0.624c-0.143-0.166-0.351-0.305-0.631-0.419
			c-0.275-0.125-0.609-0.226-1.009-0.328l-1.195-0.294c-0.919-0.226-1.652-0.576-2.18-1.047c-0.538-0.477-0.803-1.119-0.799-1.918
			c-0.004-0.669,0.168-1.249,0.53-1.739c0.359-0.489,0.852-0.877,1.479-1.148c0.627-0.283,1.337-0.418,2.137-0.418
			c0.815,0,1.522,0.135,2.126,0.418c0.614,0.271,1.087,0.659,1.423,1.148c0.341,0.49,0.513,1.065,0.525,1.722L74.811,64.98
			L74.811,64.98z M83.953,69.265v-4.697h2.284v8.171h-2.189v-1.477h-0.089c-0.182,0.476-0.492,0.863-0.921,1.15
			c-0.429,0.297-0.952,0.441-1.567,0.441c-0.55,0-1.032-0.124-1.451-0.374c-0.414-0.253-0.742-0.605-0.978-1.059
			c-0.23-0.464-0.347-1.012-0.351-1.647v-5.206h2.277v4.799c0.003,0.488,0.133,0.862,0.391,1.148
			c0.256,0.276,0.598,0.417,1.031,0.417c0.275,0,0.533-0.059,0.771-0.181c0.239-0.135,0.428-0.323,0.574-0.564
			C83.886,69.934,83.956,69.631,83.953,69.265L83.953,69.265z M88.053,75.807V64.568h2.247v1.37h0.104
			c0.099-0.217,0.244-0.439,0.43-0.669c0.195-0.233,0.445-0.426,0.748-0.578c0.313-0.154,0.698-0.227,1.155-0.227
			c0.603,0,1.151,0.156,1.657,0.465c0.506,0.305,0.911,0.779,1.216,1.398c0.301,0.626,0.453,1.398,0.453,2.337
			c0,0.913-0.149,1.687-0.44,2.31c-0.294,0.63-0.695,1.099-1.201,1.42c-0.501,0.329-1.067,0.487-1.69,0.487
			c-0.439,0-0.814-0.079-1.127-0.22c-0.303-0.145-0.554-0.327-0.754-0.549c-0.193-0.227-0.343-0.455-0.446-0.675H90.33v4.37H88.053
			L88.053,75.807z M90.285,68.653c0,0.484,0.066,0.911,0.202,1.274c0.135,0.361,0.328,0.646,0.585,0.844
			c0.256,0.2,0.571,0.305,0.937,0.305c0.371,0,0.687-0.107,0.943-0.312c0.257-0.194,0.448-0.486,0.581-0.848
			c0.136-0.366,0.2-0.779,0.2-1.262c0-0.467-0.062-0.887-0.195-1.244c-0.131-0.36-0.319-0.634-0.58-0.838
			c-0.256-0.205-0.575-0.31-0.949-0.31c-0.37,0-0.687,0.103-0.943,0.299c-0.253,0.195-0.444,0.467-0.581,0.825
			C90.351,67.744,90.286,68.171,90.285,68.653L90.285,68.653z M97.579,75.807V64.568h2.243v1.37h0.106
			c0.099-0.217,0.244-0.439,0.43-0.669c0.194-0.233,0.445-0.426,0.748-0.578c0.313-0.154,0.698-0.227,1.155-0.227
			c0.606,0,1.151,0.156,1.657,0.465c0.506,0.305,0.911,0.779,1.217,1.398c0.299,0.626,0.451,1.398,0.451,2.337
			c0,0.913-0.148,1.687-0.44,2.31c-0.294,0.63-0.694,1.099-1.2,1.42c-0.503,0.329-1.068,0.487-1.691,0.487
			c-0.438,0-0.814-0.079-1.127-0.22c-0.303-0.145-0.553-0.327-0.754-0.549c-0.192-0.227-0.343-0.455-0.445-0.675h-0.073v4.37H97.579
			L97.579,75.807z M99.811,68.653c0,0.484,0.065,0.911,0.201,1.274c0.136,0.361,0.329,0.646,0.585,0.844
			c0.257,0.2,0.572,0.305,0.938,0.305c0.371,0,0.687-0.107,0.944-0.312c0.257-0.194,0.448-0.486,0.58-0.848
			c0.136-0.366,0.201-0.779,0.201-1.262c0-0.467-0.063-0.887-0.195-1.244c-0.132-0.36-0.324-0.634-0.578-0.838
			c-0.259-0.205-0.578-0.31-0.952-0.31c-0.37,0-0.686,0.103-0.943,0.299c-0.252,0.195-0.443,0.467-0.58,0.825
			C99.876,67.744,99.811,68.171,99.811,68.653z M109.381,61.839v10.9h-2.276V61.84L109.381,61.839L109.381,61.839z M112.613,75.79
			c-0.289,0-0.562-0.013-0.815-0.062c-0.249-0.045-0.453-0.102-0.618-0.159l0.513-1.704c0.404,0.122,0.74,0.156,1.016,0.102
			c0.279-0.06,0.496-0.275,0.659-0.645l0.133-0.345l-2.946-8.409h2.394l1.703,6.005h0.083l1.717-6.005l2.413,0.011l-3.193,9.048
			c-0.154,0.437-0.361,0.819-0.624,1.139c-0.26,0.325-0.594,0.582-0.994,0.759C113.659,75.705,113.174,75.79,112.613,75.79z
			 M28.304,89.259c-0.524,0-0.99-0.096-1.4-0.277c-0.412-0.185-0.733-0.451-0.972-0.809c-0.24-0.363-0.357-0.82-0.357-1.359
			c0-0.448,0.087-0.831,0.25-1.147c0.17-0.307,0.397-0.548,0.688-0.737c0.289-0.189,0.615-0.339,0.981-0.43
			c0.372-0.092,0.759-0.162,1.167-0.205c0.476-0.051,0.861-0.089,1.155-0.135c0.294-0.049,0.504-0.111,0.636-0.203
			c0.132-0.087,0.195-0.224,0.195-0.397v-0.033c0-0.336-0.106-0.592-0.317-0.776c-0.207-0.185-0.51-0.283-0.899-0.283
			c-0.411,0-0.736,0.096-0.977,0.277c-0.241,0.178-0.403,0.403-0.486,0.667l-2.104-0.169c0.106-0.494,0.321-0.929,0.631-1.291
			c0.316-0.365,0.716-0.641,1.215-0.836c0.5-0.201,1.075-0.302,1.731-0.302c0.455,0,0.893,0.052,1.312,0.166
			c0.416,0.101,0.789,0.265,1.115,0.493c0.326,0.226,0.584,0.509,0.776,0.859c0.185,0.347,0.279,0.769,0.279,1.25v5.512h-2.16
			v-1.126h-0.062c-0.131,0.25-0.31,0.478-0.53,0.674c-0.219,0.192-0.485,0.341-0.798,0.447
			C29.069,89.203,28.711,89.259,28.304,89.259L28.304,89.259z M28.958,87.687c0.332,0,0.63-0.059,0.887-0.198
			c0.256-0.133,0.455-0.314,0.603-0.545c0.147-0.218,0.218-0.481,0.218-0.763v-0.873c-0.068,0.045-0.165,0.09-0.287,0.132
			c-0.126,0.038-0.261,0.062-0.415,0.096c-0.155,0.029-0.31,0.06-0.464,0.086l-0.414,0.05c-0.266,0.041-0.499,0.109-0.702,0.187
			c-0.197,0.09-0.353,0.202-0.462,0.348c-0.112,0.147-0.168,0.326-0.168,0.539c0,0.307,0.112,0.538,0.341,0.708
			C28.319,87.612,28.603,87.687,28.958,87.687L28.958,87.687z M36.975,84.375v4.72h-2.28v-8.172h2.167v1.443h0.101
			c0.178-0.474,0.486-0.849,0.909-1.132c0.429-0.275,0.95-0.42,1.558-0.42c0.573,0,1.07,0.128,1.49,0.37
			c0.425,0.253,0.758,0.607,0.994,1.068c0.234,0.46,0.352,1.008,0.352,1.637v5.207h-2.278v-4.8c0.004-0.498-0.124-0.89-0.385-1.165
			c-0.26-0.291-0.618-0.431-1.077-0.431c-0.304,0-0.575,0.07-0.81,0.199c-0.229,0.127-0.415,0.319-0.547,0.576
			C37.04,83.717,36.979,84.024,36.975,84.375z M47.083,89.236c-0.623,0-1.191-0.158-1.696-0.487
			c-0.503-0.321-0.902-0.789-1.195-1.42c-0.293-0.623-0.441-1.396-0.441-2.31c0-0.939,0.153-1.71,0.459-2.337
			c0.298-0.618,0.703-1.091,1.204-1.396c0.506-0.311,1.063-0.472,1.663-0.472c0.458,0,0.841,0.078,1.15,0.234
			c0.307,0.15,0.559,0.343,0.748,0.577c0.192,0.229,0.337,0.449,0.441,0.669h0.067v-4.098h2.271v10.9h-2.243v-1.302h-0.095
			c-0.112,0.219-0.258,0.447-0.458,0.674c-0.189,0.223-0.44,0.405-0.753,0.549C47.897,89.159,47.522,89.236,47.083,89.236z
			 M47.803,87.431c0.367,0,0.68-0.105,0.932-0.305c0.258-0.201,0.451-0.481,0.587-0.844c0.139-0.362,0.211-0.79,0.211-1.273
			c0-0.482-0.071-0.91-0.207-1.267c-0.134-0.36-0.329-0.631-0.585-0.826c-0.256-0.197-0.571-0.301-0.938-0.301
			c-0.374,0-0.686,0.108-0.944,0.312c-0.256,0.203-0.454,0.478-0.585,0.837c-0.132,0.357-0.195,0.778-0.195,1.245
			c0,0.477,0.063,0.896,0.195,1.262c0.135,0.362,0.333,0.652,0.586,0.849C47.117,87.325,47.43,87.432,47.803,87.431L47.803,87.431z
			 M61.034,89.095h-3.879v-10.9h3.913c1.099,0,2.049,0.221,2.84,0.651c0.796,0.438,1.406,1.065,1.837,1.873
			c0.433,0.813,0.646,1.785,0.646,2.92c0,1.129-0.213,2.109-0.646,2.925c-0.43,0.818-1.045,1.439-1.848,1.88
			C63.103,88.886,62.146,89.095,61.034,89.095z M59.466,87.12h1.474c0.68,0,1.259-0.117,1.724-0.362
			c0.469-0.238,0.826-0.617,1.061-1.127c0.238-0.513,0.357-1.185,0.357-1.992c0-0.811-0.121-1.465-0.357-1.975
			c-0.235-0.51-0.591-0.888-1.055-1.132c-0.465-0.246-1.043-0.363-1.725-0.363h-1.479V87.12L59.466,87.12z M71.803,89.261
			c-0.843,0-1.566-0.177-2.181-0.516c-0.605-0.343-1.07-0.826-1.401-1.459c-0.325-0.627-0.491-1.377-0.491-2.236
			c0-0.838,0.166-1.579,0.491-2.218c0.332-0.631,0.79-1.123,1.386-1.478c0.601-0.358,1.299-0.54,2.107-0.54
			c0.543,0,1.047,0.088,1.513,0.261c0.469,0.17,0.879,0.432,1.227,0.776c0.357,0.344,0.627,0.769,0.826,1.3
			c0.193,0.519,0.293,1.119,0.293,1.812v0.629h-6.935v-1.404h4.789c0-0.324-0.069-0.621-0.212-0.866
			c-0.144-0.257-0.339-0.455-0.592-0.594c-0.25-0.145-0.541-0.222-0.87-0.222c-0.351,0-0.654,0.086-0.921,0.244
			c-0.264,0.156-0.465,0.367-0.62,0.628c-0.149,0.268-0.226,0.556-0.226,0.878v1.34c0,0.408,0.069,0.756,0.221,1.047
			c0.154,0.291,0.368,0.52,0.647,0.68c0.275,0.158,0.606,0.244,0.988,0.244c0.252,0,0.483-0.04,0.691-0.104
			c0.214-0.075,0.391-0.181,0.541-0.328c0.152-0.139,0.264-0.313,0.341-0.521l2.11,0.136c-0.106,0.513-0.33,0.947-0.659,1.324
			c-0.325,0.374-0.751,0.661-1.272,0.872C73.077,89.154,72.482,89.261,71.803,89.261L71.803,89.261z M77.06,89.095v-8.172h2.17
			v1.443h0.096c0.172-0.475,0.453-0.855,0.852-1.139c0.4-0.272,0.877-0.414,1.436-0.414c0.562,0,1.042,0.145,1.439,0.42
			c0.392,0.283,0.654,0.658,0.787,1.133h0.089c0.164-0.474,0.47-0.841,0.912-1.128c0.437-0.278,0.96-0.425,1.56-0.425
			c0.767,0,1.389,0.243,1.868,0.725c0.483,0.492,0.723,1.175,0.723,2.061v5.495h-2.272v-5.047c0-0.456-0.121-0.795-0.362-1.026
			c-0.247-0.229-0.546-0.34-0.911-0.34c-0.414,0-0.733,0.129-0.971,0.398c-0.231,0.253-0.346,0.605-0.346,1.023v4.992h-2.208v-5.093
			c0-0.404-0.117-0.72-0.348-0.964c-0.226-0.24-0.53-0.356-0.904-0.356c-0.252,0-0.48,0.069-0.68,0.193
			c-0.202,0.121-0.354,0.296-0.481,0.526c-0.116,0.228-0.172,0.483-0.172,0.793v4.901H77.06L77.06,89.095z M93.128,89.259
			c-0.524,0-0.989-0.096-1.4-0.277c-0.41-0.185-0.732-0.451-0.971-0.809c-0.235-0.363-0.352-0.82-0.352-1.359
			c0-0.448,0.082-0.831,0.25-1.147c0.165-0.307,0.398-0.548,0.683-0.737c0.289-0.189,0.615-0.339,0.987-0.43
			c0.37-0.092,0.759-0.162,1.161-0.205c0.481-0.051,0.867-0.089,1.155-0.135c0.294-0.049,0.504-0.111,0.636-0.203
			c0.131-0.087,0.2-0.224,0.2-0.397v-0.033c0-0.336-0.105-0.592-0.323-0.776c-0.208-0.185-0.509-0.283-0.898-0.283
			c-0.406,0-0.736,0.096-0.977,0.277c-0.241,0.178-0.403,0.403-0.479,0.667l-2.109-0.169c0.112-0.494,0.321-0.929,0.631-1.291
			c0.316-0.365,0.722-0.641,1.217-0.836c0.498-0.201,1.073-0.302,1.729-0.302c0.461,0,0.894,0.052,1.312,0.166
			c0.423,0.101,0.795,0.265,1.116,0.493c0.333,0.226,0.587,0.509,0.775,0.859c0.192,0.347,0.286,0.769,0.286,1.25v5.512h-2.16
			v-1.126h-0.068c-0.131,0.25-0.305,0.478-0.529,0.674c-0.22,0.192-0.485,0.341-0.793,0.447
			C93.894,89.203,93.536,89.259,93.128,89.259L93.128,89.259z M93.782,87.687c0.332,0,0.63-0.059,0.887-0.198
			c0.256-0.133,0.457-0.314,0.603-0.545c0.147-0.218,0.224-0.481,0.224-0.763v-0.873c-0.075,0.045-0.171,0.09-0.296,0.132
			c-0.12,0.038-0.258,0.062-0.414,0.096c-0.154,0.029-0.302,0.06-0.457,0.086l-0.419,0.05c-0.268,0.041-0.5,0.109-0.697,0.187
			c-0.203,0.09-0.358,0.202-0.469,0.348c-0.11,0.147-0.159,0.326-0.159,0.539c0,0.307,0.108,0.538,0.333,0.708
			C93.144,87.612,93.434,87.687,93.782,87.687z M101.797,84.375v4.72h-2.276v-8.172h2.17v1.443h0.095
			c0.185-0.474,0.485-0.849,0.915-1.132c0.424-0.275,0.943-0.42,1.557-0.42c0.568,0,1.064,0.128,1.491,0.37
			c0.42,0.253,0.753,0.607,0.988,1.068c0.234,0.46,0.351,1.008,0.351,1.637v5.207h-2.277v-4.8c0.003-0.498-0.125-0.89-0.385-1.165
			c-0.259-0.291-0.618-0.431-1.071-0.431c-0.309,0-0.581,0.07-0.815,0.199c-0.23,0.127-0.416,0.319-0.548,0.576
			C101.864,83.717,101.801,84.024,101.797,84.375z M111.908,89.236c-0.623,0-1.185-0.158-1.69-0.487
			c-0.503-0.321-0.902-0.789-1.201-1.42c-0.294-0.623-0.436-1.396-0.436-2.31c0-0.939,0.148-1.71,0.453-2.337
			c0.309-0.618,0.703-1.091,1.205-1.396c0.506-0.311,1.062-0.472,1.664-0.472c0.462,0,0.845,0.078,1.149,0.234
			c0.313,0.15,0.563,0.343,0.748,0.577c0.196,0.229,0.342,0.449,0.441,0.669h0.067v-4.098h2.272v10.9h-2.245v-1.302h-0.094
			c-0.106,0.219-0.258,0.447-0.454,0.674c-0.193,0.223-0.445,0.405-0.758,0.549C112.726,89.159,112.353,89.236,111.908,89.236
			L111.908,89.236z M112.634,87.431c0.366,0,0.673-0.105,0.926-0.305c0.257-0.201,0.456-0.481,0.591-0.844
			c0.142-0.362,0.207-0.79,0.207-1.273c0-0.482-0.063-0.91-0.201-1.267c-0.136-0.36-0.335-0.631-0.592-0.826
			c-0.257-0.197-0.565-0.301-0.931-0.301c-0.372,0-0.692,0.108-0.949,0.312c-0.257,0.203-0.448,0.478-0.581,0.837
			c-0.132,0.357-0.201,0.778-0.201,1.245c0,0.477,0.069,0.896,0.201,1.262c0.136,0.362,0.327,0.652,0.581,0.849
			C111.941,87.325,112.262,87.432,112.634,87.431L112.634,87.431z M121.936,89.095v-8.172h2.276v8.172H121.936z M123.084,79.871
			c-0.335,0-0.628-0.119-0.87-0.335c-0.242-0.229-0.362-0.507-0.362-0.82c0-0.308,0.12-0.583,0.362-0.797
			c0.242-0.23,0.533-0.34,0.866-0.34c0.346,0,0.632,0.109,0.87,0.34c0.247,0.215,0.369,0.489,0.369,0.797
			c0,0.313-0.122,0.591-0.369,0.82C123.712,79.751,123.428,79.871,123.084,79.871z M128.315,84.375v4.72h-2.276v-8.172h2.171v1.443
			h0.093c0.185-0.474,0.487-0.849,0.917-1.132c0.429-0.275,0.945-0.42,1.556-0.42c0.567,0,1.064,0.128,1.49,0.37
			c0.426,0.253,0.753,0.607,0.987,1.068c0.235,0.46,0.353,1.008,0.353,1.637v5.207h-2.276v-4.8c0.003-0.498-0.125-0.89-0.386-1.165
			c-0.26-0.291-0.618-0.431-1.071-0.431c-0.309,0-0.581,0.07-0.815,0.199c-0.23,0.127-0.415,0.319-0.544,0.576
			C128.386,83.717,128.319,84.024,128.315,84.375L128.315,84.375z M31.941,97.692c-0.041-0.434-0.223-0.765-0.548-1.007
			c-0.325-0.236-0.762-0.356-1.319-0.356c-0.378,0-0.7,0.057-0.96,0.159c-0.259,0.109-0.458,0.251-0.598,0.436
			c-0.136,0.185-0.202,0.396-0.202,0.621c-0.006,0.198,0.032,0.367,0.124,0.52c0.091,0.145,0.217,0.267,0.38,0.369
			c0.161,0.111,0.343,0.195,0.552,0.277c0.214,0.073,0.438,0.135,0.675,0.193l0.983,0.238c0.481,0.101,0.915,0.242,1.316,0.418
			s0.744,0.398,1.039,0.661c0.296,0.253,0.518,0.556,0.677,0.907c0.164,0.352,0.252,0.756,0.254,1.216
			c-0.002,0.665-0.175,1.246-0.51,1.732c-0.341,0.483-0.825,0.862-1.459,1.138c-0.631,0.261-1.391,0.398-2.282,0.398
			c-0.884,0-1.653-0.139-2.311-0.404c-0.652-0.275-1.161-0.674-1.529-1.205c-0.363-0.532-0.55-1.187-0.569-1.976h2.238
			c0.027,0.367,0.13,0.68,0.319,0.917c0.185,0.246,0.437,0.428,0.752,0.55c0.314,0.127,0.672,0.181,1.071,0.181
			c0.392,0,0.731-0.05,1.021-0.171c0.295-0.108,0.519-0.266,0.682-0.468c0.164-0.205,0.24-0.44,0.24-0.698
			c0-0.249-0.076-0.456-0.218-0.623c-0.144-0.166-0.358-0.304-0.631-0.417c-0.275-0.125-0.615-0.227-1.008-0.328l-1.195-0.295
			c-0.925-0.227-1.652-0.575-2.188-1.047c-0.536-0.483-0.801-1.119-0.798-1.922c-0.002-0.665,0.175-1.242,0.531-1.734
			c0.358-0.49,0.858-0.876,1.484-1.147c0.627-0.283,1.337-0.418,2.137-0.418c0.809,0,1.522,0.135,2.126,0.418
			c0.608,0.271,1.082,0.658,1.423,1.147c0.336,0.491,0.514,1.065,0.524,1.721H31.941z M39.533,105.612
			c-0.827,0-1.543-0.178-2.154-0.529c-0.601-0.354-1.064-0.846-1.395-1.472c-0.325-0.642-0.492-1.378-0.492-2.213
			c0-0.841,0.167-1.58,0.492-2.218c0.331-0.63,0.794-1.121,1.395-1.476c0.611-0.359,1.327-0.538,2.154-0.538
			c0.833,0,1.548,0.179,2.148,0.538c0.611,0.354,1.076,0.845,1.401,1.476c0.332,0.638,0.499,1.377,0.499,2.218
			c0,0.835-0.167,1.571-0.499,2.213c-0.325,0.626-0.791,1.117-1.401,1.472C41.081,105.434,40.367,105.612,39.533,105.612z
			 M39.545,103.855c0.378,0,0.695-0.101,0.949-0.317c0.252-0.218,0.44-0.509,0.569-0.882c0.132-0.374,0.201-0.802,0.201-1.274
			c0-0.472-0.068-0.9-0.201-1.274c-0.129-0.373-0.317-0.662-0.569-0.882c-0.253-0.218-0.571-0.322-0.95-0.322
			c-0.38,0-0.698,0.104-0.958,0.322c-0.257,0.22-0.455,0.509-0.587,0.883c-0.128,0.373-0.188,0.801-0.188,1.274
			c0,0.471,0.061,0.899,0.188,1.273c0.132,0.374,0.33,0.664,0.587,0.882C38.846,103.753,39.164,103.855,39.545,103.855z
			 M50.32,101.976V97.28h2.277v8.171h-2.182v-1.477h-0.089c-0.183,0.476-0.494,0.862-0.921,1.148
			c-0.429,0.299-0.953,0.443-1.568,0.443c-0.549,0-1.032-0.132-1.451-0.373c-0.413-0.254-0.742-0.607-0.977-1.06
			c-0.23-0.463-0.347-1.012-0.351-1.646V97.28h2.276v4.798c0.004,0.48,0.134,0.862,0.391,1.149c0.257,0.274,0.598,0.412,1.031,0.412
			c0.277,0,0.535-0.054,0.771-0.183c0.238-0.127,0.428-0.316,0.574-0.557C50.253,102.646,50.324,102.341,50.32,101.976
			L50.32,101.976z M58.79,97.279v1.698h-4.944V97.28L58.79,97.279L58.79,97.279z M54.967,95.321h2.277v7.617
			c0,0.211,0.034,0.375,0.094,0.499c0.068,0.109,0.155,0.195,0.269,0.233c0.117,0.048,0.252,0.072,0.407,0.072
			c0.105,0,0.211-0.01,0.318-0.029l0.245-0.05l0.364,1.692c-0.121,0.037-0.276,0.077-0.486,0.119
			c-0.204,0.052-0.456,0.085-0.753,0.095c-0.544,0.022-1.031-0.054-1.44-0.22c-0.411-0.166-0.733-0.43-0.96-0.781
			c-0.227-0.352-0.338-0.79-0.334-1.325V95.321z M62.726,100.731v4.72H60.45v-10.9h2.21v4.172h0.094
			c0.189-0.48,0.49-0.859,0.899-1.139c0.415-0.271,0.934-0.417,1.557-0.417c0.573,0,1.069,0.131,1.49,0.372
			c0.429,0.25,0.758,0.601,0.998,1.065c0.239,0.457,0.355,1.005,0.352,1.641v5.206h-2.277v-4.8c0.004-0.501-0.124-0.896-0.385-1.171
			c-0.257-0.288-0.615-0.425-1.083-0.425c-0.307,0-0.582,0.071-0.82,0.199c-0.233,0.127-0.422,0.32-0.559,0.576
			c-0.132,0.243-0.196,0.549-0.2,0.9H62.726z M75.254,105.451H72.78l3.775-10.9h2.979l3.782,10.9H80.83l-2.74-8.41H78
			L75.254,105.451z M75.098,101.166h5.86v1.8h-5.86v-1.798V101.166z M88.838,97.279v1.698h-5.066V97.28L88.838,97.279L88.838,97.279
			z M84.933,105.451v-8.767c0-0.596,0.116-1.085,0.345-1.478c0.235-0.38,0.559-0.68,0.96-0.876c0.408-0.196,0.873-0.288,1.39-0.288
			c0.348,0,0.664,0.028,0.953,0.072c0.294,0.057,0.511,0.108,0.654,0.153l-0.409,1.698c-0.086-0.029-0.196-0.056-0.328-0.073
			c-0.128-0.027-0.261-0.039-0.396-0.039c-0.339,0-0.571,0.071-0.703,0.235c-0.132,0.152-0.196,0.359-0.196,0.641v8.721H84.933z
			 M90.229,105.451v-8.172h2.21v1.426h0.084c0.151-0.505,0.401-0.889,0.753-1.154c0.352-0.256,0.758-0.385,1.216-0.385
			c0.121,0,0.242,0.001,0.377,0.011c0.127,0.015,0.245,0.035,0.343,0.062v2.016c-0.106-0.035-0.254-0.064-0.447-0.091
			c-0.186-0.021-0.361-0.028-0.519-0.028c-0.332,0-0.634,0.065-0.898,0.209c-0.256,0.151-0.466,0.34-0.619,0.599
			c-0.145,0.261-0.224,0.551-0.224,0.883v4.624H90.229z M96.393,105.451v-8.172h2.276v8.172H96.393z M97.536,96.226
			c-0.338,0-0.63-0.118-0.871-0.333c-0.242-0.229-0.364-0.507-0.364-0.821c0-0.309,0.121-0.583,0.364-0.798
			c0.24-0.229,0.53-0.341,0.871-0.341s0.634,0.112,0.87,0.341c0.241,0.215,0.364,0.489,0.364,0.798c0,0.313-0.122,0.591-0.364,0.821
			C98.17,96.107,97.879,96.227,97.536,96.226L97.536,96.226z M104.2,105.612c-0.839,0-1.566-0.18-2.171-0.535
			c-0.601-0.358-1.065-0.852-1.39-1.482c-0.317-0.642-0.479-1.373-0.479-2.196c0-0.833,0.166-1.569,0.486-2.208
			c0.325-0.629,0.794-1.126,1.395-1.485c0.602-0.359,1.321-0.539,2.149-0.539c0.714,0,1.345,0.136,1.881,0.389
			c0.539,0.264,0.967,0.629,1.277,1.093c0.315,0.475,0.485,1.025,0.519,1.652h-2.148c-0.056-0.411-0.219-0.739-0.479-0.98
			c-0.257-0.256-0.592-0.379-1.01-0.379c-0.352,0-0.663,0.09-0.927,0.283c-0.26,0.189-0.461,0.459-0.607,0.821
			c-0.148,0.362-0.218,0.806-0.218,1.319c0,0.521,0.068,0.971,0.212,1.335c0.146,0.366,0.349,0.639,0.613,0.832
			s0.576,0.284,0.927,0.284c0.259,0,0.492-0.046,0.697-0.159c0.213-0.102,0.383-0.254,0.518-0.458
			c0.14-0.209,0.229-0.459,0.274-0.742h2.148c-0.037,0.63-0.205,1.179-0.514,1.654c-0.296,0.467-0.719,0.836-1.254,1.107
			C105.562,105.479,104.929,105.612,104.2,105.612L104.2,105.612z M111.665,105.611c-0.525,0-0.989-0.093-1.401-0.273
			c-0.411-0.185-0.732-0.45-0.969-0.809c-0.236-0.363-0.353-0.819-0.353-1.358c0-0.449,0.082-0.833,0.25-1.149
			c0.165-0.306,0.397-0.547,0.682-0.736c0.29-0.189,0.615-0.34,0.987-0.429c0.37-0.095,0.76-0.162,1.161-0.205
			c0.481-0.053,0.867-0.09,1.156-0.135c0.293-0.05,0.504-0.115,0.636-0.205c0.131-0.09,0.201-0.223,0.201-0.396v-0.034
			c0-0.336-0.104-0.59-0.325-0.776c-0.207-0.185-0.509-0.282-0.897-0.282c-0.403,0-0.735,0.096-0.977,0.277
			c-0.241,0.177-0.404,0.4-0.479,0.667l-2.11-0.17c0.114-0.495,0.32-0.928,0.63-1.291c0.317-0.365,0.722-0.641,1.218-0.837
			c0.498-0.199,1.072-0.304,1.729-0.304c0.46,0,0.893,0.055,1.312,0.168c0.422,0.102,0.794,0.266,1.115,0.493
			c0.333,0.227,0.587,0.509,0.776,0.859c0.191,0.347,0.285,0.769,0.285,1.251v5.513h-2.16v-1.127h-0.067
			c-0.132,0.251-0.306,0.479-0.53,0.675c-0.22,0.192-0.485,0.341-0.792,0.446C112.43,105.559,112.072,105.611,111.665,105.611
			L111.665,105.611z M112.318,104.041c0.333,0,0.63-0.057,0.887-0.197c0.257-0.132,0.457-0.314,0.604-0.543
			c0.146-0.219,0.224-0.481,0.224-0.764v-0.876c-0.076,0.048-0.171,0.093-0.296,0.135c-0.121,0.038-0.258,0.063-0.414,0.096
			c-0.154,0.03-0.301,0.059-0.457,0.084l-0.418,0.05c-0.269,0.042-0.5,0.109-0.695,0.187c-0.206,0.092-0.361,0.203-0.472,0.346
			c-0.109,0.151-0.16,0.328-0.16,0.536c0,0.313,0.11,0.54,0.333,0.715C111.68,103.968,111.971,104.042,112.318,104.041
			L112.318,104.041z"/>
		<path fill="#FFFFFF" d="M63.371,15.5H25.05v25.898h38.321V15.5z M31.135,34.127v1.136h5.319v-1.287h-3.138v-0.054l1.093-1.063
			c0.513-0.459,0.912-0.86,1.188-1.19c0.283-0.332,0.483-0.632,0.59-0.912c0.111-0.268,0.163-0.552,0.163-0.828
			c0-0.432-0.108-0.813-0.328-1.144c-0.219-0.33-0.532-0.593-0.931-0.78c-0.396-0.19-0.861-0.278-1.396-0.278
			c-0.521,0-0.978,0.092-1.376,0.291c-0.4,0.196-0.706,0.479-0.926,0.837c-0.225,0.359-0.335,0.773-0.335,1.268h1.497
			c0-0.241,0.048-0.448,0.139-0.618c0.096-0.172,0.223-0.301,0.394-0.398c0.172-0.086,0.369-0.135,0.596-0.135
			c0.223,0,0.416,0.046,0.591,0.128c0.167,0.09,0.305,0.208,0.41,0.367c0.098,0.155,0.144,0.344,0.144,0.563
			c0,0.198-0.036,0.381-0.121,0.55c-0.078,0.165-0.195,0.336-0.352,0.51c-0.154,0.175-0.341,0.371-0.564,0.591L31.135,34.127z
			 M38.903,34.969c0.456,0.301,0.997,0.453,1.623,0.456c0.626,0,1.16-0.15,1.613-0.452c0.446-0.312,0.795-0.749,1.035-1.33
			c0.243-0.581,0.365-1.276,0.365-2.087c0.002-0.816-0.118-1.503-0.361-2.074c-0.242-0.574-0.594-1.002-1.042-1.31
			c-0.453-0.296-0.986-0.444-1.609-0.444c-0.626,0-1.164,0.148-1.619,0.444c-0.447,0.306-0.792,0.733-1.039,1.306
			c-0.242,0.574-0.361,1.262-0.361,2.078c-0.003,0.808,0.116,1.503,0.361,2.084C38.111,34.221,38.457,34.656,38.903,34.969z
			 M41.55,33.481c-0.254,0.433-0.601,0.638-1.024,0.638c-0.286,0-0.533-0.088-0.749-0.278c-0.21-0.191-0.375-0.473-0.491-0.854
			c-0.115-0.383-0.168-0.866-0.168-1.429c0.002-0.853,0.131-1.482,0.387-1.91c0.255-0.417,0.594-0.63,1.021-0.63
			c0.279,0,0.526,0.09,0.738,0.278c0.209,0.19,0.375,0.478,0.488,0.848c0.115,0.372,0.176,0.848,0.176,1.413
			C41.931,32.412,41.804,33.049,41.55,33.481z M44.663,35.263v-1.136l2.655-2.447c0.226-0.22,0.418-0.416,0.572-0.591
			c0.152-0.175,0.269-0.344,0.352-0.51c0.078-0.169,0.12-0.352,0.12-0.55c0-0.219-0.052-0.408-0.15-0.563
			c-0.099-0.159-0.234-0.277-0.41-0.367c-0.168-0.082-0.368-0.128-0.584-0.128c-0.228,0-0.43,0.05-0.596,0.136
			c-0.172,0.097-0.303,0.226-0.394,0.397c-0.097,0.171-0.141,0.377-0.141,0.618h-1.496c0-0.495,0.111-0.91,0.33-1.268
			c0.219-0.358,0.532-0.642,0.931-0.837c0.396-0.198,0.857-0.291,1.377-0.291c0.536,0,1,0.088,1.396,0.278
			c0.4,0.187,0.706,0.451,0.924,0.78c0.226,0.33,0.336,0.711,0.336,1.144c0,0.276-0.058,0.56-0.17,0.828
			c-0.108,0.279-0.301,0.58-0.583,0.912c-0.284,0.33-0.683,0.731-1.195,1.19l-1.087,1.063v0.054h3.132v1.287H44.663z M52.436,34.969
			c0.45,0.301,0.991,0.453,1.617,0.456c0.626,0,1.167-0.15,1.614-0.452c0.452-0.312,0.796-0.749,1.035-1.33
			c0.242-0.581,0.364-1.276,0.364-2.087c0.002-0.816-0.118-1.503-0.36-2.074c-0.242-0.574-0.588-1.002-1.043-1.31
			c-0.447-0.296-0.985-0.444-1.609-0.444c-0.623,0-1.164,0.148-1.613,0.444c-0.452,0.306-0.797,0.733-1.039,1.306
			c-0.241,0.574-0.361,1.262-0.361,2.078c-0.001,0.808,0.117,1.503,0.357,2.084C51.64,34.221,51.984,34.656,52.436,34.969
			L52.436,34.969z M55.078,33.481c-0.255,0.433-0.595,0.638-1.025,0.638c-0.286,0-0.533-0.088-0.742-0.278
			c-0.211-0.191-0.376-0.473-0.492-0.854c-0.113-0.383-0.174-0.866-0.174-1.429c0.003-0.853,0.132-1.482,0.387-1.91
			c0.256-0.417,0.594-0.63,1.022-0.63c0.285,0,0.532,0.09,0.738,0.278c0.215,0.19,0.374,0.478,0.488,0.848
			c0.116,0.372,0.177,0.848,0.177,1.413C55.46,32.412,55.333,33.049,55.078,33.481z"/>
		<path fill="#FFFFFF" d="M25.644,131.349v-5.948h1.079v5.045h2.634v0.903H25.644z M31.943,131.445
			c-0.285,0-0.541-0.054-0.767-0.149c-0.224-0.109-0.405-0.258-0.538-0.459c-0.13-0.201-0.192-0.439-0.192-0.739
			c0-0.245,0.048-0.455,0.14-0.618c0.09-0.163,0.219-0.303,0.382-0.396c0.163-0.105,0.341-0.173,0.549-0.228
			c0.2-0.055,0.409-0.083,0.63-0.107c0.26-0.03,0.474-0.056,0.64-0.078c0.158-0.024,0.276-0.058,0.353-0.1
			c0.074-0.052,0.113-0.131,0.113-0.227v-0.019c0-0.221-0.068-0.389-0.198-0.506c-0.13-0.116-0.314-0.18-0.559-0.18
			c-0.258,0-0.468,0.06-0.614,0.168c-0.151,0.107-0.25,0.249-0.306,0.4l-0.983-0.137c0.075-0.277,0.204-0.507,0.385-0.688
			c0.176-0.184,0.398-0.319,0.657-0.405c0.259-0.099,0.54-0.148,0.856-0.148c0.213,0,0.427,0.027,0.645,0.081
			c0.211,0.053,0.41,0.129,0.582,0.253c0.18,0.11,0.323,0.264,0.43,0.463c0.108,0.199,0.164,0.448,0.164,0.743v2.981h-1.014v-0.606
			h-0.037c-0.068,0.121-0.157,0.233-0.272,0.348c-0.115,0.101-0.26,0.193-0.437,0.252C32.383,131.411,32.176,131.445,31.943,131.445
			z M32.219,130.668c0.21,0,0.396-0.043,0.552-0.122c0.151-0.091,0.272-0.197,0.358-0.334c0.083-0.149,0.129-0.299,0.129-0.463
			v-0.525c-0.036,0.03-0.088,0.056-0.173,0.081c-0.074,0.023-0.166,0.035-0.262,0.054c-0.096,0.018-0.19,0.035-0.288,0.049
			l-0.25,0.037c-0.153,0.022-0.293,0.06-0.418,0.101c-0.125,0.05-0.22,0.123-0.296,0.204c-0.07,0.091-0.106,0.196-0.106,0.33
			c0,0.194,0.067,0.339,0.21,0.444C31.817,130.617,32,130.668,32.219,130.668z M35.83,131.349v-5.948h1.052v2.228h0.045
			c0.052-0.104,0.132-0.227,0.229-0.344c0.099-0.122,0.234-0.233,0.405-0.314c0.17-0.095,0.384-0.142,0.647-0.142
			c0.343,0,0.658,0.094,0.932,0.27c0.281,0.174,0.505,0.435,0.666,0.779c0.167,0.339,0.249,0.75,0.249,1.254
			c0,0.487-0.078,0.907-0.242,1.248c-0.163,0.342-0.381,0.597-0.66,0.777c-0.273,0.18-0.591,0.276-0.941,0.276
			c-0.256,0-0.47-0.045-0.639-0.125c-0.172-0.091-0.309-0.188-0.41-0.316c-0.099-0.118-0.182-0.229-0.234-0.345h-0.064v0.702H35.83
			L35.83,131.349z M36.86,129.125c0,0.284,0.042,0.542,0.122,0.75c0.088,0.219,0.207,0.388,0.363,0.518
			c0.154,0.116,0.347,0.18,0.569,0.18c0.232,0,0.43-0.065,0.588-0.187c0.154-0.133,0.273-0.304,0.356-0.513
			c0.08-0.22,0.122-0.474,0.122-0.747c0-0.283-0.042-0.521-0.119-0.738c-0.083-0.217-0.201-0.384-0.359-0.503
			c-0.155-0.129-0.354-0.183-0.588-0.183c-0.224,0-0.419,0.052-0.572,0.177c-0.159,0.114-0.277,0.278-0.362,0.494
			C36.902,128.585,36.86,128.83,36.86,129.125z M43.32,131.442c-0.44,0-0.82-0.102-1.137-0.295
			c-0.324-0.193-0.572-0.455-0.752-0.798c-0.17-0.344-0.262-0.75-0.262-1.206c0-0.468,0.091-0.874,0.262-1.219
			c0.179-0.346,0.428-0.61,0.752-0.802c0.317-0.191,0.697-0.294,1.137-0.294c0.433,0,0.812,0.103,1.136,0.294
			c0.318,0.192,0.565,0.456,0.742,0.802c0.174,0.346,0.267,0.751,0.267,1.219c0,0.455-0.093,0.861-0.266,1.206
			c-0.177,0.343-0.424,0.605-0.742,0.798C44.132,131.34,43.753,131.442,43.32,131.442z M43.327,130.591
			c0.234,0,0.43-0.057,0.591-0.185c0.162-0.138,0.28-0.313,0.354-0.534c0.078-0.216,0.12-0.466,0.12-0.731
			c0-0.279-0.042-0.529-0.12-0.742c-0.075-0.226-0.192-0.402-0.354-0.531c-0.161-0.14-0.356-0.199-0.591-0.199
			c-0.25,0-0.45,0.059-0.612,0.199c-0.155,0.128-0.276,0.305-0.358,0.531c-0.076,0.213-0.116,0.463-0.116,0.742
			c0,0.265,0.041,0.515,0.116,0.731c0.082,0.22,0.203,0.396,0.358,0.534C42.878,130.534,43.077,130.591,43.327,130.591z
			 M49.625,129.479v-2.589h1.057v4.459h-1.024v-0.787h-0.048c-0.101,0.244-0.269,0.449-0.498,0.607
			c-0.229,0.157-0.513,0.241-0.847,0.241c-0.295,0-0.555-0.068-0.779-0.196c-0.222-0.129-0.399-0.319-0.526-0.574
			c-0.126-0.245-0.192-0.556-0.192-0.912v-2.838h1.057v2.677c0,0.289,0.076,0.505,0.232,0.67c0.158,0.171,0.36,0.254,0.612,0.254
			c0.156,0,0.309-0.04,0.455-0.109c0.146-0.081,0.266-0.188,0.358-0.336C49.575,129.886,49.625,129.698,49.625,129.479
			L49.625,129.479z M52.177,131.349v-4.459h1.022v0.746h0.043c0.085-0.263,0.228-0.461,0.422-0.599
			c0.2-0.139,0.43-0.215,0.687-0.215c0.055,0,0.123,0.004,0.192,0.01c0.081,0.004,0.136,0.011,0.188,0.022v0.971
			c-0.047-0.016-0.115-0.031-0.217-0.044c-0.094-0.014-0.184-0.022-0.269-0.022c-0.199,0-0.374,0.045-0.523,0.133
			c-0.152,0.075-0.272,0.185-0.364,0.339c-0.085,0.144-0.129,0.31-0.129,0.501v2.617H52.177L52.177,131.349z M58.334,125.401h1.325
			l1.774,4.309H61.5l1.772-4.309h1.326v5.948h-1.039v-4.083h-0.05l-1.652,4.064h-0.777l-1.65-4.074h-0.059v4.093h-1.037
			L58.334,125.401L58.334,125.401z M67.43,131.445c-0.284,0-0.54-0.054-0.767-0.149c-0.229-0.109-0.405-0.258-0.538-0.459
			c-0.13-0.201-0.199-0.439-0.199-0.739c0-0.245,0.049-0.455,0.14-0.618c0.097-0.163,0.226-0.303,0.383-0.396
			c0.162-0.105,0.347-0.173,0.546-0.228c0.202-0.055,0.417-0.083,0.632-0.107c0.264-0.03,0.475-0.056,0.639-0.078
			c0.165-0.024,0.283-0.058,0.354-0.1c0.079-0.052,0.113-0.131,0.113-0.227v-0.019c0-0.221-0.062-0.389-0.192-0.506
			c-0.13-0.116-0.321-0.18-0.565-0.18c-0.259,0-0.462,0.06-0.616,0.168c-0.148,0.107-0.25,0.249-0.295,0.4l-0.993-0.137
			c0.081-0.277,0.209-0.507,0.386-0.688c0.182-0.184,0.397-0.319,0.655-0.405c0.26-0.099,0.548-0.148,0.857-0.148
			c0.219,0,0.432,0.027,0.645,0.081c0.217,0.053,0.409,0.129,0.588,0.253c0.175,0.11,0.316,0.264,0.424,0.463
			c0.107,0.199,0.164,0.448,0.164,0.743v2.981h-1.015v-0.606h-0.036c-0.062,0.121-0.15,0.233-0.272,0.348
			c-0.113,0.101-0.258,0.193-0.43,0.252C67.862,131.411,67.663,131.445,67.43,131.445L67.43,131.445z M67.702,130.668
			c0.214,0,0.394-0.043,0.55-0.122c0.157-0.091,0.276-0.197,0.358-0.334c0.089-0.149,0.128-0.299,0.128-0.463v-0.525
			c-0.028,0.03-0.087,0.056-0.165,0.081c-0.081,0.023-0.167,0.035-0.263,0.054c-0.099,0.018-0.197,0.035-0.29,0.049l-0.248,0.037
			c-0.16,0.022-0.3,0.06-0.424,0.101c-0.125,0.05-0.222,0.123-0.292,0.204c-0.075,0.091-0.113,0.196-0.113,0.33
			c0,0.194,0.075,0.339,0.218,0.444C67.303,130.617,67.48,130.668,67.702,130.668L67.702,130.668z M71.262,131.349v-4.459h1.024
			v0.746h0.048c0.08-0.263,0.221-0.461,0.422-0.599c0.197-0.139,0.425-0.215,0.681-0.215c0.061,0,0.124,0.004,0.198,0.01
			c0.072,0.004,0.136,0.011,0.182,0.022v0.971c-0.042-0.016-0.116-0.031-0.212-0.044c-0.094-0.014-0.19-0.022-0.278-0.022
			c-0.189,0-0.365,0.045-0.519,0.133c-0.153,0.075-0.272,0.185-0.358,0.339c-0.084,0.144-0.131,0.31-0.131,0.501v2.617H71.262z
			 M75.893,129.951l-0.003-1.27h0.171l1.607-1.791H78.9l-1.978,2.198h-0.217L75.893,129.951z M74.936,131.349v-5.948h1.048v5.948
			H74.936z M77.739,131.349l-1.455-2.022l0.709-0.743l2.008,2.765H77.739L77.739,131.349z M81.812,131.442
			c-0.446,0-0.834-0.099-1.161-0.286c-0.326-0.188-0.576-0.447-0.752-0.789c-0.171-0.344-0.262-0.752-0.262-1.215
			c0-0.464,0.09-0.87,0.262-1.216c0.179-0.347,0.425-0.612,0.746-0.807c0.314-0.196,0.685-0.301,1.115-0.301
			c0.277,0,0.542,0.047,0.782,0.142c0.246,0.081,0.462,0.214,0.65,0.397c0.192,0.185,0.343,0.422,0.451,0.705
			c0.108,0.287,0.165,0.622,0.165,1.015v0.32h-3.669V128.7h2.659c-0.002-0.203-0.049-0.381-0.132-0.537
			c-0.089-0.157-0.207-0.279-0.363-0.375c-0.147-0.085-0.327-0.133-0.526-0.133c-0.22,0-0.407,0.055-0.572,0.155
			c-0.164,0.097-0.292,0.241-0.382,0.409c-0.087,0.166-0.135,0.349-0.137,0.55v0.611c0,0.266,0.049,0.49,0.143,0.669
			c0.095,0.183,0.228,0.331,0.401,0.424c0.174,0.104,0.371,0.144,0.599,0.144c0.156,0,0.295-0.023,0.42-0.058
			c0.123-0.046,0.23-0.115,0.32-0.195c0.095-0.091,0.162-0.191,0.21-0.317l0.984,0.11c-0.063,0.253-0.184,0.482-0.354,0.676
			c-0.175,0.192-0.395,0.339-0.667,0.454C82.471,131.386,82.165,131.442,81.812,131.442L81.812,131.442z M87.346,126.89v0.819H84.77
			v-0.819H87.346z M85.405,125.822h1.057v4.19c0,0.14,0.024,0.243,0.062,0.324c0.047,0.072,0.101,0.12,0.177,0.149
			c0.07,0.029,0.153,0.044,0.239,0.044c0.063,0,0.126-0.005,0.185-0.016c0.05-0.01,0.096-0.02,0.127-0.028l0.172,0.824
			c-0.051,0.014-0.137,0.037-0.24,0.06c-0.102,0.025-0.228,0.04-0.38,0.044c-0.264,0.009-0.501-0.034-0.712-0.115
			c-0.215-0.094-0.38-0.228-0.504-0.415c-0.122-0.187-0.186-0.422-0.184-0.696V125.822L85.405,125.822z M26.722,137.67v5.949h-1.079
			v-5.949H26.722z M29.315,141.01v2.609h-1.058v-4.458h1.008v0.76h0.056c0.101-0.254,0.267-0.454,0.491-0.599
			c0.226-0.146,0.509-0.224,0.841-0.224c0.312,0,0.581,0.07,0.81,0.199c0.229,0.129,0.41,0.32,0.537,0.575
			c0.128,0.244,0.188,0.553,0.187,0.91v2.837h-1.051v-2.676c0-0.294-0.083-0.53-0.239-0.699c-0.149-0.168-0.366-0.258-0.639-0.258
			c-0.181,0-0.348,0.043-0.491,0.124c-0.143,0.08-0.254,0.19-0.334,0.351C29.357,140.609,29.315,140.792,29.315,141.01z
			 M35.91,139.161v0.807h-2.577v-0.807H35.91z M33.969,138.092h1.058v4.18c0,0.15,0.021,0.253,0.062,0.334
			c0.045,0.067,0.107,0.12,0.177,0.15c0.069,0.028,0.153,0.043,0.237,0.043c0.07,0,0.126-0.005,0.184-0.016
			c0.053-0.01,0.099-0.02,0.128-0.027l0.176,0.816c-0.054,0.02-0.139,0.043-0.243,0.068c-0.102,0.023-0.228,0.039-0.379,0.042
			c-0.264,0.009-0.502-0.033-0.712-0.126c-0.215-0.083-0.379-0.218-0.504-0.405c-0.123-0.187-0.186-0.421-0.183-0.702V138.092z
			 M39.138,143.703c-0.451,0-0.838-0.091-1.163-0.277c-0.329-0.188-0.578-0.447-0.749-0.799c-0.178-0.345-0.263-0.743-0.263-1.215
			c0-0.454,0.086-0.86,0.263-1.206c0.172-0.347,0.419-0.624,0.739-0.815c0.314-0.188,0.687-0.292,1.116-0.292
			c0.277,0,0.538,0.048,0.782,0.131c0.246,0.092,0.461,0.225,0.654,0.408c0.187,0.185,0.338,0.423,0.446,0.702
			c0.108,0.29,0.166,0.626,0.166,1.019v0.321h-3.67v-0.709h2.66c-0.002-0.202-0.05-0.381-0.132-0.537
			c-0.087-0.157-0.208-0.29-0.357-0.375c-0.152-0.097-0.333-0.134-0.531-0.134c-0.214,0-0.407,0.044-0.572,0.155
			c-0.159,0.098-0.287,0.231-0.381,0.398c-0.089,0.176-0.136,0.352-0.138,0.55v0.623c0,0.257,0.048,0.479,0.143,0.664
			c0.099,0.185,0.227,0.324,0.399,0.429c0.174,0.091,0.371,0.143,0.6,0.143c0.155,0,0.294-0.022,0.419-0.069
			c0.124-0.036,0.232-0.104,0.329-0.192c0.087-0.082,0.155-0.182,0.203-0.316l0.983,0.117c-0.059,0.252-0.176,0.483-0.354,0.678
			c-0.174,0.191-0.396,0.339-0.667,0.441C39.793,143.656,39.486,143.703,39.138,143.703L39.138,143.703z M43.485,137.67v5.949
			h-1.049v-5.949H43.485z M46.037,137.67v5.949H44.98v-5.949H46.037z M47.532,143.619v-4.458h1.058v4.458H47.532L47.532,143.619z
			 M48.064,138.521c-0.167,0-0.311-0.048-0.431-0.164c-0.118-0.108-0.181-0.241-0.181-0.404c0-0.161,0.063-0.293,0.184-0.398
			c0.121-0.119,0.262-0.168,0.428-0.168c0.169,0,0.313,0.049,0.431,0.168c0.12,0.105,0.177,0.238,0.177,0.398
			c0,0.163-0.057,0.295-0.177,0.404C48.376,138.473,48.233,138.521,48.064,138.521z M52.034,145.365
			c-0.379,0-0.708-0.043-0.976-0.15c-0.273-0.095-0.495-0.238-0.656-0.406c-0.167-0.167-0.282-0.353-0.346-0.556l0.951-0.222
			c0.044,0.074,0.104,0.16,0.191,0.238c0.078,0.09,0.186,0.155,0.325,0.213c0.14,0.063,0.313,0.093,0.529,0.093
			c0.295,0,0.543-0.076,0.742-0.216c0.194-0.141,0.297-0.375,0.297-0.694v-0.853h-0.054c-0.059,0.117-0.135,0.222-0.239,0.344
			c-0.103,0.11-0.239,0.201-0.414,0.283c-0.17,0.083-0.382,0.112-0.638,0.112c-0.341,0-0.657-0.074-0.931-0.234
			c-0.281-0.161-0.505-0.406-0.667-0.727c-0.166-0.324-0.245-0.728-0.245-1.218c0-0.491,0.08-0.903,0.245-1.243
			c0.162-0.337,0.387-0.588,0.669-0.762c0.275-0.176,0.59-0.269,0.932-0.269c0.263,0,0.478,0.048,0.648,0.131
			c0.172,0.092,0.309,0.193,0.41,0.325c0.099,0.118,0.172,0.229,0.229,0.344h0.061v-0.737h1.036v4.536
			c0,0.366-0.089,0.682-0.271,0.923c-0.184,0.253-0.433,0.44-0.753,0.559C52.796,145.309,52.437,145.365,52.034,145.365z
			 M52.043,142.731c0.221,0,0.416-0.059,0.568-0.162c0.159-0.116,0.278-0.27,0.364-0.475c0.079-0.193,0.122-0.441,0.122-0.722
			c0-0.287-0.042-0.536-0.122-0.738c-0.084-0.213-0.203-0.375-0.361-0.499c-0.15-0.115-0.345-0.177-0.571-0.177
			c-0.235,0-0.434,0.064-0.591,0.183c-0.156,0.13-0.274,0.296-0.357,0.511c-0.077,0.203-0.119,0.446-0.119,0.72
			c0,0.269,0.042,0.511,0.119,0.718c0.085,0.194,0.205,0.36,0.358,0.474C51.613,142.671,51.813,142.731,52.043,142.731
			L52.043,142.731z M57.61,143.703c-0.447,0-0.833-0.091-1.164-0.277c-0.322-0.188-0.572-0.447-0.749-0.799
			c-0.178-0.345-0.263-0.743-0.263-1.215c0-0.454,0.085-0.86,0.263-1.206c0.179-0.347,0.425-0.624,0.739-0.815
			c0.32-0.188,0.692-0.292,1.116-0.292c0.277,0,0.538,0.048,0.783,0.131c0.246,0.092,0.468,0.225,0.653,0.408
			c0.194,0.185,0.338,0.423,0.453,0.702c0.107,0.29,0.159,0.626,0.159,1.019v0.321h-3.671v-0.709h2.659
			c-0.002-0.202-0.042-0.381-0.13-0.537c-0.085-0.157-0.204-0.29-0.359-0.375c-0.151-0.097-0.326-0.134-0.531-0.134
			c-0.214,0-0.402,0.044-0.565,0.155c-0.166,0.098-0.293,0.231-0.382,0.398c-0.09,0.176-0.136,0.352-0.138,0.55v0.623
			c0,0.257,0.047,0.479,0.143,0.664c0.095,0.185,0.228,0.324,0.401,0.429c0.167,0.091,0.371,0.143,0.6,0.143
			c0.155,0,0.294-0.022,0.419-0.069c0.124-0.036,0.23-0.104,0.32-0.192c0.09-0.082,0.162-0.182,0.205-0.316l0.989,0.117
			c-0.064,0.252-0.183,0.483-0.36,0.678c-0.169,0.191-0.389,0.339-0.66,0.441C58.269,143.656,57.957,143.703,57.61,143.703z
			 M61.961,141.01v2.609h-1.057v-4.458h1.008v0.76h0.055c0.102-0.254,0.269-0.454,0.492-0.599c0.226-0.146,0.509-0.224,0.84-0.224
			c0.312,0,0.583,0.07,0.811,0.199c0.23,0.129,0.411,0.32,0.537,0.575c0.128,0.244,0.189,0.553,0.186,0.91v2.837h-1.057v-2.676
			c0-0.294-0.076-0.53-0.233-0.699c-0.154-0.168-0.365-0.258-0.637-0.258c-0.183,0-0.348,0.043-0.492,0.124
			c-0.143,0.08-0.255,0.19-0.333,0.351C61.998,140.609,61.961,140.792,61.961,141.01z M68.272,143.703
			c-0.443,0-0.828-0.096-1.152-0.292c-0.316-0.196-0.561-0.461-0.736-0.805c-0.174-0.346-0.257-0.747-0.257-1.203
			c0-0.448,0.085-0.851,0.262-1.197c0.172-0.347,0.424-0.624,0.74-0.815c0.32-0.188,0.7-0.292,1.136-0.292
			c0.363,0,0.688,0.071,0.963,0.202c0.282,0.129,0.506,0.316,0.675,0.563c0.169,0.244,0.263,0.519,0.288,0.838h-1.009
			c-0.043-0.217-0.138-0.396-0.294-0.538c-0.152-0.143-0.353-0.22-0.607-0.22c-0.214,0-0.407,0.062-0.572,0.174
			c-0.159,0.122-0.287,0.285-0.382,0.502c-0.088,0.209-0.132,0.469-0.132,0.765c0,0.311,0.044,0.567,0.133,0.788
			c0.093,0.22,0.217,0.387,0.375,0.501c0.164,0.124,0.359,0.174,0.578,0.174c0.157,0,0.296-0.032,0.419-0.083
			c0.124-0.064,0.227-0.143,0.308-0.263c0.09-0.108,0.142-0.242,0.174-0.41h1.009c-0.027,0.321-0.119,0.597-0.282,0.845
			c-0.162,0.234-0.381,0.425-0.66,0.571C68.973,143.64,68.647,143.703,68.272,143.703L68.272,143.703z M73.45,143.703
			c-0.447,0-0.834-0.091-1.164-0.277c-0.322-0.188-0.572-0.447-0.749-0.799c-0.172-0.345-0.263-0.743-0.263-1.215
			c0-0.454,0.091-0.86,0.263-1.206c0.179-0.347,0.425-0.624,0.738-0.815c0.32-0.188,0.692-0.292,1.122-0.292
			c0.271,0,0.532,0.048,0.779,0.131c0.253,0.092,0.465,0.225,0.651,0.408c0.193,0.185,0.344,0.423,0.452,0.702
			c0.108,0.29,0.167,0.626,0.167,1.019v0.321h-3.678v-0.709h2.662c0-0.202-0.045-0.381-0.127-0.537
			c-0.091-0.157-0.21-0.29-0.365-0.375c-0.146-0.097-0.326-0.134-0.524-0.134c-0.222,0-0.408,0.044-0.573,0.155
			c-0.165,0.098-0.292,0.231-0.381,0.398c-0.088,0.176-0.136,0.352-0.138,0.55v0.623c0,0.257,0.05,0.479,0.144,0.664
			s0.227,0.324,0.4,0.429c0.168,0.091,0.371,0.143,0.599,0.143c0.156,0,0.295-0.022,0.42-0.069c0.124-0.036,0.231-0.104,0.321-0.192
			c0.095-0.082,0.161-0.182,0.21-0.316l0.983,0.117c-0.065,0.252-0.183,0.483-0.354,0.678c-0.175,0.191-0.395,0.339-0.666,0.441
			C74.107,143.656,73.797,143.703,73.45,143.703z M79.241,143.619v-5.949h2.238c0.457,0,0.841,0.091,1.155,0.261
			c0.309,0.168,0.551,0.395,0.706,0.702c0.163,0.292,0.241,0.627,0.241,1.005c0,0.383-0.078,0.72-0.241,1.016
			c-0.157,0.302-0.4,0.534-0.712,0.708c-0.319,0.168-0.706,0.246-1.165,0.246h-1.481v-0.885h1.335c0.269,0,0.488-0.049,0.661-0.136
			c0.173-0.1,0.299-0.225,0.378-0.386c0.082-0.161,0.125-0.349,0.125-0.563c0-0.211-0.043-0.398-0.125-0.558
			c-0.08-0.16-0.207-0.281-0.381-0.375c-0.174-0.086-0.393-0.134-0.663-0.134H80.32v5.048H79.241L79.241,143.619z M84.886,143.619
			v-4.458h1.024v0.744h0.048c0.08-0.262,0.221-0.463,0.416-0.599c0.204-0.138,0.431-0.214,0.688-0.214
			c0.063,0,0.123,0.003,0.192,0.01c0.078,0.004,0.136,0.011,0.186,0.022v0.971c-0.046-0.016-0.114-0.03-0.211-0.042
			c-0.1-0.014-0.191-0.022-0.277-0.022c-0.196,0-0.366,0.043-0.521,0.122c-0.153,0.086-0.271,0.195-0.356,0.338
			c-0.091,0.155-0.132,0.321-0.132,0.512v2.618H84.886z M90.32,143.703c-0.434,0-0.813-0.094-1.136-0.287
			c-0.317-0.192-0.567-0.455-0.747-0.797c-0.169-0.353-0.262-0.751-0.262-1.216c0-0.456,0.093-0.863,0.262-1.208
			c0.179-0.346,0.429-0.619,0.747-0.804c0.323-0.19,0.703-0.292,1.137-0.292c0.439,0,0.819,0.103,1.136,0.292
			c0.324,0.185,0.572,0.458,0.747,0.804c0.174,0.346,0.262,0.752,0.262,1.208c0,0.465-0.088,0.864-0.262,1.216
			c-0.175,0.342-0.423,0.605-0.746,0.797C91.14,143.609,90.761,143.703,90.32,143.703L90.32,143.703z M90.327,142.86
			c0.236,0,0.438-0.057,0.598-0.195c0.155-0.128,0.273-0.304,0.354-0.528c0.077-0.223,0.121-0.461,0.121-0.738
			c0-0.268-0.043-0.52-0.121-0.742c-0.081-0.215-0.198-0.392-0.354-0.531c-0.16-0.129-0.362-0.192-0.598-0.192
			c-0.243,0-0.443,0.063-0.605,0.192c-0.161,0.139-0.28,0.316-0.357,0.531c-0.081,0.223-0.117,0.475-0.117,0.742
			c0,0.277,0.036,0.515,0.117,0.738c0.077,0.224,0.196,0.4,0.357,0.528C89.885,142.804,90.083,142.86,90.327,142.86z
			 M95.724,145.365c-0.379,0-0.708-0.043-0.98-0.15c-0.268-0.095-0.49-0.238-0.651-0.406c-0.167-0.167-0.282-0.353-0.348-0.556
			l0.953-0.222c0.046,0.074,0.104,0.16,0.182,0.238c0.086,0.09,0.196,0.155,0.333,0.213c0.14,0.063,0.313,0.093,0.529,0.093
			c0.296,0,0.544-0.076,0.742-0.216c0.194-0.141,0.292-0.375,0.292-0.694v-0.853h-0.049c-0.057,0.117-0.134,0.222-0.238,0.344
			c-0.102,0.11-0.24,0.201-0.413,0.283c-0.17,0.083-0.381,0.112-0.639,0.112c-0.342,0-0.657-0.074-0.938-0.234
			c-0.272-0.161-0.499-0.406-0.66-0.727c-0.164-0.324-0.244-0.728-0.244-1.218c0-0.491,0.08-0.903,0.244-1.243
			c0.161-0.337,0.389-0.588,0.664-0.762c0.28-0.176,0.595-0.269,0.937-0.269c0.264,0,0.477,0.048,0.649,0.131
			c0.173,0.092,0.305,0.193,0.409,0.325c0.1,0.118,0.173,0.229,0.229,0.344h0.055v-0.737h1.041v4.536
			c0,0.366-0.088,0.682-0.273,0.923c-0.18,0.253-0.429,0.44-0.749,0.559C96.486,145.309,96.126,145.365,95.724,145.365
			L95.724,145.365z M95.733,142.731c0.222,0,0.409-0.059,0.568-0.162c0.16-0.116,0.278-0.27,0.358-0.475
			c0.085-0.193,0.122-0.441,0.122-0.722c0-0.287-0.037-0.536-0.122-0.738c-0.078-0.213-0.195-0.375-0.355-0.499
			c-0.157-0.115-0.345-0.177-0.572-0.177c-0.234,0-0.434,0.064-0.592,0.183c-0.153,0.13-0.27,0.296-0.355,0.511
			c-0.077,0.203-0.119,0.446-0.119,0.72c0,0.269,0.042,0.511,0.12,0.718c0.084,0.194,0.205,0.36,0.357,0.474
			C95.304,142.671,95.504,142.731,95.733,142.731L95.733,142.731z M99.314,143.619v-4.458h1.023v0.744h0.048
			c0.08-0.262,0.221-0.463,0.421-0.599c0.198-0.138,0.426-0.214,0.682-0.214c0.062,0,0.124,0.003,0.198,0.01
			c0.071,0.004,0.135,0.011,0.181,0.022v0.971c-0.041-0.016-0.114-0.03-0.211-0.042c-0.093-0.014-0.186-0.022-0.278-0.022
			c-0.189,0-0.365,0.043-0.519,0.122c-0.151,0.086-0.272,0.195-0.358,0.338c-0.084,0.155-0.131,0.321-0.131,0.512v2.618H99.314
			L99.314,143.619z M104.182,143.705c-0.285,0-0.541-0.044-0.767-0.151c-0.224-0.098-0.406-0.248-0.538-0.447
			c-0.13-0.201-0.192-0.451-0.192-0.739c0-0.256,0.049-0.461,0.14-0.63c0.092-0.163,0.219-0.292,0.383-0.385
			c0.165-0.105,0.34-0.173,0.549-0.227c0.2-0.056,0.409-0.096,0.631-0.113c0.258-0.025,0.473-0.051,0.638-0.073
			c0.158-0.025,0.276-0.063,0.354-0.109c0.074-0.042,0.113-0.122,0.113-0.218v-0.018c0-0.221-0.068-0.39-0.198-0.506
			c-0.13-0.127-0.314-0.18-0.559-0.18c-0.258,0-0.468,0.049-0.614,0.168c-0.151,0.107-0.25,0.238-0.306,0.393l-0.983-0.14
			c0.074-0.266,0.203-0.496,0.384-0.678c0.176-0.184,0.398-0.317,0.658-0.415c0.26-0.087,0.541-0.137,0.856-0.137
			c0.213,0,0.426,0.027,0.645,0.08c0.211,0.042,0.412,0.13,0.583,0.243c0.179,0.121,0.322,0.276,0.428,0.474
			c0.109,0.199,0.164,0.439,0.164,0.742v2.981h-1.016v-0.617H105.5c-0.067,0.131-0.157,0.243-0.272,0.349
			c-0.114,0.113-0.26,0.192-0.437,0.263C104.621,143.68,104.415,143.705,104.182,143.705L104.182,143.705z M104.458,142.938
			c0.21,0,0.396-0.044,0.552-0.129c0.151-0.083,0.271-0.19,0.358-0.339c0.083-0.138,0.129-0.287,0.129-0.451v-0.525
			c-0.035,0.029-0.089,0.052-0.171,0.069c-0.076,0.025-0.167,0.046-0.263,0.064c-0.096,0.019-0.19,0.036-0.289,0.051l-0.25,0.036
			c-0.152,0.017-0.293,0.049-0.419,0.101c-0.124,0.051-0.221,0.112-0.296,0.205c-0.069,0.08-0.106,0.197-0.106,0.329
			c0,0.195,0.067,0.339,0.21,0.444C104.056,142.886,104.238,142.938,104.458,142.938L104.458,142.938z M108.02,143.619v-4.458h1.009
			v0.76h0.055c0.092-0.261,0.247-0.462,0.461-0.602c0.214-0.145,0.471-0.221,0.773-0.221c0.299,0,0.555,0.078,0.767,0.224
			c0.207,0.142,0.356,0.343,0.441,0.599h0.049c0.097-0.252,0.267-0.451,0.5-0.596c0.236-0.147,0.519-0.227,0.84-0.227
			c0.413,0,0.748,0.126,1.009,0.392c0.261,0.26,0.391,0.632,0.391,1.139v2.99h-1.054v-2.83c0-0.282-0.078-0.486-0.227-0.611
			c-0.142-0.126-0.326-0.195-0.538-0.195c-0.254,0-0.458,0.085-0.602,0.242c-0.139,0.155-0.211,0.362-0.211,0.607v2.787h-1.036
			v-2.875c0-0.233-0.067-0.417-0.207-0.553c-0.138-0.134-0.322-0.208-0.545-0.208c-0.152,0-0.291,0.042-0.416,0.124
			c-0.124,0.068-0.222,0.182-0.293,0.32c-0.076,0.135-0.109,0.293-0.109,0.477v2.714H108.02L108.02,143.619z M115.801,143.619
			v-4.458h1.008v0.76h0.05c0.099-0.261,0.248-0.462,0.467-0.602c0.214-0.145,0.472-0.221,0.776-0.221
			c0.296,0,0.552,0.078,0.763,0.224c0.209,0.142,0.357,0.343,0.441,0.599h0.049c0.099-0.252,0.271-0.451,0.501-0.596
			c0.237-0.147,0.519-0.227,0.841-0.227c0.414,0,0.748,0.126,1.008,0.392c0.262,0.26,0.392,0.632,0.392,1.139v2.99h-1.06v-2.83
			c0-0.282-0.071-0.486-0.22-0.611c-0.147-0.126-0.326-0.195-0.543-0.195c-0.255,0-0.451,0.085-0.597,0.242
			c-0.143,0.155-0.21,0.362-0.21,0.607v2.787h-1.036v-2.875c0-0.233-0.072-0.417-0.208-0.553c-0.139-0.134-0.322-0.208-0.544-0.208
			c-0.153,0-0.292,0.042-0.416,0.124c-0.125,0.068-0.222,0.182-0.299,0.32c-0.072,0.135-0.11,0.293-0.11,0.477v2.714H115.801
			L115.801,143.619z M125.561,143.703c-0.451,0-0.84-0.091-1.163-0.277c-0.328-0.188-0.578-0.447-0.749-0.799
			c-0.178-0.345-0.263-0.743-0.263-1.215c0-0.454,0.085-0.86,0.263-1.206c0.172-0.347,0.421-0.624,0.739-0.815
			c0.316-0.188,0.692-0.292,1.116-0.292c0.277,0,0.538,0.048,0.782,0.131c0.247,0.092,0.463,0.225,0.655,0.408
			c0.187,0.185,0.337,0.423,0.445,0.702c0.111,0.29,0.165,0.626,0.165,1.019v0.321h-3.67v-0.709h2.658
			c-0.002-0.202-0.047-0.381-0.131-0.537c-0.083-0.157-0.203-0.29-0.356-0.375c-0.153-0.097-0.331-0.134-0.532-0.134
			c-0.214,0-0.406,0.044-0.563,0.155c-0.168,0.098-0.296,0.231-0.385,0.398c-0.093,0.176-0.137,0.352-0.139,0.55v0.623
			c0,0.257,0.045,0.479,0.143,0.664c0.095,0.185,0.228,0.324,0.396,0.429c0.174,0.091,0.371,0.143,0.605,0.143
			c0.149,0,0.289-0.022,0.413-0.069c0.124-0.036,0.238-0.104,0.328-0.192c0.088-0.082,0.163-0.182,0.204-0.316l0.984,0.117
			c-0.059,0.252-0.177,0.483-0.354,0.678c-0.168,0.191-0.395,0.339-0.666,0.441C126.22,143.656,125.908,143.703,125.561,143.703
			L125.561,143.703z M25.05,115.675h54.738v0.688H25.05V115.675z"/>
	</g>
</g>
</svg>
