<svg xmlns="http://www.w3.org/2000/svg" width="180" height="54" fill="none" viewBox="0 0 180 54">
    <path fill="#005D28" d="M53.498 36l17.833 18 17.276-18"/>
    <path fill="#E11F17" d="M53.498 36v18H35.666l17.832-18z"/>
    <path fill="#005D28" d="M35.666 36H17.833v18h17.833V36z"/>
    <path fill="#F9681B" d="M17.833 54V36C7.977 36 0 44.051 0 54h17.833z"/>
    <path fill="#FBAC17" d="M106.44 35.438v18H88.607l17.833-18z"/>
    <path fill="#005D28" d="M106.44 35.438c-9.857 0-17.833-7.549-17.833-16.876h17.833v16.875z"/>
    <path fill="#E11F17" d="M89.164 18.563v18H71.33l17.833-18z"/>
    <path fill="#FBAC17" d="M53.498 18.563c-4.932 0-8.916 3.475-8.916 8.437s4 9.563 8.916 9.563v-18z"/>
    <path fill="#FBAC17" d="M53.498 18.563v18h17.833l-17.833-18zM35.108 36.563c4.933 0 8.917-4.601 8.917-9.563 0-4.962-4-8.438-8.917-8.438v18z"/>
    <path fill="#005D28" d="M17.833 18C7.977 18 0 9.949 0 0h17.833v18z"/>
    <path fill="#E11F17" d="M123.715 53.438v-18h-17.833v18h17.833z"/>
    <path fill="#F9681B" d="M124.273 53.438h8.916v-18h-8.916v18zM172.824 52.029L180 46.687l-10.584-14.486-7.176 5.341 10.584 14.487z"/>
    <path fill="#005D28" d="M133.189 53.438c0-9.95 8.529-18 18.39-18s17.275 8.05 17.275 18h-35.665z"/>
    <path fill="#FBAC17" d="M17.833 36V18H0v18h17.833z"/>
    <path fill="#F9681B" d="M60.372 19.313L47.37 6.188l-12.61 12.727 25.613.398z"/>
</svg>
