<?xml version="1.0" encoding="utf-8"?>
<!-- Generator: Adobe Illustrator 16.0.0, SVG Export Plug-In . SVG Version: 6.00 Build 0)  -->
<!DOCTYPE svg PUBLIC "-//W3C//DTD SVG 1.1//EN" "http://www.w3.org/Graphics/SVG/1.1/DTD/svg11.dtd">
<svg version="1.1" id="Layer_1" xmlns="http://www.w3.org/2000/svg" xmlns:xlink="http://www.w3.org/1999/xlink" x="0px" y="0px"
	 width="260px" height="368px" viewBox="10 15.5 260 368" enable-background="new 10 15.5 260 368" xml:space="preserve">
<g>
	<defs>
		<rect id="SVGID_1_" x="10" y="15.5" width="260" height="368"/>
	</defs>
	<clipPath id="SVGID_2_">
		<use xlink:href="#SVGID_1_"  overflow="visible"/>
	</clipPath>
	<g clip-path="url(#SVGID_2_)">
		<path fill="#005D28" d="M10,15.5h260v368H10V15.5z"/>
		<path fill="#FFFFFF" fill-opacity="0.2" d="M209.106,104.094v44.291c24.559,0,44.476-19.826,44.476-44.291"/>
		<path fill="none" stroke="#FFFFFF" stroke-width="0.9254" d="M209.106,104.094v44.291c24.559,0,44.476-19.826,44.476-44.291
			H209.106z"/>
		<path fill="none" stroke="#FFFFFF" stroke-width="0.9254" d="M209.106,338.98v44.52c-24.557,0-44.476-19.943-44.476-44.52
			 M209.106,294.458v44.522c-24.557,0-44.476-19.943-44.476-44.522"/>
		<path fill="#1A1A1A" fill-opacity="0.2" d="M209.106,294.458v-44.523c24.559,0,44.476,19.925,44.476,44.523"/>
		<path fill="none" stroke="#FFFFFF" stroke-width="0.9254" d="M209.106,294.458v-44.523c24.559,0,44.476,19.925,44.476,44.523
			H209.106z"/>
		<path fill="#FFFFFF" fill-opacity="0.2" stroke="#FFFFFF" stroke-width="0.9254" d="M209.106,249.935h-44.476v44.523
			L209.106,249.935z M209.106,294.458h44.476v44.522L209.106,294.458z M209.106,338.98h44.476v44.52L209.106,338.98z"/>
		<path fill="none" stroke="#FFFFFF" stroke-width="0.9254" d="M253.584,205.636h-44.478v44.299L253.584,205.636L253.584,205.636z
			 M253.584,104.094h44.475V59.792L253.584,104.094L253.584,104.094z"/>
		<path fill="none" stroke="#FFFFFF" stroke-width="0.9254" d="M209.106,249.935c0-12.233-9.958-22.157-22.242-22.157
			c-12.274,0-22.233,9.924-22.233,22.157H209.106L209.106,249.935z M253.584,59.792c0-12.224-9.959-22.142-22.245-22.142
			c-12.273,0-22.232,9.918-22.232,22.142H253.584z M253.584,15.5c0,12.233-9.959,22.15-22.245,22.15
			c-12.273,0-22.232-9.917-22.232-22.15H253.584z M298.057,294.219c0-12.232-9.957-22.143-22.242-22.143s-22.232,9.91-22.232,22.143
			H298.057z M298.057,249.935c0,12.232-9.957,22.142-22.242,22.142s-22.232-9.909-22.232-22.142H298.057L298.057,249.935z
			 M253.584,148.385c0,12.233-9.959,22.15-22.245,22.15c-12.273,0-22.232-9.917-22.232-22.15H253.584L253.584,148.385z"/>
		<path fill="#FFFFFF" fill-opacity="0.2" stroke="#FFFFFF" stroke-width="0.9254" d="M209.106,205.297
			c0-12.234-9.958-22.152-22.242-22.152c-12.274,0-22.233,9.918-22.233,22.152c0,12.232,9.959,22.141,22.233,22.141
			C199.148,227.438,209.106,217.529,209.106,205.297z"/>
		<path fill="none" stroke="#FFFFFF" stroke-width="0.9254" d="M209.106,148.385h-44.476v-44.291L209.106,148.385L209.106,148.385z"
			/>
		<path fill="#1A1A1A" fill-opacity="0.2" stroke="#FFFFFF" stroke-width="0.9254" d="M209.106,104.094h-44.476V59.792h44.476
			V104.094z"/>
		<path fill="#1A1A1A" fill-opacity="0.2" stroke="#FFFFFF" stroke-width="0.9254" d="M298.059,249.935h-44.475v-44.299h44.475
			V249.935z"/>
		<path fill="#1A1A1A" fill-opacity="0.2" stroke="#FFFFFF" stroke-width="0.9254" d="M209.106,15.5h-44.476v44.292L209.106,15.5z"
			/>
		<path fill="#FFFFFF" fill-opacity="0.2" stroke="#FFFFFF" stroke-width="0.9254" d="M253.688,104.094
			c0,24.465,18.667,44.291,41.683,44.291c23.017,0,41.685-19.826,41.685-44.291H253.688z"/>
		<path fill="#1A1A1A" fill-opacity="0.2" stroke="#FFFFFF" stroke-width="0.9254" d="M253.584,15.5
			c0,24.466,19.903,44.292,44.475,44.292c24.559,0,44.463-19.826,44.463-44.292H253.584z"/>
		<path fill="#FFFFFF" d="M31.942,64.979c-0.042-0.432-0.224-0.764-0.55-1.006c-0.324-0.231-0.762-0.357-1.317-0.357
			c-0.378,0-0.7,0.057-0.96,0.161c-0.26,0.106-0.458,0.249-0.597,0.434c-0.136,0.185-0.202,0.395-0.202,0.623
			c-0.007,0.197,0.03,0.367,0.123,0.519c0.091,0.145,0.217,0.267,0.38,0.369c0.161,0.11,0.343,0.195,0.552,0.278
			c0.214,0.078,0.438,0.136,0.675,0.192l0.983,0.236c0.481,0.104,0.916,0.243,1.316,0.42c0.4,0.178,0.744,0.399,1.038,0.661
			c0.293,0.253,0.519,0.557,0.676,0.907c0.166,0.359,0.253,0.757,0.253,1.215c0,0.665-0.173,1.246-0.51,1.732
			c-0.338,0.485-0.823,0.864-1.457,1.138c-0.631,0.262-1.391,0.401-2.282,0.401c-0.884,0-1.653-0.141-2.311-0.407
			c-0.653-0.273-1.162-0.666-1.528-1.205c-0.364-0.532-0.551-1.187-0.569-1.976h2.237c0.026,0.367,0.13,0.678,0.319,0.918
			c0.185,0.243,0.437,0.427,0.753,0.548c0.314,0.126,0.671,0.181,1.071,0.181c0.392,0,0.731-0.051,1.021-0.169
			c0.294-0.11,0.519-0.268,0.681-0.471c0.162-0.205,0.24-0.438,0.24-0.696c0-0.25-0.077-0.456-0.218-0.623
			c-0.144-0.166-0.358-0.306-0.631-0.42c-0.275-0.123-0.615-0.225-1.009-0.326l-1.195-0.295c-0.925-0.225-1.652-0.576-2.188-1.047
			c-0.536-0.477-0.802-1.119-0.798-1.919c-0.003-0.667,0.175-1.246,0.53-1.737c0.358-0.49,0.858-0.877,1.484-1.149
			c0.627-0.282,1.337-0.417,2.137-0.417c0.809,0,1.522,0.135,2.126,0.417c0.608,0.272,1.081,0.66,1.423,1.149
			c0.337,0.491,0.514,1.065,0.525,1.72L31.942,64.979L31.942,64.979z M37.887,70.393l0.006-2.72h0.335l2.628-3.105h2.611
			l-3.531,4.108h-0.542L37.887,70.393z M35.828,72.74v-10.9h2.278v10.901L35.828,72.74L35.828,72.74z M40.957,72.74l-2.416-3.559
			l1.517-1.603l3.566,5.163L40.957,72.74L40.957,72.74z M44.589,72.74v-8.172h2.277v8.172H44.589z M45.737,63.514
			c-0.34,0-0.633-0.117-0.874-0.334c-0.242-0.229-0.363-0.505-0.363-0.819c0-0.31,0.121-0.583,0.363-0.8
			c0.241-0.229,0.532-0.34,0.871-0.34c0.341,0,0.632,0.111,0.87,0.34c0.242,0.218,0.363,0.49,0.363,0.8
			c0,0.314-0.12,0.59-0.363,0.819C46.366,63.397,46.075,63.515,45.737,63.514L45.737,63.514z M50.963,61.839V72.74h-2.276v-10.9
			L50.963,61.839L50.963,61.839z M55.066,61.839V72.74H52.79v-10.9L55.066,61.839L55.066,61.839z M63.723,66.899l-2.087,0.125
			c-0.031-0.178-0.111-0.337-0.229-0.476c-0.117-0.146-0.273-0.266-0.463-0.345c-0.191-0.093-0.417-0.131-0.681-0.131
			c-0.351,0-0.65,0.068-0.894,0.216c-0.24,0.151-0.362,0.34-0.362,0.587c0,0.197,0.075,0.36,0.234,0.494
			c0.16,0.141,0.428,0.246,0.81,0.327l1.484,0.3c0.8,0.162,1.393,0.419,1.786,0.783c0.393,0.362,0.585,0.843,0.585,1.433
			c0,0.537-0.154,1.004-0.474,1.411c-0.31,0.397-0.744,0.719-1.295,0.941c-0.541,0.225-1.169,0.343-1.886,0.343
			c-1.083,0-1.949-0.228-2.594-0.682c-0.642-0.451-1.017-1.072-1.129-1.848l2.239-0.121c0.064,0.328,0.231,0.582,0.491,0.757
			c0.261,0.169,0.591,0.258,0.999,0.258c0.4,0,0.717-0.08,0.966-0.23c0.245-0.156,0.371-0.355,0.374-0.604
			c-0.004-0.208-0.096-0.375-0.262-0.505c-0.173-0.133-0.438-0.241-0.792-0.306l-1.424-0.288c-0.804-0.159-1.398-0.432-1.792-0.827
			c-0.389-0.397-0.58-0.896-0.58-1.511c0-0.524,0.145-0.972,0.423-1.353c0.291-0.382,0.697-0.672,1.217-0.878
			c0.524-0.207,1.137-0.308,1.835-0.308c1.039,0,1.857,0.213,2.45,0.653C63.271,65.548,63.624,66.144,63.723,66.899L63.723,66.899z
			 M74.81,64.979c-0.043-0.432-0.229-0.764-0.55-1.006c-0.329-0.231-0.766-0.357-1.323-0.357c-0.377,0-0.693,0.057-0.954,0.161
			c-0.261,0.106-0.464,0.249-0.601,0.434c-0.132,0.185-0.205,0.395-0.205,0.623c-0.006,0.197,0.037,0.367,0.124,0.519
			c0.091,0.145,0.217,0.267,0.379,0.369c0.163,0.11,0.344,0.195,0.559,0.278c0.208,0.078,0.431,0.136,0.669,0.192l0.989,0.236
			c0.475,0.104,0.913,0.243,1.31,0.42c0.4,0.178,0.745,0.399,1.039,0.661c0.295,0.253,0.518,0.557,0.681,0.907
			c0.166,0.359,0.248,0.757,0.25,1.215c-0.002,0.665-0.175,1.246-0.512,1.732c-0.332,0.485-0.823,0.864-1.458,1.138
			c-0.631,0.262-1.391,0.401-2.282,0.401c-0.884,0-1.653-0.141-2.306-0.407c-0.651-0.273-1.16-0.666-1.527-1.205
			c-0.369-0.532-0.556-1.187-0.575-1.976h2.238c0.026,0.367,0.13,0.678,0.319,0.918c0.185,0.243,0.437,0.427,0.752,0.548
			c0.318,0.126,0.678,0.181,1.077,0.181c0.387,0,0.731-0.051,1.018-0.169c0.292-0.11,0.516-0.268,0.678-0.471
			c0.163-0.205,0.24-0.438,0.24-0.696c0-0.25-0.071-0.456-0.218-0.623c-0.143-0.166-0.352-0.306-0.631-0.42
			c-0.275-0.123-0.609-0.225-1.009-0.326l-1.195-0.295c-0.918-0.225-1.652-0.576-2.182-1.047c-0.535-0.477-0.801-1.119-0.797-1.919
			c-0.004-0.667,0.169-1.246,0.53-1.737c0.358-0.49,0.852-0.877,1.479-1.149c0.627-0.282,1.337-0.417,2.137-0.417
			c0.815,0,1.522,0.135,2.126,0.417c0.614,0.272,1.086,0.66,1.423,1.149c0.34,0.491,0.513,1.065,0.525,1.72L74.81,64.979
			L74.81,64.979z M83.952,69.264v-4.696h2.283v8.172h-2.188v-1.479h-0.09c-0.182,0.477-0.492,0.864-0.92,1.152
			c-0.43,0.295-0.952,0.439-1.568,0.439c-0.551,0-1.032-0.124-1.451-0.373c-0.414-0.252-0.742-0.604-0.977-1.059
			c-0.231-0.462-0.347-1.011-0.351-1.646v-5.206h2.277v4.799c0.003,0.486,0.133,0.862,0.391,1.148
			c0.256,0.277,0.598,0.417,1.031,0.417c0.276,0,0.533-0.058,0.771-0.18c0.238-0.134,0.427-0.322,0.574-0.566
			C83.886,69.934,83.956,69.631,83.952,69.264L83.952,69.264z M88.053,75.808v-11.24h2.246v1.371h0.104
			c0.098-0.218,0.243-0.44,0.429-0.67c0.195-0.232,0.445-0.425,0.748-0.578c0.313-0.155,0.698-0.229,1.155-0.229
			c0.604,0,1.152,0.156,1.658,0.466c0.505,0.306,0.911,0.778,1.216,1.398c0.3,0.625,0.452,1.399,0.452,2.337
			c0,0.913-0.149,1.686-0.44,2.311c-0.294,0.628-0.695,1.098-1.201,1.42c-0.501,0.327-1.067,0.485-1.691,0.485
			c-0.439,0-0.814-0.078-1.126-0.219c-0.303-0.146-0.555-0.328-0.754-0.549c-0.193-0.227-0.344-0.454-0.446-0.676h-0.072v4.372
			H88.053L88.053,75.808z M90.285,68.653c0,0.483,0.066,0.911,0.202,1.273c0.135,0.361,0.328,0.646,0.585,0.845
			c0.256,0.2,0.571,0.303,0.937,0.303c0.371,0,0.687-0.105,0.943-0.31c0.257-0.196,0.448-0.487,0.581-0.849
			c0.136-0.365,0.2-0.78,0.2-1.262c0-0.468-0.062-0.887-0.195-1.245c-0.131-0.36-0.322-0.635-0.58-0.838
			c-0.256-0.204-0.575-0.311-0.949-0.311c-0.37,0-0.687,0.104-0.943,0.3c-0.253,0.195-0.444,0.468-0.581,0.825
			C90.351,67.745,90.286,68.171,90.285,68.653L90.285,68.653z M97.579,75.808v-11.24h2.242v1.371h0.107
			c0.098-0.218,0.244-0.44,0.429-0.67c0.195-0.232,0.445-0.425,0.748-0.578c0.313-0.155,0.698-0.229,1.155-0.229
			c0.604,0,1.152,0.156,1.658,0.466c0.506,0.306,0.911,0.778,1.217,1.398c0.298,0.625,0.451,1.399,0.451,2.337
			c0,0.913-0.148,1.686-0.44,2.311c-0.294,0.628-0.694,1.098-1.2,1.42c-0.503,0.327-1.068,0.485-1.692,0.485
			c-0.438,0-0.813-0.078-1.126-0.219c-0.303-0.146-0.554-0.328-0.754-0.549c-0.191-0.227-0.343-0.454-0.445-0.676h-0.073v4.372
			H97.579L97.579,75.808z M99.811,68.653c0,0.483,0.065,0.911,0.201,1.273c0.136,0.361,0.329,0.646,0.585,0.845
			c0.257,0.2,0.572,0.303,0.938,0.303c0.371,0,0.687-0.105,0.944-0.31c0.257-0.196,0.448-0.487,0.58-0.849
			c0.136-0.365,0.201-0.78,0.201-1.262c0-0.468-0.063-0.887-0.195-1.245c-0.132-0.36-0.326-0.635-0.581-0.838
			c-0.257-0.204-0.576-0.311-0.949-0.311c-0.37,0-0.686,0.104-0.943,0.3c-0.252,0.195-0.443,0.468-0.58,0.825
			C99.876,67.745,99.811,68.171,99.811,68.653z M109.381,61.839V72.74h-2.277v-10.9L109.381,61.839L109.381,61.839z M112.613,75.791
			c-0.29,0-0.562-0.015-0.815-0.063c-0.249-0.045-0.453-0.101-0.619-0.159l0.513-1.702c0.404,0.122,0.741,0.156,1.016,0.101
			c0.279-0.059,0.496-0.274,0.658-0.644l0.134-0.346l-2.946-8.409h2.394l1.703,6.004h0.083l1.716-6.004l2.412,0.011l-3.19,9.048
			c-0.155,0.437-0.365,0.818-0.625,1.138c-0.26,0.326-0.593,0.582-0.994,0.759C113.657,75.705,113.173,75.791,112.613,75.791z
			 M28.304,89.258c-0.524,0-0.989-0.095-1.4-0.276c-0.411-0.185-0.732-0.452-0.972-0.81c-0.24-0.363-0.357-0.819-0.357-1.358
			c0-0.449,0.088-0.832,0.25-1.148c0.17-0.305,0.398-0.548,0.688-0.737c0.289-0.189,0.615-0.336,0.981-0.429
			c0.371-0.092,0.759-0.162,1.167-0.205c0.476-0.05,0.861-0.09,1.155-0.135c0.294-0.049,0.504-0.111,0.636-0.203
			c0.132-0.088,0.194-0.223,0.194-0.397v-0.032c0-0.336-0.105-0.594-0.317-0.778c-0.209-0.184-0.51-0.28-0.898-0.28
			c-0.411,0-0.735,0.095-0.977,0.276c-0.241,0.178-0.404,0.403-0.486,0.668l-2.104-0.169c0.106-0.495,0.321-0.929,0.631-1.291
			c0.316-0.365,0.716-0.641,1.213-0.836c0.502-0.201,1.077-0.302,1.732-0.302c0.455,0,0.893,0.052,1.312,0.165
			c0.417,0.102,0.789,0.266,1.116,0.494c0.325,0.225,0.584,0.509,0.776,0.859c0.185,0.347,0.278,0.769,0.278,1.25v5.513h-2.16
			v-1.128h-0.062c-0.131,0.252-0.311,0.479-0.53,0.675c-0.22,0.192-0.485,0.341-0.798,0.448
			C29.068,89.203,28.711,89.258,28.304,89.258L28.304,89.258z M28.958,87.688c0.332,0,0.63-0.061,0.887-0.198
			c0.256-0.134,0.455-0.315,0.602-0.545c0.147-0.22,0.218-0.482,0.218-0.765v-0.873c-0.069,0.046-0.166,0.091-0.29,0.132
			c-0.125,0.038-0.258,0.063-0.413,0.097c-0.154,0.029-0.309,0.059-0.463,0.085l-0.414,0.052c-0.267,0.04-0.499,0.107-0.702,0.186
			c-0.197,0.089-0.354,0.202-0.463,0.347c-0.111,0.146-0.168,0.325-0.168,0.538c0,0.308,0.111,0.539,0.339,0.708
			C28.32,87.611,28.603,87.688,28.958,87.688L28.958,87.688z M36.974,84.374v4.722h-2.282v-8.173h2.169v1.443h0.102
			c0.178-0.474,0.485-0.85,0.908-1.132c0.429-0.276,0.95-0.42,1.558-0.42c0.573,0,1.069,0.127,1.489,0.371
			c0.425,0.252,0.756,0.606,0.995,1.067c0.233,0.46,0.351,1.008,0.351,1.638v5.207h-2.278v-4.801
			c0.004-0.498-0.124-0.89-0.385-1.166c-0.259-0.29-0.617-0.43-1.077-0.43c-0.303,0-0.575,0.069-0.809,0.199
			c-0.232,0.127-0.415,0.319-0.547,0.575C37.04,83.718,36.977,84.023,36.974,84.374z M47.083,89.235
			c-0.623,0-1.191-0.158-1.696-0.485c-0.502-0.322-0.902-0.791-1.194-1.42c-0.293-0.625-0.441-1.397-0.441-2.311
			c0-0.938,0.153-1.711,0.458-2.337c0.299-0.619,0.703-1.091,1.204-1.396c0.506-0.312,1.063-0.472,1.663-0.472
			c0.458,0,0.84,0.078,1.15,0.234c0.306,0.151,0.557,0.344,0.748,0.576c0.19,0.229,0.336,0.448,0.441,0.67h0.067v-4.099h2.271
			v10.901h-2.243v-1.304h-0.095c-0.112,0.221-0.258,0.448-0.458,0.675c-0.189,0.222-0.441,0.404-0.754,0.549
			C47.896,89.159,47.522,89.235,47.083,89.235z M47.804,87.43c0.366,0,0.679-0.103,0.932-0.303c0.257-0.202,0.45-0.482,0.586-0.845
			c0.14-0.362,0.211-0.789,0.211-1.273c0-0.482-0.071-0.909-0.207-1.267c-0.135-0.36-0.33-0.633-0.585-0.827
			c-0.257-0.197-0.572-0.299-0.938-0.299c-0.374,0-0.686,0.107-0.944,0.311c-0.256,0.203-0.454,0.479-0.586,0.837
			c-0.132,0.357-0.195,0.777-0.195,1.245c0,0.477,0.063,0.896,0.195,1.262c0.136,0.362,0.333,0.652,0.587,0.85
			C47.118,87.326,47.43,87.431,47.804,87.43L47.804,87.43z M61.034,89.096h-3.879V78.195h3.913c1.099,0,2.049,0.221,2.839,0.652
			c0.796,0.438,1.406,1.063,1.837,1.872c0.432,0.813,0.646,1.785,0.646,2.92c0,1.129-0.214,2.109-0.646,2.925
			c-0.43,0.818-1.044,1.439-1.848,1.88C63.103,88.885,62.146,89.096,61.034,89.096z M59.465,87.121h1.475
			c0.68,0,1.259-0.118,1.724-0.362c0.468-0.239,0.826-0.618,1.061-1.129c0.238-0.513,0.358-1.183,0.358-1.991
			c0-0.809-0.121-1.465-0.358-1.975c-0.234-0.511-0.59-0.889-1.055-1.132c-0.465-0.245-1.044-0.363-1.725-0.363h-1.479V87.121
			L59.465,87.121z M71.803,89.26c-0.844,0-1.567-0.175-2.182-0.514c-0.604-0.343-1.07-0.827-1.401-1.461
			c-0.325-0.626-0.492-1.376-0.492-2.235c0-0.839,0.167-1.58,0.492-2.217c0.331-0.633,0.79-1.125,1.384-1.479
			c0.603-0.358,1.302-0.539,2.11-0.539c0.543,0,1.048,0.088,1.513,0.261c0.468,0.17,0.879,0.431,1.227,0.776
			c0.356,0.344,0.627,0.77,0.826,1.299c0.193,0.519,0.293,1.121,0.293,1.814v0.628h-6.934v-1.405h4.789
			c0-0.324-0.069-0.619-0.212-0.866c-0.144-0.256-0.339-0.454-0.591-0.593c-0.25-0.146-0.541-0.222-0.87-0.222
			c-0.351,0-0.654,0.085-0.921,0.243c-0.264,0.157-0.469,0.368-0.62,0.63c-0.15,0.268-0.227,0.556-0.229,0.878v1.339
			c0,0.407,0.071,0.755,0.223,1.047c0.155,0.292,0.368,0.52,0.648,0.681c0.273,0.158,0.606,0.243,0.987,0.243
			c0.253,0,0.483-0.04,0.691-0.104c0.214-0.074,0.39-0.18,0.541-0.326c0.151-0.14,0.264-0.314,0.341-0.521l2.109,0.136
			c-0.105,0.511-0.33,0.946-0.659,1.323c-0.325,0.374-0.751,0.662-1.272,0.873C73.077,89.154,72.482,89.26,71.803,89.26
			L71.803,89.26z M77.06,89.096v-8.173h2.171v1.443h0.095c0.172-0.476,0.453-0.856,0.853-1.138c0.399-0.273,0.876-0.414,1.436-0.414
			c0.56,0,1.043,0.144,1.439,0.42c0.39,0.282,0.654,0.658,0.786,1.133h0.09c0.163-0.474,0.469-0.842,0.908-1.128
			c0.44-0.279,0.963-0.425,1.563-0.425c0.767,0,1.388,0.243,1.867,0.726c0.484,0.49,0.723,1.174,0.723,2.06v5.496H86.72v-5.048
			c0-0.456-0.121-0.795-0.362-1.026c-0.248-0.229-0.547-0.341-0.91-0.341c-0.415,0-0.735,0.13-0.972,0.398
			c-0.231,0.254-0.346,0.604-0.346,1.024v4.993h-2.209v-5.094c0-0.404-0.116-0.72-0.347-0.963c-0.227-0.239-0.531-0.356-0.905-0.356
			c-0.252,0-0.48,0.068-0.679,0.193c-0.203,0.122-0.357,0.297-0.481,0.526c-0.116,0.228-0.172,0.484-0.172,0.792v4.903H77.06
			L77.06,89.096z M93.128,89.258c-0.525,0-0.99-0.095-1.4-0.276c-0.411-0.185-0.732-0.452-0.971-0.81
			c-0.234-0.363-0.352-0.819-0.352-1.358c0-0.449,0.082-0.832,0.25-1.148c0.164-0.305,0.397-0.548,0.682-0.737
			c0.29-0.189,0.615-0.336,0.988-0.429c0.371-0.092,0.759-0.162,1.161-0.205c0.481-0.05,0.867-0.09,1.154-0.135
			c0.294-0.049,0.504-0.111,0.636-0.203c0.132-0.088,0.201-0.223,0.201-0.397v-0.032c0-0.336-0.105-0.594-0.323-0.778
			c-0.208-0.184-0.51-0.28-0.899-0.28c-0.405,0-0.735,0.095-0.977,0.276c-0.241,0.178-0.403,0.403-0.48,0.668l-2.108-0.169
			c0.112-0.495,0.321-0.929,0.631-1.291c0.316-0.365,0.722-0.641,1.216-0.836c0.498-0.201,1.074-0.302,1.729-0.302
			c0.46,0,0.894,0.052,1.312,0.165c0.423,0.102,0.795,0.266,1.116,0.494c0.33,0.225,0.584,0.509,0.775,0.859
			c0.19,0.347,0.285,0.769,0.285,1.25v5.513h-2.16v-1.128h-0.068c-0.131,0.252-0.304,0.479-0.529,0.675
			c-0.219,0.192-0.485,0.341-0.792,0.448C93.894,89.203,93.536,89.258,93.128,89.258L93.128,89.258z M93.782,87.688
			c0.332,0,0.63-0.061,0.887-0.198c0.256-0.134,0.456-0.315,0.602-0.545c0.148-0.22,0.225-0.482,0.225-0.765v-0.873
			c-0.075,0.046-0.171,0.091-0.296,0.132c-0.121,0.038-0.258,0.063-0.413,0.097c-0.155,0.029-0.303,0.059-0.458,0.085l-0.419,0.052
			c-0.267,0.04-0.5,0.107-0.697,0.186c-0.202,0.089-0.359,0.202-0.468,0.347c-0.111,0.146-0.162,0.325-0.162,0.538
			c0,0.308,0.111,0.539,0.334,0.708C93.144,87.611,93.433,87.688,93.782,87.688z M101.797,84.374v4.722h-2.276v-8.173h2.17v1.443
			h0.095c0.185-0.474,0.485-0.85,0.915-1.132c0.424-0.276,0.943-0.42,1.557-0.42c0.568,0,1.064,0.127,1.49,0.371
			c0.419,0.252,0.753,0.606,0.988,1.067c0.234,0.46,0.351,1.008,0.351,1.638v5.207h-2.276v-4.801
			c0.003-0.498-0.125-0.89-0.385-1.166c-0.26-0.29-0.618-0.43-1.071-0.43c-0.31,0-0.581,0.069-0.815,0.199
			c-0.23,0.127-0.416,0.319-0.548,0.575C101.864,83.718,101.801,84.023,101.797,84.374z M111.907,89.235
			c-0.622,0-1.184-0.158-1.69-0.485c-0.503-0.322-0.902-0.791-1.201-1.42c-0.294-0.625-0.438-1.397-0.438-2.311
			c0-0.938,0.149-1.711,0.455-2.337c0.306-0.619,0.703-1.091,1.205-1.396c0.506-0.312,1.062-0.472,1.664-0.472
			c0.463,0,0.846,0.078,1.149,0.234c0.313,0.151,0.563,0.344,0.748,0.576c0.197,0.229,0.343,0.448,0.441,0.67h0.066v-4.099h2.271
			v10.901h-2.243v-1.304h-0.095c-0.106,0.221-0.258,0.448-0.457,0.675c-0.19,0.222-0.442,0.404-0.755,0.549
			C112.726,89.159,112.352,89.235,111.907,89.235L111.907,89.235z M112.634,87.43c0.366,0,0.673-0.103,0.925-0.303
			c0.258-0.202,0.457-0.482,0.592-0.845c0.14-0.362,0.207-0.789,0.207-1.273c0-0.482-0.066-0.909-0.201-1.267
			c-0.136-0.36-0.335-0.633-0.591-0.827c-0.257-0.197-0.565-0.299-0.932-0.299c-0.375,0-0.692,0.107-0.949,0.311
			c-0.257,0.203-0.448,0.479-0.581,0.837c-0.132,0.357-0.201,0.777-0.201,1.245c0,0.477,0.069,0.896,0.201,1.262
			c0.136,0.362,0.327,0.652,0.581,0.85C111.941,87.326,112.259,87.431,112.634,87.43L112.634,87.43z M121.936,89.096v-8.173h2.276
			v8.173H121.936z M123.085,79.87c-0.336,0-0.628-0.118-0.871-0.335c-0.242-0.228-0.362-0.505-0.362-0.819
			c0-0.309,0.12-0.582,0.362-0.799c0.242-0.229,0.533-0.34,0.865-0.34c0.346,0,0.632,0.11,0.87,0.34
			c0.244,0.217,0.369,0.49,0.369,0.799c0,0.314-0.125,0.591-0.369,0.819C123.712,79.752,123.428,79.87,123.085,79.87z
			 M128.315,84.374v4.722h-2.276v-8.173h2.17v1.443h0.094c0.185-0.474,0.486-0.85,0.917-1.132c0.429-0.276,0.943-0.42,1.557-0.42
			c0.567,0,1.063,0.127,1.49,0.371c0.426,0.252,0.753,0.606,0.987,1.067c0.234,0.46,0.352,1.008,0.352,1.638v5.207h-2.276v-4.801
			c0.003-0.498-0.125-0.89-0.386-1.166c-0.26-0.29-0.617-0.43-1.071-0.43c-0.308,0-0.581,0.069-0.814,0.199
			c-0.23,0.127-0.415,0.319-0.547,0.575C128.385,83.718,128.319,84.023,128.315,84.374L128.315,84.374z M31.942,97.691
			c-0.042-0.433-0.224-0.764-0.55-1.006c-0.324-0.236-0.762-0.357-1.317-0.357c-0.378,0-0.7,0.057-0.96,0.16
			c-0.26,0.107-0.458,0.25-0.597,0.435c-0.136,0.185-0.202,0.395-0.202,0.622c-0.007,0.198,0.03,0.367,0.123,0.519
			c0.091,0.144,0.217,0.267,0.38,0.37c0.161,0.11,0.343,0.195,0.552,0.276c0.214,0.072,0.438,0.135,0.675,0.193l0.983,0.237
			c0.481,0.102,0.916,0.243,1.316,0.42c0.4,0.177,0.744,0.397,1.038,0.66c0.293,0.253,0.519,0.557,0.676,0.908
			c0.166,0.352,0.253,0.756,0.253,1.214c0,0.666-0.173,1.246-0.51,1.733c-0.338,0.484-0.823,0.863-1.457,1.137
			c-0.631,0.263-1.391,0.398-2.282,0.398c-0.884,0-1.653-0.138-2.311-0.404c-0.653-0.273-1.162-0.672-1.528-1.204
			c-0.364-0.532-0.551-1.188-0.569-1.976h2.237c0.026,0.367,0.13,0.678,0.319,0.917c0.185,0.245,0.437,0.427,0.753,0.55
			c0.314,0.125,0.671,0.181,1.071,0.181c0.392,0,0.731-0.052,1.021-0.171c0.294-0.109,0.519-0.267,0.681-0.468
			c0.162-0.205,0.24-0.439,0.24-0.699c0-0.248-0.077-0.453-0.218-0.621c-0.144-0.166-0.358-0.305-0.631-0.419
			c-0.275-0.124-0.615-0.227-1.009-0.326l-1.195-0.296c-0.925-0.226-1.652-0.575-2.188-1.047c-0.536-0.483-0.802-1.118-0.798-1.922
			c-0.003-0.664,0.175-1.241,0.53-1.734c0.358-0.49,0.858-0.876,1.484-1.148c0.627-0.282,1.337-0.417,2.137-0.417
			c0.809,0,1.522,0.135,2.126,0.417c0.608,0.272,1.081,0.659,1.423,1.148c0.337,0.492,0.514,1.065,0.525,1.72H31.942z
			 M39.533,105.612c-0.827,0-1.542-0.176-2.154-0.528c-0.6-0.354-1.063-0.847-1.395-1.474c-0.325-0.64-0.491-1.376-0.491-2.212
			c0-0.842,0.166-1.581,0.491-2.217c0.332-0.632,0.794-1.123,1.395-1.477c0.612-0.359,1.328-0.537,2.154-0.537
			c0.833,0,1.548,0.177,2.148,0.537c0.611,0.354,1.076,0.845,1.401,1.477c0.331,0.636,0.497,1.375,0.497,2.217
			c0,0.836-0.166,1.572-0.497,2.212c-0.325,0.627-0.79,1.119-1.401,1.474C41.081,105.435,40.366,105.612,39.533,105.612z
			 M39.544,103.856c0.378,0,0.695-0.102,0.949-0.318c0.252-0.217,0.44-0.509,0.569-0.882c0.132-0.374,0.201-0.801,0.201-1.274
			c0-0.473-0.069-0.9-0.201-1.274c-0.129-0.373-0.317-0.662-0.569-0.882c-0.253-0.217-0.571-0.322-0.95-0.322
			c-0.38,0-0.698,0.104-0.958,0.322c-0.258,0.22-0.455,0.51-0.587,0.883c-0.128,0.373-0.188,0.8-0.188,1.274
			c0,0.472,0.061,0.899,0.188,1.273c0.132,0.374,0.33,0.665,0.587,0.882C38.845,103.753,39.163,103.856,39.544,103.856z
			 M50.32,101.975V97.28h2.276v8.172h-2.181v-1.479h-0.09c-0.183,0.477-0.493,0.863-0.92,1.149
			c-0.429,0.298-0.953,0.442-1.568,0.442c-0.55,0-1.032-0.13-1.451-0.373c-0.413-0.253-0.742-0.607-0.977-1.061
			c-0.23-0.462-0.348-1.011-0.351-1.646V97.28h2.277v4.798c0.004,0.481,0.134,0.863,0.39,1.149c0.257,0.276,0.599,0.414,1.032,0.414
			c0.276,0,0.533-0.056,0.771-0.185c0.237-0.127,0.427-0.315,0.573-0.558C50.253,102.646,50.324,102.34,50.32,101.975L50.32,101.975
			z M58.79,97.279v1.699h-4.944V97.28L58.79,97.279L58.79,97.279z M54.967,95.32h2.277v7.619c0,0.21,0.034,0.375,0.095,0.497
			c0.068,0.11,0.155,0.195,0.269,0.235c0.117,0.047,0.252,0.071,0.407,0.071c0.106,0,0.212-0.01,0.318-0.029l0.245-0.049
			l0.363,1.691c-0.119,0.036-0.274,0.076-0.485,0.12c-0.204,0.051-0.455,0.083-0.753,0.094c-0.543,0.022-1.031-0.053-1.439-0.219
			c-0.411-0.166-0.733-0.429-0.959-0.78c-0.227-0.351-0.339-0.792-0.335-1.327V95.32z M62.726,100.73v4.722H60.45V94.551h2.21v4.172
			h0.094c0.189-0.481,0.49-0.86,0.898-1.138c0.416-0.273,0.935-0.417,1.558-0.417c0.573,0,1.07,0.13,1.49,0.372
			c0.43,0.249,0.759,0.6,0.999,1.063c0.24,0.458,0.356,1.006,0.352,1.643v5.206h-2.276v-4.801c0.004-0.501-0.124-0.896-0.385-1.172
			c-0.257-0.286-0.616-0.424-1.083-0.424c-0.307,0-0.583,0.07-0.82,0.199c-0.234,0.128-0.423,0.32-0.559,0.575
			c-0.132,0.245-0.195,0.549-0.199,0.9H62.726z M75.254,105.452h-2.476l3.776-10.901h2.979l3.779,10.901H80.83l-2.74-8.41H78
			L75.254,105.452z M75.098,101.167h5.86v1.8h-5.86v-1.798V101.167z M88.838,97.279v1.699h-5.066V97.28L88.838,97.279L88.838,97.279
			z M84.932,105.452v-8.767c0-0.595,0.116-1.085,0.346-1.478c0.236-0.382,0.559-0.681,0.959-0.876
			c0.408-0.196,0.874-0.289,1.391-0.289c0.347,0,0.664,0.027,0.953,0.074c0.294,0.055,0.511,0.107,0.654,0.15l-0.409,1.699
			c-0.086-0.029-0.196-0.057-0.328-0.074c-0.128-0.026-0.261-0.039-0.397-0.039c-0.339,0-0.571,0.072-0.703,0.235
			c-0.132,0.152-0.195,0.361-0.195,0.642v8.722H84.932z M90.229,105.452v-8.173h2.211v1.426h0.083c0.15-0.505,0.4-0.889,0.753-1.153
			c0.352-0.258,0.758-0.387,1.216-0.387c0.12,0,0.242,0.003,0.375,0.013c0.127,0.015,0.248,0.035,0.345,0.061v2.016
			c-0.105-0.035-0.254-0.064-0.447-0.09c-0.186-0.022-0.36-0.03-0.519-0.03c-0.332,0-0.634,0.066-0.898,0.211
			c-0.258,0.149-0.465,0.34-0.62,0.598c-0.146,0.26-0.224,0.551-0.224,0.883v4.625H90.229z M96.392,105.452v-8.173h2.277v8.173
			H96.392z M97.535,96.225c-0.336,0-0.629-0.116-0.87-0.333c-0.241-0.229-0.363-0.505-0.363-0.82c0-0.309,0.12-0.583,0.363-0.799
			c0.241-0.228,0.531-0.341,0.869-0.341c0.342,0,0.634,0.113,0.873,0.341c0.241,0.217,0.363,0.49,0.363,0.799
			c0,0.314-0.121,0.59-0.363,0.82C98.168,96.108,97.878,96.226,97.535,96.225L97.535,96.225z M104.2,105.612
			c-0.839,0-1.566-0.178-2.171-0.533c-0.601-0.359-1.066-0.854-1.39-1.485c-0.317-0.64-0.48-1.371-0.48-2.195
			c0-0.834,0.165-1.57,0.486-2.207c0.325-0.629,0.794-1.127,1.395-1.485c0.601-0.359,1.321-0.538,2.149-0.538
			c0.714,0,1.343,0.135,1.88,0.389c0.539,0.263,0.968,0.628,1.278,1.093c0.315,0.473,0.484,1.023,0.518,1.651h-2.148
			c-0.059-0.41-0.22-0.739-0.48-0.981c-0.257-0.255-0.595-0.379-1.01-0.379c-0.351,0-0.662,0.091-0.927,0.284
			c-0.26,0.189-0.461,0.461-0.607,0.823c-0.148,0.361-0.218,0.804-0.218,1.317c0,0.521,0.068,0.97,0.212,1.334
			c0.146,0.366,0.349,0.64,0.613,0.833c0.265,0.193,0.576,0.283,0.927,0.283c0.26,0,0.493-0.045,0.697-0.157
			c0.214-0.103,0.383-0.256,0.519-0.459c0.139-0.209,0.229-0.458,0.273-0.742h2.148c-0.037,0.629-0.205,1.178-0.514,1.654
			c-0.298,0.468-0.72,0.837-1.254,1.106C105.562,105.479,104.929,105.612,104.2,105.612L104.2,105.612z M111.666,105.611
			c-0.526,0-0.99-0.092-1.401-0.273c-0.411-0.185-0.732-0.451-0.97-0.81c-0.235-0.363-0.352-0.818-0.352-1.357
			c0-0.45,0.082-0.834,0.25-1.148c0.164-0.306,0.396-0.549,0.681-0.738c0.291-0.189,0.616-0.338,0.988-0.428
			c0.37-0.096,0.759-0.162,1.16-0.205c0.482-0.052,0.868-0.091,1.156-0.135c0.293-0.05,0.504-0.114,0.636-0.205
			c0.132-0.09,0.202-0.222,0.202-0.395v-0.033c0-0.336-0.106-0.592-0.325-0.778c-0.208-0.184-0.51-0.28-0.898-0.28
			c-0.405,0-0.734,0.094-0.976,0.276c-0.241,0.177-0.404,0.4-0.48,0.668l-2.109-0.17c0.112-0.496,0.32-0.928,0.63-1.291
			c0.317-0.365,0.722-0.642,1.217-0.837c0.498-0.199,1.073-0.303,1.729-0.303c0.459,0,0.893,0.055,1.312,0.167
			c0.422,0.103,0.794,0.267,1.115,0.494c0.331,0.226,0.585,0.509,0.776,0.859c0.189,0.347,0.284,0.769,0.284,1.251v5.514h-2.16
			v-1.129h-0.067c-0.132,0.253-0.305,0.479-0.53,0.676c-0.219,0.192-0.485,0.341-0.791,0.447
			C112.43,105.559,112.072,105.611,111.666,105.611L111.666,105.611z M112.318,104.042c0.333,0,0.63-0.058,0.887-0.196
			c0.257-0.133,0.457-0.315,0.603-0.543c0.147-0.221,0.224-0.482,0.224-0.766v-0.874c-0.075,0.047-0.171,0.091-0.296,0.133
			c-0.121,0.037-0.258,0.063-0.413,0.097c-0.155,0.029-0.303,0.058-0.458,0.083l-0.418,0.052c-0.268,0.042-0.5,0.108-0.697,0.187
			c-0.204,0.091-0.36,0.203-0.47,0.347c-0.11,0.148-0.162,0.325-0.162,0.534c0,0.313,0.112,0.542,0.334,0.714
			C111.68,103.967,111.97,104.042,112.318,104.042L112.318,104.042z"/>
		<path fill="#FFFFFF" d="M63.371,15.5H25.05v25.898h38.321V15.5z M31.134,34.128v1.135h5.32v-1.287h-3.139v-0.053l1.094-1.063
			c0.513-0.46,0.911-0.861,1.187-1.191c0.284-0.332,0.483-0.633,0.591-0.912c0.11-0.269,0.163-0.552,0.163-0.829
			c0-0.431-0.108-0.812-0.328-1.143c-0.219-0.33-0.532-0.592-0.932-0.779c-0.397-0.19-0.86-0.279-1.396-0.279
			c-0.521,0-0.977,0.093-1.375,0.292c-0.401,0.195-0.707,0.478-0.928,0.835c-0.224,0.359-0.333,0.775-0.333,1.268h1.497
			c0-0.24,0.049-0.447,0.14-0.617c0.093-0.172,0.222-0.302,0.394-0.397c0.171-0.088,0.369-0.136,0.596-0.136
			c0.223,0,0.416,0.046,0.591,0.129c0.168,0.088,0.305,0.207,0.41,0.367c0.098,0.155,0.144,0.344,0.144,0.562
			c0,0.198-0.036,0.381-0.121,0.55c-0.077,0.165-0.194,0.336-0.351,0.511c-0.155,0.175-0.342,0.37-0.565,0.59L31.134,34.128z
			 M38.902,34.968c0.456,0.302,0.995,0.454,1.624,0.457c0.626,0,1.16-0.15,1.613-0.453c0.446-0.31,0.795-0.748,1.036-1.329
			c0.242-0.58,0.364-1.276,0.364-2.088c0.002-0.815-0.117-1.502-0.36-2.073c-0.242-0.573-0.595-1.003-1.043-1.31
			c-0.453-0.297-0.986-0.445-1.609-0.445c-0.628,0-1.164,0.148-1.62,0.445c-0.447,0.304-0.791,0.733-1.04,1.306
			c-0.24,0.573-0.36,1.262-0.36,2.077c-0.003,0.809,0.117,1.505,0.359,2.085C38.111,34.221,38.456,34.657,38.902,34.968z
			 M41.548,33.481c-0.254,0.432-0.599,0.639-1.022,0.639c-0.286,0-0.534-0.089-0.749-0.279c-0.21-0.191-0.375-0.474-0.491-0.855
			c-0.114-0.382-0.167-0.865-0.167-1.429c0.002-0.851,0.131-1.481,0.386-1.908c0.255-0.419,0.594-0.631,1.021-0.631
			c0.279,0,0.526,0.091,0.739,0.279c0.208,0.189,0.374,0.477,0.488,0.847c0.115,0.373,0.176,0.848,0.176,1.412
			C41.928,32.412,41.802,33.05,41.548,33.481z M44.663,35.263v-1.135l2.655-2.448c0.226-0.22,0.418-0.415,0.572-0.59
			c0.151-0.175,0.269-0.345,0.352-0.511c0.079-0.169,0.12-0.352,0.12-0.55c0-0.218-0.051-0.407-0.149-0.562
			c-0.099-0.16-0.235-0.278-0.41-0.367c-0.169-0.083-0.368-0.129-0.584-0.129c-0.227,0-0.429,0.049-0.596,0.137
			c-0.172,0.095-0.303,0.225-0.393,0.396c-0.098,0.171-0.141,0.377-0.141,0.617h-1.496c0-0.493,0.111-0.91,0.329-1.268
			c0.22-0.358,0.532-0.64,0.931-0.835c0.395-0.198,0.857-0.292,1.377-0.292c0.536,0,1,0.089,1.396,0.279
			c0.4,0.187,0.706,0.45,0.924,0.779c0.227,0.331,0.336,0.711,0.336,1.143c0,0.277-0.058,0.56-0.169,0.829
			c-0.109,0.278-0.302,0.58-0.584,0.912C48.849,32,48.451,32.4,47.938,32.86l-1.086,1.063v0.053h3.132v1.287H44.663z M52.437,34.968
			c0.45,0.302,0.991,0.454,1.617,0.457c0.626,0,1.166-0.15,1.613-0.453c0.453-0.31,0.796-0.748,1.036-1.329
			c0.242-0.58,0.363-1.276,0.363-2.088c0.003-0.815-0.117-1.502-0.36-2.073c-0.242-0.573-0.588-1.003-1.044-1.31
			c-0.446-0.297-0.984-0.445-1.609-0.445c-0.623,0-1.164,0.148-1.613,0.445c-0.453,0.304-0.797,0.733-1.039,1.306
			c-0.241,0.573-0.361,1.262-0.361,2.077c-0.002,0.809,0.116,1.505,0.357,2.085C51.64,34.221,51.983,34.657,52.437,34.968
			L52.437,34.968z M55.078,33.481c-0.255,0.432-0.595,0.639-1.025,0.639c-0.285,0-0.533-0.089-0.742-0.279
			c-0.211-0.191-0.376-0.474-0.492-0.855c-0.114-0.382-0.174-0.865-0.174-1.429c0.003-0.851,0.132-1.481,0.387-1.908
			c0.256-0.419,0.593-0.631,1.022-0.631c0.285,0,0.531,0.091,0.738,0.279c0.213,0.189,0.375,0.477,0.488,0.847
			c0.117,0.373,0.177,0.848,0.177,1.412C55.46,32.412,55.333,33.05,55.078,33.481z"/>
		<path fill="#FFFFFF" d="M25.643,131.35v-5.948h1.079v5.045h2.634v0.903H25.643z M31.944,131.444c-0.285,0-0.541-0.053-0.767-0.149
			c-0.225-0.107-0.406-0.257-0.539-0.458c-0.13-0.2-0.192-0.44-0.192-0.739c0-0.246,0.048-0.456,0.14-0.62
			c0.091-0.163,0.219-0.301,0.382-0.396c0.164-0.104,0.342-0.173,0.547-0.228c0.202-0.054,0.411-0.084,0.632-0.108
			c0.259-0.029,0.473-0.055,0.639-0.077c0.159-0.023,0.276-0.058,0.354-0.101c0.074-0.051,0.112-0.129,0.112-0.226v-0.019
			c0-0.22-0.068-0.388-0.198-0.506c-0.13-0.117-0.314-0.18-0.56-0.18c-0.258,0-0.468,0.059-0.613,0.168
			c-0.152,0.108-0.251,0.248-0.307,0.4l-0.984-0.138c0.076-0.276,0.205-0.504,0.385-0.686c0.176-0.184,0.399-0.32,0.658-0.407
			c0.259-0.098,0.54-0.146,0.856-0.146c0.213,0,0.426,0.027,0.645,0.08c0.211,0.052,0.41,0.13,0.583,0.252
			c0.18,0.111,0.323,0.265,0.429,0.464c0.108,0.199,0.164,0.448,0.164,0.743v2.982h-1.016v-0.608h-0.035
			c-0.068,0.122-0.156,0.235-0.271,0.348c-0.115,0.102-0.26,0.193-0.438,0.254C32.383,131.411,32.176,131.444,31.944,131.444z
			 M32.219,130.668c0.209,0,0.396-0.042,0.553-0.122c0.151-0.09,0.271-0.197,0.357-0.335c0.084-0.147,0.129-0.297,0.129-0.462
			v-0.525c-0.035,0.03-0.089,0.056-0.172,0.08c-0.075,0.022-0.166,0.037-0.262,0.056c-0.096,0.018-0.19,0.034-0.29,0.048
			l-0.249,0.037c-0.153,0.022-0.294,0.059-0.418,0.102c-0.124,0.049-0.222,0.121-0.296,0.203c-0.069,0.09-0.106,0.196-0.106,0.331
			c0,0.194,0.067,0.339,0.21,0.443C31.818,130.618,32,130.668,32.219,130.668z M35.83,131.35v-5.948h1.052v2.227h0.046
			c0.051-0.104,0.132-0.226,0.229-0.344c0.098-0.123,0.233-0.233,0.405-0.315c0.17-0.094,0.384-0.14,0.647-0.14
			c0.344,0,0.659,0.093,0.932,0.269c0.281,0.174,0.504,0.435,0.666,0.778c0.167,0.339,0.248,0.752,0.248,1.254
			c0,0.488-0.077,0.907-0.241,1.248c-0.163,0.343-0.381,0.599-0.661,0.779c-0.273,0.18-0.59,0.274-0.941,0.274
			c-0.256,0-0.472-0.045-0.639-0.125c-0.171-0.09-0.308-0.188-0.41-0.314c-0.099-0.119-0.182-0.231-0.234-0.346h-0.064v0.703H35.83
			L35.83,131.35z M36.86,129.124c0,0.285,0.042,0.542,0.122,0.752c0.087,0.219,0.207,0.387,0.363,0.515
			c0.154,0.117,0.347,0.18,0.569,0.18c0.231,0,0.431-0.064,0.586-0.187c0.156-0.131,0.274-0.302,0.358-0.514
			c0.079-0.219,0.122-0.472,0.122-0.746c0-0.281-0.042-0.521-0.119-0.738c-0.084-0.217-0.201-0.384-0.361-0.504
			c-0.153-0.127-0.353-0.183-0.587-0.183c-0.224,0-0.419,0.054-0.571,0.177c-0.159,0.115-0.278,0.279-0.364,0.495
			C36.902,128.584,36.86,128.831,36.86,129.124z M43.32,131.442c-0.44,0-0.82-0.101-1.138-0.293
			c-0.323-0.193-0.572-0.456-0.751-0.799c-0.171-0.345-0.262-0.75-0.262-1.207c0-0.467,0.091-0.872,0.262-1.217
			c0.179-0.347,0.428-0.612,0.751-0.804c0.318-0.191,0.698-0.292,1.138-0.292c0.433,0,0.813,0.102,1.136,0.292
			c0.318,0.191,0.566,0.457,0.742,0.804c0.174,0.346,0.268,0.75,0.268,1.217c0,0.456-0.094,0.862-0.267,1.207
			c-0.177,0.343-0.424,0.606-0.742,0.799C44.132,131.341,43.753,131.442,43.32,131.442z M43.324,130.593
			c0.238,0,0.433-0.059,0.594-0.188c0.162-0.136,0.28-0.312,0.354-0.532c0.078-0.218,0.12-0.467,0.12-0.733
			c0-0.278-0.042-0.526-0.12-0.742c-0.074-0.225-0.192-0.401-0.354-0.531c-0.161-0.138-0.356-0.198-0.594-0.198
			c-0.248,0-0.447,0.06-0.61,0.198c-0.155,0.129-0.277,0.306-0.357,0.531c-0.075,0.216-0.116,0.464-0.116,0.742
			c0,0.266,0.041,0.515,0.116,0.733c0.079,0.22,0.203,0.396,0.357,0.532C42.878,130.534,43.077,130.593,43.324,130.593z
			 M49.625,129.478v-2.588h1.057v4.46h-1.023v-0.789h-0.049c-0.102,0.246-0.269,0.45-0.498,0.609
			c-0.229,0.157-0.513,0.24-0.847,0.24c-0.295,0-0.555-0.067-0.779-0.196c-0.225-0.129-0.4-0.319-0.526-0.574
			c-0.126-0.246-0.192-0.556-0.192-0.912v-2.839h1.057v2.677c0,0.287,0.076,0.506,0.232,0.671c0.157,0.168,0.359,0.253,0.612,0.253
			c0.157,0,0.309-0.039,0.455-0.11c0.147-0.08,0.266-0.188,0.358-0.336C49.574,129.887,49.625,129.699,49.625,129.478
			L49.625,129.478z M52.177,131.35v-4.46H53.2v0.746h0.042c0.086-0.262,0.228-0.461,0.422-0.598c0.198-0.14,0.431-0.215,0.688-0.215
			c0.055,0,0.123,0.004,0.192,0.01c0.078,0.004,0.136,0.011,0.188,0.022v0.97c-0.048-0.016-0.116-0.031-0.218-0.044
			c-0.093-0.013-0.184-0.021-0.271-0.021c-0.196,0-0.371,0.044-0.52,0.132c-0.153,0.076-0.272,0.188-0.364,0.339
			c-0.085,0.145-0.13,0.311-0.13,0.502v2.618H52.177L52.177,131.35z M58.333,125.402h1.326l1.773,4.309h0.066l1.772-4.309h1.326
			v5.948h-1.039v-4.084h-0.052l-1.649,4.065h-0.777l-1.65-4.075h-0.059v4.094h-1.038L58.333,125.402L58.333,125.402z M67.43,131.444
			c-0.285,0-0.54-0.053-0.767-0.149c-0.231-0.107-0.406-0.257-0.538-0.458c-0.13-0.2-0.199-0.44-0.199-0.739
			c0-0.246,0.049-0.456,0.14-0.62c0.098-0.163,0.226-0.301,0.383-0.396c0.162-0.104,0.348-0.173,0.547-0.228
			c0.202-0.054,0.417-0.084,0.632-0.108c0.264-0.029,0.474-0.055,0.639-0.077c0.165-0.023,0.283-0.058,0.354-0.101
			c0.079-0.051,0.112-0.129,0.112-0.226v-0.019c0-0.22-0.062-0.388-0.192-0.506c-0.13-0.117-0.32-0.18-0.565-0.18
			c-0.259,0-0.462,0.059-0.615,0.168c-0.149,0.108-0.25,0.248-0.298,0.4l-0.991-0.138c0.082-0.276,0.21-0.504,0.386-0.686
			c0.182-0.184,0.398-0.32,0.656-0.407c0.26-0.098,0.547-0.146,0.857-0.146c0.22,0,0.433,0.027,0.645,0.08
			c0.218,0.052,0.41,0.13,0.589,0.252c0.174,0.111,0.316,0.265,0.423,0.464c0.107,0.199,0.165,0.448,0.165,0.743v2.982h-1.015
			v-0.608h-0.037c-0.062,0.122-0.152,0.235-0.272,0.348c-0.114,0.102-0.26,0.193-0.43,0.254
			C67.863,131.411,67.663,131.444,67.43,131.444L67.43,131.444z M67.701,130.668c0.214,0,0.395-0.042,0.551-0.122
			c0.157-0.09,0.276-0.197,0.357-0.335c0.09-0.147,0.128-0.297,0.128-0.462v-0.525c-0.027,0.03-0.087,0.056-0.164,0.08
			c-0.082,0.022-0.167,0.037-0.263,0.056c-0.102,0.018-0.197,0.034-0.291,0.048l-0.248,0.037c-0.159,0.022-0.3,0.059-0.424,0.102
			c-0.125,0.049-0.222,0.121-0.292,0.203c-0.075,0.09-0.113,0.196-0.113,0.331c0,0.194,0.075,0.339,0.218,0.443
			C67.304,130.618,67.481,130.668,67.701,130.668L67.701,130.668z M71.262,131.35v-4.46h1.024v0.746h0.048
			c0.079-0.262,0.221-0.461,0.423-0.598c0.196-0.14,0.424-0.215,0.68-0.215c0.062,0,0.124,0.004,0.198,0.01
			c0.072,0.004,0.136,0.011,0.182,0.022v0.97c-0.041-0.016-0.115-0.031-0.211-0.044c-0.093-0.013-0.19-0.021-0.278-0.021
			c-0.189,0-0.365,0.044-0.52,0.132c-0.153,0.076-0.272,0.188-0.358,0.339c-0.085,0.145-0.131,0.311-0.131,0.502v2.618H71.262z
			 M75.893,129.951l-0.003-1.27h0.171l1.607-1.791h1.231l-1.978,2.198h-0.216L75.893,129.951z M74.933,131.35v-5.948h1.051v5.948
			H74.933z M77.739,131.35l-1.455-2.024l0.708-0.743L79,131.35H77.739L77.739,131.35z M81.812,131.442
			c-0.446,0-0.833-0.098-1.162-0.285c-0.325-0.188-0.575-0.448-0.751-0.791c-0.172-0.344-0.263-0.751-0.263-1.215
			c0-0.463,0.091-0.868,0.263-1.214c0.179-0.348,0.425-0.615,0.746-0.809c0.314-0.196,0.685-0.299,1.115-0.299
			c0.277,0,0.539,0.046,0.782,0.14c0.247,0.083,0.462,0.216,0.649,0.399c0.193,0.185,0.343,0.421,0.452,0.704
			c0.108,0.287,0.165,0.622,0.165,1.015v0.32h-3.669V128.7h2.659c-0.002-0.203-0.049-0.381-0.132-0.537
			c-0.09-0.157-0.208-0.28-0.363-0.375c-0.146-0.086-0.327-0.133-0.525-0.133c-0.221,0-0.408,0.054-0.572,0.155
			c-0.165,0.098-0.292,0.24-0.382,0.408c-0.087,0.167-0.135,0.349-0.137,0.55v0.613c0,0.265,0.048,0.489,0.142,0.667
			c0.094,0.185,0.228,0.331,0.401,0.425c0.174,0.103,0.371,0.145,0.599,0.145c0.155,0,0.294-0.022,0.42-0.06
			c0.123-0.045,0.23-0.113,0.32-0.194c0.096-0.09,0.162-0.191,0.211-0.318l0.984,0.111c-0.065,0.254-0.184,0.482-0.355,0.676
			c-0.174,0.192-0.395,0.34-0.666,0.453C82.471,131.386,82.165,131.442,81.812,131.442L81.812,131.442z M87.346,126.89v0.818H84.77
			v-0.818H87.346z M85.405,125.822h1.058v4.189c0,0.141,0.023,0.245,0.062,0.325c0.046,0.07,0.101,0.12,0.176,0.149
			c0.07,0.029,0.154,0.044,0.239,0.044c0.063,0,0.126-0.005,0.183-0.016c0.053-0.01,0.098-0.02,0.128-0.028l0.174,0.825
			c-0.051,0.014-0.136,0.037-0.24,0.06c-0.102,0.025-0.229,0.04-0.38,0.043c-0.264,0.009-0.501-0.034-0.711-0.116
			c-0.216-0.093-0.38-0.227-0.504-0.414c-0.122-0.187-0.186-0.422-0.184-0.696V125.822L85.405,125.822z M26.722,137.67v5.949h-1.079
			v-5.949H26.722z M29.315,141.008v2.611h-1.057v-4.458h1.008v0.76h0.055c0.101-0.253,0.268-0.453,0.492-0.598
			c0.226-0.146,0.509-0.224,0.841-0.224c0.312,0,0.582,0.07,0.811,0.199c0.229,0.13,0.411,0.321,0.538,0.575
			c0.128,0.244,0.188,0.552,0.187,0.909v2.838h-1.052v-2.676c0-0.295-0.082-0.53-0.238-0.699c-0.149-0.168-0.366-0.257-0.639-0.257
			c-0.181,0-0.348,0.043-0.491,0.124c-0.143,0.079-0.254,0.19-0.333,0.35C29.357,140.61,29.315,140.791,29.315,141.008z
			 M35.91,139.16v0.809h-2.577v-0.809H35.91z M33.969,138.091h1.057v4.181c0,0.148,0.022,0.253,0.062,0.333
			c0.045,0.068,0.107,0.121,0.177,0.15c0.069,0.027,0.152,0.042,0.237,0.042c0.07,0,0.126-0.005,0.185-0.016
			c0.052-0.01,0.098-0.019,0.128-0.026l0.175,0.817c-0.053,0.02-0.139,0.043-0.242,0.068c-0.102,0.023-0.229,0.038-0.379,0.042
			c-0.265,0.009-0.502-0.033-0.713-0.124c-0.215-0.084-0.379-0.22-0.504-0.407c-0.122-0.187-0.185-0.42-0.182-0.7V138.091z
			 M39.136,143.704c-0.449,0-0.837-0.091-1.161-0.278c-0.329-0.188-0.578-0.448-0.749-0.796c-0.178-0.347-0.263-0.747-0.263-1.217
			c0-0.455,0.086-0.861,0.263-1.207c0.173-0.347,0.419-0.623,0.739-0.815c0.314-0.189,0.686-0.293,1.116-0.293
			c0.277,0,0.538,0.048,0.782,0.132c0.246,0.091,0.462,0.224,0.654,0.407c0.188,0.185,0.338,0.422,0.446,0.702
			c0.109,0.289,0.165,0.625,0.165,1.017v0.321h-3.669v-0.709h2.659c-0.002-0.202-0.049-0.38-0.132-0.538
			c-0.088-0.157-0.208-0.288-0.357-0.375c-0.153-0.095-0.333-0.134-0.532-0.134c-0.216,0-0.407,0.046-0.572,0.155
			c-0.158,0.099-0.286,0.233-0.381,0.401c-0.088,0.172-0.136,0.353-0.138,0.549v0.622c0,0.259,0.048,0.48,0.143,0.665
			c0.097,0.185,0.227,0.324,0.4,0.428c0.174,0.092,0.372,0.143,0.6,0.143c0.155,0,0.294-0.022,0.419-0.068
			c0.124-0.038,0.231-0.105,0.327-0.193c0.089-0.082,0.156-0.184,0.205-0.315l0.983,0.115c-0.059,0.254-0.176,0.484-0.354,0.679
			c-0.175,0.191-0.396,0.339-0.666,0.442C39.793,143.656,39.486,143.704,39.136,143.704L39.136,143.704z M43.486,137.67v5.949
			h-1.052v-5.949H43.486z M46.037,137.67v5.949H44.98v-5.949H46.037z M47.531,143.619v-4.458h1.058v4.458H47.531L47.531,143.619z
			 M48.064,138.522c-0.168,0-0.311-0.05-0.431-0.164c-0.119-0.109-0.181-0.243-0.181-0.404c0-0.16,0.062-0.293,0.184-0.399
			c0.121-0.118,0.26-0.168,0.428-0.168c0.169,0,0.313,0.051,0.43,0.168c0.121,0.106,0.178,0.239,0.178,0.399
			c0,0.162-0.057,0.295-0.178,0.404C48.377,138.472,48.233,138.522,48.064,138.522z M52.034,145.366
			c-0.379,0-0.708-0.045-0.976-0.151c-0.273-0.096-0.495-0.237-0.657-0.405c-0.167-0.167-0.281-0.353-0.347-0.556l0.953-0.224
			c0.045,0.076,0.104,0.16,0.188,0.24c0.081,0.089,0.189,0.157,0.328,0.212c0.14,0.062,0.313,0.091,0.528,0.091
			c0.296,0,0.543-0.075,0.742-0.215c0.194-0.142,0.297-0.375,0.297-0.694v-0.85h-0.054c-0.059,0.115-0.135,0.221-0.239,0.341
			c-0.102,0.111-0.239,0.203-0.413,0.284c-0.171,0.082-0.382,0.113-0.638,0.113c-0.342,0-0.658-0.075-0.933-0.236
			c-0.279-0.161-0.504-0.405-0.666-0.727c-0.165-0.325-0.244-0.727-0.244-1.216c0-0.492,0.079-0.904,0.244-1.243
			c0.162-0.337,0.388-0.59,0.667-0.764c0.277-0.176,0.592-0.268,0.935-0.268c0.262,0,0.477,0.048,0.648,0.132
			c0.173,0.091,0.309,0.193,0.41,0.323c0.099,0.119,0.173,0.231,0.229,0.344h0.061v-0.737h1.035v4.535
			c0,0.368-0.089,0.683-0.271,0.925c-0.183,0.252-0.433,0.439-0.752,0.559C52.796,145.308,52.438,145.366,52.034,145.366z
			 M52.043,142.731c0.221,0,0.416-0.058,0.568-0.162c0.159-0.114,0.279-0.269,0.363-0.474c0.081-0.195,0.124-0.443,0.124-0.726
			c0-0.285-0.043-0.533-0.124-0.737c-0.082-0.212-0.201-0.375-0.36-0.497c-0.15-0.116-0.345-0.177-0.571-0.177
			c-0.235,0-0.434,0.063-0.592,0.183c-0.154,0.128-0.272,0.294-0.356,0.508c-0.076,0.206-0.118,0.448-0.118,0.72
			c0,0.271,0.042,0.512,0.118,0.718c0.086,0.197,0.206,0.36,0.358,0.476C51.614,142.672,51.813,142.731,52.043,142.731
			L52.043,142.731z M57.61,143.704c-0.447,0-0.833-0.091-1.164-0.278c-0.322-0.188-0.572-0.448-0.749-0.796
			c-0.178-0.347-0.263-0.747-0.263-1.217c0-0.455,0.085-0.861,0.263-1.207c0.179-0.347,0.426-0.623,0.739-0.815
			c0.32-0.189,0.691-0.293,1.116-0.293c0.277,0,0.539,0.048,0.782,0.132c0.246,0.091,0.468,0.224,0.654,0.407
			c0.194,0.185,0.338,0.422,0.453,0.702c0.107,0.289,0.159,0.625,0.159,1.017v0.321h-3.67v-0.709h2.658
			c-0.002-0.202-0.042-0.38-0.13-0.538c-0.084-0.157-0.204-0.288-0.358-0.375c-0.152-0.095-0.326-0.134-0.532-0.134
			c-0.213,0-0.403,0.046-0.565,0.155c-0.166,0.099-0.292,0.233-0.382,0.401c-0.092,0.172-0.136,0.353-0.138,0.549v0.622
			c0,0.259,0.046,0.48,0.144,0.665c0.094,0.185,0.228,0.324,0.4,0.428c0.167,0.092,0.371,0.143,0.599,0.143
			c0.156,0,0.294-0.022,0.419-0.068c0.124-0.038,0.231-0.105,0.32-0.193c0.089-0.082,0.161-0.184,0.205-0.315l0.989,0.115
			c-0.064,0.254-0.184,0.484-0.36,0.679c-0.17,0.191-0.389,0.339-0.66,0.442C58.268,143.656,57.957,143.704,57.61,143.704z
			 M61.962,141.008v2.611h-1.057v-4.458h1.008v0.76h0.056c0.101-0.253,0.268-0.453,0.491-0.598c0.226-0.146,0.509-0.224,0.841-0.224
			c0.312,0,0.582,0.07,0.81,0.199c0.23,0.13,0.411,0.321,0.538,0.575c0.128,0.244,0.189,0.552,0.186,0.909v2.838h-1.057v-2.676
			c0-0.295-0.076-0.53-0.233-0.699c-0.155-0.168-0.366-0.257-0.638-0.257c-0.182,0-0.348,0.043-0.491,0.124
			c-0.144,0.079-0.255,0.19-0.334,0.35C61.998,140.61,61.962,140.791,61.962,141.008z M68.272,143.704
			c-0.446,0-0.828-0.096-1.152-0.293c-0.316-0.196-0.563-0.462-0.737-0.806c-0.173-0.346-0.256-0.746-0.256-1.201
			c0-0.449,0.085-0.852,0.262-1.198c0.172-0.347,0.422-0.623,0.74-0.815c0.318-0.189,0.697-0.293,1.136-0.293
			c0.364,0,0.688,0.071,0.963,0.202c0.283,0.13,0.506,0.317,0.675,0.563c0.168,0.243,0.263,0.519,0.288,0.838h-1.01
			c-0.042-0.216-0.137-0.395-0.293-0.538c-0.153-0.143-0.353-0.219-0.607-0.219c-0.214,0-0.407,0.061-0.572,0.174
			c-0.159,0.12-0.286,0.284-0.382,0.5c-0.088,0.211-0.134,0.47-0.134,0.767c0,0.309,0.046,0.567,0.135,0.787
			c0.093,0.22,0.218,0.387,0.375,0.501c0.164,0.122,0.36,0.175,0.578,0.175c0.157,0,0.296-0.032,0.419-0.083
			c0.124-0.064,0.226-0.144,0.308-0.263c0.086-0.109,0.142-0.243,0.173-0.41h1.01c-0.027,0.319-0.119,0.596-0.282,0.843
			c-0.162,0.236-0.381,0.426-0.66,0.57C68.971,143.64,68.647,143.704,68.272,143.704L68.272,143.704z M73.45,143.704
			c-0.447,0-0.835-0.091-1.165-0.278c-0.322-0.188-0.572-0.448-0.749-0.796c-0.171-0.347-0.263-0.747-0.263-1.217
			c0-0.455,0.092-0.861,0.263-1.207c0.179-0.347,0.426-0.623,0.739-0.815c0.32-0.189,0.692-0.293,1.123-0.293
			c0.27,0,0.532,0.048,0.776,0.132c0.252,0.091,0.467,0.224,0.653,0.407c0.193,0.185,0.345,0.422,0.452,0.702
			c0.108,0.289,0.165,0.625,0.165,1.017v0.321h-3.675v-0.709h2.66c0-0.202-0.043-0.38-0.126-0.538
			c-0.089-0.157-0.208-0.288-0.364-0.375c-0.146-0.095-0.326-0.134-0.526-0.134c-0.219,0-0.405,0.046-0.571,0.155
			c-0.165,0.099-0.292,0.233-0.381,0.401c-0.087,0.172-0.136,0.353-0.138,0.549v0.622c0,0.259,0.051,0.48,0.144,0.665
			c0.094,0.185,0.228,0.324,0.4,0.428c0.168,0.092,0.372,0.143,0.599,0.143c0.156,0,0.294-0.022,0.419-0.068
			c0.124-0.038,0.231-0.105,0.321-0.193c0.095-0.082,0.161-0.184,0.211-0.315l0.983,0.115c-0.065,0.254-0.183,0.484-0.354,0.679
			c-0.175,0.191-0.396,0.339-0.666,0.442C74.107,143.656,73.796,143.704,73.45,143.704z M79.241,143.619v-5.949h2.238
			c0.456,0,0.84,0.09,1.155,0.26c0.31,0.168,0.552,0.397,0.706,0.702c0.164,0.293,0.241,0.629,0.241,1.006
			c0,0.383-0.078,0.72-0.241,1.017c-0.157,0.3-0.4,0.532-0.711,0.706c-0.319,0.168-0.706,0.247-1.165,0.247h-1.482v-0.885h1.336
			c0.268,0,0.487-0.048,0.66-0.136c0.173-0.099,0.299-0.225,0.378-0.386c0.082-0.161,0.125-0.349,0.125-0.563
			c0-0.21-0.043-0.397-0.125-0.557c-0.079-0.161-0.207-0.282-0.381-0.375c-0.174-0.087-0.393-0.135-0.664-0.135H80.32v5.048H79.241
			L79.241,143.619z M84.886,143.619v-4.458h1.024v0.744h0.049c0.08-0.261,0.221-0.461,0.416-0.598
			c0.204-0.139,0.431-0.214,0.688-0.214c0.06,0,0.123,0.003,0.192,0.009c0.078,0.004,0.136,0.011,0.187,0.022v0.97
			c-0.047-0.016-0.114-0.029-0.21-0.042c-0.101-0.014-0.191-0.022-0.278-0.022c-0.195,0-0.365,0.042-0.521,0.123
			c-0.153,0.085-0.271,0.195-0.357,0.338c-0.092,0.153-0.132,0.319-0.132,0.51v2.619H84.886z M90.319,143.704
			c-0.433,0-0.813-0.094-1.136-0.287c-0.317-0.192-0.566-0.456-0.746-0.798c-0.171-0.35-0.262-0.75-0.262-1.214
			c0-0.457,0.091-0.864,0.262-1.209c0.179-0.346,0.428-0.618,0.746-0.805c0.324-0.189,0.703-0.291,1.137-0.291
			c0.439,0,0.819,0.102,1.136,0.291c0.324,0.187,0.572,0.459,0.745,0.805c0.176,0.346,0.264,0.752,0.264,1.209
			c0,0.464-0.088,0.865-0.264,1.214c-0.173,0.342-0.421,0.606-0.744,0.798C91.139,143.609,90.761,143.704,90.319,143.704
			L90.319,143.704z M90.326,142.861c0.236,0,0.438-0.058,0.599-0.194c0.155-0.129,0.273-0.305,0.354-0.529
			c0.078-0.223,0.121-0.462,0.121-0.737c0-0.269-0.042-0.52-0.121-0.742c-0.081-0.217-0.198-0.394-0.354-0.531
			c-0.161-0.13-0.362-0.192-0.599-0.192c-0.242,0-0.443,0.062-0.605,0.192c-0.161,0.137-0.279,0.314-0.357,0.531
			c-0.081,0.222-0.117,0.474-0.117,0.742c0,0.276,0.036,0.515,0.117,0.737c0.077,0.224,0.196,0.4,0.357,0.529
			C89.884,142.803,90.084,142.861,90.326,142.861z M95.723,145.366c-0.378,0-0.708-0.045-0.981-0.151
			c-0.267-0.096-0.49-0.237-0.65-0.405c-0.167-0.167-0.282-0.353-0.348-0.556l0.953-0.224c0.043,0.076,0.104,0.16,0.183,0.24
			c0.086,0.089,0.196,0.157,0.333,0.212c0.141,0.062,0.313,0.091,0.53,0.091c0.295,0,0.543-0.075,0.741-0.215
			c0.195-0.142,0.292-0.375,0.292-0.694v-0.85h-0.049c-0.057,0.115-0.134,0.221-0.238,0.341c-0.102,0.111-0.24,0.203-0.413,0.284
			c-0.171,0.082-0.381,0.113-0.639,0.113c-0.341,0-0.656-0.075-0.938-0.236c-0.272-0.161-0.5-0.405-0.66-0.727
			c-0.165-0.325-0.244-0.727-0.244-1.216c0-0.492,0.08-0.904,0.244-1.243c0.16-0.337,0.388-0.59,0.664-0.764
			c0.28-0.176,0.596-0.268,0.937-0.268c0.264,0,0.477,0.048,0.649,0.132c0.173,0.091,0.305,0.193,0.41,0.323
			c0.099,0.119,0.172,0.231,0.228,0.344h0.055v-0.737h1.042v4.535c0,0.368-0.088,0.683-0.274,0.925
			c-0.18,0.252-0.43,0.439-0.749,0.559C96.486,145.308,96.126,145.366,95.723,145.366L95.723,145.366z M95.733,142.731
			c0.221,0,0.408-0.058,0.568-0.162c0.159-0.114,0.277-0.269,0.357-0.474c0.085-0.195,0.122-0.443,0.122-0.726
			c0-0.285-0.037-0.533-0.122-0.737c-0.078-0.212-0.195-0.375-0.354-0.497c-0.158-0.116-0.346-0.177-0.572-0.177
			c-0.234,0-0.434,0.063-0.593,0.183c-0.153,0.128-0.271,0.294-0.354,0.508c-0.078,0.206-0.12,0.448-0.12,0.72
			c0,0.271,0.042,0.512,0.121,0.718c0.082,0.197,0.204,0.36,0.356,0.476C95.304,142.672,95.501,142.731,95.733,142.731
			L95.733,142.731z M99.313,143.619v-4.458h1.024v0.744h0.048c0.08-0.261,0.221-0.461,0.422-0.598
			c0.198-0.139,0.425-0.214,0.681-0.214c0.062,0,0.124,0.003,0.198,0.009c0.072,0.004,0.136,0.011,0.181,0.022v0.97
			c-0.04-0.016-0.114-0.029-0.21-0.042c-0.093-0.014-0.188-0.022-0.277-0.022c-0.189,0-0.366,0.042-0.52,0.123
			c-0.151,0.085-0.272,0.195-0.358,0.338c-0.085,0.153-0.13,0.319-0.13,0.51v2.619H99.313L99.313,143.619z M104.183,143.706
			c-0.286,0-0.541-0.045-0.767-0.151c-0.225-0.099-0.407-0.25-0.539-0.448c-0.13-0.201-0.192-0.45-0.192-0.739
			c0-0.255,0.049-0.461,0.14-0.629c0.092-0.163,0.219-0.293,0.382-0.387c0.164-0.104,0.341-0.173,0.547-0.226
			c0.203-0.056,0.411-0.095,0.633-0.112c0.257-0.027,0.474-0.052,0.638-0.074c0.16-0.025,0.277-0.062,0.355-0.106
			c0.073-0.046,0.112-0.125,0.112-0.222v-0.017c0-0.221-0.068-0.39-0.198-0.507c-0.13-0.125-0.314-0.18-0.559-0.18
			c-0.258,0-0.467,0.051-0.613,0.168c-0.152,0.108-0.251,0.24-0.306,0.395l-0.984-0.14c0.075-0.267,0.204-0.497,0.384-0.679
			c0.176-0.184,0.398-0.317,0.658-0.414c0.259-0.088,0.54-0.138,0.855-0.138c0.214,0,0.426,0.027,0.645,0.079
			c0.211,0.044,0.41,0.131,0.583,0.245c0.179,0.119,0.322,0.274,0.427,0.472c0.109,0.199,0.163,0.441,0.163,0.742v2.982h-1.016
			v-0.616h-0.033c-0.067,0.129-0.156,0.242-0.271,0.348c-0.115,0.112-0.26,0.192-0.438,0.262
			C104.622,143.679,104.415,143.706,104.183,143.706L104.183,143.706z M104.458,142.938c0.209,0,0.396-0.044,0.552-0.127
			c0.151-0.084,0.27-0.192,0.357-0.339c0.084-0.139,0.129-0.288,0.129-0.452v-0.525c-0.035,0.028-0.091,0.051-0.17,0.07
			c-0.076,0.025-0.167,0.045-0.263,0.063c-0.096,0.019-0.19,0.036-0.291,0.05l-0.248,0.035c-0.152,0.019-0.294,0.051-0.418,0.102
			c-0.124,0.05-0.224,0.113-0.296,0.205c-0.069,0.081-0.106,0.196-0.106,0.329c0,0.195,0.067,0.339,0.21,0.443
			C104.056,142.886,104.239,142.938,104.458,142.938L104.458,142.938z M108.02,143.619v-4.458h1.009v0.76h0.055
			c0.092-0.26,0.247-0.461,0.461-0.601c0.214-0.146,0.471-0.221,0.772-0.221c0.3,0,0.555,0.077,0.767,0.224
			c0.208,0.142,0.357,0.343,0.441,0.598h0.049c0.098-0.251,0.266-0.45,0.5-0.595c0.236-0.148,0.519-0.227,0.84-0.227
			c0.414,0,0.748,0.127,1.009,0.392c0.26,0.259,0.39,0.633,0.39,1.138v2.991h-1.053v-2.83c0-0.28-0.078-0.484-0.227-0.61
			c-0.142-0.126-0.326-0.195-0.538-0.195c-0.254,0-0.458,0.084-0.603,0.242c-0.141,0.155-0.211,0.362-0.211,0.608v2.786h-1.036
			v-2.875c0-0.232-0.067-0.417-0.208-0.553c-0.138-0.135-0.322-0.208-0.544-0.208c-0.153,0-0.292,0.041-0.416,0.123
			c-0.124,0.069-0.221,0.182-0.293,0.321c-0.077,0.135-0.11,0.293-0.11,0.477v2.714H108.02L108.02,143.619z M115.801,143.619v-4.458
			h1.008v0.76h0.049c0.098-0.26,0.248-0.461,0.467-0.601c0.214-0.146,0.472-0.221,0.773-0.221c0.299,0,0.555,0.077,0.763,0.224
			c0.212,0.142,0.361,0.343,0.444,0.598h0.049c0.098-0.251,0.267-0.45,0.501-0.595c0.236-0.148,0.518-0.227,0.84-0.227
			c0.414,0,0.748,0.127,1.008,0.392c0.262,0.259,0.392,0.633,0.392,1.138v2.991h-1.06v-2.83c0-0.28-0.071-0.484-0.22-0.61
			c-0.148-0.126-0.326-0.195-0.543-0.195c-0.255,0-0.451,0.084-0.597,0.242c-0.142,0.155-0.21,0.362-0.21,0.608v2.786h-1.036v-2.875
			c0-0.232-0.074-0.417-0.208-0.553c-0.139-0.135-0.322-0.208-0.544-0.208c-0.153,0-0.292,0.041-0.416,0.123
			c-0.125,0.069-0.222,0.182-0.299,0.321c-0.072,0.135-0.11,0.293-0.11,0.477v2.714H115.801L115.801,143.619z M125.562,143.704
			c-0.452,0-0.841-0.091-1.164-0.278c-0.329-0.188-0.578-0.448-0.749-0.796c-0.177-0.347-0.263-0.747-0.263-1.217
			c0-0.455,0.086-0.861,0.263-1.207c0.173-0.347,0.419-0.623,0.739-0.815c0.314-0.189,0.692-0.293,1.116-0.293
			c0.276,0,0.538,0.048,0.781,0.132c0.247,0.091,0.463,0.224,0.655,0.407c0.188,0.185,0.338,0.422,0.445,0.702
			c0.11,0.289,0.166,0.625,0.166,1.017v0.321h-3.67v-0.709h2.658c-0.002-0.202-0.047-0.38-0.131-0.538
			c-0.083-0.157-0.202-0.288-0.356-0.375c-0.153-0.095-0.333-0.134-0.532-0.134c-0.215,0-0.407,0.046-0.566,0.155
			c-0.166,0.099-0.293,0.233-0.382,0.401c-0.093,0.172-0.136,0.353-0.138,0.549v0.622c0,0.259,0.044,0.48,0.141,0.665
			c0.097,0.185,0.229,0.324,0.396,0.428c0.174,0.092,0.371,0.143,0.605,0.143c0.149,0,0.288-0.022,0.413-0.068
			c0.125-0.038,0.236-0.105,0.328-0.193c0.089-0.082,0.161-0.184,0.205-0.315l0.984,0.115c-0.059,0.254-0.178,0.484-0.354,0.679
			c-0.169,0.191-0.396,0.339-0.667,0.442C126.22,143.656,125.908,143.704,125.562,143.704L125.562,143.704z M25.05,115.675h54.738
			v0.687H25.05V115.675z"/>
	</g>
</g>
</svg>
