<?xml version="1.0" encoding="utf-8"?>
<!-- Generator: Adobe Illustrator 16.0.0, SVG Export Plug-In . SVG Version: 6.00 Build 0)  -->
<!DOCTYPE svg PUBLIC "-//W3C//DTD SVG 1.1//EN" "http://www.w3.org/Graphics/SVG/1.1/DTD/svg11.dtd">
<svg version="1.1" id="Layer_1" xmlns="http://www.w3.org/2000/svg" xmlns:xlink="http://www.w3.org/1999/xlink" x="0px" y="0px"
	 width="260px" height="368px" viewBox="10 15.5 260 368" enable-background="new 10 15.5 260 368" xml:space="preserve">
<g>
	<defs>
		<rect id="SVGID_1_" x="10" y="15.5" width="260" height="368"/>
	</defs>
	<clipPath id="SVGID_2_">
		<use xlink:href="#SVGID_1_"  overflow="visible"/>
	</clipPath>
	<g clip-path="url(#SVGID_2_)">
		<path fill="#3382C7" d="M10,15.5h260v368H10V15.5z"/>
		<path fill="#FFFFFF" fill-opacity="0.2" d="M209.108,104.094v44.288c24.557,0,44.476-19.822,44.476-44.288"/>
		<path fill="none" stroke="#FFFFFF" stroke-width="0.9254" d="M209.108,104.094v44.288c24.557,0,44.476-19.822,44.476-44.288
			H209.108z"/>
		<path fill="none" stroke="#FFFFFF" stroke-width="0.9254" d="M209.108,338.98v44.52c-24.556,0-44.478-19.942-44.478-44.52
			 M209.108,294.46v44.521c-24.556,0-44.478-19.948-44.478-44.521"/>
		<path fill="#1A1A1A" fill-opacity="0.2" d="M209.108,294.46v-44.521c24.557,0,44.476,19.918,44.476,44.521"/>
		<path fill="none" stroke="#FFFFFF" stroke-width="0.9254" d="M209.108,294.46v-44.521c24.557,0,44.476,19.918,44.476,44.521
			H209.108z"/>
		<path fill="#FFFFFF" fill-opacity="0.2" stroke="#FFFFFF" stroke-width="0.9254" d="M209.108,249.939h-44.478v44.521
			L209.108,249.939z M209.108,294.46h44.476v44.521L209.108,294.46z M209.108,338.98h44.476v44.52L209.108,338.98z"/>
		<path fill="none" stroke="#FFFFFF" stroke-width="0.9254" d="M253.586,205.636h-44.478v44.304L253.586,205.636L253.586,205.636z
			 M253.586,104.094h44.473V59.792L253.586,104.094L253.586,104.094z"/>
		<path fill="none" stroke="#FFFFFF" stroke-width="0.9254" d="M209.108,249.939c0-12.233-9.96-22.167-22.247-22.167
			c-12.27,0-22.23,9.934-22.23,22.167H209.108L209.108,249.939z M253.586,59.792c0-12.221-9.961-22.14-22.249-22.14
			c-12.269,0-22.229,9.918-22.229,22.14H253.586z M253.586,15.5c0,12.233-9.961,22.152-22.249,22.152
			c-12.269,0-22.229-9.919-22.229-22.152H253.586z M298.059,294.214c0-12.233-9.957-22.138-22.244-22.138
			c-12.285,0-22.23,9.904-22.23,22.138H298.059z M298.059,249.939c0,12.232-9.957,22.137-22.244,22.137
			c-12.285,0-22.23-9.904-22.23-22.137H298.059L298.059,249.939z M253.586,148.382c0,12.234-9.961,22.152-22.249,22.152
			c-12.269,0-22.229-9.918-22.229-22.152H253.586L253.586,148.382z"/>
		<path fill="#FFFFFF" fill-opacity="0.2" stroke="#FFFFFF" stroke-width="0.9254" d="M209.108,205.297
			c0-12.234-9.96-22.152-22.247-22.152c-12.27,0-22.23,9.918-22.23,22.152c0,12.232,9.961,22.136,22.23,22.136
			C199.148,227.433,209.108,217.529,209.108,205.297z"/>
		<path fill="none" stroke="#FFFFFF" stroke-width="0.9254" d="M209.108,148.382h-44.478v-44.288L209.108,148.382L209.108,148.382z"
			/>
		<path fill="#1A1A1A" fill-opacity="0.2" stroke="#FFFFFF" stroke-width="0.9254" d="M209.108,104.094h-44.478V59.792h44.478
			V104.094z"/>
		<path fill="#1A1A1A" fill-opacity="0.2" stroke="#FFFFFF" stroke-width="0.9254" d="M298.059,249.939h-44.473v-44.304h44.473
			V249.939z"/>
		<path fill="#1A1A1A" fill-opacity="0.2" stroke="#FFFFFF" stroke-width="0.9254" d="M209.108,15.5h-44.478v44.292L209.108,15.5z"
			/>
		<path fill="#FFFFFF" fill-opacity="0.2" stroke="#FFFFFF" stroke-width="0.9254" d="M253.686,104.094
			c0,24.466,18.671,44.288,41.685,44.288s41.685-19.822,41.685-44.288H253.686z"/>
		<path fill="#1A1A1A" fill-opacity="0.2" stroke="#FFFFFF" stroke-width="0.9254" d="M253.586,15.5
			c0,24.466,19.899,44.292,44.473,44.292c24.561,0,44.461-19.826,44.461-44.292H253.586z"/>
		<path fill="#FFFFFF" d="M31.941,64.981c-0.042-0.435-0.223-0.767-0.55-1.009c-0.324-0.228-0.762-0.357-1.317-0.357
			c-0.378,0-0.701,0.058-0.962,0.159c-0.259,0.111-0.457,0.251-0.596,0.437c-0.136,0.185-0.2,0.397-0.2,0.621
			c-0.007,0.197,0.029,0.367,0.123,0.523c0.09,0.143,0.216,0.265,0.38,0.366c0.16,0.111,0.342,0.194,0.55,0.279
			c0.216,0.08,0.439,0.135,0.676,0.192l0.982,0.239c0.484,0.101,0.917,0.24,1.317,0.417c0.401,0.178,0.744,0.4,1.039,0.665
			c0.293,0.251,0.519,0.552,0.675,0.906c0.165,0.359,0.253,0.754,0.253,1.216c0,0.664-0.172,1.245-0.509,1.73
			c-0.34,0.483-0.824,0.861-1.458,1.139c-0.631,0.259-1.391,0.403-2.282,0.403c-0.884,0-1.653-0.146-2.311-0.409
			c-0.653-0.277-1.162-0.667-1.529-1.205c-0.363-0.535-0.548-1.188-0.567-1.977h2.236c0.027,0.364,0.13,0.68,0.32,0.916
			c0.184,0.246,0.435,0.43,0.752,0.548c0.313,0.131,0.669,0.181,1.069,0.181c0.393,0,0.73-0.046,1.021-0.169
			c0.296-0.108,0.519-0.265,0.683-0.469c0.162-0.205,0.239-0.441,0.239-0.695c0-0.251-0.077-0.459-0.216-0.625
			c-0.145-0.165-0.361-0.305-0.631-0.417c-0.275-0.127-0.618-0.227-1.009-0.331l-1.196-0.293c-0.926-0.228-1.652-0.577-2.188-1.047
			c-0.537-0.477-0.803-1.119-0.799-1.917c-0.003-0.671,0.176-1.251,0.531-1.741c0.358-0.489,0.861-0.876,1.487-1.146
			c0.627-0.285,1.335-0.42,2.137-0.42c0.807,0,1.522,0.135,2.125,0.42c0.607,0.27,1.081,0.657,1.424,1.146
			c0.335,0.489,0.514,1.064,0.525,1.724L31.941,64.981L31.941,64.981z M37.886,70.392l0.006-2.717h0.337l2.627-3.107h2.61
			l-3.531,4.108h-0.542L37.886,70.392z M35.83,72.737V61.84h2.277v10.898L35.83,72.737L35.83,72.737z M40.956,72.737l-2.417-3.558
			l1.517-1.602l3.566,5.161L40.956,72.737L40.956,72.737z M44.591,72.737v-8.169h2.277v8.169H44.591z M45.737,63.515
			c-0.341,0-0.634-0.12-0.875-0.333c-0.241-0.231-0.363-0.51-0.363-0.822c0-0.309,0.121-0.584,0.363-0.796
			c0.242-0.231,0.532-0.34,0.874-0.34c0.34,0,0.632,0.109,0.87,0.34c0.242,0.213,0.363,0.488,0.363,0.796
			c0,0.313-0.12,0.591-0.363,0.822C46.367,63.395,46.076,63.516,45.737,63.515L45.737,63.515z M50.962,61.839v10.898h-2.276V61.84
			L50.962,61.839L50.962,61.839z M55.066,61.839v10.898H52.79V61.84L55.066,61.839L55.066,61.839z M63.723,66.899l-2.089,0.124
			c-0.029-0.178-0.11-0.336-0.228-0.475c-0.117-0.143-0.274-0.268-0.462-0.345c-0.193-0.096-0.417-0.129-0.682-0.129
			c-0.351,0-0.651,0.065-0.894,0.211c-0.24,0.153-0.362,0.34-0.362,0.59c0,0.197,0.074,0.36,0.233,0.492
			c0.161,0.146,0.43,0.249,0.812,0.331l1.483,0.299c0.801,0.162,1.393,0.42,1.786,0.78c0.393,0.361,0.584,0.847,0.584,1.437
			c0,0.538-0.152,1.003-0.473,1.413c-0.309,0.393-0.744,0.719-1.296,0.936c-0.538,0.227-1.167,0.345-1.885,0.345
			c-1.082,0-1.947-0.226-2.592-0.684c-0.642-0.447-1.018-1.072-1.13-1.843l2.24-0.126c0.063,0.328,0.23,0.584,0.491,0.759
			c0.261,0.169,0.59,0.261,0.998,0.261c0.401,0,0.717-0.082,0.967-0.233c0.246-0.155,0.371-0.355,0.374-0.606
			c-0.004-0.208-0.098-0.375-0.263-0.502c-0.174-0.132-0.438-0.243-0.793-0.305l-1.424-0.291c-0.805-0.158-1.398-0.429-1.792-0.824
			c-0.389-0.398-0.578-0.896-0.578-1.513c0-0.524,0.145-0.969,0.421-1.351c0.292-0.382,0.698-0.669,1.219-0.877
			c0.525-0.208,1.136-0.308,1.833-0.308c1.039,0,1.859,0.209,2.452,0.652C63.27,65.545,63.625,66.144,63.723,66.899L63.723,66.899z
			 M74.81,64.981c-0.043-0.435-0.23-0.767-0.55-1.009c-0.331-0.228-0.766-0.357-1.325-0.357c-0.377,0-0.691,0.058-0.952,0.159
			c-0.261,0.111-0.467,0.251-0.602,0.437c-0.13,0.185-0.205,0.397-0.205,0.621c-0.007,0.197,0.037,0.367,0.124,0.523
			c0.09,0.143,0.216,0.265,0.379,0.366c0.164,0.111,0.343,0.194,0.56,0.279c0.207,0.08,0.429,0.135,0.667,0.192l0.992,0.239
			c0.474,0.101,0.912,0.24,1.308,0.417c0.4,0.178,0.746,0.4,1.039,0.665c0.296,0.251,0.519,0.552,0.683,0.906
			c0.167,0.359,0.247,0.754,0.25,1.216c-0.003,0.664-0.177,1.245-0.513,1.73c-0.331,0.483-0.824,0.861-1.458,1.139
			c-0.631,0.259-1.391,0.403-2.282,0.403c-0.884,0-1.653-0.146-2.305-0.409c-0.65-0.277-1.159-0.667-1.526-1.205
			c-0.372-0.535-0.558-1.188-0.577-1.977h2.236c0.027,0.364,0.13,0.68,0.32,0.916c0.184,0.246,0.437,0.43,0.752,0.548
			c0.318,0.131,0.679,0.181,1.079,0.181c0.383,0,0.73-0.046,1.017-0.169c0.291-0.108,0.515-0.265,0.678-0.469
			c0.164-0.205,0.24-0.441,0.24-0.695c0-0.251-0.069-0.459-0.217-0.625c-0.143-0.165-0.351-0.305-0.631-0.417
			c-0.275-0.127-0.608-0.227-1.009-0.331l-1.196-0.293c-0.916-0.228-1.652-0.577-2.181-1.047c-0.534-0.477-0.8-1.119-0.796-1.917
			c-0.004-0.671,0.167-1.251,0.531-1.741c0.358-0.489,0.851-0.876,1.477-1.146c0.627-0.285,1.335-0.42,2.137-0.42
			c0.816,0,1.522,0.135,2.125,0.42c0.617,0.27,1.089,0.657,1.424,1.146c0.34,0.489,0.514,1.064,0.526,1.724L74.81,64.981
			L74.81,64.981z M83.951,69.265v-4.697h2.284v8.169h-2.187v-1.474h-0.092c-0.18,0.475-0.492,0.861-0.918,1.147
			c-0.431,0.3-0.954,0.443-1.569,0.443c-0.552,0-1.033-0.124-1.452-0.374c-0.411-0.255-0.742-0.606-0.976-1.058
			c-0.23-0.466-0.347-1.014-0.351-1.647v-5.206h2.277v4.798c0.003,0.488,0.133,0.861,0.391,1.149
			c0.256,0.275,0.597,0.417,1.032,0.417c0.276,0,0.534-0.059,0.771-0.181c0.237-0.135,0.425-0.324,0.572-0.563
			C83.886,69.934,83.955,69.632,83.951,69.265L83.951,69.265z M88.052,75.805V64.568h2.246v1.369h0.106
			c0.097-0.216,0.243-0.437,0.427-0.667c0.197-0.235,0.447-0.428,0.748-0.579c0.314-0.154,0.699-0.227,1.155-0.227
			c0.606,0,1.152,0.158,1.658,0.465c0.505,0.305,0.912,0.781,1.218,1.398c0.298,0.628,0.451,1.397,0.451,2.337
			c0,0.913-0.15,1.688-0.439,2.308c-0.295,0.632-0.696,1.1-1.202,1.42c-0.501,0.332-1.069,0.49-1.692,0.49
			c-0.437,0-0.812-0.08-1.126-0.222c-0.301-0.143-0.552-0.326-0.753-0.549c-0.191-0.228-0.343-0.457-0.445-0.673H90.33v4.367H88.052
			L88.052,75.805z M90.286,68.652c0,0.483,0.064,0.912,0.201,1.274c0.135,0.361,0.327,0.646,0.584,0.842
			c0.256,0.2,0.573,0.308,0.938,0.308c0.371,0,0.688-0.11,0.945-0.315c0.257-0.191,0.447-0.484,0.579-0.847
			c0.136-0.366,0.198-0.779,0.198-1.262c0-0.466-0.06-0.886-0.193-1.244c-0.131-0.36-0.322-0.633-0.578-0.837
			c-0.256-0.205-0.577-0.311-0.951-0.311c-0.37,0-0.688,0.103-0.944,0.299c-0.253,0.196-0.443,0.467-0.579,0.824
			C90.351,67.743,90.287,68.171,90.286,68.652L90.286,68.652z M97.579,75.805V64.568h2.242v1.369h0.109
			c0.098-0.216,0.244-0.437,0.427-0.667c0.197-0.235,0.447-0.428,0.748-0.579c0.314-0.154,0.699-0.227,1.155-0.227
			c0.605,0,1.152,0.158,1.658,0.465c0.506,0.305,0.912,0.781,1.219,1.398c0.296,0.628,0.45,1.397,0.45,2.337
			c0,0.913-0.149,1.688-0.439,2.308c-0.295,0.632-0.695,1.1-1.201,1.42c-0.503,0.332-1.07,0.49-1.693,0.49
			c-0.436,0-0.812-0.08-1.126-0.222c-0.301-0.143-0.551-0.326-0.753-0.549c-0.19-0.228-0.343-0.457-0.444-0.673h-0.075v4.367H97.579
			L97.579,75.805z M99.813,68.652c0,0.483,0.063,0.912,0.2,1.274c0.136,0.361,0.328,0.646,0.584,0.842
			c0.257,0.2,0.573,0.308,0.939,0.308c0.371,0,0.688-0.11,0.945-0.315c0.257-0.191,0.446-0.484,0.578-0.847
			c0.136-0.366,0.2-0.779,0.2-1.262c0-0.466-0.061-0.886-0.193-1.244c-0.132-0.36-0.326-0.633-0.58-0.837
			c-0.256-0.205-0.577-0.311-0.95-0.311c-0.37,0-0.688,0.103-0.945,0.299c-0.252,0.196-0.442,0.467-0.578,0.824
			C99.876,67.743,99.813,68.171,99.813,68.652z M109.38,61.839v10.898h-2.276V61.84L109.38,61.839L109.38,61.839z M112.614,75.788
			c-0.291,0-0.563-0.01-0.816-0.06c-0.249-0.046-0.452-0.104-0.618-0.158l0.513-1.706c0.405,0.122,0.74,0.155,1.016,0.104
			c0.28-0.061,0.496-0.277,0.659-0.647l0.134-0.345l-2.947-8.409h2.394l1.704,6.005h0.082l1.716-6.005l2.412,0.011l-3.189,9.048
			c-0.155,0.437-0.366,0.819-0.624,1.138c-0.26,0.324-0.596,0.582-0.997,0.76C113.657,75.705,113.172,75.788,112.614,75.788z
			 M28.305,89.261c-0.525,0-0.989-0.098-1.4-0.279c-0.412-0.185-0.731-0.449-0.972-0.807c-0.241-0.363-0.358-0.821-0.358-1.361
			c0-0.447,0.09-0.831,0.25-1.147c0.171-0.307,0.398-0.547,0.689-0.736c0.29-0.189,0.615-0.342,0.98-0.432
			c0.371-0.092,0.759-0.162,1.167-0.205c0.475-0.053,0.86-0.087,1.155-0.135c0.295-0.05,0.504-0.111,0.636-0.203
			c0.132-0.087,0.193-0.225,0.193-0.398v-0.034c0-0.336-0.105-0.589-0.315-0.773c-0.209-0.185-0.51-0.285-0.899-0.285
			c-0.412,0-0.734,0.098-0.976,0.279c-0.241,0.178-0.404,0.404-0.489,0.667l-2.102-0.169c0.105-0.494,0.321-0.93,0.631-1.292
			c0.317-0.365,0.714-0.639,1.213-0.836c0.503-0.201,1.077-0.302,1.733-0.302c0.453,0,0.894,0.051,1.313,0.167
			c0.415,0.1,0.787,0.264,1.116,0.491c0.324,0.227,0.583,0.509,0.776,0.859c0.184,0.347,0.276,0.77,0.276,1.25v5.511h-2.16V87.97
			h-0.061c-0.131,0.247-0.312,0.477-0.53,0.673c-0.219,0.192-0.485,0.341-0.799,0.445C29.069,89.203,28.712,89.261,28.305,89.261
			L28.305,89.261z M28.959,87.685c0.331,0,0.63-0.056,0.887-0.198c0.256-0.132,0.454-0.313,0.601-0.545
			c0.148-0.215,0.217-0.479,0.217-0.76v-0.875c-0.067,0.044-0.163,0.09-0.289,0.132c-0.126,0.039-0.257,0.06-0.412,0.095
			c-0.155,0.03-0.311,0.06-0.466,0.087l-0.411,0.048c-0.267,0.042-0.499,0.11-0.704,0.187c-0.195,0.092-0.353,0.202-0.462,0.348
			c-0.11,0.15-0.169,0.329-0.169,0.541c0,0.308,0.111,0.538,0.339,0.71C28.321,87.613,28.602,87.685,28.959,87.685L28.959,87.685z
			 M36.976,84.376v4.717h-2.283v-8.17h2.167v1.443h0.104c0.176-0.474,0.485-0.847,0.906-1.132c0.431-0.273,0.952-0.42,1.559-0.42
			c0.575,0,1.071,0.128,1.489,0.368c0.427,0.255,0.757,0.608,0.997,1.069c0.233,0.46,0.351,1.008,0.351,1.635v5.207h-2.277v-4.798
			c0.004-0.498-0.124-0.89-0.385-1.164c-0.26-0.293-0.617-0.432-1.079-0.432c-0.301,0-0.573,0.071-0.807,0.199
			c-0.232,0.126-0.416,0.319-0.548,0.578C37.04,83.716,36.978,84.026,36.976,84.376z M47.083,89.238
			c-0.622,0-1.192-0.158-1.697-0.49c-0.502-0.319-0.902-0.787-1.192-1.419c-0.294-0.621-0.442-1.396-0.442-2.309
			c0-0.94,0.153-1.708,0.46-2.337c0.297-0.616,0.702-1.092,1.203-1.396c0.506-0.309,1.064-0.472,1.663-0.472
			c0.457,0,0.839,0.078,1.15,0.233c0.305,0.149,0.556,0.342,0.748,0.577c0.19,0.231,0.335,0.449,0.442,0.667h0.065v-4.097h2.271
			v10.898h-2.242v-1.299h-0.094c-0.115,0.216-0.258,0.445-0.459,0.672c-0.188,0.224-0.439,0.407-0.753,0.549
			C47.896,89.159,47.521,89.238,47.083,89.238z M47.803,87.432c0.366,0,0.68-0.108,0.933-0.308c0.258-0.201,0.449-0.479,0.585-0.842
			c0.14-0.362,0.214-0.792,0.214-1.274c0-0.482-0.073-0.91-0.209-1.267c-0.135-0.36-0.328-0.629-0.584-0.825
			c-0.257-0.198-0.573-0.302-0.939-0.302c-0.374,0-0.684,0.109-0.942,0.313c-0.256,0.204-0.456,0.478-0.588,0.836
			c-0.132,0.357-0.193,0.778-0.193,1.244c0,0.478,0.061,0.896,0.193,1.263c0.136,0.362,0.335,0.652,0.589,0.848
			C47.119,87.323,47.429,87.433,47.803,87.432L47.803,87.432z M61.034,89.094h-3.877V78.195h3.913c1.098,0,2.05,0.221,2.837,0.649
			c0.797,0.44,1.406,1.068,1.838,1.875c0.432,0.813,0.647,1.785,0.647,2.921c0,1.127-0.215,2.108-0.647,2.924
			c-0.431,0.818-1.045,1.438-1.85,1.88C63.104,88.887,62.145,89.094,61.034,89.094z M59.464,87.119h1.477
			c0.677,0,1.258-0.115,1.722-0.362c0.468-0.236,0.828-0.616,1.062-1.124c0.237-0.513,0.357-1.188,0.357-1.993
			c0-0.813-0.121-1.466-0.357-1.975c-0.234-0.509-0.593-0.887-1.056-1.133c-0.464-0.247-1.045-0.363-1.724-0.363h-1.481V87.119
			L59.464,87.119z M71.802,89.261c-0.842,0-1.565-0.179-2.182-0.518c-0.604-0.343-1.068-0.824-1.401-1.46
			c-0.324-0.625-0.491-1.375-0.491-2.234c0-0.836,0.167-1.577,0.491-2.22c0.333-0.629,0.791-1.12,1.385-1.475
			c0.604-0.359,1.301-0.541,2.11-0.541c0.545,0,1.049,0.088,1.513,0.261c0.467,0.17,0.879,0.434,1.226,0.777
			c0.357,0.343,0.627,0.766,0.828,1.299c0.191,0.52,0.292,1.117,0.292,1.811v0.631h-6.934V84.19h4.787
			c0-0.324-0.067-0.623-0.21-0.866c-0.145-0.259-0.338-0.457-0.59-0.595c-0.25-0.143-0.542-0.222-0.87-0.222
			c-0.354,0-0.654,0.087-0.922,0.245c-0.264,0.155-0.468,0.368-0.619,0.626c-0.151,0.27-0.229,0.557-0.229,0.877v1.341
			c0,0.41,0.07,0.757,0.223,1.047c0.155,0.29,0.368,0.52,0.648,0.678c0.271,0.158,0.605,0.245,0.987,0.245
			c0.252,0,0.483-0.04,0.689-0.104c0.216-0.075,0.391-0.181,0.542-0.33c0.152-0.138,0.264-0.312,0.339-0.52l2.112,0.135
			c-0.105,0.516-0.332,0.948-0.659,1.325c-0.324,0.374-0.751,0.66-1.272,0.872C73.077,89.154,72.482,89.261,71.802,89.261
			L71.802,89.261z M77.061,89.094v-8.17h2.171v1.443h0.094c0.174-0.474,0.452-0.854,0.852-1.139c0.4-0.27,0.876-0.413,1.437-0.413
			c0.559,0,1.044,0.146,1.44,0.42c0.389,0.285,0.651,0.658,0.784,1.133h0.092c0.161-0.475,0.468-0.839,0.908-1.128
			c0.439-0.276,0.962-0.425,1.562-0.425c0.768,0,1.388,0.242,1.867,0.724c0.485,0.494,0.725,1.176,0.725,2.063v5.494h-2.271v-5.045
			c0-0.456-0.121-0.795-0.362-1.027c-0.251-0.229-0.548-0.34-0.911-0.34c-0.416,0-0.736,0.128-0.974,0.398
			c-0.23,0.251-0.345,0.606-0.345,1.023v4.991h-2.21v-5.091c0-0.405-0.116-0.72-0.347-0.964c-0.226-0.242-0.531-0.356-0.905-0.356
			c-0.252,0-0.479,0.07-0.677,0.193c-0.205,0.119-0.357,0.295-0.483,0.526c-0.117,0.228-0.171,0.481-0.171,0.794v4.898H77.061
			L77.061,89.094z M93.127,89.261c-0.525,0-0.989-0.098-1.4-0.279c-0.412-0.185-0.731-0.449-0.97-0.807
			c-0.233-0.363-0.351-0.821-0.351-1.361c0-0.447,0.081-0.831,0.25-1.147c0.162-0.307,0.398-0.547,0.68-0.736
			c0.291-0.189,0.615-0.342,0.99-0.432c0.37-0.092,0.759-0.162,1.158-0.205c0.484-0.053,0.87-0.087,1.155-0.135
			c0.295-0.05,0.504-0.111,0.636-0.203c0.132-0.087,0.203-0.225,0.203-0.398v-0.034c0-0.336-0.105-0.589-0.325-0.773
			c-0.208-0.185-0.51-0.285-0.899-0.285c-0.403,0-0.734,0.098-0.976,0.279c-0.241,0.178-0.404,0.404-0.479,0.667l-2.111-0.169
			c0.115-0.494,0.323-0.93,0.631-1.292c0.317-0.365,0.724-0.639,1.218-0.836c0.498-0.201,1.072-0.302,1.728-0.302
			c0.463,0,0.894,0.051,1.313,0.167c0.425,0.1,0.796,0.264,1.116,0.491c0.331,0.227,0.584,0.509,0.775,0.859
			c0.19,0.347,0.286,0.77,0.286,1.25v5.511h-2.16V87.97h-0.07c-0.131,0.247-0.302,0.477-0.53,0.673
			c-0.219,0.192-0.485,0.341-0.79,0.445C93.893,89.203,93.536,89.261,93.127,89.261L93.127,89.261z M93.782,87.685
			c0.331,0,0.63-0.056,0.887-0.198c0.256-0.132,0.455-0.313,0.601-0.545c0.148-0.215,0.227-0.479,0.227-0.76v-0.875
			c-0.077,0.044-0.173,0.09-0.297,0.132c-0.12,0.039-0.258,0.06-0.414,0.095c-0.155,0.03-0.301,0.06-0.456,0.087l-0.42,0.048
			c-0.268,0.042-0.5,0.11-0.696,0.187c-0.204,0.092-0.361,0.202-0.471,0.348c-0.11,0.15-0.16,0.329-0.16,0.541
			c0,0.308,0.111,0.538,0.334,0.71C93.144,87.613,93.434,87.685,93.782,87.685z M101.797,84.376v4.717h-2.276v-8.17h2.171v1.443
			h0.094c0.186-0.474,0.485-0.847,0.916-1.132c0.422-0.273,0.941-0.42,1.558-0.42c0.566,0,1.063,0.128,1.49,0.368
			c0.418,0.255,0.752,0.608,0.987,1.069c0.233,0.46,0.35,1.008,0.35,1.635v5.207h-2.276v-4.798c0.004-0.498-0.124-0.89-0.385-1.164
			c-0.26-0.293-0.617-0.432-1.069-0.432c-0.311,0-0.583,0.071-0.816,0.199c-0.23,0.126-0.417,0.319-0.549,0.578
			C101.863,83.716,101.801,84.026,101.797,84.376z M111.906,89.238c-0.622,0-1.182-0.158-1.688-0.49
			c-0.503-0.319-0.902-0.787-1.202-1.419c-0.295-0.621-0.438-1.396-0.438-2.309c0-0.94,0.148-1.708,0.455-2.337
			c0.307-0.616,0.702-1.092,1.204-1.396c0.506-0.309,1.063-0.472,1.664-0.472c0.465,0,0.848,0.078,1.149,0.233
			c0.314,0.149,0.564,0.342,0.748,0.577c0.198,0.231,0.345,0.449,0.442,0.667h0.065v-4.097h2.272v10.898h-2.243v-1.299h-0.094
			c-0.105,0.216-0.258,0.445-0.457,0.672c-0.19,0.224-0.442,0.407-0.756,0.549C112.727,89.159,112.353,89.238,111.906,89.238
			L111.906,89.238z M112.635,87.432c0.366,0,0.67-0.108,0.923-0.308c0.258-0.201,0.459-0.479,0.594-0.842
			c0.138-0.362,0.205-0.792,0.205-1.274c0-0.482-0.067-0.91-0.199-1.267c-0.136-0.36-0.337-0.629-0.594-0.825
			c-0.257-0.198-0.563-0.302-0.929-0.302c-0.376,0-0.694,0.109-0.951,0.313c-0.257,0.204-0.447,0.478-0.579,0.836
			c-0.132,0.357-0.203,0.778-0.203,1.244c0,0.478,0.071,0.896,0.203,1.263c0.136,0.362,0.326,0.652,0.579,0.848
			C111.941,87.323,112.259,87.433,112.635,87.432L112.635,87.432z M121.935,89.094v-8.17h2.276v8.17H121.935z M123.084,79.871
			c-0.335,0-0.628-0.121-0.87-0.334c-0.242-0.23-0.362-0.51-0.362-0.822c0-0.308,0.12-0.583,0.362-0.795
			c0.241-0.232,0.533-0.34,0.864-0.34c0.349,0,0.632,0.108,0.87,0.34c0.246,0.212,0.371,0.488,0.371,0.795
			c0,0.313-0.125,0.592-0.371,0.822C123.711,79.75,123.429,79.871,123.084,79.871z M128.315,84.376v4.717h-2.276v-8.17h2.171v1.443
			h0.093c0.187-0.474,0.485-0.847,0.917-1.132c0.43-0.273,0.943-0.42,1.558-0.42c0.565,0,1.061,0.128,1.489,0.368
			c0.428,0.255,0.753,0.608,0.987,1.069c0.233,0.46,0.351,1.008,0.351,1.635v5.207h-2.276v-4.798
			c0.003-0.498-0.125-0.89-0.386-1.164c-0.26-0.293-0.617-0.432-1.069-0.432c-0.31,0-0.583,0.071-0.816,0.199
			c-0.229,0.126-0.416,0.319-0.546,0.578C128.385,83.716,128.319,84.026,128.315,84.376L128.315,84.376z M31.941,97.693
			c-0.042-0.436-0.223-0.766-0.55-1.009c-0.324-0.236-0.762-0.356-1.317-0.356c-0.378,0-0.701,0.058-0.962,0.158
			c-0.259,0.112-0.457,0.253-0.596,0.438c-0.136,0.185-0.2,0.397-0.2,0.62c-0.007,0.198,0.029,0.367,0.123,0.521
			c0.09,0.146,0.216,0.267,0.38,0.368c0.16,0.112,0.342,0.195,0.55,0.279c0.216,0.073,0.439,0.135,0.676,0.193l0.982,0.239
			c0.484,0.1,0.917,0.24,1.317,0.417s0.744,0.398,1.039,0.661c0.293,0.253,0.519,0.555,0.675,0.906
			c0.165,0.354,0.253,0.757,0.253,1.219c0,0.663-0.172,1.245-0.509,1.73c-0.34,0.481-0.824,0.861-1.458,1.139
			c-0.631,0.258-1.391,0.396-2.282,0.396c-0.884,0-1.653-0.141-2.311-0.404c-0.653-0.277-1.162-0.674-1.529-1.207
			c-0.363-0.532-0.548-1.185-0.567-1.976h2.236c0.027,0.367,0.13,0.683,0.32,0.917c0.184,0.247,0.435,0.43,0.752,0.55
			c0.313,0.13,0.669,0.181,1.069,0.181c0.393,0,0.73-0.047,1.021-0.17c0.296-0.108,0.519-0.264,0.683-0.467
			c0.162-0.205,0.239-0.442,0.239-0.697c0-0.25-0.077-0.458-0.216-0.625c-0.145-0.165-0.361-0.304-0.631-0.416
			c-0.275-0.126-0.618-0.228-1.009-0.331l-1.196-0.293c-0.926-0.227-1.652-0.576-2.188-1.046c-0.537-0.484-0.803-1.119-0.799-1.923
			c-0.003-0.665,0.176-1.244,0.531-1.734c0.358-0.49,0.861-0.876,1.487-1.146c0.627-0.285,1.335-0.42,2.137-0.42
			c0.807,0,1.522,0.135,2.125,0.42c0.607,0.27,1.081,0.656,1.424,1.146c0.335,0.49,0.514,1.064,0.525,1.723H31.941z M39.532,105.611
			c-0.826,0-1.541-0.178-2.154-0.53c-0.599-0.354-1.061-0.844-1.395-1.469c-0.324-0.644-0.491-1.381-0.491-2.214
			c0-0.839,0.167-1.58,0.491-2.219c0.333-0.628,0.795-1.118,1.395-1.474c0.614-0.359,1.329-0.538,2.154-0.538
			c0.835,0,1.549,0.179,2.148,0.538c0.614,0.356,1.078,0.846,1.401,1.474c0.333,0.64,0.498,1.38,0.498,2.219
			c0,0.833-0.165,1.571-0.498,2.214c-0.324,0.625-0.788,1.114-1.401,1.469C41.081,105.433,40.367,105.611,39.532,105.611z
			 M39.543,103.854c0.378,0,0.697-0.1,0.951-0.315c0.252-0.22,0.438-0.509,0.567-0.882c0.132-0.374,0.203-0.804,0.203-1.274
			c0-0.471-0.071-0.9-0.203-1.274c-0.129-0.374-0.315-0.662-0.567-0.882c-0.253-0.219-0.573-0.322-0.952-0.322
			c-0.38,0-0.696,0.102-0.957,0.322c-0.258,0.22-0.457,0.509-0.589,0.883c-0.128,0.373-0.187,0.803-0.187,1.274
			c0,0.469,0.059,0.899,0.187,1.273c0.132,0.374,0.332,0.663,0.589,0.882C38.846,103.753,39.162,103.854,39.543,103.854z
			 M50.318,101.977V97.28h2.276v8.17h-2.178v-1.474h-0.092c-0.181,0.475-0.493,0.861-0.918,1.146
			c-0.431,0.301-0.955,0.444-1.57,0.444c-0.551,0-1.032-0.133-1.453-0.374c-0.41-0.255-0.741-0.608-0.975-1.059
			c-0.23-0.466-0.347-1.015-0.351-1.647V97.28h2.276v4.797c0.004,0.48,0.134,0.861,0.391,1.15c0.257,0.273,0.598,0.411,1.033,0.411
			c0.277,0,0.532-0.052,0.771-0.183c0.237-0.127,0.425-0.316,0.572-0.555C50.253,102.646,50.323,102.343,50.318,101.977
			L50.318,101.977z M58.791,97.279v1.697h-4.944V97.28L58.791,97.279L58.791,97.279z M54.968,95.321h2.276v7.615
			c0,0.212,0.035,0.375,0.094,0.501c0.07,0.108,0.155,0.195,0.269,0.23c0.117,0.05,0.252,0.074,0.408,0.074
			c0.105,0,0.21-0.01,0.316-0.029l0.245-0.051l0.364,1.694c-0.121,0.038-0.273,0.077-0.486,0.117
			c-0.203,0.054-0.454,0.087-0.753,0.098c-0.541,0.023-1.031-0.055-1.437-0.221c-0.412-0.166-0.736-0.432-0.961-0.782
			c-0.227-0.351-0.338-0.787-0.334-1.322V95.321z M62.727,100.732v4.717h-2.276V94.551h2.208v4.172h0.093
			c0.19-0.479,0.493-0.857,0.899-1.139c0.417-0.27,0.936-0.417,1.559-0.417c0.575,0,1.071,0.132,1.489,0.371
			c0.431,0.251,0.758,0.603,1.001,1.067c0.239,0.457,0.355,1.005,0.351,1.639v5.206h-2.276v-4.798
			c0.004-0.501-0.124-0.896-0.385-1.169c-0.257-0.29-0.615-0.427-1.085-0.427c-0.305,0-0.581,0.072-0.818,0.199
			c-0.233,0.127-0.424,0.32-0.56,0.578c-0.132,0.24-0.194,0.549-0.198,0.9H62.727z M75.254,105.45h-2.476l3.777-10.899h2.978
			l3.781,10.899H80.83l-2.739-8.409h-0.092L75.254,105.45z M75.097,101.166h5.861v1.8h-5.861v-1.798V101.166z M88.838,97.279v1.697
			h-5.066V97.28L88.838,97.279L88.838,97.279z M84.933,105.45v-8.766c0-0.595,0.115-1.085,0.345-1.479
			c0.235-0.377,0.56-0.679,0.958-0.876c0.408-0.196,0.876-0.287,1.393-0.287c0.347,0,0.661,0.029,0.952,0.071
			c0.295,0.058,0.511,0.11,0.654,0.156l-0.409,1.696c-0.085-0.03-0.195-0.057-0.327-0.071c-0.128-0.027-0.261-0.04-0.397-0.04
			c-0.341,0-0.573,0.069-0.705,0.235c-0.132,0.154-0.194,0.359-0.194,0.641v8.72H84.933z M90.229,105.45v-8.171h2.212v1.426h0.083
			c0.151-0.504,0.401-0.889,0.753-1.155c0.351-0.254,0.758-0.382,1.214-0.382c0.123,0,0.245,0,0.377,0.009
			c0.126,0.015,0.248,0.036,0.345,0.063v2.016c-0.105-0.035-0.254-0.065-0.449-0.092c-0.184-0.02-0.36-0.025-0.519-0.025
			c-0.331,0-0.634,0.063-0.898,0.206c-0.256,0.154-0.464,0.34-0.619,0.601c-0.145,0.263-0.223,0.551-0.223,0.883v4.623H90.229z
			 M96.392,105.45v-8.171h2.279v8.171H96.392z M97.535,96.227c-0.336,0-0.63-0.12-0.871-0.333c-0.241-0.231-0.363-0.51-0.363-0.823
			c0-0.309,0.12-0.584,0.363-0.796c0.24-0.23,0.532-0.342,0.87-0.342c0.343,0,0.635,0.112,0.874,0.342
			c0.241,0.212,0.363,0.488,0.363,0.796c0,0.312-0.121,0.591-0.363,0.823C98.169,96.105,97.879,96.228,97.535,96.227L97.535,96.227z
			 M104.2,105.611c-0.837,0-1.567-0.179-2.171-0.536c-0.6-0.358-1.067-0.851-1.39-1.479c-0.315-0.645-0.479-1.376-0.479-2.198
			c0-0.832,0.166-1.567,0.485-2.208c0.324-0.627,0.795-1.126,1.395-1.485c0.6-0.359,1.322-0.538,2.149-0.538
			c0.712,0,1.343,0.137,1.879,0.388c0.54,0.266,0.97,0.63,1.278,1.093c0.317,0.478,0.484,1.028,0.519,1.653h-2.148
			c-0.059-0.413-0.219-0.739-0.479-0.978c-0.257-0.258-0.596-0.38-1.01-0.38c-0.351,0-0.663,0.089-0.928,0.282
			c-0.26,0.189-0.46,0.458-0.607,0.819c-0.148,0.362-0.217,0.808-0.217,1.32c0,0.521,0.066,0.971,0.21,1.337
			c0.147,0.366,0.349,0.638,0.613,0.831s0.577,0.282,0.928,0.282c0.26,0,0.492-0.043,0.695-0.159
			c0.216-0.101,0.383-0.252,0.519-0.457c0.14-0.209,0.229-0.46,0.274-0.742h2.148c-0.038,0.631-0.204,1.179-0.514,1.654
			c-0.297,0.466-0.718,0.836-1.254,1.109C105.561,105.479,104.928,105.611,104.2,105.611L104.2,105.611z M111.665,105.611
			c-0.526,0-0.989-0.093-1.401-0.273c-0.412-0.185-0.731-0.449-0.969-0.808c-0.235-0.363-0.351-0.82-0.351-1.36
			c0-0.448,0.081-0.832,0.25-1.15c0.162-0.305,0.397-0.545,0.679-0.734c0.292-0.189,0.615-0.343,0.991-0.431
			c0.37-0.095,0.759-0.162,1.157-0.205c0.484-0.054,0.87-0.089,1.156-0.135c0.294-0.05,0.504-0.115,0.636-0.205
			c0.132-0.091,0.204-0.223,0.204-0.396v-0.035c0-0.336-0.106-0.587-0.327-0.773c-0.207-0.185-0.51-0.285-0.898-0.285
			c-0.403,0-0.733,0.098-0.975,0.28c-0.241,0.177-0.405,0.399-0.479,0.667l-2.112-0.17c0.115-0.494,0.322-0.928,0.63-1.291
			c0.318-0.366,0.724-0.64,1.219-0.836c0.498-0.2,1.071-0.305,1.728-0.305c0.462,0,0.893,0.055,1.313,0.17
			c0.424,0.101,0.795,0.265,1.115,0.491c0.33,0.228,0.584,0.509,0.776,0.859c0.189,0.347,0.285,0.77,0.285,1.251v5.511h-2.16v-1.125
			h-0.069c-0.132,0.248-0.303,0.477-0.531,0.674c-0.218,0.192-0.485,0.341-0.789,0.444
			C112.429,105.56,112.072,105.611,111.665,105.611L111.665,105.611z M112.318,104.041c0.332,0,0.63-0.055,0.887-0.198
			c0.257-0.131,0.455-0.313,0.602-0.543c0.147-0.216,0.227-0.48,0.227-0.761v-0.879c-0.077,0.049-0.172,0.094-0.298,0.137
			c-0.12,0.038-0.258,0.06-0.414,0.095c-0.155,0.03-0.301,0.059-0.456,0.086l-0.419,0.048c-0.269,0.043-0.5,0.11-0.695,0.187
			c-0.206,0.093-0.363,0.203-0.472,0.347c-0.109,0.153-0.161,0.33-0.161,0.537c0,0.313,0.113,0.54,0.335,0.716
			C111.68,103.97,111.971,104.042,112.318,104.041L112.318,104.041z"/>
		<path fill="#FFFFFF" d="M63.373,15.5H25.049v25.898h38.324V15.5z M31.136,34.126v1.137h5.32v-1.287h-3.141v-0.055l1.096-1.063
			c0.513-0.458,0.912-0.859,1.185-1.189c0.285-0.332,0.486-0.631,0.593-0.912c0.11-0.267,0.16-0.552,0.16-0.826
			c0-0.434-0.108-0.815-0.327-1.145c-0.218-0.33-0.533-0.595-0.933-0.782c-0.397-0.19-0.859-0.277-1.396-0.277
			c-0.521,0-0.976,0.091-1.375,0.289c-0.401,0.197-0.705,0.482-0.927,0.84c-0.224,0.359-0.333,0.771-0.333,1.268h1.496
			c0-0.242,0.05-0.45,0.14-0.62c0.094-0.172,0.222-0.3,0.394-0.4c0.173-0.084,0.369-0.134,0.595-0.134
			c0.226,0,0.417,0.047,0.593,0.127c0.166,0.092,0.303,0.209,0.411,0.367c0.097,0.155,0.141,0.344,0.141,0.564
			c0,0.198-0.033,0.381-0.121,0.55c-0.076,0.165-0.193,0.335-0.351,0.51c-0.155,0.174-0.341,0.371-0.563,0.591L31.136,34.126z
			 M38.901,34.97c0.458,0.3,0.996,0.452,1.626,0.455c0.626,0,1.157-0.15,1.612-0.451c0.445-0.315,0.796-0.75,1.036-1.331
			c0.242-0.582,0.364-1.276,0.364-2.085c0.002-0.818-0.117-1.505-0.36-2.076c-0.242-0.575-0.597-1.001-1.044-1.311
			c-0.455-0.295-0.985-0.443-1.608-0.443c-0.63,0-1.164,0.148-1.622,0.443c-0.445,0.308-0.789,0.733-1.039,1.307
			c-0.242,0.574-0.361,1.262-0.361,2.08c-0.003,0.807,0.116,1.5,0.36,2.083C38.113,34.222,38.457,34.654,38.901,34.97z
			 M41.548,33.481c-0.254,0.435-0.6,0.636-1.021,0.636c-0.287,0-0.534-0.087-0.751-0.277c-0.208-0.191-0.375-0.471-0.491-0.853
			c-0.114-0.384-0.166-0.868-0.166-1.429c0.002-0.855,0.131-1.483,0.387-1.912c0.255-0.415,0.592-0.628,1.021-0.628
			c0.276,0,0.523,0.088,0.738,0.277c0.208,0.19,0.374,0.48,0.487,0.848c0.115,0.37,0.176,0.849,0.176,1.414
			C41.928,32.412,41.802,33.048,41.548,33.481z M44.663,35.263v-1.137l2.655-2.445c0.225-0.221,0.419-0.417,0.574-0.591
			c0.149-0.175,0.266-0.344,0.351-0.51c0.077-0.169,0.12-0.352,0.12-0.55c0-0.221-0.053-0.41-0.15-0.564
			c-0.098-0.158-0.234-0.275-0.411-0.367c-0.167-0.08-0.368-0.127-0.583-0.127c-0.227,0-0.431,0.05-0.595,0.135
			c-0.173,0.1-0.305,0.227-0.394,0.399c-0.1,0.171-0.141,0.377-0.141,0.62h-1.496c0-0.498,0.11-0.91,0.328-1.268
			c0.219-0.358,0.533-0.644,0.933-0.84c0.392-0.198,0.856-0.289,1.376-0.289c0.536,0,0.999,0.087,1.396,0.277
			c0.4,0.187,0.704,0.453,0.922,0.782c0.229,0.33,0.338,0.711,0.338,1.145c0,0.274-0.06,0.56-0.17,0.826
			c-0.108,0.281-0.3,0.58-0.583,0.912c-0.285,0.33-0.683,0.731-1.196,1.189l-1.085,1.063v0.055h3.131v1.287H44.663z M52.438,34.97
			c0.448,0.3,0.99,0.452,1.616,0.455c0.626,0,1.167-0.15,1.612-0.451c0.455-0.315,0.797-0.75,1.037-1.331
			c0.242-0.582,0.363-1.276,0.363-2.085c0.003-0.818-0.117-1.505-0.359-2.076c-0.242-0.575-0.587-1.001-1.045-1.311
			c-0.445-0.295-0.983-0.443-1.608-0.443c-0.623,0-1.164,0.148-1.612,0.443c-0.455,0.308-0.798,0.733-1.04,1.307
			c-0.24,0.574-0.36,1.262-0.36,2.08c-0.002,0.807,0.116,1.5,0.356,2.083C51.64,34.222,51.982,34.654,52.438,34.97L52.438,34.97z
			 M55.078,33.481c-0.255,0.435-0.593,0.636-1.025,0.636c-0.286,0-0.534-0.087-0.741-0.277c-0.212-0.191-0.376-0.471-0.491-0.853
			c-0.113-0.384-0.175-0.868-0.175-1.429c0.003-0.855,0.132-1.483,0.387-1.912c0.256-0.415,0.592-0.628,1.022-0.628
			c0.286,0,0.532,0.088,0.737,0.277c0.213,0.19,0.374,0.48,0.487,0.848c0.116,0.37,0.178,0.849,0.178,1.414
			C55.46,32.412,55.333,33.048,55.078,33.481z"/>
		<path fill="#FFFFFF" d="M25.644,131.348v-5.948h1.077v5.045h2.637v0.903H25.644z M31.943,131.446
			c-0.286,0-0.542-0.055-0.767-0.149c-0.224-0.111-0.406-0.26-0.539-0.46c-0.13-0.201-0.19-0.438-0.19-0.74
			c0-0.243,0.05-0.454,0.14-0.616c0.09-0.163,0.219-0.306,0.383-0.398c0.164-0.107,0.341-0.173,0.547-0.228
			c0.201-0.056,0.409-0.082,0.633-0.107c0.257-0.03,0.473-0.056,0.638-0.079c0.158-0.025,0.275-0.058,0.355-0.098
			c0.072-0.053,0.112-0.134,0.112-0.228v-0.019c0-0.222-0.07-0.391-0.2-0.506c-0.13-0.115-0.313-0.18-0.557-0.18
			c-0.258,0-0.47,0.061-0.613,0.168c-0.152,0.106-0.25,0.25-0.308,0.401l-0.983-0.136c0.074-0.279,0.203-0.51,0.385-0.691
			c0.174-0.184,0.399-0.318,0.658-0.402c0.259-0.101,0.537-0.151,0.855-0.151c0.212,0,0.424,0.027,0.645,0.082
			c0.21,0.054,0.411,0.129,0.581,0.255c0.181,0.109,0.325,0.263,0.431,0.461c0.107,0.199,0.163,0.448,0.163,0.743v2.979h-1.016
			v-0.604h-0.034c-0.07,0.119-0.157,0.23-0.272,0.348c-0.114,0.1-0.26,0.193-0.438,0.25
			C32.384,131.411,32.175,131.446,31.943,131.446z M32.219,130.668c0.208,0,0.396-0.045,0.554-0.12
			c0.148-0.093,0.269-0.199,0.357-0.334c0.083-0.152,0.129-0.301,0.129-0.465v-0.524c-0.036,0.03-0.09,0.057-0.173,0.082
			c-0.073,0.021-0.167,0.032-0.262,0.051s-0.188,0.036-0.289,0.051l-0.25,0.037c-0.15,0.023-0.292,0.061-0.416,0.099
			c-0.124,0.052-0.223,0.126-0.297,0.205c-0.068,0.093-0.106,0.197-0.106,0.329c0,0.195,0.066,0.339,0.209,0.446
			C31.817,130.615,32.001,130.668,32.219,130.668z M35.832,131.348v-5.948h1.049v2.229h0.047c0.05-0.102,0.132-0.227,0.229-0.344
			c0.097-0.12,0.232-0.234,0.405-0.313c0.172-0.097,0.384-0.145,0.648-0.145c0.343,0,0.659,0.095,0.93,0.271
			c0.282,0.174,0.504,0.435,0.667,0.78c0.168,0.339,0.248,0.748,0.248,1.254c0,0.485-0.076,0.907-0.241,1.248
			c-0.164,0.341-0.381,0.594-0.661,0.774c-0.271,0.18-0.589,0.278-0.939,0.278c-0.256,0-0.473-0.046-0.639-0.123
			c-0.172-0.093-0.31-0.188-0.411-0.318c-0.098-0.117-0.183-0.227-0.234-0.345h-0.066v0.701H35.832L35.832,131.348z M36.859,129.126
			c0,0.283,0.044,0.542,0.122,0.747c0.09,0.22,0.209,0.388,0.366,0.521c0.151,0.115,0.346,0.18,0.567,0.18
			c0.23,0,0.432-0.067,0.586-0.187c0.155-0.136,0.273-0.307,0.359-0.515c0.078-0.219,0.122-0.474,0.122-0.746
			c0-0.285-0.043-0.521-0.119-0.739c-0.086-0.218-0.203-0.385-0.362-0.502c-0.152-0.132-0.353-0.183-0.586-0.183
			c-0.224,0-0.421,0.049-0.57,0.177c-0.16,0.113-0.278,0.277-0.366,0.493C36.902,128.587,36.859,128.829,36.859,129.126z
			 M43.321,131.443c-0.441,0-0.821-0.104-1.139-0.297c-0.323-0.193-0.572-0.454-0.753-0.796c-0.168-0.344-0.262-0.75-0.262-1.204
			c0-0.47,0.093-0.876,0.262-1.222c0.18-0.346,0.43-0.607,0.753-0.8c0.318-0.192,0.698-0.296,1.139-0.296
			c0.431,0,0.811,0.104,1.136,0.296c0.317,0.193,0.564,0.455,0.741,0.8c0.172,0.346,0.268,0.752,0.268,1.222
			c0,0.454-0.096,0.86-0.267,1.204c-0.178,0.343-0.425,0.604-0.741,0.796C44.132,131.339,43.753,131.443,43.321,131.443z
			 M43.325,130.591c0.238,0,0.432-0.056,0.593-0.185c0.163-0.14,0.281-0.315,0.354-0.534c0.076-0.215,0.12-0.466,0.12-0.729
			c0-0.281-0.044-0.531-0.12-0.742c-0.073-0.227-0.19-0.404-0.354-0.531c-0.161-0.143-0.355-0.2-0.593-0.2
			c-0.25,0-0.448,0.057-0.612,0.2c-0.152,0.127-0.277,0.304-0.356,0.531c-0.074,0.211-0.116,0.461-0.116,0.742
			c0,0.264,0.042,0.515,0.116,0.729c0.079,0.219,0.204,0.395,0.356,0.534C42.878,130.535,43.075,130.591,43.325,130.591z
			 M49.625,129.48v-2.59h1.058v4.458h-1.024v-0.784h-0.05c-0.101,0.241-0.269,0.448-0.498,0.604
			c-0.228,0.157-0.513,0.243-0.846,0.243c-0.296,0-0.556-0.07-0.779-0.196c-0.226-0.128-0.401-0.318-0.527-0.575
			c-0.126-0.243-0.194-0.557-0.194-0.913v-2.837h1.059v2.676c0,0.291,0.074,0.504,0.231,0.669c0.158,0.17,0.359,0.256,0.611,0.256
			c0.157,0,0.311-0.041,0.457-0.108c0.147-0.082,0.267-0.188,0.358-0.337C49.573,129.885,49.625,129.696,49.625,129.48
			L49.625,129.48z M52.178,131.348v-4.458h1.023v0.746h0.04c0.088-0.264,0.23-0.462,0.424-0.601
			c0.197-0.138,0.432-0.215,0.688-0.215c0.053,0,0.123,0.004,0.19,0.01c0.079,0.004,0.136,0.011,0.189,0.022v0.973
			c-0.049-0.016-0.115-0.031-0.22-0.044c-0.092-0.014-0.182-0.022-0.27-0.022c-0.196,0-0.372,0.045-0.519,0.134
			c-0.153,0.075-0.272,0.183-0.367,0.34c-0.084,0.143-0.129,0.309-0.129,0.5v2.616H52.178L52.178,131.348z M58.333,125.399h1.327
			l1.773,4.309h0.065l1.772-4.309h1.327v5.948h-1.039v-4.082h-0.05l-1.649,4.063h-0.777l-1.65-4.073h-0.06v4.092h-1.039
			L58.333,125.399L58.333,125.399z M67.431,131.446c-0.286,0-0.541-0.055-0.767-0.149c-0.233-0.111-0.407-0.26-0.539-0.46
			c-0.13-0.201-0.2-0.438-0.2-0.74c0-0.243,0.05-0.454,0.14-0.616c0.1-0.163,0.229-0.306,0.383-0.398
			c0.163-0.107,0.35-0.173,0.548-0.228c0.201-0.056,0.418-0.082,0.632-0.107c0.264-0.03,0.473-0.056,0.639-0.079
			c0.166-0.025,0.284-0.058,0.354-0.098c0.081-0.053,0.112-0.134,0.112-0.228v-0.019c0-0.222-0.06-0.391-0.19-0.506
			c-0.13-0.115-0.322-0.18-0.567-0.18c-0.259,0-0.461,0.061-0.614,0.168c-0.15,0.106-0.25,0.25-0.298,0.401l-0.992-0.136
			c0.084-0.279,0.212-0.51,0.386-0.691c0.183-0.184,0.398-0.318,0.657-0.402c0.26-0.101,0.548-0.151,0.856-0.151
			c0.222,0,0.434,0.027,0.645,0.082c0.22,0.054,0.411,0.129,0.591,0.255c0.172,0.109,0.315,0.263,0.421,0.461
			c0.106,0.199,0.166,0.448,0.166,0.743v2.979h-1.015v-0.604H68.74c-0.06,0.119-0.151,0.23-0.272,0.348
			c-0.113,0.1-0.258,0.193-0.428,0.25C67.862,131.411,67.664,131.446,67.431,131.446L67.431,131.446z M67.701,130.668
			c0.215,0,0.394-0.045,0.551-0.12c0.157-0.093,0.276-0.199,0.357-0.334c0.092-0.152,0.128-0.301,0.128-0.465v-0.524
			c-0.025,0.03-0.086,0.057-0.162,0.082c-0.084,0.021-0.168,0.032-0.263,0.051c-0.103,0.019-0.199,0.036-0.292,0.051l-0.248,0.037
			c-0.16,0.023-0.301,0.061-0.425,0.099c-0.125,0.052-0.221,0.126-0.289,0.205c-0.077,0.093-0.116,0.197-0.116,0.329
			c0,0.195,0.077,0.339,0.22,0.446C67.305,130.615,67.48,130.668,67.701,130.668L67.701,130.668z M71.26,131.348v-4.458h1.024v0.746
			h0.05c0.078-0.264,0.22-0.462,0.424-0.601c0.195-0.138,0.422-0.215,0.678-0.215c0.063,0,0.124,0.004,0.2,0.01
			c0.07,0.004,0.136,0.011,0.18,0.022v0.973c-0.039-0.016-0.115-0.031-0.21-0.044c-0.092-0.014-0.192-0.022-0.278-0.022
			c-0.188,0-0.365,0.045-0.52,0.134c-0.153,0.075-0.272,0.183-0.357,0.34c-0.084,0.143-0.131,0.309-0.131,0.5v2.616H71.26z
			 M75.893,129.951l-0.003-1.27h0.172l1.606-1.791h1.23l-1.976,2.198h-0.215L75.893,129.951z M74.935,131.348v-5.948h1.048v5.948
			H74.935z M77.737,131.348l-1.453-2.02l0.708-0.742L79,131.348H77.737L77.737,131.348z M81.811,131.443
			c-0.445,0-0.833-0.101-1.161-0.288c-0.325-0.188-0.575-0.445-0.753-0.786c-0.169-0.344-0.262-0.753-0.262-1.215
			c0-0.465,0.093-0.872,0.262-1.218c0.18-0.347,0.427-0.61,0.749-0.806c0.313-0.197,0.683-0.303,1.115-0.303
			c0.278,0,0.538,0.048,0.783,0.145c0.246,0.079,0.461,0.211,0.646,0.395c0.194,0.185,0.345,0.424,0.453,0.707
			c0.108,0.287,0.166,0.622,0.166,1.015v0.32h-3.669V128.7h2.659c-0.002-0.203-0.05-0.381-0.132-0.537
			c-0.092-0.157-0.21-0.277-0.366-0.375c-0.144-0.084-0.325-0.133-0.523-0.133c-0.223,0-0.408,0.056-0.574,0.155
			c-0.166,0.096-0.293,0.243-0.382,0.411c-0.086,0.165-0.135,0.348-0.137,0.55v0.609c0,0.267,0.05,0.493,0.143,0.667
			c0.093,0.185,0.227,0.334,0.401,0.426c0.175,0.105,0.371,0.143,0.598,0.143c0.156,0,0.295-0.023,0.421-0.055
			c0.123-0.048,0.23-0.118,0.318-0.196c0.098-0.092,0.164-0.191,0.213-0.318l0.983,0.11c-0.065,0.251-0.185,0.481-0.354,0.676
			c-0.176,0.192-0.396,0.339-0.667,0.455C82.471,131.386,82.166,131.443,81.811,131.443L81.811,131.443z M87.347,126.89v0.821H84.77
			v-0.821H87.347z M85.405,125.822h1.059v4.192c0,0.139,0.023,0.24,0.06,0.322c0.048,0.07,0.1,0.119,0.178,0.149
			c0.068,0.029,0.154,0.044,0.238,0.044c0.062,0,0.126-0.005,0.183-0.016c0.053-0.01,0.099-0.02,0.128-0.028l0.174,0.824
			c-0.05,0.012-0.137,0.035-0.24,0.06c-0.101,0.025-0.228,0.04-0.38,0.044c-0.264,0.009-0.501-0.034-0.71-0.114
			c-0.218-0.096-0.38-0.229-0.504-0.417c-0.122-0.187-0.187-0.423-0.185-0.695V125.822L85.405,125.822z M26.721,137.67v5.949h-1.077
			v-5.949H26.721z M29.315,141.012v2.607h-1.059v-4.458h1.008v0.761h0.057c0.1-0.256,0.268-0.456,0.491-0.601
			c0.226-0.144,0.509-0.224,0.84-0.224c0.313,0,0.584,0.071,0.812,0.199c0.229,0.128,0.412,0.319,0.539,0.575
			c0.128,0.241,0.187,0.553,0.185,0.91v2.837h-1.05v-2.676c0-0.293-0.083-0.53-0.24-0.698c-0.146-0.167-0.366-0.259-0.639-0.259
			c-0.179,0-0.347,0.044-0.491,0.124c-0.143,0.08-0.254,0.188-0.333,0.353C29.358,140.611,29.315,140.793,29.315,141.012z
			 M35.91,139.161v0.805h-2.578v-0.805H35.91z M33.968,138.093h1.058v4.177c0,0.154,0.023,0.256,0.06,0.338
			c0.047,0.065,0.11,0.119,0.178,0.149c0.067,0.029,0.153,0.044,0.237,0.044c0.071,0,0.126-0.005,0.186-0.016
			c0.05-0.01,0.097-0.02,0.128-0.028l0.173,0.815c-0.051,0.021-0.139,0.044-0.242,0.069c-0.101,0.025-0.228,0.04-0.379,0.044
			c-0.265,0.009-0.502-0.034-0.711-0.129c-0.217-0.081-0.379-0.215-0.504-0.402c-0.122-0.187-0.187-0.422-0.184-0.704V138.093z
			 M39.135,143.703c-0.448,0-0.836-0.091-1.159-0.277c-0.331-0.188-0.58-0.446-0.749-0.801c-0.179-0.345-0.263-0.739-0.263-1.215
			c0-0.452,0.085-0.858,0.263-1.204c0.17-0.347,0.417-0.625,0.739-0.815c0.313-0.187,0.684-0.292,1.115-0.292
			c0.278,0,0.539,0.048,0.783,0.13c0.246,0.094,0.461,0.226,0.655,0.41c0.186,0.185,0.337,0.423,0.444,0.701
			c0.108,0.292,0.166,0.627,0.166,1.021v0.32H37.46v-0.708h2.659c-0.002-0.203-0.05-0.382-0.132-0.537
			c-0.09-0.157-0.21-0.293-0.356-0.376c-0.153-0.099-0.335-0.133-0.532-0.133c-0.217,0-0.408,0.041-0.574,0.155
			c-0.156,0.096-0.284,0.228-0.381,0.396c-0.087,0.178-0.136,0.353-0.138,0.55v0.625c0,0.256,0.05,0.478,0.143,0.664
			c0.098,0.185,0.227,0.323,0.401,0.43c0.175,0.09,0.371,0.143,0.598,0.143c0.156,0,0.295-0.023,0.42-0.07
			c0.124-0.033,0.23-0.103,0.328-0.191c0.089-0.082,0.155-0.181,0.205-0.317l0.983,0.12c-0.057,0.25-0.174,0.481-0.354,0.676
			c-0.176,0.192-0.396,0.339-0.667,0.439C39.792,143.657,39.487,143.703,39.135,143.703L39.135,143.703z M43.485,137.67v5.949h-1.05
			v-5.949H43.485z M46.037,137.67v5.949h-1.058v-5.949H46.037z M47.53,143.619v-4.458h1.059v4.458H47.53L47.53,143.619z
			 M48.063,138.52c-0.168,0-0.309-0.045-0.429-0.164c-0.12-0.107-0.182-0.238-0.182-0.402c0-0.162,0.062-0.293,0.185-0.397
			c0.121-0.122,0.258-0.168,0.426-0.168c0.17,0,0.314,0.046,0.432,0.168c0.12,0.104,0.175,0.235,0.175,0.397
			c0,0.165-0.055,0.295-0.175,0.402C48.378,138.475,48.233,138.52,48.063,138.52z M52.034,145.363c-0.379,0-0.709-0.04-0.974-0.149
			c-0.273-0.094-0.498-0.24-0.657-0.408c-0.168-0.167-0.282-0.353-0.348-0.556l0.953-0.219c0.046,0.071,0.103,0.159,0.189,0.235
			c0.08,0.092,0.188,0.155,0.327,0.214c0.141,0.063,0.311,0.095,0.529,0.095c0.293,0,0.542-0.078,0.741-0.218
			c0.192-0.14,0.298-0.375,0.298-0.692v-0.855h-0.056c-0.06,0.118-0.135,0.223-0.239,0.346c-0.101,0.109-0.238,0.198-0.414,0.282
			c-0.172,0.084-0.382,0.111-0.638,0.111c-0.341,0-0.658-0.072-0.931-0.231c-0.279-0.161-0.507-0.408-0.666-0.727
			c-0.166-0.326-0.244-0.729-0.244-1.219c0-0.492,0.078-0.903,0.244-1.244c0.159-0.337,0.388-0.585,0.666-0.759
			c0.276-0.176,0.592-0.271,0.934-0.271c0.263,0,0.476,0.048,0.648,0.13c0.174,0.094,0.31,0.193,0.411,0.328
			c0.098,0.117,0.17,0.227,0.229,0.344h0.062v-0.738h1.033v4.537c0,0.365-0.088,0.681-0.27,0.92
			c-0.183,0.255-0.433,0.442-0.754,0.559C52.796,145.311,52.438,145.363,52.034,145.363z M52.043,142.731
			c0.221,0,0.417-0.059,0.566-0.162c0.16-0.117,0.279-0.271,0.364-0.477c0.081-0.19,0.125-0.44,0.125-0.721
			c0-0.287-0.044-0.538-0.125-0.736c-0.083-0.214-0.201-0.375-0.361-0.501c-0.148-0.113-0.344-0.177-0.569-0.177
			c-0.234,0-0.436,0.066-0.593,0.183c-0.153,0.133-0.271,0.299-0.356,0.513c-0.075,0.2-0.118,0.445-0.118,0.719
			c0,0.269,0.043,0.513,0.118,0.719c0.088,0.191,0.208,0.359,0.358,0.473C51.613,142.67,51.814,142.731,52.043,142.731
			L52.043,142.731z M57.61,143.703c-0.447,0-0.832-0.091-1.164-0.277c-0.321-0.188-0.57-0.446-0.749-0.801
			c-0.179-0.345-0.263-0.739-0.263-1.215c0-0.452,0.084-0.858,0.263-1.204c0.18-0.347,0.427-0.625,0.738-0.815
			c0.322-0.187,0.693-0.292,1.115-0.292c0.277,0,0.539,0.048,0.783,0.13c0.246,0.094,0.471,0.226,0.655,0.41
			c0.195,0.185,0.337,0.423,0.454,0.701c0.107,0.292,0.156,0.627,0.156,1.021v0.32h-3.67v-0.708h2.658
			c-0.002-0.203-0.04-0.382-0.13-0.537c-0.083-0.157-0.203-0.293-0.358-0.376c-0.153-0.099-0.325-0.133-0.533-0.133
			c-0.212,0-0.403,0.041-0.563,0.155c-0.167,0.096-0.293,0.228-0.382,0.396c-0.093,0.178-0.136,0.353-0.138,0.55v0.625
			c0,0.256,0.045,0.478,0.144,0.664c0.093,0.185,0.227,0.323,0.401,0.43c0.165,0.09,0.371,0.143,0.598,0.143
			c0.156,0,0.295-0.023,0.42-0.07c0.124-0.033,0.23-0.103,0.319-0.191c0.088-0.082,0.162-0.181,0.204-0.317l0.992,0.12
			c-0.066,0.25-0.185,0.481-0.363,0.676c-0.167,0.192-0.386,0.339-0.657,0.439C58.269,143.657,57.956,143.703,57.61,143.703z
			 M61.963,141.012v2.607h-1.058v-4.458h1.008v0.761h0.057c0.101-0.256,0.269-0.456,0.491-0.601
			c0.225-0.144,0.509-0.224,0.839-0.224c0.313,0,0.584,0.071,0.812,0.199c0.229,0.128,0.412,0.319,0.538,0.575
			c0.128,0.241,0.188,0.553,0.185,0.91v2.837h-1.058v-2.676c0-0.293-0.074-0.53-0.232-0.698c-0.155-0.167-0.365-0.259-0.638-0.259
			c-0.18,0-0.347,0.044-0.491,0.124c-0.145,0.08-0.255,0.188-0.333,0.353C61.996,140.611,61.963,140.793,61.963,141.012z
			 M68.272,143.703c-0.446,0-0.827-0.096-1.152-0.292c-0.315-0.197-0.563-0.459-0.736-0.803c-0.174-0.346-0.257-0.748-0.257-1.206
			c0-0.446,0.084-0.85,0.263-1.195c0.169-0.347,0.421-0.625,0.739-0.815c0.318-0.187,0.697-0.292,1.136-0.292
			c0.363,0,0.689,0.072,0.962,0.202c0.283,0.128,0.506,0.315,0.676,0.563c0.17,0.245,0.263,0.519,0.288,0.837h-1.009
			c-0.044-0.218-0.138-0.396-0.294-0.538c-0.153-0.142-0.353-0.221-0.607-0.221c-0.212,0-0.407,0.063-0.573,0.174
			c-0.156,0.124-0.284,0.287-0.382,0.505c-0.086,0.208-0.133,0.467-0.133,0.762c0,0.314,0.046,0.567,0.134,0.789
			c0.096,0.22,0.22,0.387,0.376,0.5c0.165,0.126,0.362,0.174,0.579,0.174c0.158,0,0.297-0.032,0.42-0.08
			c0.124-0.065,0.226-0.143,0.306-0.265c0.087-0.107,0.143-0.24,0.175-0.41h1.009c-0.027,0.323-0.118,0.596-0.282,0.845
			c-0.163,0.233-0.381,0.423-0.661,0.572C68.971,143.64,68.647,143.703,68.272,143.703L68.272,143.703z M73.449,143.703
			c-0.445,0-0.833-0.091-1.165-0.277c-0.321-0.188-0.57-0.446-0.749-0.801c-0.169-0.345-0.263-0.739-0.263-1.215
			c0-0.452,0.094-0.858,0.263-1.204c0.18-0.347,0.427-0.625,0.738-0.815c0.322-0.187,0.693-0.292,1.125-0.292
			c0.269,0,0.529,0.048,0.775,0.13c0.253,0.094,0.468,0.226,0.652,0.41c0.195,0.185,0.347,0.423,0.454,0.701
			c0.107,0.292,0.164,0.627,0.164,1.021v0.32h-3.677v-0.708h2.661c0-0.203-0.042-0.382-0.126-0.537
			c-0.09-0.157-0.208-0.293-0.365-0.376c-0.144-0.099-0.325-0.133-0.525-0.133c-0.22,0-0.404,0.041-0.571,0.155
			c-0.166,0.096-0.293,0.228-0.381,0.396c-0.086,0.178-0.136,0.353-0.138,0.55v0.625c0,0.256,0.052,0.478,0.144,0.664
			c0.093,0.185,0.227,0.323,0.401,0.43c0.167,0.09,0.371,0.143,0.598,0.143c0.156,0,0.295-0.023,0.42-0.07
			c0.124-0.033,0.23-0.103,0.319-0.191c0.098-0.082,0.162-0.181,0.213-0.317l0.982,0.12c-0.066,0.25-0.185,0.481-0.353,0.676
			c-0.176,0.192-0.396,0.339-0.667,0.439C74.107,143.657,73.795,143.703,73.449,143.703z M79.243,143.619v-5.949h2.236
			c0.455,0,0.839,0.092,1.155,0.262c0.308,0.168,0.552,0.392,0.704,0.701c0.165,0.291,0.241,0.625,0.241,1.004
			c0,0.383-0.076,0.72-0.241,1.016c-0.154,0.302-0.4,0.534-0.71,0.709c-0.32,0.168-0.708,0.244-1.165,0.244h-1.481v-0.884h1.334
			c0.269,0,0.487-0.051,0.661-0.136c0.174-0.101,0.3-0.225,0.378-0.386c0.081-0.161,0.125-0.349,0.125-0.563
			c0-0.213-0.045-0.4-0.125-0.559c-0.078-0.159-0.206-0.28-0.381-0.376c-0.175-0.084-0.393-0.133-0.665-0.133h-0.99v5.048H79.243
			L79.243,143.619z M84.886,143.619v-4.458h1.024v0.745h0.05c0.079-0.264,0.22-0.465,0.413-0.601
			c0.206-0.138,0.433-0.215,0.689-0.215c0.06,0,0.123,0.004,0.19,0.01c0.08,0.004,0.136,0.011,0.188,0.022v0.972
			c-0.048-0.016-0.114-0.031-0.209-0.044c-0.103-0.014-0.192-0.022-0.278-0.022c-0.197,0-0.365,0.045-0.521,0.121
			c-0.153,0.088-0.271,0.196-0.356,0.338c-0.094,0.158-0.132,0.324-0.132,0.515v2.616H84.886z M90.318,143.703
			c-0.431,0-0.811-0.094-1.136-0.287c-0.315-0.193-0.564-0.454-0.745-0.796c-0.17-0.355-0.263-0.751-0.263-1.219
			c0-0.455,0.092-0.861,0.263-1.207c0.18-0.346,0.43-0.619,0.745-0.804c0.326-0.188,0.705-0.292,1.137-0.292
			c0.441,0,0.82,0.104,1.136,0.292c0.326,0.185,0.574,0.458,0.746,0.804c0.176,0.346,0.263,0.752,0.263,1.207
			c0,0.468-0.086,0.864-0.263,1.219c-0.172,0.342-0.42,0.603-0.745,0.796C91.14,143.609,90.761,143.703,90.318,143.703
			L90.318,143.703z M90.325,142.86c0.236,0,0.44-0.055,0.601-0.196c0.152-0.126,0.271-0.303,0.354-0.527
			c0.077-0.224,0.121-0.46,0.121-0.739c0-0.266-0.044-0.519-0.121-0.742c-0.083-0.212-0.2-0.389-0.354-0.531
			c-0.161-0.128-0.365-0.19-0.601-0.19c-0.242,0-0.441,0.063-0.604,0.19c-0.162,0.142-0.28,0.319-0.357,0.531
			c-0.082,0.224-0.116,0.477-0.116,0.742c0,0.279,0.035,0.515,0.116,0.739c0.076,0.225,0.195,0.401,0.357,0.527
			C89.885,142.805,90.083,142.86,90.325,142.86z M95.724,145.363c-0.378,0-0.71-0.04-0.982-0.149
			c-0.265-0.094-0.49-0.24-0.648-0.408c-0.168-0.167-0.283-0.353-0.351-0.556l0.955-0.219c0.043,0.071,0.104,0.159,0.181,0.235
			c0.089,0.092,0.197,0.155,0.335,0.214c0.141,0.063,0.311,0.095,0.53,0.095c0.293,0,0.541-0.078,0.741-0.218
			c0.193-0.14,0.289-0.375,0.289-0.692v-0.855h-0.047c-0.058,0.118-0.134,0.223-0.237,0.346c-0.102,0.109-0.24,0.198-0.414,0.282
			c-0.172,0.084-0.381,0.111-0.639,0.111c-0.34,0-0.657-0.072-0.939-0.231c-0.27-0.161-0.499-0.408-0.657-0.727
			c-0.166-0.326-0.244-0.729-0.244-1.219c0-0.492,0.078-0.903,0.244-1.244c0.158-0.337,0.389-0.585,0.661-0.759
			c0.281-0.176,0.598-0.271,0.938-0.271c0.264,0,0.476,0.048,0.649,0.13c0.174,0.094,0.304,0.193,0.411,0.328
			c0.098,0.117,0.17,0.227,0.228,0.344h0.053v-0.738h1.042v4.537c0,0.365-0.087,0.681-0.274,0.92
			c-0.178,0.255-0.427,0.442-0.749,0.559C96.487,145.311,96.128,145.363,95.724,145.363L95.724,145.363z M95.734,142.731
			c0.22,0,0.406-0.059,0.566-0.162c0.16-0.117,0.278-0.271,0.357-0.477c0.088-0.19,0.122-0.44,0.122-0.721
			c0-0.287-0.034-0.538-0.122-0.736c-0.076-0.214-0.193-0.375-0.354-0.501c-0.158-0.113-0.345-0.177-0.57-0.177
			c-0.234,0-0.435,0.066-0.595,0.183c-0.15,0.133-0.27,0.299-0.354,0.513c-0.076,0.2-0.119,0.445-0.119,0.719
			c0,0.269,0.043,0.513,0.12,0.719c0.083,0.191,0.206,0.359,0.355,0.473C95.304,142.67,95.501,142.731,95.734,142.731
			L95.734,142.731z M99.313,143.619v-4.458h1.023v0.745h0.05c0.078-0.264,0.22-0.465,0.423-0.601
			c0.196-0.138,0.423-0.215,0.679-0.215c0.063,0,0.124,0.004,0.2,0.01c0.07,0.004,0.136,0.011,0.179,0.022v0.972
			c-0.038-0.016-0.114-0.031-0.209-0.044c-0.092-0.014-0.188-0.022-0.278-0.022c-0.188,0-0.365,0.045-0.52,0.121
			c-0.151,0.088-0.272,0.196-0.357,0.338c-0.084,0.158-0.131,0.324-0.131,0.515v2.616H99.313L99.313,143.619z M104.182,143.703
			c-0.287,0-0.542-0.042-0.768-0.15c-0.224-0.096-0.407-0.245-0.539-0.446c-0.13-0.201-0.19-0.453-0.19-0.739
			c0-0.258,0.05-0.461,0.14-0.632c0.091-0.163,0.219-0.291,0.383-0.382c0.164-0.107,0.34-0.173,0.547-0.228
			c0.202-0.056,0.409-0.097,0.633-0.113c0.255-0.024,0.473-0.05,0.636-0.073c0.159-0.025,0.276-0.063,0.356-0.111
			c0.072-0.04,0.112-0.121,0.112-0.214v-0.019c0-0.222-0.07-0.391-0.2-0.505c-0.13-0.13-0.313-0.18-0.557-0.18
			c-0.258,0-0.47,0.046-0.613,0.168c-0.152,0.106-0.25,0.235-0.307,0.392l-0.983-0.142c0.073-0.264,0.202-0.495,0.384-0.677
			c0.174-0.184,0.399-0.317,0.658-0.417c0.259-0.086,0.538-0.136,0.855-0.136c0.212,0,0.424,0.027,0.645,0.082
			c0.21,0.039,0.41,0.129,0.582,0.24c0.18,0.124,0.324,0.278,0.429,0.477c0.108,0.199,0.162,0.437,0.162,0.742v2.98h-1.016V143
			H105.5c-0.069,0.134-0.157,0.245-0.272,0.348c-0.114,0.115-0.26,0.193-0.438,0.265
			C104.623,143.682,104.414,143.703,104.182,143.703L104.182,143.703z M104.458,142.939c0.208,0,0.396-0.045,0.554-0.129
			c0.148-0.083,0.268-0.189,0.357-0.34c0.083-0.137,0.129-0.286,0.129-0.45v-0.524c-0.036,0.03-0.092,0.052-0.172,0.067
			c-0.074,0.025-0.168,0.047-0.264,0.066s-0.188,0.036-0.29,0.051l-0.249,0.037c-0.149,0.016-0.292,0.046-0.416,0.099
			c-0.124,0.052-0.225,0.111-0.297,0.205c-0.068,0.078-0.106,0.197-0.106,0.329c0,0.195,0.066,0.338,0.209,0.445
			C104.056,142.886,104.24,142.939,104.458,142.939L104.458,142.939z M108.02,143.619v-4.458h1.009v0.761h0.056
			c0.091-0.263,0.247-0.464,0.46-0.604c0.213-0.143,0.471-0.221,0.773-0.221c0.297,0,0.553,0.08,0.767,0.224
			c0.207,0.142,0.356,0.343,0.439,0.601h0.05c0.097-0.254,0.267-0.453,0.5-0.598c0.236-0.146,0.519-0.227,0.839-0.227
			c0.415,0,0.748,0.125,1.009,0.392c0.261,0.26,0.391,0.63,0.391,1.14v2.989h-1.051v-2.828c0-0.285-0.08-0.489-0.229-0.612
			c-0.14-0.126-0.325-0.196-0.535-0.196c-0.254,0-0.459,0.086-0.605,0.243c-0.141,0.155-0.209,0.362-0.209,0.605v2.789h-1.037
			v-2.875c0-0.235-0.065-0.419-0.207-0.553c-0.138-0.134-0.324-0.208-0.545-0.208c-0.153,0-0.292,0.042-0.417,0.126
			c-0.124,0.067-0.22,0.183-0.291,0.32c-0.079,0.134-0.109,0.292-0.109,0.476v2.714H108.02L108.02,143.619z M115.802,143.619v-4.458
			h1.008v0.761h0.047c0.1-0.263,0.248-0.464,0.47-0.604c0.212-0.143,0.471-0.221,0.772-0.221c0.299,0,0.555,0.08,0.763,0.224
			c0.212,0.142,0.362,0.343,0.444,0.601h0.05c0.097-0.254,0.267-0.453,0.501-0.598c0.236-0.146,0.519-0.227,0.839-0.227
			c0.415,0,0.748,0.125,1.008,0.392c0.262,0.26,0.392,0.63,0.392,1.14v2.989h-1.062v-2.828c0-0.285-0.069-0.489-0.219-0.612
			c-0.149-0.126-0.325-0.196-0.545-0.196c-0.255,0-0.45,0.086-0.595,0.243c-0.143,0.155-0.209,0.362-0.209,0.605v2.789h-1.037
			v-2.875c0-0.235-0.074-0.419-0.207-0.553c-0.139-0.134-0.323-0.208-0.545-0.208c-0.153,0-0.292,0.042-0.417,0.126
			c-0.125,0.067-0.222,0.183-0.301,0.32c-0.07,0.134-0.11,0.292-0.11,0.476v2.714H115.802L115.802,143.619z M125.563,143.703
			c-0.454,0-0.843-0.091-1.165-0.277c-0.33-0.188-0.58-0.446-0.748-0.801c-0.179-0.345-0.264-0.739-0.264-1.215
			c0-0.452,0.084-0.858,0.264-1.204c0.17-0.347,0.418-0.625,0.738-0.815c0.313-0.187,0.693-0.292,1.115-0.292
			c0.277,0,0.539,0.048,0.782,0.13c0.247,0.094,0.462,0.226,0.655,0.41c0.186,0.185,0.336,0.423,0.444,0.701
			c0.11,0.292,0.167,0.627,0.167,1.021v0.32h-3.67v-0.708h2.658c-0.002-0.203-0.049-0.382-0.131-0.537
			c-0.082-0.157-0.201-0.293-0.356-0.376c-0.153-0.099-0.333-0.133-0.532-0.133c-0.214,0-0.408,0.041-0.565,0.155
			c-0.166,0.096-0.293,0.228-0.381,0.396c-0.096,0.178-0.136,0.353-0.138,0.55v0.625c0,0.256,0.042,0.478,0.14,0.664
			c0.098,0.185,0.23,0.323,0.395,0.43c0.175,0.09,0.371,0.143,0.608,0.143c0.146,0,0.286-0.023,0.41-0.07
			c0.124-0.033,0.237-0.103,0.33-0.191c0.088-0.082,0.16-0.181,0.203-0.317l0.983,0.12c-0.057,0.25-0.175,0.481-0.354,0.676
			c-0.167,0.192-0.396,0.339-0.667,0.439C126.222,143.657,125.908,143.703,125.563,143.703L125.563,143.703z M25.049,115.674h54.738
			v0.69H25.049V115.674z"/>
	</g>
</g>
</svg>
