<svg width="24" height="25" viewBox="0 0 24 25" fill="none" xmlns="http://www.w3.org/2000/svg">
<path fill-rule="evenodd" clip-rule="evenodd" d="M7.632 8.15752C8.68759 7.8696 9.31402 6.76508 9.03117 5.69053C8.74833 4.61597 7.66332 3.97828 6.60773 4.26621C5.55215 4.55413 4.92572 5.65865 5.20856 6.7332C5.4914 7.80776 6.57642 8.44545 7.632 8.15752ZM8.20182 10.3223C10.4319 9.71406 11.7553 7.38062 11.1578 5.11046C10.5602 2.84031 8.26799 1.49309 6.03791 2.10138C3.80783 2.70967 2.48441 5.04311 3.08196 7.31327C3.6795 9.58342 5.97175 10.9306 8.20182 10.3223ZM12.8031 16.2078L9.10803 22.1187H16.4981L12.8031 16.2078ZM13.7318 13.5189C13.2992 12.827 12.3069 12.827 11.8744 13.5189L6.174 22.6376C5.70765 23.3837 6.23407 24.3599 7.10271 24.3599H18.5034C19.3721 24.3599 19.8985 23.3837 19.4322 22.6376L13.7318 13.5189ZM1 18.6728L23.414 5.73203L22.414 3.99998L0 16.9407L1 18.6728Z" fill="#1A1A1A"/>
</svg>
