<?xml version="1.0" encoding="utf-8"?>
<!-- Generator: Adobe Illustrator 23.0.1, SVG Export Plug-In . SVG Version: 6.00 Build 0)  -->
<svg version="1.1" id="Layer_1" xmlns="http://www.w3.org/2000/svg" xmlns:xlink="http://www.w3.org/1999/xlink" x="0px" y="0px"
	 viewBox="0 0 30 30" style="enable-background:new 0 0 30 30;" xml:space="preserve">
<style type="text/css">
	.st0{fill-rule:evenodd;clip-rule:evenodd;fill:#802F34;}
</style>
<path class="st0" d="M15,30C6.7,30,0,23.3,0,15C0,6.7,6.7,0,15,0c8.3,0,15,6.7,15,15C30,23.3,23.3,30,15,30z M15,29
	c7.7,0,14-6.3,14-14c0-7.7-6.3-14-14-14C7.3,1,1,7.3,1,15C1,22.7,7.3,29,15,29z M8,8.6C8,7.7,8.8,7,10,7c1.1,0,1.9,0.7,2,1.6
	c0,1-0.8,1.7-2,1.7C8.8,10.3,8,9.5,8,8.6z M8,11.2c0-0.2,0.1-0.3,0.3-0.3h3.3c0.2,0,0.3,0.1,0.3,0.3v9.4c0,0.2-0.1,0.3-0.3,0.3H8.3
	C8.1,21,8,20.9,8,20.7V11.2z M13.2,10.9c-0.2,0-0.3,0.1-0.3,0.3v9.4c0,0.2,0.1,0.3,0.3,0.3h2.9c0.2,0,0.3-0.1,0.3-0.3v-4.9v-0.1
	v-0.1c0-0.8,0.6-1.4,1.4-1.5c0,0,0.1,0,0.1,0h0h0c0,0,0.1,0,0.1,0c0.8,0.1,1.4,0.7,1.4,1.5v5c0,0.2,0.1,0.3,0.3,0.3h2.9
	c0.2,0,0.3-0.1,0.3-0.3v-5.5c0-2.1-1.1-4.2-3.7-4.2c-1.1,0-2,0.4-2.5,0.8v-0.5c0-0.2-0.1-0.3-0.3-0.3H13.2z"/>
</svg>
