<?xml version="1.0" encoding="utf-8"?>
<!-- Generator: Adobe Illustrator 23.0.1, SVG Export Plug-In . SVG Version: 6.00 Build 0)  -->
<svg version="1.1" id="Layer_1" xmlns="http://www.w3.org/2000/svg" xmlns:xlink="http://www.w3.org/1999/xlink" x="0px" y="0px"
	 viewBox="0 0 250 50" style="enable-background:new 0 0 250 50;" xml:space="preserve">
<style type="text/css">
	.st0{fill:#44433F;}
	.st1{fill:#353433;}
	.st2{fill:#FFAF40;}
	.st3{fill:#FF993A;}
	.st4{fill:#706C64;}
	.st5{fill:#595751;}
	.st6{fill:#8F8B81;}
	.st7{fill:#B5B1A4;}
	.st8{fill:#FFC751;}
	.st9{fill:#FFE059;}
	.st10{fill:#FFF370;}
	.st11{fill:#F97C15;}
	.st12{fill:#E86300;}
	.st13{fill:#F98824;}
	.st14{fill:#057F05;}
	.st15{fill:#31A7FB;}
	.st16{fill:#1C96F9;}
	.st17{fill:#FCB44D;}
	.st18{fill:#FB9927;}
	.st19{fill:#FCA62F;}
</style>
<g>
	<g>
		<g>
			<g>
				<path class="st0" d="M50.7,14.7v21.5c0,1.1-0.6,2.2-1.7,2.7c-2.6,1.3-8.6,3.4-18.9,3.4s-16.3-2.1-18.9-3.4
					c-1-0.5-1.7-1.5-1.7-2.7V14.7L50.7,14.7z"/>
				<path class="st1" d="M50.7,14.7v9l-19.4,10c-0.8,0.4-1.7,0.4-2.4,0l-19.4-10v-9H50.7z"/>
				<g>
					<path class="st1" d="M50.7,14.7v21.5c0,1.1-0.6,2.2-1.7,2.7c-2.6,1.3-8.6,3.4-18.9,3.4c-2,0-3.7-0.1-5.4-0.2
						c11.2-1.5,19.9-11.1,19.9-22.7c0-1.6-0.2-3.1-0.5-4.6L50.7,14.7L50.7,14.7z"/>
					<path class="st2" d="M50.7,32.1v4c0,1.1-0.6,2.2-1.7,2.7c-2.6,1.3-8.6,3.4-18.9,3.4s-16.3-2.1-18.9-3.4c-1-0.5-1.7-1.5-1.7-2.7
						v-4c0,1.1,0.6,2.2,1.7,2.7c2.6,1.3,8.6,3.4,18.9,3.4s16.3-2.1,18.9-3.4C50,34.3,50.7,33.3,50.7,32.1z"/>
				</g>
			</g>
			<path class="st3" d="M50.7,32.1v4c0,1.1-0.6,2.2-1.7,2.7c-2.6,1.3-8.6,3.4-18.9,3.4c-2,0-3.7-0.1-5.4-0.2c3.8-0.5,7.2-1.9,10.2-4
				c7.4-0.5,11.9-2.2,14.1-3.2C50,34.3,50.7,33.3,50.7,32.1L50.7,32.1z"/>
		</g>
		<g>
			<path class="st4" d="M28.9,0.3l-27.2,14c-0.9,0.5-0.9,1.8,0,2.3l27.2,14c0.7,0.4,1.6,0.4,2.3,0l27.2-14c0.9-0.5,0.9-1.8,0-2.3
				l-27.2-14C30.5-0.1,29.6-0.1,28.9,0.3L28.9,0.3z"/>
			<g>
				<path class="st5" d="M33.7,16l-16.2,8.3c-0.1,0.1-0.3,0.1-0.4,0.2l-2.8-1.4c0.5-0.5,1.2-1,1.9-1.3l16.2-8.3
					c0.7-0.4,1.6-0.1,1.9,0.6C34.7,14.8,34.4,15.7,33.7,16z"/>
			</g>
			<path class="st5" d="M58.5,16.5l-27.2,14c-0.7,0.4-1.6,0.4-2.3,0l-8.3-4.3c2.1,0.3,4.2,0.4,6.4,0.2c11.6-1,20.5-8.6,21.2-17.5
				l10.3,5.3C59.4,14.8,59.4,16.1,58.5,16.5L58.5,16.5z"/>
			<path class="st6" d="M11.4,13.7c0.9,0.8,2.1,0.9,3.1,0.4c3.1-1.6,9.8-5,13.1-6.7c1.1-0.6,1.7-1.9,1.5-3.1
				c-0.4-1.8-2.4-2.8-4.1-1.9L11.9,9C10.2,9.9,9.9,12.3,11.4,13.7L11.4,13.7z"/>
			<path class="st7" d="M18.7,5.6L16,6.9c-1.5,0.8-2,2.7-1,4.1c0,0,0,0,0,0c0.8,1.2,2.3,1.6,3.6,0.9c0.9-0.4,1.8-0.9,2.6-1.4
				c1.5-0.8,2-2.8,1-4.2c0,0,0,0,0,0C21.4,5.3,19.9,4.9,18.7,5.6L18.7,5.6z"/>
		</g>
		<g>
			<path class="st8" d="M13.3,39.3c-0.8,0-1.4-0.6-1.4-1.4V26.5c0-3,1.7-5.8,4.4-7.2l12.3-6.3c0.7-0.4,1.6-0.1,1.9,0.6
				c0.4,0.7,0.1,1.6-0.6,1.9l-12.3,6.3c-1.7,0.9-2.8,2.7-2.8,4.6v11.3C14.7,38.6,14,39.3,13.3,39.3z"/>
		</g>
		<g>
			<path class="st2" d="M30.5,13.7c-0.4-0.7-1.2-1-1.9-0.6l-4.6,2.4c-0.8,0.4-1,1.5-0.4,2.2c0,0,0,0,0,0c0.4,0.5,1.1,0.7,1.7,0.4
				l4.6-2.3C30.5,15.3,30.8,14.4,30.5,13.7L30.5,13.7z"/>
		</g>
		<g>
			<path class="st9" d="M19.4,19.2L19.4,19.2c-0.4-0.6-1.2-0.8-1.8-0.5l-1.3,0.7c-2.7,1.4-4.4,4.1-4.4,7.2v0.3
				c0,0.8,0.6,1.4,1.4,1.4s1.4-0.6,1.4-1.4v-0.3c0-2,1.1-3.7,2.8-4.6l1.3-0.7C19.6,20.8,19.9,19.9,19.4,19.2L19.4,19.2z"/>
		</g>
		<g>
			<path class="st10" d="M14.8,20.3c-0.8,0.7-1.5,1.5-2,2.4c-0.4,0.8,0,1.8,0.8,2c0,0,0,0,0,0c0.6,0.2,1.3-0.1,1.6-0.7
				c0.3-0.6,0.8-1.1,1.3-1.5c0.5-0.4,0.6-1.1,0.4-1.7l0,0C16.5,20,15.5,19.8,14.8,20.3L14.8,20.3z"/>
		</g>
		<g>
			<ellipse class="st5" cx="30.1" cy="14.3" rx="4.9" ry="3.1"/>
			<path class="st0" d="M35,14.3c0,1.7-2.2,3.1-4.9,3.1c-2.5,0-4.6-1.2-4.9-2.7c0.8,0.4,1.8,0.6,2.8,0.6c2.7,0,4.9-1.4,4.9-3.1
				c0-0.1,0-0.3,0-0.4C34.2,12.4,35,13.3,35,14.3L35,14.3z"/>
		</g>
		<g>
			<path class="st9" d="M11.5,33.4L9.2,44.1c-0.2,0.9,0.1,1.8,0.8,2.3c1.4,1,3.9,2.6,7.1,3c0.8,0.1,1.5-0.7,1.2-1.5
				c-1.1-3-3.2-9.6-3.1-14.5L11.5,33.4L11.5,33.4z"/>
			<path class="st8" d="M17.2,49.4c-2.3-0.3-4.3-1.2-5.7-2.1c1.8-2.4,2.9-5.4,2.9-8.6c0-1.9-0.4-3.6-1-5.3h1.9
				c-0.1,4.9,2,11.5,3.1,14.5C18.7,48.7,18,49.5,17.2,49.4z"/>
			<circle class="st11" cx="13.4" cy="31.9" r="2.7"/>
			<path class="st12" d="M16.2,31.9c0,1.5-1.2,2.7-2.7,2.7c-1,0-1.9-0.6-2.4-1.4c0.6,0.3,1.2,0.4,1.9,0.2c1.3-0.4,2.1-1.7,1.7-3
				c-0.1-0.5-0.4-0.9-0.8-1.3C15.1,29.4,16.2,30.5,16.2,31.9L16.2,31.9z"/>
		</g>
	</g>
	<g>
		<path class="st13" d="M75.3,44.8l-0.7,2.1h-0.9l2.3-6.7h1l2.3,6.7h-0.9l-0.7-2.1H75.3z M77.5,44.1l-0.7-1.9
			c-0.1-0.4-0.2-0.8-0.3-1.2h0c-0.1,0.4-0.2,0.8-0.3,1.2l-0.7,1.9H77.5z"/>
		<path class="st13" d="M82.3,45.9c0.4,0.2,1,0.4,1.6,0.4c0.9,0,1.4-0.5,1.4-1.2c0-0.6-0.4-1-1.3-1.3c-1.1-0.4-1.8-1-1.8-1.9
			c0-1,0.9-1.8,2.2-1.8c0.7,0,1.2,0.2,1.5,0.3l-0.2,0.7c-0.2-0.1-0.7-0.3-1.3-0.3c-0.9,0-1.3,0.5-1.3,1c0,0.6,0.4,0.9,1.3,1.3
			c1.1,0.4,1.7,1,1.7,2c0,1-0.8,1.9-2.4,1.9c-0.6,0-1.4-0.2-1.7-0.4L82.3,45.9z"/>
		<path class="st13" d="M93,44c0-0.9-0.1-2.1-0.1-2.9h0c-0.2,0.8-0.5,1.6-0.8,2.6l-1.2,3.3h-0.7l-1.1-3.2c-0.3-0.9-0.6-1.8-0.8-2.6
			h0c0,0.8-0.1,2-0.1,3L88,46.9h-0.8l0.5-6.7h1.1l1.1,3.3c0.3,0.8,0.5,1.6,0.7,2.3h0c0.2-0.7,0.4-1.4,0.7-2.3l1.2-3.3h1.1l0.4,6.7
			h-0.8L93,44z"/>
		<path class="st13" d="M96.4,44.8l-0.7,2.1h-0.9l2.3-6.7h1l2.3,6.7h-0.9l-0.7-2.1H96.4z M98.6,44.1l-0.7-1.9
			c-0.1-0.4-0.2-0.8-0.3-1.2h0c-0.1,0.4-0.2,0.8-0.3,1.2l-0.7,1.9H98.6z"/>
		<path class="st13" d="M101.4,40.3c0.4-0.1,1.1-0.1,1.7-0.1c0.9,0,1.5,0.2,1.9,0.5c0.3,0.3,0.5,0.8,0.5,1.3c0,0.9-0.6,1.5-1.3,1.7
			v0c0.5,0.2,0.8,0.7,1,1.4c0.2,0.9,0.4,1.6,0.5,1.8h-0.9c-0.1-0.2-0.3-0.8-0.4-1.6c-0.2-0.9-0.6-1.3-1.3-1.3h-0.8v2.9h-0.9V40.3z
			 M102.3,43.3h0.9c0.9,0,1.5-0.5,1.5-1.3c0-0.9-0.6-1.2-1.5-1.3c-0.4,0-0.7,0-0.9,0.1V43.3z"/>
		<path class="st13" d="M108.1,40.9h-2v-0.7h5v0.7H109v6h-0.9V40.9z"/>
		<path class="st13" d="M116.8,46.9l-1.7-6.7h0.9l0.8,3.4c0.2,0.8,0.4,1.7,0.5,2.3h0c0.1-0.7,0.3-1.5,0.5-2.3l0.9-3.4h0.9l0.8,3.4
			c0.2,0.8,0.4,1.6,0.5,2.3h0c0.1-0.7,0.3-1.5,0.5-2.3l0.9-3.4h0.9l-1.9,6.7h-0.9l-0.8-3.5c-0.2-0.9-0.4-1.5-0.4-2.2h0
			c-0.1,0.7-0.3,1.3-0.5,2.2l-1,3.5H116.8z"/>
		<path class="st13" d="M124.7,44.8l-0.7,2.1h-0.9l2.3-6.7h1l2.3,6.7h-0.9l-0.7-2.1H124.7z M126.9,44.1l-0.7-1.9
			c-0.2-0.4-0.3-0.8-0.4-1.2h0c-0.1,0.4-0.2,0.8-0.3,1.2l-0.7,1.9H126.9z"/>
		<path class="st13" d="M130.4,46.9v-2.9l-2.1-3.9h1l1,1.9c0.3,0.5,0.5,0.9,0.7,1.4h0c0.2-0.4,0.4-0.9,0.7-1.4l1-1.9h1l-2.3,3.9v2.9
			H130.4z"/>
		<path class="st13" d="M142.2,43.5c0,2.3-1.4,3.5-3.1,3.5c-1.8,0-3-1.4-3-3.4c0-2.1,1.3-3.5,3.1-3.5
			C141,40.1,142.2,41.5,142.2,43.5z M137,43.6c0,1.4,0.8,2.7,2.1,2.7c1.4,0,2.2-1.3,2.2-2.8c0-1.3-0.7-2.7-2.1-2.7
			C137.7,40.8,137,42.1,137,43.6z"/>
		<path class="st13" d="M143.4,40.2h3.6v0.7h-2.8v2.2h2.5v0.7h-2.5v3h-0.9V40.2z"/>
		<path class="st13" d="M153.8,43.8h-2.6v2.4h2.9v0.7h-3.8v-6.7h3.6v0.7h-2.8V43h2.6V43.8z"/>
		<path class="st13" d="M155.3,40.3c0.5-0.1,1.2-0.1,1.8-0.1c1.2,0,2.1,0.3,2.7,0.8c0.6,0.6,0.9,1.3,0.9,2.4c0,1.1-0.3,2-1,2.6
			c-0.6,0.6-1.7,1-3,1c-0.6,0-1.1,0-1.6-0.1V40.3z M156.1,46.2c0.2,0,0.5,0,0.9,0c1.9,0,2.9-1,2.9-2.9c0-1.6-0.9-2.6-2.7-2.6
			c-0.4,0-0.8,0-1,0.1V46.2z"/>
		<path class="st13" d="M162.8,40.2v4c0,1.5,0.7,2.1,1.6,2.1c1,0,1.6-0.7,1.6-2.1v-4h0.9v3.9c0,2.1-1.1,2.9-2.5,2.9
			c-1.4,0-2.4-0.8-2.4-2.9v-4H162.8z"/>
		<path class="st13" d="M173.1,46.7c-0.3,0.2-1,0.3-1.8,0.3c-1.9,0-3.3-1.2-3.3-3.4c0-2.1,1.4-3.5,3.5-3.5c0.8,0,1.4,0.2,1.6,0.3
			l-0.2,0.7c-0.3-0.2-0.8-0.3-1.4-0.3c-1.6,0-2.6,1-2.6,2.8c0,1.6,0.9,2.7,2.6,2.7c0.5,0,1.1-0.1,1.4-0.3L173.1,46.7z"/>
		<path class="st13" d="M175.3,44.8l-0.7,2.1h-0.9l2.3-6.7h1l2.3,6.7h-0.9l-0.7-2.1H175.3z M177.5,44.1l-0.7-1.9
			c-0.2-0.4-0.3-0.8-0.4-1.2h0c-0.1,0.4-0.2,0.8-0.3,1.2l-0.7,1.9H177.5z"/>
		<path class="st13" d="M180.9,40.9h-2v-0.7h5v0.7h-2.1v6h-0.9V40.9z"/>
		<path class="st13" d="M185.4,40.2v6.7h-0.9v-6.7H185.4z"/>
		<path class="st13" d="M192.7,43.5c0,2.3-1.4,3.5-3.1,3.5c-1.8,0-3-1.4-3-3.4c0-2.1,1.3-3.5,3.1-3.5
			C191.5,40.1,192.7,41.5,192.7,43.5z M187.5,43.6c0,1.4,0.8,2.7,2.1,2.7c1.4,0,2.2-1.3,2.2-2.8c0-1.3-0.7-2.7-2.1-2.7
			C188.2,40.8,187.5,42.1,187.5,43.6z"/>
		<path class="st13" d="M193.8,46.9v-6.7h0.9l2.2,3.4c0.5,0.8,0.9,1.5,1.2,2.2l0,0c-0.1-0.9-0.1-1.7-0.1-2.8v-2.8h0.8v6.7H198
			l-2.1-3.4c-0.5-0.8-0.9-1.5-1.3-2.2l0,0c0.1,0.8,0.1,1.7,0.1,2.8v2.9H193.8z"/>
	</g>
	<g>
		<path class="st14" d="M82.7,13h-7.1v-2.2c0-1-0.1-1.7-0.3-2c-0.2-0.3-0.5-0.4-0.9-0.4c-0.5,0-0.8,0.2-1.1,0.6
			c-0.2,0.4-0.4,1-0.4,1.7c0,1,0.1,1.7,0.4,2.2c0.3,0.5,1,1.1,2.2,1.8c3.4,2,5.6,3.7,6.5,5s1.3,3.4,1.3,6.3c0,2.1-0.2,3.7-0.7,4.7
			c-0.5,1-1.4,1.8-2.9,2.5c-1.4,0.7-3.1,1-4.9,1c-2.1,0-3.8-0.4-5.3-1.2c-1.5-0.8-2.4-1.8-2.9-3C66.2,28.9,66,27.2,66,25v-1.9h7.1
			v3.6c0,1.1,0.1,1.8,0.3,2.1c0.2,0.3,0.6,0.5,1.1,0.5s0.9-0.2,1.1-0.6c0.3-0.4,0.4-1,0.4-1.8c0-1.7-0.2-2.9-0.7-3.4
			c-0.5-0.5-1.7-1.4-3.6-2.7c-1.9-1.3-3.2-2.2-3.8-2.8c-0.6-0.6-1.1-1.4-1.5-2.4c-0.4-1-0.6-2.3-0.6-3.9c0-2.3,0.3-3.9,0.9-5
			c0.6-1,1.5-1.9,2.8-2.5c1.3-0.6,2.9-0.9,4.7-0.9c2,0,3.7,0.3,5.1,1s2.3,1.5,2.8,2.4c0.5,1,0.7,2.6,0.7,5V13z"/>
		<path class="st14" d="M92.8,9.4l-0.1,2.3c0.6-0.9,1.3-1.6,2-2.1C95.5,9.2,96.4,9,97.4,9c2,0,3.5,0.9,4.7,2.7
			c0.6-0.9,1.3-1.6,2.1-2.1c0.8-0.5,1.6-0.7,2.6-0.7c1.3,0,2.3,0.3,3.1,0.9s1.3,1.4,1.6,2.2c0.2,0.9,0.3,2.3,0.3,4.3v17.2h-7.2V17.8
			c0-2.1-0.1-3.4-0.2-3.8s-0.5-0.7-1-0.7c-0.5,0-0.9,0.2-1,0.7c-0.2,0.5-0.2,1.8-0.2,3.9v15.8h-7.2V18.2c0-2.4-0.1-3.8-0.2-4.3
			c-0.1-0.5-0.4-0.7-1-0.7c-0.3,0-0.6,0.1-0.8,0.4s-0.4,0.6-0.4,0.9c0,0.4,0,1.1,0,2.3v16.8h-7.2V9.4H92.8z"/>
		<path class="st14" d="M121,18.8h-6.9v-1.6c0-1.9,0.2-3.3,0.6-4.3c0.4-1,1.3-1.9,2.6-2.7c1.3-0.8,3-1.2,5.1-1.2
			c2.5,0,4.4,0.4,5.6,1.3c1.3,0.9,2,2,2.3,3.3c0.3,1.3,0.4,3.9,0.4,7.9v12.2h-7.2v-2.2c-0.5,0.9-1,1.5-1.7,2
			c-0.7,0.4-1.6,0.6-2.5,0.6c-1.3,0-2.5-0.4-3.6-1.1c-1.1-0.7-1.6-2.3-1.6-4.8v-2c0-1.8,0.3-3.1,0.9-3.7c0.6-0.7,2-1.4,4.3-2.3
			c2.4-1,3.7-1.6,3.9-1.9c0.2-0.3,0.3-1,0.3-2c0-1.3-0.1-2.1-0.3-2.5c-0.2-0.4-0.5-0.6-0.9-0.6c-0.5,0-0.8,0.2-0.9,0.5
			c-0.1,0.3-0.2,1.2-0.2,2.5V18.8z M123.3,22.1c-1.2,0.9-1.9,1.6-2.1,2.2c-0.2,0.6-0.3,1.4-0.3,2.5c0,1.3,0.1,2.1,0.2,2.4
			c0.2,0.4,0.5,0.5,1,0.5c0.5,0,0.8-0.1,0.9-0.4c0.1-0.3,0.2-1,0.2-2.3V22.1z"/>
		<path class="st14" d="M140.6,9.4l-0.3,3.2c1.1-2.3,2.6-3.5,4.7-3.6v8.5c-1.4,0-2.3,0.2-3,0.5s-1,0.9-1.2,1.5
			c-0.1,0.7-0.2,2.2-0.2,4.5v9.6h-7.4V9.4H140.6z"/>
		<path class="st14" d="M155.1,6.2V10h2v3.8h-2v13c0,1.6,0.1,2.5,0.2,2.7c0.2,0.2,0.8,0.3,2.1,0.3v3.9h-3c-1.7,0-2.9-0.1-3.6-0.2
			c-0.7-0.1-1.4-0.5-1.9-1c-0.5-0.5-0.9-1.1-1-1.7c-0.1-0.7-0.2-2.2-0.2-4.6V13.8h-1.6V10h1.6V6.2H155.1z"/>
		<path class="st14" d="M159,4.1h12.8V10h-5.1v5.6h4.8v5.6h-4.8v6.5h5.6v5.9H159V4.1z"/>
		<path class="st14" d="M191.1,4.1v29.6h-7.4v-1.8c-0.7,0.7-1.5,1.3-2.2,1.6s-1.6,0.5-2.4,0.5c-1.1,0-2.1-0.3-3-0.9
			c-0.8-0.6-1.4-1.3-1.6-2.1c-0.2-0.8-0.4-2.1-0.4-3.9V15.9c0-1.9,0.1-3.2,0.4-4c0.2-0.8,0.8-1.5,1.6-2.1c0.9-0.6,1.9-0.9,3.1-0.9
			c0.9,0,1.8,0.2,2.5,0.5s1.5,0.8,2.1,1.5V4.1H191.1z M183.7,15.5c0-0.9-0.1-1.5-0.2-1.8c-0.2-0.3-0.5-0.5-0.9-0.5
			c-0.4,0-0.7,0.1-0.9,0.4c-0.2,0.3-0.2,0.9-0.2,1.8v11.9c0,1,0.1,1.6,0.2,1.9c0.1,0.3,0.4,0.5,0.8,0.5c0.5,0,0.8-0.2,1-0.5
			c0.2-0.3,0.2-1.2,0.2-2.5V15.5z"/>
		<path class="st14" d="M210.7,9.4v24.3h-7.5l0.1-2c-0.5,0.8-1.1,1.4-1.9,1.8c-0.8,0.4-1.6,0.6-2.6,0.6c-1.1,0-2-0.2-2.8-0.6
			c-0.7-0.4-1.3-0.9-1.6-1.6c-0.3-0.6-0.6-1.3-0.6-2c-0.1-0.7-0.1-2.1-0.1-4.2V9.4h7.4v16.5c0,1.9,0.1,3,0.2,3.4
			c0.1,0.4,0.4,0.5,0.9,0.5c0.5,0,0.9-0.2,1-0.5s0.2-1.5,0.2-3.5V9.4H210.7z"/>
	</g>
	<g>
		<path class="st15" d="M249.6,7.7l-0.4,2c-0.4,1.9-1.2,3.6-2.4,5.1l-6,7.6c-0.1,0.1-0.2,0.1-0.3,0.1l-2.4,0.2
			c-0.4,0-0.5,0.5-0.2,0.7l1,0.7c0.2,0.1,0.2,0.4,0.1,0.6l-1.5,1.9c-0.1,0.1-0.2,0.1-0.3,0.1c-1.2,0.1-2.7,0.2-3.7,0.2
			c-0.4,0-0.5,0.5-0.2,0.7l1.8,1.2c0.2,0.1,0.2,0.4,0.1,0.6l-2.1,2.7c-7-2.5-6-10.9-4.9-15.3l8.9-7c0.1-0.1,0.2-0.1,0.4-0.1l1.4,0.5
			c0.3,0.1,0.6-0.1,0.5-0.4l-0.2-0.9c-0.1-0.4,0.1-0.9,0.4-1.1c0.7-0.6,1.6-1.1,2.4-1.5c0.9-0.4,1.8-0.7,2.7-0.9L247,5
			C248.6,4.7,249.9,6.1,249.6,7.7L249.6,7.7z"/>
		<path class="st16" d="M249.6,7.7l-0.4,2c-0.4,1.9-1.2,3.6-2.4,5.1l-6,7.6c-0.1,0.1-0.2,0.1-0.3,0.1l-2.4,0.2
			c-0.4,0-0.5,0.5-0.2,0.7l1,0.7c0.2,0.1,0.2,0.4,0.1,0.6l-1.5,1.9c-0.1,0.1-0.2,0.1-0.3,0.1c-1.2,0.1-2.7,0.2-3.7,0.2
			c-0.4,0-0.5,0.5-0.2,0.7l1.8,1.2c0.2,0.1,0.2,0.4,0.1,0.6l-2.1,2.7c-0.8-0.3-1.5-0.6-2.1-1.1l1.3-1.7c0.1-0.2,0.1-0.4-0.1-0.6
			l-1.8-1.2c-0.3-0.2-0.2-0.7,0.2-0.7c1-0.1,2.5-0.2,3.7-0.2c0.1,0,0.2-0.1,0.3-0.1l1.5-1.9c0.1-0.2,0.1-0.4-0.1-0.6l-1-0.7
			c-0.3-0.2-0.2-0.7,0.2-0.7l2.4-0.2c0.1,0,0.2-0.1,0.3-0.1l6-7.6c1.2-1.5,2-3.2,2.4-5.1l0.4-2c0.2-1-0.3-1.9-1.1-2.4L247,5
			C248.6,4.7,249.9,6.1,249.6,7.7L249.6,7.7z"/>
		<path class="st17" d="M233.7,31.6l-3.3,4.2c0,0-0.1,0.1-0.1,0.1c-7.1-2.9-9-9.4-9.4-13.1l1.5-1.2c0.1-0.1,0.3-0.1,0.4,0l1.8,1
			c0.3,0.1,0.6,0,0.6-0.3v-2.6c0-0.1,0.1-0.2,0.1-0.3l3.8-3C228.1,19.9,226.3,29.1,233.7,31.6L233.7,31.6z"/>
		<path class="st18" d="M233.7,31.6l-3.3,4.2c0,0-0.1,0.1-0.1,0.1c-0.7-0.3-1.4-0.7-2.1-1l3.3-4.2C232.2,30.9,232.9,31.3,233.7,31.6
			L233.7,31.6z"/>
		<path class="st19" d="M230.8,35.2l-0.4,0.6c-0.7,0.9-1.8,1.3-2.9,1.1l-7.9-1.4c-0.2,0-0.3-0.2-0.3-0.4l0.4-10.1
			c0-0.9,0.5-1.7,1.1-2.2l0.7-0.5C221.8,25.5,223.2,32.4,230.8,35.2z"/>
		<path class="st13" d="M230.8,35.2l-0.4,0.6c-0.7,0.9-1.8,1.3-2.9,1.1l-1.2-0.2c0.4-0.2,0.8-0.5,1.1-0.9l1.2-1.5
			C229.4,34.6,230.1,34.9,230.8,35.2z"/>
		<g>
			<path class="st16" d="M243.6,11.9l-15.3,15.3c-0.2-0.4-0.3-0.8-0.4-1.3l14.9-14.9c0.2-0.2,0.6-0.2,0.8,0
				C243.9,11.3,243.9,11.7,243.6,11.9L243.6,11.9z"/>
		</g>
		<g>
			<path class="st18" d="M228.8,26.8l-4.5,4.5c-0.2-0.3-0.5-0.6-0.7-1l4.8-4.8C228.5,25.9,228.6,26.4,228.8,26.8L228.8,26.8z"/>
		</g>
		<g>
			<path class="st13" d="M224.7,30.8l-3.3,3.3c-2.6,2.6-4.2,5.8-4.9,9.4c0,0.3-0.3,0.5-0.6,0.5c0,0-0.1,0-0.1,0
				c-0.3-0.1-0.5-0.4-0.5-0.7c0.7-3.8,2.5-7.3,5.2-10l3.4-3.5C224.2,30.2,224.5,30.5,224.7,30.8L224.7,30.8z"/>
		</g>
	</g>
</g>
</svg>
