<svg width="351" height="118" viewBox="0 0 351 118" fill="none" xmlns="http://www.w3.org/2000/svg">
<path d="M47.5278 47.6667H24.2637V71.0001H47.5278V47.6667Z" fill="#005D28"/>
<path d="M70.7919 24.3333C64.3628 24.3333 59.1709 29.5628 59.1709 35.9888C59.1709 42.4149 64.3849 47.6444 70.7919 47.6444V24.3333Z" fill="#FBAC17"/>
<path d="M24.2617 47.6785L24.2617 24.3452L0.997604 24.3452L0.997604 47.6785H24.2617Z" fill="#FBAC17"/>
<path d="M140.574 71.0067V47.6733L117.31 47.6733V71.0067H140.574Z" fill="#E11F17"/>
<path d="M70.792 1V24.3333H94.0561L70.792 1Z" fill="#FBAC17"/>
<path d="M70.7924 1H47.5283V24.3333L70.7924 1Z" fill="#F9681B"/>
<path d="M70.7924 47.6667V71.0001H47.5283L70.7924 47.6667Z" fill="#E11F17"/>
<path d="M117.321 1V24.3333H94.0566L117.321 1Z" fill="#E11F17"/>
<path d="M140.584 24.3333V47.6666H117.32L140.584 24.3333Z" fill="#FBAC17"/>
<path d="M175.463 12.6743V0.996582L152.199 0.996582V12.6743L175.463 12.6743Z" fill="#F9681B"/>
<path d="M175.47 71.0042V59.3264L152.206 59.3264V71.0042H175.47Z" fill="#F9681B"/>
<path d="M175.47 59.3222C162.612 59.3222 152.206 48.8854 152.206 35.9889C152.206 23.0924 162.612 12.6777 175.47 12.6777V59.3222Z" fill="#005D28"/>
<path d="M47.5283 47.6666C53.9574 47.6666 59.1493 42.4371 59.1493 36.0111C59.1493 29.585 53.9353 24.3555 47.5283 24.3555V47.6666Z" fill="#FBAC17"/>
<path d="M24.2641 71.0001C24.2641 58.1036 24.2641 47.6667 24.2641 47.6667C11.4059 47.6667 1 58.1036 1 71.0001H24.2641Z" fill="#F9681B"/>
<path d="M140.563 24.3333C127.705 24.3333 117.299 13.8965 117.299 1C117.299 1 127.705 1 140.563 1V24.3333Z" fill="#005D28"/>
<path d="M24.2641 24.3333C11.4059 24.3333 1 13.8965 1 1C1 1 11.4059 1 24.2641 1V24.3333Z" fill="#005D28"/>
<path d="M70.748 24.3333L94.0563 47.7109L117.343 24.3333" fill="#005D28"/>
<path d="M189.742 1.30933H185.589V16.3109H196.989V12.6768H189.742V1.30933Z" fill="#1A1A1A"/>
<path d="M204.367 1.19873L197.982 16.3333H202.357L203.417 13.652H209.184L210.266 16.3333H214.707L208.366 1.19873H204.367ZM204.655 10.3947L206.356 6.11801L208.035 10.3947H204.655Z" fill="#1A1A1A"/>
<path d="M227.035 8.46665C228.36 7.89052 229.355 6.84905 229.355 5.12066V5.07634C229.355 4.05703 229.001 3.25931 228.382 2.66102C227.499 1.77466 226.173 1.30933 224.295 1.30933H216.629V16.3331H224.362C227.941 16.3331 230.039 14.7598 230.039 12.1894V12.145C230.017 10.1064 228.869 9.06495 227.035 8.46665ZM220.672 4.65532H223.367C224.605 4.65532 225.245 5.12066 225.245 5.94054V5.98486C225.245 6.87121 224.538 7.29223 223.279 7.29223H220.672V4.65532ZM225.864 11.5911C225.864 12.4774 225.135 12.9649 223.875 12.9649H220.672V10.195H223.831C225.223 10.195 225.864 10.7269 225.864 11.5467V11.5911Z" fill="#1A1A1A"/>
<path d="M239.915 1C235.298 1 231.829 4.50111 231.829 8.79994V8.84425C231.829 13.1652 235.254 16.622 239.871 16.622C244.488 16.622 247.957 13.1209 247.957 8.8221V8.77778C247.957 4.45679 244.533 1 239.915 1ZM243.715 8.84425C243.715 11.0158 242.191 12.855 239.915 12.855C237.64 12.855 236.093 10.9715 236.093 8.79994V8.75562C236.093 6.58405 237.617 4.74486 239.871 4.74486C242.169 4.74486 243.715 6.62836 243.715 8.79994V8.84425Z" fill="#1A1A1A"/>
<path d="M260.087 9.75187C260.087 11.857 259.004 12.832 257.325 12.832C255.646 12.832 254.564 11.8126 254.564 9.64108V1.30933H250.344V9.75187C250.344 14.4496 253.017 16.6211 257.281 16.6211C261.545 16.6211 264.307 14.4939 264.307 9.64108V1.30933H260.087V9.75187Z" fill="#1A1A1A"/>
<path d="M277.385 11.0813C279.241 10.2836 280.456 8.75466 280.456 6.4723V6.42798C280.456 4.94333 280.015 3.79107 279.131 2.92687C278.115 1.8854 276.546 1.28711 274.248 1.28711H267.156V16.3109H271.31V11.7683H273.121L276.148 16.3109H280.942L277.385 11.0813ZM276.303 6.7382C276.303 7.82399 275.485 8.51092 274.071 8.51092H271.332V4.89901H274.049C275.441 4.89901 276.303 5.4973 276.303 6.67173V6.7382Z" fill="#1A1A1A"/>
<path d="M193.808 34.3713L190.118 28.3662H185.589V43.8775H189.787V35.0139L193.719 41.0411H193.808L197.762 34.9696V43.8775H202.026V28.3662H197.497L193.808 34.3713Z" fill="#1A1A1A"/>
<path d="M210.553 28.2554L203.97 43.8774H208.477L209.581 41.1076H215.547L216.673 43.8774H221.269L214.685 28.2554H210.553ZM210.841 37.7616L212.586 33.3519L214.309 37.7616H210.841Z" fill="#1A1A1A"/>
<path d="M236.911 33.7065V33.6622C236.911 32.1332 236.447 30.9366 235.541 30.0503C234.503 28.9867 232.868 28.3662 230.504 28.3662H223.191V43.8775H227.477V39.1798H229.355L232.471 43.8775H237.419L233.73 38.4707C235.652 37.6508 236.911 36.0775 236.911 33.7065ZM232.603 33.9724C232.603 35.1025 231.764 35.8116 230.305 35.8116H227.477V32.0889H230.283C231.719 32.0889 232.603 32.7094 232.603 33.9281V33.9724Z" fill="#1A1A1A"/>
<path d="M254.21 28.3662H249.128L243.804 34.6593V28.3662H239.518V43.8775H243.804V39.8667L245.372 38.1161L249.261 43.8775H254.408L248.355 35.0361L254.21 28.3662Z" fill="#1A1A1A"/>
<path d="M260.33 37.7616H267.753V34.3713H260.33V32.0224H268.526V28.3662H256.088V43.8775H268.637V40.2212H260.33V37.7616Z" fill="#1A1A1A"/>
<path d="M270.404 28.3662V32.1332H275.044V43.8775H279.33V32.1332H283.969V28.3662H270.404Z" fill="#1A1A1A"/>
<path d="M202.954 63.6211L196.79 55.666H192.924V70.6898H197.033V62.4466L203.418 70.6898H207.063V55.666H202.954V63.6211Z" fill="#1A1A1A"/>
<path d="M209.316 59.3222H213.801V70.6898H217.955V59.3222H222.44V55.666H209.316V59.3222Z" fill="#1A1A1A"/>
<path d="M228.803 64.7733H235.983V61.4938H228.803V59.2114H236.734V55.666H224.693V70.6898H236.845V67.1665H228.803V64.7733Z" fill="#1A1A1A"/>
<path d="M243.539 55.666H239.386V70.6898H250.786V67.0557H243.539V55.666Z" fill="#1A1A1A"/>
<path d="M257.126 55.666H252.973V70.6898H264.395V67.0557H257.126V55.666Z" fill="#1A1A1A"/>
<path d="M270.846 55.666H266.67V70.6898H270.846V55.666Z" fill="#1A1A1A"/>
<path d="M281.252 64.9727H284.212V66.7897C283.594 67.1886 282.82 67.4102 281.826 67.4102C279.462 67.4102 277.761 65.6818 277.761 63.2443V63.2C277.761 60.8954 279.44 59.0784 281.583 59.0784C283.063 59.0784 284.124 59.5881 285.206 60.4966L287.637 57.5494C286.046 56.1756 284.19 55.3557 281.561 55.3557C276.921 55.3557 273.497 58.7903 273.497 63.1556V63.2C273.497 67.7425 276.988 70.9777 281.649 70.9777C284.367 70.9777 286.576 69.9584 288.145 68.651V61.8926H281.252V64.9727Z" fill="#1A1A1A"/>
<path d="M294.994 64.7733H302.174V61.4938H294.994V59.2114H302.926V55.666H290.885V70.6898H303.036V67.1665H294.994V64.7733Z" fill="#1A1A1A"/>
<path d="M315.606 63.6211L309.442 55.666H305.576V70.6898H309.686V62.4466L316.093 70.6898H319.716V55.666H315.606V63.6211Z" fill="#1A1A1A"/>
<path d="M330.144 67.1886C328.046 67.1886 326.565 65.4381 326.565 63.1779V63.1336C326.565 60.9398 328.046 59.1671 330.144 59.1671C331.581 59.1671 332.553 59.854 333.414 60.9177L336.529 58.5023C335.204 56.6631 333.238 55.3779 330.167 55.3779C325.637 55.3779 322.279 58.8126 322.279 63.1779V63.2222C322.279 67.6983 325.726 71 330.012 71C333.326 71 335.226 69.5596 336.64 67.6097L333.525 65.3716C332.619 66.4795 331.691 67.1886 330.144 67.1886Z" fill="#1A1A1A"/>
<path d="M342.936 67.1665V64.7733H350.138V61.4938H342.936V59.2114H350.889V55.666H338.849V70.6898H351V67.1665H342.936Z" fill="#1A1A1A"/>
<path d="M189.742 55.666H185.589V59.1671V59.8984V70.6898H189.764V59.1671H186.318L189.742 55.666Z" fill="#1A1A1A"/>
<path d="M8.26 93.884V95.444H1.756V87.044H8.104V88.604H3.688V90.428H7.588V91.94H3.688V93.884H8.26Z" fill="#585656"/>
<path d="M11.9199 95.54C11.3839 95.54 10.8599 95.476 10.3479 95.348C9.83591 95.212 9.42791 95.044 9.12391 94.844L9.74791 93.5C10.0359 93.684 10.3839 93.836 10.7919 93.956C11.1999 94.068 11.5999 94.124 11.9919 94.124C12.7839 94.124 13.1799 93.928 13.1799 93.536C13.1799 93.352 13.0719 93.22 12.8559 93.14C12.6399 93.06 12.3079 92.992 11.8599 92.936C11.3319 92.856 10.8959 92.764 10.5519 92.66C10.2079 92.556 9.90791 92.372 9.65191 92.108C9.40391 91.844 9.27991 91.468 9.27991 90.98C9.27991 90.572 9.39591 90.212 9.62791 89.9C9.86791 89.58 10.2119 89.332 10.6599 89.156C11.1159 88.98 11.6519 88.892 12.2679 88.892C12.7239 88.892 13.1759 88.944 13.6239 89.048C14.0799 89.144 14.4559 89.28 14.7519 89.456L14.1279 90.788C13.5599 90.468 12.9399 90.308 12.2679 90.308C11.8679 90.308 11.5679 90.364 11.3679 90.476C11.1679 90.588 11.0679 90.732 11.0679 90.908C11.0679 91.108 11.1759 91.248 11.3919 91.328C11.6079 91.408 11.9519 91.484 12.4239 91.556C12.9519 91.644 13.3839 91.74 13.7199 91.844C14.0559 91.94 14.3479 92.12 14.5959 92.384C14.8439 92.648 14.9679 93.016 14.9679 93.488C14.9679 93.888 14.8479 94.244 14.6079 94.556C14.3679 94.868 14.0159 95.112 13.5519 95.288C13.0959 95.456 12.5519 95.54 11.9199 95.54Z" fill="#585656"/>
<path d="M20.4069 95.132C20.2229 95.268 19.9949 95.372 19.7229 95.444C19.4589 95.508 19.1789 95.54 18.8829 95.54C18.1149 95.54 17.5189 95.344 17.0949 94.952C16.6789 94.56 16.4709 93.984 16.4709 93.224V90.572H15.4749V89.132H16.4709V87.56H18.3429V89.132H19.9509V90.572H18.3429V93.2C18.3429 93.472 18.4109 93.684 18.5469 93.836C18.6909 93.98 18.8909 94.052 19.1469 94.052C19.4429 94.052 19.6949 93.972 19.9029 93.812L20.4069 95.132Z" fill="#585656"/>
<path d="M24.1818 88.892C25.1818 88.892 25.9498 89.132 26.4858 89.612C27.0218 90.084 27.2898 90.8 27.2898 91.76V95.444H25.5378V94.64C25.1858 95.24 24.5298 95.54 23.5698 95.54C23.0738 95.54 22.6418 95.456 22.2738 95.288C21.9137 95.12 21.6378 94.888 21.4458 94.592C21.2538 94.296 21.1578 93.96 21.1578 93.584C21.1578 92.984 21.3818 92.512 21.8298 92.168C22.2857 91.824 22.9858 91.652 23.9298 91.652H25.4178C25.4178 91.244 25.2938 90.932 25.0458 90.716C24.7978 90.492 24.4258 90.38 23.9298 90.38C23.5858 90.38 23.2458 90.436 22.9098 90.548C22.5818 90.652 22.3018 90.796 22.0698 90.98L21.3978 89.672C21.7498 89.424 22.1698 89.232 22.6578 89.096C23.1538 88.96 23.6618 88.892 24.1818 88.892ZM24.0378 94.28C24.3577 94.28 24.6418 94.208 24.8898 94.064C25.1378 93.912 25.3138 93.692 25.4178 93.404V92.744H24.1338C23.3658 92.744 22.9818 92.996 22.9818 93.5C22.9818 93.74 23.0738 93.932 23.2578 94.076C23.4498 94.212 23.7098 94.28 24.0378 94.28Z" fill="#585656"/>
<path d="M32.92 88.892C33.52 88.892 34.064 89.032 34.552 89.312C35.048 89.584 35.436 89.972 35.716 90.476C35.996 90.972 36.136 91.552 36.136 92.216C36.136 92.88 35.996 93.464 35.716 93.968C35.436 94.464 35.048 94.852 34.552 95.132C34.064 95.404 33.52 95.54 32.92 95.54C32.032 95.54 31.356 95.26 30.892 94.7V95.444H29.104V86.54H30.976V89.672C31.448 89.152 32.096 88.892 32.92 88.892ZM32.596 94.004C33.076 94.004 33.468 93.844 33.772 93.524C34.084 93.196 34.24 92.76 34.24 92.216C34.24 91.672 34.084 91.24 33.772 90.92C33.468 90.592 33.076 90.428 32.596 90.428C32.116 90.428 31.72 90.592 31.408 90.92C31.104 91.24 30.952 91.672 30.952 92.216C30.952 92.76 31.104 93.196 31.408 93.524C31.72 93.844 32.116 94.004 32.596 94.004Z" fill="#585656"/>
<path d="M37.5092 86.54H39.3812V95.444H37.5092V86.54Z" fill="#585656"/>
<path d="M41.2385 88.988H43.1105V95.444H41.2385V88.988ZM42.1745 88.088C41.8305 88.088 41.5505 87.988 41.3345 87.788C41.1185 87.588 41.0105 87.34 41.0105 87.044C41.0105 86.748 41.1185 86.5 41.3345 86.3C41.5505 86.1 41.8305 86 42.1745 86C42.5185 86 42.7985 86.096 43.0145 86.288C43.2305 86.48 43.3385 86.72 43.3385 87.008C43.3385 87.32 43.2305 87.58 43.0145 87.788C42.7985 87.988 42.5185 88.088 42.1745 88.088Z" fill="#585656"/>
<path d="M47.1399 95.54C46.6039 95.54 46.0799 95.476 45.5679 95.348C45.0559 95.212 44.6479 95.044 44.3439 94.844L44.9679 93.5C45.2559 93.684 45.6039 93.836 46.0119 93.956C46.4199 94.068 46.8199 94.124 47.2119 94.124C48.0039 94.124 48.3999 93.928 48.3999 93.536C48.3999 93.352 48.2919 93.22 48.0759 93.14C47.8599 93.06 47.5279 92.992 47.0799 92.936C46.5519 92.856 46.1159 92.764 45.7719 92.66C45.4279 92.556 45.1279 92.372 44.8719 92.108C44.6239 91.844 44.4999 91.468 44.4999 90.98C44.4999 90.572 44.6159 90.212 44.8479 89.9C45.0879 89.58 45.4319 89.332 45.8799 89.156C46.3359 88.98 46.8719 88.892 47.4879 88.892C47.9439 88.892 48.3959 88.944 48.8439 89.048C49.2999 89.144 49.6759 89.28 49.9719 89.456L49.3479 90.788C48.7799 90.468 48.1599 90.308 47.4879 90.308C47.0879 90.308 46.7879 90.364 46.5879 90.476C46.3879 90.588 46.2879 90.732 46.2879 90.908C46.2879 91.108 46.3959 91.248 46.6119 91.328C46.8279 91.408 47.1719 91.484 47.6439 91.556C48.1719 91.644 48.6039 91.74 48.9399 91.844C49.2759 91.94 49.5679 92.12 49.8159 92.384C50.0639 92.648 50.1879 93.016 50.1879 93.488C50.1879 93.888 50.0679 94.244 49.8279 94.556C49.5879 94.868 49.2359 95.112 48.7719 95.288C48.3159 95.456 47.7719 95.54 47.1399 95.54Z" fill="#585656"/>
<path d="M55.3869 88.892C56.1869 88.892 56.8309 89.132 57.3189 89.612C57.8149 90.092 58.0629 90.804 58.0629 91.748V95.444H56.1909V92.036C56.1909 91.524 56.0789 91.144 55.8549 90.896C55.6309 90.64 55.3069 90.512 54.8829 90.512C54.4109 90.512 54.0349 90.66 53.7549 90.956C53.4749 91.244 53.3349 91.676 53.3349 92.252V95.444H51.4629V86.54H53.3349V89.66C53.5829 89.412 53.8829 89.224 54.2349 89.096C54.5869 88.96 54.9709 88.892 55.3869 88.892Z" fill="#585656"/>
<path d="M59.8798 88.988H61.7518V95.444H59.8798V88.988ZM60.8158 88.088C60.4718 88.088 60.1918 87.988 59.9758 87.788C59.7598 87.588 59.6518 87.34 59.6518 87.044C59.6518 86.748 59.7598 86.5 59.9758 86.3C60.1918 86.1 60.4718 86 60.8158 86C61.1598 86 61.4398 86.096 61.6558 86.288C61.8718 86.48 61.9798 86.72 61.9798 87.008C61.9798 87.32 61.8718 87.58 61.6558 87.788C61.4398 87.988 61.1598 88.088 60.8158 88.088Z" fill="#585656"/>
<path d="M67.5332 88.892C68.3332 88.892 68.9772 89.132 69.4652 89.612C69.9612 90.092 70.2092 90.804 70.2092 91.748V95.444H68.3372V92.036C68.3372 91.524 68.2252 91.144 68.0012 90.896C67.7772 90.64 67.4532 90.512 67.0292 90.512C66.5572 90.512 66.1812 90.66 65.9012 90.956C65.6212 91.244 65.4812 91.676 65.4812 92.252V95.444H63.6092V88.988H65.3972V89.744C65.6452 89.472 65.9532 89.264 66.3212 89.12C66.6892 88.968 67.0932 88.892 67.5332 88.892Z" fill="#585656"/>
<path d="M78.7563 88.988V94.364C78.7563 95.548 78.4483 96.428 77.8323 97.004C77.2163 97.58 76.3163 97.868 75.1323 97.868C74.5083 97.868 73.9163 97.792 73.3563 97.64C72.7963 97.488 72.3324 97.268 71.9643 96.98L72.7083 95.636C72.9803 95.86 73.3243 96.036 73.7403 96.164C74.1563 96.3 74.5723 96.368 74.9883 96.368C75.6363 96.368 76.1123 96.22 76.4163 95.924C76.7283 95.636 76.8843 95.196 76.8843 94.604V94.328C76.3963 94.864 75.7163 95.132 74.8443 95.132C74.2523 95.132 73.7084 95.004 73.2123 94.748C72.7243 94.484 72.3363 94.116 72.0483 93.644C71.7603 93.172 71.6163 92.628 71.6163 92.012C71.6163 91.396 71.7603 90.852 72.0483 90.38C72.3363 89.908 72.7243 89.544 73.2123 89.288C73.7084 89.024 74.2523 88.892 74.8443 88.892C75.7803 88.892 76.4923 89.2 76.9803 89.816V88.988H78.7563ZM75.2163 93.596C75.7123 93.596 76.1163 93.452 76.4283 93.164C76.7483 92.868 76.9083 92.484 76.9083 92.012C76.9083 91.54 76.7483 91.16 76.4283 90.872C76.1163 90.576 75.7123 90.428 75.2163 90.428C74.7203 90.428 74.3123 90.576 73.9923 90.872C73.6723 91.16 73.5123 91.54 73.5123 92.012C73.5123 92.484 73.6723 92.868 73.9923 93.164C74.3123 93.452 74.7203 93.596 75.2163 93.596Z" fill="#585656"/>
<path d="M86.7411 88.892C87.7411 88.892 88.5091 89.132 89.0451 89.612C89.5811 90.084 89.8491 90.8 89.8491 91.76V95.444H88.0971V94.64C87.7451 95.24 87.0891 95.54 86.1291 95.54C85.6331 95.54 85.2011 95.456 84.8331 95.288C84.4731 95.12 84.1971 94.888 84.0051 94.592C83.8131 94.296 83.7171 93.96 83.7171 93.584C83.7171 92.984 83.9411 92.512 84.3891 92.168C84.8451 91.824 85.5451 91.652 86.4891 91.652H87.9771C87.9771 91.244 87.8531 90.932 87.6051 90.716C87.3571 90.492 86.9851 90.38 86.4891 90.38C86.1451 90.38 85.8051 90.436 85.4691 90.548C85.1411 90.652 84.8611 90.796 84.6291 90.98L83.9571 89.672C84.3091 89.424 84.7291 89.232 85.2171 89.096C85.7131 88.96 86.2211 88.892 86.7411 88.892ZM86.5971 94.28C86.9171 94.28 87.2011 94.208 87.4491 94.064C87.6971 93.912 87.8731 93.692 87.9771 93.404V92.744H86.6931C85.9251 92.744 85.5411 92.996 85.5411 93.5C85.5411 93.74 85.6331 93.932 85.8171 94.076C86.0091 94.212 86.2691 94.28 86.5971 94.28Z" fill="#585656"/>
<path d="M98.3018 95.54C97.6138 95.54 96.9938 95.4 96.4418 95.12C95.8978 94.832 95.4698 94.436 95.1578 93.932C94.8538 93.428 94.7018 92.856 94.7018 92.216C94.7018 91.576 94.8538 91.004 95.1578 90.5C95.4698 89.996 95.8978 89.604 96.4418 89.324C96.9938 89.036 97.6138 88.892 98.3018 88.892C98.9818 88.892 99.5738 89.036 100.078 89.324C100.59 89.604 100.962 90.008 101.194 90.536L99.7418 91.316C99.4058 90.724 98.9218 90.428 98.2898 90.428C97.8018 90.428 97.3978 90.588 97.0778 90.908C96.7578 91.228 96.5978 91.664 96.5978 92.216C96.5978 92.768 96.7578 93.204 97.0778 93.524C97.3978 93.844 97.8018 94.004 98.2898 94.004C98.9298 94.004 99.4138 93.708 99.7418 93.116L101.194 93.908C100.962 94.42 100.59 94.82 100.078 95.108C99.5738 95.396 98.9818 95.54 98.3018 95.54Z" fill="#585656"/>
<path d="M104.18 89.84C104.404 89.528 104.704 89.292 105.08 89.132C105.464 88.972 105.904 88.892 106.4 88.892V90.62C106.192 90.604 106.052 90.596 105.98 90.596C105.444 90.596 105.024 90.748 104.72 91.052C104.416 91.348 104.264 91.796 104.264 92.396V95.444H102.392V88.988H104.18V89.84Z" fill="#585656"/>
<path d="M113.898 92.24C113.898 92.264 113.886 92.432 113.862 92.744H108.978C109.066 93.144 109.274 93.46 109.602 93.692C109.93 93.924 110.338 94.04 110.826 94.04C111.162 94.04 111.458 93.992 111.714 93.896C111.978 93.792 112.222 93.632 112.446 93.416L113.442 94.496C112.834 95.192 111.946 95.54 110.778 95.54C110.05 95.54 109.406 95.4 108.846 95.12C108.286 94.832 107.854 94.436 107.55 93.932C107.246 93.428 107.094 92.856 107.094 92.216C107.094 91.584 107.242 91.016 107.538 90.512C107.842 90 108.254 89.604 108.774 89.324C109.302 89.036 109.89 88.892 110.538 88.892C111.17 88.892 111.742 89.028 112.254 89.3C112.766 89.572 113.166 89.964 113.454 90.476C113.75 90.98 113.898 91.568 113.898 92.24ZM110.55 90.308C110.126 90.308 109.77 90.428 109.482 90.668C109.194 90.908 109.018 91.236 108.954 91.652H112.134C112.07 91.244 111.894 90.92 111.606 90.68C111.318 90.432 110.966 90.308 110.55 90.308Z" fill="#585656"/>
<path d="M121.84 86.54V95.444H120.052V94.7C119.588 95.26 118.916 95.54 118.036 95.54C117.428 95.54 116.876 95.404 116.38 95.132C115.892 94.86 115.508 94.472 115.228 93.968C114.948 93.464 114.808 92.88 114.808 92.216C114.808 91.552 114.948 90.968 115.228 90.464C115.508 89.96 115.892 89.572 116.38 89.3C116.876 89.028 117.428 88.892 118.036 88.892C118.86 88.892 119.504 89.152 119.968 89.672V86.54H121.84ZM118.36 94.004C118.832 94.004 119.224 93.844 119.536 93.524C119.848 93.196 120.004 92.76 120.004 92.216C120.004 91.672 119.848 91.24 119.536 90.92C119.224 90.592 118.832 90.428 118.36 90.428C117.88 90.428 117.484 90.592 117.172 90.92C116.86 91.24 116.704 91.672 116.704 92.216C116.704 92.76 116.86 93.196 117.172 93.524C117.484 93.844 117.88 94.004 118.36 94.004Z" fill="#585656"/>
<path d="M123.693 88.988H125.565V95.444H123.693V88.988ZM124.629 88.088C124.285 88.088 124.005 87.988 123.789 87.788C123.573 87.588 123.465 87.34 123.465 87.044C123.465 86.748 123.573 86.5 123.789 86.3C124.005 86.1 124.285 86 124.629 86C124.973 86 125.253 86.096 125.469 86.288C125.685 86.48 125.793 86.72 125.793 87.008C125.793 87.32 125.685 87.58 125.469 87.788C125.253 87.988 124.973 88.088 124.629 88.088Z" fill="#585656"/>
<path d="M131.238 88.892C131.838 88.892 132.382 89.032 132.87 89.312C133.366 89.584 133.754 89.972 134.034 90.476C134.314 90.972 134.454 91.552 134.454 92.216C134.454 92.88 134.314 93.464 134.034 93.968C133.754 94.464 133.366 94.852 132.87 95.132C132.382 95.404 131.838 95.54 131.238 95.54C130.35 95.54 129.674 95.26 129.21 94.7V95.444H127.422V86.54H129.294V89.672C129.766 89.152 130.414 88.892 131.238 88.892ZM130.914 94.004C131.394 94.004 131.786 93.844 132.09 93.524C132.402 93.196 132.558 92.76 132.558 92.216C132.558 91.672 132.402 91.24 132.09 90.92C131.786 90.592 131.394 90.428 130.914 90.428C130.434 90.428 130.038 90.592 129.726 90.92C129.422 91.24 129.27 91.672 129.27 92.216C129.27 92.76 129.422 93.196 129.726 93.524C130.038 93.844 130.434 94.004 130.914 94.004Z" fill="#585656"/>
<path d="M135.828 86.54H137.7V95.444H135.828V86.54Z" fill="#585656"/>
<path d="M145.881 92.24C145.881 92.264 145.869 92.432 145.845 92.744H140.961C141.049 93.144 141.257 93.46 141.585 93.692C141.913 93.924 142.321 94.04 142.809 94.04C143.145 94.04 143.441 93.992 143.697 93.896C143.961 93.792 144.205 93.632 144.429 93.416L145.425 94.496C144.817 95.192 143.929 95.54 142.761 95.54C142.033 95.54 141.389 95.4 140.829 95.12C140.269 94.832 139.837 94.436 139.533 93.932C139.229 93.428 139.077 92.856 139.077 92.216C139.077 91.584 139.225 91.016 139.521 90.512C139.825 90 140.237 89.604 140.757 89.324C141.285 89.036 141.873 88.892 142.521 88.892C143.153 88.892 143.725 89.028 144.237 89.3C144.749 89.572 145.149 89.964 145.437 90.476C145.733 90.98 145.881 91.568 145.881 92.24ZM142.533 90.308C142.109 90.308 141.753 90.428 141.465 90.668C141.177 90.908 141.001 91.236 140.937 91.652H144.117C144.053 91.244 143.877 90.92 143.589 90.68C143.301 90.432 142.949 90.308 142.533 90.308Z" fill="#585656"/>
<path d="M150.766 88.988H152.638V95.444H150.766V88.988ZM151.702 88.088C151.358 88.088 151.078 87.988 150.862 87.788C150.646 87.588 150.538 87.34 150.538 87.044C150.538 86.748 150.646 86.5 150.862 86.3C151.078 86.1 151.358 86 151.702 86C152.046 86 152.326 86.096 152.542 86.288C152.758 86.48 152.866 86.72 152.866 87.008C152.866 87.32 152.758 87.58 152.542 87.788C152.326 87.988 152.046 88.088 151.702 88.088Z" fill="#585656"/>
<path d="M158.419 88.892C159.219 88.892 159.863 89.132 160.351 89.612C160.847 90.092 161.095 90.804 161.095 91.748V95.444H159.223V92.036C159.223 91.524 159.111 91.144 158.887 90.896C158.663 90.64 158.339 90.512 157.915 90.512C157.443 90.512 157.067 90.66 156.787 90.956C156.507 91.244 156.367 91.676 156.367 92.252V95.444H154.495V88.988H156.283V89.744C156.531 89.472 156.839 89.264 157.207 89.12C157.575 88.968 157.979 88.892 158.419 88.892Z" fill="#585656"/>
<path d="M165.084 95.54C164.548 95.54 164.024 95.476 163.512 95.348C163 95.212 162.592 95.044 162.288 94.844L162.912 93.5C163.2 93.684 163.548 93.836 163.956 93.956C164.364 94.068 164.764 94.124 165.156 94.124C165.948 94.124 166.344 93.928 166.344 93.536C166.344 93.352 166.236 93.22 166.02 93.14C165.804 93.06 165.472 92.992 165.024 92.936C164.496 92.856 164.06 92.764 163.716 92.66C163.372 92.556 163.072 92.372 162.816 92.108C162.568 91.844 162.444 91.468 162.444 90.98C162.444 90.572 162.56 90.212 162.792 89.9C163.032 89.58 163.376 89.332 163.824 89.156C164.28 88.98 164.816 88.892 165.432 88.892C165.888 88.892 166.34 88.944 166.788 89.048C167.244 89.144 167.62 89.28 167.916 89.456L167.292 90.788C166.724 90.468 166.104 90.308 165.432 90.308C165.032 90.308 164.732 90.364 164.532 90.476C164.332 90.588 164.232 90.732 164.232 90.908C164.232 91.108 164.34 91.248 164.556 91.328C164.772 91.408 165.116 91.484 165.588 91.556C166.116 91.644 166.548 91.74 166.884 91.844C167.22 91.94 167.512 92.12 167.76 92.384C168.008 92.648 168.132 93.016 168.132 93.488C168.132 93.888 168.012 94.244 167.772 94.556C167.532 94.868 167.18 95.112 166.716 95.288C166.26 95.456 165.716 95.54 165.084 95.54Z" fill="#585656"/>
<path d="M173.571 95.132C173.387 95.268 173.159 95.372 172.887 95.444C172.623 95.508 172.343 95.54 172.047 95.54C171.279 95.54 170.683 95.344 170.259 94.952C169.843 94.56 169.635 93.984 169.635 93.224V90.572H168.639V89.132H169.635V87.56H171.507V89.132H173.115V90.572H171.507V93.2C171.507 93.472 171.575 93.684 171.711 93.836C171.855 93.98 172.055 94.052 172.311 94.052C172.607 94.052 172.859 93.972 173.067 93.812L173.571 95.132Z" fill="#585656"/>
<path d="M174.742 88.988H176.614V95.444H174.742V88.988ZM175.678 88.088C175.334 88.088 175.054 87.988 174.838 87.788C174.622 87.588 174.514 87.34 174.514 87.044C174.514 86.748 174.622 86.5 174.838 86.3C175.054 86.1 175.334 86 175.678 86C176.022 86 176.302 86.096 176.518 86.288C176.734 86.48 176.842 86.72 176.842 87.008C176.842 87.32 176.734 87.58 176.518 87.788C176.302 87.988 176.022 88.088 175.678 88.088Z" fill="#585656"/>
<path d="M182.635 95.132C182.451 95.268 182.223 95.372 181.951 95.444C181.687 95.508 181.407 95.54 181.111 95.54C180.343 95.54 179.747 95.344 179.323 94.952C178.907 94.56 178.699 93.984 178.699 93.224V90.572H177.703V89.132H178.699V87.56H180.571V89.132H182.179V90.572H180.571V93.2C180.571 93.472 180.639 93.684 180.775 93.836C180.919 93.98 181.119 94.052 181.375 94.052C181.671 94.052 181.923 93.972 182.131 93.812L182.635 95.132Z" fill="#585656"/>
<path d="M190.31 88.988V95.444H188.534V94.676C188.286 94.956 187.99 95.172 187.646 95.324C187.302 95.468 186.93 95.54 186.53 95.54C185.682 95.54 185.01 95.296 184.514 94.808C184.018 94.32 183.77 93.596 183.77 92.636V88.988H185.642V92.36C185.642 93.4 186.078 93.92 186.95 93.92C187.398 93.92 187.758 93.776 188.03 93.488C188.302 93.192 188.438 92.756 188.438 92.18V88.988H190.31Z" fill="#585656"/>
<path d="M196.328 95.132C196.144 95.268 195.916 95.372 195.644 95.444C195.38 95.508 195.1 95.54 194.804 95.54C194.036 95.54 193.44 95.344 193.016 94.952C192.6 94.56 192.392 93.984 192.392 93.224V90.572H191.396V89.132H192.392V87.56H194.264V89.132H195.872V90.572H194.264V93.2C194.264 93.472 194.332 93.684 194.468 93.836C194.612 93.98 194.812 94.052 195.068 94.052C195.364 94.052 195.616 93.972 195.824 93.812L196.328 95.132Z" fill="#585656"/>
<path d="M197.499 88.988H199.371V95.444H197.499V88.988ZM198.435 88.088C198.091 88.088 197.811 87.988 197.595 87.788C197.379 87.588 197.271 87.34 197.271 87.044C197.271 86.748 197.379 86.5 197.595 86.3C197.811 86.1 198.091 86 198.435 86C198.779 86 199.059 86.096 199.275 86.288C199.491 86.48 199.599 86.72 199.599 87.008C199.599 87.32 199.491 87.58 199.275 87.788C199.059 87.988 198.779 88.088 198.435 88.088Z" fill="#585656"/>
<path d="M204.301 95.54C203.621 95.54 203.009 95.4 202.465 95.12C201.929 94.832 201.509 94.436 201.205 93.932C200.901 93.428 200.749 92.856 200.749 92.216C200.749 91.576 200.901 91.004 201.205 90.5C201.509 89.996 201.929 89.604 202.465 89.324C203.009 89.036 203.621 88.892 204.301 88.892C204.981 88.892 205.589 89.036 206.125 89.324C206.661 89.604 207.081 89.996 207.385 90.5C207.689 91.004 207.841 91.576 207.841 92.216C207.841 92.856 207.689 93.428 207.385 93.932C207.081 94.436 206.661 94.832 206.125 95.12C205.589 95.4 204.981 95.54 204.301 95.54ZM204.301 94.004C204.781 94.004 205.173 93.844 205.477 93.524C205.789 93.196 205.945 92.76 205.945 92.216C205.945 91.672 205.789 91.24 205.477 90.92C205.173 90.592 204.781 90.428 204.301 90.428C203.821 90.428 203.425 90.592 203.113 90.92C202.801 91.24 202.645 91.672 202.645 92.216C202.645 92.76 202.801 93.196 203.113 93.524C203.425 93.844 203.821 94.004 204.301 94.004Z" fill="#585656"/>
<path d="M213.136 88.892C213.936 88.892 214.58 89.132 215.068 89.612C215.564 90.092 215.812 90.804 215.812 91.748V95.444H213.94V92.036C213.94 91.524 213.828 91.144 213.604 90.896C213.38 90.64 213.056 90.512 212.632 90.512C212.16 90.512 211.784 90.66 211.504 90.956C211.224 91.244 211.084 91.676 211.084 92.252V95.444H209.212V88.988H211V89.744C211.248 89.472 211.556 89.264 211.924 89.12C212.292 88.968 212.696 88.892 213.136 88.892Z" fill="#585656"/>
<path d="M220.233 88.892C221.233 88.892 222.001 89.132 222.537 89.612C223.073 90.084 223.341 90.8 223.341 91.76V95.444H221.589V94.64C221.237 95.24 220.581 95.54 219.621 95.54C219.125 95.54 218.693 95.456 218.325 95.288C217.965 95.12 217.689 94.888 217.497 94.592C217.305 94.296 217.209 93.96 217.209 93.584C217.209 92.984 217.433 92.512 217.881 92.168C218.337 91.824 219.037 91.652 219.981 91.652H221.469C221.469 91.244 221.345 90.932 221.097 90.716C220.849 90.492 220.477 90.38 219.981 90.38C219.637 90.38 219.297 90.436 218.961 90.548C218.633 90.652 218.353 90.796 218.121 90.98L217.449 89.672C217.801 89.424 218.221 89.232 218.709 89.096C219.205 88.96 219.713 88.892 220.233 88.892ZM220.089 94.28C220.409 94.28 220.693 94.208 220.941 94.064C221.189 93.912 221.365 93.692 221.469 93.404V92.744H220.185C219.417 92.744 219.033 92.996 219.033 93.5C219.033 93.74 219.125 93.932 219.309 94.076C219.501 94.212 219.761 94.28 220.089 94.28Z" fill="#585656"/>
<path d="M225.155 86.54H227.027V95.444H225.155V86.54Z" fill="#585656"/>
<path d="M240.671 88.892C241.479 88.892 242.119 89.132 242.591 89.612C243.071 90.084 243.311 90.796 243.311 91.748V95.444H241.439V92.036C241.439 91.524 241.331 91.144 241.115 90.896C240.907 90.64 240.607 90.512 240.215 90.512C239.775 90.512 239.427 90.656 239.171 90.944C238.915 91.224 238.787 91.644 238.787 92.204V95.444H236.915V92.036C236.915 91.02 236.507 90.512 235.691 90.512C235.259 90.512 234.915 90.656 234.659 90.944C234.403 91.224 234.275 91.644 234.275 92.204V95.444H232.403V88.988H234.191V89.732C234.431 89.46 234.723 89.252 235.067 89.108C235.419 88.964 235.803 88.892 236.219 88.892C236.675 88.892 237.087 88.984 237.455 89.168C237.823 89.344 238.119 89.604 238.343 89.948C238.607 89.612 238.939 89.352 239.339 89.168C239.747 88.984 240.191 88.892 240.671 88.892Z" fill="#585656"/>
<path d="M251.503 92.24C251.503 92.264 251.491 92.432 251.467 92.744H246.583C246.671 93.144 246.879 93.46 247.207 93.692C247.535 93.924 247.943 94.04 248.431 94.04C248.767 94.04 249.063 93.992 249.319 93.896C249.583 93.792 249.827 93.632 250.051 93.416L251.047 94.496C250.439 95.192 249.551 95.54 248.383 95.54C247.655 95.54 247.011 95.4 246.451 95.12C245.891 94.832 245.459 94.436 245.155 93.932C244.851 93.428 244.699 92.856 244.699 92.216C244.699 91.584 244.847 91.016 245.143 90.512C245.447 90 245.859 89.604 246.379 89.324C246.907 89.036 247.495 88.892 248.143 88.892C248.775 88.892 249.347 89.028 249.859 89.3C250.371 89.572 250.771 89.964 251.059 90.476C251.355 90.98 251.503 91.568 251.503 92.24ZM248.155 90.308C247.731 90.308 247.375 90.428 247.087 90.668C246.799 90.908 246.623 91.236 246.559 91.652H249.739C249.675 91.244 249.499 90.92 249.211 90.68C248.923 90.432 248.571 90.308 248.155 90.308Z" fill="#585656"/>
<path d="M255.989 95.54C255.301 95.54 254.681 95.4 254.129 95.12C253.585 94.832 253.157 94.436 252.845 93.932C252.541 93.428 252.389 92.856 252.389 92.216C252.389 91.576 252.541 91.004 252.845 90.5C253.157 89.996 253.585 89.604 254.129 89.324C254.681 89.036 255.301 88.892 255.989 88.892C256.669 88.892 257.261 89.036 257.765 89.324C258.277 89.604 258.649 90.008 258.881 90.536L257.429 91.316C257.093 90.724 256.609 90.428 255.977 90.428C255.489 90.428 255.085 90.588 254.765 90.908C254.445 91.228 254.285 91.664 254.285 92.216C254.285 92.768 254.445 93.204 254.765 93.524C255.085 93.844 255.489 94.004 255.977 94.004C256.617 94.004 257.101 93.708 257.429 93.116L258.881 93.908C258.649 94.42 258.277 94.82 257.765 95.108C257.261 95.396 256.669 95.54 255.989 95.54Z" fill="#585656"/>
<path d="M263.956 88.892C264.756 88.892 265.4 89.132 265.888 89.612C266.384 90.092 266.632 90.804 266.632 91.748V95.444H264.76V92.036C264.76 91.524 264.648 91.144 264.424 90.896C264.2 90.64 263.876 90.512 263.452 90.512C262.98 90.512 262.604 90.66 262.324 90.956C262.044 91.244 261.904 91.676 261.904 92.252V95.444H260.032V86.54H261.904V89.66C262.152 89.412 262.452 89.224 262.804 89.096C263.156 88.96 263.54 88.892 263.956 88.892Z" fill="#585656"/>
<path d="M271.053 88.892C272.053 88.892 272.821 89.132 273.357 89.612C273.893 90.084 274.161 90.8 274.161 91.76V95.444H272.409V94.64C272.057 95.24 271.401 95.54 270.441 95.54C269.945 95.54 269.513 95.456 269.145 95.288C268.785 95.12 268.509 94.888 268.317 94.592C268.125 94.296 268.029 93.96 268.029 93.584C268.029 92.984 268.253 92.512 268.701 92.168C269.157 91.824 269.857 91.652 270.801 91.652H272.289C272.289 91.244 272.165 90.932 271.917 90.716C271.669 90.492 271.297 90.38 270.801 90.38C270.457 90.38 270.117 90.436 269.781 90.548C269.453 90.652 269.173 90.796 268.941 90.98L268.269 89.672C268.621 89.424 269.041 89.232 269.529 89.096C270.025 88.96 270.533 88.892 271.053 88.892ZM270.909 94.28C271.229 94.28 271.513 94.208 271.761 94.064C272.009 93.912 272.185 93.692 272.289 93.404V92.744H271.005C270.237 92.744 269.853 92.996 269.853 93.5C269.853 93.74 269.945 93.932 270.129 94.076C270.321 94.212 270.581 94.28 270.909 94.28Z" fill="#585656"/>
<path d="M279.899 88.892C280.699 88.892 281.343 89.132 281.831 89.612C282.327 90.092 282.575 90.804 282.575 91.748V95.444H280.703V92.036C280.703 91.524 280.591 91.144 280.367 90.896C280.143 90.64 279.819 90.512 279.395 90.512C278.923 90.512 278.547 90.66 278.267 90.956C277.987 91.244 277.847 91.676 277.847 92.252V95.444H275.975V88.988H277.763V89.744C278.011 89.472 278.319 89.264 278.687 89.12C279.055 88.968 279.459 88.892 279.899 88.892Z" fill="#585656"/>
<path d="M284.392 88.988H286.264V95.444H284.392V88.988ZM285.328 88.088C284.984 88.088 284.704 87.988 284.488 87.788C284.272 87.588 284.164 87.34 284.164 87.044C284.164 86.748 284.272 86.5 284.488 86.3C284.704 86.1 284.984 86 285.328 86C285.672 86 285.952 86.096 286.168 86.288C286.384 86.48 286.492 86.72 286.492 87.008C286.492 87.32 286.384 87.58 286.168 87.788C285.952 87.988 285.672 88.088 285.328 88.088Z" fill="#585656"/>
<path d="M290.294 95.54C289.758 95.54 289.234 95.476 288.722 95.348C288.21 95.212 287.802 95.044 287.498 94.844L288.122 93.5C288.41 93.684 288.758 93.836 289.166 93.956C289.574 94.068 289.974 94.124 290.366 94.124C291.158 94.124 291.554 93.928 291.554 93.536C291.554 93.352 291.446 93.22 291.23 93.14C291.014 93.06 290.682 92.992 290.234 92.936C289.706 92.856 289.27 92.764 288.926 92.66C288.582 92.556 288.282 92.372 288.026 92.108C287.778 91.844 287.654 91.468 287.654 90.98C287.654 90.572 287.77 90.212 288.002 89.9C288.242 89.58 288.586 89.332 289.034 89.156C289.49 88.98 290.026 88.892 290.642 88.892C291.098 88.892 291.55 88.944 291.998 89.048C292.454 89.144 292.83 89.28 293.126 89.456L292.502 90.788C291.934 90.468 291.314 90.308 290.642 90.308C290.242 90.308 289.942 90.364 289.742 90.476C289.542 90.588 289.442 90.732 289.442 90.908C289.442 91.108 289.55 91.248 289.766 91.328C289.982 91.408 290.326 91.484 290.798 91.556C291.326 91.644 291.758 91.74 292.094 91.844C292.43 91.94 292.722 92.12 292.97 92.384C293.218 92.648 293.342 93.016 293.342 93.488C293.342 93.888 293.222 94.244 292.982 94.556C292.742 94.868 292.39 95.112 291.926 95.288C291.47 95.456 290.926 95.54 290.294 95.54Z" fill="#585656"/>
<path d="M302.885 88.892C303.693 88.892 304.333 89.132 304.805 89.612C305.285 90.084 305.525 90.796 305.525 91.748V95.444H303.653V92.036C303.653 91.524 303.545 91.144 303.329 90.896C303.121 90.64 302.821 90.512 302.429 90.512C301.989 90.512 301.641 90.656 301.385 90.944C301.129 91.224 301.001 91.644 301.001 92.204V95.444H299.129V92.036C299.129 91.02 298.721 90.512 297.905 90.512C297.473 90.512 297.129 90.656 296.873 90.944C296.617 91.224 296.489 91.644 296.489 92.204V95.444H294.617V88.988H296.405V89.732C296.645 89.46 296.937 89.252 297.281 89.108C297.633 88.964 298.017 88.892 298.433 88.892C298.889 88.892 299.301 88.984 299.669 89.168C300.037 89.344 300.333 89.604 300.557 89.948C300.821 89.612 301.153 89.352 301.553 89.168C301.961 88.984 302.405 88.892 302.885 88.892Z" fill="#585656"/>
<path d="M312.893 89.132H314.549V90.572H312.941V95.444H311.069V90.572H310.073V89.132H311.069V88.844C311.069 88.108 311.285 87.524 311.717 87.092C312.157 86.66 312.773 86.444 313.565 86.444C313.845 86.444 314.109 86.476 314.357 86.54C314.613 86.596 314.825 86.68 314.993 86.792L314.501 88.148C314.285 87.996 314.033 87.92 313.745 87.92C313.177 87.92 312.893 88.232 312.893 88.856V89.132Z" fill="#585656"/>
<path d="M318.592 95.54C317.912 95.54 317.3 95.4 316.756 95.12C316.22 94.832 315.8 94.436 315.496 93.932C315.192 93.428 315.04 92.856 315.04 92.216C315.04 91.576 315.192 91.004 315.496 90.5C315.8 89.996 316.22 89.604 316.756 89.324C317.3 89.036 317.912 88.892 318.592 88.892C319.272 88.892 319.88 89.036 320.416 89.324C320.952 89.604 321.372 89.996 321.676 90.5C321.98 91.004 322.132 91.576 322.132 92.216C322.132 92.856 321.98 93.428 321.676 93.932C321.372 94.436 320.952 94.832 320.416 95.12C319.88 95.4 319.272 95.54 318.592 95.54ZM318.592 94.004C319.072 94.004 319.464 93.844 319.768 93.524C320.08 93.196 320.236 92.76 320.236 92.216C320.236 91.672 320.08 91.24 319.768 90.92C319.464 90.592 319.072 90.428 318.592 90.428C318.112 90.428 317.716 90.592 317.404 90.92C317.092 91.24 316.936 91.672 316.936 92.216C316.936 92.76 317.092 93.196 317.404 93.524C317.716 93.844 318.112 94.004 318.592 94.004Z" fill="#585656"/>
<path d="M325.291 89.84C325.515 89.528 325.815 89.292 326.191 89.132C326.575 88.972 327.015 88.892 327.511 88.892V90.62C327.303 90.604 327.163 90.596 327.091 90.596C326.555 90.596 326.135 90.748 325.831 91.052C325.527 91.348 325.375 91.796 325.375 92.396V95.444H323.503V88.988H325.291V89.84Z" fill="#585656"/>
<path d="M3.796 115.54C3.26 115.54 2.736 115.476 2.224 115.348C1.712 115.212 1.304 115.044 1 114.844L1.624 113.5C1.912 113.684 2.26 113.836 2.668 113.956C3.076 114.068 3.476 114.124 3.868 114.124C4.66 114.124 5.056 113.928 5.056 113.536C5.056 113.352 4.948 113.22 4.732 113.14C4.516 113.06 4.184 112.992 3.736 112.936C3.208 112.856 2.772 112.764 2.428 112.66C2.084 112.556 1.784 112.372 1.528 112.108C1.28 111.844 1.156 111.468 1.156 110.98C1.156 110.572 1.272 110.212 1.504 109.9C1.744 109.58 2.088 109.332 2.536 109.156C2.992 108.98 3.528 108.892 4.144 108.892C4.6 108.892 5.052 108.944 5.5 109.048C5.956 109.144 6.332 109.28 6.628 109.456L6.004 110.788C5.436 110.468 4.816 110.308 4.144 110.308C3.744 110.308 3.444 110.364 3.244 110.476C3.044 110.588 2.944 110.732 2.944 110.908C2.944 111.108 3.052 111.248 3.268 111.328C3.484 111.408 3.828 111.484 4.3 111.556C4.828 111.644 5.26 111.74 5.596 111.844C5.932 111.94 6.224 112.12 6.472 112.384C6.72 112.648 6.844 113.016 6.844 113.488C6.844 113.888 6.724 114.244 6.484 114.556C6.244 114.868 5.892 115.112 5.428 115.288C4.972 115.456 4.428 115.54 3.796 115.54Z" fill="#585656"/>
<path d="M10.891 112.912L9.991 113.8V115.444H8.119V106.54H9.991V111.58L12.727 108.988H14.959L12.271 111.724L15.199 115.444H12.931L10.891 112.912Z" fill="#585656"/>
<path d="M16.114 108.988H17.986V115.444H16.114V108.988ZM17.05 108.088C16.706 108.088 16.426 107.988 16.21 107.788C15.994 107.588 15.886 107.34 15.886 107.044C15.886 106.748 15.994 106.5 16.21 106.3C16.426 106.1 16.706 106 17.05 106C17.394 106 17.674 106.096 17.89 106.288C18.106 106.48 18.214 106.72 18.214 107.008C18.214 107.32 18.106 107.58 17.89 107.788C17.674 107.988 17.394 108.088 17.05 108.088Z" fill="#585656"/>
<path d="M19.8434 106.54H21.7154V115.444H19.8434V106.54Z" fill="#585656"/>
<path d="M23.5728 106.54H25.4447V115.444H23.5728V106.54Z" fill="#585656"/>
<path d="M29.4741 115.54C28.9381 115.54 28.4141 115.476 27.9021 115.348C27.3901 115.212 26.9821 115.044 26.6781 114.844L27.3021 113.5C27.5901 113.684 27.9381 113.836 28.3461 113.956C28.7541 114.068 29.1541 114.124 29.5461 114.124C30.3381 114.124 30.7341 113.928 30.7341 113.536C30.7341 113.352 30.6261 113.22 30.4101 113.14C30.1941 113.06 29.8621 112.992 29.4141 112.936C28.8861 112.856 28.4501 112.764 28.1061 112.66C27.7621 112.556 27.4621 112.372 27.2061 112.108C26.9581 111.844 26.8341 111.468 26.8341 110.98C26.8341 110.572 26.9501 110.212 27.1821 109.9C27.4221 109.58 27.7661 109.332 28.2141 109.156C28.6701 108.98 29.2061 108.892 29.8221 108.892C30.2781 108.892 30.7301 108.944 31.1781 109.048C31.6341 109.144 32.0101 109.28 32.3061 109.456L31.6821 110.788C31.1141 110.468 30.4941 110.308 29.8221 110.308C29.4221 110.308 29.1221 110.364 28.9221 110.476C28.7221 110.588 28.6221 110.732 28.6221 110.908C28.6221 111.108 28.7301 111.248 28.9461 111.328C29.1621 111.408 29.5061 111.484 29.9781 111.556C30.5061 111.644 30.9381 111.74 31.2741 111.844C31.6101 111.94 31.9021 112.12 32.1501 112.384C32.3981 112.648 32.5221 113.016 32.5221 113.488C32.5221 113.888 32.4021 114.244 32.1621 114.556C31.9221 114.868 31.5701 115.112 31.1061 115.288C30.6501 115.456 30.1061 115.54 29.4741 115.54Z" fill="#585656"/>
<path d="M41.1316 108.892C41.7316 108.892 42.2756 109.032 42.7636 109.312C43.2596 109.584 43.6476 109.972 43.9276 110.476C44.2076 110.972 44.3476 111.552 44.3476 112.216C44.3476 112.88 44.2076 113.464 43.9276 113.968C43.6476 114.464 43.2596 114.852 42.7636 115.132C42.2756 115.404 41.7316 115.54 41.1316 115.54C40.3076 115.54 39.6596 115.28 39.1876 114.76V117.772H37.3156V108.988H39.1036V109.732C39.5676 109.172 40.2436 108.892 41.1316 108.892ZM40.8076 114.004C41.2876 114.004 41.6796 113.844 41.9836 113.524C42.2956 113.196 42.4516 112.76 42.4516 112.216C42.4516 111.672 42.2956 111.24 41.9836 110.92C41.6796 110.592 41.2876 110.428 40.8076 110.428C40.3276 110.428 39.9316 110.592 39.6196 110.92C39.3156 111.24 39.1636 111.672 39.1636 112.216C39.1636 112.76 39.3156 113.196 39.6196 113.524C39.9316 113.844 40.3276 114.004 40.8076 114.004Z" fill="#585656"/>
<path d="M45.7207 106.54H47.5927V115.444H45.7207V106.54Z" fill="#585656"/>
<path d="M52.0541 108.892C53.0541 108.892 53.8221 109.132 54.3581 109.612C54.8941 110.084 55.1621 110.8 55.1621 111.76V115.444H53.4101V114.64C53.0581 115.24 52.4021 115.54 51.4421 115.54C50.9461 115.54 50.5141 115.456 50.1461 115.288C49.7861 115.12 49.5101 114.888 49.3181 114.592C49.1261 114.296 49.0301 113.96 49.0301 113.584C49.0301 112.984 49.2541 112.512 49.7021 112.168C50.1581 111.824 50.8581 111.652 51.8021 111.652H53.2901C53.2901 111.244 53.1661 110.932 52.9181 110.716C52.6701 110.492 52.2981 110.38 51.8021 110.38C51.4581 110.38 51.1181 110.436 50.7821 110.548C50.4541 110.652 50.1741 110.796 49.9421 110.98L49.2701 109.672C49.6221 109.424 50.0421 109.232 50.5301 109.096C51.0261 108.96 51.5341 108.892 52.0541 108.892ZM51.9101 114.28C52.2301 114.28 52.5141 114.208 52.7621 114.064C53.0101 113.912 53.1861 113.692 53.2901 113.404V112.744H52.0061C51.2381 112.744 50.8541 112.996 50.8541 113.5C50.8541 113.74 50.9461 113.932 51.1301 114.076C51.3221 114.212 51.5821 114.28 51.9101 114.28Z" fill="#585656"/>
<path d="M60.9003 108.892C61.7003 108.892 62.3443 109.132 62.8323 109.612C63.3283 110.092 63.5763 110.804 63.5763 111.748V115.444H61.7043V112.036C61.7043 111.524 61.5923 111.144 61.3683 110.896C61.1443 110.64 60.8203 110.512 60.3963 110.512C59.9243 110.512 59.5483 110.66 59.2683 110.956C58.9883 111.244 58.8483 111.676 58.8483 112.252V115.444H56.9763V108.988H58.7643V109.744C59.0123 109.472 59.3203 109.264 59.6883 109.12C60.0563 108.968 60.4603 108.892 60.9003 108.892Z" fill="#585656"/>
<path d="M69.3172 108.892C70.1172 108.892 70.7612 109.132 71.2492 109.612C71.7452 110.092 71.9932 110.804 71.9932 111.748V115.444H70.1212V112.036C70.1212 111.524 70.0092 111.144 69.7852 110.896C69.5612 110.64 69.2372 110.512 68.8132 110.512C68.3412 110.512 67.9652 110.66 67.6852 110.956C67.4052 111.244 67.2652 111.676 67.2652 112.252V115.444H65.3932V108.988H67.1812V109.744C67.4292 109.472 67.7372 109.264 68.1052 109.12C68.4732 108.968 68.8772 108.892 69.3172 108.892Z" fill="#585656"/>
<path d="M73.8101 108.988H75.6821V115.444H73.8101V108.988ZM74.7461 108.088C74.4021 108.088 74.1221 107.988 73.9061 107.788C73.6901 107.588 73.5821 107.34 73.5821 107.044C73.5821 106.748 73.6901 106.5 73.9061 106.3C74.1221 106.1 74.4021 106 74.7461 106C75.0901 106 75.3701 106.096 75.5861 106.288C75.8021 106.48 75.9101 106.72 75.9101 107.008C75.9101 107.32 75.8021 107.58 75.5861 107.788C75.3701 107.988 75.0901 108.088 74.7461 108.088Z" fill="#585656"/>
<path d="M81.4635 108.892C82.2635 108.892 82.9075 109.132 83.3955 109.612C83.8915 110.092 84.1395 110.804 84.1395 111.748V115.444H82.2675V112.036C82.2675 111.524 82.1555 111.144 81.9315 110.896C81.7075 110.64 81.3835 110.512 80.9595 110.512C80.4875 110.512 80.1115 110.66 79.8315 110.956C79.5515 111.244 79.4115 111.676 79.4115 112.252V115.444H77.5395V108.988H79.3275V109.744C79.5755 109.472 79.8835 109.264 80.2515 109.12C80.6195 108.968 81.0235 108.892 81.4635 108.892Z" fill="#585656"/>
<path d="M92.6867 108.988V114.364C92.6867 115.548 92.3787 116.428 91.7627 117.004C91.1467 117.58 90.2467 117.868 89.0627 117.868C88.4387 117.868 87.8467 117.792 87.2867 117.64C86.7267 117.488 86.2627 117.268 85.8947 116.98L86.6387 115.636C86.9107 115.86 87.2547 116.036 87.6707 116.164C88.0867 116.3 88.5027 116.368 88.9187 116.368C89.5667 116.368 90.0427 116.22 90.3467 115.924C90.6587 115.636 90.8147 115.196 90.8147 114.604V114.328C90.3267 114.864 89.6467 115.132 88.7747 115.132C88.1827 115.132 87.6387 115.004 87.1427 114.748C86.6547 114.484 86.2667 114.116 85.9787 113.644C85.6907 113.172 85.5467 112.628 85.5467 112.012C85.5467 111.396 85.6907 110.852 85.9787 110.38C86.2667 109.908 86.6547 109.544 87.1427 109.288C87.6387 109.024 88.1827 108.892 88.7747 108.892C89.7107 108.892 90.4227 109.2 90.9107 109.816V108.988H92.6867ZM89.1467 113.596C89.6427 113.596 90.0467 113.452 90.3587 113.164C90.6787 112.868 90.8387 112.484 90.8387 112.012C90.8387 111.54 90.6787 111.16 90.3587 110.872C90.0467 110.576 89.6427 110.428 89.1467 110.428C88.6507 110.428 88.2427 110.576 87.9227 110.872C87.6027 111.16 87.4427 111.54 87.4427 112.012C87.4427 112.484 87.6027 112.868 87.9227 113.164C88.2427 113.452 88.6507 113.596 89.1467 113.596Z" fill="#585656"/>
<path d="M98.0674 108.988H99.9394V115.444H98.0674V108.988ZM99.0034 108.088C98.6594 108.088 98.3794 107.988 98.1634 107.788C97.9474 107.588 97.8394 107.34 97.8394 107.044C97.8394 106.748 97.9474 106.5 98.1634 106.3C98.3794 106.1 98.6594 106 99.0034 106C99.3474 106 99.6274 106.096 99.8434 106.288C100.059 106.48 100.167 106.72 100.167 107.008C100.167 107.32 100.059 107.58 99.8434 107.788C99.6274 107.988 99.3474 108.088 99.0034 108.088Z" fill="#585656"/>
<path d="M105.721 108.892C106.521 108.892 107.165 109.132 107.653 109.612C108.149 110.092 108.397 110.804 108.397 111.748V115.444H106.525V112.036C106.525 111.524 106.413 111.144 106.189 110.896C105.965 110.64 105.641 110.512 105.217 110.512C104.745 110.512 104.369 110.66 104.089 110.956C103.809 111.244 103.669 111.676 103.669 112.252V115.444H101.797V108.988H103.585V109.744C103.833 109.472 104.141 109.264 104.509 109.12C104.877 108.968 105.281 108.892 105.721 108.892Z" fill="#585656"/>
<path d="M116.624 115.588C115.96 115.588 115.316 115.5 114.692 115.324C114.076 115.14 113.58 114.904 113.204 114.616L113.864 113.152C114.224 113.416 114.652 113.628 115.148 113.788C115.644 113.948 116.14 114.028 116.636 114.028C117.188 114.028 117.596 113.948 117.86 113.788C118.124 113.62 118.256 113.4 118.256 113.128C118.256 112.928 118.176 112.764 118.016 112.636C117.864 112.5 117.664 112.392 117.416 112.312C117.176 112.232 116.848 112.144 116.432 112.048C115.792 111.896 115.268 111.744 114.86 111.592C114.452 111.44 114.1 111.196 113.804 110.86C113.516 110.524 113.372 110.076 113.372 109.516C113.372 109.028 113.504 108.588 113.768 108.196C114.032 107.796 114.428 107.48 114.956 107.248C115.492 107.016 116.144 106.9 116.912 106.9C117.448 106.9 117.972 106.964 118.484 107.092C118.996 107.22 119.444 107.404 119.828 107.644L119.228 109.12C118.452 108.68 117.676 108.46 116.9 108.46C116.356 108.46 115.952 108.548 115.688 108.724C115.432 108.9 115.304 109.132 115.304 109.42C115.304 109.708 115.452 109.924 115.748 110.068C116.052 110.204 116.512 110.34 117.128 110.476C117.768 110.628 118.292 110.78 118.7 110.932C119.108 111.084 119.456 111.324 119.744 111.652C120.04 111.98 120.188 112.424 120.188 112.984C120.188 113.464 120.052 113.904 119.78 114.304C119.516 114.696 119.116 115.008 118.58 115.24C118.044 115.472 117.392 115.588 116.624 115.588Z" fill="#585656"/>
<path d="M124.576 115.54C123.896 115.54 123.284 115.4 122.74 115.12C122.204 114.832 121.784 114.436 121.48 113.932C121.176 113.428 121.024 112.856 121.024 112.216C121.024 111.576 121.176 111.004 121.48 110.5C121.784 109.996 122.204 109.604 122.74 109.324C123.284 109.036 123.896 108.892 124.576 108.892C125.256 108.892 125.864 109.036 126.4 109.324C126.936 109.604 127.356 109.996 127.66 110.5C127.964 111.004 128.116 111.576 128.116 112.216C128.116 112.856 127.964 113.428 127.66 113.932C127.356 114.436 126.936 114.832 126.4 115.12C125.864 115.4 125.256 115.54 124.576 115.54ZM124.576 114.004C125.056 114.004 125.448 113.844 125.752 113.524C126.064 113.196 126.22 112.76 126.22 112.216C126.22 111.672 126.064 111.24 125.752 110.92C125.448 110.592 125.056 110.428 124.576 110.428C124.096 110.428 123.7 110.592 123.388 110.92C123.076 111.24 122.92 111.672 122.92 112.216C122.92 112.76 123.076 113.196 123.388 113.524C123.7 113.844 124.096 114.004 124.576 114.004Z" fill="#585656"/>
<path d="M135.992 108.988V115.444H134.216V114.676C133.968 114.956 133.672 115.172 133.328 115.324C132.984 115.468 132.612 115.54 132.212 115.54C131.364 115.54 130.692 115.296 130.196 114.808C129.7 114.32 129.452 113.596 129.452 112.636V108.988H131.324V112.36C131.324 113.4 131.76 113.92 132.632 113.92C133.08 113.92 133.44 113.776 133.712 113.488C133.984 113.192 134.12 112.756 134.12 112.18V108.988H135.992Z" fill="#585656"/>
<path d="M142.01 115.132C141.826 115.268 141.598 115.372 141.326 115.444C141.062 115.508 140.782 115.54 140.486 115.54C139.718 115.54 139.122 115.344 138.698 114.952C138.282 114.56 138.074 113.984 138.074 113.224V110.572H137.078V109.132H138.074V107.56H139.946V109.132H141.554V110.572H139.946V113.2C139.946 113.472 140.014 113.684 140.15 113.836C140.294 113.98 140.494 114.052 140.75 114.052C141.046 114.052 141.298 113.972 141.506 113.812L142.01 115.132Z" fill="#585656"/>
<path d="M147.105 108.892C147.905 108.892 148.549 109.132 149.037 109.612C149.533 110.092 149.781 110.804 149.781 111.748V115.444H147.909V112.036C147.909 111.524 147.797 111.144 147.573 110.896C147.349 110.64 147.025 110.512 146.601 110.512C146.129 110.512 145.753 110.66 145.473 110.956C145.193 111.244 145.053 111.676 145.053 112.252V115.444H143.181V106.54H145.053V109.66C145.301 109.412 145.601 109.224 145.953 109.096C146.305 108.96 146.689 108.892 147.105 108.892Z" fill="#585656"/>
<path d="M160.78 113.644H156.88L156.136 115.444H154.144L157.888 107.044H159.808L163.564 115.444H161.524L160.78 113.644ZM160.168 112.168L158.836 108.952L157.504 112.168H160.168Z" fill="#585656"/>
<path d="M166.476 109.132H168.132V110.572H166.524V115.444H164.652V110.572H163.656V109.132H164.652V108.844C164.652 108.108 164.868 107.524 165.3 107.092C165.74 106.66 166.356 106.444 167.148 106.444C167.428 106.444 167.692 106.476 167.94 106.54C168.196 106.596 168.408 106.68 168.576 106.792L168.084 108.148C167.868 107.996 167.616 107.92 167.328 107.92C166.76 107.92 166.476 108.232 166.476 108.856V109.132Z" fill="#585656"/>
<path d="M171.933 109.84C172.157 109.528 172.457 109.292 172.833 109.132C173.217 108.972 173.657 108.892 174.153 108.892V110.62C173.945 110.604 173.805 110.596 173.733 110.596C173.197 110.596 172.777 110.748 172.473 111.052C172.169 111.348 172.017 111.796 172.017 112.396V115.444H170.145V108.988H171.933V109.84Z" fill="#585656"/>
<path d="M175.386 108.988H177.258V115.444H175.386V108.988ZM176.322 108.088C175.978 108.088 175.698 107.988 175.482 107.788C175.266 107.588 175.158 107.34 175.158 107.044C175.158 106.748 175.266 106.5 175.482 106.3C175.698 106.1 175.978 106 176.322 106C176.666 106 176.946 106.096 177.162 106.288C177.378 106.48 177.486 106.72 177.486 107.008C177.486 107.32 177.378 107.58 177.162 107.788C176.946 107.988 176.666 108.088 176.322 108.088Z" fill="#585656"/>
<path d="M182.236 115.54C181.548 115.54 180.928 115.4 180.376 115.12C179.832 114.832 179.404 114.436 179.092 113.932C178.788 113.428 178.636 112.856 178.636 112.216C178.636 111.576 178.788 111.004 179.092 110.5C179.404 109.996 179.832 109.604 180.376 109.324C180.928 109.036 181.548 108.892 182.236 108.892C182.916 108.892 183.508 109.036 184.012 109.324C184.524 109.604 184.896 110.008 185.128 110.536L183.676 111.316C183.34 110.724 182.856 110.428 182.224 110.428C181.736 110.428 181.332 110.588 181.012 110.908C180.692 111.228 180.532 111.664 180.532 112.216C180.532 112.768 180.692 113.204 181.012 113.524C181.332 113.844 181.736 114.004 182.224 114.004C182.864 114.004 183.348 113.708 183.676 113.116L185.128 113.908C184.896 114.42 184.524 114.82 184.012 115.108C183.508 115.396 182.916 115.54 182.236 115.54Z" fill="#585656"/>
<path d="M188.93 108.892C189.93 108.892 190.698 109.132 191.234 109.612C191.77 110.084 192.038 110.8 192.038 111.76V115.444H190.286V114.64C189.934 115.24 189.278 115.54 188.318 115.54C187.822 115.54 187.39 115.456 187.022 115.288C186.662 115.12 186.386 114.888 186.194 114.592C186.002 114.296 185.906 113.96 185.906 113.584C185.906 112.984 186.13 112.512 186.578 112.168C187.034 111.824 187.734 111.652 188.678 111.652H190.166C190.166 111.244 190.042 110.932 189.794 110.716C189.546 110.492 189.174 110.38 188.678 110.38C188.334 110.38 187.994 110.436 187.658 110.548C187.33 110.652 187.05 110.796 186.818 110.98L186.146 109.672C186.498 109.424 186.918 109.232 187.406 109.096C187.902 108.96 188.41 108.892 188.93 108.892ZM188.786 114.28C189.106 114.28 189.39 114.208 189.638 114.064C189.886 113.912 190.062 113.692 190.166 113.404V112.744H188.882C188.114 112.744 187.73 112.996 187.73 113.5C187.73 113.74 187.822 113.932 188.006 114.076C188.198 114.212 188.458 114.28 188.786 114.28Z" fill="#585656"/>
</svg>
