<svg width="260" height="92" viewBox="0 0 260 92" fill="none" xmlns="http://www.w3.org/2000/svg">
<path d="M0 61.2478H1.27639V71.7142H7.91364V72.9906H0V61.2478Z" fill="#8C8C8C"/>
<path d="M21.4427 72.8629H20.0387L18.6347 69.7996H12.2527L10.8487 72.8629H9.57227L14.8055 61.1201H16.0819L21.4427 72.8629ZM15.4437 62.6518L12.8909 68.6508H18.2517L15.4437 62.6518Z" fill="#8C8C8C"/>
<path d="M32.8045 64.1835C32.8045 65.3323 32.0386 66.481 31.0175 66.8639C32.4216 66.9916 33.5703 68.268 33.5703 69.672C33.5703 71.7142 31.911 72.863 29.3582 72.863H24.125V61.2478H29.1029C31.2728 61.2478 32.8045 62.3966 32.8045 64.1835ZM31.5281 64.3111C31.5281 63.1624 30.6346 62.3966 28.9753 62.3966H25.4014V66.3534H28.8477C30.3793 66.481 31.4004 65.7152 31.5281 64.3111ZM32.1663 69.672C32.1663 68.3956 31.1452 67.6298 29.1029 67.6298H25.4014V71.7142H29.2306C31.0175 71.7142 32.0386 70.9484 32.1663 69.672Z" fill="#8C8C8C"/>
<path d="M41.739 73.1182C38.4204 73.1182 35.7399 70.5654 35.6123 67.2468C35.6123 63.9282 38.1651 61.2478 41.4837 61.1201C44.8023 61.1201 47.4828 63.6729 47.6104 66.9915C47.738 70.1825 45.1853 72.8629 41.9943 72.9906C41.9943 73.1182 41.8666 73.1182 41.739 73.1182ZM41.739 62.2689C39.0586 62.1412 36.7611 64.1835 36.6334 66.8639C36.5058 69.5443 38.548 71.8418 41.2284 71.9695C43.9089 72.0971 46.2064 70.0549 46.334 67.3744C46.334 67.2468 46.334 67.2468 46.334 67.1192C46.4616 64.5664 44.5471 62.3965 41.9943 62.2689C41.8666 62.2689 41.8666 62.2689 41.739 62.2689Z" fill="#8C8C8C"/>
<path d="M60.2455 67.885C60.2455 71.3313 58.3309 72.9906 55.3952 72.9906C52.4595 72.9906 50.5449 71.2037 50.5449 67.885V61.2478H51.8213V67.885C51.8213 70.4378 53.0977 71.8419 55.3952 71.8419C57.6927 71.8419 58.8415 70.5655 58.8415 68.0127V61.2478H60.1179L60.2455 67.885Z" fill="#8C8C8C"/>
<path d="M71.734 72.863L68.4153 68.3956H65.0967V72.863H63.8203V61.2478H68.7982C71.351 61.2478 73.0103 62.6518 73.0103 64.6941C73.0103 66.481 71.6063 68.0127 69.8194 68.1403L73.3933 72.863H71.734ZM68.543 62.5242H64.9691V67.2469H68.543C70.3299 67.2469 71.4787 66.3534 71.4787 64.8217C71.4787 63.29 70.4576 62.5242 68.543 62.5242Z" fill="#8C8C8C"/>
<path d="M86.9228 69.672L82.583 63.5454V72.9907H81.3066V61.3755H82.583L86.7951 67.7575L91.0072 61.3755H92.2836V72.9907H91.0072V63.5454L86.9228 69.672Z" fill="#8C8C8C"/>
<path d="M106.835 72.8629H105.431L104.027 69.7996H97.6453L96.2412 72.8629H94.9648L100.198 61.1201H101.474L106.835 72.8629ZM100.964 62.6518L98.2835 68.6508H103.644L100.964 62.6518Z" fill="#8C8C8C"/>
<path d="M117.428 72.863L114.11 68.3956H110.791V72.863H109.515V61.2478H114.493C117.045 61.2478 118.705 62.6518 118.705 64.6941C118.705 66.481 117.301 68.0127 115.514 68.1403L119.088 72.863H117.428V72.863ZM114.365 62.5242H110.791V67.2469H114.365C116.152 67.2469 117.301 66.3534 117.301 64.8217C117.301 63.29 116.28 62.5242 114.365 62.5242Z" fill="#8C8C8C"/>
<path d="M131.724 72.863H130.064L125.597 67.2469L123.172 69.7996V72.863H121.896V61.2478H123.172V68.1403L129.809 61.2478H131.468L126.491 66.3534L131.724 72.863Z" fill="#8C8C8C"/>
<path d="M142.446 62.5242H135.298V66.481H141.68V67.6298H135.298V71.7142H142.446V72.863H134.021V61.2478H142.446V62.5242Z" fill="#8C8C8C"/>
<path d="M149.848 72.8629H148.572V62.3965H144.615V61.1201H153.805V62.3965H149.848V72.8629Z" fill="#8C8C8C"/>
<path d="M1.40432 79.1172V90.7324H0.12793V79.1172H1.40432V79.1172Z" fill="#8C8C8C"/>
<path d="M13.6573 79.1172H14.9337V90.7324H13.9126L6.38186 81.2871V90.86H5.10547V79.2448H6.38186L13.6573 88.5625V79.1172Z" fill="#8C8C8C"/>
<path d="M22.9764 90.7326H21.7V80.2661H17.7432V78.9897H26.8056V80.2661H22.9764V90.7326Z" fill="#8C8C8C"/>
<path d="M38.0358 80.3936H31.0157V84.3504H37.3976V85.4991H31.0157V89.5836H38.1635V90.7324H29.7393V79.1172H38.1635V80.3936H38.0358Z" fill="#8C8C8C"/>
<path d="M41.1006 79.1172H42.377V89.5836H48.8866V90.7324H41.1006V79.1172Z" fill="#8C8C8C"/>
<path d="M51.6943 79.1172H52.9707V89.5836H59.4803V90.7324H51.6943V79.1172Z" fill="#8C8C8C"/>
<path d="M63.6924 79.1172V90.7324H62.416V79.1172H63.6924V79.1172Z" fill="#8C8C8C"/>
<path d="M72.8819 90.9879C69.6909 91.1156 67.1381 88.6904 67.0104 85.4994C67.0104 85.3718 67.0104 85.1165 67.0104 84.9889C66.8828 81.7979 69.4356 79.1175 72.6266 78.9898H72.7542C74.2859 78.8622 75.9452 79.5004 77.094 80.5215L76.2005 81.415C75.307 80.6491 74.0306 80.1386 72.7542 80.1386C70.2014 80.2662 68.2868 82.3084 68.2868 84.8612V84.9889C68.0316 87.414 69.9462 89.5839 72.3713 89.8392C72.4989 89.8392 72.6266 89.8392 72.8819 89.8392C74.1582 89.8392 75.307 89.4562 76.2005 88.6904V85.7547H72.7542V84.6059H77.6045V89.201C76.2005 90.3497 74.5412 90.9879 72.8819 90.9879Z" fill="#8C8C8C"/>
<path d="M89.2201 80.3936H82.0723V84.3504H88.4543V85.4991H82.0723V89.5836H89.3477V90.7324H80.7959V79.1172H89.2201V80.3936V80.3936Z" fill="#8C8C8C"/>
<path d="M100.834 79.1172H102.11V90.7324H101.089L93.5586 81.1594V90.7324H92.2822V79.1172H93.5586L100.834 88.4349V79.1172Z" fill="#8C8C8C"/>
<path d="M110.919 90.9878C107.601 90.8602 105.048 88.0521 105.175 84.7335C105.303 81.6702 107.856 79.1174 110.919 78.9897C112.579 78.9897 114.238 79.6279 115.514 80.7767L114.621 81.7978C113.727 80.7767 112.451 80.1385 111.047 80.1385C108.366 80.3938 106.452 82.6913 106.58 85.2441C106.707 87.6692 108.622 89.4562 111.047 89.7115C112.451 89.7115 113.855 89.0733 114.748 88.0521L115.642 88.9456C114.493 90.222 112.706 90.9878 110.919 90.9878Z" fill="#8C8C8C"/>
<path d="M126.619 80.3936H119.599V84.3504H125.981V85.4991H119.599V89.5836H126.746V90.7324H118.322V79.1172H126.746V80.3936H126.619Z" fill="#8C8C8C"/>
<path d="M139.255 86.6479H136.447V90.7324H135.171V79.1172H139.511C142.191 79.1172 143.85 80.5212 143.85 82.8187C143.723 85.3715 141.681 86.6479 139.255 86.6479ZM139.255 80.3936H136.32V85.4991H139.128C141.042 85.4991 142.319 84.478 142.319 82.9464C142.319 81.4147 141.17 80.3936 139.255 80.3936Z" fill="#8C8C8C"/>
<path d="M156.23 90.7326H154.826L153.422 87.6692H147.04L145.636 90.7326H144.359L149.72 78.9897H150.997L156.23 90.7326ZM150.358 80.5214L147.678 86.5205H152.911L150.358 80.5214Z" fill="#8C8C8C"/>
<path d="M166.952 90.7324L163.633 86.265H160.314V90.7324H159.038V79.1172H164.016C166.569 79.1172 168.228 80.5212 168.228 82.5635C168.228 84.3504 166.824 85.8821 165.037 86.0097L168.483 90.7324H166.952ZM163.888 80.3936H160.314V85.1162H163.888C165.675 85.1162 166.824 84.2228 166.824 82.6911C166.824 81.1594 165.675 80.3936 163.888 80.3936Z" fill="#8C8C8C"/>
<path d="M175.632 90.7326H174.355V80.2661H170.398V78.9897H179.461V80.2661H175.504V90.7326H175.632Z" fill="#8C8C8C"/>
<path d="M190.949 79.1172H192.226V90.7324H191.205L183.674 81.1594V90.7324H182.397V79.1172H183.674L190.949 88.4349V79.1172Z" fill="#8C8C8C"/>
<path d="M204.223 80.3936H197.075V84.3504H203.457V85.4991H197.075V89.5836H204.223V90.7324H195.799V79.1172H204.223V80.3936Z" fill="#8C8C8C"/>
<path d="M215.455 90.7324L212.136 86.265H208.817V90.7324H207.541V79.1172H212.519C215.072 79.1172 216.731 80.5212 216.731 82.5635C216.731 84.3504 215.327 85.8821 213.54 86.0097L217.114 90.7324H215.455ZM212.264 80.3936H208.69V85.1162H212.264C214.051 85.1162 215.199 84.2228 215.199 82.6911C215.199 81.1594 214.178 80.3936 212.264 80.3936Z" fill="#8C8C8C"/>
<path d="M224.007 84.3504C226.56 84.861 227.836 85.8821 227.836 87.669C227.836 89.7113 226.177 90.9876 223.88 90.9876C222.093 90.9876 220.433 90.3494 219.029 89.2007L219.795 88.1796C220.816 89.2007 222.22 89.8389 223.752 89.8389C225.284 89.8389 226.305 89.0731 226.305 87.7967C226.305 86.5203 225.667 86.1374 223.241 85.6268C220.561 84.9886 219.285 84.2228 219.285 82.3082C219.285 80.3936 220.944 79.1172 223.114 79.1172C224.645 79.1172 226.049 79.6277 227.198 80.5212L226.432 81.5423C225.539 80.7765 224.263 80.2659 223.114 80.2659C221.582 80.2659 220.689 81.1594 220.689 82.1805C220.689 83.2016 221.454 83.7122 224.007 84.3504Z" fill="#8C8C8C"/>
<path d="M232.177 85.4991V90.7324H230.9V79.1172H232.177V84.2228H238.814V79.1172H240.09V90.7324H238.814V85.4991H232.177V85.4991Z" fill="#8C8C8C"/>
<path d="M245.323 79.1172V90.7324H244.047V79.1172H245.323V79.1172Z" fill="#8C8C8C"/>
<path d="M253.236 86.6479H250.428V90.7324H249.151V79.1172H253.491C256.172 79.1172 257.831 80.5212 257.831 82.8187C257.831 85.3715 255.661 86.6479 253.236 86.6479ZM253.363 80.3936H250.428V85.4991H253.236C255.15 85.4991 256.427 84.478 256.427 82.9464C256.427 81.4147 255.278 80.3936 253.363 80.3936Z" fill="#8C8C8C"/>
<path d="M194.65 1.51245C194.14 3.17176 198.224 2.6612 210.86 10.8301C222.859 18.6161 225.794 22.3177 226.688 21.5518C227.326 21.0413 225.156 14.0211 214.051 7.00094C203.713 0.363694 195.033 0.491333 194.65 1.51245Z" fill="#E8E8E8"/>
<path d="M179.717 2.9167C180.865 4.19309 177.036 5.46949 169.122 18.3611C161.719 30.4868 160.698 35.2094 159.549 34.8265C158.784 34.5713 157.635 27.4234 164.527 16.1912C171.165 5.72476 178.951 2.02322 179.717 2.9167Z" fill="#E8E8E8"/>
<path d="M227.964 36.2304C226.304 35.7198 226.815 39.8043 218.646 52.4406C210.988 64.4387 207.158 67.3744 207.924 68.2678C208.435 68.906 215.455 66.7362 222.475 55.6315C229.24 45.1651 229.112 36.4856 227.964 36.2304Z" fill="#E8E8E8"/>
<path d="M193.246 69.2891C193.756 67.6298 189.672 68.268 176.908 60.0991C164.91 52.4407 161.846 48.7392 160.953 49.505C160.315 50.0156 162.612 57.0358 173.717 63.9283C184.311 70.5655 192.99 70.4379 193.246 69.2891Z" fill="#E8E8E8"/>
<path d="M193.118 60.4821C193.118 60.4821 192.99 60.4821 193.118 60.4821C178.822 60.4821 167.335 48.8669 167.335 34.5713C167.335 20.4033 178.95 8.91577 193.118 8.91577C207.414 8.91577 218.901 20.5309 218.901 34.8266C218.774 48.9945 207.286 60.4821 193.118 60.4821ZM193.118 14.0213C181.758 14.0213 172.441 23.2114 172.441 34.5713C172.441 45.9312 181.631 55.2488 192.99 55.3765C192.99 55.3765 192.99 55.3765 193.118 55.3765C204.478 55.3765 213.796 46.1865 213.796 34.8266C213.796 23.339 204.478 14.0213 193.118 14.0213Z" fill="#E8E8E8"/>
<path d="M205.244 63.6731C204.861 63.6731 204.478 63.6731 204.095 63.5454C202.563 63.2901 201.287 62.6519 200.521 61.5032C198.351 58.4398 200.138 53.5895 204.606 50.1433C207.414 48.1011 210.605 47.2076 213.158 47.5905C214.689 47.8458 215.838 48.484 216.731 49.6327C218.901 52.5684 216.987 57.5464 212.519 60.9926C210.222 62.7796 207.541 63.6731 205.244 63.6731ZM212.009 50.1433C210.222 50.1433 208.052 50.9091 206.137 52.3132C202.819 54.7383 201.287 58.3122 202.563 60.0992C203.074 60.7373 203.84 60.9926 204.478 61.1203C206.393 61.3755 208.945 60.6097 210.988 58.9504C214.179 56.5253 215.966 52.9513 214.689 51.1644C214.306 50.6538 213.668 50.2709 212.775 50.1433C212.519 50.1433 212.264 50.1433 212.009 50.1433Z" fill="#E11F17"/>
<path d="M167.335 37.2516C166.825 37.2516 166.314 37.1239 165.804 36.9963C162.357 35.7199 161.081 30.6143 162.868 25.2535C164.017 22.0625 166.059 19.3821 168.356 18.2333C169.761 17.5951 171.165 17.4675 172.441 17.8504C176.015 19.1268 177.291 24.2324 175.377 29.5932C174.483 32.0184 173.079 34.1882 171.42 35.4646C170.016 36.741 168.612 37.2516 167.335 37.2516ZM166.57 34.5712C167.846 34.9541 169.122 34.1882 169.761 33.55C171.037 32.5289 172.186 30.742 172.952 28.8274C174.228 24.9982 173.59 21.0414 171.547 20.4032C170.782 20.1479 170.016 20.4032 169.505 20.6585C167.718 21.5519 166.187 23.5942 165.293 26.147C163.761 30.3591 164.783 33.933 166.57 34.5712Z" fill="#E11F17"/>
<path d="M181.758 63.5452C179.461 63.5452 176.78 62.5241 174.355 60.8648C169.76 57.5462 167.973 52.5683 170.143 49.5049C171.292 47.9732 173.207 47.2074 175.632 47.4627C177.802 47.5903 180.099 48.6114 182.269 50.1431C185.077 52.1853 186.992 54.9934 187.375 57.5462C187.63 59.0779 187.247 60.3543 186.481 61.3754C185.715 62.3965 184.439 63.1623 182.907 63.4176C182.524 63.5452 182.141 63.5452 181.758 63.5452ZM174.866 50.1431C173.59 50.1431 172.696 50.526 172.185 51.1642C170.909 52.9512 172.568 56.5251 175.887 58.9502C178.057 60.6095 180.61 61.3754 182.524 61.1201C183.162 60.9924 183.928 60.7372 184.439 60.099C184.949 59.4608 184.949 58.6949 184.822 58.1844C184.566 56.2698 183.035 53.9723 180.737 52.4406C179.078 51.1642 177.163 50.3984 175.504 50.2707C175.249 50.1431 175.121 50.1431 174.866 50.1431Z" fill="#E11F17"/>
<path d="M193.373 16.4464C187.756 16.4464 183.289 13.5107 183.289 9.80912C183.289 6.10758 187.756 3.17188 193.373 3.17188C198.989 3.17188 203.456 6.10758 203.456 9.80912C203.328 13.6383 198.989 16.4464 193.373 16.4464ZM193.373 5.72466C189.416 5.72466 185.842 7.63925 185.842 9.80912C185.842 11.7237 188.905 13.8936 193.373 13.8936C197.84 13.8936 200.903 11.7237 200.903 9.80912C200.776 7.63925 197.329 5.72466 193.373 5.72466Z" fill="#E11F17"/>
<path d="M219.922 37.507C216.859 37.507 213.541 34.5713 211.754 30.104C210.86 27.6788 210.605 25.126 210.988 23.0838C211.371 20.6586 212.647 18.9993 214.434 18.3611C217.88 17.0847 222.22 20.1481 224.262 25.3813C225.539 28.5723 225.539 31.8909 224.518 34.3161C223.879 35.7201 222.858 36.7412 221.582 37.2518C221.071 37.507 220.433 37.507 219.922 37.507ZM215.327 20.7863C214.051 21.2968 213.668 22.7009 213.541 23.5943C213.285 25.2537 213.413 27.2959 214.179 29.3381C215.583 33.0397 218.646 35.7201 220.688 34.9542C221.454 34.699 221.837 33.9331 222.092 33.4226C222.858 31.6356 222.731 28.9552 221.837 26.5301C220.178 22.1903 217.114 20.1481 215.327 20.7863Z" fill="#E11F17"/>
</svg>
