<svg width="24" height="24" viewBox="0 0 24 24" fill="none" xmlns="http://www.w3.org/2000/svg">
<path d="M18.2649 4.60752C16.0571 2.39971 12.4617 2.39971 10.2563 4.60752L4.13908 10.72C4.09924 10.7599 4.07815 10.8138 4.07815 10.87C4.07815 10.9263 4.09924 10.9802 4.13908 11.02L5.00393 11.8849C5.04346 11.9242 5.09697 11.9463 5.15276 11.9463C5.20854 11.9463 5.26205 11.9242 5.30158 11.8849L11.4188 5.77236C12.1781 5.01299 13.1883 4.5958 14.2617 4.5958C15.3352 4.5958 16.3453 5.01299 17.1024 5.77236C17.8617 6.53174 18.2789 7.54189 18.2789 8.61299C18.2789 9.68643 17.8617 10.6942 17.1024 11.4536L10.868 17.6856L9.85783 18.6958C8.9133 19.6403 7.37815 19.6403 6.43362 18.6958C5.97658 18.2388 5.7258 17.6317 5.7258 16.9849C5.7258 16.338 5.97658 15.731 6.43362 15.2739L12.6188 9.09111C12.7758 8.93643 12.9821 8.84971 13.2024 8.84971H13.2047C13.425 8.84971 13.6289 8.93643 13.7836 9.09111C13.9406 9.24814 14.025 9.45439 14.025 9.67471C14.025 9.89268 13.9383 10.0989 13.7836 10.2536L8.72815 15.3044C8.6883 15.3442 8.66721 15.3981 8.66721 15.4544C8.66721 15.5106 8.6883 15.5646 8.72815 15.6044L9.59299 16.4692C9.63252 16.5086 9.68603 16.5307 9.74182 16.5307C9.7976 16.5307 9.85112 16.5086 9.89065 16.4692L14.9438 11.4161C15.4102 10.9497 15.6656 10.331 15.6656 9.67236C15.6656 9.01377 15.4078 8.39268 14.9438 7.92861C13.9805 6.96533 12.4149 6.96768 11.4516 7.92861L10.8516 8.53096L5.26877 14.1114C4.88986 14.4881 4.5895 14.9363 4.38512 15.4299C4.18074 15.9236 4.0764 16.4529 4.07815 16.9872C4.07815 18.0724 4.50237 19.0919 5.26877 19.8583C6.0633 20.6505 7.10393 21.0466 8.14455 21.0466C9.18518 21.0466 10.2258 20.6505 11.018 19.8583L18.2649 12.6161C19.3313 11.5474 19.9219 10.1247 19.9219 8.61299C19.9242 7.09893 19.3336 5.67627 18.2649 4.60752Z" fill="black"/>
</svg>
