<svg width="24" height="24" viewBox="0 0 24 24" fill="none" xmlns="http://www.w3.org/2000/svg">
<path d="M4.05843 17.7811C4.06966 17.7939 4.08122 17.8064 4.09309 17.8186C4.86616 18.6145 5.85788 19 6.98561 19C8.07825 19 9.03082 18.5986 9.76777 17.8C9.77354 17.7938 9.77922 17.7875 9.78483 17.7811C10.5109 16.9528 10.8433 15.9199 10.8433 14.7647C10.8433 14.0372 10.7107 13.3419 10.3538 12.7617L9.50204 13.2857L10.3538 12.7617C10.0614 12.2866 9.67413 11.8548 9.21199 11.4613L9.212 11.4613L9.20817 11.458C9.0199 11.2994 8.88917 11.1684 8.80244 11.0657C8.79763 11.0517 8.79598 11.0381 8.79598 11.021C8.79598 10.9215 8.85652 10.6327 9.17177 10.0918C9.47159 9.57736 9.89823 8.99847 10.4657 8.35427C10.8043 7.96982 10.7977 7.39161 10.4502 7.0151L9.81042 6.32182C9.46719 5.94988 8.90019 5.89302 8.48993 6.1894C6.86396 7.36403 5.53754 8.73061 4.52562 10.2924L4.52561 10.2924L4.52333 10.2959C3.54981 11.8124 3 13.3091 3 14.7647C3 15.9199 3.33231 16.9528 4.05843 17.7811ZM14.2152 17.7811C14.2264 17.7939 14.238 17.8064 14.2498 17.8186C15.0229 18.6145 16.0146 19 17.1424 19C18.235 19 19.1876 18.5986 19.9245 17.8C19.9303 17.7938 19.936 17.7875 19.9416 17.7811C20.6677 16.9528 21 15.9199 21 14.7647C21 14.0372 20.8674 13.3419 20.5105 12.7617C20.2182 12.2866 19.8309 11.8548 19.3687 11.4613L19.3687 11.4613L19.3649 11.458C19.1766 11.2994 19.0459 11.1684 18.9592 11.0657C18.9544 11.0517 18.9527 11.0381 18.9527 11.021C18.9527 10.9215 19.0133 10.6327 19.3285 10.0918C19.6283 9.57736 20.055 8.99847 20.6224 8.35428C20.9611 7.96982 20.9544 7.39161 20.6069 7.0151L19.9672 6.32182C19.6239 5.94988 19.0569 5.89302 18.6467 6.1894C17.0207 7.36403 15.6943 8.73061 14.6824 10.2924L14.6801 10.2959C13.7066 11.8124 13.1567 13.3091 13.1567 14.7647C13.1567 15.9199 13.4891 16.9528 14.2152 17.7811Z" stroke="#1A1A1A" stroke-width="2" stroke-linejoin="round"/>
</svg>
