<?xml version="1.0" encoding="utf-8"?>
<!-- Generator: Adobe Illustrator 16.0.0, SVG Export Plug-In . SVG Version: 6.00 Build 0)  -->
<!DOCTYPE svg PUBLIC "-//W3C//DTD SVG 1.1//EN" "http://www.w3.org/Graphics/SVG/1.1/DTD/svg11.dtd">
<svg version="1.1" id="Layer_1" xmlns="http://www.w3.org/2000/svg" xmlns:xlink="http://www.w3.org/1999/xlink" x="0px" y="0px"
	 width="24px" height="24px" viewBox="0 0 24 24" enable-background="new 0 0 24 24" xml:space="preserve">
<path fill="#FFFFFF" d="M21.285,3h-5.106c-1.097,0-2.167,0.401-3.089,1.159L12,5.05l-1.089-0.891C9.99,3.401,8.917,2.999,7.821,3
	H2.714C2.319,3,2,3.407,2,3.911V20.08c0,0.504,0.319,0.91,0.714,0.91h5.107c1.096,0,2.167,0.401,3.089,1.158l0.991,0.814
	C11.931,22.986,11.964,23,11.998,23c0.033,0,0.066-0.012,0.096-0.037l0.991-0.814c0.924-0.757,1.997-1.158,3.094-1.158h5.106
	c0.396,0,0.715-0.406,0.715-0.91V3.911C22,3.407,21.681,3,21.285,3z M7.821,18.941H3.607V5.05h4.214
	c0.791,0,1.558,0.287,2.221,0.831l1.089,0.891L11.286,6.9v13.151C10.223,19.322,9.036,18.941,7.821,18.941z M20.393,18.941h-4.214
	c-1.214,0-2.401,0.381-3.464,1.109V6.9l0.153-0.128l1.089-0.891c0.664-0.544,1.432-0.831,2.222-0.831h4.214V18.941z M9.431,8.693
	H5.284c-0.087,0-0.159,0.097-0.159,0.213v1.281c0,0.117,0.071,0.213,0.159,0.213h4.145c0.087,0,0.158-0.097,0.158-0.213V8.907
	C9.589,8.79,9.518,8.693,9.431,8.693z M14.41,8.907v1.281c0,0.117,0.072,0.213,0.159,0.213h4.146c0.086,0,0.158-0.097,0.158-0.213
	V8.907c0-0.117-0.072-0.213-0.158-0.213h-4.146C14.482,8.693,14.41,8.79,14.41,8.907z M9.431,12.678H5.284
	c-0.087,0-0.159,0.098-0.159,0.214v1.281c0,0.116,0.071,0.214,0.159,0.214h4.145c0.087,0,0.158-0.098,0.158-0.214v-1.281
	C9.589,12.775,9.518,12.678,9.431,12.678z M18.717,12.678h-4.147c-0.087,0-0.159,0.098-0.159,0.214v1.281
	c0,0.116,0.072,0.214,0.159,0.214h4.146c0.086,0,0.158-0.098,0.158-0.214v-1.281C18.875,12.775,18.804,12.678,18.717,12.678z"/>
</svg>
