<?xml version="1.0" encoding="utf-8"?>
<!-- Generator: Adobe Illustrator 16.0.0, SVG Export Plug-In . SVG Version: 6.00 Build 0)  -->
<!DOCTYPE svg PUBLIC "-//W3C//DTD SVG 1.1//EN" "http://www.w3.org/Graphics/SVG/1.1/DTD/svg11.dtd">
<svg version="1.1" id="Layer_1" xmlns="http://www.w3.org/2000/svg" xmlns:xlink="http://www.w3.org/1999/xlink" x="0px" y="0px"
	 width="216px" height="255px" viewBox="0 0 216 255" enable-background="new 0 0 216 255" xml:space="preserve">
<g>
	<path fill="#FFFFFF" d="M206.43,128.558c0-14.326,3.631-27.806,10.048-39.594L31.091,0.722
		C11.841,39.371,0.997,82.945,0.997,129.056c0,45.164,10.396,87.893,28.9,125.944l184.988-89.933
		C209.464,154.075,206.43,141.64,206.43,128.558z"/>
	<path fill="#F26822" d="M15.92,129.056c0-43.823,10.346-85.208,28.651-121.917l-13.48-6.417
		C11.841,39.371,0.997,82.945,0.997,129.056c0,45.164,10.396,87.893,28.9,125.944l13.43-6.516
		C25.769,212.372,15.92,171.883,15.92,129.056z"/>
	<g>
		<path fill="#F26922" d="M117.144,105.179h-13.182v4.974h12.436v38.798H77.6v-13.43h-4.975v14.176c0,2.338,1.891,4.229,4.229,4.229
			h40.24c2.338,0,4.229-1.891,4.229-4.229v-40.24C121.371,107.069,119.481,105.179,117.144,105.179z"/>
	</g>
	<path fill="#F26922" d="M85.558,105.179c-7.163,0-12.933,5.77-12.933,12.933s5.77,12.933,12.933,12.933s12.933-5.771,12.933-12.933
		S92.721,105.179,85.558,105.179z M85.358,126.17c-0.298,0.298-0.796,0.349-1.094,0.05l-5.621-5.024
		c-0.298-0.298-0.348-0.746-0.1-1.094l1.99-2.487c0.298-0.348,0.846-0.397,1.193-0.049l2.537,2.537
		c0.298,0.298,0.846,0.298,1.144-0.05l6.417-7.063c0.299-0.348,0.846-0.348,1.144-0.05l1.891,1.89c0.299,0.298,0.299,0.796,0,1.094
		L85.358,126.17z"/>
</g>
</svg>
