<?xml version="1.0" encoding="utf-8"?>
<!-- Generator: Adobe Illustrator 16.0.0, SVG Export Plug-In . SVG Version: 6.00 Build 0)  -->
<!DOCTYPE svg PUBLIC "-//W3C//DTD SVG 1.1//EN" "http://www.w3.org/Graphics/SVG/1.1/DTD/svg11.dtd">
<svg version="1.1" id="Layer_1" xmlns="http://www.w3.org/2000/svg" xmlns:xlink="http://www.w3.org/1999/xlink" x="0px" y="0px"
	 width="244px" height="225px" viewBox="0 0 244 225" enable-background="new 0 0 244 225" xml:space="preserve">
<g>
	<path fill="#FFFFFF" d="M63.497,204.432c20.842,0,39.893,7.66,54.467,20.395l126.94-160.068C195.313,24.269,131.991-0.005,63-0.005
		c-21.289,0-42.031,2.338-62.027,6.715l48.696,198.866C54.146,204.83,58.771,204.432,63.497,204.432z"/>
	<path fill="#F1A71E" d="M63,14.917c65.51,0,125.597,23.08,172.652,61.48l9.252-11.689C195.313,24.269,131.991-0.005,63-0.005
		c-21.289,0-42.031,2.338-62.027,6.715l3.531,14.524C23.356,17.106,42.904,14.917,63,14.917z"/>
	<path fill="#FAAC1B" d="M127.365,84.207H91.203c-0.994,0-1.79,0.796-1.79,1.791v47.006c0,0.994,0.796,1.79,1.79,1.79h36.162
		c0.995,0,1.791-0.796,1.791-1.79V85.998C129.156,85.003,128.36,84.207,127.365,84.207z M93.441,88.286h31.636v11.739H93.441V88.286
		L93.441,88.286z M125.077,115.395H93.441v-11.739h31.636V115.395z M125.077,130.766H93.441v-11.74h31.636V130.766L125.077,130.766z
		 M97.521,94.155c0,0.597,0.249,1.194,0.646,1.592c0.398,0.398,0.995,0.646,1.592,0.646s1.194-0.249,1.592-0.646
		c0.448-0.448,0.646-0.995,0.646-1.592s-0.249-1.194-0.646-1.592c-0.447-0.448-0.995-0.646-1.592-0.646s-1.193,0.249-1.592,0.646
		C97.72,92.961,97.521,93.559,97.521,94.155z M97.521,109.525c0,0.597,0.249,1.194,0.646,1.592c0.448,0.448,0.995,0.646,1.592,0.646
		s1.194-0.249,1.592-0.646s0.646-0.995,0.646-1.592c0-0.597-0.249-1.194-0.646-1.592c-0.447-0.448-0.995-0.646-1.592-0.646
		s-1.193,0.249-1.592,0.646C97.72,108.332,97.521,108.928,97.521,109.525z M97.521,124.896c0,0.597,0.249,1.194,0.646,1.592
		c0.398,0.397,0.995,0.646,1.592,0.646s1.194-0.249,1.592-0.646c0.448-0.448,0.646-0.995,0.646-1.592s-0.249-1.194-0.646-1.592
		c-0.447-0.448-0.995-0.646-1.592-0.646s-1.193,0.249-1.592,0.646C97.72,123.701,97.521,124.299,97.521,124.896L97.521,124.896z"/>
</g>
</svg>
