<?xml version="1.0" encoding="utf-8"?>
<!-- Generator: Adobe Illustrator 16.0.0, SVG Export Plug-In . SVG Version: 6.00 Build 0)  -->
<!DOCTYPE svg PUBLIC "-//W3C//DTD SVG 1.1//EN" "http://www.w3.org/Graphics/SVG/1.1/DTD/svg11.dtd">
<svg version="1.1" id="Layer_1" xmlns="http://www.w3.org/2000/svg" xmlns:xlink="http://www.w3.org/1999/xlink" x="0px" y="0px"
	 width="235px" height="224px" viewBox="0 0 235 224" enable-background="new 0 0 235 224" xml:space="preserve">
<g>
	<path fill="#FFFFFF" d="M28.643,223.5c0,0.149,0,0.348,0,0.498h206.36c0-90.082-41.724-170.464-107.046-223.29L-0.228,160.826
		C17.446,176.047,28.643,198.48,28.643,223.5z"/>
	<path fill="#EE6623" d="M219.939,223.998h15.063c0-90.082-41.724-170.464-107.046-223.29l-9.34,11.689
		C180.425,62.487,219.939,138.691,219.939,223.998z"/>
	<path fill="#F26922" d="M142.518,127.499v38.798h-39.163v-38.798H142.518 M143.22,122.525h-40.619c-2.36,0-4.268,1.89-4.268,4.228
		v40.241c0,2.338,1.908,4.228,4.268,4.228h40.619c2.36,0,4.269-1.89,4.269-4.228v-40.241
		C147.538,124.415,145.63,122.525,143.22,122.525L143.22,122.525z"/>
	<path fill="#F26922" d="M110.283,155.453l4.87-7.212c0.251-0.349,0.753-0.497,1.105-0.298l7.331,3.979l7.581-11.639
		c0.251-0.349,0.753-0.498,1.104-0.249l2.259,1.343c0.402,0.248,0.503,0.746,0.252,1.094l-9.238,14.525
		c-0.252,0.397-0.754,0.547-1.205,0.299l-7.281-3.93l-3.264,4.477c-0.251,0.298-0.652,0.397-1.004,0.199l-2.209-1.294
		C110.132,156.498,109.981,155.901,110.283,155.453z"/>
</g>
</svg>
