<?xml version="1.0" encoding="utf-8"?>
<!-- Generator: Adobe Illustrator 16.0.0, SVG Export Plug-In . SVG Version: 6.00 Build 0)  -->
<!DOCTYPE svg PUBLIC "-//W3C//DTD SVG 1.1//EN" "http://www.w3.org/Graphics/SVG/1.1/DTD/svg11.dtd">
<svg version="1.1" id="Layer_1" xmlns="http://www.w3.org/2000/svg" xmlns:xlink="http://www.w3.org/1999/xlink" x="0px" y="0px"
	 width="242px" height="225px" viewBox="0 0 242 225" enable-background="new 0 0 242 225" xml:space="preserve">
<g>
	<g>
		<path fill="#FFFFFF" d="M61.497,19.568c-5.62,0-11.092-0.548-16.364-1.642L0.415,218.583c19.548,4.179,39.793,6.367,60.585,6.367
			c68.742,0,131.864-24.075,181.357-64.266L114.521,0.468C100.097,12.405,81.643,19.568,61.497,19.568z"/>
		<path fill="#065D30" d="M61,210.077c-19.647,0-38.848-2.089-57.352-6.019l-3.233,14.574C19.963,222.812,40.208,225,61,225
			c68.742,0,131.864-24.075,181.357-64.266l-9.302-11.689C186.1,187.196,126.211,210.077,61,210.077z"/>
	</g>
	<path fill="#065E30" d="M126.907,96.22H87.313c-0.945,0-1.741,0.746-1.741,1.741v39.594c0,0.945,0.746,1.741,1.741,1.741h39.594
		c0.945,0,1.741-0.746,1.741-1.741V97.961C128.648,96.966,127.902,96.22,126.907,96.22L126.907,96.22z M89.502,100.1h7.312v35.316
		h-7.312C89.502,135.366,89.502,100.1,89.502,100.1z M124.769,135.366h-24.522v-24.522h24.522V135.366L124.769,135.366z
		 M100.246,107.411V100.1h24.522v7.312H100.246z"/>
</g>
</svg>
