<?xml version="1.0" encoding="utf-8"?>
<!-- Generator: Adobe Illustrator 16.0.0, SVG Export Plug-In . SVG Version: 6.00 Build 0)  -->
<!DOCTYPE svg PUBLIC "-//W3C//DTD SVG 1.1//EN" "http://www.w3.org/Graphics/SVG/1.1/DTD/svg11.dtd">
<svg version="1.1" id="Layer_1" xmlns="http://www.w3.org/2000/svg" xmlns:xlink="http://www.w3.org/1999/xlink" x="0px" y="0px"
	 width="244px" height="246px" viewBox="0 0 244 246" enable-background="new 0 0 244 246" xml:space="preserve">
<g>
	<g>
		<path fill="#FFFFFF" d="M185.886,0.01L0.897,89.942c38.201,78.442,110.973,136.938,198.518,155.69l44.718-200.656
			C218.466,39.804,197.077,22.892,185.886,0.01z"/>
		<path fill="#F7AA1B" d="M14.327,83.377l-13.43,6.516c38.201,78.442,110.973,136.938,198.518,155.69l3.233-14.574
			C119.63,213.301,50.589,157.79,14.327,83.377z"/>
	</g>
	<g>
		<path fill="#FAAC1B" d="M148.43,79.895h-13.729c-2.188,0-3.93,1.741-3.93,3.93v13.729c0,2.188,1.741,3.93,3.93,3.93h13.729
			c2.189,0,3.93-1.741,3.93-3.93V83.824C152.359,81.636,150.619,79.895,148.43,79.895z M147.883,96.956h-12.584V84.371h12.584
			V96.956z"/>
		<path fill="#FAAC1B" d="M174.494,79.895h-13.729c-2.188,0-3.93,1.741-3.93,3.93v13.729c0,2.188,1.741,3.93,3.93,3.93h13.729
			c2.189,0,3.93-1.741,3.93-3.93V83.824C178.424,81.636,176.684,79.895,174.494,79.895z M173.947,96.956h-12.584V84.371h12.584
			V96.956z"/>
		<path fill="#FAAC1B" d="M148.43,104.616h-13.729c-2.188,0-3.93,1.741-3.93,3.93v13.729c0,2.188,1.741,3.93,3.93,3.93h13.729
			c2.189,0,3.93-1.741,3.93-3.93v-13.729C152.359,106.357,150.619,104.616,148.43,104.616z M147.883,121.678h-12.584v-12.585h12.584
			V121.678z"/>
		<path fill="#FAAC1B" d="M174.494,104.616h-13.729c-2.188,0-3.93,1.741-3.93,3.93v13.729c0,2.188,1.741,3.93,3.93,3.93h13.729
			c2.189,0,3.93-1.741,3.93-3.93v-13.729C178.424,106.357,176.684,104.616,174.494,104.616z M173.947,121.678h-12.584v-12.585
			h12.584V121.678z"/>
	</g>
</g>
</svg>
