<?xml version="1.0" encoding="utf-8"?>
<!-- Generator: Adobe Illustrator 16.0.0, SVG Export Plug-In . SVG Version: 6.00 Build 0)  -->
<!DOCTYPE svg PUBLIC "-//W3C//DTD SVG 1.1//EN" "http://www.w3.org/Graphics/SVG/1.1/DTD/svg11.dtd">
<svg version="1.1" id="Layer_1" xmlns="http://www.w3.org/2000/svg" xmlns:xlink="http://www.w3.org/1999/xlink" x="0px" y="0px"
	 width="235px" height="224px" viewBox="0 0 235 224" enable-background="new 0 0 235 224" xml:space="preserve">
<g>
	<g>
		<path fill="#FFFFFF" d="M30.563-0.002c-0.149,25.517-11.788,48.348-30.044,63.47l127.886,160.267
			C193.416,170.909,235,90.328,235-0.002H30.563z"/>
		<path fill="#DA2427" d="M220.077-0.002c0,85.605-39.395,162.007-101.024,212.047l9.302,11.689
			C193.416,170.909,235,90.328,235-0.002H220.077z"/>
	</g>
	<path fill="#E12526" d="M131.09,64.313l-10.744-10.744c-0.298-0.299-0.696-0.448-1.144-0.448h-21.19
		c-0.896,0-1.592,0.696-1.592,1.592v41.534c0,0.896,0.696,1.592,1.592,1.592h31.935c0.895,0,1.592-0.696,1.592-1.592v-30.79
		C131.538,65.01,131.389,64.611,131.09,64.313L131.09,64.313z M127.856,66.153h-9.4v-9.401
		C118.456,56.802,127.856,66.153,127.856,66.153z M127.956,94.208h-27.954V56.702h15.071v10.794c0,0.548,0.199,1.095,0.597,1.492
		c0.398,0.398,0.945,0.598,1.492,0.598h10.794V94.208L127.956,94.208z M113.581,80.728h-9.202c-0.199,0-0.397,0.199-0.397,0.398
		v2.387c0,0.199,0.198,0.398,0.397,0.398h9.202c0.199,0,0.397-0.199,0.397-0.398v-2.387
		C113.979,80.927,113.78,80.728,113.581,80.728z M103.98,74.36v2.388c0,0.199,0.199,0.398,0.398,0.398h19.15
		c0.199,0,0.397-0.199,0.397-0.398V74.36c0-0.198-0.198-0.397-0.397-0.397h-19.15C104.18,73.963,103.98,74.112,103.98,74.36z"/>
</g>
</svg>
