<?xml version="1.0" encoding="utf-8"?>
<!-- Generator: Adobe Illustrator 16.0.0, SVG Export Plug-In . SVG Version: 6.00 Build 0)  -->
<!DOCTYPE svg PUBLIC "-//W3C//DTD SVG 1.1//EN" "http://www.w3.org/Graphics/SVG/1.1/DTD/svg11.dtd">
<svg version="1.1" id="Layer_1" xmlns="http://www.w3.org/2000/svg" xmlns:xlink="http://www.w3.org/1999/xlink" x="0px" y="0px"
	 width="245px" height="241px" viewBox="0 0 245 241" enable-background="new 0 0 245 241" xml:space="preserve">
<g>
	<path fill="#FFFFFF" d="M244.578,198.67L195.882-0.196C109.879,18.656,38.301,75.958,0,152.758L185.337,241
		C197.324,218.965,218.962,202.947,244.578,198.67z"/>
	<path fill="#075C2F" d="M199.413,14.278l-3.531-14.524C109.879,18.656,38.301,75.958,0,152.758l13.48,6.417
		C49.891,86.354,117.838,32.086,199.413,14.278z"/>
	<path fill="#065E30" d="M138.778,129.777c3.582-3.581,3.582-9.351,0-12.882c-3.581-3.582-9.352-3.582-12.883,0
		c-3.581,3.581-3.581,9.351,0,12.882C129.427,133.31,135.197,133.31,138.778,129.777z M142.012,113.662
		c4.775,4.775,5.272,12.286,1.492,17.608l3.383,3.383l-3.233,3.233l-3.383-3.382c-5.322,3.83-12.833,3.332-17.608-1.492
		c-5.322-5.323-5.322-14.028,0-19.35C127.984,108.29,136.64,108.29,142.012,113.662z M156.486,150.719l-9.699-9.699l3.233-3.233
		l9.699,9.7L156.486,150.719z M142.012,142.661c-0.896-0.896-0.896-2.338,0-3.233l6.467-6.467c0.895-0.895,2.338-0.895,3.232,0
		l12.884,12.883c0.895,0.896,0.895,2.338,0,3.234l-6.467,6.466c-0.896,0.896-2.338,0.896-3.233,0L142.012,142.661z"/>
</g>
</svg>
