<svg width="24" height="24" viewBox="0 0 24 24" fill="none" xmlns="http://www.w3.org/2000/svg">
<path fill-rule="evenodd" clip-rule="evenodd" d="M2 22V2V0H0V1V23C0 23.5523 0.447715 24 1 24H23H24V22H22H2ZM9.81946 13.2915C7.13408 10.798 5.56842 7.4273 4.06179 3.34622L5.93801 2.65356C7.43138 6.69872 8.86572 9.67665 11.1803 11.8259C12.0168 12.6026 12.9838 13.2846 14.1362 13.8686C14.3563 13.6651 14.568 13.4551 14.7721 13.2385C17.1053 10.7625 18.5511 7.32756 20.0483 2.69263L21.9514 3.3074C20.4486 7.95959 18.8944 11.7802 16.2276 14.6102C16.1952 14.6445 16.1627 14.6788 16.13 14.7128C17.7797 15.2923 19.7431 15.7256 22.1175 16.0068L21.8823 17.993C18.9252 17.6427 16.4915 17.0564 14.4544 16.2132C11.9342 18.1452 8.64161 19.3809 4.13398 19.991L3.86572 18.0091C7.61028 17.5022 10.3305 16.5619 12.4132 15.2079C11.4517 14.6482 10.5938 14.0106 9.81946 13.2915Z" fill="#1A1A1A"/>
</svg>
