<?xml version="1.0" encoding="utf-8"?>
<!-- Generator: Adobe Illustrator 23.0.1, SVG Export Plug-In . SVG Version: 6.00 Build 0)  -->
<svg version="1.1" id="Layer_1" xmlns="http://www.w3.org/2000/svg" xmlns:xlink="http://www.w3.org/1999/xlink" x="0px" y="0px"
	 viewBox="0 0 30 30" style="enable-background:new 0 0 30 30;" xml:space="preserve">
<style type="text/css">
	.st0{fill-rule:evenodd;clip-rule:evenodd;fill:#802F34;}
</style>
<path class="st0" d="M15,30C6.7,30,0,23.3,0,15C0,6.7,6.7,0,15,0c8.3,0,15,6.7,15,15C30,23.3,23.3,30,15,30z M15,29
	c7.7,0,14-6.3,14-14c0-7.7-6.3-14-14-14C7.3,1,1,7.3,1,15C1,22.7,7.3,29,15,29z M21.1,11.2c0.7-0.1,1.3-0.3,1.9-0.6
	c-0.4,0.7-1,1.3-1.6,1.8c0,0.2,0,0.3,0,0.5c0,4.7-3.3,10.1-9.3,10.1c-1.9,0-3.6-0.6-5-1.6c0.3,0,0.5,0,0.8,0c1.5,0,3-0.6,4.1-1.5
	c-1.4,0-2.6-1-3.1-2.5c0.2,0,0.4,0.1,0.6,0.1c0.3,0,0.6,0,0.9-0.1c-1.5-0.3-2.6-1.8-2.6-3.5v0c0.4,0.3,1,0.4,1.5,0.4
	c-0.9-0.6-1.5-1.7-1.5-2.9c0-0.6,0.2-1.3,0.4-1.8c1.6,2.1,4,3.5,6.8,3.7c-0.1-0.3-0.1-0.5-0.1-0.8c0-2,1.5-3.5,3.3-3.5
	c0.9,0,1.8,0.4,2.4,1.1c0.7-0.2,1.5-0.5,2.1-0.9C22.3,10.1,21.8,10.8,21.1,11.2z"/>
</svg>
