<svg width="24" height="24" viewBox="0 0 24 24" fill="none" xmlns="http://www.w3.org/2000/svg">
<path d="M20.1216 17.8969C19.6795 16.8496 19.0379 15.8984 18.2326 15.0961C17.4297 14.2915 16.4786 13.65 15.4318 13.207C15.4224 13.2023 15.413 13.2 15.4037 13.1953C16.8638 12.1406 17.813 10.4227 17.813 8.48438C17.813 5.27344 15.2115 2.67188 12.0005 2.67188C8.78961 2.67188 6.18805 5.27344 6.18805 8.48438C6.18805 10.4227 7.13727 12.1406 8.59742 13.1977C8.58805 13.2023 8.57867 13.2047 8.5693 13.2094C7.5193 13.6523 6.57711 14.2875 5.76852 15.0984C4.96393 15.9013 4.32243 16.8524 3.87945 17.8992C3.44427 18.924 3.20957 20.0228 3.18805 21.1359C3.18742 21.161 3.19181 21.1858 3.20095 21.2091C3.21009 21.2324 3.22381 21.2537 3.24128 21.2716C3.25875 21.2895 3.27963 21.3037 3.30269 21.3134C3.32575 21.3231 3.35052 21.3281 3.37555 21.3281H4.7818C4.88492 21.3281 4.96695 21.2461 4.9693 21.1453C5.01617 19.3359 5.74273 17.6414 7.02711 16.357C8.35602 15.0281 10.1209 14.2969 12.0005 14.2969C13.8802 14.2969 15.6451 15.0281 16.974 16.357C18.2584 17.6414 18.9849 19.3359 19.0318 21.1453C19.0341 21.2484 19.1162 21.3281 19.2193 21.3281H20.6255C20.6506 21.3281 20.6753 21.3231 20.6984 21.3134C20.7215 21.3037 20.7423 21.2895 20.7598 21.2716C20.7773 21.2537 20.791 21.2324 20.8001 21.2091C20.8093 21.1858 20.8137 21.161 20.813 21.1359C20.7896 20.0156 20.5576 18.9258 20.1216 17.8969ZM12.0005 12.5156C10.9248 12.5156 9.91227 12.0961 9.15055 11.3344C8.38883 10.5727 7.9693 9.56016 7.9693 8.48438C7.9693 7.40859 8.38883 6.39609 9.15055 5.63437C9.91227 4.87266 10.9248 4.45312 12.0005 4.45312C13.0763 4.45312 14.0888 4.87266 14.8505 5.63437C15.6123 6.39609 16.0318 7.40859 16.0318 8.48438C16.0318 9.56016 15.6123 10.5727 14.8505 11.3344C14.0888 12.0961 13.0763 12.5156 12.0005 12.5156Z" fill="black"/>
</svg>
