<svg xmlns="http://www.w3.org/2000/svg" width="24" height="24" fill="none" viewBox="0 0 24 24">
    <path fill="#000" d="M21.319 20.027l-6.087-6.086c.945-1.222 1.456-2.714 1.456-4.285 0-1.88-.734-3.642-2.06-4.97-1.327-1.33-3.094-2.061-4.972-2.061-1.877 0-3.644.734-4.97 2.06-1.33 1.327-2.061 3.092-2.061 4.971 0 1.878.734 3.645 2.06 4.971 1.327 1.33 3.092 2.06 4.971 2.06 1.57 0 3.061-.51 4.282-1.453l6.087 6.085c.018.018.039.032.062.041.024.01.049.015.074.015.025 0 .05-.005.073-.015.024-.01.045-.023.063-.041l1.022-1.02c.018-.018.032-.039.041-.062.01-.023.015-.048.015-.074 0-.025-.005-.05-.015-.073-.01-.024-.023-.045-.041-.063zm-7.95-6.658c-.994.991-2.311 1.537-3.713 1.537-1.401 0-2.719-.546-3.712-1.537-.992-.994-1.538-2.311-1.538-3.713 0-1.401.546-2.72 1.538-3.712.994-.992 2.31-1.538 3.712-1.538 1.402 0 2.721.544 3.713 1.538.991.994 1.537 2.31 1.537 3.712 0 1.402-.546 2.721-1.537 3.713z"/>
</svg>
