<svg xmlns="http://www.w3.org/2000/svg" width="24" height="24" fill="none" viewBox="0 0 24 24">
    <path fill="#fff" fill-rule="evenodd" d="M19.826 2.087h-4.174v2.087h4.174v15.652H4.174v-5.217H2.087v5.217c0 1.153.934 2.087 2.087 2.087h15.652c1.153 0 2.087-.934 2.087-2.087V4.174c0-1.153-.934-2.087-2.087-2.087zm-6.26 5.739c0 3.17-2.57 5.74-5.74 5.74-3.17 0-5.74-2.57-5.74-5.74 0-3.17 2.57-5.74 5.74-5.74 3.17 0 5.74 2.57 5.74 5.74zm-5.987 2.33c-.33.371-.865.371-1.195 0L4.696 8.26l1.019-1.145 1.267 1.422 2.955-3.32 1.02 1.145-3.378 3.795z" clip-rule="evenodd"/>
</svg>
