<svg xmlns="http://www.w3.org/2000/svg" width="24" height="24" fill="none" viewBox="0 0 24 24">
    <path fill="#fff" d="M20.03 6.764L14.986 1.72c-.14-.14-.33-.22-.53-.22H4.5c-.415 0-.75.335-.75.75v19.5c0 .415.335.75.75.75h15c.415 0 .75-.335.75-.75V7.296c0-.2-.08-.391-.22-.532zm-1.51.877h-4.41V3.23l4.41 4.41zm.043 13.171H5.438V3.188h7.078V8.25c0 .261.103.511.288.696.184.185.435.288.696.288h5.063v11.579zm-6.75-6.328H7.5c-.103 0-.188.085-.188.188v1.125c0 .103.085.187.188.187h4.313c.103 0 .187-.084.187-.187v-1.125c0-.103-.084-.188-.188-.188zm-4.5-3v1.125c0 .104.084.188.187.188h9c.103 0 .188-.085.188-.188v-1.125c0-.103-.085-.187-.188-.187h-9c-.103 0-.188.084-.188.187z"/>
</svg>
