<svg xmlns="http://www.w3.org/2000/svg" width="24" height="24" fill="none" viewBox="0 0 24 24">
    <path fill="#fff" fill-rule="evenodd" d="M3.927 9.163V3.927h5.237v5.236H3.927zM2.182 3.054c0-.482.39-.872.872-.872h6.982c.482 0 .873.39.873.872v6.982c0 .482-.39.873-.873.873H3.054c-.482 0-.872-.39-.872-.873V3.054zm1.745 17.018v-5.236h5.237v5.237H3.927zm-1.745-6.108c0-.482.39-.873.872-.873h6.982c.482 0 .873.39.873.873v6.981c0 .482-.39.873-.873.873H3.054c-.482 0-.872-.39-.872-.873v-6.982zM14.836 3.926v5.236h5.237V3.927h-5.237zm-.872-1.745c-.482 0-.873.39-.873.872v6.982c0 .482.39.873.873.873h6.981c.482 0 .873-.39.873-.873V3.054c0-.482-.39-.872-.873-.872h-6.981zm.872 17.89v-5.236h5.237v5.237h-5.237zm-1.745-6.108c0-.482.39-.873.873-.873h6.981c.482 0 .873.39.873.873v6.981c0 .482-.39.873-.873.873h-6.981c-.482 0-.873-.39-.873-.873v-6.982z" clip-rule="evenodd"/>
</svg>
