<svg xmlns="http://www.w3.org/2000/svg" width="24" height="24" fill="none" viewBox="0 0 24 24">
    <path fill="#fff" d="M19.5 1.5h-15c-.415 0-.75.335-.75.75v19.5c0 .415.335.75.75.75h15c.415 0 .75-.335.75-.75V2.25c0-.415-.335-.75-.75-.75zM5.437 3.188h13.125v4.874H5.438V3.189zm13.125 11.25H5.438V9.561h13.125v4.876zm0 6.374H5.438v-4.875h13.125v4.876zM7.126 5.626c0 .249.099.487.275.663.175.176.414.274.662.274.25 0 .488-.098.663-.274.176-.176.275-.414.275-.663 0-.249-.099-.487-.275-.663-.175-.176-.414-.274-.662-.274-.25 0-.488.098-.663.274-.176.176-.275.414-.275.663zm0 6.375c0 .249.099.487.275.663.175.176.414.274.662.274.25 0 .488-.098.663-.274.176-.176.275-.414.275-.663 0-.249-.099-.487-.275-.663-.175-.176-.414-.274-.662-.274-.25 0-.488.098-.663.274-.176.176-.275.414-.275.663zm0 6.375c0 .249.099.487.275.663.175.176.414.274.662.274.25 0 .488-.098.663-.274.176-.176.275-.414.275-.663 0-.249-.099-.487-.275-.663-.175-.176-.414-.274-.662-.274-.25 0-.488.098-.663.274-.176.176-.275.414-.275.663z"/>
</svg>
