<svg xmlns="http://www.w3.org/2000/svg" width="24" height="24" fill="none" viewBox="0 0 24 24">
    <path fill="#fff" fill-rule="evenodd" d="M4 20V4h16v16H4zM2 3c0-.552.448-1 1-1h18c.552 0 1 .448 1 1v18c0 .552-.448 1-1 1H3c-.552 0-1-.448-1-1V3zm15.832 7.555c.306-.46.182-1.08-.277-1.387-.46-.306-1.08-.182-1.387.277l-3.077 4.617-2.787-1.626c-.457-.266-1.042-.13-1.336.31l-1.8 2.7c-.306.459-.182 1.08.277 1.386.46.306 1.08.182 1.387-.277l1.278-1.917 2.786 1.626c.457.266 1.043.131 1.336-.31l3.6-5.4z" clip-rule="evenodd"/>
</svg>
