<svg xmlns="http://www.w3.org/2000/svg" width="40" height="40" fill="none" viewBox="0 0 40 40">
    <path fill="#fff" d="M35.476 3.333h-8.512c-1.827 0-3.612.669-5.149 1.93L20 6.75l-1.816-1.485c-1.535-1.262-3.322-1.932-5.149-1.931H4.523c-.658 0-1.19.678-1.19 1.518V31.8c0 .84.532 1.518 1.19 1.518h8.512c1.827 0 3.613.669 5.15 1.93l1.651 1.358c.048.038.104.061.16.061.056 0 .112-.019.16-.061l1.652-1.357c1.54-1.262 3.33-1.931 5.156-1.931h8.512c.658 0 1.19-.679 1.19-1.518V4.85c0-.84-.532-1.518-1.19-1.518zm-22.44 26.568H6.011V6.749h7.023c1.317 0 2.597.48 3.702 1.385l1.816 1.485.256.214V31.75c-1.77-1.214-3.75-1.85-5.774-1.85zm20.952 0h-7.024c-2.024 0-4.003.636-5.774 1.85V9.833l.257-.214 1.815-1.485c1.105-.906 2.385-1.385 3.702-1.385h7.024V29.9zm-18.27-17.08H8.805c-.145 0-.264.162-.264.356v2.135c0 .195.12.356.264.356h6.909c.145 0 .264-.161.264-.356v-2.135c.004-.194-.115-.355-.26-.355zm8.3.356v2.135c0 .195.119.356.264.356h6.908c.145 0 .264-.161.264-.356v-2.135c0-.194-.119-.355-.264-.355h-6.908c-.145 0-.265.16-.265.355zm-8.3 6.287H8.805c-.145 0-.264.16-.264.355v2.135c0 .195.12.356.264.356h6.909c.145 0 .264-.161.264-.356V19.82c.004-.194-.115-.355-.26-.355zm15.476 0h-6.912c-.145 0-.265.16-.265.355v2.135c0 .195.12.356.265.356h6.908c.145 0 .264-.161.264-.356V19.82c.004-.194-.115-.355-.26-.355z"/>
</svg>
