<?xml version="1.0" encoding="utf-8"?>
<!-- Generator: Adobe Illustrator 23.0.1, SVG Export Plug-In . SVG Version: 6.00 Build 0)  -->
<svg version="1.1" id="Layer_1" xmlns="http://www.w3.org/2000/svg" xmlns:xlink="http://www.w3.org/1999/xlink" x="0px" y="0px"
	 viewBox="0 0 54 54" style="enable-background:new 0 0 54 54;" xml:space="preserve">
<style type="text/css">
	.st0{fill-rule:evenodd;clip-rule:evenodd;fill:#E11F17;}
</style>
<path class="st0" d="M4.5,49.5V0H0v51.8C0,53,1,54,2.3,54H54v-4.5H4.5z M22.1,29.9c-6-5.6-9.6-13.2-13-22.4L13.4,6
	c3.4,9.1,6.6,15.8,11.8,20.6c1.9,1.7,4.1,3.3,6.6,4.6c0.5-0.5,1-0.9,1.4-1.4c5.3-5.6,8.5-13.3,11.9-23.7l4.3,1.4
	C46,17.9,42.5,26.5,36.5,32.9l-0.2,0.2c3.7,1.3,8.1,2.3,13.5,2.9l-0.5,4.5c-6.7-0.8-12.1-2.1-16.7-4c-5.7,4.3-13.1,7.1-23.2,8.5
	l-0.6-4.5c8.4-1.1,14.5-3.3,19.2-6.3C25.8,33,23.8,31.5,22.1,29.9L22.1,29.9z"/>
</svg>
