<?xml version="1.0" encoding="utf-8"?>
<!-- Generator: Adobe Illustrator 23.0.1, SVG Export Plug-In . SVG Version: 6.00 Build 0)  -->
<svg version="1.1" id="Layer_1" xmlns="http://www.w3.org/2000/svg" xmlns:xlink="http://www.w3.org/1999/xlink" x="0px" y="0px"
	 viewBox="0 0 54 54" style="enable-background:new 0 0 54 54;" xml:space="preserve">
<style type="text/css">
	.st0{fill-rule:evenodd;clip-rule:evenodd;fill:#E11F17;}
</style>
<path class="st0" d="M17.2,17c2.4-0.6,3.8-3.1,3.1-5.6c-0.6-2.4-3.1-3.9-5.5-3.2c-2.4,0.6-3.8,3.1-3.1,5.6
	C12.4,16.3,14.8,17.7,17.2,17z M18.5,21.9c5-1.4,8-6.6,6.7-11.7C23.8,5.1,18.6,2,13.6,3.4c-5,1.4-8,6.6-6.7,11.7
	C8.3,20.3,13.4,23.3,18.5,21.9L18.5,21.9z M28.8,35.2l-8.3,13.3h16.6L28.8,35.2L28.8,35.2z M30.9,29.1c-1-1.6-3.2-1.6-4.2,0
	L13.9,49.6c-1,1.7,0.1,3.9,2.1,3.9h25.7c2,0,3.1-2.2,2.1-3.9L30.9,29.1L30.9,29.1z M2.3,40.7l50.4-29.1l-2.3-3.9L0,36.8L2.3,40.7z"
	/>
</svg>
