<?xml version="1.0" encoding="utf-8"?>
<!-- Generator: Adobe Illustrator 23.0.1, SVG Export Plug-In . SVG Version: 6.00 Build 0)  -->
<svg version="1.1" id="Layer_1" xmlns="http://www.w3.org/2000/svg" xmlns:xlink="http://www.w3.org/1999/xlink" x="0px" y="0px"
	 viewBox="0 0 246 354" style="enable-background:new 0 0 246 354;" xml:space="preserve">
<style type="text/css">
	.st0{clip-path:url(#SVGID_2_);}
	.st1{fill:#F9681B;}
	.st2{fill-rule:evenodd;clip-rule:evenodd;fill:#FFFFFF;fill-opacity:0.2;}
	.st3{fill:none;stroke:#FFFFFF;}
	.st4{fill-rule:evenodd;clip-rule:evenodd;fill:#FFFFFF;fill-opacity:0.4;}
	.st5{fill-rule:evenodd;clip-rule:evenodd;fill:#1A1A1A;fill-opacity:0.2;}
	.st6{fill-rule:evenodd;clip-rule:evenodd;fill:#FFFFFF;fill-opacity:0.2;stroke:#FFFFFF;}
	.st7{fill-rule:evenodd;clip-rule:evenodd;fill:#FFFFFF;fill-opacity:0.4;stroke:#FFFFFF;}
	.st8{fill:#1A1A1A;fill-opacity:0.2;stroke:#FFFFFF;}
	.st9{fill-rule:evenodd;clip-rule:evenodd;fill:#1A1A1A;fill-opacity:0.2;stroke:#FFFFFF;}
	.st10{fill:#FFFFFF;}
	.st11{fill-rule:evenodd;clip-rule:evenodd;fill:#FFFFFF;}
</style>
<g>
	<defs>
		<rect id="SVGID_1_" width="246" height="354"/>
	</defs>
	<clipPath id="SVGID_2_">
		<use xlink:href="#SVGID_1_"  style="overflow:visible;"/>
	</clipPath>
	<g class="st0">
		<path class="st1" d="M0,0h246v354H0V0z"/>
		<path class="st2" d="M188.4,85.2v42.6c23.2,0,42.1-19.1,42.1-42.6"/>
		<path class="st3" d="M188.4,85.2v42.6c23.2,0,42.1-19.1,42.1-42.6H188.4z"/>
		<path class="st4" d="M188.4,311.2V354c-23.2,0-42.1-19.2-42.1-42.8"/>
		<path class="st3" d="M188.4,311.2V354c-23.2,0-42.1-19.2-42.1-42.8L188.4,311.2L188.4,311.2z"/>
		<path class="st4" d="M188.4,268.3v42.8c-23.2,0-42.1-19.2-42.1-42.8"/>
		<path class="st3" d="M188.4,268.3v42.8c-23.2,0-42.1-19.2-42.1-42.8L188.4,268.3L188.4,268.3z"/>
		<path class="st5" d="M188.4,268.3v-42.8c23.2,0,42.1,19.2,42.1,42.8"/>
		<path class="st3" d="M188.4,268.3v-42.8c23.2,0,42.1,19.2,42.1,42.8H188.4z"/>
		<path class="st6" d="M188.4,225.5h-42.1v42.8L188.4,225.5z M188.4,268.3h42.1v42.8L188.4,268.3L188.4,268.3z M188.4,311.2h42.1
			V354L188.4,311.2L188.4,311.2z"/>
		<path class="st7" d="M230.5,182.9h-42.1v42.6L230.5,182.9z M230.5,85.2h42.1V42.6L230.5,85.2z M188.4,225.5
			c0-11.8-9.4-21.3-21-21.3s-21,9.5-21,21.3H188.4z M230.5,42.6c0-11.8-9.4-21.3-21-21.3s-21,9.5-21,21.3H230.5z"/>
		<path class="st7" d="M230.5,0c0,11.8-9.4,21.3-21,21.3s-21-9.5-21-21.3H230.5L230.5,0z M272.5,268.1c0-11.8-9.4-21.3-21-21.3
			c-11.6,0-21,9.5-21,21.3H272.5z M272.5,225.5c0,11.8-9.4,21.3-21,21.3c-11.6,0-21-9.5-21-21.3L272.5,225.5L272.5,225.5z
			 M230.5,127.8c0,11.8-9.4,21.3-21,21.3s-21-9.5-21-21.3C188.4,127.8,230.5,127.8,230.5,127.8z"/>
		<path class="st6" d="M188.4,182.6c0-11.8-9.4-21.3-21-21.3s-21,9.5-21,21.3c0,11.8,9.4,21.3,21,21.3S188.4,194.3,188.4,182.6
			L188.4,182.6z"/>
		<path class="st7" d="M188.4,127.8h-42.1V85.2L188.4,127.8z"/>
		<path class="st8" d="M188.4,85.2h-42.1V42.6h42.1V85.2z"/>
		<path class="st8" d="M272.5,225.5h-42.1v-42.6h42.1V225.5z"/>
		<path class="st9" d="M188.4,0h-42.1v42.6L188.4,0L188.4,0z"/>
		<path class="st6" d="M230.6,85.2c0,23.5,17.7,42.6,39.4,42.6c21.8,0,39.4-19.1,39.4-42.6H230.6L230.6,85.2z"/>
		<path class="st9" d="M230.5,0c0,23.5,18.8,42.6,42.1,42.6c23.2,0,42.1-19.1,42.1-42.6H230.5L230.5,0z"/>
		<path class="st10" d="M20.8,47.6c0-0.4-0.2-0.7-0.5-1c-0.3-0.2-0.7-0.3-1.3-0.3c-0.4,0-0.7,0.1-0.9,0.2c-0.2,0.1-0.4,0.2-0.6,0.4
			c-0.1,0.2-0.2,0.4-0.2,0.6c0,0.2,0,0.4,0.1,0.5c0.1,0.1,0.2,0.3,0.4,0.4c0.1,0.1,0.3,0.2,0.5,0.3c0.2,0.1,0.4,0.1,0.6,0.2l0.9,0.2
			c0.5,0.1,0.9,0.2,1.2,0.4c0.4,0.2,0.7,0.4,1,0.6c0.3,0.3,0.5,0.5,0.6,0.9c0.2,0.3,0.2,0.7,0.2,1.2c0,0.6-0.2,1.2-0.5,1.7
			c-0.3,0.5-0.8,0.8-1.4,1.1c-0.6,0.3-1.3,0.4-2.2,0.4c-0.8,0-1.6-0.1-2.2-0.4c-0.6-0.3-1.1-0.6-1.4-1.2c-0.3-0.5-0.5-1.1-0.5-1.9
			h2.1c0,0.4,0.1,0.6,0.3,0.9c0.2,0.2,0.4,0.4,0.7,0.5c0.3,0.1,0.6,0.2,1,0.2c0.4,0,0.7-0.1,1-0.2c0.3-0.1,0.5-0.3,0.6-0.5
			c0.2-0.2,0.2-0.4,0.2-0.7c0-0.2-0.1-0.4-0.2-0.6c-0.1-0.2-0.3-0.3-0.6-0.4c-0.3-0.1-0.6-0.2-1-0.3l-1.1-0.3
			c-0.9-0.2-1.6-0.6-2.1-1c-0.5-0.5-0.8-1.1-0.8-1.8c0-0.6,0.2-1.2,0.5-1.7c0.3-0.5,0.8-0.8,1.4-1.1c0.6-0.3,1.3-0.4,2-0.4
			c0.8,0,1.4,0.1,2,0.4c0.6,0.3,1,0.6,1.3,1.1c0.3,0.5,0.5,1,0.5,1.7L20.8,47.6L20.8,47.6z M26.4,52.8l0-2.6h0.3l2.5-3h2.5l-3.3,4
			h-0.5C27.8,51.2,26.4,52.8,26.4,52.8z M24.4,55.1V44.6h2.2v10.5H24.4z M29.3,55.1L27,51.6l1.4-1.5l3.4,5L29.3,55.1L29.3,55.1z
			 M32.7,55.1v-7.9h2.2v7.9H32.7z M33.8,46.2c-0.3,0-0.6-0.1-0.8-0.3c-0.2-0.2-0.3-0.5-0.3-0.8c0-0.3,0.1-0.6,0.3-0.8
			c0.2-0.2,0.5-0.3,0.8-0.3c0.3,0,0.6,0.1,0.8,0.3c0.2,0.2,0.3,0.5,0.3,0.8c0,0.3-0.1,0.6-0.3,0.8C34.4,46.1,34.1,46.2,33.8,46.2
			L33.8,46.2z M38.8,44.6v10.5h-2.2V44.6L38.8,44.6L38.8,44.6z M42.6,44.6v10.5h-2.2V44.6L42.6,44.6L42.6,44.6z M50.8,49.4l-2,0.1
			c0-0.2-0.1-0.3-0.2-0.5c-0.1-0.1-0.3-0.3-0.4-0.3c-0.2-0.1-0.4-0.1-0.6-0.1c-0.3,0-0.6,0.1-0.8,0.2c-0.2,0.1-0.3,0.3-0.3,0.6
			c0,0.2,0.1,0.3,0.2,0.5s0.4,0.2,0.8,0.3l1.4,0.3c0.8,0.2,1.3,0.4,1.7,0.8c0.4,0.3,0.6,0.8,0.6,1.4c0,0.5-0.2,1-0.5,1.4
			c-0.3,0.4-0.7,0.7-1.2,0.9c-0.5,0.2-1.1,0.3-1.8,0.3c-1,0-1.8-0.2-2.5-0.7c-0.6-0.4-1-1-1.1-1.8l2.1-0.1c0.1,0.3,0.2,0.6,0.5,0.7
			c0.2,0.2,0.6,0.2,0.9,0.2c0.4,0,0.7-0.1,0.9-0.2c0.2-0.2,0.3-0.3,0.4-0.6c0-0.2-0.1-0.4-0.2-0.5c-0.2-0.1-0.4-0.2-0.7-0.3
			l-1.3-0.3c-0.8-0.2-1.3-0.4-1.7-0.8c-0.4-0.4-0.6-0.9-0.6-1.5c0-0.5,0.1-0.9,0.4-1.3c0.3-0.4,0.7-0.6,1.1-0.8
			c0.5-0.2,1.1-0.3,1.7-0.3c1,0,1.8,0.2,2.3,0.6C50.4,48.1,50.7,48.7,50.8,49.4L50.8,49.4z M61.3,47.6c0-0.4-0.2-0.7-0.5-1
			c-0.3-0.2-0.7-0.3-1.2-0.3c-0.4,0-0.7,0.1-0.9,0.2c-0.2,0.1-0.4,0.2-0.6,0.4c-0.1,0.2-0.2,0.4-0.2,0.6c0,0.2,0,0.4,0.1,0.5
			c0.1,0.1,0.2,0.3,0.4,0.4c0.2,0.1,0.3,0.2,0.5,0.3c0.2,0.1,0.4,0.1,0.6,0.2l0.9,0.2c0.5,0.1,0.9,0.2,1.2,0.4
			c0.4,0.2,0.7,0.4,1,0.6c0.3,0.3,0.5,0.5,0.6,0.9c0.2,0.3,0.2,0.7,0.2,1.2c0,0.6-0.2,1.2-0.5,1.7c-0.3,0.5-0.8,0.8-1.4,1.1
			c-0.6,0.3-1.3,0.4-2.2,0.4c-0.8,0-1.6-0.1-2.2-0.4c-0.6-0.3-1.1-0.6-1.4-1.2c-0.3-0.5-0.5-1.1-0.5-1.9h2.1c0,0.4,0.1,0.6,0.3,0.9
			c0.2,0.2,0.4,0.4,0.7,0.5c0.3,0.1,0.6,0.2,1,0.2c0.4,0,0.7-0.1,1-0.2c0.3-0.1,0.5-0.3,0.6-0.5c0.2-0.2,0.2-0.4,0.2-0.7
			c0-0.2-0.1-0.4-0.2-0.6c-0.1-0.2-0.3-0.3-0.6-0.4c-0.3-0.1-0.6-0.2-1-0.3l-1.1-0.3c-0.9-0.2-1.6-0.6-2.1-1
			c-0.5-0.5-0.8-1.1-0.8-1.8c0-0.6,0.2-1.2,0.5-1.7c0.3-0.5,0.8-0.8,1.4-1.1c0.6-0.3,1.3-0.4,2-0.4c0.8,0,1.4,0.1,2,0.4
			c0.6,0.3,1,0.6,1.3,1.1c0.3,0.5,0.5,1,0.5,1.7L61.3,47.6L61.3,47.6z M70,51.7v-4.5h2.2v7.9h-2.1v-1.4H70c-0.2,0.5-0.5,0.8-0.9,1.1
			c-0.4,0.3-0.9,0.4-1.5,0.4c-0.5,0-1-0.1-1.4-0.4c-0.4-0.2-0.7-0.6-0.9-1c-0.2-0.4-0.3-1-0.3-1.6v-5h2.2v4.6c0,0.5,0.1,0.8,0.4,1.1
			c0.2,0.3,0.6,0.4,1,0.4c0.3,0,0.5-0.1,0.7-0.2c0.2-0.1,0.4-0.3,0.5-0.5C69.9,52.4,70,52.1,70,51.7L70,51.7z M73.9,58V47.2H76v1.3
			h0.1c0.1-0.2,0.2-0.4,0.4-0.6c0.2-0.2,0.4-0.4,0.7-0.6c0.3-0.2,0.7-0.2,1.1-0.2c0.6,0,1.1,0.2,1.6,0.5c0.5,0.3,0.9,0.7,1.1,1.3
			c0.3,0.6,0.4,1.3,0.4,2.2c0,0.9-0.1,1.6-0.4,2.2c-0.3,0.6-0.7,1.1-1.1,1.4c-0.5,0.3-1,0.5-1.6,0.5c-0.4,0-0.8-0.1-1.1-0.2
			c-0.3-0.1-0.5-0.3-0.7-0.5c-0.2-0.2-0.3-0.4-0.4-0.7H76V58L73.9,58L73.9,58z M76,51.1c0,0.5,0.1,0.9,0.2,1.2
			c0.1,0.3,0.3,0.6,0.6,0.8c0.2,0.2,0.5,0.3,0.9,0.3c0.3,0,0.6-0.1,0.9-0.3c0.2-0.2,0.4-0.5,0.6-0.8c0.1-0.4,0.2-0.8,0.2-1.2
			c0-0.5-0.1-0.9-0.2-1.2s-0.3-0.6-0.6-0.8c-0.2-0.2-0.5-0.3-0.9-0.3c-0.3,0-0.6,0.1-0.9,0.3c-0.2,0.2-0.4,0.5-0.6,0.8
			C76,50.3,76,50.7,76,51.1L76,51.1z M82.9,58V47.2H85v1.3h0.1c0.1-0.2,0.2-0.4,0.4-0.6c0.2-0.2,0.4-0.4,0.7-0.6
			c0.3-0.2,0.7-0.2,1.1-0.2c0.6,0,1.1,0.2,1.6,0.5c0.5,0.3,0.9,0.7,1.1,1.3c0.3,0.6,0.4,1.3,0.4,2.2c0,0.9-0.1,1.6-0.4,2.2
			c-0.3,0.6-0.7,1.1-1.1,1.4c-0.5,0.3-1,0.5-1.6,0.5c-0.4,0-0.8-0.1-1.1-0.2c-0.3-0.1-0.5-0.3-0.7-0.5c-0.2-0.2-0.3-0.4-0.4-0.7H85
			V58C85,58,82.9,58,82.9,58z M85,51.1c0,0.5,0.1,0.9,0.2,1.2c0.1,0.3,0.3,0.6,0.6,0.8c0.2,0.2,0.5,0.3,0.9,0.3
			c0.3,0,0.6-0.1,0.9-0.3c0.2-0.2,0.4-0.5,0.6-0.8c0.1-0.4,0.2-0.8,0.2-1.2c0-0.5-0.1-0.9-0.2-1.2c-0.1-0.3-0.3-0.6-0.6-0.8
			c-0.2-0.2-0.5-0.3-0.9-0.3c-0.3,0-0.6,0.1-0.9,0.3c-0.2,0.2-0.4,0.5-0.6,0.8C85,50.3,85,50.7,85,51.1z M94,44.6v10.5h-2.2V44.6
			L94,44.6L94,44.6z M97.1,58c-0.3,0-0.5,0-0.8-0.1c-0.2,0-0.4-0.1-0.6-0.2l0.5-1.6c0.4,0.1,0.7,0.2,1,0.1c0.3-0.1,0.5-0.3,0.6-0.6
			l0.1-0.3l-2.8-8.1h2.3L99,53h0.1l1.6-5.8l2.3,0l-3,8.7c-0.1,0.4-0.3,0.8-0.6,1.1c-0.2,0.3-0.6,0.6-0.9,0.7
			C98.1,57.9,97.6,58,97.1,58z M17.3,70.9c-0.5,0-0.9-0.1-1.3-0.3c-0.4-0.2-0.7-0.4-0.9-0.8c-0.2-0.3-0.3-0.8-0.3-1.3
			c0-0.4,0.1-0.8,0.2-1.1s0.4-0.5,0.6-0.7c0.3-0.2,0.6-0.3,0.9-0.4c0.4-0.1,0.7-0.2,1.1-0.2c0.5,0,0.8-0.1,1.1-0.1
			c0.3,0,0.5-0.1,0.6-0.2c0.1-0.1,0.2-0.2,0.2-0.4v0c0-0.3-0.1-0.6-0.3-0.8c-0.2-0.2-0.5-0.3-0.9-0.3c-0.4,0-0.7,0.1-0.9,0.3
			c-0.2,0.2-0.4,0.4-0.5,0.6l-2-0.2c0.1-0.5,0.3-0.9,0.6-1.2s0.7-0.6,1.1-0.8c0.5-0.2,1-0.3,1.6-0.3c0.4,0,0.8,0.1,1.2,0.2
			c0.4,0.1,0.8,0.3,1.1,0.5c0.3,0.2,0.6,0.5,0.7,0.8c0.2,0.3,0.3,0.7,0.3,1.2v5.3h-2v-1.1h-0.1c-0.1,0.2-0.3,0.5-0.5,0.7
			c-0.2,0.2-0.5,0.3-0.8,0.4C18,70.9,17.7,70.9,17.3,70.9L17.3,70.9z M17.9,69.4c0.3,0,0.6-0.1,0.8-0.2c0.2-0.1,0.4-0.3,0.6-0.5
			c0.1-0.2,0.2-0.5,0.2-0.7v-0.8c-0.1,0-0.2,0.1-0.3,0.1c-0.1,0-0.2,0.1-0.4,0.1c-0.1,0-0.3,0.1-0.4,0.1l-0.4,0.1
			c-0.3,0-0.5,0.1-0.7,0.2c-0.2,0.1-0.3,0.2-0.4,0.3c-0.1,0.1-0.2,0.3-0.2,0.5c0,0.3,0.1,0.5,0.3,0.7C17.3,69.4,17.6,69.4,17.9,69.4
			L17.9,69.4z M25.5,66.3v4.5h-2.2v-7.9h2.1v1.4h0.1c0.2-0.5,0.5-0.8,0.9-1.1c0.4-0.3,0.9-0.4,1.5-0.4c0.5,0,1,0.1,1.4,0.4
			c0.4,0.2,0.7,0.6,0.9,1c0.2,0.4,0.3,1,0.3,1.6v5h-2.2v-4.6c0-0.5-0.1-0.9-0.4-1.1c-0.2-0.3-0.6-0.4-1-0.4c-0.3,0-0.5,0.1-0.8,0.2
			c-0.2,0.1-0.4,0.3-0.5,0.6C25.6,65.6,25.5,65.9,25.5,66.3L25.5,66.3z M35.1,70.9c-0.6,0-1.1-0.2-1.6-0.5c-0.5-0.3-0.9-0.8-1.1-1.4
			c-0.3-0.6-0.4-1.3-0.4-2.2c0-0.9,0.1-1.7,0.4-2.2c0.3-0.6,0.7-1,1.1-1.3c0.5-0.3,1-0.5,1.6-0.5c0.4,0,0.8,0.1,1.1,0.2
			c0.3,0.1,0.5,0.3,0.7,0.6c0.2,0.2,0.3,0.4,0.4,0.6h0.1v-3.9h2.2v10.5h-2.1v-1.3h-0.1c-0.1,0.2-0.2,0.4-0.4,0.7
			c-0.2,0.2-0.4,0.4-0.7,0.5C35.9,70.9,35.5,70.9,35.1,70.9z M35.8,69.2c0.3,0,0.6-0.1,0.9-0.3c0.2-0.2,0.4-0.5,0.6-0.8
			c0.1-0.3,0.2-0.8,0.2-1.2c0-0.5-0.1-0.9-0.2-1.2c-0.1-0.3-0.3-0.6-0.6-0.8c-0.2-0.2-0.5-0.3-0.9-0.3c-0.4,0-0.7,0.1-0.9,0.3
			s-0.4,0.5-0.6,0.8c-0.1,0.3-0.2,0.7-0.2,1.2c0,0.5,0.1,0.9,0.2,1.2c0.1,0.3,0.3,0.6,0.6,0.8C35.1,69.1,35.4,69.2,35.8,69.2z
			 M48.3,70.8h-3.7V60.3h3.7c1,0,1.9,0.2,2.7,0.6c0.8,0.4,1.3,1,1.7,1.8c0.4,0.8,0.6,1.7,0.6,2.8c0,1.1-0.2,2-0.6,2.8
			c-0.4,0.8-1,1.4-1.7,1.8C50.2,70.6,49.3,70.8,48.3,70.8L48.3,70.8z M46.8,68.9h1.4c0.6,0,1.2-0.1,1.6-0.3c0.4-0.2,0.8-0.6,1-1.1
			c0.2-0.5,0.3-1.1,0.3-1.9c0-0.8-0.1-1.4-0.3-1.9c-0.2-0.5-0.6-0.9-1-1.1c-0.4-0.2-1-0.3-1.6-0.3h-1.4V68.9z M58.5,71
			c-0.8,0-1.5-0.2-2.1-0.5c-0.6-0.3-1-0.8-1.3-1.4c-0.3-0.6-0.5-1.3-0.5-2.2c0-0.8,0.2-1.5,0.5-2.1s0.7-1.1,1.3-1.4
			c0.6-0.3,1.2-0.5,2-0.5c0.5,0,1,0.1,1.4,0.3c0.4,0.2,0.8,0.4,1.2,0.7c0.3,0.3,0.6,0.7,0.8,1.2c0.2,0.5,0.3,1.1,0.3,1.8v0.6h-6.6
			v-1.4H60c0-0.3-0.1-0.6-0.2-0.8s-0.3-0.4-0.6-0.6c-0.2-0.1-0.5-0.2-0.8-0.2c-0.3,0-0.6,0.1-0.9,0.2c-0.2,0.2-0.4,0.4-0.6,0.6
			c-0.1,0.3-0.2,0.5-0.2,0.8v1.3c0,0.4,0.1,0.7,0.2,1c0.1,0.3,0.3,0.5,0.6,0.7c0.3,0.2,0.6,0.2,0.9,0.2c0.2,0,0.5,0,0.7-0.1
			c0.2-0.1,0.4-0.2,0.5-0.3c0.1-0.1,0.3-0.3,0.3-0.5l2,0.1c-0.1,0.5-0.3,0.9-0.6,1.3c-0.3,0.4-0.7,0.6-1.2,0.8
			C59.7,70.9,59.1,71,58.5,71L58.5,71z M63.4,70.8v-7.9h2.1v1.4h0.1c0.2-0.5,0.4-0.8,0.8-1.1c0.4-0.3,0.8-0.4,1.4-0.4
			c0.5,0,1,0.1,1.4,0.4c0.4,0.3,0.6,0.6,0.7,1.1h0.1c0.2-0.5,0.4-0.8,0.9-1.1c0.4-0.3,0.9-0.4,1.5-0.4c0.7,0,1.3,0.2,1.8,0.7
			c0.5,0.5,0.7,1.1,0.7,2v5.3h-2.2v-4.9c0-0.4-0.1-0.8-0.3-1c-0.2-0.2-0.5-0.3-0.9-0.3c-0.4,0-0.7,0.1-0.9,0.4
			c-0.2,0.2-0.3,0.6-0.3,1v4.8h-2.1v-4.9c0-0.4-0.1-0.7-0.3-0.9c-0.2-0.2-0.5-0.3-0.9-0.3c-0.2,0-0.5,0.1-0.6,0.2
			c-0.2,0.1-0.3,0.3-0.4,0.5c-0.1,0.2-0.2,0.5-0.2,0.8v4.7C65.6,70.8,63.4,70.8,63.4,70.8z M78.7,70.9c-0.5,0-0.9-0.1-1.3-0.3
			c-0.4-0.2-0.7-0.4-0.9-0.8c-0.2-0.3-0.3-0.8-0.3-1.3c0-0.4,0.1-0.8,0.2-1.1s0.4-0.5,0.6-0.7s0.6-0.3,0.9-0.4
			c0.4-0.1,0.7-0.2,1.1-0.2c0.5,0,0.8-0.1,1.1-0.1c0.3,0,0.5-0.1,0.6-0.2c0.1-0.1,0.2-0.2,0.2-0.4v0c0-0.3-0.1-0.6-0.3-0.8
			c-0.2-0.2-0.5-0.3-0.8-0.3c-0.4,0-0.7,0.1-0.9,0.3c-0.2,0.2-0.4,0.4-0.5,0.6l-2-0.2c0.1-0.5,0.3-0.9,0.6-1.2
			c0.3-0.3,0.7-0.6,1.1-0.8c0.5-0.2,1-0.3,1.6-0.3c0.4,0,0.8,0.1,1.2,0.2c0.4,0.1,0.8,0.3,1.1,0.5c0.3,0.2,0.6,0.5,0.7,0.8
			c0.2,0.3,0.3,0.7,0.3,1.2v5.3h-2v-1.1h-0.1c-0.1,0.2-0.3,0.5-0.5,0.7c-0.2,0.2-0.5,0.3-0.8,0.4C79.4,70.9,79,70.9,78.7,70.9z
			 M79.3,69.4c0.3,0,0.6-0.1,0.8-0.2c0.2-0.1,0.4-0.3,0.6-0.5c0.1-0.2,0.2-0.5,0.2-0.7v-0.8c-0.1,0-0.2,0.1-0.3,0.1
			c-0.1,0-0.2,0.1-0.4,0.1c-0.1,0-0.3,0.1-0.4,0.1l-0.4,0.1c-0.3,0-0.5,0.1-0.7,0.2c-0.2,0.1-0.3,0.2-0.4,0.3
			c-0.1,0.1-0.2,0.3-0.2,0.5c0,0.3,0.1,0.5,0.3,0.7C78.7,69.4,78.9,69.4,79.3,69.4L79.3,69.4z M86.9,66.3v4.5h-2.2v-7.9h2.1v1.4h0.1
			c0.2-0.5,0.5-0.8,0.9-1.1c0.4-0.3,0.9-0.4,1.5-0.4c0.5,0,1,0.1,1.4,0.4c0.4,0.2,0.7,0.6,0.9,1c0.2,0.4,0.3,1,0.3,1.6v5h-2.2v-4.6
			c0-0.5-0.1-0.9-0.4-1.1c-0.2-0.3-0.6-0.4-1-0.4c-0.3,0-0.5,0.1-0.8,0.2c-0.2,0.1-0.4,0.3-0.5,0.6C86.9,65.6,86.9,65.9,86.9,66.3
			L86.9,66.3z M96.4,70.9c-0.6,0-1.1-0.2-1.6-0.5c-0.5-0.3-0.9-0.8-1.1-1.4c-0.3-0.6-0.4-1.3-0.4-2.2c0-0.9,0.1-1.7,0.4-2.2
			c0.3-0.6,0.7-1,1.1-1.3c0.5-0.3,1-0.5,1.6-0.5c0.4,0,0.8,0.1,1.1,0.2c0.3,0.1,0.5,0.3,0.7,0.6c0.2,0.2,0.3,0.4,0.4,0.6h0.1v-3.9
			h2.1v10.5h-2.1v-1.3h-0.1c-0.1,0.2-0.2,0.4-0.4,0.7c-0.2,0.2-0.4,0.4-0.7,0.5C97.2,70.9,96.8,70.9,96.4,70.9z M97.1,69.2
			c0.3,0,0.6-0.1,0.9-0.3c0.2-0.2,0.4-0.5,0.6-0.8c0.1-0.3,0.2-0.8,0.2-1.2c0-0.5-0.1-0.9-0.2-1.2c-0.1-0.3-0.3-0.6-0.6-0.8
			c-0.2-0.2-0.5-0.3-0.9-0.3c-0.4,0-0.7,0.1-0.9,0.3c-0.2,0.2-0.4,0.5-0.6,0.8c-0.1,0.3-0.2,0.7-0.2,1.2c0,0.5,0.1,0.9,0.2,1.2
			c0.1,0.3,0.3,0.6,0.6,0.8C96.5,69.1,96.7,69.2,97.1,69.2L97.1,69.2z M105.9,70.8v-7.9h2.2v7.9H105.9z M107,61.9
			c-0.3,0-0.6-0.1-0.8-0.3c-0.2-0.2-0.3-0.5-0.3-0.8c0-0.3,0.1-0.6,0.3-0.8c0.2-0.2,0.5-0.3,0.8-0.3c0.3,0,0.6,0.1,0.8,0.3
			c0.2,0.2,0.3,0.5,0.3,0.8c0,0.3-0.1,0.6-0.3,0.8C107.6,61.8,107.3,61.9,107,61.9L107,61.9z M111.9,66.3v4.5h-2.2v-7.9h2.1v1.4h0.1
			c0.2-0.5,0.5-0.8,0.9-1.1c0.4-0.3,0.9-0.4,1.5-0.4c0.5,0,1,0.1,1.4,0.4c0.4,0.2,0.7,0.6,0.9,1c0.2,0.4,0.3,1,0.3,1.6v5h-2.2v-4.6
			c0-0.5-0.1-0.9-0.4-1.1c-0.2-0.3-0.6-0.4-1-0.4c-0.3,0-0.5,0.1-0.8,0.2c-0.2,0.1-0.4,0.3-0.5,0.6C112,65.6,111.9,65.9,111.9,66.3
			L111.9,66.3z M20.8,79.1c0-0.4-0.2-0.7-0.5-1s-0.7-0.3-1.3-0.3c-0.4,0-0.7,0.1-0.9,0.2c-0.2,0.1-0.4,0.2-0.6,0.4
			c-0.1,0.2-0.2,0.4-0.2,0.6c0,0.2,0,0.4,0.1,0.5c0.1,0.1,0.2,0.3,0.4,0.4c0.1,0.1,0.3,0.2,0.5,0.3c0.2,0.1,0.4,0.1,0.6,0.2l0.9,0.2
			c0.5,0.1,0.9,0.2,1.2,0.4c0.4,0.2,0.7,0.4,1,0.6c0.3,0.2,0.5,0.5,0.6,0.9c0.2,0.3,0.2,0.7,0.2,1.2c0,0.6-0.2,1.2-0.5,1.7
			c-0.3,0.5-0.8,0.8-1.4,1.1c-0.6,0.3-1.3,0.4-2.2,0.4c-0.8,0-1.6-0.1-2.2-0.4c-0.6-0.3-1.1-0.6-1.4-1.2c-0.3-0.5-0.5-1.1-0.5-1.9
			h2.1c0,0.4,0.1,0.6,0.3,0.9c0.2,0.2,0.4,0.4,0.7,0.5c0.3,0.1,0.6,0.2,1,0.2c0.4,0,0.7-0.1,1-0.2c0.3-0.1,0.5-0.3,0.6-0.5
			c0.2-0.2,0.2-0.4,0.2-0.7c0-0.2-0.1-0.4-0.2-0.6c-0.1-0.2-0.3-0.3-0.6-0.4c-0.3-0.1-0.6-0.2-1-0.3l-1.1-0.3
			c-0.9-0.2-1.6-0.6-2.1-1c-0.5-0.5-0.8-1.1-0.8-1.8c0-0.6,0.2-1.2,0.5-1.7c0.3-0.5,0.8-0.8,1.4-1.1c0.6-0.3,1.3-0.4,2-0.4
			c0.8,0,1.4,0.1,2,0.4c0.6,0.3,1,0.6,1.3,1.1c0.3,0.5,0.5,1,0.5,1.7L20.8,79.1L20.8,79.1z M27.9,86.7c-0.8,0-1.5-0.2-2-0.5
			c-0.6-0.3-1-0.8-1.3-1.4c-0.3-0.6-0.5-1.3-0.5-2.1c0-0.8,0.2-1.5,0.5-2.1c0.3-0.6,0.8-1.1,1.3-1.4c0.6-0.3,1.3-0.5,2-0.5
			c0.8,0,1.5,0.2,2,0.5c0.6,0.3,1,0.8,1.3,1.4c0.3,0.6,0.5,1.3,0.5,2.1c0,0.8-0.2,1.5-0.5,2.1c-0.3,0.6-0.8,1.1-1.3,1.4
			C29.4,86.5,28.7,86.7,27.9,86.7z M28,85c0.4,0,0.7-0.1,0.9-0.3c0.2-0.2,0.4-0.5,0.5-0.8c0.1-0.4,0.2-0.8,0.2-1.2
			c0-0.5-0.1-0.9-0.2-1.2c-0.1-0.4-0.3-0.6-0.5-0.8c-0.2-0.2-0.5-0.3-0.9-0.3c-0.4,0-0.7,0.1-0.9,0.3c-0.2,0.2-0.4,0.5-0.6,0.8
			c-0.1,0.4-0.2,0.8-0.2,1.2c0,0.5,0.1,0.9,0.2,1.2c0.1,0.4,0.3,0.6,0.6,0.8C27.3,84.9,27.6,85,28,85z M38.2,83.2v-4.5h2.2v7.9h-2.1
			v-1.4h-0.1c-0.2,0.5-0.5,0.8-0.9,1.1c-0.4,0.3-0.9,0.4-1.5,0.4c-0.5,0-1-0.1-1.4-0.4c-0.4-0.2-0.7-0.6-0.9-1
			c-0.2-0.4-0.3-1-0.3-1.6v-5h2.2v4.6c0,0.5,0.1,0.8,0.4,1.1c0.2,0.3,0.6,0.4,1,0.4c0.3,0,0.5-0.1,0.7-0.2c0.2-0.1,0.4-0.3,0.5-0.5
			C38.1,83.8,38.2,83.5,38.2,83.2z M46.2,78.7v1.6h-4.7v-1.6H46.2L46.2,78.7z M42.5,76.8h2.2v7.3c0,0.2,0,0.4,0.1,0.5
			c0.1,0.1,0.1,0.2,0.3,0.2c0.1,0,0.2,0.1,0.4,0.1c0.1,0,0.2,0,0.3,0l0.2,0l0.3,1.6c-0.1,0-0.3,0.1-0.5,0.1c-0.2,0-0.4,0.1-0.7,0.1
			c-0.5,0-1-0.1-1.4-0.2c-0.4-0.2-0.7-0.4-0.9-0.7c-0.2-0.3-0.3-0.8-0.3-1.3C42.5,84.4,42.5,76.8,42.5,76.8z M49.9,82v4.5h-2.2V76
			h2.1v4h0.1c0.2-0.5,0.5-0.8,0.8-1.1c0.4-0.3,0.9-0.4,1.5-0.4c0.5,0,1,0.1,1.4,0.4c0.4,0.2,0.7,0.6,0.9,1c0.2,0.4,0.3,1,0.3,1.6v5
			h-2.2v-4.6c0-0.5-0.1-0.9-0.4-1.1c-0.2-0.3-0.6-0.4-1-0.4c-0.3,0-0.6,0.1-0.8,0.2c-0.2,0.1-0.4,0.3-0.5,0.6
			C50,81.4,49.9,81.6,49.9,82L49.9,82z M61.7,86.5h-2.3L63,76h2.8l3.6,10.5H67l-2.6-8.1h-0.1L61.7,86.5L61.7,86.5z M61.6,82.4h5.5
			v1.7h-5.5V82.4L61.6,82.4z M74.6,78.7v1.6h-4.8v-1.6H74.6L74.6,78.7z M70.9,86.5v-8.4c0-0.6,0.1-1,0.3-1.4
			c0.2-0.4,0.5-0.7,0.9-0.8c0.4-0.2,0.8-0.3,1.3-0.3c0.3,0,0.6,0,0.9,0.1c0.3,0.1,0.5,0.1,0.6,0.1l-0.4,1.6c-0.1,0-0.2-0.1-0.3-0.1
			c-0.1,0-0.2,0-0.4,0c-0.3,0-0.5,0.1-0.7,0.2c-0.1,0.1-0.2,0.4-0.2,0.6v8.4C73,86.5,70.9,86.5,70.9,86.5z M75.9,86.5v-7.9H78V80
			h0.1c0.1-0.5,0.4-0.9,0.7-1.1c0.3-0.3,0.7-0.4,1.2-0.4c0.1,0,0.2,0,0.3,0c0.1,0,0.2,0,0.3,0.1v1.9c-0.1,0-0.2-0.1-0.4-0.1
			c-0.2,0-0.3,0-0.5,0c-0.3,0-0.6,0.1-0.8,0.2c-0.2,0.1-0.4,0.3-0.6,0.6c-0.1,0.2-0.2,0.5-0.2,0.8v4.5
			C78.1,86.5,75.9,86.5,75.9,86.5z M81.7,86.5v-7.9h2.2v7.9H81.7z M82.8,77.7c-0.3,0-0.6-0.1-0.8-0.3c-0.2-0.2-0.3-0.5-0.3-0.8
			c0-0.3,0.1-0.6,0.3-0.8c0.2-0.2,0.5-0.3,0.8-0.3c0.3,0,0.6,0.1,0.8,0.3c0.2,0.2,0.3,0.5,0.3,0.8c0,0.3-0.1,0.6-0.3,0.8
			C83.4,77.5,83.1,77.7,82.8,77.7L82.8,77.7z M89.1,86.7c-0.8,0-1.5-0.2-2.1-0.5c-0.6-0.3-1-0.8-1.3-1.4c-0.3-0.6-0.5-1.3-0.5-2.1
			c0-0.8,0.2-1.5,0.5-2.1c0.3-0.6,0.8-1.1,1.3-1.4c0.6-0.3,1.2-0.5,2-0.5c0.7,0,1.3,0.1,1.8,0.4c0.5,0.3,0.9,0.6,1.2,1.1
			c0.3,0.4,0.5,1,0.5,1.6h-2c-0.1-0.4-0.2-0.7-0.5-0.9c-0.2-0.2-0.6-0.4-1-0.4c-0.3,0-0.6,0.1-0.9,0.3c-0.2,0.2-0.4,0.4-0.6,0.8
			s-0.2,0.8-0.2,1.3c0,0.5,0.1,0.9,0.2,1.3c0.1,0.4,0.3,0.6,0.6,0.8c0.3,0.2,0.5,0.3,0.9,0.3c0.2,0,0.5-0.1,0.7-0.2
			c0.2-0.1,0.4-0.3,0.5-0.4c0.1-0.2,0.2-0.4,0.3-0.7h2c0,0.6-0.2,1.1-0.5,1.6c-0.3,0.5-0.7,0.8-1.2,1.1
			C90.4,86.6,89.8,86.7,89.1,86.7L89.1,86.7z M96.2,86.7c-0.5,0-0.9-0.1-1.3-0.3c-0.4-0.2-0.7-0.4-0.9-0.8c-0.2-0.3-0.3-0.8-0.3-1.3
			c0-0.4,0.1-0.8,0.2-1.1c0.2-0.3,0.4-0.5,0.6-0.7c0.3-0.2,0.6-0.3,0.9-0.4c0.4-0.1,0.7-0.2,1.1-0.2c0.5,0,0.8-0.1,1.1-0.1
			c0.3,0,0.5-0.1,0.6-0.2s0.2-0.2,0.2-0.4v0c0-0.3-0.1-0.6-0.3-0.8c-0.2-0.2-0.5-0.3-0.8-0.3c-0.4,0-0.7,0.1-0.9,0.3
			c-0.2,0.2-0.4,0.4-0.5,0.6l-2-0.2c0.1-0.5,0.3-0.9,0.6-1.2c0.3-0.4,0.7-0.6,1.1-0.8c0.5-0.2,1-0.3,1.6-0.3c0.4,0,0.8,0.1,1.2,0.2
			c0.4,0.1,0.8,0.3,1.1,0.5c0.3,0.2,0.6,0.5,0.7,0.8c0.2,0.3,0.3,0.7,0.3,1.2v5.3h-2v-1.1h-0.1c-0.1,0.2-0.3,0.5-0.5,0.7
			c-0.2,0.2-0.5,0.3-0.8,0.4C96.9,86.6,96.6,86.7,96.2,86.7z M96.8,85.2c0.3,0,0.6-0.1,0.8-0.2c0.2-0.1,0.4-0.3,0.6-0.5
			c0.1-0.2,0.2-0.5,0.2-0.7v-0.8c-0.1,0-0.2,0.1-0.3,0.1c-0.1,0-0.2,0.1-0.4,0.1c-0.1,0-0.3,0.1-0.4,0.1l-0.4,0.1
			c-0.3,0-0.5,0.1-0.7,0.2c-0.2,0.1-0.3,0.2-0.4,0.3c-0.1,0.1-0.2,0.3-0.2,0.5c0,0.3,0.1,0.5,0.3,0.7C96.2,85.1,96.5,85.2,96.8,85.2
			z"/>
		<path class="st11" d="M50.5,0H14.2v24.9h36.3V0z M20,17.9V19h5v-1.2h-3v0l1-1c0.5-0.4,0.9-0.8,1.1-1.1c0.3-0.3,0.5-0.6,0.6-0.9
			c0.1-0.3,0.2-0.5,0.2-0.8c0-0.4-0.1-0.8-0.3-1.1c-0.2-0.3-0.5-0.6-0.9-0.7c-0.4-0.2-0.8-0.3-1.3-0.3c-0.5,0-0.9,0.1-1.3,0.3
			c-0.4,0.2-0.7,0.5-0.9,0.8c-0.2,0.3-0.3,0.8-0.3,1.2h1.4c0-0.2,0-0.4,0.1-0.6s0.2-0.3,0.4-0.4C22,13,22.2,13,22.4,13
			c0.2,0,0.4,0,0.6,0.1c0.2,0.1,0.3,0.2,0.4,0.4c0.1,0.2,0.1,0.3,0.1,0.5c0,0.2,0,0.4-0.1,0.5c-0.1,0.2-0.2,0.3-0.3,0.5
			c-0.1,0.2-0.3,0.4-0.5,0.6C22.5,15.6,20,17.9,20,17.9z M27.3,18.7c0.4,0.3,0.9,0.4,1.5,0.4c0.6,0,1.1-0.1,1.5-0.4
			c0.4-0.3,0.8-0.7,1-1.3c0.2-0.6,0.3-1.2,0.3-2c0-0.8-0.1-1.4-0.3-2c-0.2-0.6-0.6-1-1-1.3c-0.4-0.3-0.9-0.4-1.5-0.4
			c-0.6,0-1.1,0.1-1.5,0.4c-0.4,0.3-0.8,0.7-1,1.3c-0.2,0.6-0.3,1.2-0.3,2c0,0.8,0.1,1.5,0.3,2C26.6,18,26.9,18.4,27.3,18.7z
			 M29.8,17.3c-0.2,0.4-0.6,0.6-1,0.6c-0.3,0-0.5-0.1-0.7-0.3c-0.2-0.2-0.4-0.5-0.5-0.8c-0.1-0.4-0.2-0.8-0.2-1.4
			c0-0.8,0.1-1.4,0.4-1.8c0.2-0.4,0.6-0.6,1-0.6c0.3,0,0.5,0.1,0.7,0.3c0.2,0.2,0.4,0.5,0.5,0.8c0.1,0.4,0.2,0.8,0.2,1.4
			C30.2,16.3,30.1,16.9,29.8,17.3z M32.8,19v-1.1l2.5-2.4c0.2-0.2,0.4-0.4,0.5-0.6c0.1-0.2,0.3-0.3,0.3-0.5c0.1-0.2,0.1-0.3,0.1-0.5
			c0-0.2,0-0.4-0.1-0.5c-0.1-0.2-0.2-0.3-0.4-0.4C35.6,13,35.4,13,35.2,13c-0.2,0-0.4,0-0.6,0.1c-0.2,0.1-0.3,0.2-0.4,0.4
			s-0.1,0.4-0.1,0.6h-1.4c0-0.5,0.1-0.9,0.3-1.2c0.2-0.3,0.5-0.6,0.9-0.8c0.4-0.2,0.8-0.3,1.3-0.3c0.5,0,0.9,0.1,1.3,0.3
			c0.4,0.2,0.7,0.4,0.9,0.7c0.2,0.3,0.3,0.7,0.3,1.1c0,0.3-0.1,0.5-0.2,0.8c-0.1,0.3-0.3,0.6-0.6,0.9c-0.3,0.3-0.6,0.7-1.1,1.1l-1,1
			v0h3V19C37.8,19,32.8,19,32.8,19z M40.1,18.7c0.4,0.3,0.9,0.4,1.5,0.4c0.6,0,1.1-0.1,1.5-0.4c0.4-0.3,0.8-0.7,1-1.3
			c0.2-0.6,0.3-1.2,0.3-2c0-0.8-0.1-1.4-0.3-2c-0.2-0.6-0.6-1-1-1.3c-0.4-0.3-0.9-0.4-1.5-0.4c-0.6,0-1.1,0.1-1.5,0.4
			c-0.4,0.3-0.8,0.7-1,1.3c-0.2,0.6-0.3,1.2-0.3,2c0,0.8,0.1,1.5,0.3,2C39.4,18,39.7,18.4,40.1,18.7z M42.6,17.3
			c-0.2,0.4-0.6,0.6-1,0.6c-0.3,0-0.5-0.1-0.7-0.3c-0.2-0.2-0.4-0.5-0.5-0.8c-0.1-0.4-0.2-0.8-0.2-1.4c0-0.8,0.1-1.4,0.4-1.8
			c0.2-0.4,0.6-0.6,1-0.6c0.3,0,0.5,0.1,0.7,0.3c0.2,0.2,0.4,0.5,0.5,0.8c0.1,0.4,0.2,0.8,0.2,1.4C43,16.3,42.9,16.9,42.6,17.3z"/>
		<path class="st10" d="M14.8,111.4v-5.7h1v4.9h2.5v0.9H14.8z M20.8,111.5c-0.3,0-0.5,0-0.7-0.1c-0.2-0.1-0.4-0.2-0.5-0.4
			c-0.1-0.2-0.2-0.4-0.2-0.7c0-0.2,0-0.4,0.1-0.6c0.1-0.2,0.2-0.3,0.4-0.4c0.2-0.1,0.3-0.2,0.5-0.2c0.2-0.1,0.4-0.1,0.6-0.1
			c0.2,0,0.5,0,0.6-0.1c0.2,0,0.3-0.1,0.3-0.1c0.1,0,0.1-0.1,0.1-0.2v0c0-0.2-0.1-0.4-0.2-0.5c-0.1-0.1-0.3-0.2-0.5-0.2
			c-0.2,0-0.4,0.1-0.6,0.2c-0.1,0.1-0.2,0.2-0.3,0.4l-0.9-0.1c0.1-0.3,0.2-0.5,0.4-0.7c0.2-0.2,0.4-0.3,0.6-0.4
			c0.2-0.1,0.5-0.1,0.8-0.1c0.2,0,0.4,0,0.6,0.1c0.2,0,0.4,0.1,0.6,0.2c0.2,0.1,0.3,0.3,0.4,0.4c0.1,0.2,0.2,0.4,0.2,0.7v2.9h-1
			v-0.6h0c-0.1,0.1-0.1,0.2-0.3,0.3c-0.1,0.1-0.2,0.2-0.4,0.2C21.2,111.5,21,111.5,20.8,111.5L20.8,111.5z M21,110.8
			c0.2,0,0.4,0,0.5-0.1c0.1-0.1,0.3-0.2,0.3-0.3c0.1-0.1,0.1-0.3,0.1-0.4v-0.5c0,0-0.1,0.1-0.2,0.1c-0.1,0-0.2,0-0.2,0.1
			c-0.1,0-0.2,0-0.3,0l-0.2,0c-0.1,0-0.3,0.1-0.4,0.1c-0.1,0-0.2,0.1-0.3,0.2c-0.1,0.1-0.1,0.2-0.1,0.3c0,0.2,0.1,0.3,0.2,0.4
			C20.6,110.7,20.8,110.8,21,110.8L21,110.8z M24.4,111.4v-5.7h1v2.1h0c0.1-0.1,0.1-0.2,0.2-0.3c0.1-0.1,0.2-0.2,0.4-0.3
			c0.2-0.1,0.4-0.1,0.6-0.1c0.3,0,0.6,0.1,0.9,0.3c0.3,0.2,0.5,0.4,0.6,0.7c0.2,0.3,0.2,0.7,0.2,1.2c0,0.5-0.1,0.9-0.2,1.2
			c-0.2,0.3-0.4,0.6-0.6,0.8c-0.3,0.2-0.6,0.3-0.9,0.3c-0.2,0-0.4,0-0.6-0.1s-0.3-0.2-0.4-0.3c-0.1-0.1-0.2-0.2-0.2-0.3h-0.1v0.7
			H24.4L24.4,111.4z M25.4,109.3c0,0.3,0,0.5,0.1,0.7c0.1,0.2,0.2,0.4,0.3,0.5c0.1,0.1,0.3,0.2,0.5,0.2c0.2,0,0.4-0.1,0.6-0.2
			c0.1-0.1,0.3-0.3,0.3-0.5c0.1-0.2,0.1-0.4,0.1-0.7c0-0.3,0-0.5-0.1-0.7c-0.1-0.2-0.2-0.4-0.3-0.5c-0.1-0.1-0.3-0.2-0.6-0.2
			c-0.2,0-0.4,0.1-0.5,0.2c-0.1,0.1-0.3,0.3-0.3,0.5C25.5,108.8,25.4,109,25.4,109.3z M31.5,111.5c-0.4,0-0.8-0.1-1.1-0.3
			c-0.3-0.2-0.5-0.4-0.7-0.8c-0.2-0.3-0.2-0.7-0.2-1.2s0.1-0.8,0.2-1.2c0.2-0.3,0.4-0.6,0.7-0.8c0.3-0.2,0.7-0.3,1.1-0.3
			c0.4,0,0.8,0.1,1.1,0.3c0.3,0.2,0.5,0.4,0.7,0.8c0.2,0.3,0.3,0.7,0.3,1.2s-0.1,0.8-0.3,1.2c-0.2,0.3-0.4,0.6-0.7,0.8
			C32.3,111.4,31.9,111.5,31.5,111.5z M31.5,110.7c0.2,0,0.4-0.1,0.6-0.2c0.2-0.1,0.3-0.3,0.3-0.5c0.1-0.2,0.1-0.4,0.1-0.7
			c0-0.3,0-0.5-0.1-0.7c-0.1-0.2-0.2-0.4-0.3-0.5c-0.2-0.1-0.3-0.2-0.6-0.2c-0.2,0-0.4,0.1-0.6,0.2c-0.1,0.1-0.3,0.3-0.3,0.5
			c-0.1,0.2-0.1,0.4-0.1,0.7c0,0.3,0,0.5,0.1,0.7c0.1,0.2,0.2,0.4,0.3,0.5C31.1,110.7,31.3,110.7,31.5,110.7z M37.5,109.6v-2.5h1
			v4.3h-1v-0.8h0c-0.1,0.2-0.3,0.4-0.5,0.6c-0.2,0.2-0.5,0.2-0.8,0.2c-0.3,0-0.5-0.1-0.7-0.2c-0.2-0.1-0.4-0.3-0.5-0.6
			c-0.1-0.2-0.2-0.5-0.2-0.9v-2.7h1v2.6c0,0.3,0.1,0.5,0.2,0.6s0.3,0.2,0.6,0.2c0.1,0,0.3,0,0.4-0.1c0.1-0.1,0.3-0.2,0.3-0.3
			C37.4,110,37.5,109.9,37.5,109.6z M39.9,111.4v-4.3h1v0.7h0c0.1-0.2,0.2-0.4,0.4-0.6c0.2-0.1,0.4-0.2,0.6-0.2c0.1,0,0.1,0,0.2,0
			c0.1,0,0.1,0,0.2,0v0.9c0,0-0.1,0-0.2,0c-0.1,0-0.2,0-0.3,0c-0.2,0-0.3,0-0.5,0.1c-0.1,0.1-0.3,0.2-0.3,0.3
			c-0.1,0.1-0.1,0.3-0.1,0.5v2.5C40.9,111.4,39.9,111.4,39.9,111.4z M45.7,105.7H47l1.7,4.1h0.1l1.7-4.1h1.3v5.7h-1v-3.9h-0.1
			l-1.6,3.9h-0.7l-1.6-3.9h-0.1v3.9h-1C45.7,111.4,45.7,105.7,45.7,105.7z M54.3,111.5c-0.3,0-0.5,0-0.7-0.1
			c-0.2-0.1-0.4-0.2-0.5-0.4c-0.1-0.2-0.2-0.4-0.2-0.7c0-0.2,0-0.4,0.1-0.6c0.1-0.2,0.2-0.3,0.4-0.4c0.2-0.1,0.3-0.2,0.5-0.2
			c0.2-0.1,0.4-0.1,0.6-0.1c0.2,0,0.5,0,0.6-0.1c0.2,0,0.3-0.1,0.3-0.1c0.1,0,0.1-0.1,0.1-0.2v0c0-0.2-0.1-0.4-0.2-0.5
			c-0.1-0.1-0.3-0.2-0.5-0.2c-0.2,0-0.4,0.1-0.6,0.2c-0.1,0.1-0.2,0.2-0.3,0.4l-0.9-0.1c0.1-0.3,0.2-0.5,0.4-0.7
			c0.2-0.2,0.4-0.3,0.6-0.4c0.2-0.1,0.5-0.1,0.8-0.1c0.2,0,0.4,0,0.6,0.1c0.2,0,0.4,0.1,0.6,0.2c0.2,0.1,0.3,0.3,0.4,0.4
			c0.1,0.2,0.2,0.4,0.2,0.7v2.9h-1v-0.6h0c-0.1,0.1-0.1,0.2-0.3,0.3c-0.1,0.1-0.2,0.2-0.4,0.2C54.7,111.5,54.6,111.5,54.3,111.5
			L54.3,111.5z M54.6,110.8c0.2,0,0.4,0,0.5-0.1c0.1-0.1,0.3-0.2,0.3-0.3c0.1-0.1,0.1-0.3,0.1-0.4v-0.5c0,0-0.1,0.1-0.2,0.1
			c-0.1,0-0.2,0-0.2,0.1c-0.1,0-0.2,0-0.3,0l-0.2,0c-0.2,0-0.3,0.1-0.4,0.1c-0.1,0-0.2,0.1-0.3,0.2c-0.1,0.1-0.1,0.2-0.1,0.3
			c0,0.2,0.1,0.3,0.2,0.4C54.2,110.7,54.4,110.8,54.6,110.8L54.6,110.8z M58,111.4v-4.3h1v0.7h0c0.1-0.2,0.2-0.4,0.4-0.6
			c0.2-0.1,0.4-0.2,0.6-0.2c0.1,0,0.1,0,0.2,0c0.1,0,0.1,0,0.2,0v0.9c0,0-0.1,0-0.2,0c-0.1,0-0.2,0-0.3,0c-0.2,0-0.3,0-0.5,0.1
			c-0.1,0.1-0.3,0.2-0.3,0.3c-0.1,0.1-0.1,0.3-0.1,0.5v2.5C59,111.4,58,111.4,58,111.4z M62.3,110.1l0-1.2h0.2l1.5-1.7h1.2l-1.9,2.1
			h-0.2L62.3,110.1z M61.4,111.4v-5.7h1v5.7H61.4z M64.1,111.4l-1.4-2l0.7-0.7l1.9,2.7H64.1z M67.9,111.5c-0.4,0-0.8-0.1-1.1-0.3
			c-0.3-0.2-0.5-0.4-0.7-0.8c-0.2-0.3-0.2-0.7-0.2-1.2c0-0.4,0.1-0.8,0.2-1.2c0.2-0.3,0.4-0.6,0.7-0.8c0.3-0.2,0.7-0.3,1.1-0.3
			c0.3,0,0.5,0,0.7,0.1c0.2,0.1,0.4,0.2,0.6,0.4c0.2,0.2,0.3,0.4,0.4,0.7c0.1,0.3,0.2,0.6,0.2,1v0.3h-3.5v-0.7h2.5
			c0-0.2,0-0.4-0.1-0.5c-0.1-0.2-0.2-0.3-0.3-0.4c-0.1-0.1-0.3-0.1-0.5-0.1c-0.2,0-0.4,0.1-0.5,0.2c-0.2,0.1-0.3,0.2-0.4,0.4
			c-0.1,0.2-0.1,0.3-0.1,0.5v0.6c0,0.2,0,0.5,0.1,0.6c0.1,0.2,0.2,0.3,0.4,0.4c0.2,0.1,0.3,0.1,0.6,0.1c0.1,0,0.3,0,0.4-0.1
			c0.1,0,0.2-0.1,0.3-0.2c0.1-0.1,0.2-0.2,0.2-0.3l0.9,0.1c-0.1,0.2-0.2,0.5-0.3,0.7c-0.2,0.2-0.4,0.3-0.6,0.4
			C68.6,111.5,68.3,111.5,67.9,111.5L67.9,111.5z M73.2,107.2v0.8h-2.4v-0.8H73.2z M71.3,106.1h1v4c0,0.1,0,0.2,0.1,0.3
			c0,0.1,0.1,0.1,0.2,0.1c0.1,0,0.1,0,0.2,0c0.1,0,0.1,0,0.2,0c0.1,0,0.1,0,0.1,0l0.2,0.8c-0.1,0-0.1,0-0.2,0.1c-0.1,0-0.2,0-0.4,0
			c-0.3,0-0.5,0-0.7-0.1c-0.2-0.1-0.4-0.2-0.5-0.4c-0.1-0.2-0.2-0.4-0.2-0.7C71.3,110.3,71.3,106.1,71.3,106.1z M15.8,117.5v5.7h-1
			v-5.7H15.8z M18.3,120.7v2.5h-1V119h1v0.7h0c0.1-0.2,0.3-0.4,0.5-0.6c0.2-0.1,0.5-0.2,0.8-0.2c0.3,0,0.5,0.1,0.8,0.2
			c0.2,0.1,0.4,0.3,0.5,0.6c0.1,0.2,0.2,0.5,0.2,0.9v2.7h-1v-2.6c0-0.3-0.1-0.5-0.2-0.7c-0.1-0.2-0.3-0.2-0.6-0.2
			c-0.2,0-0.3,0-0.5,0.1c-0.1,0.1-0.2,0.2-0.3,0.3C18.3,120.3,18.3,120.5,18.3,120.7L18.3,120.7z M24.5,119v0.8h-2.4V119H24.5z
			 M22.7,117.9h1v4c0,0.1,0,0.2,0.1,0.3c0,0.1,0.1,0.1,0.2,0.1c0.1,0,0.1,0,0.2,0c0.1,0,0.1,0,0.2,0c0.1,0,0.1,0,0.1,0l0.2,0.8
			c-0.1,0-0.1,0-0.2,0.1c-0.1,0-0.2,0-0.4,0c-0.3,0-0.5,0-0.7-0.1c-0.2-0.1-0.4-0.2-0.5-0.4c-0.1-0.2-0.2-0.4-0.2-0.7
			C22.7,122.1,22.7,117.9,22.7,117.9z M27.6,123.3c-0.4,0-0.8-0.1-1.1-0.3c-0.3-0.2-0.5-0.4-0.7-0.8c-0.2-0.3-0.2-0.7-0.2-1.2
			c0-0.4,0.1-0.8,0.2-1.2c0.2-0.3,0.4-0.6,0.7-0.8c0.3-0.2,0.7-0.3,1.1-0.3c0.3,0,0.5,0,0.7,0.1c0.2,0.1,0.4,0.2,0.6,0.4
			c0.2,0.2,0.3,0.4,0.4,0.7c0.1,0.3,0.2,0.6,0.2,1v0.3H26v-0.7h2.5c0-0.2,0-0.4-0.1-0.5c-0.1-0.2-0.2-0.3-0.3-0.4
			c-0.1-0.1-0.3-0.1-0.5-0.1c-0.2,0-0.4,0.1-0.5,0.2c-0.2,0.1-0.3,0.2-0.4,0.4c-0.1,0.2-0.1,0.3-0.1,0.5v0.6c0,0.2,0,0.5,0.1,0.6
			c0.1,0.2,0.2,0.3,0.4,0.4c0.2,0.1,0.4,0.1,0.6,0.1c0.1,0,0.3,0,0.4-0.1c0.1,0,0.2-0.1,0.3-0.2c0.1-0.1,0.2-0.2,0.2-0.3l0.9,0.1
			c-0.1,0.2-0.2,0.5-0.3,0.7c-0.2,0.2-0.4,0.3-0.6,0.4C28.2,123.3,27.9,123.3,27.6,123.3L27.6,123.3z M31.7,117.5v5.7h-1v-5.7H31.7z
			 M34.1,117.5v5.7h-1v-5.7H34.1z M35.5,123.2V119h1v4.3H35.5z M36,118.3c-0.2,0-0.3-0.1-0.4-0.2c-0.1-0.1-0.2-0.2-0.2-0.4
			c0-0.2,0.1-0.3,0.2-0.4c0.1-0.1,0.3-0.2,0.4-0.2c0.2,0,0.3,0.1,0.4,0.2c0.1,0.1,0.2,0.2,0.2,0.4c0,0.2-0.1,0.3-0.2,0.4
			C36.3,118.3,36.2,118.3,36,118.3z M39.8,124.9c-0.4,0-0.7,0-0.9-0.1s-0.5-0.2-0.6-0.4c-0.2-0.2-0.3-0.3-0.3-0.5l0.9-0.2
			c0,0.1,0.1,0.2,0.2,0.2c0.1,0.1,0.2,0.2,0.3,0.2c0.1,0.1,0.3,0.1,0.5,0.1c0.3,0,0.5-0.1,0.7-0.2c0.2-0.1,0.3-0.4,0.3-0.7v-0.8h0
			c-0.1,0.1-0.1,0.2-0.2,0.3c-0.1,0.1-0.2,0.2-0.4,0.3c-0.2,0.1-0.4,0.1-0.6,0.1c-0.3,0-0.6-0.1-0.9-0.2c-0.3-0.2-0.5-0.4-0.6-0.7
			c-0.2-0.3-0.2-0.7-0.2-1.2c0-0.5,0.1-0.9,0.2-1.2c0.2-0.3,0.4-0.6,0.6-0.7c0.3-0.2,0.6-0.3,0.9-0.3c0.2,0,0.5,0,0.6,0.1
			c0.2,0.1,0.3,0.2,0.4,0.3c0.1,0.1,0.2,0.2,0.2,0.3h0.1V119h1v4.4c0,0.4-0.1,0.7-0.3,0.9c-0.2,0.2-0.4,0.4-0.7,0.5
			C40.5,124.9,40.2,124.9,39.8,124.9L39.8,124.9z M39.8,122.4c0.2,0,0.4-0.1,0.5-0.2c0.2-0.1,0.3-0.3,0.3-0.4
			c0.1-0.2,0.1-0.4,0.1-0.7c0-0.3,0-0.5-0.1-0.7c-0.1-0.2-0.2-0.4-0.3-0.5c-0.1-0.1-0.3-0.2-0.5-0.2c-0.2,0-0.4,0.1-0.6,0.2
			c-0.1,0.1-0.3,0.3-0.3,0.5c-0.1,0.2-0.1,0.4-0.1,0.7c0,0.3,0,0.5,0.1,0.7c0.1,0.2,0.2,0.3,0.3,0.5
			C39.4,122.3,39.6,122.4,39.8,122.4L39.8,122.4z M45,123.3c-0.4,0-0.8-0.1-1.1-0.3c-0.3-0.2-0.5-0.4-0.7-0.8
			c-0.2-0.3-0.2-0.7-0.2-1.2c0-0.4,0.1-0.8,0.2-1.2c0.2-0.3,0.4-0.6,0.7-0.8c0.3-0.2,0.7-0.3,1.1-0.3c0.3,0,0.5,0,0.7,0.1
			c0.2,0.1,0.4,0.2,0.6,0.4c0.2,0.2,0.3,0.4,0.4,0.7c0.1,0.3,0.2,0.6,0.2,1v0.3h-3.5v-0.7H46c0-0.2,0-0.4-0.1-0.5
			c-0.1-0.2-0.2-0.3-0.3-0.4c-0.1-0.1-0.3-0.1-0.5-0.1c-0.2,0-0.4,0.1-0.5,0.2c-0.2,0.1-0.3,0.2-0.4,0.4c-0.1,0.2-0.1,0.3-0.1,0.5
			v0.6c0,0.2,0,0.5,0.1,0.6c0.1,0.2,0.2,0.3,0.4,0.4c0.2,0.1,0.4,0.1,0.6,0.1c0.1,0,0.3,0,0.4-0.1c0.1,0,0.2-0.1,0.3-0.2
			c0.1-0.1,0.2-0.2,0.2-0.3l0.9,0.1c-0.1,0.2-0.2,0.5-0.3,0.7c-0.2,0.2-0.4,0.3-0.6,0.4C45.7,123.3,45.4,123.3,45,123.3L45,123.3z
			 M49.2,120.7v2.5h-1V119h1v0.7h0c0.1-0.2,0.3-0.4,0.5-0.6c0.2-0.1,0.5-0.2,0.8-0.2c0.3,0,0.5,0.1,0.8,0.2c0.2,0.1,0.4,0.3,0.5,0.6
			c0.1,0.2,0.2,0.5,0.2,0.9v2.7h-1v-2.6c0-0.3-0.1-0.5-0.2-0.7c-0.1-0.2-0.3-0.2-0.6-0.2c-0.2,0-0.3,0-0.5,0.1
			c-0.1,0.1-0.2,0.2-0.3,0.3C49.2,120.3,49.2,120.5,49.2,120.7L49.2,120.7z M55.1,123.3c-0.4,0-0.8-0.1-1.1-0.3
			c-0.3-0.2-0.5-0.4-0.7-0.8c-0.2-0.3-0.2-0.7-0.2-1.2c0-0.4,0.1-0.8,0.2-1.2c0.2-0.3,0.4-0.6,0.7-0.8c0.3-0.2,0.7-0.3,1.1-0.3
			c0.3,0,0.6,0.1,0.9,0.2c0.3,0.1,0.5,0.3,0.6,0.5c0.2,0.2,0.2,0.5,0.3,0.8h-1c0-0.2-0.1-0.4-0.3-0.5c-0.1-0.1-0.3-0.2-0.6-0.2
			c-0.2,0-0.4,0.1-0.5,0.2c-0.2,0.1-0.3,0.3-0.4,0.5c-0.1,0.2-0.1,0.5-0.1,0.7c0,0.3,0,0.5,0.1,0.8c0.1,0.2,0.2,0.4,0.4,0.5
			c0.2,0.1,0.3,0.2,0.5,0.2c0.1,0,0.3,0,0.4-0.1c0.1-0.1,0.2-0.1,0.3-0.2c0.1-0.1,0.1-0.2,0.2-0.4h1c0,0.3-0.1,0.6-0.3,0.8
			c-0.2,0.2-0.4,0.4-0.6,0.5C55.8,123.3,55.5,123.3,55.1,123.3z M60,123.3c-0.4,0-0.8-0.1-1.1-0.3c-0.3-0.2-0.5-0.4-0.7-0.8
			c-0.2-0.3-0.2-0.7-0.2-1.2c0-0.4,0.1-0.8,0.2-1.2c0.2-0.3,0.4-0.6,0.7-0.8c0.3-0.2,0.7-0.3,1.1-0.3c0.3,0,0.5,0,0.7,0.1
			c0.2,0.1,0.4,0.2,0.6,0.4c0.2,0.2,0.3,0.4,0.4,0.7c0.1,0.3,0.2,0.6,0.2,1v0.3h-3.5v-0.7H61c0-0.2,0-0.4-0.1-0.5
			c-0.1-0.2-0.2-0.3-0.3-0.4c-0.1-0.1-0.3-0.1-0.5-0.1c-0.2,0-0.4,0.1-0.5,0.2c-0.2,0.1-0.3,0.2-0.4,0.4c-0.1,0.2-0.1,0.3-0.1,0.5
			v0.6c0,0.2,0,0.5,0.1,0.6c0.1,0.2,0.2,0.3,0.4,0.4c0.2,0.1,0.4,0.1,0.6,0.1c0.1,0,0.3,0,0.4-0.1c0.1,0,0.2-0.1,0.3-0.2
			c0.1-0.1,0.2-0.2,0.2-0.3l0.9,0.1c-0.1,0.2-0.2,0.5-0.3,0.7c-0.2,0.2-0.4,0.3-0.6,0.4C60.7,123.3,60.4,123.3,60,123.3L60,123.3z
			 M65.5,123.2v-5.7h2.1c0.4,0,0.8,0.1,1.1,0.2c0.3,0.2,0.5,0.4,0.7,0.7c0.2,0.3,0.2,0.6,0.2,1c0,0.4-0.1,0.7-0.2,1
			c-0.2,0.3-0.4,0.5-0.7,0.7c-0.3,0.2-0.7,0.2-1.1,0.2h-1.4v-0.9h1.3c0.3,0,0.5,0,0.6-0.1c0.2-0.1,0.3-0.2,0.4-0.4
			c0.1-0.2,0.1-0.3,0.1-0.5s0-0.4-0.1-0.5c-0.1-0.2-0.2-0.3-0.4-0.4c-0.2-0.1-0.4-0.1-0.6-0.1h-0.9v4.9H65.5L65.5,123.2z
			 M70.9,123.2V119h1v0.7h0c0.1-0.2,0.2-0.4,0.4-0.6c0.2-0.1,0.4-0.2,0.6-0.2c0.1,0,0.1,0,0.2,0c0.1,0,0.1,0,0.2,0v0.9
			c0,0-0.1,0-0.2,0c-0.1,0-0.2,0-0.3,0c-0.2,0-0.3,0-0.5,0.1c-0.1,0.1-0.3,0.2-0.3,0.3c-0.1,0.1-0.1,0.3-0.1,0.5v2.5
			C71.9,123.2,70.9,123.2,70.9,123.2z M76,123.3c-0.4,0-0.8-0.1-1.1-0.3c-0.3-0.2-0.5-0.4-0.7-0.8c-0.2-0.3-0.2-0.7-0.2-1.2
			s0.1-0.8,0.2-1.2c0.2-0.3,0.4-0.6,0.7-0.8c0.3-0.2,0.7-0.3,1.1-0.3c0.4,0,0.8,0.1,1.1,0.3c0.3,0.2,0.5,0.4,0.7,0.8
			c0.2,0.3,0.3,0.7,0.3,1.2s-0.1,0.8-0.3,1.2c-0.2,0.3-0.4,0.6-0.7,0.8C76.8,123.2,76.4,123.3,76,123.3z M76,122.5
			c0.2,0,0.4-0.1,0.6-0.2c0.2-0.1,0.3-0.3,0.3-0.5c0.1-0.2,0.1-0.4,0.1-0.7c0-0.3,0-0.5-0.1-0.7c-0.1-0.2-0.2-0.4-0.3-0.5
			c-0.2-0.1-0.3-0.2-0.6-0.2c-0.2,0-0.4,0.1-0.6,0.2c-0.2,0.1-0.3,0.3-0.3,0.5c-0.1,0.2-0.1,0.4-0.1,0.7c0,0.3,0,0.5,0.1,0.7
			c0.1,0.2,0.2,0.4,0.3,0.5C75.6,122.5,75.8,122.5,76,122.5z M81.1,124.9c-0.4,0-0.7,0-0.9-0.1c-0.3-0.1-0.5-0.2-0.6-0.4
			c-0.2-0.2-0.3-0.3-0.3-0.5l0.9-0.2c0,0.1,0.1,0.2,0.2,0.2c0.1,0.1,0.2,0.2,0.3,0.2c0.1,0.1,0.3,0.1,0.5,0.1c0.3,0,0.5-0.1,0.7-0.2
			c0.2-0.1,0.3-0.4,0.3-0.7v-0.8h-0.1c-0.1,0.1-0.1,0.2-0.2,0.3c-0.1,0.1-0.2,0.2-0.4,0.3c-0.2,0.1-0.4,0.1-0.6,0.1
			c-0.3,0-0.6-0.1-0.9-0.2c-0.3-0.2-0.5-0.4-0.6-0.7c-0.2-0.3-0.2-0.7-0.2-1.2c0-0.5,0.1-0.9,0.2-1.2c0.2-0.3,0.4-0.6,0.6-0.7
			c0.3-0.2,0.6-0.3,0.9-0.3c0.2,0,0.5,0,0.6,0.1c0.2,0.1,0.3,0.2,0.4,0.3c0.1,0.1,0.2,0.2,0.2,0.3h0.1V119h1v4.4
			c0,0.4-0.1,0.7-0.3,0.9c-0.2,0.2-0.4,0.4-0.7,0.5C81.8,124.9,81.5,124.9,81.1,124.9z M81.1,122.4c0.2,0,0.4-0.1,0.5-0.2
			c0.2-0.1,0.3-0.3,0.3-0.4c0.1-0.2,0.1-0.4,0.1-0.7c0-0.3,0-0.5-0.1-0.7c-0.1-0.2-0.2-0.4-0.3-0.5c-0.1-0.1-0.3-0.2-0.5-0.2
			c-0.2,0-0.4,0.1-0.6,0.2c-0.2,0.1-0.3,0.3-0.3,0.5c-0.1,0.2-0.1,0.4-0.1,0.7c0,0.3,0,0.5,0.1,0.7c0.1,0.2,0.2,0.3,0.3,0.5
			C80.7,122.3,80.9,122.4,81.1,122.4L81.1,122.4z M84.5,123.2V119h1v0.7h0c0.1-0.2,0.2-0.4,0.4-0.6c0.2-0.1,0.4-0.2,0.6-0.2
			c0.1,0,0.1,0,0.2,0c0.1,0,0.1,0,0.2,0v0.9c0,0-0.1,0-0.2,0c-0.1,0-0.2,0-0.3,0c-0.2,0-0.3,0-0.5,0.1c-0.1,0.1-0.3,0.2-0.3,0.3
			c-0.1,0.1-0.1,0.3-0.1,0.5v2.5L84.5,123.2L84.5,123.2z M89.1,123.3c-0.3,0-0.5,0-0.7-0.1c-0.2-0.1-0.4-0.2-0.5-0.4
			c-0.1-0.2-0.2-0.4-0.2-0.7c0-0.2,0-0.4,0.1-0.6c0.1-0.2,0.2-0.3,0.4-0.4c0.2-0.1,0.3-0.2,0.5-0.2c0.2-0.1,0.4-0.1,0.6-0.1
			c0.2,0,0.4,0,0.6-0.1c0.2,0,0.3-0.1,0.3-0.1c0.1,0,0.1-0.1,0.1-0.2v0c0-0.2-0.1-0.4-0.2-0.5c-0.1-0.1-0.3-0.2-0.5-0.2
			c-0.2,0-0.4,0.1-0.6,0.2c-0.1,0.1-0.2,0.2-0.3,0.4l-0.9-0.1c0.1-0.3,0.2-0.5,0.4-0.7c0.2-0.2,0.4-0.3,0.6-0.4
			c0.2-0.1,0.5-0.1,0.8-0.1c0.2,0,0.4,0,0.6,0.1c0.2,0,0.4,0.1,0.6,0.2c0.2,0.1,0.3,0.3,0.4,0.4c0.1,0.2,0.2,0.4,0.2,0.7v2.9h-1
			v-0.6h0c-0.1,0.1-0.1,0.2-0.3,0.3c-0.1,0.1-0.2,0.2-0.4,0.2C89.5,123.3,89.3,123.3,89.1,123.3L89.1,123.3z M89.4,122.6
			c0.2,0,0.4,0,0.5-0.1c0.1-0.1,0.3-0.2,0.3-0.3c0.1-0.1,0.1-0.3,0.1-0.4v-0.5c0,0-0.1,0.1-0.2,0.1c-0.1,0-0.2,0-0.2,0.1
			c-0.1,0-0.2,0-0.3,0l-0.2,0c-0.2,0-0.3,0.1-0.4,0.1c-0.1,0-0.2,0.1-0.3,0.2c-0.1,0.1-0.1,0.2-0.1,0.3c0,0.2,0.1,0.3,0.2,0.4
			C89,122.5,89.2,122.6,89.4,122.6L89.4,122.6z M92.7,123.2V119h1v0.7h0.1c0.1-0.2,0.2-0.4,0.4-0.6c0.2-0.1,0.4-0.2,0.7-0.2
			c0.3,0,0.5,0.1,0.7,0.2c0.2,0.1,0.3,0.3,0.4,0.6h0c0.1-0.2,0.3-0.4,0.5-0.6c0.2-0.1,0.5-0.2,0.8-0.2c0.4,0,0.7,0.1,1,0.4
			c0.2,0.3,0.4,0.6,0.4,1.1v2.9h-1v-2.7c0-0.3-0.1-0.5-0.2-0.6c-0.1-0.1-0.3-0.2-0.5-0.2c-0.2,0-0.4,0.1-0.6,0.2
			c-0.1,0.2-0.2,0.3-0.2,0.6v2.7h-1v-2.8c0-0.2-0.1-0.4-0.2-0.5c-0.1-0.1-0.3-0.2-0.5-0.2c-0.1,0-0.3,0-0.4,0.1
			c-0.1,0.1-0.2,0.2-0.3,0.3c-0.1,0.1-0.1,0.3-0.1,0.5v2.6C93.7,123.2,92.7,123.2,92.7,123.2z M100.1,123.2V119h1v0.7h0
			c0.1-0.2,0.2-0.4,0.4-0.6c0.2-0.1,0.4-0.2,0.7-0.2c0.3,0,0.5,0.1,0.7,0.2c0.2,0.1,0.3,0.3,0.4,0.6h0c0.1-0.2,0.3-0.4,0.5-0.6
			c0.2-0.1,0.5-0.2,0.8-0.2c0.4,0,0.7,0.1,1,0.4c0.2,0.3,0.4,0.6,0.4,1.1v2.9h-1v-2.7c0-0.3-0.1-0.5-0.2-0.6
			c-0.1-0.1-0.3-0.2-0.5-0.2c-0.2,0-0.4,0.1-0.6,0.2c-0.1,0.2-0.2,0.3-0.2,0.6v2.7h-1v-2.8c0-0.2-0.1-0.4-0.2-0.5
			c-0.1-0.1-0.3-0.2-0.5-0.2c-0.1,0-0.3,0-0.4,0.1c-0.1,0.1-0.2,0.2-0.3,0.3c-0.1,0.1-0.1,0.3-0.1,0.5v2.6
			C101.1,123.2,100.1,123.2,100.1,123.2z M109.3,123.3c-0.4,0-0.8-0.1-1.1-0.3c-0.3-0.2-0.5-0.4-0.7-0.8c-0.2-0.3-0.2-0.7-0.2-1.2
			c0-0.4,0.1-0.8,0.2-1.2c0.2-0.3,0.4-0.6,0.7-0.8c0.3-0.2,0.7-0.3,1.1-0.3c0.3,0,0.5,0,0.7,0.1c0.2,0.1,0.4,0.2,0.6,0.4
			c0.2,0.2,0.3,0.4,0.4,0.7c0.1,0.3,0.2,0.6,0.2,1v0.3h-3.5v-0.7h2.5c0-0.2,0-0.4-0.1-0.5c-0.1-0.2-0.2-0.3-0.3-0.4
			c-0.1-0.1-0.3-0.1-0.5-0.1c-0.2,0-0.4,0.1-0.5,0.2c-0.2,0.1-0.3,0.2-0.4,0.4c-0.1,0.2-0.1,0.3-0.1,0.5v0.6c0,0.2,0,0.5,0.1,0.6
			c0.1,0.2,0.2,0.3,0.4,0.4c0.2,0.1,0.4,0.1,0.6,0.1c0.1,0,0.3,0,0.4-0.1c0.1,0,0.2-0.1,0.3-0.2c0.1-0.1,0.2-0.2,0.2-0.3l0.9,0.1
			c-0.1,0.2-0.2,0.5-0.3,0.7c-0.2,0.2-0.4,0.3-0.6,0.4C110,123.3,109.7,123.3,109.3,123.3L109.3,123.3z M14.2,96.4H66V97H14.2V96.4z
			"/>
	</g>
</g>
</svg>
