<?xml version="1.0" encoding="utf-8"?>
<!-- Generator: Adobe Illustrator 23.0.1, SVG Export Plug-In . SVG Version: 6.00 Build 0)  -->
<svg version="1.1" id="Layer_1" xmlns="http://www.w3.org/2000/svg" xmlns:xlink="http://www.w3.org/1999/xlink" x="0px" y="0px"
	 viewBox="0 0 512 512" style="enable-background:new 0 0 512 512;" xml:space="preserve">
<style type="text/css">
	.st0{fill:#4C0505;}
</style>
<path class="st0" d="M392.7,361.9c-0.3-0.1-0.5-0.2-0.8-0.3l-53.4-18c10-3.7,16.6-13.3,16.5-23.9v-16.2c1,0.1,2.1,0.1,3,0.1
	c16,0,29.9-10.8,34-26.2l14-53.2c4.3-16.3-4.1-32.9-18.1-40.2v-39.8c0-72.7-59.3-131.9-132-131.9S124,71.4,124,144.2V184
	c-14,7.3-22.4,23.9-18.1,40.2l13.9,53.2c4.9,18.7,24,29.9,42.7,25l0,0l23.3-6.1c6.5,6.7,14,12.5,22.2,17.1v18.5l-87.9,29.7
	c-0.3,0.1-0.5,0.2-0.8,0.3c-22.7,11.4-37.8,33.6-40.1,58.9c0,0.2-0.2,0.3-0.2,0.5v72.5c0.2,3.4,3,6.2,6.4,6.3h341.1
	c3.5-0.1,6.3-2.8,6.4-6.3v-72.5c0-0.2-0.2-0.3-0.2-0.5C430.5,395.5,415.3,373.2,392.7,361.9L392.7,361.9z M208,488h-74v-25
	c0-3.3-2.7-6-6-6l0,0l0,0c-3.3,0-6,2.7-6,6l0,0v25H91v-66.5c2-13,6.7-25.2,15.2-34.7c8.2,10.9,13.5,23.6,15.4,37.1
	c0.5,3.3,3.6,5.6,6.8,5.1c3.3-0.5,5.5-3.5,5.1-6.7c-2.3-15.9-8.6-30.9-18.3-43.6c2.9-2.2,5.9-4.1,9.2-5.8l83.7-28.2L208,488L208,488
	z M343,319.6c0,7.5-5.6,13.4-13.1,13.4h-22.6l-3.3-1.1v-18.5c8.1-4.6,15.6-10.4,22.1-17l16.9,4.5V319.6z M344.4,288.6l-10.1-2.6
	l25.5-97.8l10.1,2.6L344.4,288.6z M345.1,184.4c0,0.6-0.3,1.2-0.6,1.7l-7.8,3.6l-2.7-11.3c-6.7-27.8-23.6-52.1-47.2-68.1
	c-2.7-1.8-6.4-1.2-8.3,1.5c-17,23.9-45.6,36.7-74.7,33.6l-7.3-0.8c-5.4-0.6-10.2,3.3-10.8,8.7c0,0.1,0,0.2,0,0.3l-2.8,34.6
	c-4.1-0.8-10.2-2-15.6-3.3c-0.3-0.3-0.5-0.7-0.5-1.1l-2.1-30.4c-3.5-50.4,34.6-94.1,84.9-97.5c50.4-3.5,94.1,34.6,97.5,84.9
	c0.3,4.2,0.3,8.4,0,12.6L345.1,184.4z M394.5,221l-13.9,53.2c-2.9,10.9-13.2,18.1-24.4,17.1l25.4-97.2
	C391.8,198.8,397.3,210.1,394.5,221L394.5,221z M136,144.2c0-66.1,53.9-119.9,120-119.9s120,53.8,120,119.9V180l-18.2-4.7l1.5-21
	c3.9-57-39.1-106.4-96.1-110.3s-106.4,39-110.4,96c-0.3,4.7-0.3,9.5,0,14.2l1.5,21L136,180V144.2z M131.4,274.3L117.5,221
	c-2.8-10.9,2.6-22.3,12.9-26.9l25.4,97.2C144.6,292.4,134.3,285.2,131.4,274.3L131.4,274.3z M167.6,288.6L142,190.8l10.1-2.6
	l25.5,97.8L167.6,288.6z M188.9,281.7L166.8,197c21.7,5,23,4.1,25.1,2.5c1.4-1.1,2.4-2.7,2.5-4.5l3.1-38.3l5.1,0.5
	c31.3,3.3,62.2-9.4,82.1-33.8c18.8,14.3,32.1,34.7,37.7,57.7l4.5,18.4c0.8,3.2,4,5.2,7.2,4.4c0.4-0.1,0.8-0.2,1.1-0.4l9.4-4.4
	L323,281.6c-29.8,37-84,42.9-121,13.1C197.2,290.9,192.8,286.5,188.9,281.7L188.9,281.7z M285,332v15h-31v-15H285z M292,488h-72
	V376.7c22.6,11.7,49.4,11.7,72,0V488z M292,362.8c-21.9,14.1-50.1,14.1-72,0V319c7.3,2.9,14.9,4.9,22.7,5.9
	c-0.5,1.1-0.7,2.3-0.7,3.6V350c0,4.7,3.4,9,8.2,9h38.6c1.1,0,2.2-0.2,3.2-0.7V362.8z M378,488h-74V345h1.3l82.3,27.8
	c3.4,1.7,6.6,3.8,9.5,6.1C384.8,395.1,378,415,378,435.4V488z M421,488h-31v-52.6c0.1-17.4,5.8-34.3,16.1-48.2
	c8.2,9.5,12.9,21.5,14.9,34.3V488z"/>
<path class="st0" d="M158,403.1c3.3,0,6-2.7,6-6v-6.3c0-3.3-2.7-6-6-6s-6,2.7-6,6v6.3C152,400.4,154.7,403.1,158,403.1z"/>
<path class="st0" d="M158,468.1c3.3,0,6-2.7,6-6v-46c0-3.3-2.7-6-6-6s-6,2.7-6,6v46C152,465.4,154.7,468.1,158,468.1z"/>
</svg>
