<?xml version="1.0" encoding="utf-8"?>
<!-- Generator: Adobe Illustrator 23.0.1, SVG Export Plug-In . SVG Version: 6.00 Build 0)  -->
<svg version="1.1" id="Layer_1" xmlns="http://www.w3.org/2000/svg" xmlns:xlink="http://www.w3.org/1999/xlink" x="0px" y="0px"
	 viewBox="0 0 512 512" style="enable-background:new 0 0 512 512;" xml:space="preserve">
<style type="text/css">
	.st0{fill:#F9681B;}
</style>
<g>
	<g>
		<path class="st0" d="M504.7,61.5c-7.9-11.8-21.2-18.9-35.4-18.9H42.7C19.1,42.7,0,61.8,0,85.3v341.3c0,23.6,19.1,42.7,42.7,42.7
			h426.7h3.4h1c21.8-2.3,38.3-20.7,38.2-42.7V85.3C512,76.9,509.5,68.6,504.7,61.5z M42.7,59.7h426.7c6.1,0,11.9,2.1,16.6,6.1
			l-33.1,31.6l-139.6,133l-51.7,49.3c-3,2.2-7.1,2.2-10.2,0l-52.5-49.3L25.6,65.9C30.3,61.8,36.4,59.6,42.7,59.7z M17.1,81.2
			l163.5,155.1L17.1,392.5V85.3C17,84,17,82.6,17.1,81.2z M494.9,426.7c0.1,13-9.5,24-22.4,25.6H42.7c-14.1,0-25.6-11.5-25.6-25.6
			v-10.8l175.9-167.7l47,44.7c1.1,0.9,2.4,1.8,3.7,2.5c3.8,2.2,8,3.3,12.4,3.3c6.2,0,12.2-2.1,17.1-6l46.4-44.2l175.4,167.2
			L494.9,426.7L494.9,426.7z M494.9,85.3v306.8L331.4,236.6L494.9,81.1C495,82.5,495,83.9,494.9,85.3z"/>
	</g>
</g>
</svg>
