<?xml version="1.0" encoding="utf-8"?>
<!-- Generator: Adobe Illustrator 23.0.1, SVG Export Plug-In . SVG Version: 6.00 Build 0)  -->
<svg version="1.1" id="Layer_1" xmlns="http://www.w3.org/2000/svg" xmlns:xlink="http://www.w3.org/1999/xlink" x="0px" y="0px"
	 viewBox="0 0 505.7 505.7" style="enable-background:new 0 0 505.7 505.7;" xml:space="preserve">
<style type="text/css">
	.st0{fill:#F9681B;}
</style>
<g>
	<g>
		<path class="st0" d="M427.6,71.9C328.3-24,171.1-24,71.9,71.9c-98.2,101.7-95.4,263.8,6.3,362c99.2,95.8,256.5,95.8,355.7,0
			C532.1,332.1,529.3,170.1,427.6,71.9z M421.8,421.8L421.8,421.8c-93.4,93.2-244.7,93.1-338-0.2S-9.4,176.9,84,83.7
			s244.6-93.2,337.9,0.2c44.8,44.8,69.9,105.6,69.9,169C491.8,316.2,466.6,377,421.8,421.8z"/>
	</g>
</g>
<g>
	<g>
		<path class="st0" d="M396.6,325.7l-48-47.8c-10.9-10.9-28.6-10.9-39.5,0c0,0,0,0,0,0l-27.5,27.5c-2.1,2.1-5.4,2.4-7.8,0.7
			c-15-10.5-29.1-22.3-42.1-35.3c-11.6-11.6-22.3-24-31.9-37.3c-1.7-2.4-1.5-5.7,0.6-7.8l28.2-28.2c10.9-10.9,10.9-28.5,0-39.4
			l-48-48c-11.1-10.6-28.5-10.6-39.5,0l-15.2,15.2c-22.9,22.7-31.1,56.4-21.2,87c7.4,22.4,17.9,43.8,31.2,63.3
			c12,17.9,25.7,34.6,41,49.8c16.6,16.7,35,31.6,54.9,44.3c21.8,14.2,45.8,24.9,71,31.6c6.5,1.6,13.1,2.4,19.8,2.4
			c22.9-0.1,44.8-9.3,60.8-25.6l13.1-13.1C407.5,354.3,407.5,336.6,396.6,325.7z M384.6,353.5C384.5,353.5,384.5,353.5,384.6,353.5
			l0.1-0.2l-13.1,13.1c-16.8,17-41.2,24-64.4,18.4c-23.4-6.3-45.6-16.2-65.9-29.5c-18.8-12-36.2-26.1-52-41.9
			c-14.5-14.4-27.5-30.2-38.8-47.1c-12.4-18.2-22.2-38.1-29.2-59.1c-8-24.6-1.4-51.6,17.1-69.7l15.2-15.2c4.2-4.2,11.1-4.3,15.3,0
			c0,0,0,0,0,0l48,48c4.2,4.2,4.3,11.1,0,15.3c0,0,0,0,0,0l-28.2,28.2c-8.1,8-9.1,20.7-2.4,29.9c10.2,14,21.5,27.1,33.7,39.3
			c13.7,13.7,28.5,26.2,44.4,37.3c9.2,6.4,21.6,5.3,29.5-2.6l27.2-27.6c4.2-4.2,11.1-4.3,15.3,0c0,0,0,0,0,0l48,48.1
			C388.8,342.4,388.8,349.3,384.6,353.5z"/>
	</g>
</g>
</svg>
