<svg xmlns="http://www.w3.org/2000/svg" width="40" height="40" fill="none" viewBox="0 0 40 40">
    <path fill="#fff" d="M35.476 3.333h-8.511c-1.827 0-3.613.669-5.15 1.93L20 6.75l-1.815-1.485c-1.535-1.262-3.323-1.932-5.15-1.931H4.525c-.659 0-1.19.678-1.19 1.518V31.8c0 .84.531 1.518 1.19 1.518h8.512c1.827 0 3.612.669 5.149 1.93l1.652 1.358c.048.038.104.061.16.061.055 0 .111-.019.16-.061l1.651-1.357c1.54-1.262 3.33-1.931 5.157-1.931h8.511c.659 0 1.19-.679 1.19-1.518V4.85c0-.84-.531-1.518-1.19-1.518zm-22.44 26.568H6.012V6.749h7.024c1.317 0 2.597.48 3.702 1.385l1.815 1.485.257.214V31.75c-1.771-1.214-3.75-1.85-5.774-1.85zm20.952 0h-7.023c-2.024 0-4.003.636-5.774 1.85V9.833l.256-.214 1.816-1.485c1.105-.906 2.384-1.385 3.701-1.385h7.024V29.9zm-18.27-17.08H8.806c-.145 0-.264.162-.264.356v2.135c0 .195.119.356.264.356h6.908c.146 0 .265-.161.265-.356v-2.135c.003-.194-.116-.355-.26-.355zm8.3.356v2.135c0 .195.12.356.264.356h6.909c.145 0 .264-.161.264-.356v-2.135c0-.194-.12-.355-.264-.355h-6.909c-.145 0-.264.16-.264.355zm-8.3 6.287H8.806c-.145 0-.264.16-.264.355v2.135c0 .195.119.356.264.356h6.908c.146 0 .265-.161.265-.356V19.82c.003-.194-.116-.355-.26-.355zm15.476 0h-6.912c-.145 0-.264.16-.264.355v2.135c0 .195.12.356.264.356h6.909c.145 0 .264-.161.264-.356V19.82c.004-.194-.115-.355-.26-.355z"/>
</svg>
