<svg xmlns="http://www.w3.org/2000/svg" width="20" height="20" fill="none" viewBox="0 0 20 20">
    <path stroke="#FAFAFA" stroke-linejoin="round" stroke-width="2" d="M3.257 14.928l.034.037C3.97 15.663 4.841 16 5.821 16c.956 0 1.794-.353 2.441-1.054l.017-.018c.636-.726.924-1.628.924-2.624 0-.625-.114-1.238-.433-1.757l-.835.514.835-.514c-.254-.413-.59-.786-.985-1.123h0l-.004-.003c-.126-.106-.217-.195-.282-.265.012-.077.068-.285.288-.662.243-.417.592-.89 1.06-1.422.338-.384.331-.963-.016-1.34l-.533-.577c-.343-.372-.91-.429-1.32-.132-1.37.99-2.491 2.143-3.347 3.463h0l-.002.004c-.822 1.28-1.296 2.559-1.296 3.814 0 .996.288 1.898.924 2.623zm4.24-5.744s0 0 0 0 0 0 0 0zm4.224 5.744l.034.037c.679.698 1.55 1.035 2.53 1.035.956 0 1.794-.353 2.441-1.054l.017-.018c.636-.726.924-1.628.924-2.624 0-.625-.114-1.238-.433-1.757-.254-.413-.59-.786-.985-1.123h0l-.004-.003c-.126-.106-.218-.195-.282-.265.012-.077.068-.285.288-.662.243-.417.591-.89 1.06-1.422.338-.384.331-.963-.016-1.34l-.533-.577c-.343-.372-.91-.429-1.32-.132-1.37.99-2.491 2.143-3.347 3.463l-.002.004c-.822 1.28-1.296 2.559-1.296 3.814 0 .996.288 1.898.924 2.623zm4.24-5.744h0s0 0 0 0z"/>
</svg>
