<?xml version="1.0" encoding="utf-8"?>
<!-- Generator: Adobe Illustrator 23.0.1, SVG Export Plug-In . SVG Version: 6.00 Build 0)  -->
<svg version="1.1" id="Layer_1" xmlns="http://www.w3.org/2000/svg" xmlns:xlink="http://www.w3.org/1999/xlink" x="0px" y="0px"
	 viewBox="0 0 183 65" style="enable-background:new 0 0 183 65;" xml:space="preserve">
<style type="text/css">
	.st0{fill:#35495E;}
	.st1{fill:#2C3E50;}
	.st2{fill:#F9EAB0;}
	.st3{fill:#E64C3C;}
	.st4{fill:#3F5C6C;}
	.st5{fill:#ECF0F1;}
	.st6{fill:#C03A2B;}
	.st7{fill:#802F34;}
</style>
<text transform="matrix(1 0 0 1 -243 -293)" style="font-family:'MyriadPro-Regular'; font-size:12px;">Lorem ipsum</text>
<g>
	<g id="Page-1">
		<g>
			<path id="Shape" class="st0" d="M146.7,37.5l-3.8-21.4c0-0.2-0.1-0.4-0.1-0.6c-0.1-2.4,1.7-4.5,4.1-4.9l7.3-1.3L154,37.5H146.7z"
				/>
			<path class="st1" d="M174.7,36.6c-0.1,0.5-0.6,0.9-1.1,1l-21.4,3.8c-1.4,0.2-2.7-0.1-3.8-1c-1.1-0.9-1.7-2.1-1.8-3.5
				c-0.1-2.3,1.5-4.4,3.8-4.9l6,1.7h0l-5.4,1c-0.6,0.1-1.1,0.5-1.4,1c-0.3,0.5-0.3,1.2-0.1,1.7c0.4,0.9,1.4,1.4,2.3,1.3l16.4-2.9
				L174.7,36.6z"/>
			<path class="st2" d="M156.4,33.8l-5.4,1c-0.6,0.1-1.1,0.5-1.4,1c-0.3,0.5-0.3,1.2-0.1,1.7c0.4,0.9,1.4,1.4,2.3,1.3l16.4-2.9
				L156.4,33.8z"/>
			<path class="st3" d="M151.5,24.6l3.8-21.4c0.1-0.7,0.8-1.2,1.6-1.1l21.3,3.7c2.4,0.4,4.1,2.5,4.1,4.9c0,0.2,0,0.4-0.1,0.6
				l-3.8,21.4L151.5,24.6z"/>
			<path class="st4" d="M173.7,9.2c0,0-0.1,0-0.1,0l-15.4-2.7c-0.3-0.1-0.6-0.4-0.5-0.8s0.4-0.6,0.7-0.6l15.4,2.7
				c0.3,0.1,0.6,0.4,0.6,0.7S174.1,9.2,173.7,9.2L173.7,9.2z"/>
			<path class="st4" d="M170.4,12.1c0,0-0.1,0-0.1,0l-10-1.8c-0.4-0.1-0.6-0.4-0.5-0.8c0.1-0.4,0.4-0.6,0.8-0.6l10,1.8
				c0.3,0.1,0.6,0.4,0.6,0.7C171.1,11.8,170.8,12.1,170.4,12.1z"/>
			<path id="Rectangle-path" class="st5" d="M157.8,12.6l14.1,2.5c0.4,0.1,0.6,0.4,0.6,0.8l-1.2,6.7c-0.1,0.4-0.4,0.6-0.8,0.6
				l-14.1-2.5c-0.4-0.1-0.6-0.4-0.6-0.8l1.2-6.7C157.1,12.8,157.4,12.5,157.8,12.6z"/>
			<path class="st6" d="M182.2,10.7c0,0.2,0,0.4-0.1,0.6l-3.8,21.4l-5.2-1.6l3-17.2l0.7-4.1l0.7-4.2l0.5,0.1
				C180.5,6.2,182.3,8.3,182.2,10.7L182.2,10.7z"/>
			<path class="st7" d="M174.4,27.2l-21.3-3.7c-0.1,0-0.2,0-0.2,0c-0.7,0-1.3,0.5-1.4,1.2c-0.1,0.7,0.4,1.3,1.1,1.5l21.4,3.8
				c0.6,0.1,1.1,0.5,1.4,1c0.3,0.5,0.3,1.2,0.1,1.7c-0.4,0.9-1.4,1.4-2.3,1.2l-21.3-3.8c-0.1,0-0.2,0-0.2,0c-0.7,0-1.3,0.5-1.4,1.2
				c-0.1,0.7,0.4,1.3,1.1,1.5l21.4,3.8c1.3,0.2,2.7-0.1,3.8-1c1.1-0.9,1.7-2.1,1.8-3.5C178.5,29.7,176.8,27.6,174.4,27.2L174.4,27.2
				z"/>
			<path class="st2" d="M175.6,32.7c-0.4,0.9-1.4,1.4-2.3,1.2l-21.3-3.8l0.7-4l21.4,3.8c0.6,0.1,1.1,0.5,1.4,1
				C175.8,31.5,175.8,32.1,175.6,32.7L175.6,32.7z"/>
		</g>
	</g>
	<g>
		<path class="st0" d="M16,30.1c0,0.8-0.2,1.5-0.5,2.2c-0.3,0.7-0.8,1.4-1.5,1.9c-0.7,0.6-1.5,1-2.4,1.3c-0.9,0.3-2,0.5-3.3,0.5
			c-1.4,0-2.6-0.1-3.7-0.4s-2.2-0.6-3.4-1.2v-3.2h0.2c1,0.8,2.1,1.4,3.4,1.9s2.5,0.7,3.6,0.7c1.6,0,2.8-0.3,3.7-0.9
			c0.9-0.6,1.3-1.4,1.3-2.4c0-0.9-0.2-1.5-0.6-1.9s-1.1-0.7-1.9-0.9c-0.6-0.2-1.3-0.3-2.1-0.4s-1.6-0.3-2.4-0.4
			c-1.7-0.4-3-1-3.8-1.9c-0.8-0.9-1.2-2-1.2-3.4c0-1.6,0.7-2.9,2-4s3.1-1.5,5.2-1.5c1.4,0,2.6,0.1,3.7,0.4c1.1,0.3,2.1,0.6,3,1v3
			h-0.2c-0.7-0.6-1.7-1.1-2.9-1.5c-1.2-0.4-2.4-0.6-3.7-0.6c-1.4,0-2.5,0.3-3.3,0.9C4.4,19.6,4,20.3,4,21.2c0,0.8,0.2,1.4,0.6,1.9
			c0.4,0.5,1.1,0.8,2.2,1c0.6,0.1,1.3,0.3,2.4,0.4s1.9,0.3,2.6,0.5c1.4,0.4,2.5,1,3.2,1.7S16,28.7,16,30.1z"/>
		<path class="st0" d="M41.1,35.6h-2.4v-8.2c0-0.6,0-1.2-0.1-1.8c-0.1-0.6-0.2-1-0.4-1.4c-0.2-0.4-0.5-0.7-0.9-0.8
			C37,23.1,36.4,23,35.7,23c-0.7,0-1.4,0.2-2,0.5c-0.7,0.3-1.4,0.8-2,1.3c0,0.2,0,0.4,0.1,0.7c0,0.3,0,0.5,0,0.8v9.3h-2.4v-8.2
			c0-0.6,0-1.2-0.1-1.8c-0.1-0.6-0.2-1-0.4-1.4c-0.2-0.4-0.5-0.6-0.9-0.8S27.1,23,26.4,23c-0.7,0-1.3,0.2-2,0.5
			c-0.7,0.3-1.3,0.7-2,1.3v10.8H20V21.1h2.4v1.6c0.8-0.6,1.5-1.1,2.3-1.5c0.8-0.4,1.6-0.5,2.4-0.5c1,0,1.8,0.2,2.5,0.6
			s1.2,1,1.5,1.7c1-0.8,1.9-1.4,2.7-1.8c0.8-0.4,1.7-0.6,2.6-0.6c1.6,0,2.8,0.5,3.5,1.4s1.1,2.3,1.1,4V35.6z"/>
		<path class="st0" d="M57,35.6h-2.4V34c-0.2,0.1-0.5,0.4-0.9,0.6c-0.4,0.3-0.7,0.5-1.1,0.6c-0.4,0.2-0.9,0.4-1.4,0.5
			c-0.5,0.1-1.1,0.2-1.9,0.2c-1.3,0-2.4-0.4-3.3-1.3s-1.4-2-1.4-3.3c0-1.1,0.2-2,0.7-2.7c0.5-0.7,1.1-1.2,2-1.6
			c0.9-0.4,1.9-0.7,3.2-0.8s2.6-0.2,4-0.3v-0.4c0-0.6-0.1-1-0.3-1.4s-0.5-0.6-0.8-0.9c-0.3-0.2-0.8-0.3-1.2-0.4s-1-0.1-1.5-0.1
			c-0.6,0-1.4,0.1-2.1,0.3c-0.8,0.2-1.6,0.4-2.4,0.7H46v-2.5c0.5-0.1,1.2-0.3,2.1-0.4c0.9-0.2,1.8-0.2,2.7-0.2c1,0,1.9,0.1,2.7,0.3
			c0.8,0.2,1.4,0.5,2,0.9c0.5,0.4,1,0.9,1.2,1.5c0.3,0.6,0.4,1.4,0.4,2.3V35.6z M54.6,32v-4c-0.7,0-1.6,0.1-2.6,0.2
			c-1,0.1-1.8,0.2-2.4,0.4c-0.7,0.2-1.3,0.5-1.7,0.9c-0.4,0.4-0.6,1-0.6,1.7c0,0.8,0.3,1.5,0.8,1.9c0.5,0.4,1.3,0.6,2.3,0.6
			c0.9,0,1.6-0.2,2.3-0.5C53.3,32.9,54,32.5,54.6,32z"/>
		<path class="st0" d="M70.7,23.7h-0.1c-0.4-0.1-0.7-0.1-1.1-0.2s-0.7-0.1-1.2-0.1c-0.8,0-1.5,0.2-2.2,0.5c-0.7,0.3-1.4,0.8-2,1.3
			v10.3h-2.4V21.1h2.4v2.1c1-0.8,1.8-1.3,2.6-1.7c0.7-0.3,1.5-0.5,2.3-0.5c0.4,0,0.7,0,0.9,0c0.2,0,0.5,0.1,0.9,0.1V23.7z"/>
		<path class="st0" d="M80.5,35.4c-0.5,0.1-1,0.2-1.5,0.3s-1,0.1-1.4,0.1c-1.5,0-2.6-0.4-3.4-1.2S73,32.6,73,30.8v-7.7h-1.6v-2H73
			v-4.2h2.4v4.2h5v2h-5v6.6c0,0.8,0,1.4,0.1,1.8c0,0.4,0.2,0.8,0.4,1.2c0.2,0.3,0.5,0.6,0.8,0.8c0.3,0.2,0.8,0.2,1.5,0.2
			c0.4,0,0.8-0.1,1.2-0.2c0.4-0.1,0.7-0.2,0.9-0.3h0.1V35.4z"/>
		<path class="st0" d="M96.3,35.6H83.6V16.3h12.7v2.3H86.2v5.3h10.1v2.3H86.2v7.2h10.1V35.6z"/>
		<path class="st0" d="M111.9,35.6h-2.4V34c-0.7,0.6-1.4,1.1-2.2,1.4c-0.8,0.3-1.6,0.5-2.5,0.5c-1.7,0-3.1-0.7-4.1-2
			c-1-1.3-1.5-3.2-1.5-5.5c0-1.2,0.2-2.3,0.5-3.3c0.3-1,0.8-1.8,1.4-2.4c0.6-0.7,1.3-1.2,2.1-1.5s1.6-0.5,2.4-0.5
			c0.8,0,1.4,0.1,2,0.2c0.6,0.2,1.2,0.4,1.9,0.7v-6.3h2.4V35.6z M109.5,32v-8.3c-0.7-0.3-1.2-0.5-1.8-0.6c-0.5-0.1-1.1-0.2-1.7-0.2
			c-1.4,0-2.4,0.5-3.2,1.4c-0.8,0.9-1.1,2.3-1.1,4c0,1.7,0.3,3,0.9,3.9c0.6,0.9,1.5,1.3,2.8,1.3c0.7,0,1.4-0.2,2.1-0.5
			C108.2,32.9,108.9,32.5,109.5,32z"/>
		<path class="st0" d="M128.7,35.6h-2.4V34c-0.8,0.6-1.6,1.1-2.4,1.5s-1.6,0.5-2.5,0.5c-1.5,0-2.7-0.5-3.5-1.4
			c-0.8-0.9-1.3-2.3-1.3-4.1v-9.4h2.4v8.2c0,0.7,0,1.4,0.1,1.9c0.1,0.5,0.2,1,0.4,1.3c0.2,0.4,0.5,0.7,0.9,0.8
			c0.4,0.2,0.9,0.3,1.6,0.3c0.6,0,1.3-0.2,2.1-0.5c0.7-0.3,1.4-0.7,2.1-1.3V21.1h2.4V35.6z"/>
	</g>
	<g>
		<path class="st7" d="M14.8,46.7c0,0,0,0.1,0,0.1c0,0,0,0.1-0.1,0.1c0,0-0.1,0.1-0.1,0.1c0,0,0,0.1,0,0.1c0,0,0,0,0,0
			c0,0,0,0.1,0,0.1c0,0.1,0,0.1-0.1,0.2s0,0.1,0,0.1c0,0.1-0.1,0.3-0.1,0.4c0,0.1,0,0.3,0,0.4c0,0.3,0,0.6,0,0.9c0,0.2,0,0.3,0,0.5
			c0,0.2,0,0.3-0.1,0.5c0,0.2,0,0.4-0.1,0.5c0,0.2,0,0.3-0.1,0.5c0,0.3-0.1,0.6-0.1,0.9c0,0.3,0,0.6,0,1c0,0.2,0,0.5,0,0.9
			c0,0.3,0,0.7,0,1.2c0.1,0,0.1,0.1,0.2,0.2c0.1,0.1,0.2,0.1,0.3,0.2s0.1,0.1,0.1,0.2c0,0.2-0.1,0.3-0.3,0.5
			c-0.2,0.1-0.4,0.2-0.5,0.2c-0.4,0-0.7-0.3-0.9-0.8c-0.2-0.6-0.2-1.1-0.2-1.7c0-0.2,0-0.4,0-0.5c0-0.2,0.1-0.4,0.1-0.6
			c0-0.1,0-0.3,0.1-0.6c0-0.2,0.1-0.6,0.1-0.9s0.1-0.6,0.1-0.8c0-0.2,0-0.3,0-0.3c0,0,0-0.1,0-0.1c0-0.1,0-0.2,0-0.3
			c0-0.2,0.1-0.4,0.1-0.5s0-0.3,0-0.4c0,0,0-0.1,0-0.1c0,0,0-0.1,0-0.1c0,0,0-0.1-0.1-0.2c-0.1,0.1-0.2,0.2-0.3,0.3
			s-0.2,0.3-0.3,0.4c-0.3,0.3-0.5,0.6-0.6,0.8c-0.1,0.1-0.2,0.2-0.2,0.3s-0.2,0.2-0.2,0.3c-0.1,0.1-0.2,0.2-0.3,0.4
			s-0.2,0.3-0.4,0.5c-0.3,0.4-0.6,0.7-0.9,1.1c0,0,0,0.1-0.1,0.1c0,0-0.1,0.1-0.1,0.2c-0.1,0.1-0.2,0.2-0.2,0.2
			c-0.3,0.4-0.6,0.6-0.9,0.7c-0.4-0.1-0.7-0.3-0.9-0.5c0-0.1-0.1-0.1-0.1-0.2S7.7,53,7.7,53c0,0-0.1-0.1-0.1-0.1
			c0,0-0.1-0.1-0.1-0.1c-0.1-0.1-0.2-0.3-0.2-0.4c-0.1-0.1-0.1-0.2-0.2-0.3c-0.1-0.2-0.2-0.4-0.3-0.6S6.6,51,6.5,50.8
			c-0.1-0.2-0.1-0.3-0.1-0.4c0-0.1-0.1-0.2-0.1-0.2c0,0,0-0.1-0.1-0.2s-0.1-0.2-0.1-0.3c0-0.1-0.1-0.2-0.1-0.3
			c0-0.1-0.1-0.2-0.1-0.4c-0.1-0.3-0.1-0.4-0.1-0.4c0,0.1-0.1,0.3-0.1,0.4c-0.1,0.2-0.1,0.4-0.2,0.6s-0.1,0.4-0.2,0.6
			c-0.1,0.2-0.1,0.4-0.1,0.5C5.1,50.8,5,51,5,51.1c0,0.1-0.1,0.3-0.1,0.4c-0.1,0.3-0.2,0.6-0.3,1.2c-0.1,0.3-0.1,0.7-0.1,1
			c0,0.1,0,0.2,0,0.3c0,0.1,0,0.3,0.1,0.4c0,0.2,0.1,0.3,0.1,0.4s0,0.2,0,0.3c0,0.1-0.1,0.2-0.2,0.4c-0.1,0.2-0.2,0.2-0.4,0.2
			c0,0-0.1,0-0.2,0c-0.1,0-0.1,0-0.2,0c-0.2,0-0.4-0.1-0.5-0.4C3,55.2,3,54.9,3,54.6c0-0.1,0-0.2,0.1-0.4c0-0.1,0-0.2,0.1-0.3
			c0-0.1,0.1-0.2,0.1-0.4c0-0.1,0.1-0.3,0.1-0.3c0-0.1,0-0.1,0-0.1c0.1-0.3,0.2-0.7,0.3-0.9c0.1-0.3,0.1-0.5,0.2-0.7
			C3.9,51.2,4,51,4,50.7c0.1-0.2,0.1-0.5,0.2-0.7c0.1-0.3,0.2-0.5,0.2-0.7c0.1-0.2,0.1-0.4,0.2-0.6c0-0.2,0.1-0.4,0.1-0.5
			c0-0.1,0.1-0.2,0.1-0.3c0-0.1,0.1-0.2,0.1-0.3c0.1-0.2,0.2-0.3,0.4-0.3c0.3,0,0.6,0,0.8,0.1c0.2,0.1,0.3,0.2,0.5,0.4
			c0.1,0.1,0.1,0.2,0.2,0.3c0,0.1,0.1,0.2,0.1,0.3c0,0.1,0.1,0.2,0.1,0.3S7,48.9,7,49.1c0,0.1,0,0.2,0.1,0.3c0,0.1,0.1,0.2,0.1,0.3
			c0.3,1,0.8,1.9,1.5,2.8c0,0,0.1-0.1,0.2-0.1c0.1,0,0.1-0.1,0.1-0.1s0.1-0.1,0.1-0.1c0.1-0.1,0.1-0.1,0.2-0.2
			c0.1-0.1,0.1-0.2,0.2-0.3c0.1-0.2,0.3-0.4,0.4-0.6c0.1-0.2,0.2-0.3,0.4-0.5c0.1-0.1,0.2-0.2,0.2-0.3c0.1-0.1,0.2-0.2,0.3-0.4
			c0.1-0.1,0.2-0.3,0.3-0.4c0.1-0.1,0.2-0.2,0.2-0.3c0.1-0.1,0.1-0.2,0.2-0.2c0.1-0.1,0.1-0.1,0.2-0.2c0.1-0.1,0.1-0.1,0.2-0.2
			c0.1-0.1,0.2-0.2,0.2-0.3c0,0,0.1-0.1,0.2-0.2c0,0,0.1-0.1,0.1-0.1c0,0,0.1-0.1,0.1-0.1c0.1-0.1,0.2-0.2,0.3-0.3
			c0.1-0.1,0.2-0.3,0.3-0.5c0.1-0.2,0.2-0.3,0.3-0.4c0.1-0.1,0.2-0.2,0.2-0.3c0,0,0.1-0.1,0.1-0.1c0.1,0,0.1,0,0.2,0
			c0.1,0,0.2,0.1,0.3,0.1c0.1,0.1,0.2,0.1,0.2,0.2C14.8,46.6,14.8,46.7,14.8,46.7z"/>
		<path class="st7" d="M26.8,51.8c0,0,0,0.1,0,0.2c0,0.1,0,0.1-0.1,0.2c0,0.1-0.1,0.1-0.1,0.2c0,0.1-0.1,0.1-0.1,0.1
			c0,0-0.1,0.1-0.1,0.1c-0.1,0.1-0.1,0.1-0.2,0.2C26.2,52.9,26.1,53,26,53c-0.1,0.1-0.1,0.1-0.2,0.2c-0.3,0.2-0.5,0.5-0.8,0.7
			c-0.3,0.2-0.5,0.4-0.8,0.6c-0.3,0.2-0.6,0.3-0.9,0.4s-0.6,0.1-1,0.1c-0.2,0-0.3,0-0.5-0.1s-0.3-0.1-0.5-0.2s-0.3-0.2-0.4-0.4
			c-0.1-0.1-0.2-0.3-0.2-0.5c-0.1,0.1-0.3,0.2-0.4,0.4s-0.3,0.3-0.4,0.4c-0.2,0.1-0.3,0.3-0.5,0.4c-0.2,0.1-0.3,0.2-0.5,0.3
			c-0.1,0.1-0.2,0.1-0.3,0.2c-0.1,0.1-0.3,0.1-0.4,0.2c-0.1,0.1-0.3,0.1-0.4,0.1S17.5,56,17.3,56c-0.2,0-0.3-0.1-0.5-0.2
			c-0.1-0.1-0.2-0.2-0.3-0.4c-0.1-0.2-0.2-0.3-0.2-0.5s-0.1-0.3-0.1-0.5c0-0.3,0-0.5,0.1-0.8s0.2-0.6,0.3-0.8s0.3-0.5,0.5-0.8
			c0.2-0.2,0.3-0.5,0.5-0.6c0.2-0.2,0.4-0.4,0.6-0.6c0.2-0.2,0.5-0.4,0.7-0.5s0.5-0.3,0.7-0.4c0.2-0.1,0.4-0.1,0.6-0.1
			c0.1,0,0.2,0,0.3,0s0.2,0,0.3,0s0.2,0,0.3,0s0.2,0.1,0.3,0.1c0,0,0.1,0.1,0.1,0.1c0.1,0.1,0.1,0.1,0.1,0.2c0,0.1,0.1,0.2,0.1,0.3
			c0,0.1,0,0.2,0,0.2c0,0.1,0,0.3-0.1,0.5c-0.1,0.3-0.1,0.5-0.2,0.8s-0.1,0.5-0.1,0.7c0,0.1,0,0.3,0.1,0.4c0,0.1,0.1,0.3,0.2,0.4
			c0.1,0.1,0.2,0.2,0.3,0.3c0.1,0.1,0.3,0.1,0.4,0.1c0.3,0,0.5-0.1,0.8-0.2c0.3-0.1,0.6-0.2,0.9-0.4c0.3-0.2,0.6-0.4,0.9-0.6
			c0.3-0.2,0.6-0.5,0.8-0.8c0,0,0.1-0.1,0.1-0.1c0.1-0.1,0.1-0.1,0.2-0.2c0.1-0.1,0.1-0.1,0.2-0.2c0.1,0,0.1-0.1,0.1-0.1
			C26.7,51.6,26.8,51.6,26.8,51.8z M20.9,51.3c0-0.1,0-0.2,0-0.3s0-0.2-0.1-0.3c0-0.1-0.1-0.1-0.2-0.1c-0.1,0-0.1,0-0.2,0
			c-0.2,0-0.3,0-0.4,0.1s-0.3,0.1-0.4,0.2c-0.1,0.1-0.3,0.2-0.4,0.3c-0.1,0.1-0.2,0.2-0.4,0.3c-0.1,0.1-0.2,0.2-0.3,0.3
			c-0.1,0.1-0.2,0.3-0.3,0.5c-0.1,0.2-0.2,0.3-0.3,0.5c-0.1,0.2-0.2,0.4-0.3,0.5c-0.1,0.2-0.1,0.3-0.2,0.5c0,0.2-0.1,0.3-0.1,0.4
			c0,0,0,0.1,0,0.2c0,0.1,0,0.1,0.1,0.2c0,0.1,0.1,0.1,0.1,0.2c0,0,0.1,0.1,0.2,0.1c0.2,0,0.5-0.1,0.8-0.2c0.4-0.2,0.8-0.4,1.1-0.7
			s0.6-0.6,0.9-1C20.7,52.6,20.9,52,20.9,51.3z"/>
		<path class="st7" d="M36.2,51.8c0,0,0,0.1-0.1,0.2c-0.1,0.1-0.2,0.3-0.3,0.5c-0.1,0.2-0.3,0.4-0.5,0.7c-0.2,0.3-0.4,0.5-0.7,0.8
			c-0.2,0.3-0.5,0.5-0.8,0.8s-0.6,0.5-0.8,0.7c-0.3,0.2-0.6,0.4-0.9,0.5c-0.3,0.1-0.6,0.2-0.9,0.2c-0.2,0-0.4,0-0.5-0.1
			c-0.2,0-0.3-0.1-0.5-0.2c-0.1-0.1-0.3-0.2-0.4-0.3c-0.1-0.1-0.3-0.2-0.4-0.3c-0.2-0.2-0.3-0.3-0.5-0.5c-0.1-0.2-0.3-0.3-0.4-0.5
			c-0.1-0.1-0.3-0.3-0.4-0.4s-0.2-0.2-0.4-0.3c0,0,0,0-0.1,0.1c0,0-0.1,0.1-0.1,0.1c-0.1,0.1-0.1,0.1-0.2,0.2s-0.1,0.1-0.1,0.1
			c-0.1,0.1-0.2,0.2-0.3,0.3S27,54.8,27,54.8c0,0.1,0,0.2,0,0.2c0,0.1,0,0.2,0,0.3c0,0.2,0,0.3,0,0.4c0,0.1-0.1,0.2-0.1,0.3
			c-0.1,0.1-0.1,0.1-0.2,0.1s-0.2,0-0.3,0c-0.2,0-0.3,0-0.3-0.1c0-0.1-0.1-0.2-0.1-0.3c0-0.1,0-0.2,0-0.4c0-0.1,0-0.3,0.1-0.4
			c0-0.1,0-0.3,0.1-0.4c0-0.1,0-0.3,0.1-0.4c0.1-0.3,0.1-0.6,0.1-1c0-0.3,0.1-0.6,0.1-0.9s0.1-0.6,0.1-0.9c0-0.3,0.1-0.6,0.1-1
			c0.1-0.5,0.1-1.1,0.2-1.6c0-0.5,0.1-1,0.1-1.5c0-0.1,0-0.2,0-0.2c0-0.1,0.1-0.2,0.1-0.2c0.1-0.1,0.1-0.1,0.2-0.2
			c0.1,0,0.2-0.1,0.3-0.1c0.1,0,0.2,0,0.3,0.1c0.1,0,0.1,0.1,0.2,0.1s0.1,0.1,0.1,0.2s0,0.1,0,0.2c0,0.1,0,0.2,0,0.3
			c0,0.1,0,0.3-0.1,0.5c0,0.2-0.1,0.3-0.1,0.5c0,0.2-0.1,0.4-0.1,0.5c0,0.2-0.1,0.3-0.1,0.4c0,0.1,0,0.2,0,0.2
			c-0.1,0.5-0.2,0.9-0.2,1.2c-0.1,0.3-0.1,0.5-0.1,0.7c-0.1,0.5-0.1,0.9-0.2,1.3c0,0.3-0.1,0.6-0.1,0.8c0.2-0.2,0.4-0.4,0.5-0.6
			c0.2-0.2,0.4-0.4,0.6-0.6c0.2-0.2,0.4-0.4,0.6-0.6s0.4-0.4,0.5-0.6c0.1-0.1,0.2-0.3,0.4-0.5c0.1-0.2,0.3-0.4,0.5-0.5
			c0.2-0.2,0.3-0.3,0.5-0.5s0.4-0.2,0.6-0.3c0.1,0,0.2,0,0.3,0c0.1,0,0.1,0.1,0.2,0.1c0.1,0.1,0.1,0.1,0.1,0.2c0,0.1,0,0.1,0,0.2
			c0,0.1-0.1,0.2-0.2,0.3c-0.1,0.1-0.2,0.2-0.4,0.4S31,50.9,30.8,51c-0.2,0.1-0.3,0.3-0.5,0.4c-0.2,0.2-0.4,0.3-0.5,0.5
			c-0.2,0.1-0.3,0.3-0.4,0.4c-0.1,0.1-0.3,0.3-0.4,0.4s-0.2,0.3-0.4,0.4c0.1,0.1,0.3,0.2,0.4,0.3s0.2,0.2,0.4,0.3s0.3,0.2,0.4,0.4
			c0.1,0.1,0.3,0.3,0.4,0.4c0.3,0.3,0.5,0.4,0.7,0.5c0.2,0.1,0.4,0.1,0.6,0.1c0.2,0,0.4-0.1,0.6-0.2c0.2-0.1,0.5-0.3,0.7-0.4
			s0.5-0.4,0.7-0.6c0.2-0.2,0.5-0.5,0.7-0.7c0.2-0.2,0.4-0.5,0.6-0.7c0.2-0.2,0.4-0.4,0.5-0.6c0.2-0.2,0.3-0.3,0.4-0.4
			s0.2-0.2,0.2-0.2c0,0,0.1,0,0.1,0c0,0,0,0.1,0.1,0.1c0,0,0,0.1,0,0.1C36.2,51.7,36.2,51.8,36.2,51.8z"/>
		<path class="st7" d="M43.2,51.8c0,0.1,0,0.2-0.1,0.3c-0.2,0.3-0.5,0.6-0.8,0.9s-0.6,0.6-0.9,0.9s-0.7,0.5-1,0.8s-0.7,0.4-1,0.6
			s-0.7,0.3-1.1,0.4c-0.4,0.1-0.7,0.1-1,0.1c-0.7,0-1.3-0.2-1.6-0.6c-0.4-0.4-0.6-0.9-0.6-1.7c0-0.6,0.1-1.3,0.3-1.9
			c0.2-0.6,0.6-1.2,1.1-1.7c0.1-0.1,0.2-0.2,0.3-0.3c0.1-0.1,0.2-0.2,0.4-0.2c0.1-0.1,0.3-0.1,0.4-0.2c0.1,0,0.3-0.1,0.4-0.1
			c0,0,0.1,0,0.1,0c0.1,0,0.1,0,0.2,0c0.1,0,0.1,0,0.2,0.1c0.1,0,0.1,0.1,0.2,0.1c0.1,0.1,0.2,0.3,0.3,0.4c0.1,0.1,0.1,0.3,0.1,0.5
			c0,0.2,0,0.4-0.1,0.6s-0.1,0.4-0.3,0.6c-0.1,0.2-0.3,0.4-0.5,0.6s-0.5,0.4-0.8,0.6c-0.2,0.1-0.4,0.3-0.6,0.5
			c-0.2,0.2-0.5,0.4-0.8,0.6c0,0.4,0.1,0.7,0.4,0.9c0.3,0.2,0.6,0.3,1.1,0.3c0.3,0,0.5,0,0.8-0.1c0.3-0.1,0.5-0.1,0.8-0.2
			s0.5-0.2,0.7-0.3c0.2-0.1,0.4-0.3,0.7-0.4c0.4-0.3,0.7-0.5,1-0.8c0.3-0.3,0.6-0.5,0.9-0.8l0.4-0.3c0.2-0.2,0.4-0.3,0.5-0.3
			C43.2,51.6,43.2,51.7,43.2,51.8z M38.2,50.5c0-0.1,0-0.1,0-0.2c0-0.1,0-0.1-0.1-0.2S38,50.1,38,50.1c0,0-0.1,0-0.1,0
			c-0.2,0-0.5,0.1-0.7,0.4c-0.2,0.3-0.5,0.6-0.7,1c0,0.1-0.1,0.2-0.1,0.3c0,0.1-0.1,0.2-0.1,0.3c0,0.1-0.1,0.2-0.1,0.3
			c0,0.1,0,0.2-0.1,0.3c0.2-0.2,0.4-0.3,0.6-0.4c0.2-0.1,0.4-0.3,0.5-0.4c0.1-0.1,0.2-0.2,0.3-0.3s0.2-0.2,0.3-0.3
			c0.1-0.1,0.2-0.2,0.2-0.4C38.1,50.8,38.2,50.7,38.2,50.5z"/>
		<path class="st7" d="M54.3,50.5c0,0.1,0,0.1,0,0.2c0,0.1,0,0.2,0,0.3c0,0.1,0,0.2,0,0.4c0,0.1,0,0.2,0,0.4s0,0.2,0,0.3
			s0,0.2,0,0.3c0,0.6-0.1,1.1-0.2,1.7c-0.1,0.6-0.2,1.1-0.4,1.7c-0.2,0.9-0.6,1.6-1,2.3c-0.5,0.6-1.1,1-1.9,1c-0.5,0-1-0.1-1.6-0.3
			c-0.5-0.2-1-0.4-1.3-0.8c-0.2-0.2-0.3-0.4-0.3-0.5c0-0.1,0-0.2,0.1-0.3c0.1-0.1,0.1-0.2,0.2-0.2c0,0,0.1,0,0.1,0.1
			c0.1,0.2,0.3,0.3,0.4,0.5c0.6,0.5,1.4,0.7,2.3,0.7c0.4,0,0.7-0.2,1-0.5c0.1-0.2,0.3-0.3,0.4-0.5c0.1-0.2,0.2-0.4,0.3-0.6
			c0.1-0.2,0.2-0.4,0.2-0.6c0.1-0.2,0.1-0.4,0.2-0.6c0-0.2,0.1-0.4,0.1-0.5c0-0.1,0-0.2,0-0.2c0-0.2,0-0.3,0-0.5s0-0.3,0.1-0.5
			c-0.1,0.1-0.4,0.2-0.8,0.4c-0.2,0.1-0.4,0.2-0.6,0.3c-0.2,0.1-0.4,0.2-0.5,0.3c-0.3,0.2-0.6,0.3-1,0.5c-0.4,0.1-0.7,0.2-0.9,0.2
			c-0.4,0-0.7-0.2-1-0.5c-0.2-0.3-0.3-0.7-0.3-1.1c0-0.3,0-0.6,0.1-1c0-0.2,0.1-0.3,0.1-0.5s0.1-0.3,0.1-0.4c0-0.1,0.1-0.3,0.2-0.5
			s0.1-0.4,0.2-0.6c0-0.1,0.1-0.3,0.1-0.4c0.1-0.1,0.1-0.2,0.2-0.3s0.1-0.1,0.2-0.1c0.1,0,0.2,0,0.3,0c0.1,0,0.2,0.1,0.3,0.2
			c0.1,0.1,0.1,0.3,0.1,0.4c0,0.1,0,0.2-0.1,0.2c0,0-0.1,0.1-0.1,0.1c0,0.1-0.1,0.1-0.2,0.2c-0.1,0.1-0.1,0.2-0.1,0.2
			c0,0.1-0.1,0.1-0.1,0.1c0,0.1-0.1,0.2-0.1,0.3c0,0.1-0.1,0.1-0.1,0.2c0,0,0,0.1-0.1,0.2c0,0.1,0,0.1-0.1,0.2
			c-0.1,0.2-0.1,0.3-0.1,0.5c0,0.1,0,0.3,0,0.5c0,0.2,0,0.4,0.1,0.6c0.1,0.2,0.2,0.4,0.3,0.4c0.4,0,0.9-0.1,1.4-0.3
			c0.6-0.2,1-0.5,1.5-0.8c0.4-0.3,0.7-0.7,0.8-1c0,0,0-0.1,0-0.2c0-0.1,0-0.2,0-0.3c0-0.1,0-0.2,0-0.4c0-0.1,0-0.3,0-0.4
			c0-0.1,0-0.2,0-0.3s0-0.2,0-0.2c0.1-0.4,0.3-0.6,0.6-0.6c0.2,0,0.4,0.1,0.5,0.2C54.2,50.1,54.3,50.3,54.3,50.5z"/>
		<path class="st7" d="M65.4,50.9c0,0.1,0,0.1,0,0.2c0,0.1-0.1,0.1-0.1,0.2c-0.1,0.1-0.1,0.1-0.2,0.2s-0.1,0.1-0.2,0.1
			c-0.2,0.1-0.4,0.2-0.7,0.2c-0.3,0.1-0.6,0.1-1.1,0.1c-0.3,0-0.7,0-1-0.1s-0.7-0.2-1-0.4c0.1,0.1,0.2,0.3,0.2,0.4
			c0,0.1,0,0.3,0,0.5c0,0.3-0.1,0.7-0.3,1c-0.2,0.4-0.4,0.7-0.7,1c-0.3,0.3-0.6,0.6-0.9,0.8c-0.2,0.1-0.4,0.2-0.6,0.3
			c-0.2,0.1-0.4,0.2-0.6,0.2s-0.5,0.1-0.7,0.1s-0.5,0-0.7,0c-0.2,0-0.3-0.1-0.5-0.2c-0.2-0.1-0.3-0.2-0.4-0.4s-0.2-0.3-0.3-0.5
			c-0.1-0.2-0.1-0.3-0.1-0.5c0-0.3,0-0.6,0.1-0.9c0.1-0.3,0.2-0.6,0.4-0.9c0.2-0.3,0.3-0.6,0.6-0.8c0.2-0.3,0.4-0.5,0.7-0.8
			c0.1-0.1,0.3-0.3,0.5-0.4c0.2-0.1,0.3-0.3,0.5-0.4c0.2-0.1,0.4-0.2,0.6-0.3c0.2-0.1,0.4-0.1,0.5-0.1c0.1,0,0.3,0,0.4,0.1
			c0.1,0,0.2,0.1,0.3,0.2c0.1,0.1,0.2,0.2,0.3,0.3s0.2,0.2,0.3,0.3c0,0,0.1,0.1,0.3,0.2s0.4,0.1,0.6,0.2c0.2,0.1,0.5,0.1,0.8,0.2
			s0.5,0.1,0.7,0.1s0.4,0,0.6,0c0.2,0,0.4,0,0.5-0.1c0.2,0,0.3-0.1,0.5-0.1c0.2-0.1,0.4-0.1,0.6-0.2C65.4,50.8,65.4,50.8,65.4,50.9z
			 M60.5,52.3c0-0.1,0-0.2,0-0.4c0-0.1-0.1-0.3-0.1-0.4s-0.1-0.2-0.2-0.3c-0.1-0.1-0.2-0.1-0.3-0.1c-0.2-0.1-0.4-0.2-0.5-0.2
			s-0.2-0.1-0.3-0.1c-0.1,0-0.1,0-0.2,0s-0.1,0.1-0.2,0.1s-0.1,0.1-0.2,0.2c-0.1,0.1-0.1,0.1-0.2,0.2c-0.1,0.2-0.3,0.3-0.4,0.4
			s-0.2,0.3-0.3,0.4c-0.1,0.1-0.2,0.3-0.3,0.4c-0.1,0.1-0.2,0.3-0.3,0.5c0,0.1-0.1,0.2-0.1,0.3c0,0.1-0.1,0.2-0.1,0.3s0,0.2,0,0.3
			c0,0.1,0,0.2,0,0.3c0,0.1,0,0.1,0.1,0.2c0,0.1,0.1,0.1,0.2,0.2s0.1,0.1,0.2,0.2s0.2,0.1,0.2,0.1c0.2,0,0.4,0,0.6,0
			c0.2,0,0.3-0.1,0.4-0.1c0.1,0,0.3-0.1,0.4-0.2c0.1-0.1,0.3-0.2,0.5-0.3c0.1-0.1,0.2-0.1,0.3-0.2c0.1-0.1,0.2-0.2,0.3-0.3
			c0.1-0.1,0.2-0.2,0.2-0.3c0.1-0.1,0.1-0.2,0.2-0.3c0-0.1,0.1-0.1,0.1-0.2c0-0.1,0.1-0.2,0.1-0.3c0-0.1,0-0.2,0-0.2
			C60.5,52.4,60.5,52.3,60.5,52.3z"/>
		<path class="st7" d="M75.7,51c0,0.2,0,0.3-0.1,0.5c-0.1,0.2-0.2,0.4-0.3,0.6c-0.2,0.2-0.4,0.4-0.6,0.7c-0.2,0.2-0.5,0.4-0.7,0.6
			s-0.5,0.4-0.8,0.5c-0.3,0.2-0.5,0.3-0.8,0.4c-0.2,0.1-0.5,0.2-0.7,0.3c-0.2,0.1-0.4,0.1-0.6,0.1c-0.2,0-0.4,0-0.5-0.1
			c-0.2-0.1-0.3-0.2-0.4-0.3c-0.1-0.1-0.2-0.2-0.3-0.4c-0.1-0.2-0.1-0.3-0.2-0.5c-0.1-0.2-0.1-0.3-0.1-0.5c0-0.2-0.1-0.3-0.1-0.5
			c-0.1,0.2-0.2,0.3-0.4,0.5c-0.1,0.2-0.3,0.4-0.4,0.6s-0.3,0.4-0.5,0.6c-0.2,0.2-0.3,0.3-0.4,0.5c-0.2,0.2-0.3,0.3-0.5,0.4
			c-0.2,0.1-0.4,0.3-0.6,0.4s-0.4,0.2-0.6,0.3c-0.2,0.1-0.5,0.1-0.7,0.1c-0.3,0-0.6-0.1-0.8-0.4c-0.2-0.3-0.3-0.6-0.3-0.9
			c0-0.2,0-0.3,0-0.5c0-0.2,0.1-0.4,0.1-0.5c0-0.2,0.1-0.3,0.1-0.5c0-0.2,0.1-0.3,0.1-0.5c0-0.1,0-0.1,0-0.2c0-0.1,0-0.2,0-0.3
			c0-0.1,0-0.2,0-0.3c0-0.1,0-0.2,0-0.3s0-0.2,0-0.2c0-0.1,0-0.2,0-0.3c0-0.1,0.1-0.3,0.2-0.4c0.1-0.1,0.2-0.2,0.4-0.2
			c0.4,0,0.6,0.3,0.6,0.8c0,0.1,0,0.2,0,0.3c0,0.1,0,0.2-0.1,0.3c0,0.1-0.1,0.2-0.1,0.4s-0.1,0.2-0.1,0.4c0,0.2-0.1,0.3-0.1,0.5
			c0,0.2-0.1,0.3-0.1,0.5c0,0.1-0.1,0.3-0.1,0.4c0,0.1,0,0.3,0,0.4c0,0.1,0,0.1,0,0.2s0,0.1,0.1,0.2c0,0.1,0.1,0.1,0.1,0.2
			c0.1,0,0.1,0.1,0.2,0.1c0.2,0,0.5-0.1,0.7-0.2c0.2-0.1,0.5-0.3,0.7-0.4s0.4-0.4,0.6-0.6c0.2-0.2,0.4-0.4,0.5-0.6
			c0.1-0.2,0.3-0.4,0.4-0.6s0.3-0.5,0.4-0.7c0.1-0.2,0.2-0.5,0.4-0.7c0.1-0.2,0.2-0.5,0.3-0.7c0.2-0.4,0.4-0.7,0.6-0.7
			c0.1,0,0.2,0,0.2,0.1c0,0,0.1,0.1,0.1,0.2c0,0.1,0,0.2,0,0.3c0,0.1,0,0.3-0.1,0.4c0,0.2,0,0.3-0.1,0.4c0,0.1,0,0.2,0,0.3
			c0,0.1,0,0.2,0,0.3c0,0.1,0,0.2,0,0.3s0,0.2,0,0.3c0,0.1,0,0.2,0,0.3c0,0.1,0,0.2,0.1,0.3c0,0.1,0.1,0.2,0.2,0.4
			c0.1,0.1,0.2,0.2,0.2,0.3s0.2,0.1,0.3,0.1c0.2,0,0.5-0.1,0.8-0.2s0.6-0.3,0.9-0.5c0.3-0.2,0.6-0.4,0.9-0.7
			c0.3-0.3,0.6-0.5,0.9-0.8c0.1-0.1,0.2-0.2,0.3-0.3c0.1-0.1,0.2-0.2,0.3-0.2C75.5,51,75.6,51,75.7,51C75.7,51,75.7,51,75.7,51z"/>
		<path class="st7" d="M80.7,51c0,0,0,0.1,0,0.1c0,0,0,0.1,0,0.1s0,0.1-0.1,0.1s-0.1,0.1-0.1,0.1c0,0-0.1,0-0.1,0
			c-0.1,0-0.1,0-0.2,0c-0.1,0-0.1,0-0.2,0c-0.1,0-0.1,0-0.1,0c-0.8,0-1.5,0.3-2.1,0.9c-0.6,0.5-1,1.2-1.4,2
			c-0.1,0.2-0.1,0.4-0.2,0.5c-0.1,0.2-0.1,0.4-0.2,0.6c0,0.1-0.1,0.2-0.1,0.3c0,0.1,0,0.2-0.1,0.3c0,0,0,0.1-0.1,0.1
			c-0.1,0-0.1,0.1-0.2,0.1c-0.1,0-0.2,0-0.2,0.1c-0.1,0-0.1,0-0.2,0c-0.3,0-0.5-0.3-0.5-0.9c0-0.2,0-0.3,0-0.4c0-0.1,0-0.3,0-0.4
			s0-0.3,0-0.4c0-0.1,0-0.3,0-0.5c0-0.2,0-0.5,0.1-0.7s0.1-0.6,0.1-0.8s0.1-0.5,0.1-0.8c0-0.3,0.1-0.5,0.1-0.6
			c0-0.2,0.1-0.3,0.2-0.4c0.1-0.1,0.2-0.1,0.4-0.2c0,0,0.1,0,0.1,0s0.1,0.1,0.1,0.1c0,0,0.1,0.1,0.1,0.1c0,0,0,0.1,0,0.1
			c0,0.1,0,0.2,0,0.3c0,0.1,0,0.2,0,0.4s0,0.3-0.1,0.4c0,0.1-0.1,0.3-0.1,0.4c-0.1,0.2-0.1,0.4-0.1,0.6s-0.1,0.3-0.1,0.5
			s0,0.3-0.1,0.5s-0.1,0.4-0.1,0.7c0.1-0.2,0.1-0.3,0.2-0.4c0.1-0.1,0.1-0.2,0.1-0.3c0-0.1,0.1-0.2,0.1-0.2c0-0.1,0.1-0.1,0.1-0.2
			c0-0.1,0.1-0.1,0.1-0.2c0.1-0.1,0.1-0.2,0.2-0.3c0.3-0.5,0.6-0.9,1-1.2c0.4-0.3,0.7-0.5,1-0.6c0.4-0.2,0.7-0.2,0.9-0.3
			c0.1,0,0.3,0,0.4,0c0.2,0,0.3,0,0.5,0.1c0.1,0,0.3,0.1,0.4,0.2C80.7,50.9,80.7,50.9,80.7,51z"/>
		<path class="st7" d="M88.2,51.6c0,0.1,0,0.1-0.1,0.2c0,0.1-0.1,0.2-0.2,0.2c-0.1,0.1-0.1,0.2-0.2,0.3c-0.1,0.1-0.2,0.2-0.3,0.3
			c-0.1,0.1-0.1,0.1-0.2,0.2c-0.1,0.1-0.2,0.2-0.3,0.2c-0.1,0.1-0.2,0.2-0.3,0.3c-0.1,0.1-0.3,0.3-0.4,0.4c-0.2,0.1-0.3,0.3-0.5,0.4
			s-0.4,0.3-0.6,0.4s-0.4,0.3-0.6,0.4c-0.2,0.1-0.3,0.3-0.5,0.4c-0.3,0.2-0.6,0.5-0.9,0.7c-0.3,0.2-0.6,0.4-0.8,0.6
			c-0.6,0.3-1,0.5-1.3,0.5c-0.1,0-0.2,0-0.4-0.1c-0.1-0.1-0.2-0.1-0.2-0.2c0-0.3,0.1-0.5,0.3-0.6c0.2-0.1,0.5-0.3,1-0.5
			c0.4-0.2,0.8-0.3,1-0.5s0.3-0.4,0.3-0.6c0-0.1-0.2-0.4-0.5-0.8c-0.1-0.2-0.3-0.4-0.4-0.6c-0.1-0.2-0.2-0.3-0.3-0.5
			c-0.2-0.3-0.3-0.6-0.3-0.9c0-0.3,0.1-0.6,0.2-0.9c0.1-0.2,0.1-0.3,0.3-0.5c0.1-0.2,0.2-0.3,0.4-0.5c0.1-0.1,0.3-0.2,0.4-0.3
			c0.1-0.1,0.3-0.1,0.4-0.1c0.4,0,0.6,0.2,0.6,0.6c0,0.2-0.1,0.3-0.2,0.5c-0.1,0.1-0.1,0.1-0.2,0.2c-0.1,0.1-0.2,0.2-0.3,0.3
			c-0.1,0.1-0.2,0.2-0.3,0.2c-0.1,0.1-0.1,0.1-0.2,0.2c0,0.2,0.1,0.5,0.2,0.7c0.1,0.1,0.2,0.3,0.3,0.5c0.1,0.2,0.2,0.3,0.3,0.5
			c0.1,0.2,0.2,0.4,0.3,0.5c0.1,0.1,0.2,0.3,0.2,0.3c0,0,0,0,0.1,0c0.1,0,0.2,0,0.3-0.1c0.2-0.1,0.3-0.2,0.5-0.3
			c0.2-0.1,0.4-0.3,0.7-0.5s0.5-0.4,0.7-0.6c0.3-0.2,0.5-0.4,0.6-0.6c0.2-0.2,0.3-0.3,0.5-0.4s0.3-0.2,0.3-0.3s0.1-0.1,0.1-0.1
			c0,0,0.1,0,0.1,0c0,0,0.1,0.1,0.1,0.1c0,0,0,0.1,0.1,0.1S88.2,51.5,88.2,51.6z"/>
		<path class="st7" d="M95.1,51.8c0,0.1,0,0.2-0.1,0.3c-0.2,0.3-0.5,0.6-0.8,0.9s-0.6,0.6-0.9,0.9c-0.3,0.3-0.7,0.5-1,0.8
			c-0.3,0.2-0.7,0.4-1,0.6s-0.7,0.3-1.1,0.4c-0.4,0.1-0.7,0.1-1,0.1c-0.7,0-1.3-0.2-1.6-0.6c-0.4-0.4-0.6-0.9-0.6-1.7
			c0-0.6,0.1-1.3,0.3-1.9c0.2-0.6,0.6-1.2,1.1-1.7c0.1-0.1,0.2-0.2,0.3-0.3c0.1-0.1,0.2-0.2,0.4-0.2c0.1-0.1,0.3-0.1,0.4-0.2
			c0.1,0,0.3-0.1,0.4-0.1c0,0,0.1,0,0.1,0c0.1,0,0.1,0,0.2,0c0.1,0,0.1,0,0.2,0.1c0.1,0,0.1,0.1,0.2,0.1c0.1,0.1,0.2,0.3,0.3,0.4
			c0.1,0.1,0.1,0.3,0.1,0.5c0,0.2,0,0.4-0.1,0.6s-0.1,0.4-0.3,0.6c-0.1,0.2-0.3,0.4-0.5,0.6s-0.5,0.4-0.8,0.6
			c-0.2,0.1-0.4,0.3-0.6,0.5c-0.2,0.2-0.5,0.4-0.8,0.6c0,0.4,0.1,0.7,0.4,0.9c0.3,0.2,0.6,0.3,1.1,0.3c0.3,0,0.5,0,0.8-0.1
			c0.3-0.1,0.5-0.1,0.8-0.2s0.5-0.2,0.7-0.3c0.2-0.1,0.4-0.3,0.7-0.4c0.4-0.3,0.7-0.5,1-0.8s0.6-0.5,0.9-0.8l0.4-0.3
			c0.2-0.2,0.4-0.3,0.5-0.3C95.1,51.6,95.1,51.7,95.1,51.8z M90,50.5c0-0.1,0-0.1,0-0.2c0-0.1,0-0.1-0.1-0.2s-0.1-0.1-0.1-0.1
			c0,0-0.1,0-0.1,0c-0.2,0-0.5,0.1-0.7,0.4c-0.2,0.3-0.5,0.6-0.7,1c0,0.1-0.1,0.2-0.1,0.3c0,0.1-0.1,0.2-0.1,0.3
			c0,0.1-0.1,0.2-0.1,0.3c0,0.1,0,0.2-0.1,0.3c0.2-0.2,0.4-0.3,0.6-0.4c0.2-0.1,0.4-0.3,0.5-0.4c0.1-0.1,0.2-0.2,0.3-0.3
			s0.2-0.2,0.3-0.3c0.1-0.1,0.2-0.2,0.2-0.4C90,50.8,90,50.7,90,50.5z"/>
		<path class="st7" d="M100.7,52.3c0,0.2-0.1,0.5-0.4,0.9c0,0.1-0.1,0.2-0.2,0.3c-0.1,0.1-0.2,0.2-0.3,0.3c-0.1,0.1-0.2,0.2-0.3,0.4
			c-0.1,0.1-0.2,0.2-0.3,0.3c-0.2,0.2-0.4,0.3-0.6,0.5c-0.2,0.1-0.4,0.3-0.6,0.4c-0.2,0.1-0.5,0.2-0.7,0.3c-0.2,0.1-0.5,0.1-0.7,0.1
			c-0.3,0-0.6-0.1-0.9-0.2s-0.5-0.3-0.7-0.5c-0.2-0.2-0.4-0.5-0.5-0.8c-0.1-0.3-0.2-0.7-0.2-1.1c0-0.3,0-0.6,0-0.9
			c0-0.3,0.1-0.6,0.1-1c0-0.3,0.1-0.6,0.2-1c0.1-0.3,0.1-0.6,0.2-0.9c0-0.2,0.1-0.4,0.1-0.5s0.1-0.3,0.1-0.4s0-0.2,0.1-0.3
			s0-0.3,0.1-0.4c0-0.1,0-0.2,0-0.3c0-0.1,0-0.2,0-0.2c0-0.1,0-0.2,0.1-0.3c0-0.1,0.1-0.2,0.2-0.2c0.1-0.1,0.1-0.1,0.2-0.2
			c0.1,0,0.2-0.1,0.3-0.1c0.2,0,0.4,0.1,0.5,0.3c0,0.1-0.1,0.2-0.1,0.4c0,0.1-0.1,0.2-0.1,0.4c-0.1,0.5-0.2,0.9-0.3,1.2
			c-0.1,0.3-0.1,0.5-0.2,0.7c-0.1,0.3-0.1,0.5-0.2,0.8s-0.1,0.6-0.2,0.9s-0.1,0.6-0.1,0.9c0,0.3,0,0.6,0,0.8c0,0.3,0,0.5,0.1,0.8
			s0.1,0.4,0.2,0.6c0.1,0.2,0.2,0.3,0.4,0.4c0.2,0.1,0.4,0.1,0.6,0.1c0.3,0,0.5-0.1,0.8-0.2s0.5-0.2,0.7-0.4
			c0.2-0.2,0.5-0.4,0.7-0.6s0.4-0.4,0.6-0.6c0.1-0.2,0.3-0.3,0.4-0.4c0.1-0.1,0.2-0.2,0.3-0.3c0.1-0.1,0.1-0.1,0.2-0.2
			c0.1-0.1,0.1-0.1,0.2-0.1C100.6,52.1,100.7,52.1,100.7,52.3z"/>
		<path class="st7" d="M106.8,51.3c0,0.1-0.1,0.2-0.2,0.3s-0.2,0.2-0.3,0.3c0,0-0.1,0.1-0.3,0.1c-0.5,0.1-1.2,0.2-1.9,0.3
			c-0.4,0-0.7,0.1-1,0.1c-0.3,0-0.6,0-0.9,0c0,0.2,0,0.3-0.1,0.5c0,0.2,0,0.3-0.1,0.5c0,0.2,0,0.3-0.1,0.5c0,0.2,0,0.3-0.1,0.4
			c0,0.3-0.1,0.6-0.1,0.9c0,0.3-0.1,0.7-0.2,1.2c-0.1,0.5-0.2,0.9-0.3,1.2c-0.2,0.4-0.4,0.8-0.7,1.1c-0.3,0.3-0.7,0.5-1.1,0.5
			c-0.1,0-0.3,0-0.4-0.1c-0.2-0.1-0.2-0.2-0.2-0.3c0-0.1,0-0.1,0-0.2s0-0.1,0.1-0.2s0.1-0.1,0.1-0.2s0.1-0.1,0.2-0.1
			c0.1,0,0.2,0,0.3,0c0.1,0,0.2,0,0.3,0c0.1-0.1,0.2-0.1,0.3-0.2c0.1-0.1,0.1-0.2,0.2-0.3c0.1-0.1,0.1-0.3,0.1-0.4
			c0-0.1,0.1-0.3,0.1-0.4c0.1-0.3,0.1-0.6,0.2-0.8s0.1-0.5,0.1-0.8c0-0.2,0.1-0.5,0.1-0.7c0-0.2,0.1-0.5,0.1-0.7
			c0-0.1,0-0.3,0.1-0.5c0-0.2,0-0.4,0-0.6c0-0.1,0-0.1-0.1-0.2s-0.1-0.1-0.2-0.1c-0.1,0-0.1-0.1-0.2-0.1c0-0.1-0.1-0.1-0.1-0.2
			c0-0.1,0.1-0.2,0.4-0.5c0.2-0.3,0.4-0.5,0.4-0.7c0-0.1,0-0.2,0.1-0.3c0-0.1,0-0.3,0.1-0.4c0.1-0.3,0.1-0.6,0.2-0.8
			c0.1-0.2,0.1-0.5,0.2-0.7c0.1-0.2,0.2-0.5,0.3-0.7c0.2-0.3,0.5-0.6,0.8-0.8c0.3-0.3,0.6-0.4,1-0.4c0.3,0,0.6,0.1,0.9,0.3
			c0.2,0.2,0.4,0.5,0.4,0.8c0,0.4-0.2,0.8-0.5,1.3c-0.2,0.3-0.4,0.4-0.5,0.4h0c0.1-0.3,0.1-0.6,0.1-0.9c0-0.2,0-0.5-0.1-0.7
			c-0.1-0.2-0.2-0.4-0.3-0.4c-0.2,0-0.4,0.1-0.5,0.3c-0.2,0.2-0.3,0.4-0.4,0.6c-0.2,0.3-0.3,0.7-0.4,1.2c-0.1,0.3-0.1,0.5-0.2,0.7
			s-0.1,0.4-0.1,0.6v0.3c0,0.2,0.2,0.3,0.7,0.3c0.4,0,0.7,0,1,0c0.3,0,0.6,0,0.9,0c0.3,0,0.5,0,0.8-0.1c0.3,0,0.6-0.1,0.9-0.1
			c0,0,0.1,0,0.1,0S106.7,51.2,106.8,51.3C106.8,51.2,106.8,51.2,106.8,51.3z"/>
		<path class="st7" d="M118.1,52c0,0.1,0,0.2-0.1,0.3c-0.1,0.1-0.2,0.3-0.4,0.5c-0.1,0.2-0.3,0.4-0.5,0.6s-0.4,0.4-0.6,0.6
			c-0.2,0.2-0.5,0.5-0.8,0.7c-0.3,0.2-0.6,0.4-0.9,0.7c-0.6,0.4-1.2,0.6-1.7,0.6c-0.5,0-0.9-0.2-1.2-0.5c-0.3-0.3-0.5-0.7-0.6-1.2
			c-0.1-0.5-0.2-0.9-0.2-1.4c0-0.2,0-0.5,0.1-1c0-0.2,0.1-0.4,0.1-0.6c0-0.2,0.1-0.3,0.1-0.4c0.1-0.2,0.2-0.4,0.4-0.5
			c0.2-0.2,0.4-0.2,0.6-0.2c0.1,0,0.2,0.1,0.2,0.3c0,0.1,0,0.3,0,0.5s-0.1,0.3-0.1,0.5c-0.1,0.3-0.1,0.6-0.1,0.9s0,0.5,0,0.7
			c0,0.4,0.1,0.8,0.2,1.2c0.1,0.4,0.3,0.6,0.7,0.6c0.3,0,0.7-0.1,1.1-0.3c0.2-0.1,0.4-0.2,0.6-0.4c0.2-0.1,0.4-0.3,0.6-0.5
			c0.2-0.2,0.4-0.3,0.6-0.5c0.2-0.2,0.4-0.3,0.6-0.5c0.2-0.2,0.4-0.4,0.5-0.5c0.2-0.2,0.3-0.3,0.4-0.4c0,0,0,0,0,0c0,0,0,0,0-0.1
			c0,0,0,0,0,0c0,0,0,0,0,0c0.1,0,0.1,0,0.1,0.1C118.1,51.9,118.1,51.9,118.1,52z M113.8,47c0,0.3-0.1,0.5-0.2,0.7
			c-0.1,0.2-0.4,0.3-0.6,0.3c-0.2,0-0.4,0-0.6-0.1c-0.2,0-0.3-0.1-0.3-0.2c0-0.2,0.1-0.4,0.2-0.6c0.1-0.2,0.3-0.3,0.5-0.4
			c0.1-0.1,0.2-0.1,0.3-0.1c0.3,0,0.4,0,0.6,0.1C113.7,46.7,113.8,46.8,113.8,47z"/>
		<path class="st7" d="M128.6,51.6c0,0.1,0,0.2,0,0.2s-0.1,0.2-0.1,0.2s-0.1,0.2-0.1,0.2s-0.1,0.1-0.2,0.2c-0.1,0.2-0.3,0.4-0.5,0.6
			c-0.2,0.2-0.4,0.4-0.6,0.6s-0.4,0.3-0.6,0.5c-0.2,0.2-0.4,0.3-0.6,0.4c-0.2,0.1-0.3,0.2-0.5,0.3c-0.1,0.1-0.3,0.2-0.4,0.2
			c-0.1,0.1-0.3,0.1-0.5,0.1c-0.2,0-0.3,0.1-0.5,0.1c-0.4,0-0.7-0.1-0.9-0.3c-0.1-0.1-0.2-0.2-0.3-0.3c-0.1-0.1-0.2-0.3-0.2-0.5
			c-0.1-0.2-0.1-0.3-0.2-0.5c0-0.2-0.1-0.4-0.1-0.6c0-0.2-0.1-0.4-0.1-0.6c0-0.2-0.1-0.3-0.1-0.5c0-0.1-0.1-0.2-0.2-0.3
			c-0.1-0.1-0.2-0.1-0.3-0.1c-0.1,0-0.2,0-0.2,0s-0.2,0-0.2,0.1c-0.1,0-0.2,0.1-0.3,0.2c-0.1,0.1-0.2,0.2-0.3,0.4
			c-0.1,0.1-0.3,0.3-0.4,0.5c-0.2,0.2-0.4,0.5-0.6,0.8c-0.1,0.1-0.2,0.3-0.4,0.5c-0.2,0.2-0.3,0.3-0.5,0.5c-0.2,0.2-0.3,0.3-0.5,0.4
			c-0.2,0.1-0.3,0.2-0.4,0.2c-0.4-0.1-0.6-0.5-0.6-1.3c0-0.2,0-0.5,0.1-1c0-0.2,0.1-0.4,0.1-0.6c0-0.2,0.1-0.4,0.1-0.7
			c0.1-0.2,0.1-0.4,0.2-0.6s0.1-0.4,0.2-0.6c0-0.1,0.1-0.1,0.1-0.2c0,0,0.1-0.1,0.1-0.1s0.1,0,0.2,0c0.1,0,0.1,0,0.2,0
			c0.1,0,0.1,0,0.2,0.1c0.1,0.1,0.1,0.2,0.1,0.4c0,0.1,0,0.2,0,0.3c0,0.1,0,0.2-0.1,0.3c0,0.1-0.1,0.2-0.1,0.3s-0.1,0.2-0.1,0.4
			c0,0.1-0.1,0.2-0.1,0.4c0,0.1-0.1,0.3-0.1,0.4c0,0.1-0.1,0.3-0.1,0.4c0,0.1,0,0.3,0,0.4c0,0.1,0,0.1,0,0.2c0.1,0,0.3-0.2,0.6-0.5
			c0.1-0.2,0.3-0.3,0.5-0.5c0.2-0.2,0.4-0.4,0.6-0.7c0.2-0.2,0.3-0.3,0.4-0.5c0.1-0.2,0.3-0.3,0.5-0.4c0.2-0.1,0.3-0.2,0.5-0.3
			c0.2-0.1,0.4-0.1,0.6-0.1c0.2,0,0.4,0,0.6,0.1c0.2,0.1,0.3,0.2,0.4,0.4s0.2,0.4,0.2,0.6c0.1,0.2,0.1,0.5,0.1,0.7
			c0,0.2,0.1,0.5,0.1,0.7s0.1,0.4,0.1,0.6c0.1,0.2,0.2,0.3,0.3,0.4c0.1,0.1,0.3,0.2,0.6,0.2c0.2,0,0.4,0,0.6-0.1
			c0.2-0.1,0.4-0.2,0.7-0.3c0.2-0.1,0.5-0.3,0.7-0.5c0.2-0.2,0.5-0.4,0.8-0.6c0.1-0.1,0.2-0.2,0.3-0.3c0.1-0.1,0.2-0.3,0.4-0.4
			s0.2-0.2,0.3-0.3c0.1-0.1,0.2-0.1,0.2-0.1c0,0,0.1,0,0.1,0S128.6,51.5,128.6,51.6z"/>
		<path class="st7" d="M134.5,50.6c0,0.2,0,0.3-0.1,0.3c-0.1,0.1-0.2,0.1-0.3,0.2c-0.1,0.1-0.3,0.1-0.5,0.2s-0.4,0.1-0.5,0.1
			c-0.2,0-0.4,0.1-0.6,0.1s-0.4,0-0.5,0.1c-0.2,0-0.4,0-0.6,0c-0.2,0-0.4,0-0.6,0.1c-0.2,0-0.4,0-0.5,0.1c-0.2,0-0.3,0.1-0.4,0.1
			c-0.1,0.4-0.2,0.7-0.3,1.1c-0.1,0.3-0.2,0.7-0.3,1c0,0.1,0,0.2-0.1,0.3c0,0.2-0.1,0.3-0.1,0.5c0,0.2,0,0.3-0.1,0.5
			c0,0.1,0,0.3,0,0.3c0,0.2,0,0.3,0.1,0.4c0.1,0.1,0.1,0.2,0.2,0.2c0.1,0.1,0.1,0.1,0.2,0.1c0.1,0,0.1,0.1,0.1,0.2
			c0,0.1,0,0.1-0.1,0.2s-0.1,0.1-0.2,0.1c-0.1,0-0.2,0.1-0.3,0.1c-0.1,0-0.2,0-0.2,0c-0.1,0-0.2,0-0.3-0.1c-0.1-0.1-0.2-0.1-0.3-0.3
			c-0.1-0.1-0.1-0.2-0.2-0.4c0-0.1-0.1-0.3-0.1-0.4c0-0.2,0-0.4,0.1-0.6c0-0.2,0.1-0.4,0.1-0.7c0.1-0.2,0.1-0.5,0.2-0.7
			s0.1-0.5,0.2-0.7c0-0.1,0-0.2,0.1-0.3s0-0.2,0.1-0.3c0-0.1,0-0.2,0-0.2c0-0.1,0-0.1,0-0.1c0-0.1,0-0.1-0.1-0.1
			c-0.1,0-0.1-0.1-0.2-0.1c-0.1,0-0.1,0-0.2,0c-0.1,0-0.2,0-0.3,0c-0.1,0-0.2,0-0.3,0s-0.2,0-0.2,0c-0.2,0-0.3,0-0.4,0
			c-0.1,0-0.2-0.1-0.3-0.1c-0.1,0-0.1-0.1-0.2-0.2c0-0.1,0-0.2,0-0.3c0-0.1,0-0.1,0.1-0.1c0.1,0,0.1-0.1,0.2-0.1c0.1,0,0.2,0,0.3,0
			c0.1,0,0.2,0,0.2,0c0.1,0,0.2,0,0.3,0c0.1,0,0.3,0,0.4,0c0.1,0,0.3,0,0.4,0c0.1,0,0.2,0,0.3,0c0,0,0.1,0,0.1,0c0,0,0.1,0,0.1,0
			c0,0,0.1,0,0.1-0.1c0,0,0.1-0.1,0.1-0.2c0-0.1,0.1-0.3,0.1-0.4s0.1-0.3,0.1-0.5c0-0.2,0.1-0.3,0.1-0.5c0-0.2,0.1-0.3,0.1-0.4
			c0-0.1,0.1-0.2,0.1-0.4s0.1-0.3,0.1-0.4c0-0.1,0.1-0.3,0.1-0.4c0-0.1,0.1-0.2,0.1-0.3c0.1-0.2,0.3-0.3,0.5-0.3
			c0.3,0,0.5,0.2,0.5,0.5c0,0.2,0,0.4-0.1,0.7c-0.2,0.6-0.4,1.1-0.5,1.5c-0.1,0.4-0.2,0.7-0.2,0.8c0,0.2,0.1,0.2,0.2,0.2
			c0.2,0,0.4,0,0.6,0c0.2,0,0.4,0,0.5,0c0.2,0,0.4,0,0.6-0.1c0.2,0,0.4,0,0.7-0.1c0.2,0,0.3,0,0.5-0.1c0.2,0,0.3-0.1,0.4-0.1
			s0.3-0.1,0.4-0.1c0.1,0,0.2,0,0.3,0c0,0,0.1,0,0.1,0c0,0,0.1,0,0.1,0c0,0,0.1,0,0.1,0S134.5,50.5,134.5,50.6z"/>
		<path class="st7" d="M140.7,51.8c0,0.1,0,0.2-0.1,0.3c-0.2,0.3-0.5,0.6-0.8,0.9c-0.3,0.3-0.6,0.6-0.9,0.9c-0.3,0.3-0.7,0.5-1,0.8
			c-0.3,0.2-0.7,0.4-1,0.6c-0.4,0.2-0.7,0.3-1.1,0.4c-0.4,0.1-0.7,0.1-1,0.1c-0.7,0-1.3-0.2-1.6-0.6c-0.4-0.4-0.6-0.9-0.6-1.7
			c0-0.6,0.1-1.3,0.3-1.9c0.2-0.6,0.6-1.2,1.1-1.7c0.1-0.1,0.2-0.2,0.3-0.3c0.1-0.1,0.2-0.2,0.4-0.2c0.1-0.1,0.3-0.1,0.4-0.2
			c0.1,0,0.3-0.1,0.4-0.1c0,0,0.1,0,0.1,0c0.1,0,0.1,0,0.2,0c0.1,0,0.1,0,0.2,0.1c0.1,0,0.1,0.1,0.2,0.1c0.1,0.1,0.2,0.3,0.3,0.4
			c0.1,0.1,0.1,0.3,0.1,0.5c0,0.2,0,0.4-0.1,0.6c-0.1,0.2-0.1,0.4-0.3,0.6c-0.1,0.2-0.3,0.4-0.5,0.6s-0.5,0.4-0.8,0.6
			c-0.2,0.1-0.4,0.3-0.6,0.5s-0.5,0.4-0.8,0.6c0,0.4,0.1,0.7,0.4,0.9s0.6,0.3,1.1,0.3c0.3,0,0.5,0,0.8-0.1c0.3-0.1,0.5-0.1,0.8-0.2
			c0.2-0.1,0.5-0.2,0.7-0.3s0.4-0.3,0.7-0.4c0.4-0.3,0.7-0.5,1-0.8s0.6-0.5,0.9-0.8l0.4-0.3c0.2-0.2,0.4-0.3,0.5-0.3
			C140.7,51.6,140.7,51.7,140.7,51.8z M135.7,50.5c0-0.1,0-0.1,0-0.2s0-0.1-0.1-0.2c0,0-0.1-0.1-0.1-0.1c0,0-0.1,0-0.1,0
			c-0.2,0-0.5,0.1-0.7,0.4c-0.2,0.3-0.5,0.6-0.7,1c0,0.1-0.1,0.2-0.1,0.3c0,0.1-0.1,0.2-0.1,0.3c0,0.1-0.1,0.2-0.1,0.3
			c0,0.1,0,0.2-0.1,0.3c0.2-0.2,0.4-0.3,0.6-0.4c0.2-0.1,0.4-0.3,0.5-0.4c0.1-0.1,0.2-0.2,0.3-0.3s0.2-0.2,0.3-0.3
			c0.1-0.1,0.2-0.2,0.2-0.4C135.6,50.8,135.7,50.7,135.7,50.5z"/>
		<path class="st7" d="M146.3,52.3c0,0.2-0.1,0.5-0.4,0.9c0,0.1-0.1,0.2-0.2,0.3c-0.1,0.1-0.2,0.2-0.3,0.3c-0.1,0.1-0.2,0.2-0.3,0.4
			c-0.1,0.1-0.2,0.2-0.3,0.3c-0.2,0.2-0.4,0.3-0.6,0.5c-0.2,0.1-0.4,0.3-0.6,0.4c-0.2,0.1-0.5,0.2-0.7,0.3c-0.2,0.1-0.5,0.1-0.7,0.1
			c-0.3,0-0.6-0.1-0.9-0.2s-0.5-0.3-0.7-0.5c-0.2-0.2-0.4-0.5-0.5-0.8c-0.1-0.3-0.2-0.7-0.2-1.1c0-0.3,0-0.6,0-0.9
			c0-0.3,0.1-0.6,0.1-1c0-0.3,0.1-0.6,0.2-1c0.1-0.3,0.1-0.6,0.2-0.9c0-0.2,0.1-0.4,0.1-0.5s0.1-0.3,0.1-0.4s0-0.2,0.1-0.3
			s0-0.3,0.1-0.4c0-0.1,0-0.2,0-0.3c0-0.1,0-0.2,0-0.2c0-0.1,0-0.2,0.1-0.3c0-0.1,0.1-0.2,0.2-0.2c0.1-0.1,0.1-0.1,0.2-0.2
			c0.1,0,0.2-0.1,0.3-0.1c0.2,0,0.4,0.1,0.5,0.3c0,0.1-0.1,0.2-0.1,0.4c0,0.1-0.1,0.2-0.1,0.4c-0.1,0.5-0.2,0.9-0.3,1.2
			c-0.1,0.3-0.1,0.5-0.2,0.7c-0.1,0.3-0.1,0.5-0.2,0.8s-0.1,0.6-0.2,0.9s-0.1,0.6-0.1,0.9c0,0.3,0,0.6,0,0.8c0,0.3,0,0.5,0.1,0.8
			s0.1,0.4,0.2,0.6c0.1,0.2,0.2,0.3,0.4,0.4c0.2,0.1,0.4,0.1,0.6,0.1c0.3,0,0.5-0.1,0.8-0.2s0.5-0.2,0.7-0.4
			c0.2-0.2,0.5-0.4,0.7-0.6s0.4-0.4,0.6-0.6c0.1-0.2,0.3-0.3,0.4-0.4c0.1-0.1,0.2-0.2,0.3-0.3c0.1-0.1,0.1-0.1,0.2-0.2
			c0.1-0.1,0.1-0.1,0.2-0.1C146.3,52.1,146.3,52.1,146.3,52.3z"/>
		<path class="st7" d="M152.9,52c0,0.1,0,0.2-0.1,0.3c-0.1,0.1-0.2,0.3-0.4,0.5c-0.1,0.2-0.3,0.4-0.5,0.6s-0.4,0.4-0.6,0.6
			c-0.2,0.2-0.5,0.5-0.8,0.7c-0.3,0.2-0.6,0.4-0.9,0.7c-0.6,0.4-1.2,0.6-1.7,0.6c-0.5,0-0.9-0.2-1.2-0.5c-0.3-0.3-0.5-0.7-0.6-1.2
			c-0.1-0.5-0.2-0.9-0.2-1.4c0-0.2,0-0.5,0.1-1c0-0.2,0.1-0.4,0.1-0.6c0-0.2,0.1-0.3,0.1-0.4c0.1-0.2,0.2-0.4,0.4-0.5
			c0.2-0.2,0.4-0.2,0.6-0.2c0.1,0,0.2,0.1,0.2,0.3c0,0.1,0,0.3,0,0.5s-0.1,0.3-0.1,0.5c-0.1,0.3-0.1,0.6-0.1,0.9s0,0.5,0,0.7
			c0,0.4,0.1,0.8,0.2,1.2c0.1,0.4,0.3,0.6,0.7,0.6c0.3,0,0.7-0.1,1.1-0.3c0.2-0.1,0.4-0.2,0.6-0.4c0.2-0.1,0.4-0.3,0.6-0.5
			c0.2-0.2,0.4-0.3,0.6-0.5c0.2-0.2,0.4-0.3,0.6-0.5c0.2-0.2,0.4-0.4,0.5-0.5c0.2-0.2,0.3-0.3,0.4-0.4c0,0,0,0,0,0c0,0,0,0,0-0.1
			c0,0,0,0,0,0c0,0,0,0,0,0c0.1,0,0.1,0,0.1,0.1C152.9,51.9,152.9,51.9,152.9,52z M148.6,47c0,0.3-0.1,0.5-0.2,0.7
			c-0.1,0.2-0.4,0.3-0.6,0.3c-0.2,0-0.4,0-0.6-0.1c-0.2,0-0.3-0.1-0.3-0.2c0-0.2,0.1-0.4,0.2-0.6c0.1-0.2,0.3-0.3,0.5-0.4
			c0.1-0.1,0.2-0.1,0.3-0.1c0.3,0,0.4,0,0.6,0.1C148.5,46.7,148.6,46.8,148.6,47z"/>
		<path class="st7" d="M156.9,51.3c0,0.3-0.1,0.6-0.1,0.9c0,0.3-0.1,0.7-0.1,1.1c0,0.2,0,0.3-0.1,0.5c0,0.2,0,0.4-0.1,0.6
			s-0.1,0.4-0.1,0.6c0,0.2-0.1,0.4-0.1,0.5c0,0.2-0.1,0.5-0.2,0.7s-0.1,0.5-0.2,0.8c-0.1,0.2-0.2,0.5-0.3,0.7s-0.3,0.4-0.5,0.6
			c-0.2,0.2-0.4,0.3-0.6,0.4s-0.5,0.1-0.8,0.1c-0.2,0-0.4,0-0.6-0.1s-0.4-0.1-0.6-0.2c-0.2-0.1-0.4-0.2-0.6-0.3
			c-0.2-0.1-0.4-0.2-0.5-0.3c-0.2-0.1-0.3-0.3-0.5-0.4c-0.1-0.1-0.2-0.3-0.3-0.4c-0.1-0.1-0.1-0.3-0.1-0.4c0-0.1,0-0.2,0.1-0.2
			c0,0,0.1,0,0.1,0c0,0,0,0,0.1,0.1s0,0,0.1,0.1s0,0,0.1,0.1c0,0,0,0,0,0c0.9,0.7,1.8,1.1,2.7,1.1c0.3,0,0.6-0.1,0.8-0.2
			s0.4-0.3,0.5-0.5c0.1-0.2,0.2-0.5,0.3-0.7c0.1-0.3,0.1-0.5,0.2-0.8c0-0.2,0-0.3,0.1-0.5c0-0.2,0-0.3,0.1-0.5s0-0.4,0.1-0.6
			c0-0.2,0-0.4,0.1-0.6c-0.2,0.2-0.4,0.4-0.7,0.6c-0.3,0.2-0.6,0.4-0.9,0.6c-0.3,0.2-0.6,0.3-1,0.4c-0.3,0.1-0.6,0.2-0.9,0.2
			c-0.1,0-0.2,0-0.3-0.1c-0.1,0-0.2-0.1-0.3-0.2c-0.1-0.1-0.1-0.2-0.2-0.3c0-0.1-0.1-0.3-0.1-0.4c0-0.2,0-0.5,0.1-0.8
			c0.1-0.3,0.2-0.5,0.3-0.8c0.1-0.3,0.3-0.5,0.5-0.8c0.2-0.3,0.3-0.5,0.5-0.7c0.2-0.2,0.4-0.4,0.6-0.6c0.2-0.2,0.5-0.4,0.7-0.6
			s0.5-0.3,0.8-0.4c0.3-0.1,0.5-0.2,0.8-0.2c0.2,0,0.5,0,0.7,0.1c0.2,0.1,0.4,0.2,0.5,0.4c0,0,0,0.1,0,0.2c0,0.1,0,0.2,0,0.3
			c0,0.1,0,0.2,0,0.4S156.9,51.2,156.9,51.3z M155.8,52.4c0-0.1,0-0.3,0.1-0.4s0-0.4,0.1-0.6c0-0.1,0-0.3,0-0.4s0-0.2,0-0.3
			c0-0.1-0.1-0.2-0.2-0.2c-0.1,0-0.3,0-0.5,0c-0.2,0.1-0.4,0.3-0.6,0.5c-0.2,0.2-0.4,0.4-0.6,0.6c-0.2,0.2-0.4,0.4-0.5,0.6
			c-0.2,0.2-0.3,0.4-0.4,0.6c-0.1,0.2-0.2,0.5-0.3,0.7s-0.1,0.4-0.1,0.6c0,0.1,0,0.1,0,0.2s0.1,0.1,0.1,0.1c0,0,0.1,0,0.2,0.1
			c0.1,0,0.1,0,0.2,0c0.2,0,0.3,0,0.5-0.1c0.2-0.1,0.4-0.1,0.5-0.2c0.2-0.1,0.3-0.2,0.5-0.3c0.2-0.1,0.3-0.2,0.4-0.3
			c0,0,0.1-0.1,0.2-0.2c0.1-0.1,0.2-0.1,0.2-0.2c0.1-0.1,0.2-0.2,0.2-0.3S155.8,52.5,155.8,52.4z"/>
		<path class="st7" d="M166.8,51.8c0,0.1,0,0.2-0.1,0.3c-0.2,0.3-0.5,0.6-0.8,0.9c-0.3,0.3-0.6,0.6-0.9,0.9c-0.3,0.3-0.7,0.5-1,0.8
			c-0.3,0.2-0.7,0.4-1,0.6c-0.4,0.2-0.7,0.3-1.1,0.4c-0.4,0.1-0.7,0.1-1,0.1c-0.7,0-1.3-0.2-1.6-0.6c-0.4-0.4-0.6-0.9-0.6-1.7
			c0-0.6,0.1-1.3,0.3-1.9c0.2-0.6,0.6-1.2,1.1-1.7c0.1-0.1,0.2-0.2,0.3-0.3c0.1-0.1,0.2-0.2,0.4-0.2c0.1-0.1,0.3-0.1,0.4-0.2
			c0.1,0,0.3-0.1,0.4-0.1c0,0,0.1,0,0.1,0c0.1,0,0.1,0,0.2,0c0.1,0,0.1,0,0.2,0.1c0.1,0,0.1,0.1,0.2,0.1c0.1,0.1,0.2,0.3,0.3,0.4
			c0.1,0.1,0.1,0.3,0.1,0.5c0,0.2,0,0.4-0.1,0.6c-0.1,0.2-0.1,0.4-0.3,0.6c-0.1,0.2-0.3,0.4-0.5,0.6s-0.5,0.4-0.8,0.6
			c-0.2,0.1-0.4,0.3-0.6,0.5s-0.5,0.4-0.8,0.6c0,0.4,0.1,0.7,0.4,0.9s0.6,0.3,1.1,0.3c0.3,0,0.5,0,0.8-0.1c0.3-0.1,0.5-0.1,0.8-0.2
			c0.2-0.1,0.5-0.2,0.7-0.3s0.4-0.3,0.7-0.4c0.4-0.3,0.7-0.5,1-0.8s0.6-0.5,0.9-0.8l0.4-0.3c0.2-0.2,0.4-0.3,0.5-0.3
			C166.8,51.6,166.8,51.7,166.8,51.8z M161.7,50.5c0-0.1,0-0.1,0-0.2s0-0.1-0.1-0.2c0,0-0.1-0.1-0.1-0.1c0,0-0.1,0-0.1,0
			c-0.2,0-0.5,0.1-0.7,0.4c-0.2,0.3-0.5,0.6-0.7,1c0,0.1-0.1,0.2-0.1,0.3c0,0.1-0.1,0.2-0.1,0.3c0,0.1-0.1,0.2-0.1,0.3
			c0,0.1,0,0.2-0.1,0.3c0.2-0.2,0.4-0.3,0.6-0.4c0.2-0.1,0.4-0.3,0.5-0.4c0.1-0.1,0.2-0.2,0.3-0.3s0.2-0.2,0.3-0.3
			c0.1-0.1,0.2-0.2,0.2-0.4C161.7,50.8,161.7,50.7,161.7,50.5z"/>
		<path class="st7" d="M177.2,51.6c0,0.1,0,0.2,0,0.2s-0.1,0.2-0.1,0.2s-0.1,0.2-0.1,0.2s-0.1,0.1-0.2,0.2c-0.1,0.2-0.3,0.4-0.5,0.6
			c-0.2,0.2-0.4,0.4-0.6,0.6s-0.4,0.3-0.6,0.5c-0.2,0.2-0.4,0.3-0.6,0.4c-0.2,0.1-0.3,0.2-0.5,0.3c-0.1,0.1-0.3,0.2-0.4,0.2
			c-0.1,0.1-0.3,0.1-0.5,0.1c-0.2,0-0.3,0.1-0.5,0.1c-0.4,0-0.7-0.1-0.9-0.3c-0.1-0.1-0.2-0.2-0.3-0.3c-0.1-0.1-0.2-0.3-0.2-0.5
			c-0.1-0.2-0.1-0.3-0.2-0.5c0-0.2-0.1-0.4-0.1-0.6c0-0.2-0.1-0.4-0.1-0.6c0-0.2-0.1-0.3-0.1-0.5c0-0.1-0.1-0.2-0.2-0.3
			c-0.1-0.1-0.2-0.1-0.3-0.1c-0.1,0-0.2,0-0.2,0s-0.2,0-0.2,0.1c-0.1,0-0.2,0.1-0.3,0.2c-0.1,0.1-0.2,0.2-0.3,0.4
			c-0.1,0.1-0.3,0.3-0.4,0.5c-0.2,0.2-0.4,0.5-0.6,0.8c-0.1,0.1-0.2,0.3-0.4,0.5c-0.2,0.2-0.3,0.3-0.5,0.5c-0.2,0.2-0.3,0.3-0.5,0.4
			c-0.2,0.1-0.3,0.2-0.4,0.2c-0.4-0.1-0.6-0.5-0.6-1.3c0-0.2,0-0.5,0.1-1c0-0.2,0.1-0.4,0.1-0.6c0-0.2,0.1-0.4,0.1-0.7
			c0.1-0.2,0.1-0.4,0.2-0.6s0.1-0.4,0.2-0.6c0-0.1,0.1-0.1,0.1-0.2c0,0,0.1-0.1,0.1-0.1s0.1,0,0.2,0c0.1,0,0.1,0,0.2,0
			c0.1,0,0.1,0,0.2,0.1c0.1,0.1,0.1,0.2,0.1,0.4c0,0.1,0,0.2,0,0.3c0,0.1,0,0.2-0.1,0.3c0,0.1-0.1,0.2-0.1,0.3s-0.1,0.2-0.1,0.4
			c0,0.1-0.1,0.2-0.1,0.4c0,0.1-0.1,0.3-0.1,0.4c0,0.1-0.1,0.3-0.1,0.4c0,0.1,0,0.3,0,0.4c0,0.1,0,0.1,0,0.2c0.1,0,0.3-0.2,0.6-0.5
			c0.1-0.2,0.3-0.3,0.5-0.5c0.2-0.2,0.4-0.4,0.6-0.7c0.2-0.2,0.3-0.3,0.4-0.5c0.1-0.2,0.3-0.3,0.5-0.4c0.2-0.1,0.3-0.2,0.5-0.3
			c0.2-0.1,0.4-0.1,0.6-0.1c0.2,0,0.4,0,0.6,0.1c0.2,0.1,0.3,0.2,0.4,0.4s0.2,0.4,0.2,0.6c0.1,0.2,0.1,0.5,0.1,0.7
			c0,0.2,0.1,0.5,0.1,0.7s0.1,0.4,0.1,0.6c0.1,0.2,0.2,0.3,0.3,0.4c0.1,0.1,0.3,0.2,0.6,0.2c0.2,0,0.4,0,0.6-0.1
			c0.2-0.1,0.4-0.2,0.7-0.3c0.2-0.1,0.5-0.3,0.7-0.5c0.2-0.2,0.5-0.4,0.8-0.6c0.1-0.1,0.2-0.2,0.3-0.3c0.1-0.1,0.2-0.3,0.4-0.4
			s0.2-0.2,0.3-0.3c0.1-0.1,0.2-0.1,0.2-0.1c0,0,0.1,0,0.1,0S177.2,51.5,177.2,51.6z"/>
		<path class="st7" d="M183,50.6c0,0.2,0,0.3-0.1,0.3c-0.1,0.1-0.2,0.1-0.3,0.2c-0.1,0.1-0.3,0.1-0.5,0.2s-0.4,0.1-0.5,0.1
			c-0.2,0-0.4,0.1-0.6,0.1s-0.4,0-0.5,0.1c-0.2,0-0.4,0-0.6,0c-0.2,0-0.4,0-0.6,0.1c-0.2,0-0.4,0-0.5,0.1c-0.2,0-0.3,0.1-0.4,0.1
			c-0.1,0.4-0.2,0.7-0.3,1.1c-0.1,0.3-0.2,0.7-0.3,1c0,0.1,0,0.2-0.1,0.3c0,0.2-0.1,0.3-0.1,0.5c0,0.2,0,0.3-0.1,0.5
			c0,0.1,0,0.3,0,0.3c0,0.2,0,0.3,0.1,0.4c0.1,0.1,0.1,0.2,0.2,0.2c0.1,0.1,0.1,0.1,0.2,0.1c0.1,0,0.1,0.1,0.1,0.2
			c0,0.1,0,0.1-0.1,0.2s-0.1,0.1-0.2,0.1c-0.1,0-0.2,0.1-0.3,0.1c-0.1,0-0.2,0-0.2,0c-0.1,0-0.2,0-0.3-0.1c-0.1-0.1-0.2-0.1-0.3-0.3
			c-0.1-0.1-0.1-0.2-0.2-0.4c0-0.1-0.1-0.3-0.1-0.4c0-0.2,0-0.4,0.1-0.6c0-0.2,0.1-0.4,0.1-0.7c0.1-0.2,0.1-0.5,0.2-0.7
			s0.1-0.5,0.2-0.7c0-0.1,0-0.2,0.1-0.3s0-0.2,0.1-0.3c0-0.1,0-0.2,0-0.2c0-0.1,0-0.1,0-0.1c0-0.1,0-0.1-0.1-0.1
			c-0.1,0-0.1-0.1-0.2-0.1c-0.1,0-0.1,0-0.2,0c-0.1,0-0.2,0-0.3,0c-0.1,0-0.2,0-0.3,0s-0.2,0-0.2,0c-0.2,0-0.3,0-0.4,0
			c-0.1,0-0.2-0.1-0.3-0.1c-0.1,0-0.1-0.1-0.2-0.2c0-0.1,0-0.2,0-0.3c0-0.1,0-0.1,0.1-0.1c0.1,0,0.1-0.1,0.2-0.1c0.1,0,0.2,0,0.3,0
			c0.1,0,0.2,0,0.2,0c0.1,0,0.2,0,0.3,0c0.1,0,0.3,0,0.4,0c0.1,0,0.3,0,0.4,0c0.1,0,0.2,0,0.3,0c0,0,0.1,0,0.1,0c0,0,0.1,0,0.1,0
			c0,0,0.1,0,0.1-0.1c0,0,0.1-0.1,0.1-0.2c0-0.1,0.1-0.3,0.1-0.4s0.1-0.3,0.1-0.5c0-0.2,0.1-0.3,0.1-0.5c0-0.2,0.1-0.3,0.1-0.4
			c0-0.1,0.1-0.2,0.1-0.4s0.1-0.3,0.1-0.4c0-0.1,0.1-0.3,0.1-0.4c0-0.1,0.1-0.2,0.1-0.3c0.1-0.2,0.3-0.3,0.5-0.3
			c0.3,0,0.5,0.2,0.5,0.5c0,0.2,0,0.4-0.1,0.7c-0.2,0.6-0.4,1.1-0.5,1.5c-0.1,0.4-0.2,0.7-0.2,0.8c0,0.2,0.1,0.2,0.2,0.2
			c0.2,0,0.4,0,0.6,0c0.2,0,0.4,0,0.5,0c0.2,0,0.4,0,0.6-0.1c0.2,0,0.4,0,0.7-0.1c0.2,0,0.3,0,0.5-0.1c0.2,0,0.3-0.1,0.4-0.1
			s0.3-0.1,0.4-0.1c0.1,0,0.2,0,0.3,0c0,0,0.1,0,0.1,0c0,0,0.1,0,0.1,0c0,0,0.1,0,0.1,0S183,50.5,183,50.6z"/>
	</g>
</g>
</svg>
