<svg width="30" height="30" viewBox="0 0 30 30" fill="none" xmlns="http://www.w3.org/2000/svg">
<path fill-rule="evenodd" clip-rule="evenodd" d="M15 30C6.71573 30 0 23.2843 0 15C0 6.71573 6.71573 0 15 0C23.2843 0 30 6.71573 30 15C30 23.2843 23.2843 30 15 30ZM15 29C22.732 29 29 22.732 29 15C29 7.26801 22.732 1 15 1C7.26801 1 1 7.26801 1 15C1 22.732 7.26801 29 15 29ZM17.5 9.08108H19V6.51351C19 6.51351 17.451 6 16 6C13.2905 6 12.5 7.70641 12.5 10.1081V12H11V15H12.5V23.0037H16V15H18.5L19 12H16V10.1081C16 9.33989 16.4275 9.08108 17.5 9.08108Z" fill="#1A1A1A"/>
</svg>
