<svg xmlns="http://www.w3.org/2000/svg" width="380" height="539" fill="none" viewBox="0 0 380 539">
    <g clip-path="url(#clip0)">
        <path fill="#3382C7" d="M0 0h380v539H0V0z"/>
        <path fill="#fff" fill-opacity=".2" fill-rule="evenodd" d="M291 129.759v64.88c35.899 0 65-29.048 65-64.88" clip-rule="evenodd"/>
        <path stroke="#fff" d="M291 129.759v64.88c35.899 0 65-29.048 65-64.88h-65z"/>
        <path fill="#fff" fill-opacity=".4" fill-rule="evenodd" d="M291 473.788V539c-35.899 0-65-29.197-65-65.212" clip-rule="evenodd"/>
        <path stroke="#fff" d="M291 473.788V539c-35.899 0-65-29.197-65-65.212h65z"/>
        <path fill="#fff" fill-opacity=".4" fill-rule="evenodd" d="M291 408.575v65.213c-35.899 0-65-29.197-65-65.213" clip-rule="evenodd"/>
        <path stroke="#fff" d="M291 408.575v65.213c-35.899 0-65-29.197-65-65.213h65z"/>
        <path fill="#1A1A1A" fill-opacity=".2" fill-rule="evenodd" d="M291 408.575v-65.212c35.899 0 65 29.196 65 65.212" clip-rule="evenodd"/>
        <path stroke="#fff" d="M291 408.575v-65.212c35.899 0 65 29.196 65 65.212h-65z"/>
        <path fill="#fff" fill-opacity=".2" fill-rule="evenodd" stroke="#fff" d="M291 343.363h-65v65.212l65-65.212zM291 408.575h65v65.213l-65-65.213zM291 473.788h65V539l-65-65.212z" clip-rule="evenodd"/>
        <path fill="#fff" fill-opacity=".4" fill-rule="evenodd" stroke="#fff" d="M356 278.483h-65v64.88l65-64.88zM356 129.759h65v-64.88l-65 64.88zM291 343.363c0-17.916-14.551-32.44-32.5-32.44-17.949 0-32.5 14.524-32.5 32.44h65zM356 64.88c0-17.916-14.551-32.44-32.5-32.44-17.949 0-32.5 14.524-32.5 32.44h65zM356 0c0 17.916-14.551 32.44-32.5 32.44C305.551 32.44 291 17.916 291 0h65zM421 408.242c0-17.916-14.551-32.44-32.5-32.44-17.949 0-32.5 14.524-32.5 32.44h65z" clip-rule="evenodd"/>
        <path fill="#fff" fill-opacity=".4" fill-rule="evenodd" stroke="#fff" d="M421 343.363c0 17.916-14.551 32.44-32.5 32.44-17.949 0-32.5-14.524-32.5-32.44h65zM356 194.639c0 17.916-14.551 32.439-32.5 32.439-17.949 0-32.5-14.523-32.5-32.439h65z" clip-rule="evenodd"/>
        <path fill="#fff" fill-opacity=".2" fill-rule="evenodd" stroke="#fff" d="M291 277.984c0-17.916-14.551-32.44-32.5-32.44-17.949 0-32.5 14.524-32.5 32.44 0 17.916 14.551 32.44 32.5 32.44 17.949 0 32.5-14.524 32.5-32.44z" clip-rule="evenodd"/>
        <path fill="#fff" fill-opacity=".4" fill-rule="evenodd" stroke="#fff" d="M291 194.639h-65v-64.88l65 64.88z" clip-rule="evenodd"/>
        <path fill="#1A1A1A" fill-opacity=".2" stroke="#fff" d="M291 129.759H356V194.63899999999998H291z" transform="rotate(180 291 129.759)"/>
        <path fill="#1A1A1A" fill-opacity=".2" stroke="#fff" d="M421 343.363H486V408.243H421z" transform="rotate(180 421 343.363)"/>
        <path fill="#1A1A1A" fill-opacity=".2" fill-rule="evenodd" stroke="#fff" d="M291 0h-65v64.88L291 0z" clip-rule="evenodd"/>
        <path fill="#fff" fill-opacity=".2" fill-rule="evenodd" stroke="#fff" d="M356.162 129.759c0 35.832 27.274 64.88 60.919 64.88 33.645 0 60.919-29.048 60.919-64.88H356.162z" clip-rule="evenodd"/>
        <path fill="#1A1A1A" fill-opacity=".2" fill-rule="evenodd" stroke="#fff" d="M356 0c0 35.832 29.101 64.88 65 64.88S486 35.832 486 0H356z" clip-rule="evenodd"/>
        <path fill="#fff" d="M32.07 72.467c-.062-.629-.33-1.117-.804-1.466-.474-.348-1.118-.522-1.93-.522-.552 0-1.018.078-1.398.234-.38.15-.672.361-.875.631-.198.27-.297.578-.297.92-.01.287.05.536.18.75.135.212.32.397.554.553.234.15.505.283.813.398.307.109.635.202.984.28l1.437.343c.698.156 1.339.364 1.922.624.584.26 1.089.58 1.516.96.427.379.758.826.992 1.34.24.515.362 1.105.367 1.77-.005.978-.255 1.826-.75 2.543-.49.712-1.198 1.266-2.125 1.66-.922.39-2.034.586-3.336.586-1.291 0-2.416-.198-3.375-.593-.953-.395-1.698-.98-2.234-1.754-.531-.78-.81-1.745-.836-2.894h3.273c.037.536.19.983.461 1.342.276.353.644.621 1.102.803.463.177.987.265 1.57.265.573 0 1.07-.083 1.492-.25.428-.166.758-.397.993-.693.234-.297.351-.637.351-1.022 0-.359-.107-.66-.32-.905-.209-.244-.516-.452-.922-.623-.401-.172-.893-.328-1.477-.468l-1.742-.437c-1.349-.328-2.414-.84-3.195-1.536-.781-.697-1.17-1.635-1.164-2.815-.005-.967.252-1.812.773-2.535.526-.722 1.248-1.286 2.164-1.692.917-.405 1.959-.608 3.125-.608 1.188 0 2.224.203 3.11.608.89.406 1.583.97 2.078 1.692.495.723.75 1.56.766 2.511H32.07zM40.76 80.398l.008-3.985h.484l3.844-4.546h3.82l-5.164 6.02h-.79l-2.202 2.51zm-3.016 3.447v-15.97h3.328v15.97h-3.328zm7.5 0l-3.531-5.217 2.219-2.347 5.21 7.564h-3.898zM50.549 83.845V71.867h3.328v11.978h-3.328zm1.68-13.522c-.495 0-.92-.164-1.274-.491-.354-.333-.531-.73-.531-1.194 0-.457.177-.85.531-1.177.354-.333.776-.5 1.266-.5.5 0 .924.167 1.273.5.354.328.531.72.531 1.177 0 .463-.177.86-.53 1.194-.35.327-.772.49-1.267.49zM59.871 67.874v15.97h-3.328v-15.97h3.328zM65.865 67.874v15.97h-3.328v-15.97h3.328zM78.516 75.282l-3.047.188c-.052-.26-.164-.494-.336-.702-.172-.213-.399-.382-.68-.507-.276-.13-.607-.195-.992-.195-.516 0-.95.11-1.305.327-.354.214-.531.5-.531.858 0 .286.115.528.344.725.229.198.622.357 1.18.476l2.171.437c1.167.239 2.037.624 2.61 1.154.573.53.86 1.227.86 2.09 0 .785-.233 1.474-.696 2.066-.459.593-1.089 1.056-1.89 1.388-.798.328-1.717.492-2.759.492-1.588 0-2.854-.33-3.797-.99-.937-.666-1.486-1.57-1.648-2.715l3.273-.171c.1.483.339.853.72 1.107.38.25.866.375 1.46.375.584 0 1.052-.112 1.406-.336.36-.228.542-.522.547-.88-.005-.302-.133-.55-.383-.742-.25-.197-.635-.348-1.156-.452l-2.078-.413c-1.172-.234-2.044-.64-2.617-1.217-.568-.577-.852-1.312-.852-2.207 0-.769.209-1.432.625-1.988.422-.556 1.013-.985 1.774-1.287.765-.301 1.661-.452 2.687-.452 1.516 0 2.709.32 3.578.96.875.638 1.386 1.51 1.532 2.611zM94.719 72.467c-.063-.629-.331-1.117-.805-1.466-.474-.348-1.117-.522-1.93-.522-.552 0-1.018.078-1.398.234-.38.15-.672.361-.875.631-.198.27-.297.578-.297.92-.01.287.05.536.18.75.135.212.32.397.554.553.235.15.506.283.813.398.307.109.635.202.984.28l1.438.343c.698.156 1.338.364 1.922.624.583.26 1.088.58 1.515.96.427.379.758.826.993 1.34.24.515.361 1.105.367 1.77-.006.978-.256 1.826-.75 2.543-.49.712-1.198 1.266-2.125 1.66-.922.39-2.034.586-3.336.586-1.292 0-2.417-.198-3.375-.593-.953-.395-1.698-.98-2.235-1.754-.53-.78-.81-1.745-.836-2.894h3.274c.036.536.19.983.46 1.342.277.353.644.621 1.102.803.464.177.987.265 1.57.265.574 0 1.071-.083 1.493-.25.427-.166.758-.397.992-.693.234-.297.352-.637.352-1.022 0-.359-.107-.66-.32-.905-.209-.244-.516-.452-.923-.623-.4-.172-.893-.328-1.476-.468l-1.742-.437c-1.35-.328-2.414-.84-3.196-1.536-.78-.697-1.169-1.635-1.164-2.815-.005-.967.253-1.812.774-2.535.526-.722 1.247-1.286 2.164-1.692.916-.405 1.958-.608 3.125-.608 1.187 0 2.224.203 3.11.608.89.406 1.583.97 2.077 1.692.495.723.75 1.56.766 2.511h-3.242zM108.088 78.745v-6.878h3.328v11.978h-3.195v-2.176h-.125c-.271.702-.722 1.266-1.352 1.692-.625.426-1.388.64-2.289.64-.802 0-1.508-.182-2.117-.546-.609-.364-1.086-.881-1.43-1.552-.338-.67-.51-1.474-.515-2.41v-7.626h3.328V78.9c.005.707.195 1.266.57 1.676.375.411.878.616 1.508.616.401 0 .776-.09 1.125-.273.349-.187.63-.462.844-.826.218-.364.325-.814.32-1.35zM114.078 88.336v-16.47h3.281v2.013h.149c.146-.323.357-.65.633-.983.281-.338.645-.618 1.093-.842.454-.229 1.016-.343 1.688-.343.875 0 1.682.229 2.422.686.739.452 1.33 1.136 1.773 2.051.443.91.664 2.05.664 3.423 0 1.336-.216 2.465-.648 3.385-.427.915-1.011 1.609-1.75 2.082-.735.468-1.557.702-2.469.702-.646 0-1.195-.107-1.648-.32-.448-.213-.815-.481-1.102-.803-.286-.328-.505-.658-.656-.99h-.102v6.41h-3.328zm3.258-10.48c0 .712.099 1.333.297 1.864.198.53.484.943.859 1.24.375.29.831.436 1.367.436.542 0 1-.148 1.375-.444.375-.302.659-.718.852-1.248.198-.536.297-1.152.297-1.848 0-.692-.097-1.3-.289-1.825-.193-.525-.477-.936-.852-1.232-.375-.296-.836-.445-1.383-.445-.541 0-1 .143-1.375.43-.369.285-.653.69-.851 1.216-.198.525-.297 1.144-.297 1.856zM128 88.336v-16.47h3.281v2.013h.149c.146-.323.356-.65.632-.983.282-.338.646-.618 1.094-.842.453-.229 1.016-.343 1.688-.343.875 0 1.682.229 2.422.686.739.452 1.33 1.136 1.773 2.051.443.91.664 2.05.664 3.423 0 1.336-.216 2.465-.648 3.385-.427.915-1.011 1.609-1.75 2.082-.735.468-1.558.702-2.469.702-.646 0-1.195-.107-1.648-.32-.448-.213-.816-.481-1.102-.803-.287-.328-.505-.658-.656-.99h-.102v6.41H128zm3.258-10.48c0 .712.099 1.333.297 1.864.198.53.484.943.859 1.24.375.29.831.436 1.367.436.542 0 1-.148 1.375-.444.375-.302.659-.718.852-1.248.198-.536.297-1.152.297-1.848 0-.692-.097-1.3-.289-1.825-.193-.525-.477-.936-.852-1.232-.375-.296-.836-.445-1.383-.445-.541 0-1 .143-1.375.43-.37.285-.653.69-.851 1.216-.198.525-.297 1.144-.297 1.856zM145.25 67.874v15.97h-3.328v-15.97h3.328zM149.971 88.313c-.422 0-.818-.034-1.188-.101-.364-.063-.666-.14-.906-.234l.75-2.488c.588.182 1.083.229 1.484.14.407-.083.727-.395.961-.935l.196-.507-4.305-12.321h3.5l2.484 8.796h.125l2.508-8.796 3.524.015-4.665 13.257c-.224.64-.528 1.196-.914 1.669-.38.478-.862.847-1.445 1.107-.583.265-1.286.398-2.109.398zM26.75 108.026c-.766 0-1.448-.132-2.047-.397-.599-.271-1.073-.668-1.422-1.193-.343-.531-.515-1.191-.515-1.981 0-.666.122-1.224.367-1.677.245-.452.578-.816 1-1.091.422-.276.9-.484 1.437-.624.542-.141 1.11-.239 1.703-.297.698-.072 1.26-.14 1.688-.202.427-.068.737-.167.93-.297.192-.13.289-.322.289-.577v-.046c0-.494-.157-.877-.47-1.147-.306-.27-.744-.405-1.312-.405-.599 0-1.075.132-1.43.397-.353.26-.588.588-.702.983l-3.078-.25c.156-.727.463-1.356.921-1.887.459-.535 1.05-.946 1.774-1.232.729-.291 1.573-.436 2.531-.436.667 0 1.305.078 1.914.233.615.156 1.159.398 1.633.726.48.327.857.748 1.133 1.263.276.51.414 1.12.414 1.833v8.078h-3.156v-1.661h-.094c-.193.375-.45.705-.774.991-.323.28-.71.501-1.164.662-.453.156-.976.234-1.57.234zm.953-2.292c.49 0 .922-.096 1.297-.289.375-.197.67-.462.883-.795.213-.333.32-.71.32-1.131v-1.271c-.104.068-.247.13-.43.187-.177.052-.377.102-.601.148-.224.042-.448.081-.672.117l-.61.086c-.39.057-.731.148-1.023.273-.291.125-.518.294-.68.507-.161.208-.242.468-.242.78 0 .452.164.798.492 1.037.334.234.756.351 1.266.351zM39.418 100.876v6.924H36.09V95.822h3.172v2.114h.14c.266-.697.711-1.248 1.336-1.654.625-.41 1.383-.615 2.274-.615.833 0 1.56.181 2.18.545.62.364 1.101.884 1.445 1.56.343.67.515 1.471.515 2.402v7.626h-3.328v-7.034c.005-.733-.182-1.305-.562-1.715-.38-.416-.904-.624-1.57-.624-.449 0-.844.096-1.188.288-.339.193-.604.474-.797.843-.188.364-.284.803-.289 1.318zM54.197 107.995c-.911 0-1.737-.234-2.476-.702-.735-.473-1.318-1.167-1.75-2.082-.427-.92-.64-2.048-.64-3.384 0-1.373.22-2.514.663-3.423.443-.915 1.031-1.599 1.766-2.051.74-.458 1.55-.686 2.43-.686.671 0 1.231.114 1.68.343.452.223.817.504 1.093.842.281.332.495.66.64.982h.102V91.83h3.32v15.97h-3.28v-1.918h-.142c-.156.333-.377.663-.663.99-.282.323-.649.59-1.102.803-.448.214-.995.32-1.64.32zm1.055-2.643c.536 0 .99-.146 1.36-.437.374-.296.66-.71.859-1.24.203-.53.304-1.151.304-1.864 0-.712-.099-1.331-.297-1.856-.197-.525-.484-.93-.859-1.216-.375-.286-.83-.429-1.367-.429-.547 0-1.008.148-1.383.444-.375.297-.659.707-.851 1.233-.193.525-.29 1.133-.29 1.824 0 .697.097 1.313.29 1.848.197.531.481.947.851 1.248.375.296.836.445 1.383.445zM74.588 107.8h-5.672V91.83h5.719c1.61 0 2.995.32 4.156.959 1.162.634 2.055 1.547 2.68 2.737.63 1.19.945 2.615.945 4.273 0 1.664-.315 3.094-.945 4.289-.625 1.196-1.524 2.114-2.696 2.753-1.166.639-2.562.959-4.187.959zm-2.29-2.893h2.15c1 0 1.84-.177 2.523-.53.687-.359 1.203-.912 1.547-1.661.349-.754.523-1.726.523-2.917 0-1.18-.174-2.144-.523-2.893-.344-.748-.857-1.3-1.54-1.653-.682-.353-1.523-.53-2.523-.53H72.3v10.184zM90.328 108.034c-1.234 0-2.297-.249-3.187-.748-.886-.505-1.568-1.217-2.047-2.137-.48-.925-.719-2.02-.719-3.283 0-1.232.24-2.314.719-3.244.479-.93 1.153-1.656 2.023-2.176.875-.52 1.901-.78 3.078-.78.792 0 1.529.128 2.211.383.688.25 1.287.626 1.797 1.13.516.505.917 1.139 1.203 1.903.287.759.43 1.648.43 2.667v.912H85.703v-2.058h7c0-.479-.104-.902-.312-1.271-.209-.37-.498-.658-.868-.866-.364-.213-.789-.32-1.273-.32-.505 0-.953.117-1.344.351-.385.229-.687.538-.906.928-.219.385-.33.814-.336 1.287v1.957c0 .593.11 1.105.328 1.536.224.432.54.765.945.998.407.234.889.351 1.446.351.37 0 .708-.052 1.015-.156.308-.104.57-.26.79-.467.218-.208.385-.463.5-.765l3.078.203c-.157.738-.477 1.383-.961 1.934-.48.546-1.1.972-1.86 1.279-.755.301-1.627.452-2.617.452zM98.008 107.8V95.822h3.172v2.114h.14c.25-.702.667-1.256 1.25-1.661.584-.406 1.282-.609 2.094-.609.823 0 1.524.206 2.102.617.578.405.963.956 1.156 1.653h.125c.245-.687.687-1.235 1.328-1.646.646-.416 1.409-.624 2.289-.624 1.12 0 2.029.357 2.727 1.069.703.707 1.054 1.71 1.054 3.01v8.055h-3.32v-7.4c0-.666-.177-1.165-.531-1.497-.354-.333-.797-.5-1.328-.5-.605 0-1.076.193-1.414.578-.339.38-.508.88-.508 1.505v7.314h-3.227v-7.47c0-.588-.169-1.056-.508-1.404-.333-.348-.773-.522-1.32-.522-.37 0-.703.093-1 .28-.292.182-.523.44-.695.772-.172.328-.258.713-.258 1.154v7.19h-3.328zM121.496 108.026c-.766 0-1.448-.132-2.047-.397-.599-.271-1.073-.668-1.422-1.193-.343-.531-.515-1.191-.515-1.981 0-.666.122-1.224.367-1.677.245-.452.578-.816 1-1.091.422-.276.901-.484 1.437-.624.542-.141 1.11-.239 1.704-.297.697-.072 1.26-.14 1.687-.202.427-.068.737-.167.93-.297.192-.13.289-.322.289-.577v-.046c0-.494-.156-.877-.469-1.147-.307-.27-.745-.405-1.312-.405-.599 0-1.076.132-1.43.397-.354.26-.589.588-.703.983l-3.078-.25c.156-.727.463-1.356.921-1.887.459-.535 1.05-.946 1.774-1.232.729-.291 1.573-.436 2.531-.436.667 0 1.305.078 1.914.233.615.156 1.159.398 1.633.726.479.327.857.748 1.133 1.263.276.51.414 1.12.414 1.833v8.078h-3.156v-1.661h-.094c-.193.375-.451.705-.774.991-.322.28-.71.501-1.164.662-.453.156-.976.234-1.57.234zm.953-2.292c.49 0 .922-.096 1.297-.289.375-.197.669-.462.883-.795.213-.333.32-.71.32-1.131v-1.271c-.104.068-.247.13-.429.187-.178.052-.378.102-.602.148-.224.042-.448.081-.672.117l-.609.086c-.391.057-.732.148-1.024.273-.291.125-.518.294-.679.507-.162.208-.243.468-.243.78 0 .452.164.798.493 1.037.333.234.755.351 1.265.351zM134.164 100.876v6.924h-3.328V95.822h3.172v2.114h.14c.266-.697.711-1.248 1.336-1.654.625-.41 1.383-.615 2.274-.615.833 0 1.56.181 2.18.545.619.364 1.101.884 1.445 1.56.344.67.515 1.471.515 2.402v7.626h-3.328v-7.034c.006-.733-.182-1.305-.562-1.715-.38-.416-.904-.624-1.57-.624-.448 0-.844.096-1.188.288-.339.193-.604.474-.797.843-.187.364-.284.803-.289 1.318zM148.943 107.995c-.911 0-1.737-.234-2.476-.702-.735-.473-1.318-1.167-1.75-2.082-.427-.92-.641-2.048-.641-3.384 0-1.373.222-2.514.664-3.423.443-.915 1.031-1.599 1.766-2.051.739-.458 1.549-.686 2.43-.686.671 0 1.231.114 1.679.343.453.223.818.504 1.094.842.281.332.495.66.641.982h.101V91.83h3.32v15.97h-3.281v-1.918h-.14c-.157.333-.378.663-.664.99-.282.323-.649.59-1.102.803-.448.214-.995.32-1.641.32zm1.055-2.643c.537 0 .99-.146 1.359-.437.375-.296.662-.71.86-1.24.203-.53.304-1.151.304-1.864 0-.712-.098-1.331-.296-1.856-.198-.525-.485-.93-.86-1.216-.375-.286-.83-.429-1.367-.429-.547 0-1.008.148-1.383.444-.375.297-.659.707-.851 1.233-.193.525-.289 1.133-.289 1.824 0 .697.096 1.313.289 1.848.198.531.481.947.851 1.248.375.296.836.445 1.383.445zM163.6 107.8V95.822h3.328V107.8H163.6zm1.679-13.522c-.494 0-.919-.163-1.273-.49-.354-.334-.531-.731-.531-1.194 0-.457.177-.85.531-1.177.354-.333.776-.5 1.265-.5.5 0 .925.167 1.274.5.354.327.531.72.531 1.177 0 .463-.177.86-.531 1.193-.349.328-.771.491-1.266.491zM172.922 100.876v6.924h-3.328V95.822h3.172v2.114h.14c.266-.697.711-1.248 1.336-1.654.625-.41 1.383-.615 2.274-.615.833 0 1.56.181 2.179.545.62.364 1.102.884 1.446 1.56.343.67.515 1.471.515 2.402v7.626h-3.328v-7.034c.005-.733-.182-1.305-.562-1.715-.381-.416-.904-.624-1.571-.624-.448 0-.843.096-1.187.288-.339.193-.604.474-.797.843-.188.364-.284.803-.289 1.318zM32.07 120.378c-.062-.629-.33-1.117-.804-1.466-.474-.348-1.118-.522-1.93-.522-.552 0-1.018.078-1.398.234-.38.151-.672.361-.875.632-.198.27-.297.577-.297.92-.01.286.05.535.18.748.135.213.32.398.554.554.234.151.505.283.813.398.307.109.635.202.984.28l1.437.344c.698.155 1.339.363 1.922.623.584.26 1.089.58 1.516.96.427.379.758.826.992 1.341.24.514.362 1.104.367 1.77-.005.977-.255 1.825-.75 2.542-.49.712-1.198 1.266-2.125 1.661-.922.39-2.034.585-3.336.585-1.291 0-2.416-.198-3.375-.593-.953-.395-1.698-.98-2.234-1.754-.531-.78-.81-1.744-.836-2.893h3.273c.037.535.19.982.461 1.341.276.353.644.621 1.102.803.463.177.987.265 1.57.265.573 0 1.07-.083 1.492-.249.428-.167.758-.398.993-.694.234-.297.351-.637.351-1.022 0-.359-.107-.66-.32-.904-.209-.245-.516-.453-.922-.624-.401-.172-.893-.328-1.477-.468l-1.742-.437c-1.349-.327-2.414-.839-3.195-1.536-.781-.697-1.17-1.635-1.164-2.815-.005-.967.252-1.812.773-2.535.526-.722 1.248-1.286 2.164-1.692.917-.405 1.959-.608 3.125-.608 1.188 0 2.224.203 3.11.608.89.406 1.583.97 2.078 1.692.495.723.75 1.56.766 2.511H32.07zM43.166 131.99c-1.213 0-2.263-.258-3.148-.772-.88-.52-1.56-1.243-2.04-2.168-.479-.931-.718-2.009-.718-3.236 0-1.238.24-2.319.718-3.244.48-.931 1.16-1.653 2.04-2.168.885-.52 1.934-.78 3.148-.78 1.214 0 2.26.26 3.14.78.886.515 1.568 1.237 2.047 2.168.48.925.72 2.006.72 3.244 0 1.227-.24 2.305-.72 3.236-.479.925-1.16 1.648-2.046 2.168-.88.514-1.927.772-3.141.772zm.016-2.574c.552 0 1.013-.156 1.383-.468.37-.317.648-.748.835-1.294.193-.546.29-1.167.29-1.864 0-.696-.097-1.318-.29-1.863-.187-.546-.466-.978-.835-1.295-.37-.317-.831-.476-1.383-.476-.558 0-1.026.159-1.407.476-.375.317-.658.749-.851 1.295-.188.545-.281 1.167-.281 1.863 0 .697.093 1.318.28 1.864.194.546.477.977.852 1.294.38.312.85.468 1.407.468zM58.932 126.656v-6.878h3.328v11.978h-3.195v-2.176h-.125c-.271.702-.722 1.266-1.352 1.692-.625.427-1.388.64-2.29.64-.801 0-1.507-.182-2.116-.546-.61-.364-1.086-.881-1.43-1.552-.339-.671-.51-1.474-.516-2.41v-7.626h3.329v7.034c.005.707.195 1.266.57 1.676.375.411.877.616 1.508.616.4 0 .776-.091 1.125-.272.349-.188.63-.463.843-.827.22-.364.326-.814.32-1.349zM71.305 119.778v2.495h-7.227v-2.495h7.227zm-5.586-2.87h3.328v11.167c0 .307.047.546.14.718.094.166.225.283.391.35.172.068.37.102.594.102.156 0 .312-.013.469-.039.156-.031.276-.055.359-.07l.523 2.472c-.166.052-.4.111-.703.179-.302.073-.669.117-1.101.133-.802.031-1.505-.076-2.11-.32-.599-.245-1.065-.624-1.398-1.139-.333-.514-.498-1.164-.492-1.949v-11.604zM77.059 124.831v6.925H73.73v-15.971h3.234v6.106h.14c.271-.707.709-1.26 1.313-1.661.604-.405 1.362-.608 2.273-.608.834 0 1.56.182 2.18.546.625.359 1.11.876 1.453 1.552.35.67.521 1.474.516 2.409v7.627h-3.328v-7.034c.005-.738-.183-1.313-.563-1.723-.375-.411-.9-.616-1.578-.616-.453 0-.854.096-1.203.288-.344.192-.615.473-.813.842-.192.364-.291.803-.296 1.318zM95.371 131.756h-3.625l5.523-15.971h4.36l5.516 15.971h-3.625l-4.008-12.321h-.125l-4.016 12.321zm-.227-6.278h8.563v2.636h-8.563v-2.636zM115.225 119.778v2.495h-7.407v-2.495h7.407zm-5.711 11.978v-12.844c0-.868.169-1.588.507-2.16.344-.571.813-1 1.407-1.286.593-.286 1.268-.429 2.023-.429.511 0 .977.039 1.399.117.427.078.744.148.953.21l-.594 2.496c-.13-.042-.292-.081-.484-.117-.188-.037-.381-.055-.579-.055-.489 0-.83.114-1.023.343-.193.224-.289.538-.289.944v12.781h-3.32zM117.258 131.756v-11.978h3.226v2.09h.125c.219-.744.586-1.305 1.102-1.685.516-.384 1.109-.577 1.781-.577.167 0 .347.011.539.032.193.02.362.049.508.085v2.948c-.156-.047-.372-.088-.648-.125-.276-.036-.529-.054-.758-.054-.49 0-.927.106-1.313.319-.38.208-.682.5-.906.874-.219.374-.328.806-.328 1.294v6.777h-3.328zM126.26 131.756v-11.978h3.328v11.978h-3.328zm1.679-13.522c-.494 0-.919-.164-1.273-.491-.354-.333-.531-.731-.531-1.193 0-.458.177-.85.531-1.178.354-.333.776-.499 1.266-.499.5 0 .924.166 1.273.499.354.328.531.72.531 1.178 0 .462-.177.86-.531 1.193-.349.327-.771.491-1.266.491zM137.676 131.99c-1.229 0-2.287-.26-3.172-.78-.88-.525-1.557-1.253-2.031-2.184-.469-.93-.703-2.001-.703-3.212 0-1.227.237-2.303.71-3.229.48-.93 1.159-1.655 2.04-2.175.88-.525 1.927-.788 3.14-.788 1.047 0 1.964.19 2.75.569.787.38 1.409.913 1.867 1.599.459.686.711 1.492.758 2.417h-3.14c-.089-.598-.323-1.078-.704-1.442-.375-.369-.867-.554-1.476-.554-.516 0-.966.14-1.352.421-.38.276-.677.679-.89 1.209-.214.53-.321 1.172-.321 1.926 0 .764.105 1.414.313 1.949.213.536.513.944.898 1.225.386.28.836.421 1.352.421.38 0 .721-.078 1.023-.234.308-.156.56-.382.758-.679.203-.301.336-.662.399-1.084h3.14c-.052.915-.302 1.721-.75 2.418-.443.691-1.055 1.232-1.836 1.622-.781.39-1.706.585-2.773.585zM148.588 131.982c-.766 0-1.448-.133-2.047-.398-.599-.27-1.073-.668-1.422-1.193-.344-.53-.515-1.19-.515-1.981 0-.665.122-1.224.367-1.676.244-.452.578-.816 1-1.092.422-.275.901-.483 1.437-.624.542-.14 1.11-.239 1.703-.296.698-.073 1.261-.14 1.688-.203.427-.067.737-.166.93-.296.192-.13.289-.322.289-.577v-.047c0-.494-.157-.876-.469-1.146-.307-.271-.745-.406-1.313-.406-.599 0-1.075.133-1.429.398-.355.26-.589.587-.703.982l-3.079-.249c.157-.728.464-1.357.922-1.887.459-.536 1.05-.946 1.774-1.232.729-.291 1.573-.437 2.531-.437.667 0 1.305.078 1.914.234.615.156 1.159.398 1.633.725.479.328.857.749 1.133 1.263.276.51.414 1.121.414 1.833v8.079h-3.157v-1.661h-.093c-.193.374-.451.704-.774.99-.323.281-.711.502-1.164.663-.453.156-.976.234-1.57.234zm.953-2.293c.49 0 .922-.096 1.297-.288.375-.198.669-.463.883-.796.213-.332.32-.709.32-1.13v-1.271c-.104.067-.247.13-.43.187-.177.052-.377.101-.601.148-.224.041-.448.08-.672.117l-.609.086c-.391.057-.732.148-1.024.273-.292.124-.518.293-.68.506-.161.208-.242.468-.242.78 0 .453.164.798.492 1.037.334.234.756.351 1.266.351z"/>
        <path fill="#fff" fill-rule="evenodd" d="M78 0H22v37.93h56V0zM30.884 27.288v1.658h7.777v-1.882h-4.58v-.074l1.592-1.558c.75-.68 1.33-1.264 1.742-1.75.412-.488.698-.933.858-1.334.163-.4.244-.806.244-1.217 0-.628-.161-1.184-.484-1.67-.323-.485-.776-.865-1.358-1.138-.58-.276-1.26-.414-2.04-.414-.76 0-1.432.143-2.014.43-.583.287-1.035.693-1.358 1.218-.324.524-.485 1.143-.485 1.856h2.19c0-.348.067-.647.201-.9.136-.25.327-.444.576-.579.248-.134.54-.202.873-.202.32 0 .606.064.858.192.252.124.451.303.597.537.145.23.218.505.218.824 0 .287-.059.555-.176.803-.117.244-.29.494-.517.75-.223.255-.5.542-.83.86l-3.884 3.59zm11.36 1.222c.661.447 1.45.672 2.366.676.916 0 1.703-.224 2.36-.67.657-.447 1.16-1.094 1.513-1.94.355-.848.532-1.869.532-3.063.004-1.188-.172-2.198-.527-3.031-.355-.837-.863-1.474-1.524-1.914-.657-.44-1.441-.66-2.354-.66s-1.7.22-2.36.66c-.657.436-1.163 1.072-1.518 1.909-.352.836-.527 1.848-.527 3.036-.004 1.19.17 2.21.522 3.057.355.847.86 1.494 1.518 1.94zm3.863-2.174c-.373.627-.872.94-1.497.94-.416 0-.778-.137-1.087-.414-.309-.28-.548-.698-.719-1.254-.167-.56-.25-1.259-.25-2.095.003-1.237.192-2.166.564-2.786.373-.62.87-.93 1.492-.93.415 0 .776.137 1.081.414.31.276.547.69.714 1.239.17.55.256 1.237.256 2.063.003 1.254-.181 2.195-.554 2.823zm4.553 2.61v-1.658l3.883-3.59c.33-.318.607-.605.83-.86.228-.256.4-.506.518-.75.117-.248.175-.516.175-.803 0-.32-.072-.594-.218-.824-.146-.234-.344-.413-.597-.537-.252-.128-.538-.192-.857-.192-.334 0-.625.068-.874.202-.248.135-.44.328-.575.58-.135.252-.203.551-.203.899h-2.189c0-.713.162-1.332.485-1.856.323-.525.776-.93 1.358-1.218.583-.287 1.254-.43 2.014-.43.781 0 1.461.138 2.04.414.582.273 1.035.653 1.358 1.138.323.486.485 1.042.485 1.67 0 .41-.082.817-.245 1.217-.16.4-.446.846-.858 1.335-.412.485-.992 1.068-1.741 1.749l-1.593 1.558v.074h4.58v1.882H50.66zm11.36-.436c.66.447 1.45.672 2.365.676.916 0 1.703-.224 2.36-.67.657-.447 1.161-1.094 1.513-1.94.355-.848.532-1.869.532-3.063.004-1.188-.172-2.198-.527-3.031-.355-.837-.863-1.474-1.523-1.914-.657-.44-1.442-.66-2.355-.66-.912 0-1.699.22-2.36.66-.656.436-1.162 1.072-1.517 1.909-.352.836-.528 1.848-.528 3.036-.003 1.19.17 2.21.522 3.057.355.847.861 1.494 1.518 1.94zm3.862-2.174c-.373.627-.872.94-1.497.94-.415 0-.777-.137-1.086-.414-.31-.28-.549-.698-.72-1.254-.166-.56-.25-1.259-.25-2.095.004-1.237.192-2.166.565-2.786.373-.62.87-.93 1.491-.93.416 0 .776.137 1.082.414.309.276.546.69.713 1.239.17.55.256 1.237.256 2.063.004 1.254-.181 2.195-.554 2.823z" clip-rule="evenodd"/>
        <path fill="#fff" d="M22.86 169.685v-8.711h1.582v7.388h3.844v1.323H22.86zM32.073 169.817c-.415 0-.788-.074-1.12-.221-.33-.15-.592-.372-.785-.664-.19-.292-.285-.652-.285-1.08 0-.369.068-.673.204-.915.137-.241.323-.433.558-.578.236-.145.502-.254.797-.327.299-.077.607-.132.925-.166.384-.04.695-.076.933-.107.239-.034.412-.085.52-.153.111-.071.166-.18.166-.327v-.026c0-.32-.095-.568-.285-.744-.19-.176-.465-.264-.822-.264-.378 0-.678.082-.9.247-.218.164-.366.358-.443.582l-1.44-.204c.113-.397.3-.728.562-.995.262-.269.581-.471.96-.604.377-.136.795-.204 1.252-.204.315 0 .63.037.942.11.312.074.598.196.856.366.259.168.466.396.622.685.16.289.239.651.239 1.085v4.372h-1.483v-.897h-.051c-.094.181-.226.351-.396.51-.168.156-.38.282-.635.379-.253.093-.55.14-.89.14zm.4-1.131c.31 0 .579-.061.806-.183.227-.125.402-.289.524-.494.125-.204.188-.426.188-.667v-.77c-.049.039-.131.076-.248.11-.113.034-.241.064-.383.09-.142.025-.283.048-.422.068l-.362.051c-.23.031-.436.082-.618.153s-.325.17-.43.298c-.105.124-.158.286-.158.484 0 .284.104.498.311.643.207.144.472.217.793.217zM37.748 169.685v-8.711h1.543v3.258h.064c.08-.159.192-.327.337-.506.144-.181.34-.336.588-.464.247-.13.562-.195.946-.195.505 0 .961.129 1.367.387.41.255.733.634.972 1.136.242.499.362 1.111.362 1.837 0 .717-.118 1.327-.353 1.829-.236.502-.557.885-.963 1.149-.407.263-.867.395-1.381.395-.375 0-.686-.062-.933-.187s-.446-.275-.597-.451c-.148-.179-.263-.347-.345-.506h-.09v1.029h-1.517zm1.513-3.266c0 .422.06.792.18 1.11.121.317.296.565.523.744.23.176.509.264.836.264.34 0 .626-.091.856-.272.23-.185.403-.436.52-.753.12-.321.179-.685.179-1.093 0-.406-.058-.766-.175-1.081-.116-.315-.29-.561-.52-.74-.23-.179-.517-.268-.86-.268-.33 0-.61.087-.84.26-.23.173-.405.415-.524.727-.117.312-.175.679-.175 1.102zM48.694 169.813c-.64 0-1.193-.141-1.662-.421-.469-.281-.832-.674-1.091-1.178-.256-.505-.384-1.095-.384-1.77s.128-1.266.384-1.774c.258-.507.622-.901 1.09-1.182.47-.281 1.024-.421 1.663-.421.64 0 1.193.14 1.662.421.468.281.83.675 1.086 1.182.259.508.388 1.099.388 1.774s-.129 1.265-.388 1.77c-.255.504-.617.897-1.086 1.178-.469.28-1.023.421-1.662.421zm.008-1.234c.347 0 .637-.095.87-.285.233-.192.406-.451.52-.774.116-.323.174-.683.174-1.08 0-.4-.058-.762-.174-1.085-.114-.326-.287-.585-.52-.778-.233-.193-.523-.289-.87-.289-.355 0-.65.096-.886.289-.233.193-.408.452-.524.778-.114.323-.17.685-.17 1.085 0 .397.056.757.17 1.08.116.323.291.582.524.774.236.19.531.285.886.285zM57.911 166.937v-3.785h1.543v6.533h-1.496v-1.161h-.068c-.148.366-.39.665-.729.898-.335.232-.748.348-1.24.348-.429 0-.808-.095-1.137-.285-.327-.193-.583-.472-.767-.838-.185-.368-.278-.813-.278-1.335v-4.16h1.543v3.922c0 .414.114.743.341.986.227.244.526.366.895.366.227 0 .447-.055.66-.166.214-.11.388-.275.525-.493.139-.221.208-.498.208-.83zM61.64 169.685v-6.533h1.496v1.089h.068c.12-.377.324-.668.614-.872.293-.207.626-.311 1.001-.311.085 0 .18.005.286.013.108.006.197.016.268.03v1.416c-.065-.022-.169-.042-.31-.059-.14-.02-.275-.03-.406-.03-.28 0-.534.061-.758.183-.222.119-.397.285-.524.497-.128.213-.192.458-.192.736v3.841H61.64zM70.643 160.974h1.934l2.591 6.312h.103l2.59-6.312h1.935v8.711H78.28v-5.984h-.08l-2.413 5.959h-1.133l-2.412-5.972h-.081v5.997h-1.517v-8.711zM83.933 169.817c-.415 0-.788-.074-1.12-.221-.33-.15-.591-.372-.785-.664-.19-.292-.285-.652-.285-1.08 0-.369.068-.673.204-.915.137-.241.323-.433.559-.578.236-.145.501-.254.796-.327.299-.077.607-.132.925-.166.384-.04.695-.076.933-.107.24-.034.412-.085.52-.153.111-.071.167-.18.167-.327v-.026c0-.32-.096-.568-.286-.744-.19-.176-.464-.264-.822-.264-.378 0-.678.082-.9.247-.218.164-.366.358-.443.582l-1.44-.204c.114-.397.301-.728.562-.995.262-.269.581-.471.96-.604.377-.136.795-.204 1.252-.204.315 0 .63.037.942.11.312.074.598.196.856.366.259.168.466.396.622.685.16.289.24.651.24 1.085v4.372h-1.484v-.897h-.05c-.095.181-.227.351-.397.51-.168.156-.38.282-.635.379-.253.093-.55.14-.89.14zm.4-1.131c.31 0 .579-.061.806-.183.228-.125.402-.289.524-.494.125-.204.188-.426.188-.667v-.77c-.049.039-.13.076-.247.11-.114.034-.242.064-.384.09-.142.025-.282.048-.422.068l-.362.051c-.23.031-.436.082-.618.153s-.325.17-.43.298c-.105.124-.158.286-.158.484 0 .284.104.498.311.643.208.144.472.217.793.217zM89.54 169.685v-6.533h1.496v1.089h.068c.12-.377.324-.668.614-.872.292-.207.626-.311 1.001-.311.086 0 .18.005.286.013.108.006.197.016.268.03v1.416c-.065-.022-.169-.042-.31-.059-.14-.02-.275-.03-.406-.03-.28 0-.534.061-.758.183-.222.119-.397.285-.524.497-.128.213-.192.458-.192.736v3.841H89.54zM96.304 167.635l-.004-1.859h.247l2.353-2.624h1.802l-2.893 3.216h-.32l-1.185 1.267zm-1.406 2.05v-8.711h1.543v8.711h-1.543zm4.108 0l-2.13-2.973 1.04-1.085 2.935 4.058h-1.845zM104.958 169.813c-.656 0-1.223-.136-1.7-.408-.474-.276-.839-.664-1.095-1.166-.256-.505-.384-1.099-.384-1.782 0-.672.128-1.262.384-1.77.258-.51.619-.907 1.082-1.191.463-.286 1.007-.429 1.632-.429.404 0 .784.065 1.142.195.361.128.679.327.955.596.278.269.497.612.656 1.029.159.414.239.908.239 1.481v.472h-5.365v-1.038h3.886c-.003-.295-.067-.557-.192-.787-.125-.233-.299-.416-.524-.549-.221-.133-.48-.2-.775-.2-.316 0-.593.077-.831.23-.239.15-.425.349-.559.595-.13.244-.197.512-.2.804v.906c0 .38.07.706.209.979.139.269.334.476.584.621.25.141.542.212.878.212.224 0 .427-.031.609-.093.182-.065.34-.16.473-.285.134-.125.234-.28.303-.464l1.44.162c-.091.38-.264.712-.52.995-.253.281-.577.499-.972.655-.394.153-.846.23-1.355.23zM113.042 163.152v1.191h-3.762v-1.191h3.762zm-2.833-1.565h1.542v6.133c0 .207.031.366.094.477.065.107.15.181.256.221.105.039.221.059.349.059.097 0 .185-.007.264-.021.083-.014.145-.027.188-.038l.26 1.203c-.083.029-.201.06-.354.094-.151.034-.335.054-.554.06-.386.011-.734-.047-1.044-.175-.31-.13-.555-.332-.737-.604-.179-.272-.267-.612-.264-1.021v-6.388zM24.442 178.941v8.711H22.86v-8.711h1.58zM28.228 183.824v3.828h-1.542v-6.533h1.474v1.11h.077c.15-.366.39-.657.72-.872.332-.216.743-.323 1.232-.323.451 0 .845.096 1.18.289.338.193.6.472.784.838.188.365.28.809.277 1.331v4.16h-1.543v-3.922c0-.436-.113-.778-.34-1.025-.225-.247-.536-.37-.934-.37-.27 0-.51.06-.72.179-.207.116-.37.285-.49.506-.116.221-.175.489-.175.804zM37.867 181.119v1.191h-3.763v-1.191h3.763zm-2.834-1.566h1.542v6.134c0 .207.032.366.094.476.066.108.15.182.256.221.105.04.221.06.35.06.096 0 .184-.007.264-.021.082-.015.144-.027.187-.039l.26 1.204c-.082.028-.2.06-.354.094-.15.034-.335.054-.554.059-.386.012-.734-.047-1.044-.174-.31-.131-.555-.332-.737-.604-.179-.272-.267-.613-.264-1.021v-6.389zM42.584 187.78c-.656 0-1.223-.137-1.7-.409-.475-.275-.84-.663-1.095-1.165-.256-.505-.384-1.099-.384-1.782 0-.673.128-1.262.384-1.77.258-.51.619-.907 1.082-1.191.463-.286 1.007-.429 1.632-.429.404 0 .784.065 1.142.195.361.128.68.326.955.596.278.269.497.612.656 1.029.16.414.239.907.239 1.48v.472H40.13v-1.038h3.886c-.003-.294-.067-.557-.192-.786-.125-.233-.3-.416-.524-.549-.221-.133-.48-.2-.775-.2-.316 0-.593.077-.831.23-.24.15-.425.348-.559.595-.13.244-.197.512-.2.804v.906c0 .38.07.706.209.978.139.27.334.477.584.621.25.142.542.213.877.213.225 0 .428-.031.61-.094.182-.065.34-.16.473-.285.133-.124.234-.279.302-.463l1.44.161c-.09.38-.264.712-.52.996-.252.281-.576.499-.97.655-.396.153-.847.23-1.356.23zM48.942 178.941v8.711H47.4v-8.711h1.542zM52.671 178.941v8.711H51.13v-8.711h1.542zM54.858 187.652v-6.533H56.4v6.533h-1.542zm.775-7.461c-.247 0-.459-.081-.635-.242-.173-.165-.26-.362-.26-.591 0-.233.088-.43.264-.592.176-.164.387-.246.631-.246s.453.082.627.246c.176.162.264.359.264.592 0 .229-.088.426-.264.591-.174.161-.383.242-.627.242zM61.433 190.212c-.554 0-1.03-.073-1.428-.221-.397-.147-.717-.344-.958-.591-.242-.247-.41-.517-.503-.812l1.389-.336c.063.116.153.235.273.357.119.125.28.228.481.31.205.086.462.128.772.128.437 0 .8-.105 1.086-.315.287-.21.43-.548.43-1.016v-1.238H62.9c-.08.159-.196.322-.35.489-.15.167-.35.308-.6.421-.247.114-.559.17-.934.17-.502 0-.958-.117-1.367-.353-.407-.238-.73-.592-.972-1.063-.239-.474-.358-1.066-.358-1.778 0-.717.12-1.323.358-1.816.241-.497.567-.872.976-1.127.409-.258.865-.387 1.368-.387.383 0 .698.065.946.195.25.128.448.282.596.464.148.178.26.347.337.506h.085v-1.08h1.521v6.639c0 .548-.133 1.003-.4 1.366-.267.365-.632.638-1.095.816-.463.182-.989.272-1.577.272zm.013-3.862c.327 0 .605-.079.835-.238.23-.159.405-.387.524-.685.12-.297.18-.655.18-1.072 0-.411-.06-.771-.18-1.08-.116-.309-.29-.549-.52-.719-.227-.173-.507-.259-.84-.259-.343 0-.63.089-.86.268-.23.178-.403.424-.52.736-.116.309-.175.66-.175 1.054 0 .4.059.75.175 1.051.12.298.294.53.524.698.233.164.519.246.857.246zM69.584 187.78c-.656 0-1.223-.137-1.7-.409-.475-.275-.84-.663-1.095-1.165-.256-.505-.384-1.099-.384-1.782 0-.673.128-1.262.384-1.77.258-.51.619-.907 1.082-1.191.463-.286 1.007-.429 1.632-.429.404 0 .784.065 1.142.195.361.128.68.326.955.596.278.269.497.612.656 1.029.16.414.239.907.239 1.48v.472H67.13v-1.038h3.886c-.003-.294-.067-.557-.192-.786-.125-.233-.3-.416-.524-.549-.221-.133-.48-.2-.775-.2-.316 0-.593.077-.832.23-.238.15-.424.348-.558.595-.13.244-.197.512-.2.804v.906c0 .38.07.706.209.978.139.27.334.477.584.621.25.142.542.213.877.213.225 0 .428-.031.61-.094.182-.065.34-.16.473-.285.133-.124.234-.279.302-.463l1.44.161c-.09.38-.264.712-.52.996-.252.281-.576.499-.97.655-.396.153-.847.23-1.356.23zM75.942 183.824v3.828H74.4v-6.533h1.474v1.11h.077c.15-.366.39-.657.72-.872.332-.216.743-.323 1.231-.323.452 0 .846.096 1.18.289.339.193.6.472.785.838.188.365.28.809.277 1.331v4.16h-1.543v-3.922c0-.436-.113-.778-.34-1.025-.225-.247-.536-.37-.934-.37-.27 0-.51.06-.72.179-.207.116-.37.285-.49.506-.117.221-.175.489-.175.804zM85.167 187.78c-.653 0-1.214-.144-1.683-.43-.466-.286-.825-.682-1.078-1.187-.25-.507-.375-1.092-.375-1.752 0-.664.128-1.249.383-1.757.256-.51.617-.907 1.083-1.191.469-.286 1.023-.429 1.662-.429.531 0 1.001.097 1.41.293.412.193.74.466.985.821.244.352.383.763.417 1.233h-1.474c-.06-.314-.202-.577-.426-.786-.222-.213-.519-.319-.89-.319-.316 0-.593.085-.832.255-.239.167-.425.408-.558.723-.13.315-.196.692-.196 1.131 0 .445.065.828.196 1.149.13.317.314.563.55.736.238.17.518.255.84.255.226 0 .43-.043.609-.128.181-.088.333-.214.455-.378.123-.165.206-.365.252-.6h1.474c-.037.462-.173.872-.409 1.229-.236.355-.557.632-.963.834-.406.198-.883.298-1.432.298zM92.736 187.78c-.657 0-1.223-.137-1.7-.409-.475-.275-.84-.663-1.096-1.165-.255-.505-.383-1.099-.383-1.782 0-.673.128-1.262.383-1.77.259-.51.62-.907 1.083-1.191.463-.286 1.007-.429 1.632-.429.403 0 .784.065 1.142.195.36.128.679.326.954.596.279.269.498.612.657 1.029.159.414.238.907.238 1.48v.472h-5.365v-1.038h3.886c-.002-.294-.066-.557-.191-.786-.125-.233-.3-.416-.524-.549-.222-.133-.48-.2-.776-.2-.315 0-.592.077-.83.23-.24.15-.426.348-.56.595-.13.244-.197.512-.2.804v.906c0 .38.07.706.21.978.139.27.333.477.583.621.25.142.543.213.878.213.224 0 .428-.031.61-.094.181-.065.339-.16.472-.285.134-.124.235-.279.303-.463l1.44.161c-.09.38-.264.712-.52.996-.252.281-.576.499-.971.655-.395.153-.847.23-1.355.23zM101.196 187.652v-8.711h3.273c.67 0 1.233.125 1.687.374.458.25.803.593 1.036 1.029.236.434.353.928.353 1.481 0 .558-.117 1.055-.353 1.488-.236.434-.584.776-1.044 1.025-.461.247-1.027.37-1.701.37h-2.169v-1.297h1.956c.392 0 .713-.068.963-.204.25-.136.435-.323.554-.561.123-.239.184-.512.184-.821 0-.309-.061-.582-.184-.817-.119-.235-.305-.418-.558-.549-.25-.133-.572-.2-.967-.2h-1.449v7.393h-1.581zM109.45 187.652v-6.533h1.496v1.088h.068c.12-.377.324-.667.614-.872.293-.207.626-.31 1.001-.31.086 0 .181.004.286.013.108.005.197.015.268.03v1.416c-.065-.023-.169-.043-.311-.06-.139-.019-.274-.029-.404-.029-.282 0-.535.061-.759.183-.222.119-.396.284-.524.497-.128.213-.192.458-.192.736v3.841h-1.543zM117.394 187.78c-.639 0-1.193-.141-1.662-.422-.469-.28-.832-.673-1.091-1.178-.256-.505-.384-1.094-.384-1.769 0-.675.128-1.266.384-1.774.259-.508.622-.902 1.091-1.182.469-.281 1.023-.421 1.662-.421s1.193.14 1.662.421c.469.28.831.674 1.086 1.182.259.508.388 1.099.388 1.774s-.129 1.264-.388 1.769c-.255.505-.617.898-1.086 1.178-.469.281-1.023.422-1.662.422zm.008-1.234c.347 0 .637-.095.87-.285.233-.193.406-.451.52-.774.116-.323.174-.684.174-1.08 0-.4-.058-.762-.174-1.085-.114-.326-.287-.586-.52-.779-.233-.192-.523-.289-.87-.289-.355 0-.65.097-.886.289-.233.193-.408.453-.524.779-.114.323-.171.685-.171 1.085 0 .396.057.757.171 1.08.116.323.291.581.524.774.236.19.531.285.886.285zM125.286 190.212c-.554 0-1.03-.073-1.427-.221-.398-.147-.718-.344-.959-.591-.242-.247-.409-.517-.503-.812l1.389-.336c.063.116.154.235.273.357.119.125.28.228.481.31.205.086.462.128.772.128.437 0 .799-.105 1.086-.315.287-.21.431-.548.431-1.016v-1.238h-.077c-.08.159-.196.322-.349.489-.151.167-.351.308-.601.421-.247.114-.558.17-.933.17-.503 0-.959-.117-1.368-.353-.407-.238-.73-.592-.972-1.063-.239-.474-.358-1.066-.358-1.778 0-.717.119-1.323.358-1.816.242-.497.567-.872.976-1.127.409-.258.865-.387 1.368-.387.383 0 .699.065.946.195.25.128.449.282.596.464.148.178.26.347.337.506h.085v-1.08h1.522v6.639c0 .548-.134 1.003-.401 1.366-.267.365-.632.638-1.095.816-.463.182-.989.272-1.577.272zm.013-3.862c.327 0 .605-.079.835-.238.23-.159.405-.387.524-.685.12-.297.179-.655.179-1.072 0-.411-.059-.771-.179-1.08-.116-.309-.289-.549-.52-.719-.227-.173-.507-.259-.839-.259-.344 0-.631.089-.861.268-.23.178-.403.424-.52.736-.116.309-.174.66-.174 1.054 0 .4.058.75.174 1.051.12.298.294.53.524.698.233.164.519.246.857.246zM130.54 187.652v-6.533h1.495v1.088h.068c.12-.377.324-.667.614-.872.293-.207.627-.31 1.002-.31.085 0 .18.004.285.013.108.005.197.015.268.03v1.416c-.065-.023-.169-.043-.311-.06-.139-.019-.274-.029-.404-.029-.282 0-.535.061-.759.183-.222.119-.396.284-.524.497-.128.213-.192.458-.192.736v3.841h-1.542zM137.652 187.784c-.415 0-.788-.074-1.121-.221-.329-.151-.591-.372-.784-.664-.19-.292-.285-.652-.285-1.08 0-.369.068-.674.204-.915.137-.241.323-.434.558-.578.236-.145.502-.254.797-.328.299-.076.607-.132.925-.166.384-.039.695-.075.933-.106.239-.034.412-.085.52-.153.111-.071.166-.18.166-.328v-.025c0-.321-.095-.569-.285-.745-.191-.175-.465-.263-.823-.263-.377 0-.677.082-.899.246-.219.165-.366.359-.443.583l-1.44-.204c.113-.397.301-.729.562-.995.262-.27.581-.471.959-.604.378-.136.795-.204 1.253-.204.315 0 .629.036.942.11.312.074.598.196.856.366.259.167.466.395.622.685.159.289.239.65.239 1.084v4.373h-1.483v-.898h-.051c-.094.182-.226.352-.396.511-.168.156-.38.282-.635.378-.253.094-.55.141-.891.141zm.401-1.132c.309 0 .578-.061.805-.183.227-.124.402-.289.524-.493.125-.204.188-.427.188-.668v-.77c-.049.04-.131.077-.248.111-.113.034-.241.064-.383.089-.142.026-.283.048-.422.068l-.362.051c-.23.032-.436.083-.618.153-.182.071-.325.171-.43.298-.106.125-.158.287-.158.485 0 .284.104.498.311.642.207.145.472.217.793.217zM143.259 187.652v-6.533h1.474v1.11h.077c.137-.375.362-.667.678-.876.315-.213.692-.319 1.129-.319.443 0 .817.107 1.121.323.307.212.522.503.647.872h.069c.145-.363.389-.652.733-.868.346-.218.757-.327 1.231-.327.602 0 1.094.189 1.475.569.38.38.571.935.571 1.664v4.385h-1.547v-4.147c0-.406-.108-.702-.324-.889-.216-.19-.48-.285-.793-.285-.372 0-.663.116-.873.349-.208.229-.311.528-.311.897v4.075h-1.513v-4.211c0-.337-.102-.607-.307-.808-.202-.202-.466-.302-.793-.302-.221 0-.423.057-.605.17-.182.111-.326.268-.434.472-.108.201-.162.437-.162.706v3.973h-1.543zM154.629 187.652v-6.533h1.474v1.11h.077c.136-.375.362-.667.677-.876.316-.213.692-.319 1.13-.319.443 0 .816.107 1.12.323.307.212.523.503.648.872h.068c.145-.363.389-.652.733-.868.347-.218.757-.327 1.232-.327.602 0 1.093.189 1.474.569.381.38.571.935.571 1.664v4.385h-1.547v-4.147c0-.406-.108-.702-.324-.889-.216-.19-.48-.285-.792-.285-.372 0-.664.116-.874.349-.207.229-.311.528-.311.897v4.075h-1.513v-4.211c0-.337-.102-.607-.306-.808-.202-.202-.466-.302-.793-.302-.222 0-.423.057-.605.17-.182.111-.327.268-.435.472-.108.201-.162.437-.162.706v3.973h-1.542zM168.896 187.78c-.656 0-1.223-.137-1.7-.409-.475-.275-.84-.663-1.096-1.165-.255-.505-.383-1.099-.383-1.782 0-.673.128-1.262.383-1.77.259-.51.62-.907 1.083-1.191.463-.286 1.007-.429 1.632-.429.403 0 .784.065 1.142.195.361.128.679.326.954.596.279.269.498.612.657 1.029.159.414.238.907.238 1.48v.472h-5.365v-1.038h3.887c-.003-.294-.067-.557-.192-.786-.125-.233-.3-.416-.524-.549-.222-.133-.48-.2-.776-.2-.315 0-.592.077-.831.23-.238.15-.424.348-.558.595-.131.244-.197.512-.2.804v.906c0 .38.069.706.209.978.139.27.333.477.583.621.25.142.543.213.878.213.225 0 .428-.031.61-.094.181-.065.339-.16.473-.285.133-.124.234-.279.302-.463l1.44.161c-.09.38-.264.712-.519.996-.253.281-.577.499-.972.655-.395.153-.847.23-1.355.23zM22 146.728H102V147.726H22z"/>
    </g>
    <defs>
        <clipPath id="clip0">
            <path fill="#fff" d="M0 0h380v539H0V0z"/>
        </clipPath>
    </defs>
</svg>
