<svg width="30" height="30" viewBox="0 0 30 30" fill="none" xmlns="http://www.w3.org/2000/svg">
<path fill-rule="evenodd" clip-rule="evenodd" d="M15 30C6.71573 30 0 23.2843 0 15C0 6.71573 6.71573 0 15 0C23.2843 0 30 6.71573 30 15C30 23.2843 23.2843 30 15 30ZM15 29C22.732 29 29 22.732 29 15C29 7.26801 22.732 1 15 1C7.26801 1 1 7.26801 1 15C1 22.732 7.26801 29 15 29ZM8.00318 8.60856C8.00318 7.67719 8.825 7 9.95652 7C11.0522 7 11.8577 7.65485 11.9099 8.58948C11.9099 9.55993 11.088 10.2502 9.95652 10.2502C8.84457 10.2502 8.00318 9.54319 8.00318 8.60856ZM8 11.2303C8 11.0512 8.14674 10.9047 8.32609 10.9047H11.587C11.7663 10.9047 11.913 11.0512 11.913 11.2303V20.6743C11.913 20.8535 11.7663 21 11.587 21H8.32609C8.14674 21 8 20.8535 8 20.6743V11.2303ZM13.2174 10.9047C13.038 10.9047 12.8913 11.0512 12.8913 11.2303V20.6743C12.8913 20.8535 13.038 21 13.2174 21H16.1522C16.3322 21 16.4783 20.8541 16.4783 20.6743V15.7895V15.7081V15.6267C16.4783 14.8549 17.0719 14.2262 17.8285 14.1676C17.8667 14.1612 17.9048 14.1612 17.943 14.1612H17.9457H17.9483C17.9865 14.1612 18.0246 14.1612 18.0628 14.1676C18.8194 14.2262 19.413 14.8549 19.413 15.6267V20.6743C19.413 20.8541 19.5591 21 19.7391 21H22.6739C22.8533 21 23 20.8535 23 20.6743V15.1382C23 13.0312 21.8682 10.9047 19.3443 10.9047C18.1964 10.9047 17.3293 11.3477 16.8043 11.7156V11.2303C16.8043 11.0512 16.6576 10.9047 16.4783 10.9047H13.2174Z" fill="#1A1A1A"/>
</svg>
