<svg width="30" height="30" viewBox="0 0 30 30" fill="none" xmlns="http://www.w3.org/2000/svg">
<path fill-rule="evenodd" clip-rule="evenodd" d="M15 30C6.71573 30 0 23.2843 0 15C0 6.71573 6.71573 0 15 0C23.2843 0 30 6.71573 30 15C30 23.2843 23.2843 30 15 30ZM15 29C22.732 29 29 22.732 29 15C29 7.26801 22.732 1 15 1C7.26801 1 1 7.26801 1 15C1 22.732 7.26801 29 15 29ZM21.1152 11.2135C21.7791 11.1286 22.4121 10.9385 23 10.6573C22.5614 11.3662 22.0045 11.9881 21.3631 12.4866C21.3687 12.6373 21.3715 12.791 21.3715 12.9447C21.3715 17.6154 18.0705 23 12.0319 23C10.179 23 8.45284 22.4145 7 21.4134C7.25638 21.4458 7.5184 21.462 7.78324 21.462C9.3206 21.462 10.7368 20.8967 11.86 19.9482C10.4231 19.9209 9.21166 18.8986 8.79374 17.4951C8.99378 17.5365 9.20039 17.5577 9.41169 17.5577C9.71128 17.5577 10.0015 17.5163 10.2766 17.4334C8.77402 17.1098 7.64237 15.681 7.64237 13.968V13.9245C8.08564 14.1874 8.59277 14.3482 9.12995 14.3654C8.24905 13.7314 7.6696 12.6494 7.6696 11.4238C7.6696 10.7767 7.83113 10.1689 8.11381 9.64514C9.73381 11.7858 12.1521 13.1914 14.8803 13.339C14.8239 13.0802 14.7957 12.8112 14.7957 12.5341C14.7957 10.5825 16.2655 9 18.0771 9C19.0218 9 19.8755 9.42875 20.4728 10.1153C21.2222 9.9576 21.9238 9.66334 22.5586 9.25887C22.3135 10.084 21.7932 10.7767 21.1152 11.2135Z" fill="#1A1A1A"/>
</svg>
