<svg width="323" height="96" viewBox="0 0 323 96" fill="none" xmlns="http://www.w3.org/2000/svg">
<path d="M96 64L128 96L159 64" fill="#005D28"/>
<path d="M96 64V96H64L96 64Z" fill="#E11F17"/>
<path d="M64 64H32V96H64V64Z" fill="#005D28"/>
<path d="M32 96C32 78.3134 32 64 32 64C14.3134 64 0 78.3134 0 96H32Z" fill="#F9681B"/>
<path d="M191 63V95H159L191 63Z" fill="#FBAC17"/>
<path d="M191 63C173.313 63 159 49.5812 159 33C159 33 173.313 33 191 33V63Z" fill="#005D28"/>
<path d="M160 33V65H128L160 33Z" fill="#E11F17"/>
<path d="M96 33C87.1483 33 80 39.1787 80 48C80 56.8213 87.1787 65 96 65V33Z" fill="#FBAC17"/>
<path d="M96 33V65H128L96 33Z" fill="#FBAC17"/>
<path d="M63 65C71.8517 65 79 56.8213 79 48C79 39.1787 71.8213 33 63 33V65Z" fill="#FBAC17"/>
<path d="M32 32C14.3134 32 0 17.6866 0 0C0 0 14.3134 0 32 0V32Z" fill="#005D28"/>
<path d="M222 95V63L190 63V95H222Z" fill="#E11F17"/>
<path d="M223 95L239 95L239 63L223 63L223 95Z" fill="#F9681B"/>
<path d="M310.123 92.496L323 83L304.008 57.2453L291.131 66.7414L310.123 92.496Z" fill="#F9681B"/>
<path d="M239 95C239 77.3134 254.305 63 272 63C289.695 63 303 77.3134 303 95L239 95Z" fill="#005D28"/>
<path d="M32 64L32 32L0 32L0 64H32Z" fill="#FBAC17"/>
<path d="M108.335 34.3345L85 11L62.3726 33.6274L108.335 34.3345Z" fill="#F9681B"/>
</svg>
